<?xml version="1.0" encoding="us-ascii" standalone="no"?><svg xmlns="http://www.w3.org/2000/svg" xmlns:xlink="http://www.w3.org/1999/xlink" contentStyleType="text/css" height="963px" preserveAspectRatio="none" style="width:2561px;height:963px;background:#FFFFFF;" version="1.1" viewBox="0 0 2561 963" width="2561px" zoomAndPan="magnify"><defs/><g><rect fill="none" height="134.5527" style="stroke:#000000;stroke-width:1.5;" width="1930.5" x="10" y="128.5977"/><rect fill="none" height="193.1738" style="stroke:#000000;stroke-width:1.5;" width="2545.5" x="10" y="540.9453"/><line style="stroke:#181818;stroke-width:0.5;stroke-dasharray:5.0,5.0;" x1="45" x2="45" y1="52.9766" y2="956.293"/><line style="stroke:#181818;stroke-width:0.5;stroke-dasharray:5.0,5.0;" x1="385.5" x2="385.5" y1="52.9766" y2="956.293"/><line style="stroke:#181818;stroke-width:0.5;stroke-dasharray:5.0,5.0;" x1="626.5" x2="626.5" y1="52.9766" y2="956.293"/><line style="stroke:#181818;stroke-width:0.5;stroke-dasharray:5.0,5.0;" x1="836.5" x2="836.5" y1="52.9766" y2="956.293"/><line style="stroke:#181818;stroke-width:0.5;stroke-dasharray:5.0,5.0;" x1="1030.5" x2="1030.5" y1="52.9766" y2="956.293"/><line style="stroke:#181818;stroke-width:0.5;stroke-dasharray:5.0,5.0;" x1="1345.5" x2="1345.5" y1="52.9766" y2="956.293"/><line style="stroke:#181818;stroke-width:0.5;stroke-dasharray:5.0,5.0;" x1="1565.5" x2="1565.5" y1="52.9766" y2="956.293"/><line style="stroke:#181818;stroke-width:0.5;stroke-dasharray:5.0,5.0;" x1="1803.5" x2="1803.5" y1="52.9766" y2="956.293"/><line style="stroke:#181818;stroke-width:0.5;stroke-dasharray:5.0,5.0;" x1="2082.5" x2="2082.5" y1="52.9766" y2="956.293"/><line style="stroke:#181818;stroke-width:0.5;stroke-dasharray:5.0,5.0;" x1="2314.5" x2="2314.5" y1="52.9766" y2="956.293"/><line style="stroke:#181818;stroke-width:0.5;stroke-dasharray:5.0,5.0;" x1="2474.5" x2="2474.5" y1="52.9766" y2="956.293"/><rect fill="#E2E2F0" height="30.4883" rx="2.5" ry="2.5" style="stroke:#181818;stroke-width:0.5;" width="51" x="20" y="21.4883"/><text fill="#000000" font-family="sans-serif" font-size="14" lengthAdjust="spacing" textLength="37" x="27" y="42.0234">Actor</text><rect fill="#E2E2F0" height="46.9766" rx="2.5" ry="2.5" style="stroke:#181818;stroke-width:0.5;" width="196" x="287.5" y="5"/><text fill="#000000" font-family="sans-serif" font-size="14" font-style="italic" lengthAdjust="spacing" textLength="141" x="315" y="25.5352">&#171;/electoral-register&#187;</text><text fill="#000000" font-family="sans-serif" font-size="14" lengthAdjust="spacing" textLength="182" x="294.5" y="42.0234">ElectoralRegisterDashPage</text><rect fill="#E2E2F0" height="46.9766" rx="2.5" ry="2.5" style="stroke:#181818;stroke-width:0.5;" width="266" x="493.5" y="5"/><text fill="#000000" font-family="sans-serif" font-size="14" font-style="italic" lengthAdjust="spacing" textLength="252" x="500.5" y="25.5352">&#171;/electoral-register/send-reminder&#187;</text><text fill="#000000" font-family="sans-serif" font-size="14" lengthAdjust="spacing" textLength="133" x="560" y="42.0234">SendReminderPage</text><rect fill="#E2E2F0" height="46.9766" rx="2.5" ry="2.5" style="stroke:#181818;stroke-width:0.5;" width="134" x="769.5" y="5"/><text fill="#000000" font-family="sans-serif" font-size="14" font-style="italic" lengthAdjust="spacing" textLength="56" x="808.5" y="25.5352">&#171;/error&#187;</text><text fill="#000000" font-family="sans-serif" font-size="14" lengthAdjust="spacing" textLength="120" x="776.5" y="42.0234">GenericErrorPage</text><rect fill="#FFFFE0" height="46.9766" rx="2.5" ry="2.5" style="stroke:#181818;stroke-width:0.5;" width="234" x="913.5" y="5"/><text fill="#000000" font-family="sans-serif" font-size="14" font-style="italic" lengthAdjust="spacing" textLength="220" x="920.5" y="25.5352">&#171;electoral-register.controller.js&#187;</text><text fill="#000000" font-family="sans-serif" font-size="14" lengthAdjust="spacing" textLength="185" x="938" y="42.0234">ElectoralRegisterController</text><rect fill="#FFFFE0" height="46.9766" rx="2.5" ry="2.5" style="stroke:#181818;stroke-width:0.5;" width="218" x="1236.5" y="5"/><text fill="#000000" font-family="sans-serif" font-size="14" font-style="italic" lengthAdjust="spacing" textLength="204" x="1243.5" y="25.5352">&#171;send-reminder.controller.js&#187;</text><text fill="#000000" font-family="sans-serif" font-size="14" lengthAdjust="spacing" textLength="170" x="1260.5" y="42.0234">SendReminderController</text><rect fill="#FFFFE0" height="46.9766" rx="2.5" ry="2.5" style="stroke:#181818;stroke-width:0.5;" width="202" x="1464.5" y="5"/><text fill="#000000" font-family="sans-serif" font-size="14" font-style="italic" lengthAdjust="spacing" textLength="188" x="1471.5" y="25.5352">&#171;sendReminderDAO.post()&#187;</text><text fill="#000000" font-family="sans-serif" font-size="14" lengthAdjust="spacing" textLength="131" x="1500" y="42.0234">SendReminderDAO</text><rect fill="#E6E6FA" height="46.9766" rx="2.5" ry="2.5" style="stroke:#181818;stroke-width:0.5;" width="254" x="1676.5" y="5"/><text fill="#000000" font-family="sans-serif" font-size="14" font-style="italic" lengthAdjust="spacing" textLength="240" x="1683.5" y="25.5352">&#171;electoral-register/dashboard.njk&#187;</text><text fill="#000000" font-family="sans-serif" font-size="14" lengthAdjust="spacing" textLength="213" x="1697" y="42.0234">ElectoralRegisterDashTemplate</text><rect fill="#E6E6FA" height="46.9766" rx="2.5" ry="2.5" style="stroke:#181818;stroke-width:0.5;" width="284" x="1940.5" y="5"/><text fill="#000000" font-family="sans-serif" font-size="14" font-style="italic" lengthAdjust="spacing" textLength="270" x="1947.5" y="25.5352">&#171;electoral-register/send-reminder.njk&#187;</text><text fill="#000000" font-family="sans-serif" font-size="14" lengthAdjust="spacing" textLength="164" x="2000.5" y="42.0234">SendReminderTemplate</text><rect fill="#E6E6FA" height="46.9766" rx="2.5" ry="2.5" style="stroke:#181818;stroke-width:0.5;" width="160" x="2234.5" y="5"/><text fill="#000000" font-family="sans-serif" font-size="14" font-style="italic" lengthAdjust="spacing" textLength="146" x="2241.5" y="25.5352">&#171;_errors/generic.njk&#187;</text><text fill="#000000" font-family="sans-serif" font-size="14" lengthAdjust="spacing" textLength="99" x="2265" y="42.0234">ErrorTemplate</text><rect fill="#E2E2F0" height="30.4883" rx="2.5" ry="2.5" style="stroke:#181818;stroke-width:0.5;" width="141" x="2404.5" y="21.4883"/><text fill="#000000" font-family="sans-serif" font-size="14" lengthAdjust="spacing" textLength="127" x="2411.5" y="42.0234">BackendController</text><polygon fill="#181818" points="373.5,80.2871,383.5,84.2871,373.5,88.2871" style="stroke:#181818;stroke-width:1.0;"/><line style="stroke:#181818;stroke-width:1.0;" x1="45.5" x2="379.5" y1="84.2871" y2="84.2871"/><text fill="#000000" font-family="sans-serif" font-size="13" lengthAdjust="spacing" textLength="316" x="57.5" y="79.5449">Select multiple LA's and click "Send reminder" link</text><polygon fill="#181818" points="1018.5,109.5977,1028.5,113.5977,1018.5,117.5977" style="stroke:#181818;stroke-width:1.0;"/><line style="stroke:#181818;stroke-width:1.0;" x1="385.5" x2="1024.5" y1="113.5977" y2="113.5977"/><text fill="#000000" font-family="sans-serif" font-size="13" lengthAdjust="spacing" textLength="197" x="609.5" y="108.8555">call electoral register controller</text><path d="M10,128.5977 L72,128.5977 L72,135.9082 L62,145.9082 L10,145.9082 L10,128.5977 " fill="#EEEEEE" style="stroke:#000000;stroke-width:1.5;"/><rect fill="none" height="134.5527" style="stroke:#000000;stroke-width:1.5;" width="1930.5" x="10" y="128.5977"/><text fill="#000000" font-family="sans-serif" font-size="13" font-weight="bold" lengthAdjust="spacing" textLength="17" x="25" y="142.166">alt</text><text fill="#000000" font-family="sans-serif" font-size="11" font-weight="bold" lengthAdjust="spacing" textLength="99" x="87" y="141.2324">[No LA's selected]</text><polygon fill="#181818" points="1791.5,163.2188,1801.5,167.2188,1791.5,171.2188" style="stroke:#181818;stroke-width:1.0;"/><line style="stroke:#181818;stroke-width:1.0;" x1="1030.5" x2="1797.5" y1="167.2188" y2="167.2188"/><text fill="#000000" font-family="sans-serif" font-size="13" lengthAdjust="spacing" textLength="169" x="1332.5" y="162.4766">request and build template</text><polygon fill="#181818" points="1041.5,192.5293,1031.5,196.5293,1041.5,200.5293" style="stroke:#181818;stroke-width:1.0;"/><line style="stroke:#181818;stroke-width:1.0;" x1="1035.5" x2="1802.5" y1="196.5293" y2="196.5293"/><text fill="#000000" font-family="sans-serif" font-size="13" lengthAdjust="spacing" textLength="78" x="1378" y="191.7871">return HTML</text><polygon fill="#181818" points="396.5,221.8398,386.5,225.8398,396.5,229.8398" style="stroke:#181818;stroke-width:1.0;"/><line style="stroke:#181818;stroke-width:1.0;" x1="390.5" x2="1029.5" y1="225.8398" y2="225.8398"/><text fill="#000000" font-family="sans-serif" font-size="13" lengthAdjust="spacing" textLength="112" x="652" y="221.0977">return error HTML</text><polygon fill="#181818" points="56.5,251.1504,46.5,255.1504,56.5,259.1504" style="stroke:#181818;stroke-width:1.0;"/><line style="stroke:#181818;stroke-width:1.0;" x1="50.5" x2="384.5" y1="255.1504" y2="255.1504"/><text fill="#000000" font-family="sans-serif" font-size="13" lengthAdjust="spacing" textLength="133" x="149" y="250.4082">render error message</text><polygon fill="#181818" points="1333.5,287.4609,1343.5,291.4609,1333.5,295.4609" style="stroke:#181818;stroke-width:1.0;"/><line style="stroke:#181818;stroke-width:1.0;" x1="1030.5" x2="1339.5" y1="291.4609" y2="291.4609"/><text fill="#000000" font-family="sans-serif" font-size="13" lengthAdjust="spacing" textLength="291" x="1042.5" y="286.7188">pass selected LA's to send reminder controller</text><polygon fill="#181818" points="2070.5,316.7715,2080.5,320.7715,2070.5,324.7715" style="stroke:#181818;stroke-width:1.0;"/><line style="stroke:#181818;stroke-width:1.0;" x1="1345.5" x2="2076.5" y1="320.7715" y2="320.7715"/><text fill="#000000" font-family="sans-serif" font-size="13" lengthAdjust="spacing" textLength="169" x="1629.5" y="316.0293">request and build template</text><polygon fill="#181818" points="1356.5,346.082,1346.5,350.082,1356.5,354.082" style="stroke:#181818;stroke-width:1.0;"/><line style="stroke:#181818;stroke-width:1.0;" x1="1350.5" x2="2081.5" y1="350.082" y2="350.082"/><text fill="#000000" font-family="sans-serif" font-size="13" lengthAdjust="spacing" textLength="78" x="1675" y="345.3398">return HTML</text><polygon fill="#181818" points="637.5,375.3926,627.5,379.3926,637.5,383.3926" style="stroke:#181818;stroke-width:1.0;"/><line style="stroke:#181818;stroke-width:1.0;" x1="631.5" x2="1344.5" y1="379.3926" y2="379.3926"/><text fill="#000000" font-family="sans-serif" font-size="13" lengthAdjust="spacing" textLength="78" x="947" y="374.6504">return HTML</text><polygon fill="#181818" points="56.5,404.7031,46.5,408.7031,56.5,412.7031" style="stroke:#181818;stroke-width:1.0;"/><line style="stroke:#181818;stroke-width:1.0;" x1="50.5" x2="625.5" y1="408.7031" y2="408.7031"/><text fill="#000000" font-family="sans-serif" font-size="13" lengthAdjust="spacing" textLength="80" x="296" y="403.9609">render HTML</text><polygon fill="#181818" points="614.5,434.0137,624.5,438.0137,614.5,442.0137" style="stroke:#181818;stroke-width:1.0;"/><line style="stroke:#181818;stroke-width:1.0;" x1="45.5" x2="620.5" y1="438.0137" y2="438.0137"/><text fill="#000000" font-family="sans-serif" font-size="13" lengthAdjust="spacing" textLength="227" x="222.5" y="433.2715">Click "Yes - send reminders" button</text><polygon fill="#181818" points="1333.5,463.3242,1343.5,467.3242,1333.5,471.3242" style="stroke:#181818;stroke-width:1.0;"/><line style="stroke:#181818;stroke-width:1.0;" x1="626.5" x2="1339.5" y1="467.3242" y2="467.3242"/><text fill="#000000" font-family="sans-serif" font-size="13" lengthAdjust="spacing" textLength="181" x="895.5" y="462.582">call send reminder controller</text><polygon fill="#181818" points="1553.5,492.6348,1563.5,496.6348,1553.5,500.6348" style="stroke:#181818;stroke-width:1.0;"/><line style="stroke:#181818;stroke-width:1.0;" x1="1345.5" x2="1559.5" y1="496.6348" y2="496.6348"/><text fill="#000000" font-family="sans-serif" font-size="13" lengthAdjust="spacing" textLength="126" x="1392.5" y="491.8926">build request object</text><polygon fill="#181818" points="2463,521.9453,2473,525.9453,2463,529.9453" style="stroke:#181818;stroke-width:1.0;"/><line style="stroke:#181818;stroke-width:1.0;" x1="1565.5" x2="2469" y1="525.9453" y2="525.9453"/><text fill="#000000" font-family="sans-serif" font-size="13" lengthAdjust="spacing" textLength="138" x="1951.25" y="521.2031">send backend request</text><path d="M10,540.9453 L72,540.9453 L72,548.2559 L62,558.2559 L10,558.2559 L10,540.9453 " fill="#EEEEEE" style="stroke:#000000;stroke-width:1.5;"/><rect fill="none" height="193.1738" style="stroke:#000000;stroke-width:1.5;" width="2545.5" x="10" y="540.9453"/><text fill="#000000" font-family="sans-serif" font-size="13" font-weight="bold" lengthAdjust="spacing" textLength="17" x="25" y="554.5137">alt</text><text fill="#000000" font-family="sans-serif" font-size="11" font-weight="bold" lengthAdjust="spacing" textLength="276" x="87" y="553.5801">[Failed to send reminder email to local authority]</text><polygon fill="#181818" points="1576.5,575.5664,1566.5,579.5664,1576.5,583.5664" style="stroke:#181818;stroke-width:1.0;"/><line style="stroke:#181818;stroke-width:1.0;stroke-dasharray:2.0,2.0;" x1="1570.5" x2="2474" y1="579.5664" y2="579.5664"/><text fill="#000000" font-family="sans-serif" font-size="13" lengthAdjust="spacing" textLength="91" x="1974.75" y="574.8242">Error response</text><polygon fill="#181818" points="1356.5,604.877,1346.5,608.877,1356.5,612.877" style="stroke:#181818;stroke-width:1.0;"/><line style="stroke:#181818;stroke-width:1.0;stroke-dasharray:2.0,2.0;" x1="1350.5" x2="1564.5" y1="608.877" y2="608.877"/><text fill="#000000" font-family="sans-serif" font-size="13" lengthAdjust="spacing" textLength="127" x="1392" y="604.1348">reject requestObject</text><polygon fill="#181818" points="2302.5,634.1875,2312.5,638.1875,2302.5,642.1875" style="stroke:#181818;stroke-width:1.0;"/><line style="stroke:#181818;stroke-width:1.0;" x1="1345.5" x2="2308.5" y1="638.1875" y2="638.1875"/><text fill="#000000" font-family="sans-serif" font-size="13" lengthAdjust="spacing" textLength="169" x="1745.5" y="633.4453">request and build template</text><polygon fill="#181818" points="1356.5,663.498,1346.5,667.498,1356.5,671.498" style="stroke:#181818;stroke-width:1.0;"/><line style="stroke:#181818;stroke-width:1.0;" x1="1350.5" x2="2313.5" y1="667.498" y2="667.498"/><text fill="#000000" font-family="sans-serif" font-size="13" lengthAdjust="spacing" textLength="78" x="1791" y="662.7559">return HTML</text><polygon fill="#181818" points="847.5,692.8086,837.5,696.8086,847.5,700.8086" style="stroke:#181818;stroke-width:1.0;"/><line style="stroke:#181818;stroke-width:1.0;" x1="841.5" x2="1344.5" y1="696.8086" y2="696.8086"/><text fill="#000000" font-family="sans-serif" font-size="13" lengthAdjust="spacing" textLength="78" x="1052" y="692.0664">return HTML</text><polygon fill="#181818" points="56.5,722.1191,46.5,726.1191,56.5,730.1191" style="stroke:#181818;stroke-width:1.0;"/><line style="stroke:#181818;stroke-width:1.0;" x1="50.5" x2="835.5" y1="726.1191" y2="726.1191"/><text fill="#000000" font-family="sans-serif" font-size="13" lengthAdjust="spacing" textLength="108" x="387" y="721.377">render error page</text><polygon fill="#181818" points="1576.5,758.4297,1566.5,762.4297,1576.5,766.4297" style="stroke:#181818;stroke-width:1.0;"/><line style="stroke:#181818;stroke-width:1.0;" x1="1570.5" x2="2474" y1="762.4297" y2="762.4297"/><text fill="#000000" font-family="sans-serif" font-size="13" lengthAdjust="spacing" textLength="77" x="1981.75" y="757.6875">ok response</text><polygon fill="#181818" points="1356.5,787.7402,1346.5,791.7402,1356.5,795.7402" style="stroke:#181818;stroke-width:1.0;"/><line style="stroke:#181818;stroke-width:1.0;" x1="1350.5" x2="1564.5" y1="791.7402" y2="791.7402"/><text fill="#000000" font-family="sans-serif" font-size="13" lengthAdjust="spacing" textLength="96" x="1407.5" y="786.998">resolve request</text><polygon fill="#181818" points="1041.5,817.0508,1031.5,821.0508,1041.5,825.0508" style="stroke:#181818;stroke-width:1.0;"/><line style="stroke:#181818;stroke-width:1.0;" x1="1035.5" x2="1344.5" y1="821.0508" y2="821.0508"/><text fill="#000000" font-family="sans-serif" font-size="13" lengthAdjust="spacing" textLength="159" x="1108.5" y="816.3086">return to dashboard page</text><polygon fill="#181818" points="1791.5,846.3613,1801.5,850.3613,1791.5,854.3613" style="stroke:#181818;stroke-width:1.0;"/><line style="stroke:#181818;stroke-width:1.0;" x1="1030.5" x2="1797.5" y1="850.3613" y2="850.3613"/><text fill="#000000" font-family="sans-serif" font-size="13" lengthAdjust="spacing" textLength="169" x="1332.5" y="845.6191">request and build template</text><polygon fill="#181818" points="1041.5,875.6719,1031.5,879.6719,1041.5,883.6719" style="stroke:#181818;stroke-width:1.0;"/><line style="stroke:#181818;stroke-width:1.0;" x1="1035.5" x2="1802.5" y1="879.6719" y2="879.6719"/><text fill="#000000" font-family="sans-serif" font-size="13" lengthAdjust="spacing" textLength="78" x="1378" y="874.9297">return HTML</text><polygon fill="#181818" points="396.5,904.9824,386.5,908.9824,396.5,912.9824" style="stroke:#181818;stroke-width:1.0;"/><line style="stroke:#181818;stroke-width:1.0;" x1="390.5" x2="1029.5" y1="908.9824" y2="908.9824"/><text fill="#000000" font-family="sans-serif" font-size="13" lengthAdjust="spacing" textLength="78" x="669" y="904.2402">return HTML</text><polygon fill="#181818" points="56.5,934.293,46.5,938.293,56.5,942.293" style="stroke:#181818;stroke-width:1.0;"/><line style="stroke:#181818;stroke-width:1.0;" x1="50.5" x2="384.5" y1="938.293" y2="938.293"/><text fill="#000000" font-family="sans-serif" font-size="13" lengthAdjust="spacing" textLength="80" x="175.5" y="933.5508">render HTML</text><!--SRC=[jLLTRzem57tthxXZaoWIX7TK8QLfsdMZf8NqOK-Jwro1YsCpszdKVx-R02Kf99icxGKfliV7zvpxmLfc28LMKcymOn-a5ggWao0Ohr2ZbMBqh8pOk62hkFP5hXXp6wcttF8SblvL8JXFi384zH3-A50Bl4Vd-0f39LSwH-r1q0zQnWZcfP1ROeLGU4D7_NuVPaaKpc2HFALtyzi6wBF9yO6euF9oF9qsGh72ae6h1Qwa8_fhxjO7B1w28xkFlhkzH9qjC9SwGzj-QUm8Hbyxt3kAsvrNiRNcI55-4AwI5INpT97CPl42mlarBEB7ftYPGdBr9OxIPRUOo6XlZL9eYVOqiK2ynOCNDvt2H_9wxLzHAVEhLMY3j27jt_YkmsHFL3i9jiRvYy5xZigHDBv_c8LflFnp9LFCgViydfK_pWZnRBZD0lsogPxYFx5Ce3NNRhwc6LsSLRbhPD-hahl3v9pShNHVXT7Nc5hWs14DpYikDeG-beUnQZfWDEreymdfAuEG5yhBBGtbBEmxu3e3eQJOGA_K3mTLFIZddRNpdNkirZ4J45mfU3CF3kQ1gENDbOUvsMNYAYnj681FjdAZCY_HDyRc5nrl3RjROjXkoe3HEunrwI2PBJCnWIrtnxHt8hm1LxUneNOlwv1OQieSBixJ3y-su_1a4mrgnJ_PKXE8TgNzXWv6pSnS3vuBxurcxEHUb-Ygh1qQzvqTFjn5XFmhTRG6Xir96KBlXaj5hfuOYZa5ocFwpw6sueLV6olzQs_GNSZBKRicYxwmkYHzsnHKt1MsLEm_zU9l]--></g></svg>