<?xml version="1.0" encoding="us-ascii" standalone="no"?><svg xmlns="http://www.w3.org/2000/svg" xmlns:xlink="http://www.w3.org/1999/xlink" contentStyleType="text/css" height="963px" preserveAspectRatio="none" style="width:2433px;height:963px;background:#FFFFFF;" version="1.1" viewBox="0 0 2433 963" width="2433px" zoomAndPan="magnify"><defs/><g><rect fill="none" height="163.8633" style="stroke:#000000;stroke-width:1.5;" width="2096.5" x="10" y="363.082"/><rect fill="none" height="193.1738" style="stroke:#000000;stroke-width:1.5;" width="2417.5" x="10" y="628.877"/><line style="stroke:#181818;stroke-width:0.5;stroke-dasharray:5.0,5.0;" x1="45" x2="45" y1="52.9766" y2="956.293"/><line style="stroke:#181818;stroke-width:0.5;stroke-dasharray:5.0,5.0;" x1="299.5" x2="299.5" y1="52.9766" y2="956.293"/><line style="stroke:#181818;stroke-width:0.5;stroke-dasharray:5.0,5.0;" x1="546.5" x2="546.5" y1="52.9766" y2="956.293"/><line style="stroke:#181818;stroke-width:0.5;stroke-dasharray:5.0,5.0;" x1="763.5" x2="763.5" y1="52.9766" y2="956.293"/><line style="stroke:#181818;stroke-width:0.5;stroke-dasharray:5.0,5.0;" x1="955.5" x2="955.5" y1="52.9766" y2="956.293"/><line style="stroke:#181818;stroke-width:0.5;stroke-dasharray:5.0,5.0;" x1="1291.5" x2="1291.5" y1="52.9766" y2="956.293"/><line style="stroke:#181818;stroke-width:0.5;stroke-dasharray:5.0,5.0;" x1="1487.5" x2="1487.5" y1="52.9766" y2="956.293"/><line style="stroke:#181818;stroke-width:0.5;stroke-dasharray:5.0,5.0;" x1="1685.5" x2="1685.5" y1="52.9766" y2="956.293"/><line style="stroke:#181818;stroke-width:0.5;stroke-dasharray:5.0,5.0;" x1="1947.5" x2="1947.5" y1="52.9766" y2="956.293"/><line style="stroke:#181818;stroke-width:0.5;stroke-dasharray:5.0,5.0;" x1="2186.5" x2="2186.5" y1="52.9766" y2="956.293"/><line style="stroke:#181818;stroke-width:0.5;stroke-dasharray:5.0,5.0;" x1="2346.5" x2="2346.5" y1="52.9766" y2="956.293"/><rect fill="#E2E2F0" height="30.4883" rx="2.5" ry="2.5" style="stroke:#181818;stroke-width:0.5;" width="51" x="20" y="21.4883"/><text fill="#000000" font-family="sans-serif" font-size="14" lengthAdjust="spacing" textLength="37" x="27" y="42.0234">Actor</text><rect fill="#E2E2F0" height="46.9766" rx="2.5" ry="2.5" style="stroke:#181818;stroke-width:0.5;" width="196" x="201.5" y="5"/><text fill="#000000" font-family="sans-serif" font-size="14" font-style="italic" lengthAdjust="spacing" textLength="141" x="229" y="25.5352">&#171;/electoral-register&#187;</text><text fill="#000000" font-family="sans-serif" font-size="14" lengthAdjust="spacing" textLength="182" x="208.5" y="42.0234">ElectoralRegisterDashPage</text><rect fill="#E2E2F0" height="46.9766" rx="2.5" ry="2.5" style="stroke:#181818;stroke-width:0.5;" width="279" x="407.5" y="5"/><text fill="#000000" font-family="sans-serif" font-size="14" font-style="italic" lengthAdjust="spacing" textLength="265" x="414.5" y="25.5352">&#171;/electoral-register/change-deadline&#187;</text><text fill="#000000" font-family="sans-serif" font-size="14" lengthAdjust="spacing" textLength="146" x="474" y="42.0234">ChangeDeadlinePage</text><rect fill="#E2E2F0" height="46.9766" rx="2.5" ry="2.5" style="stroke:#181818;stroke-width:0.5;" width="134" x="696.5" y="5"/><text fill="#000000" font-family="sans-serif" font-size="14" font-style="italic" lengthAdjust="spacing" textLength="56" x="735.5" y="25.5352">&#171;/error&#187;</text><text fill="#000000" font-family="sans-serif" font-size="14" lengthAdjust="spacing" textLength="120" x="703.5" y="42.0234">GenericErrorPage</text><rect fill="#FFFFE0" height="46.9766" rx="2.5" ry="2.5" style="stroke:#181818;stroke-width:0.5;" width="231" x="840.5" y="5"/><text fill="#000000" font-family="sans-serif" font-size="14" font-style="italic" lengthAdjust="spacing" textLength="217" x="847.5" y="25.5352">&#171;change-deadline.controller.js&#187;</text><text fill="#000000" font-family="sans-serif" font-size="14" lengthAdjust="spacing" textLength="183" x="864.5" y="42.0234">ChangeDeadlineController</text><rect fill="#FFFFE0" height="46.9766" rx="2.5" ry="2.5" style="stroke:#181818;stroke-width:0.5;" width="201" x="1191.5" y="5"/><text fill="#000000" font-family="sans-serif" font-size="14" font-style="italic" lengthAdjust="spacing" textLength="187" x="1198.5" y="25.5352">&#171;set-deadline.controller.js&#187;</text><text fill="#000000" font-family="sans-serif" font-size="14" lengthAdjust="spacing" textLength="151" x="1216.5" y="42.0234">SetDeadlineController</text><rect fill="#FFFFE0" height="46.9766" rx="2.5" ry="2.5" style="stroke:#181818;stroke-width:0.5;" width="170" x="1402.5" y="5"/><text fill="#000000" font-family="sans-serif" font-size="14" font-style="italic" lengthAdjust="spacing" textLength="156" x="1409.5" y="25.5352">&#171;erDeadlineDAO.put()&#187;</text><text fill="#000000" font-family="sans-serif" font-size="14" lengthAdjust="spacing" textLength="105" x="1435" y="42.0234">ErDeadlineDAO</text><rect fill="#E2E2F0" height="30.4883" rx="2.5" ry="2.5" style="stroke:#181818;stroke-width:0.5;" width="207" x="1582.5" y="21.4883"/><text fill="#000000" font-family="sans-serif" font-size="14" lengthAdjust="spacing" textLength="193" x="1589.5" y="42.0234">NonAttendanceDayValidator</text><rect fill="#E6E6FA" height="46.9766" rx="2.5" ry="2.5" style="stroke:#181818;stroke-width:0.5;" width="297" x="1799.5" y="5"/><text fill="#000000" font-family="sans-serif" font-size="14" font-style="italic" lengthAdjust="spacing" textLength="283" x="1806.5" y="25.5352">&#171;electoral-register/change-deadline.njk&#187;</text><text fill="#000000" font-family="sans-serif" font-size="14" lengthAdjust="spacing" textLength="177" x="1859.5" y="42.0234">ChangeDeadlineTemplate</text><rect fill="#E6E6FA" height="46.9766" rx="2.5" ry="2.5" style="stroke:#181818;stroke-width:0.5;" width="160" x="2106.5" y="5"/><text fill="#000000" font-family="sans-serif" font-size="14" font-style="italic" lengthAdjust="spacing" textLength="146" x="2113.5" y="25.5352">&#171;_errors/generic.njk&#187;</text><text fill="#000000" font-family="sans-serif" font-size="14" lengthAdjust="spacing" textLength="99" x="2137" y="42.0234">ErrorTemplate</text><rect fill="#E2E2F0" height="30.4883" rx="2.5" ry="2.5" style="stroke:#181818;stroke-width:0.5;" width="141" x="2276.5" y="21.4883"/><text fill="#000000" font-family="sans-serif" font-size="14" lengthAdjust="spacing" textLength="127" x="2283.5" y="42.0234">BackendController</text><polygon fill="#181818" points="287.5,80.2871,297.5,84.2871,287.5,88.2871" style="stroke:#181818;stroke-width:1.0;"/><line style="stroke:#181818;stroke-width:1.0;" x1="45.5" x2="293.5" y1="84.2871" y2="84.2871"/><text fill="#000000" font-family="sans-serif" font-size="13" lengthAdjust="spacing" textLength="178" x="83.5" y="79.5449">Click "Change deadline" link</text><polygon fill="#181818" points="944,109.5977,954,113.5977,944,117.5977" style="stroke:#181818;stroke-width:1.0;"/><line style="stroke:#181818;stroke-width:1.0;" x1="299.5" x2="950" y1="113.5977" y2="113.5977"/><text fill="#000000" font-family="sans-serif" font-size="13" lengthAdjust="spacing" textLength="121" x="567.25" y="108.8555">call page controller</text><polygon fill="#181818" points="1936,138.9082,1946,142.9082,1936,146.9082" style="stroke:#181818;stroke-width:1.0;"/><line style="stroke:#181818;stroke-width:1.0;" x1="956" x2="1942" y1="142.9082" y2="142.9082"/><text fill="#000000" font-family="sans-serif" font-size="13" lengthAdjust="spacing" textLength="169" x="1367.5" y="138.166">request and build template</text><polygon fill="#181818" points="967,168.2188,957,172.2188,967,176.2188" style="stroke:#181818;stroke-width:1.0;"/><line style="stroke:#181818;stroke-width:1.0;" x1="961" x2="1947" y1="172.2188" y2="172.2188"/><text fill="#000000" font-family="sans-serif" font-size="13" lengthAdjust="spacing" textLength="78" x="1413" y="167.4766">return HTML</text><polygon fill="#181818" points="558,197.5293,548,201.5293,558,205.5293" style="stroke:#181818;stroke-width:1.0;"/><line style="stroke:#181818;stroke-width:1.0;" x1="552" x2="955" y1="201.5293" y2="201.5293"/><text fill="#000000" font-family="sans-serif" font-size="13" lengthAdjust="spacing" textLength="78" x="712.5" y="196.7871">return HTML</text><polygon fill="#181818" points="56.5,226.8398,46.5,230.8398,56.5,234.8398" style="stroke:#181818;stroke-width:1.0;"/><line style="stroke:#181818;stroke-width:1.0;" x1="50.5" x2="546" y1="230.8398" y2="230.8398"/><text fill="#000000" font-family="sans-serif" font-size="13" lengthAdjust="spacing" textLength="80" x="256.25" y="226.0977">render HTML</text><polygon fill="#181818" points="535,256.1504,545,260.1504,535,264.1504" style="stroke:#181818;stroke-width:1.0;"/><line style="stroke:#181818;stroke-width:1.0;" x1="45.5" x2="541" y1="260.1504" y2="260.1504"/><text fill="#000000" font-family="sans-serif" font-size="13" lengthAdjust="spacing" textLength="304" x="144.25" y="255.4082">Select a date and click "Change deadline" button</text><polygon fill="#181818" points="944,285.4609,954,289.4609,944,293.4609" style="stroke:#181818;stroke-width:1.0;"/><line style="stroke:#181818;stroke-width:1.0;" x1="547" x2="950" y1="289.4609" y2="289.4609"/><text fill="#000000" font-family="sans-serif" font-size="13" lengthAdjust="spacing" textLength="193" x="655" y="284.7188">call change deadline controller</text><polygon fill="#181818" points="1280,314.7715,1290,318.7715,1280,322.7715" style="stroke:#181818;stroke-width:1.0;"/><line style="stroke:#181818;stroke-width:1.0;" x1="956" x2="1286" y1="318.7715" y2="318.7715"/><text fill="#000000" font-family="sans-serif" font-size="13" lengthAdjust="spacing" textLength="312" x="968" y="314.0293">call set deadline controller to update the deadline</text><polygon fill="#181818" points="1674,344.082,1684,348.082,1674,352.082" style="stroke:#181818;stroke-width:1.0;"/><line style="stroke:#181818;stroke-width:1.0;" x1="1292" x2="1680" y1="348.082" y2="348.082"/><text fill="#000000" font-family="sans-serif" font-size="13" lengthAdjust="spacing" textLength="95" x="1441.5" y="343.3398">validate details</text><path d="M10,363.082 L72,363.082 L72,370.3926 L62,380.3926 L10,380.3926 L10,363.082 " fill="#EEEEEE" style="stroke:#000000;stroke-width:1.5;"/><rect fill="none" height="163.8633" style="stroke:#000000;stroke-width:1.5;" width="2096.5" x="10" y="363.082"/><text fill="#000000" font-family="sans-serif" font-size="13" font-weight="bold" lengthAdjust="spacing" textLength="17" x="25" y="376.6504">alt</text><text fill="#000000" font-family="sans-serif" font-size="11" font-weight="bold" lengthAdjust="spacing" textLength="80" x="87" y="375.7168">[Invalid input]</text><polygon fill="#181818" points="1303,397.7031,1293,401.7031,1303,405.7031" style="stroke:#181818;stroke-width:1.0;"/><line style="stroke:#181818;stroke-width:1.0;" x1="1297" x2="1685" y1="401.7031" y2="401.7031"/><text fill="#000000" font-family="sans-serif" font-size="13" lengthAdjust="spacing" textLength="79" x="1449.5" y="396.9609">Invalid input</text><polygon fill="#181818" points="1936,427.0137,1946,431.0137,1936,435.0137" style="stroke:#181818;stroke-width:1.0;"/><line style="stroke:#181818;stroke-width:1.0;" x1="1292" x2="1942" y1="431.0137" y2="431.0137"/><text fill="#000000" font-family="sans-serif" font-size="13" lengthAdjust="spacing" textLength="169" x="1535.5" y="426.2715">request and build template</text><polygon fill="#181818" points="1303,456.3242,1293,460.3242,1303,464.3242" style="stroke:#181818;stroke-width:1.0;"/><line style="stroke:#181818;stroke-width:1.0;" x1="1297" x2="1947" y1="460.3242" y2="460.3242"/><text fill="#000000" font-family="sans-serif" font-size="13" lengthAdjust="spacing" textLength="78" x="1581" y="455.582">return HTML</text><polygon fill="#181818" points="558,485.6348,548,489.6348,558,493.6348" style="stroke:#181818;stroke-width:1.0;"/><line style="stroke:#181818;stroke-width:1.0;" x1="552" x2="1291" y1="489.6348" y2="489.6348"/><text fill="#000000" font-family="sans-serif" font-size="13" lengthAdjust="spacing" textLength="112" x="863.5" y="484.8926">return error HTML</text><polygon fill="#181818" points="56.5,514.9453,46.5,518.9453,56.5,522.9453" style="stroke:#181818;stroke-width:1.0;"/><line style="stroke:#181818;stroke-width:1.0;" x1="50.5" x2="546" y1="518.9453" y2="518.9453"/><text fill="#000000" font-family="sans-serif" font-size="13" lengthAdjust="spacing" textLength="133" x="229.75" y="514.2031">render error message</text><polygon fill="#181818" points="1303,551.2559,1293,555.2559,1303,559.2559" style="stroke:#181818;stroke-width:1.0;"/><line style="stroke:#181818;stroke-width:1.0;" x1="1297" x2="1685" y1="555.2559" y2="555.2559"/><text fill="#000000" font-family="sans-serif" font-size="13" lengthAdjust="spacing" textLength="127" x="1425.5" y="550.5137">valid details entered</text><polygon fill="#181818" points="1475.5,580.5664,1485.5,584.5664,1475.5,588.5664" style="stroke:#181818;stroke-width:1.0;"/><line style="stroke:#181818;stroke-width:1.0;" x1="1292" x2="1481.5" y1="584.5664" y2="584.5664"/><text fill="#000000" font-family="sans-serif" font-size="13" lengthAdjust="spacing" textLength="126" x="1326.75" y="579.8242">build request object</text><polygon fill="#181818" points="2335,609.877,2345,613.877,2335,617.877" style="stroke:#181818;stroke-width:1.0;"/><line style="stroke:#181818;stroke-width:1.0;" x1="1487.5" x2="2341" y1="613.877" y2="613.877"/><text fill="#000000" font-family="sans-serif" font-size="13" lengthAdjust="spacing" textLength="138" x="1848.25" y="609.1348">send backend request</text><path d="M10,628.877 L72,628.877 L72,636.1875 L62,646.1875 L10,646.1875 L10,628.877 " fill="#EEEEEE" style="stroke:#000000;stroke-width:1.5;"/><rect fill="none" height="193.1738" style="stroke:#000000;stroke-width:1.5;" width="2417.5" x="10" y="628.877"/><text fill="#000000" font-family="sans-serif" font-size="13" font-weight="bold" lengthAdjust="spacing" textLength="17" x="25" y="642.4453">alt</text><text fill="#000000" font-family="sans-serif" font-size="11" font-weight="bold" lengthAdjust="spacing" textLength="130" x="87" y="641.5117">[Error setting deadline]</text><polygon fill="#181818" points="1498.5,663.498,1488.5,667.498,1498.5,671.498" style="stroke:#181818;stroke-width:1.0;"/><line style="stroke:#181818;stroke-width:1.0;stroke-dasharray:2.0,2.0;" x1="1492.5" x2="2346" y1="667.498" y2="667.498"/><text fill="#000000" font-family="sans-serif" font-size="13" lengthAdjust="spacing" textLength="91" x="1871.75" y="662.7559">Error response</text><polygon fill="#181818" points="1303,692.8086,1293,696.8086,1303,700.8086" style="stroke:#181818;stroke-width:1.0;"/><line style="stroke:#181818;stroke-width:1.0;stroke-dasharray:2.0,2.0;" x1="1297" x2="1486.5" y1="696.8086" y2="696.8086"/><text fill="#000000" font-family="sans-serif" font-size="13" lengthAdjust="spacing" textLength="127" x="1326.25" y="692.0664">reject requestObject</text><polygon fill="#181818" points="2174.5,722.1191,2184.5,726.1191,2174.5,730.1191" style="stroke:#181818;stroke-width:1.0;"/><line style="stroke:#181818;stroke-width:1.0;" x1="1292" x2="2180.5" y1="726.1191" y2="726.1191"/><text fill="#000000" font-family="sans-serif" font-size="13" lengthAdjust="spacing" textLength="169" x="1654.75" y="721.377">request and build template</text><polygon fill="#181818" points="1303,751.4297,1293,755.4297,1303,759.4297" style="stroke:#181818;stroke-width:1.0;"/><line style="stroke:#181818;stroke-width:1.0;" x1="1297" x2="2185.5" y1="755.4297" y2="755.4297"/><text fill="#000000" font-family="sans-serif" font-size="13" lengthAdjust="spacing" textLength="78" x="1700.25" y="750.6875">return HTML</text><polygon fill="#181818" points="774.5,780.7402,764.5,784.7402,774.5,788.7402" style="stroke:#181818;stroke-width:1.0;"/><line style="stroke:#181818;stroke-width:1.0;" x1="768.5" x2="1291" y1="784.7402" y2="784.7402"/><text fill="#000000" font-family="sans-serif" font-size="13" lengthAdjust="spacing" textLength="78" x="988.75" y="779.998">return HTML</text><polygon fill="#181818" points="56.5,810.0508,46.5,814.0508,56.5,818.0508" style="stroke:#181818;stroke-width:1.0;"/><line style="stroke:#181818;stroke-width:1.0;" x1="50.5" x2="762.5" y1="814.0508" y2="814.0508"/><text fill="#000000" font-family="sans-serif" font-size="13" lengthAdjust="spacing" textLength="108" x="350.5" y="809.3086">render error page</text><polygon fill="#181818" points="1498.5,846.3613,1488.5,850.3613,1498.5,854.3613" style="stroke:#181818;stroke-width:1.0;"/><line style="stroke:#181818;stroke-width:1.0;" x1="1492.5" x2="2346" y1="850.3613" y2="850.3613"/><text fill="#000000" font-family="sans-serif" font-size="13" lengthAdjust="spacing" textLength="77" x="1878.75" y="845.6191">ok response</text><polygon fill="#181818" points="1303,875.6719,1293,879.6719,1303,883.6719" style="stroke:#181818;stroke-width:1.0;"/><line style="stroke:#181818;stroke-width:1.0;" x1="1297" x2="1486.5" y1="879.6719" y2="879.6719"/><text fill="#000000" font-family="sans-serif" font-size="13" lengthAdjust="spacing" textLength="96" x="1341.75" y="874.9297">resolve request</text><polygon fill="#181818" points="310.5,904.9824,300.5,908.9824,310.5,912.9824" style="stroke:#181818;stroke-width:1.0;"/><line style="stroke:#181818;stroke-width:1.0;" x1="304.5" x2="1291" y1="908.9824" y2="908.9824"/><text fill="#000000" font-family="sans-serif" font-size="13" lengthAdjust="spacing" textLength="169" x="711.25" y="904.2402">redirect to dashboard page</text><polygon fill="#181818" points="56.5,934.293,46.5,938.293,56.5,942.293" style="stroke:#181818;stroke-width:1.0;"/><line style="stroke:#181818;stroke-width:1.0;" x1="50.5" x2="298.5" y1="938.293" y2="938.293"/><text fill="#000000" font-family="sans-serif" font-size="13" lengthAdjust="spacing" textLength="230" x="57.5" y="933.5508">view updated deadline on dashboard</text><!--SRC=[dPHlRvim4CRVyobkMQMsKaBVLrCaIbYNZOQEqBwTN7DAt3XsPaohVlkTdQI43B8_Rv2CxtxSyzmTIr4Yr4eAjS8o-20KbpMz2SEh1IeqWe-UfEQhAjn8fcozba5GhOJQCCFMCBTl4g6o5EQkuF0AVzQeEDvXLR45Hb8ir1gL1KuFD450OLPmiI4gHDngUdL-VWvf5aSfvDb3CPtTjeA-w3NU4me-VReQZrjNYKH7O3B7XQW8Fs7LSX-B-ykHsTqUPSTBfXOuGLQI2zYVTiLzuAZSHHvXRhT-9SPeymvn1uhpqk9iLkHPcYOvHBC9vCdtXsHUG7RpDOcB-OcIOgsiqLAY8UPH4I5_lmoVg_4OFfBJI_k6KkhN5dEEjXDOeVqFMcBsi4cK4GKFp-6cjXUNn-dUXC_Jj4ZokNVWCKgdawZ8yhRucLQHjQXAHlCpOM-FJ8gIKI-0LV1-sEAAvEu-ZOhab7q5hcbuhMl8dviQgkULBvozK0Kqg6tHrCu3t0_Vtsg_Ah_b-X9lelXRGcgRzhUODuolABffIH3uTO3H-CHSNqCi1L_1O2iLzkKFm6roq9z8rDxXkWREf8IDY-C7zPmPBsSllD2ETD676VROF-nOjCi3iHrhU4r3wvG0Wz8vpbG9l4VtKssjLa47vIyaypRjK7rlAc6xLsh7fBtg0eBLK6-y7BjiFaaklsn76wVAhKydUzZC_x_OF8J1L7ay20SVaEzdkw6DxgSnbTltlTQU3ziRG5X_TbAjK8kc6yG_yKyUzHfdi1J6DPnCAYd-IJDJ-e7SpGdbdbgA5u6lEtVBndoj6bZm2m00]--></g></svg>