<?xml version="1.0" encoding="us-ascii" standalone="no"?><svg xmlns="http://www.w3.org/2000/svg" xmlns:xlink="http://www.w3.org/1999/xlink" contentStyleType="text/css" height="1287px" preserveAspectRatio="none" style="width:2979px;height:1287px;background:#FFFFFF;" version="1.1" viewBox="0 0 2979 1287" width="2979px" zoomAndPan="magnify"><defs/><g><rect fill="none" height="193.1738" style="stroke:#000000;stroke-width:1.5;" width="2756" x="10" y="187.2188"/><rect fill="none" height="163.8633" style="stroke:#000000;stroke-width:1.5;" width="2605" x="10" y="658.1875"/><rect fill="none" height="193.1738" style="stroke:#000000;stroke-width:1.5;" width="2756" x="10" y="923.9824"/><line style="stroke:#181818;stroke-width:0.5;stroke-dasharray:5.0,5.0;" x1="45" x2="45" y1="52.9766" y2="1280.709"/><line style="stroke:#181818;stroke-width:0.5;stroke-dasharray:5.0,5.0;" x1="411" x2="411" y1="52.9766" y2="1280.709"/><line style="stroke:#181818;stroke-width:0.5;stroke-dasharray:5.0,5.0;" x1="838" x2="838" y1="52.9766" y2="1280.709"/><line style="stroke:#181818;stroke-width:0.5;stroke-dasharray:5.0,5.0;" x1="1171" x2="1171" y1="52.9766" y2="1280.709"/><line style="stroke:#181818;stroke-width:0.5;stroke-dasharray:5.0,5.0;" x1="1378" x2="1378" y1="52.9766" y2="1280.709"/><line style="stroke:#181818;stroke-width:0.5;stroke-dasharray:5.0,5.0;" x1="1611" x2="1611" y1="52.9766" y2="1280.709"/><line style="stroke:#181818;stroke-width:0.5;stroke-dasharray:5.0,5.0;" x1="1821" x2="1821" y1="52.9766" y2="1280.709"/><line style="stroke:#181818;stroke-width:0.5;stroke-dasharray:5.0,5.0;" x1="2068" x2="2068" y1="52.9766" y2="1280.709"/><line style="stroke:#181818;stroke-width:0.5;stroke-dasharray:5.0,5.0;" x1="2288" x2="2288" y1="52.9766" y2="1280.709"/><line style="stroke:#181818;stroke-width:0.5;stroke-dasharray:5.0,5.0;" x1="2491" x2="2491" y1="52.9766" y2="1280.709"/><line style="stroke:#181818;stroke-width:0.5;stroke-dasharray:5.0,5.0;" x1="2685" x2="2685" y1="52.9766" y2="1280.709"/><line style="stroke:#181818;stroke-width:0.5;stroke-dasharray:5.0,5.0;" x1="2869" x2="2869" y1="52.9766" y2="1280.709"/><rect fill="#E2E2F0" height="30.4883" rx="2.5" ry="2.5" style="stroke:#181818;stroke-width:0.5;" width="51" x="20" y="21.4883"/><text fill="#000000" font-family="sans-serif" font-size="14" lengthAdjust="spacing" textLength="37" x="27" y="42.0234">Actor</text><rect fill="#E2E2F0" height="46.9766" rx="2.5" ry="2.5" style="stroke:#181818;stroke-width:0.5;" width="323" x="250" y="5"/><text fill="#000000" font-family="sans-serif" font-size="14" font-style="italic" lengthAdjust="spacing" textLength="309" x="257" y="25.5352">&#171;/electoral-register/local-authority/:laCode&#187;</text><text fill="#000000" font-family="sans-serif" font-size="14" lengthAdjust="spacing" textLength="159" x="332" y="42.0234">LocalAuthorityInfoPage</text><rect fill="#E2E2F0" height="46.9766" rx="2.5" ry="2.5" style="stroke:#181818;stroke-width:0.5;" width="511" x="583" y="5"/><text fill="#000000" font-family="sans-serif" font-size="14" font-style="italic" lengthAdjust="spacing" textLength="497" x="590" y="25.5352">&#171;/electoral-register/local-authority/:laCode/:status(activate|deactivate)&#187;</text><text fill="#000000" font-family="sans-serif" font-size="14" lengthAdjust="spacing" textLength="184" x="746.5" y="42.0234">ChangeLaActiveStatusPage</text><rect fill="#E2E2F0" height="46.9766" rx="2.5" ry="2.5" style="stroke:#181818;stroke-width:0.5;" width="134" x="1104" y="5"/><text fill="#000000" font-family="sans-serif" font-size="14" font-style="italic" lengthAdjust="spacing" textLength="56" x="1143" y="25.5352">&#171;/error&#187;</text><text fill="#000000" font-family="sans-serif" font-size="14" lengthAdjust="spacing" textLength="120" x="1111" y="42.0234">GenericErrorPage</text><rect fill="#FFFFE0" height="46.9766" rx="2.5" ry="2.5" style="stroke:#181818;stroke-width:0.5;" width="260" x="1248" y="5"/><text fill="#000000" font-family="sans-serif" font-size="14" font-style="italic" lengthAdjust="spacing" textLength="246" x="1255" y="25.5352">&#171;change-active-status.controller.js&#187;</text><text fill="#000000" font-family="sans-serif" font-size="14" lengthAdjust="spacing" textLength="221" x="1267.5" y="42.0234">ChangeLaActiveStatusController</text><rect fill="#FFFFE0" height="46.9766" rx="2.5" ry="2.5" style="stroke:#181818;stroke-width:0.5;" width="187" x="1518" y="5"/><text fill="#000000" font-family="sans-serif" font-size="14" font-style="italic" lengthAdjust="spacing" textLength="173" x="1525" y="25.5352">&#171;localAuthorityInfo.get()&#187;</text><text fill="#000000" font-family="sans-serif" font-size="14" lengthAdjust="spacing" textLength="157" x="1533" y="42.0234">LocalAuthorityInfoDAO</text><rect fill="#FFFFE0" height="46.9766" rx="2.5" ry="2.5" style="stroke:#181818;stroke-width:0.5;" width="213" x="1715" y="5"/><text fill="#000000" font-family="sans-serif" font-size="14" font-style="italic" lengthAdjust="spacing" textLength="199" x="1722" y="25.5352">&#171;changeLaActiveStatus.put()&#187;</text><text fill="#000000" font-family="sans-serif" font-size="14" lengthAdjust="spacing" textLength="182" x="1730.5" y="42.0234">ChangeLaActiveStatusDAO</text><rect fill="#E6E6FA" height="46.9766" rx="2.5" ry="2.5" style="stroke:#181818;stroke-width:0.5;" width="260" x="1938" y="5"/><text fill="#000000" font-family="sans-serif" font-size="14" font-style="italic" lengthAdjust="spacing" textLength="246" x="1945" y="25.5352">&#171;electoral-register/${status}-la.njk&#187;</text><text fill="#000000" font-family="sans-serif" font-size="14" lengthAdjust="spacing" textLength="200" x="1968" y="42.0234">ChangeActiveStatusTemplate</text><rect fill="#E6E6FA" height="46.9766" rx="2.5" ry="2.5" style="stroke:#181818;stroke-width:0.5;" width="160" x="2208" y="5"/><text fill="#000000" font-family="sans-serif" font-size="14" font-style="italic" lengthAdjust="spacing" textLength="146" x="2215" y="25.5352">&#171;_errors/generic.njk&#187;</text><text fill="#000000" font-family="sans-serif" font-size="14" lengthAdjust="spacing" textLength="99" x="2238.5" y="42.0234">ErrorTemplate</text><rect fill="#ADD8E6" height="30.4883" rx="2.5" ry="2.5" style="stroke:#181818;stroke-width:0.5;" width="227" x="2378" y="21.4883"/><text fill="#000000" font-family="sans-serif" font-size="14" lengthAdjust="spacing" textLength="213" x="2385" y="42.0234">ChangeLaActiveStatusValidator</text><rect fill="#E2E2F0" height="30.4883" rx="2.5" ry="2.5" style="stroke:#181818;stroke-width:0.5;" width="141" x="2615" y="21.4883"/><text fill="#000000" font-family="sans-serif" font-size="14" lengthAdjust="spacing" textLength="127" x="2622" y="42.0234">BackendController</text><rect fill="#E2E2F0" height="30.4883" rx="2.5" ry="2.5" style="stroke:#181818;stroke-width:0.5;" width="207" x="2766" y="21.4883"/><text fill="#000000" font-family="sans-serif" font-size="14" lengthAdjust="spacing" textLength="193" x="2773" y="42.0234">localAuthorityInfoController</text><polygon fill="#181818" points="399.5,80.2871,409.5,84.2871,399.5,88.2871" style="stroke:#181818;stroke-width:1.0;"/><line style="stroke:#181818;stroke-width:1.0;" x1="45.5" x2="405.5" y1="84.2871" y2="84.2871"/><text fill="#000000" font-family="sans-serif" font-size="13" lengthAdjust="spacing" textLength="220" x="118.5" y="79.5449">Click "Mark as active/inactive" link</text><polygon fill="#181818" points="1366,109.5977,1376,113.5977,1366,117.5977" style="stroke:#181818;stroke-width:1.0;"/><line style="stroke:#181818;stroke-width:1.0;" x1="411.5" x2="1372" y1="113.5977" y2="113.5977"/><text fill="#000000" font-family="sans-serif" font-size="13" lengthAdjust="spacing" textLength="417" x="686.25" y="108.8555">call change active status controller with LA code as request param</text><polygon fill="#181818" points="1599.5,138.9082,1609.5,142.9082,1599.5,146.9082" style="stroke:#181818;stroke-width:1.0;"/><line style="stroke:#181818;stroke-width:1.0;" x1="1378" x2="1605.5" y1="142.9082" y2="142.9082"/><text fill="#000000" font-family="sans-serif" font-size="13" lengthAdjust="spacing" textLength="126" x="1431.75" y="138.166">build request object</text><polygon fill="#181818" points="2673.5,168.2188,2683.5,172.2188,2673.5,176.2188" style="stroke:#181818;stroke-width:1.0;"/><line style="stroke:#181818;stroke-width:1.0;" x1="1611.5" x2="2679.5" y1="172.2188" y2="172.2188"/><text fill="#000000" font-family="sans-serif" font-size="13" lengthAdjust="spacing" textLength="138" x="2079.5" y="167.4766">send backend request</text><path d="M10,187.2188 L72,187.2188 L72,194.5293 L62,204.5293 L10,204.5293 L10,187.2188 " fill="#EEEEEE" style="stroke:#000000;stroke-width:1.5;"/><rect fill="none" height="193.1738" style="stroke:#000000;stroke-width:1.5;" width="2756" x="10" y="187.2188"/><text fill="#000000" font-family="sans-serif" font-size="13" font-weight="bold" lengthAdjust="spacing" textLength="17" x="25" y="200.7871">alt</text><text fill="#000000" font-family="sans-serif" font-size="11" font-weight="bold" lengthAdjust="spacing" textLength="243" x="87" y="199.8535">[Error fetching local authority information]</text><polygon fill="#181818" points="1622.5,221.8398,1612.5,225.8398,1622.5,229.8398" style="stroke:#181818;stroke-width:1.0;"/><line style="stroke:#181818;stroke-width:1.0;stroke-dasharray:2.0,2.0;" x1="1616.5" x2="2684.5" y1="225.8398" y2="225.8398"/><text fill="#000000" font-family="sans-serif" font-size="13" lengthAdjust="spacing" textLength="91" x="2103" y="221.0977">Error response</text><polygon fill="#181818" points="1389,251.1504,1379,255.1504,1389,259.1504" style="stroke:#181818;stroke-width:1.0;"/><line style="stroke:#181818;stroke-width:1.0;stroke-dasharray:2.0,2.0;" x1="1383" x2="1610.5" y1="255.1504" y2="255.1504"/><text fill="#000000" font-family="sans-serif" font-size="13" lengthAdjust="spacing" textLength="127" x="1431.25" y="250.4082">reject requestObject</text><polygon fill="#181818" points="2276,280.4609,2286,284.4609,2276,288.4609" style="stroke:#181818;stroke-width:1.0;"/><line style="stroke:#181818;stroke-width:1.0;" x1="1378" x2="2282" y1="284.4609" y2="284.4609"/><text fill="#000000" font-family="sans-serif" font-size="13" lengthAdjust="spacing" textLength="169" x="1748.5" y="279.7188">request and build template</text><polygon fill="#181818" points="1389,309.7715,1379,313.7715,1389,317.7715" style="stroke:#181818;stroke-width:1.0;"/><line style="stroke:#181818;stroke-width:1.0;" x1="1383" x2="2287" y1="313.7715" y2="313.7715"/><text fill="#000000" font-family="sans-serif" font-size="13" lengthAdjust="spacing" textLength="78" x="1794" y="309.0293">return HTML</text><polygon fill="#181818" points="1182,339.082,1172,343.082,1182,347.082" style="stroke:#181818;stroke-width:1.0;"/><line style="stroke:#181818;stroke-width:1.0;" x1="1176" x2="1377" y1="343.082" y2="343.082"/><text fill="#000000" font-family="sans-serif" font-size="13" lengthAdjust="spacing" textLength="78" x="1235.5" y="338.3398">return HTML</text><polygon fill="#181818" points="56.5,368.3926,46.5,372.3926,56.5,376.3926" style="stroke:#181818;stroke-width:1.0;"/><line style="stroke:#181818;stroke-width:1.0;" x1="50.5" x2="1170" y1="372.3926" y2="372.3926"/><text fill="#000000" font-family="sans-serif" font-size="13" lengthAdjust="spacing" textLength="108" x="554.25" y="367.6504">render error page</text><polygon fill="#181818" points="1622.5,404.7031,1612.5,408.7031,1622.5,412.7031" style="stroke:#181818;stroke-width:1.0;"/><line style="stroke:#181818;stroke-width:1.0;" x1="1616.5" x2="2684.5" y1="408.7031" y2="408.7031"/><text fill="#000000" font-family="sans-serif" font-size="13" lengthAdjust="spacing" textLength="77" x="2110" y="403.9609">ok response</text><polygon fill="#181818" points="1389,434.0137,1379,438.0137,1389,442.0137" style="stroke:#181818;stroke-width:1.0;"/><line style="stroke:#181818;stroke-width:1.0;" x1="1383" x2="1610.5" y1="438.0137" y2="438.0137"/><text fill="#000000" font-family="sans-serif" font-size="13" lengthAdjust="spacing" textLength="96" x="1446.75" y="433.2715">resolve request</text><polygon fill="#181818" points="2056,463.3242,2066,467.3242,2056,471.3242" style="stroke:#181818;stroke-width:1.0;"/><line style="stroke:#181818;stroke-width:1.0;" x1="1378" x2="2062" y1="467.3242" y2="467.3242"/><text fill="#000000" font-family="sans-serif" font-size="13" lengthAdjust="spacing" textLength="169" x="1638.5" y="462.582">request and build template</text><polygon fill="#181818" points="1389,492.6348,1379,496.6348,1389,500.6348" style="stroke:#181818;stroke-width:1.0;"/><line style="stroke:#181818;stroke-width:1.0;" x1="1383" x2="2067" y1="496.6348" y2="496.6348"/><text fill="#000000" font-family="sans-serif" font-size="13" lengthAdjust="spacing" textLength="78" x="1684" y="491.8926">return HTML</text><polygon fill="#181818" points="849.5,521.9453,839.5,525.9453,849.5,529.9453" style="stroke:#181818;stroke-width:1.0;"/><line style="stroke:#181818;stroke-width:1.0;" x1="843.5" x2="1377" y1="525.9453" y2="525.9453"/><text fill="#000000" font-family="sans-serif" font-size="13" lengthAdjust="spacing" textLength="78" x="1069.25" y="521.2031">return HTML</text><polygon fill="#181818" points="56.5,551.2559,46.5,555.2559,56.5,559.2559" style="stroke:#181818;stroke-width:1.0;"/><line style="stroke:#181818;stroke-width:1.0;" x1="50.5" x2="837.5" y1="555.2559" y2="555.2559"/><text fill="#000000" font-family="sans-serif" font-size="13" lengthAdjust="spacing" textLength="80" x="402" y="550.5137">render HTML</text><polygon fill="#181818" points="826.5,580.5664,836.5,584.5664,826.5,588.5664" style="stroke:#181818;stroke-width:1.0;"/><line style="stroke:#181818;stroke-width:1.0;" x1="45.5" x2="832.5" y1="584.5664" y2="584.5664"/><text fill="#000000" font-family="sans-serif" font-size="13" lengthAdjust="spacing" textLength="377" x="253.5" y="579.8242">Enter information and click "Mark as active/inactive" button</text><polygon fill="#181818" points="1366,609.877,1376,613.877,1366,617.877" style="stroke:#181818;stroke-width:1.0;"/><line style="stroke:#181818;stroke-width:1.0;" x1="838.5" x2="1372" y1="613.877" y2="613.877"/><text fill="#000000" font-family="sans-serif" font-size="13" lengthAdjust="spacing" textLength="220" x="998.25" y="609.1348">call change active status controller</text><polygon fill="#181818" points="2479.5,639.1875,2489.5,643.1875,2479.5,647.1875" style="stroke:#181818;stroke-width:1.0;"/><line style="stroke:#181818;stroke-width:1.0;" x1="1378" x2="2485.5" y1="643.1875" y2="643.1875"/><text fill="#000000" font-family="sans-serif" font-size="13" lengthAdjust="spacing" textLength="95" x="1887.25" y="638.4453">validate details</text><path d="M10,658.1875 L72,658.1875 L72,665.498 L62,675.498 L10,675.498 L10,658.1875 " fill="#EEEEEE" style="stroke:#000000;stroke-width:1.5;"/><rect fill="none" height="163.8633" style="stroke:#000000;stroke-width:1.5;" width="2605" x="10" y="658.1875"/><text fill="#000000" font-family="sans-serif" font-size="13" font-weight="bold" lengthAdjust="spacing" textLength="17" x="25" y="671.7559">alt</text><text fill="#000000" font-family="sans-serif" font-size="11" font-weight="bold" lengthAdjust="spacing" textLength="80" x="87" y="670.8223">[Invalid input]</text><polygon fill="#181818" points="1389,692.8086,1379,696.8086,1389,700.8086" style="stroke:#181818;stroke-width:1.0;"/><line style="stroke:#181818;stroke-width:1.0;" x1="1383" x2="2490.5" y1="696.8086" y2="696.8086"/><text fill="#000000" font-family="sans-serif" font-size="13" lengthAdjust="spacing" textLength="79" x="1895.25" y="692.0664">Invalid input</text><polygon fill="#181818" points="2056,722.1191,2066,726.1191,2056,730.1191" style="stroke:#181818;stroke-width:1.0;"/><line style="stroke:#181818;stroke-width:1.0;" x1="1378" x2="2062" y1="726.1191" y2="726.1191"/><text fill="#000000" font-family="sans-serif" font-size="13" lengthAdjust="spacing" textLength="169" x="1638.5" y="721.377">request and build template</text><polygon fill="#181818" points="1389,751.4297,1379,755.4297,1389,759.4297" style="stroke:#181818;stroke-width:1.0;"/><line style="stroke:#181818;stroke-width:1.0;" x1="1383" x2="2067" y1="755.4297" y2="755.4297"/><text fill="#000000" font-family="sans-serif" font-size="13" lengthAdjust="spacing" textLength="78" x="1684" y="750.6875">return HTML</text><polygon fill="#181818" points="849.5,780.7402,839.5,784.7402,849.5,788.7402" style="stroke:#181818;stroke-width:1.0;"/><line style="stroke:#181818;stroke-width:1.0;" x1="843.5" x2="1377" y1="784.7402" y2="784.7402"/><text fill="#000000" font-family="sans-serif" font-size="13" lengthAdjust="spacing" textLength="112" x="1052.25" y="779.998">return error HTML</text><polygon fill="#181818" points="56.5,810.0508,46.5,814.0508,56.5,818.0508" style="stroke:#181818;stroke-width:1.0;"/><line style="stroke:#181818;stroke-width:1.0;" x1="50.5" x2="837.5" y1="814.0508" y2="814.0508"/><text fill="#000000" font-family="sans-serif" font-size="13" lengthAdjust="spacing" textLength="133" x="375.5" y="809.3086">render error message</text><polygon fill="#181818" points="1389,846.3613,1379,850.3613,1389,854.3613" style="stroke:#181818;stroke-width:1.0;"/><line style="stroke:#181818;stroke-width:1.0;" x1="1383" x2="2490.5" y1="850.3613" y2="850.3613"/><text fill="#000000" font-family="sans-serif" font-size="13" lengthAdjust="spacing" textLength="127" x="1871.25" y="845.6191">valid details entered</text><polygon fill="#181818" points="1809.5,875.6719,1819.5,879.6719,1809.5,883.6719" style="stroke:#181818;stroke-width:1.0;"/><line style="stroke:#181818;stroke-width:1.0;" x1="1378" x2="1815.5" y1="879.6719" y2="879.6719"/><text fill="#000000" font-family="sans-serif" font-size="13" lengthAdjust="spacing" textLength="126" x="1536.75" y="874.9297">build request object</text><polygon fill="#181818" points="2673.5,904.9824,2683.5,908.9824,2673.5,912.9824" style="stroke:#181818;stroke-width:1.0;"/><line style="stroke:#181818;stroke-width:1.0;" x1="1821.5" x2="2679.5" y1="908.9824" y2="908.9824"/><text fill="#000000" font-family="sans-serif" font-size="13" lengthAdjust="spacing" textLength="138" x="2184.5" y="904.2402">send backend request</text><path d="M10,923.9824 L72,923.9824 L72,931.293 L62,941.293 L10,941.293 L10,923.9824 " fill="#EEEEEE" style="stroke:#000000;stroke-width:1.5;"/><rect fill="none" height="193.1738" style="stroke:#000000;stroke-width:1.5;" width="2756" x="10" y="923.9824"/><text fill="#000000" font-family="sans-serif" font-size="13" font-weight="bold" lengthAdjust="spacing" textLength="17" x="25" y="937.5508">alt</text><text fill="#000000" font-family="sans-serif" font-size="11" font-weight="bold" lengthAdjust="spacing" textLength="276" x="87" y="936.6172">[Error marking local authority as active/inactive]</text><polygon fill="#181818" points="1832.5,958.6035,1822.5,962.6035,1832.5,966.6035" style="stroke:#181818;stroke-width:1.0;"/><line style="stroke:#181818;stroke-width:1.0;stroke-dasharray:2.0,2.0;" x1="1826.5" x2="2684.5" y1="962.6035" y2="962.6035"/><text fill="#000000" font-family="sans-serif" font-size="13" lengthAdjust="spacing" textLength="91" x="2208" y="957.8613">Error response</text><polygon fill="#181818" points="1389,987.9141,1379,991.9141,1389,995.9141" style="stroke:#181818;stroke-width:1.0;"/><line style="stroke:#181818;stroke-width:1.0;stroke-dasharray:2.0,2.0;" x1="1383" x2="1820.5" y1="991.9141" y2="991.9141"/><text fill="#000000" font-family="sans-serif" font-size="13" lengthAdjust="spacing" textLength="127" x="1536.25" y="987.1719">reject requestObject</text><polygon fill="#181818" points="2276,1017.2246,2286,1021.2246,2276,1025.2246" style="stroke:#181818;stroke-width:1.0;"/><line style="stroke:#181818;stroke-width:1.0;" x1="1378" x2="2282" y1="1021.2246" y2="1021.2246"/><text fill="#000000" font-family="sans-serif" font-size="13" lengthAdjust="spacing" textLength="169" x="1748.5" y="1016.4824">request and build template</text><polygon fill="#181818" points="1389,1046.5352,1379,1050.5352,1389,1054.5352" style="stroke:#181818;stroke-width:1.0;"/><line style="stroke:#181818;stroke-width:1.0;" x1="1383" x2="2287" y1="1050.5352" y2="1050.5352"/><text fill="#000000" font-family="sans-serif" font-size="13" lengthAdjust="spacing" textLength="78" x="1794" y="1045.793">return HTML</text><polygon fill="#181818" points="1182,1075.8457,1172,1079.8457,1182,1083.8457" style="stroke:#181818;stroke-width:1.0;"/><line style="stroke:#181818;stroke-width:1.0;" x1="1176" x2="1377" y1="1079.8457" y2="1079.8457"/><text fill="#000000" font-family="sans-serif" font-size="13" lengthAdjust="spacing" textLength="78" x="1235.5" y="1075.1035">return HTML</text><polygon fill="#181818" points="56.5,1105.1563,46.5,1109.1563,56.5,1113.1563" style="stroke:#181818;stroke-width:1.0;"/><line style="stroke:#181818;stroke-width:1.0;" x1="50.5" x2="1170" y1="1109.1563" y2="1109.1563"/><text fill="#000000" font-family="sans-serif" font-size="13" lengthAdjust="spacing" textLength="108" x="554.25" y="1104.4141">render error page</text><polygon fill="#181818" points="1832.5,1141.4668,1822.5,1145.4668,1832.5,1149.4668" style="stroke:#181818;stroke-width:1.0;"/><line style="stroke:#181818;stroke-width:1.0;" x1="1826.5" x2="2684.5" y1="1145.4668" y2="1145.4668"/><text fill="#000000" font-family="sans-serif" font-size="13" lengthAdjust="spacing" textLength="77" x="2215" y="1140.7246">ok response</text><polygon fill="#181818" points="1389,1170.7773,1379,1174.7773,1389,1178.7773" style="stroke:#181818;stroke-width:1.0;"/><line style="stroke:#181818;stroke-width:1.0;" x1="1383" x2="1820.5" y1="1174.7773" y2="1174.7773"/><text fill="#000000" font-family="sans-serif" font-size="13" lengthAdjust="spacing" textLength="96" x="1551.75" y="1170.0352">resolve request</text><polygon fill="#181818" points="2857.5,1200.0879,2867.5,1204.0879,2857.5,1208.0879" style="stroke:#181818;stroke-width:1.0;"/><line style="stroke:#181818;stroke-width:1.0;" x1="1378" x2="2863.5" y1="1204.0879" y2="1204.0879"/><text fill="#000000" font-family="sans-serif" font-size="13" lengthAdjust="spacing" textLength="318" x="1964.75" y="1199.3457">pass control back to local authority info controller</text><polygon fill="#181818" points="422.5,1229.3984,412.5,1233.3984,422.5,1237.3984" style="stroke:#181818;stroke-width:1.0;"/><line style="stroke:#181818;stroke-width:1.0;" x1="416.5" x2="2868.5" y1="1233.3984" y2="1233.3984"/><text fill="#000000" font-family="sans-serif" font-size="13" lengthAdjust="spacing" textLength="287" x="1497" y="1228.6563">pass control back to local authority info page</text><polygon fill="#181818" points="56.5,1258.709,46.5,1262.709,56.5,1266.709" style="stroke:#181818;stroke-width:1.0;"/><line style="stroke:#181818;stroke-width:1.0;" x1="50.5" x2="410.5" y1="1262.709" y2="1262.709"/><text fill="#000000" font-family="sans-serif" font-size="13" lengthAdjust="spacing" textLength="342" x="57.5" y="1257.9668">render local authority info page with success message</text><!--SRC=[hLR1Rfj04Btp5LCtKcB9uBiLMI84HMv9S379jLel4tlZPN5XIHIr-VSEY-tW1EAuwiM2PURDuysRCKkH89HA2hN2nFeY59SbdJZES84ASy7jkSpugd3MaYbTfjAoYfLGQvQp56RwMI8KciAgHz1yXBzAL1oliIZO0bqf5Yf5fO7J3-QMHM5QSB4cL72vpkZezFGKWj1p0uZ2stXoSxKN56ISIRVKoomN-dcYxhCf0SFv-H0bLW1CsZakH47mGra5ssmRFHn9vcK9ZiTxaDwIgGK6ZEgBHvnffilYUD3Xg32PPwo2OHh_9BYzx5F5whNyA0eZcBfN_coFmLKjif_dMRwhNDrGdadqmfiu2eF0Zy2zkOJ8_t7hps88BxxvNZmx892NAPrdKc9Ek6_Osu827BwBS1wAyHY-Kf-M-Xcbp9uEIhK7pqs0RLuSxLgHpyE_vtxfXblIU-VE0lLP_rYgDHflUUAionOyettiNqy3DtxJiXg-2H5ZIjEXg-QrkERaTot6YosPenvMfXHxH9NG63I1ZGaQM3-D4Ohj8BxBDHplt61owSPXD3kemHsJ8c74RlEgSrbY3NBXUjzzSjUhsVR0BXXVKSdNTbkMcLYmnrrJEG9F2hw2tZNBLy0Ag7qn5Ag-w46rSQoERC8zuBSHKAA4kg4RSAXrXbVJmPFGImXSEgATHYpoQYiL6ioEigoJZRJkTE8HtDd7HGVjBXtiDsu0FNCFzwZvKgW560_3Rl2W6hmyPLfagjSd4hbfvpO_DX8SfDBjma7dMkit-jQv-aRWLmkwoHAOIe0VwEUyr3fJbjK9_B-QIeezrax6YQg6ztDITSp2Fojvh7SwjbANUrBIkSqyBT8J6VdXwhSF2xzcnKvZcDEyWyvQZTjiHDS_iWqVyZccsfe0DwObsCvbKuzGDqIz28gIS_eSWRJ-9h7-0W00]--></g></svg>