<?xml version="1.0" encoding="us-ascii" standalone="no"?><svg xmlns="http://www.w3.org/2000/svg" xmlns:xlink="http://www.w3.org/1999/xlink" contentStyleType="text/css" height="1287px" preserveAspectRatio="none" style="width:3256px;height:1287px;background:#FFFFFF;" version="1.1" viewBox="0 0 3256 1287" width="3256px" zoomAndPan="magnify"><defs/><g><rect fill="none" height="193.1738" style="stroke:#000000;stroke-width:1.5;" width="3033" x="10" y="187.2188"/><rect fill="none" height="163.8633" style="stroke:#000000;stroke-width:1.5;" width="2882" x="10" y="658.1875"/><rect fill="none" height="193.1738" style="stroke:#000000;stroke-width:1.5;" width="3033" x="10" y="923.9824"/><line style="stroke:#181818;stroke-width:0.5;stroke-dasharray:5.0,5.0;" x1="45" x2="45" y1="52.9766" y2="1280.709"/><line style="stroke:#181818;stroke-width:0.5;stroke-dasharray:5.0,5.0;" x1="411" x2="411" y1="52.9766" y2="1280.709"/><line style="stroke:#181818;stroke-width:0.5;stroke-dasharray:5.0,5.0;" x1="850" x2="850" y1="52.9766" y2="1280.709"/><line style="stroke:#181818;stroke-width:0.5;stroke-dasharray:5.0,5.0;" x1="1194" x2="1194" y1="52.9766" y2="1280.709"/><line style="stroke:#181818;stroke-width:0.5;stroke-dasharray:5.0,5.0;" x1="1430" x2="1430" y1="52.9766" y2="1280.709"/><line style="stroke:#181818;stroke-width:0.5;stroke-dasharray:5.0,5.0;" x1="1692" x2="1692" y1="52.9766" y2="1280.709"/><line style="stroke:#181818;stroke-width:0.5;stroke-dasharray:5.0,5.0;" x1="1920" x2="1920" y1="52.9766" y2="1280.709"/><line style="stroke:#181818;stroke-width:0.5;stroke-dasharray:5.0,5.0;" x1="2247" x2="2247" y1="52.9766" y2="1280.709"/><line style="stroke:#181818;stroke-width:0.5;stroke-dasharray:5.0,5.0;" x1="2529" x2="2529" y1="52.9766" y2="1280.709"/><line style="stroke:#181818;stroke-width:0.5;stroke-dasharray:5.0,5.0;" x1="2750" x2="2750" y1="52.9766" y2="1280.709"/><line style="stroke:#181818;stroke-width:0.5;stroke-dasharray:5.0,5.0;" x1="2962" x2="2962" y1="52.9766" y2="1280.709"/><line style="stroke:#181818;stroke-width:0.5;stroke-dasharray:5.0,5.0;" x1="3146" x2="3146" y1="52.9766" y2="1280.709"/><rect fill="#E2E2F0" height="30.4883" rx="2.5" ry="2.5" style="stroke:#181818;stroke-width:0.5;" width="51" x="20" y="21.4883"/><text fill="#000000" font-family="sans-serif" font-size="14" lengthAdjust="spacing" textLength="37" x="27" y="42.0234">Actor</text><rect fill="#E2E2F0" height="46.9766" rx="2.5" ry="2.5" style="stroke:#181818;stroke-width:0.5;" width="323" x="250" y="5"/><text fill="#000000" font-family="sans-serif" font-size="14" font-style="italic" lengthAdjust="spacing" textLength="309" x="257" y="25.5352">&#171;/electoral-register/local-authority/:laCode&#187;</text><text fill="#000000" font-family="sans-serif" font-size="14" lengthAdjust="spacing" textLength="159" x="332" y="42.0234">LocalAuthorityInfoPage</text><rect fill="#E2E2F0" height="46.9766" rx="2.5" ry="2.5" style="stroke:#181818;stroke-width:0.5;" width="534" x="583" y="5"/><text fill="#000000" font-family="sans-serif" font-size="14" font-style="italic" lengthAdjust="spacing" textLength="520" x="590" y="25.5352">&#171;/electoral-register/local-authority/:laCode/change-email-request-status&#187;</text><text fill="#000000" font-family="sans-serif" font-size="14" lengthAdjust="spacing" textLength="220" x="740" y="42.0234">ChangeEmailRequestStatusPage</text><rect fill="#E2E2F0" height="46.9766" rx="2.5" ry="2.5" style="stroke:#181818;stroke-width:0.5;" width="134" x="1127" y="5"/><text fill="#000000" font-family="sans-serif" font-size="14" font-style="italic" lengthAdjust="spacing" textLength="56" x="1166" y="25.5352">&#171;/error&#187;</text><text fill="#000000" font-family="sans-serif" font-size="14" lengthAdjust="spacing" textLength="120" x="1134" y="42.0234">GenericErrorPage</text><rect fill="#FFFFE0" height="46.9766" rx="2.5" ry="2.5" style="stroke:#181818;stroke-width:0.5;" width="318" x="1271" y="5"/><text fill="#000000" font-family="sans-serif" font-size="14" font-style="italic" lengthAdjust="spacing" textLength="304" x="1278" y="25.5352">&#171;change-email-request-status.controller.js&#187;</text><text fill="#000000" font-family="sans-serif" font-size="14" lengthAdjust="spacing" textLength="257" x="1301.5" y="42.0234">ChangeEmailRequestStatusController</text><rect fill="#FFFFE0" height="46.9766" rx="2.5" ry="2.5" style="stroke:#181818;stroke-width:0.5;" width="187" x="1599" y="5"/><text fill="#000000" font-family="sans-serif" font-size="14" font-style="italic" lengthAdjust="spacing" textLength="173" x="1606" y="25.5352">&#171;localAuthorityInfo.get()&#187;</text><text fill="#000000" font-family="sans-serif" font-size="14" lengthAdjust="spacing" textLength="157" x="1614" y="42.0234">LocalAuthorityInfoDAO</text><rect fill="#FFFFE0" height="46.9766" rx="2.5" ry="2.5" style="stroke:#181818;stroke-width:0.5;" width="249" x="1796" y="5"/><text fill="#000000" font-family="sans-serif" font-size="14" font-style="italic" lengthAdjust="spacing" textLength="235" x="1803" y="25.5352">&#171;changeEmailRequestStatus.put()&#187;</text><text fill="#000000" font-family="sans-serif" font-size="14" lengthAdjust="spacing" textLength="218" x="1811.5" y="42.0234">ChangeEmailRequestStatusDAO</text><rect fill="#E6E6FA" height="46.9766" rx="2.5" ry="2.5" style="stroke:#181818;stroke-width:0.5;" width="384" x="2055" y="5"/><text fill="#000000" font-family="sans-serif" font-size="14" font-style="italic" lengthAdjust="spacing" textLength="370" x="2062" y="25.5352">&#171;electoral-register/change-email-request-status.njk&#187;</text><text fill="#000000" font-family="sans-serif" font-size="14" lengthAdjust="spacing" textLength="251" x="2121.5" y="42.0234">ChangeEmailRequestStatusTemplate</text><rect fill="#E6E6FA" height="46.9766" rx="2.5" ry="2.5" style="stroke:#181818;stroke-width:0.5;" width="160" x="2449" y="5"/><text fill="#000000" font-family="sans-serif" font-size="14" font-style="italic" lengthAdjust="spacing" textLength="146" x="2456" y="25.5352">&#171;_errors/generic.njk&#187;</text><text fill="#000000" font-family="sans-serif" font-size="14" lengthAdjust="spacing" textLength="99" x="2479.5" y="42.0234">ErrorTemplate</text><rect fill="#ADD8E6" height="30.4883" rx="2.5" ry="2.5" style="stroke:#181818;stroke-width:0.5;" width="263" x="2619" y="21.4883"/><text fill="#000000" font-family="sans-serif" font-size="14" lengthAdjust="spacing" textLength="249" x="2626" y="42.0234">ChangeEmailRequestStatusValidator</text><rect fill="#E2E2F0" height="30.4883" rx="2.5" ry="2.5" style="stroke:#181818;stroke-width:0.5;" width="141" x="2892" y="21.4883"/><text fill="#000000" font-family="sans-serif" font-size="14" lengthAdjust="spacing" textLength="127" x="2899" y="42.0234">BackendController</text><rect fill="#E2E2F0" height="30.4883" rx="2.5" ry="2.5" style="stroke:#181818;stroke-width:0.5;" width="207" x="3043" y="21.4883"/><text fill="#000000" font-family="sans-serif" font-size="14" lengthAdjust="spacing" textLength="193" x="3050" y="42.0234">localAuthorityInfoController</text><polygon fill="#181818" points="399.5,80.2871,409.5,84.2871,399.5,88.2871" style="stroke:#181818;stroke-width:1.0;"/><line style="stroke:#181818;stroke-width:1.0;" x1="45.5" x2="405.5" y1="84.2871" y2="84.2871"/><text fill="#000000" font-family="sans-serif" font-size="13" lengthAdjust="spacing" textLength="253" x="102" y="79.5449">Click "Change email request status" link</text><polygon fill="#181818" points="1418,109.5977,1428,113.5977,1418,117.5977" style="stroke:#181818;stroke-width:1.0;"/><line style="stroke:#181818;stroke-width:1.0;" x1="411.5" x2="1424" y1="113.5977" y2="113.5977"/><text fill="#000000" font-family="sans-serif" font-size="13" lengthAdjust="spacing" textLength="465" x="688.25" y="108.8555">call change email request status controller with LA code as request param</text><polygon fill="#181818" points="1680.5,138.9082,1690.5,142.9082,1680.5,146.9082" style="stroke:#181818;stroke-width:1.0;"/><line style="stroke:#181818;stroke-width:1.0;" x1="1430" x2="1686.5" y1="142.9082" y2="142.9082"/><text fill="#000000" font-family="sans-serif" font-size="13" lengthAdjust="spacing" textLength="126" x="1498.25" y="138.166">build request object</text><polygon fill="#181818" points="2950.5,168.2188,2960.5,172.2188,2950.5,176.2188" style="stroke:#181818;stroke-width:1.0;"/><line style="stroke:#181818;stroke-width:1.0;" x1="1692.5" x2="2956.5" y1="172.2188" y2="172.2188"/><text fill="#000000" font-family="sans-serif" font-size="13" lengthAdjust="spacing" textLength="138" x="2258.5" y="167.4766">send backend request</text><path d="M10,187.2188 L72,187.2188 L72,194.5293 L62,204.5293 L10,204.5293 L10,187.2188 " fill="#EEEEEE" style="stroke:#000000;stroke-width:1.5;"/><rect fill="none" height="193.1738" style="stroke:#000000;stroke-width:1.5;" width="3033" x="10" y="187.2188"/><text fill="#000000" font-family="sans-serif" font-size="13" font-weight="bold" lengthAdjust="spacing" textLength="17" x="25" y="200.7871">alt</text><text fill="#000000" font-family="sans-serif" font-size="11" font-weight="bold" lengthAdjust="spacing" textLength="243" x="87" y="199.8535">[Error fetching local authority information]</text><polygon fill="#181818" points="1703.5,221.8398,1693.5,225.8398,1703.5,229.8398" style="stroke:#181818;stroke-width:1.0;"/><line style="stroke:#181818;stroke-width:1.0;stroke-dasharray:2.0,2.0;" x1="1697.5" x2="2961.5" y1="225.8398" y2="225.8398"/><text fill="#000000" font-family="sans-serif" font-size="13" lengthAdjust="spacing" textLength="91" x="2282" y="221.0977">Error response</text><polygon fill="#181818" points="1441,251.1504,1431,255.1504,1441,259.1504" style="stroke:#181818;stroke-width:1.0;"/><line style="stroke:#181818;stroke-width:1.0;stroke-dasharray:2.0,2.0;" x1="1435" x2="1691.5" y1="255.1504" y2="255.1504"/><text fill="#000000" font-family="sans-serif" font-size="13" lengthAdjust="spacing" textLength="127" x="1497.75" y="250.4082">reject requestObject</text><polygon fill="#181818" points="2517,280.4609,2527,284.4609,2517,288.4609" style="stroke:#181818;stroke-width:1.0;"/><line style="stroke:#181818;stroke-width:1.0;" x1="1430" x2="2523" y1="284.4609" y2="284.4609"/><text fill="#000000" font-family="sans-serif" font-size="13" lengthAdjust="spacing" textLength="169" x="1895" y="279.7188">request and build template</text><polygon fill="#181818" points="1441,309.7715,1431,313.7715,1441,317.7715" style="stroke:#181818;stroke-width:1.0;"/><line style="stroke:#181818;stroke-width:1.0;" x1="1435" x2="2528" y1="313.7715" y2="313.7715"/><text fill="#000000" font-family="sans-serif" font-size="13" lengthAdjust="spacing" textLength="78" x="1940.5" y="309.0293">return HTML</text><polygon fill="#181818" points="1205,339.082,1195,343.082,1205,347.082" style="stroke:#181818;stroke-width:1.0;"/><line style="stroke:#181818;stroke-width:1.0;" x1="1199" x2="1429" y1="343.082" y2="343.082"/><text fill="#000000" font-family="sans-serif" font-size="13" lengthAdjust="spacing" textLength="78" x="1273" y="338.3398">return HTML</text><polygon fill="#181818" points="56.5,368.3926,46.5,372.3926,56.5,376.3926" style="stroke:#181818;stroke-width:1.0;"/><line style="stroke:#181818;stroke-width:1.0;" x1="50.5" x2="1193" y1="372.3926" y2="372.3926"/><text fill="#000000" font-family="sans-serif" font-size="13" lengthAdjust="spacing" textLength="108" x="565.75" y="367.6504">render error page</text><polygon fill="#181818" points="1703.5,404.7031,1693.5,408.7031,1703.5,412.7031" style="stroke:#181818;stroke-width:1.0;"/><line style="stroke:#181818;stroke-width:1.0;" x1="1697.5" x2="2961.5" y1="408.7031" y2="408.7031"/><text fill="#000000" font-family="sans-serif" font-size="13" lengthAdjust="spacing" textLength="77" x="2289" y="403.9609">ok response</text><polygon fill="#181818" points="1441,434.0137,1431,438.0137,1441,442.0137" style="stroke:#181818;stroke-width:1.0;"/><line style="stroke:#181818;stroke-width:1.0;" x1="1435" x2="1691.5" y1="438.0137" y2="438.0137"/><text fill="#000000" font-family="sans-serif" font-size="13" lengthAdjust="spacing" textLength="96" x="1513.25" y="433.2715">resolve request</text><polygon fill="#181818" points="2235,463.3242,2245,467.3242,2235,471.3242" style="stroke:#181818;stroke-width:1.0;"/><line style="stroke:#181818;stroke-width:1.0;" x1="1430" x2="2241" y1="467.3242" y2="467.3242"/><text fill="#000000" font-family="sans-serif" font-size="13" lengthAdjust="spacing" textLength="169" x="1754" y="462.582">request and build template</text><polygon fill="#181818" points="1441,492.6348,1431,496.6348,1441,500.6348" style="stroke:#181818;stroke-width:1.0;"/><line style="stroke:#181818;stroke-width:1.0;" x1="1435" x2="2246" y1="496.6348" y2="496.6348"/><text fill="#000000" font-family="sans-serif" font-size="13" lengthAdjust="spacing" textLength="78" x="1799.5" y="491.8926">return HTML</text><polygon fill="#181818" points="861,521.9453,851,525.9453,861,529.9453" style="stroke:#181818;stroke-width:1.0;"/><line style="stroke:#181818;stroke-width:1.0;" x1="855" x2="1429" y1="525.9453" y2="525.9453"/><text fill="#000000" font-family="sans-serif" font-size="13" lengthAdjust="spacing" textLength="78" x="1101" y="521.2031">return HTML</text><polygon fill="#181818" points="56.5,551.2559,46.5,555.2559,56.5,559.2559" style="stroke:#181818;stroke-width:1.0;"/><line style="stroke:#181818;stroke-width:1.0;" x1="50.5" x2="849" y1="555.2559" y2="555.2559"/><text fill="#000000" font-family="sans-serif" font-size="13" lengthAdjust="spacing" textLength="80" x="407.75" y="550.5137">render HTML</text><polygon fill="#181818" points="838,580.5664,848,584.5664,838,588.5664" style="stroke:#181818;stroke-width:1.0;"/><line style="stroke:#181818;stroke-width:1.0;" x1="45.5" x2="844" y1="584.5664" y2="584.5664"/><text fill="#000000" font-family="sans-serif" font-size="13" lengthAdjust="spacing" textLength="291" x="302.25" y="579.8242">Select status and click "Change status" button</text><polygon fill="#181818" points="1418,609.877,1428,613.877,1418,617.877" style="stroke:#181818;stroke-width:1.0;"/><line style="stroke:#181818;stroke-width:1.0;" x1="850" x2="1424" y1="613.877" y2="613.877"/><text fill="#000000" font-family="sans-serif" font-size="13" lengthAdjust="spacing" textLength="268" x="1006" y="609.1348">call change email request status controller</text><polygon fill="#181818" points="2738.5,639.1875,2748.5,643.1875,2738.5,647.1875" style="stroke:#181818;stroke-width:1.0;"/><line style="stroke:#181818;stroke-width:1.0;" x1="1430" x2="2744.5" y1="643.1875" y2="643.1875"/><text fill="#000000" font-family="sans-serif" font-size="13" lengthAdjust="spacing" textLength="95" x="2042.75" y="638.4453">validate details</text><path d="M10,658.1875 L72,658.1875 L72,665.498 L62,675.498 L10,675.498 L10,658.1875 " fill="#EEEEEE" style="stroke:#000000;stroke-width:1.5;"/><rect fill="none" height="163.8633" style="stroke:#000000;stroke-width:1.5;" width="2882" x="10" y="658.1875"/><text fill="#000000" font-family="sans-serif" font-size="13" font-weight="bold" lengthAdjust="spacing" textLength="17" x="25" y="671.7559">alt</text><text fill="#000000" font-family="sans-serif" font-size="11" font-weight="bold" lengthAdjust="spacing" textLength="80" x="87" y="670.8223">[Invalid input]</text><polygon fill="#181818" points="1441,692.8086,1431,696.8086,1441,700.8086" style="stroke:#181818;stroke-width:1.0;"/><line style="stroke:#181818;stroke-width:1.0;" x1="1435" x2="2749.5" y1="696.8086" y2="696.8086"/><text fill="#000000" font-family="sans-serif" font-size="13" lengthAdjust="spacing" textLength="79" x="2050.75" y="692.0664">Invalid input</text><polygon fill="#181818" points="2235,722.1191,2245,726.1191,2235,730.1191" style="stroke:#181818;stroke-width:1.0;"/><line style="stroke:#181818;stroke-width:1.0;" x1="1430" x2="2241" y1="726.1191" y2="726.1191"/><text fill="#000000" font-family="sans-serif" font-size="13" lengthAdjust="spacing" textLength="169" x="1754" y="721.377">request and build template</text><polygon fill="#181818" points="1441,751.4297,1431,755.4297,1441,759.4297" style="stroke:#181818;stroke-width:1.0;"/><line style="stroke:#181818;stroke-width:1.0;" x1="1435" x2="2246" y1="755.4297" y2="755.4297"/><text fill="#000000" font-family="sans-serif" font-size="13" lengthAdjust="spacing" textLength="78" x="1799.5" y="750.6875">return HTML</text><polygon fill="#181818" points="861,780.7402,851,784.7402,861,788.7402" style="stroke:#181818;stroke-width:1.0;"/><line style="stroke:#181818;stroke-width:1.0;" x1="855" x2="1429" y1="784.7402" y2="784.7402"/><text fill="#000000" font-family="sans-serif" font-size="13" lengthAdjust="spacing" textLength="112" x="1084" y="779.998">return error HTML</text><polygon fill="#181818" points="56.5,810.0508,46.5,814.0508,56.5,818.0508" style="stroke:#181818;stroke-width:1.0;"/><line style="stroke:#181818;stroke-width:1.0;" x1="50.5" x2="849" y1="814.0508" y2="814.0508"/><text fill="#000000" font-family="sans-serif" font-size="13" lengthAdjust="spacing" textLength="133" x="381.25" y="809.3086">render error message</text><polygon fill="#181818" points="1441,846.3613,1431,850.3613,1441,854.3613" style="stroke:#181818;stroke-width:1.0;"/><line style="stroke:#181818;stroke-width:1.0;" x1="1435" x2="2749.5" y1="850.3613" y2="850.3613"/><text fill="#000000" font-family="sans-serif" font-size="13" lengthAdjust="spacing" textLength="127" x="2026.75" y="845.6191">valid details entered</text><polygon fill="#181818" points="1908.5,875.6719,1918.5,879.6719,1908.5,883.6719" style="stroke:#181818;stroke-width:1.0;"/><line style="stroke:#181818;stroke-width:1.0;" x1="1430" x2="1914.5" y1="879.6719" y2="879.6719"/><text fill="#000000" font-family="sans-serif" font-size="13" lengthAdjust="spacing" textLength="126" x="1612.25" y="874.9297">build request object</text><polygon fill="#181818" points="2950.5,904.9824,2960.5,908.9824,2950.5,912.9824" style="stroke:#181818;stroke-width:1.0;"/><line style="stroke:#181818;stroke-width:1.0;" x1="1920.5" x2="2956.5" y1="908.9824" y2="908.9824"/><text fill="#000000" font-family="sans-serif" font-size="13" lengthAdjust="spacing" textLength="138" x="2372.5" y="904.2402">send backend request</text><path d="M10,923.9824 L72,923.9824 L72,931.293 L62,941.293 L10,941.293 L10,923.9824 " fill="#EEEEEE" style="stroke:#000000;stroke-width:1.5;"/><rect fill="none" height="193.1738" style="stroke:#000000;stroke-width:1.5;" width="3033" x="10" y="923.9824"/><text fill="#000000" font-family="sans-serif" font-size="13" font-weight="bold" lengthAdjust="spacing" textLength="17" x="25" y="937.5508">alt</text><text fill="#000000" font-family="sans-serif" font-size="11" font-weight="bold" lengthAdjust="spacing" textLength="209" x="87" y="936.6172">[Error changing email request status]</text><polygon fill="#181818" points="1931.5,958.6035,1921.5,962.6035,1931.5,966.6035" style="stroke:#181818;stroke-width:1.0;"/><line style="stroke:#181818;stroke-width:1.0;stroke-dasharray:2.0,2.0;" x1="1925.5" x2="2961.5" y1="962.6035" y2="962.6035"/><text fill="#000000" font-family="sans-serif" font-size="13" lengthAdjust="spacing" textLength="91" x="2396" y="957.8613">Error response</text><polygon fill="#181818" points="1441,987.9141,1431,991.9141,1441,995.9141" style="stroke:#181818;stroke-width:1.0;"/><line style="stroke:#181818;stroke-width:1.0;stroke-dasharray:2.0,2.0;" x1="1435" x2="1919.5" y1="991.9141" y2="991.9141"/><text fill="#000000" font-family="sans-serif" font-size="13" lengthAdjust="spacing" textLength="127" x="1611.75" y="987.1719">reject requestObject</text><polygon fill="#181818" points="2517,1017.2246,2527,1021.2246,2517,1025.2246" style="stroke:#181818;stroke-width:1.0;"/><line style="stroke:#181818;stroke-width:1.0;" x1="1430" x2="2523" y1="1021.2246" y2="1021.2246"/><text fill="#000000" font-family="sans-serif" font-size="13" lengthAdjust="spacing" textLength="169" x="1895" y="1016.4824">request and build template</text><polygon fill="#181818" points="1441,1046.5352,1431,1050.5352,1441,1054.5352" style="stroke:#181818;stroke-width:1.0;"/><line style="stroke:#181818;stroke-width:1.0;" x1="1435" x2="2528" y1="1050.5352" y2="1050.5352"/><text fill="#000000" font-family="sans-serif" font-size="13" lengthAdjust="spacing" textLength="78" x="1940.5" y="1045.793">return HTML</text><polygon fill="#181818" points="1205,1075.8457,1195,1079.8457,1205,1083.8457" style="stroke:#181818;stroke-width:1.0;"/><line style="stroke:#181818;stroke-width:1.0;" x1="1199" x2="1429" y1="1079.8457" y2="1079.8457"/><text fill="#000000" font-family="sans-serif" font-size="13" lengthAdjust="spacing" textLength="78" x="1273" y="1075.1035">return HTML</text><polygon fill="#181818" points="56.5,1105.1563,46.5,1109.1563,56.5,1113.1563" style="stroke:#181818;stroke-width:1.0;"/><line style="stroke:#181818;stroke-width:1.0;" x1="50.5" x2="1193" y1="1109.1563" y2="1109.1563"/><text fill="#000000" font-family="sans-serif" font-size="13" lengthAdjust="spacing" textLength="108" x="565.75" y="1104.4141">render error page</text><polygon fill="#181818" points="1931.5,1141.4668,1921.5,1145.4668,1931.5,1149.4668" style="stroke:#181818;stroke-width:1.0;"/><line style="stroke:#181818;stroke-width:1.0;" x1="1925.5" x2="2961.5" y1="1145.4668" y2="1145.4668"/><text fill="#000000" font-family="sans-serif" font-size="13" lengthAdjust="spacing" textLength="77" x="2403" y="1140.7246">ok response</text><polygon fill="#181818" points="1441,1170.7773,1431,1174.7773,1441,1178.7773" style="stroke:#181818;stroke-width:1.0;"/><line style="stroke:#181818;stroke-width:1.0;" x1="1435" x2="1919.5" y1="1174.7773" y2="1174.7773"/><text fill="#000000" font-family="sans-serif" font-size="13" lengthAdjust="spacing" textLength="96" x="1627.25" y="1170.0352">resolve request</text><polygon fill="#181818" points="3134.5,1200.0879,3144.5,1204.0879,3134.5,1208.0879" style="stroke:#181818;stroke-width:1.0;"/><line style="stroke:#181818;stroke-width:1.0;" x1="1430" x2="3140.5" y1="1204.0879" y2="1204.0879"/><text fill="#000000" font-family="sans-serif" font-size="13" lengthAdjust="spacing" textLength="318" x="2129.25" y="1199.3457">pass control back to local authority info controller</text><polygon fill="#181818" points="422.5,1229.3984,412.5,1233.3984,422.5,1237.3984" style="stroke:#181818;stroke-width:1.0;"/><line style="stroke:#181818;stroke-width:1.0;" x1="416.5" x2="3145.5" y1="1233.3984" y2="1233.3984"/><text fill="#000000" font-family="sans-serif" font-size="13" lengthAdjust="spacing" textLength="287" x="1635.5" y="1228.6563">pass control back to local authority info page</text><polygon fill="#181818" points="56.5,1258.709,46.5,1262.709,56.5,1266.709" style="stroke:#181818;stroke-width:1.0;"/><line style="stroke:#181818;stroke-width:1.0;" x1="50.5" x2="410.5" y1="1262.709" y2="1262.709"/><text fill="#000000" font-family="sans-serif" font-size="13" lengthAdjust="spacing" textLength="342" x="57.5" y="1257.9668">render local authority info page with success message</text><!--SRC=[jLPHRvim47xdLzooIMsaGDwZAXAbgCf6IqPeNoV7SOaROsVOjEg_ts6IDBI1fDtsWeHz_kxZk-_EBFc2GIa5boksSBvmIKM9Avutp9Xa1QVkN2YwqjvQ46dAN3YENd6v9WN9OMPU10DjCApQWlqjzhjaah8RfZN9c2zu9dCc3L1yiC9nCCnmojU82Zur2fVEpiuWYWC_WYI-IoUtrusWI54Y_D8iLS7DoqG-g2a2myN5a0bM0H3X5YpZ6k67eWfsoJPwE18aK0is7ZSWWoMH6GjpmaLIyTLcPeWfzSU1XzH2kQp2mcWBvcgBXachBmkJ94vWwb-7imQ9wrhdi2XKiKjSlU0vUp28RzCaZg8m0V_s2fBmvrquIo6-_1u6wUo8He6Ifb12i09ntv1tEGPuT1VXFI9N-8gbMfeN9eHwFacjHeeE7KxFzFuphlnuox-nxcNCdFS_mxf6f2sxtheyW6lBaOOtqyXFtrInBKtASkmSKrNrW9kwr9AFAvkVF36vm8xPpsRDiWVzonf6RtlstLbB_DwF9bT-6YUdCRydWYy84jveC1Sbgu4k_U17Y4vyDMO3y9BG5QPzjONZs0O7TzpMn2C81AShwDLam0e26q6W5gG7rP1oMX0G-mH_ZW0F2w3jMU3LfF3CpH8Y7vTm8XAzYxGJpd6-RTJsfvC0KS-FvnySTlQWMSy1zEmxF313brncO7qFkxw5gc-Bd1YkPA-FH0fRvUtvr2fo4frZhXrqZiZ-Nc4xH-a8huFA_5kDYLm0RHHyM-9vQOoIZjC9znzgZI8-rNvd4rdr_j-ej-kSVo3mPqpMCVBQh6PLggnsiFEGX-YyMTpJ2h8cUYSwp75CW547pRrVcRPxtuLEJX_9jaR0ZPKHjdL6rMtM3b4F35rIYZyzaDT_FiuV]--></g></svg>