<?xml version="1.0" encoding="us-ascii" standalone="no"?><svg xmlns="http://www.w3.org/2000/svg" xmlns:xlink="http://www.w3.org/1999/xlink" contentStyleType="text/css" height="492px" preserveAspectRatio="none" style="width:1421px;height:492px;background:#FFFFFF;" version="1.1" viewBox="0 0 1421 492" width="1421px" zoomAndPan="magnify"><defs/><g><rect fill="none" height="193.1738" style="stroke:#000000;stroke-width:1.5;" width="1405.5" x="10" y="187.2188"/><line style="stroke:#181818;stroke-width:0.5;stroke-dasharray:5.0,5.0;" x1="45" x2="45" y1="52.9766" y2="485.3242"/><line style="stroke:#181818;stroke-width:0.5;stroke-dasharray:5.0,5.0;" x1="353.5" x2="353.5" y1="52.9766" y2="485.3242"/><line style="stroke:#181818;stroke-width:0.5;stroke-dasharray:5.0,5.0;" x1="528.5" x2="528.5" y1="52.9766" y2="485.3242"/><line style="stroke:#181818;stroke-width:0.5;stroke-dasharray:5.0,5.0;" x1="722.5" x2="722.5" y1="52.9766" y2="485.3242"/><line style="stroke:#181818;stroke-width:0.5;stroke-dasharray:5.0,5.0;" x1="966.5" x2="966.5" y1="52.9766" y2="485.3242"/><line style="stroke:#181818;stroke-width:0.5;stroke-dasharray:5.0,5.0;" x1="1174.5" x2="1174.5" y1="52.9766" y2="485.3242"/><line style="stroke:#181818;stroke-width:0.5;stroke-dasharray:5.0,5.0;" x1="1334.5" x2="1334.5" y1="52.9766" y2="485.3242"/><rect fill="#E2E2F0" height="30.4883" rx="2.5" ry="2.5" style="stroke:#181818;stroke-width:0.5;" width="51" x="20" y="21.4883"/><text fill="#000000" font-family="sans-serif" font-size="14" lengthAdjust="spacing" textLength="37" x="27" y="42.0234">Actor</text><rect fill="#E2E2F0" height="46.9766" rx="2.5" ry="2.5" style="stroke:#181818;stroke-width:0.5;" width="196" x="255.5" y="5"/><text fill="#000000" font-family="sans-serif" font-size="14" font-style="italic" lengthAdjust="spacing" textLength="141" x="283" y="25.5352">&#171;/electoral-register&#187;</text><text fill="#000000" font-family="sans-serif" font-size="14" lengthAdjust="spacing" textLength="182" x="262.5" y="42.0234">ElectoralRegisterDashPage</text><rect fill="#E2E2F0" height="46.9766" rx="2.5" ry="2.5" style="stroke:#181818;stroke-width:0.5;" width="134" x="461.5" y="5"/><text fill="#000000" font-family="sans-serif" font-size="14" font-style="italic" lengthAdjust="spacing" textLength="56" x="500.5" y="25.5352">&#171;/error&#187;</text><text fill="#000000" font-family="sans-serif" font-size="14" lengthAdjust="spacing" textLength="120" x="468.5" y="42.0234">GenericErrorPage</text><rect fill="#FFFFE0" height="46.9766" rx="2.5" ry="2.5" style="stroke:#181818;stroke-width:0.5;" width="234" x="605.5" y="5"/><text fill="#000000" font-family="sans-serif" font-size="14" font-style="italic" lengthAdjust="spacing" textLength="220" x="612.5" y="25.5352">&#171;download-emails.controller.js&#187;</text><text fill="#000000" font-family="sans-serif" font-size="14" lengthAdjust="spacing" textLength="183" x="631" y="42.0234">DownloadEmailsController</text><rect fill="#FFFFE0" height="46.9766" rx="2.5" ry="2.5" style="stroke:#181818;stroke-width:0.5;" width="235" x="849.5" y="5"/><text fill="#000000" font-family="sans-serif" font-size="14" font-style="italic" lengthAdjust="spacing" textLength="221" x="856.5" y="25.5352">&#171;localAuthorityEmailsDAO.get()&#187;</text><text fill="#000000" font-family="sans-serif" font-size="14" lengthAdjust="spacing" textLength="174" x="880" y="42.0234">LocalAuthorityEmailsDAO</text><rect fill="#E6E6FA" height="46.9766" rx="2.5" ry="2.5" style="stroke:#181818;stroke-width:0.5;" width="160" x="1094.5" y="5"/><text fill="#000000" font-family="sans-serif" font-size="14" font-style="italic" lengthAdjust="spacing" textLength="146" x="1101.5" y="25.5352">&#171;_errors/generic.njk&#187;</text><text fill="#000000" font-family="sans-serif" font-size="14" lengthAdjust="spacing" textLength="99" x="1125" y="42.0234">ErrorTemplate</text><rect fill="#E2E2F0" height="30.4883" rx="2.5" ry="2.5" style="stroke:#181818;stroke-width:0.5;" width="141" x="1264.5" y="21.4883"/><text fill="#000000" font-family="sans-serif" font-size="14" lengthAdjust="spacing" textLength="127" x="1271.5" y="42.0234">BackendController</text><polygon fill="#181818" points="341.5,80.2871,351.5,84.2871,341.5,88.2871" style="stroke:#181818;stroke-width:1.0;"/><line style="stroke:#181818;stroke-width:1.0;" x1="45.5" x2="347.5" y1="84.2871" y2="84.2871"/><text fill="#000000" font-family="sans-serif" font-size="13" lengthAdjust="spacing" textLength="284" x="57.5" y="79.5449">Click either of the 'Download emails' buttons</text><polygon fill="#181818" points="710.5,109.5977,720.5,113.5977,710.5,117.5977" style="stroke:#181818;stroke-width:1.0;"/><line style="stroke:#181818;stroke-width:1.0;" x1="353.5" x2="716.5" y1="113.5977" y2="113.5977"/><text fill="#000000" font-family="sans-serif" font-size="13" lengthAdjust="spacing" textLength="319" x="378.5" y="108.8555">call page controller - with status as request param</text><polygon fill="#181818" points="955,138.9082,965,142.9082,955,146.9082" style="stroke:#181818;stroke-width:1.0;"/><line style="stroke:#181818;stroke-width:1.0;" x1="722.5" x2="961" y1="142.9082" y2="142.9082"/><text fill="#000000" font-family="sans-serif" font-size="13" lengthAdjust="spacing" textLength="126" x="781.75" y="138.166">build request object</text><polygon fill="#181818" points="1323,168.2188,1333,172.2188,1323,176.2188" style="stroke:#181818;stroke-width:1.0;"/><line style="stroke:#181818;stroke-width:1.0;" x1="967" x2="1329" y1="172.2188" y2="172.2188"/><text fill="#000000" font-family="sans-serif" font-size="13" lengthAdjust="spacing" textLength="138" x="1082" y="167.4766">send backend request</text><path d="M10,187.2188 L72,187.2188 L72,194.5293 L62,204.5293 L10,204.5293 L10,187.2188 " fill="#EEEEEE" style="stroke:#000000;stroke-width:1.5;"/><rect fill="none" height="193.1738" style="stroke:#000000;stroke-width:1.5;" width="1405.5" x="10" y="187.2188"/><text fill="#000000" font-family="sans-serif" font-size="13" font-weight="bold" lengthAdjust="spacing" textLength="17" x="25" y="200.7871">alt</text><text fill="#000000" font-family="sans-serif" font-size="11" font-weight="bold" lengthAdjust="spacing" textLength="243" x="87" y="199.8535">[Error generating local authority email csv]</text><polygon fill="#181818" points="978,221.8398,968,225.8398,978,229.8398" style="stroke:#181818;stroke-width:1.0;"/><line style="stroke:#181818;stroke-width:1.0;stroke-dasharray:2.0,2.0;" x1="972" x2="1334" y1="225.8398" y2="225.8398"/><text fill="#000000" font-family="sans-serif" font-size="13" lengthAdjust="spacing" textLength="91" x="1105.5" y="221.0977">Error response</text><polygon fill="#181818" points="733.5,251.1504,723.5,255.1504,733.5,259.1504" style="stroke:#181818;stroke-width:1.0;"/><line style="stroke:#181818;stroke-width:1.0;stroke-dasharray:2.0,2.0;" x1="727.5" x2="966" y1="255.1504" y2="255.1504"/><text fill="#000000" font-family="sans-serif" font-size="13" lengthAdjust="spacing" textLength="127" x="781.25" y="250.4082">reject requestObject</text><polygon fill="#181818" points="1162.5,280.4609,1172.5,284.4609,1162.5,288.4609" style="stroke:#181818;stroke-width:1.0;"/><line style="stroke:#181818;stroke-width:1.0;" x1="722.5" x2="1168.5" y1="284.4609" y2="284.4609"/><text fill="#000000" font-family="sans-serif" font-size="13" lengthAdjust="spacing" textLength="169" x="864" y="279.7188">request and build template</text><polygon fill="#181818" points="733.5,309.7715,723.5,313.7715,733.5,317.7715" style="stroke:#181818;stroke-width:1.0;"/><line style="stroke:#181818;stroke-width:1.0;" x1="727.5" x2="1173.5" y1="313.7715" y2="313.7715"/><text fill="#000000" font-family="sans-serif" font-size="13" lengthAdjust="spacing" textLength="78" x="909.5" y="309.0293">return HTML</text><polygon fill="#181818" points="539.5,339.082,529.5,343.082,539.5,347.082" style="stroke:#181818;stroke-width:1.0;"/><line style="stroke:#181818;stroke-width:1.0;" x1="533.5" x2="721.5" y1="343.082" y2="343.082"/><text fill="#000000" font-family="sans-serif" font-size="13" lengthAdjust="spacing" textLength="78" x="586.5" y="338.3398">return HTML</text><polygon fill="#181818" points="56.5,368.3926,46.5,372.3926,56.5,376.3926" style="stroke:#181818;stroke-width:1.0;"/><line style="stroke:#181818;stroke-width:1.0;" x1="50.5" x2="527.5" y1="372.3926" y2="372.3926"/><text fill="#000000" font-family="sans-serif" font-size="13" lengthAdjust="spacing" textLength="108" x="233" y="367.6504">render error page</text><polygon fill="#181818" points="978,404.7031,968,408.7031,978,412.7031" style="stroke:#181818;stroke-width:1.0;"/><line style="stroke:#181818;stroke-width:1.0;" x1="972" x2="1334" y1="408.7031" y2="408.7031"/><text fill="#000000" font-family="sans-serif" font-size="13" lengthAdjust="spacing" textLength="77" x="1112.5" y="403.9609">ok response</text><polygon fill="#181818" points="733.5,434.0137,723.5,438.0137,733.5,442.0137" style="stroke:#181818;stroke-width:1.0;"/><line style="stroke:#181818;stroke-width:1.0;" x1="727.5" x2="966" y1="438.0137" y2="438.0137"/><text fill="#000000" font-family="sans-serif" font-size="13" lengthAdjust="spacing" textLength="96" x="796.75" y="433.2715">resolve request</text><polygon fill="#181818" points="56.5,463.3242,46.5,467.3242,56.5,471.3242" style="stroke:#181818;stroke-width:1.0;"/><line style="stroke:#181818;stroke-width:1.0;" x1="50.5" x2="721.5" y1="467.3242" y2="467.3242"/><text fill="#000000" font-family="sans-serif" font-size="13" lengthAdjust="spacing" textLength="174" x="297" y="462.582">return csv file for download</text><!--SRC=[VPFHRvim4CRV_LVSkabffK3VgoeI8QZhHaEMqEV9TIx4nTYPRHhblz_XX6PKIrz0yDtzp7tViPLhX5OhgMjSiozI2zNIcpY-hL2ZbI9wKKRKBjufhdtRACPSBVMEMzx0oXyKWlDKradmhuH_MjG2dz0vNc6YPAKRr1u4NT0oHcLU2haZAYJ26ter6eqWBz8aXsNnN3xE7mP5tqs32qB1_VtjP3AGCeKTWQibLj8HViRTjg_5NepiIVtG_N0SDBFMsFUcxe7gmZUbnRnS5dcUBI6Pps2P_NhELYKKqnzPMgu6h9dPQsNuEckuL2ursbkZ55fYhazIX46BnRiOlxh91BwIHLj_GANCVi3CZU0gQVtMMEaFH_8iAGYf_g_45Vhhcu_8C4gPFItofCo6Nnr6Bx6XZ7qt_kymlkjN8DQlTQ3nDzHhF2KrJTAV6TbnTcV0d79HK_NP0iP2p11DFidh3b8bHGqe_PPSCnkWEunwM-7etGXUMk-DTkmoYOwv6COTa6yATbtTEGQ8O4_7qZvptphW3cotnCv3M6d6lftyI1QFAVLVN-AFBqKs7ZezXglm387BlTGLX4Y1zwt7WK6ujwkRti3xwBF9BFhMwgu3DfB-pWrrzAl7_W80]--></g></svg>