<?xml version="1.0" encoding="us-ascii" standalone="no"?><svg xmlns="http://www.w3.org/2000/svg" xmlns:xlink="http://www.w3.org/1999/xlink" contentStyleType="text/css" height="1287px" preserveAspectRatio="none" style="width:2749px;height:1287px;background:#FFFFFF;" version="1.1" viewBox="0 0 2749 1287" width="2749px" zoomAndPan="magnify"><defs/><g><rect fill="none" height="193.1738" style="stroke:#000000;stroke-width:1.5;" width="2526" x="10" y="187.2188"/><rect fill="none" height="163.8633" style="stroke:#000000;stroke-width:1.5;" width="2375" x="10" y="658.1875"/><rect fill="none" height="193.1738" style="stroke:#000000;stroke-width:1.5;" width="2526" x="10" y="923.9824"/><line style="stroke:#181818;stroke-width:0.5;stroke-dasharray:5.0,5.0;" x1="45" x2="45" y1="52.9766" y2="1280.709"/><line style="stroke:#181818;stroke-width:0.5;stroke-dasharray:5.0,5.0;" x1="411" x2="411" y1="52.9766" y2="1280.709"/><line style="stroke:#181818;stroke-width:0.5;stroke-dasharray:5.0,5.0;" x1="784" x2="784" y1="52.9766" y2="1280.709"/><line style="stroke:#181818;stroke-width:0.5;stroke-dasharray:5.0,5.0;" x1="1062" x2="1062" y1="52.9766" y2="1280.709"/><line style="stroke:#181818;stroke-width:0.5;stroke-dasharray:5.0,5.0;" x1="1232" x2="1232" y1="52.9766" y2="1280.709"/><line style="stroke:#181818;stroke-width:0.5;stroke-dasharray:5.0,5.0;" x1="1428" x2="1428" y1="52.9766" y2="1280.709"/><line style="stroke:#181818;stroke-width:0.5;stroke-dasharray:5.0,5.0;" x1="1662" x2="1662" y1="52.9766" y2="1280.709"/><line style="stroke:#181818;stroke-width:0.5;stroke-dasharray:5.0,5.0;" x1="1928" x2="1928" y1="52.9766" y2="1280.709"/><line style="stroke:#181818;stroke-width:0.5;stroke-dasharray:5.0,5.0;" x1="2144" x2="2144" y1="52.9766" y2="1280.709"/><line style="stroke:#181818;stroke-width:0.5;stroke-dasharray:5.0,5.0;" x1="2304" x2="2304" y1="52.9766" y2="1280.709"/><line style="stroke:#181818;stroke-width:0.5;stroke-dasharray:5.0,5.0;" x1="2455" x2="2455" y1="52.9766" y2="1280.709"/><line style="stroke:#181818;stroke-width:0.5;stroke-dasharray:5.0,5.0;" x1="2639" x2="2639" y1="52.9766" y2="1280.709"/><rect fill="#E2E2F0" height="30.4883" rx="2.5" ry="2.5" style="stroke:#181818;stroke-width:0.5;" width="51" x="20" y="21.4883"/><text fill="#000000" font-family="sans-serif" font-size="14" lengthAdjust="spacing" textLength="37" x="27" y="42.0234">Actor</text><rect fill="#E2E2F0" height="46.9766" rx="2.5" ry="2.5" style="stroke:#181818;stroke-width:0.5;" width="323" x="250" y="5"/><text fill="#000000" font-family="sans-serif" font-size="14" font-style="italic" lengthAdjust="spacing" textLength="309" x="257" y="25.5352">&#171;/electoral-register/local-authority/:laCode&#187;</text><text fill="#000000" font-family="sans-serif" font-size="14" lengthAdjust="spacing" textLength="159" x="332" y="42.0234">LocalAuthorityInfoPage</text><rect fill="#E2E2F0" height="46.9766" rx="2.5" ry="2.5" style="stroke:#181818;stroke-width:0.5;" width="402" x="583" y="5"/><text fill="#000000" font-family="sans-serif" font-size="14" font-style="italic" lengthAdjust="spacing" textLength="388" x="590" y="25.5352">&#171;/electoral-register/local-authority/:laCode/edit-notes&#187;</text><text fill="#000000" font-family="sans-serif" font-size="14" lengthAdjust="spacing" textLength="98" x="735" y="42.0234">EditNotesPage</text><rect fill="#E2E2F0" height="46.9766" rx="2.5" ry="2.5" style="stroke:#181818;stroke-width:0.5;" width="134" x="995" y="5"/><text fill="#000000" font-family="sans-serif" font-size="14" font-style="italic" lengthAdjust="spacing" textLength="56" x="1034" y="25.5352">&#171;/error&#187;</text><text fill="#000000" font-family="sans-serif" font-size="14" lengthAdjust="spacing" textLength="120" x="1002" y="42.0234">GenericErrorPage</text><rect fill="#FFFFE0" height="46.9766" rx="2.5" ry="2.5" style="stroke:#181818;stroke-width:0.5;" width="186" x="1139" y="5"/><text fill="#000000" font-family="sans-serif" font-size="14" font-style="italic" lengthAdjust="spacing" textLength="172" x="1146" y="25.5352">&#171;edit-notes.controller.js&#187;</text><text fill="#000000" font-family="sans-serif" font-size="14" lengthAdjust="spacing" textLength="135" x="1164.5" y="42.0234">EditNotesController</text><rect fill="#FFFFE0" height="46.9766" rx="2.5" ry="2.5" style="stroke:#181818;stroke-width:0.5;" width="187" x="1335" y="5"/><text fill="#000000" font-family="sans-serif" font-size="14" font-style="italic" lengthAdjust="spacing" textLength="173" x="1342" y="25.5352">&#171;localAuthorityInfo.get()&#187;</text><text fill="#000000" font-family="sans-serif" font-size="14" lengthAdjust="spacing" textLength="157" x="1350" y="42.0234">LocalAuthorityInfoDAO</text><rect fill="#FFFFE0" height="46.9766" rx="2.5" ry="2.5" style="stroke:#181818;stroke-width:0.5;" width="260" x="1532" y="5"/><text fill="#000000" font-family="sans-serif" font-size="14" font-style="italic" lengthAdjust="spacing" textLength="246" x="1539" y="25.5352">&#171;editLocalAuthorityNotesDAO.put()&#187;</text><text fill="#000000" font-family="sans-serif" font-size="14" lengthAdjust="spacing" textLength="96" x="1614" y="42.0234">EditNotesDAO</text><rect fill="#E6E6FA" height="46.9766" rx="2.5" ry="2.5" style="stroke:#181818;stroke-width:0.5;" width="252" x="1802" y="5"/><text fill="#000000" font-family="sans-serif" font-size="14" font-style="italic" lengthAdjust="spacing" textLength="238" x="1809" y="25.5352">&#171;electoral-register/edit-notes.njk&#187;</text><text fill="#000000" font-family="sans-serif" font-size="14" lengthAdjust="spacing" textLength="129" x="1863.5" y="42.0234">EditNotesTemplate</text><rect fill="#E6E6FA" height="46.9766" rx="2.5" ry="2.5" style="stroke:#181818;stroke-width:0.5;" width="160" x="2064" y="5"/><text fill="#000000" font-family="sans-serif" font-size="14" font-style="italic" lengthAdjust="spacing" textLength="146" x="2071" y="25.5352">&#171;_errors/generic.njk&#187;</text><text fill="#000000" font-family="sans-serif" font-size="14" lengthAdjust="spacing" textLength="99" x="2094.5" y="42.0234">ErrorTemplate</text><rect fill="#ADD8E6" height="30.4883" rx="2.5" ry="2.5" style="stroke:#181818;stroke-width:0.5;" width="141" x="2234" y="21.4883"/><text fill="#000000" font-family="sans-serif" font-size="14" lengthAdjust="spacing" textLength="127" x="2241" y="42.0234">EditNotesValidator</text><rect fill="#E2E2F0" height="30.4883" rx="2.5" ry="2.5" style="stroke:#181818;stroke-width:0.5;" width="141" x="2385" y="21.4883"/><text fill="#000000" font-family="sans-serif" font-size="14" lengthAdjust="spacing" textLength="127" x="2392" y="42.0234">BackendController</text><rect fill="#E2E2F0" height="30.4883" rx="2.5" ry="2.5" style="stroke:#181818;stroke-width:0.5;" width="207" x="2536" y="21.4883"/><text fill="#000000" font-family="sans-serif" font-size="14" lengthAdjust="spacing" textLength="193" x="2543" y="42.0234">localAuthorityInfoController</text><polygon fill="#181818" points="399.5,80.2871,409.5,84.2871,399.5,88.2871" style="stroke:#181818;stroke-width:1.0;"/><line style="stroke:#181818;stroke-width:1.0;" x1="45.5" x2="405.5" y1="84.2871" y2="84.2871"/><text fill="#000000" font-family="sans-serif" font-size="13" lengthAdjust="spacing" textLength="137" x="160" y="79.5449">Click "Edit notes" link</text><polygon fill="#181818" points="1220,109.5977,1230,113.5977,1220,117.5977" style="stroke:#181818;stroke-width:1.0;"/><line style="stroke:#181818;stroke-width:1.0;" x1="411.5" x2="1226" y1="113.5977" y2="113.5977"/><text fill="#000000" font-family="sans-serif" font-size="13" lengthAdjust="spacing" textLength="351" x="646.25" y="108.8555">call edit notes controller with LA code as request param</text><polygon fill="#181818" points="1416.5,138.9082,1426.5,142.9082,1416.5,146.9082" style="stroke:#181818;stroke-width:1.0;"/><line style="stroke:#181818;stroke-width:1.0;" x1="1232" x2="1422.5" y1="142.9082" y2="142.9082"/><text fill="#000000" font-family="sans-serif" font-size="13" lengthAdjust="spacing" textLength="126" x="1267.25" y="138.166">build request object</text><polygon fill="#181818" points="2443.5,168.2188,2453.5,172.2188,2443.5,176.2188" style="stroke:#181818;stroke-width:1.0;"/><line style="stroke:#181818;stroke-width:1.0;" x1="1428.5" x2="2449.5" y1="172.2188" y2="172.2188"/><text fill="#000000" font-family="sans-serif" font-size="13" lengthAdjust="spacing" textLength="138" x="1873" y="167.4766">send backend request</text><path d="M10,187.2188 L72,187.2188 L72,194.5293 L62,204.5293 L10,204.5293 L10,187.2188 " fill="#EEEEEE" style="stroke:#000000;stroke-width:1.5;"/><rect fill="none" height="193.1738" style="stroke:#000000;stroke-width:1.5;" width="2526" x="10" y="187.2188"/><text fill="#000000" font-family="sans-serif" font-size="13" font-weight="bold" lengthAdjust="spacing" textLength="17" x="25" y="200.7871">alt</text><text fill="#000000" font-family="sans-serif" font-size="11" font-weight="bold" lengthAdjust="spacing" textLength="243" x="87" y="199.8535">[Error fetching local authority information]</text><polygon fill="#181818" points="1439.5,221.8398,1429.5,225.8398,1439.5,229.8398" style="stroke:#181818;stroke-width:1.0;"/><line style="stroke:#181818;stroke-width:1.0;stroke-dasharray:2.0,2.0;" x1="1433.5" x2="2454.5" y1="225.8398" y2="225.8398"/><text fill="#000000" font-family="sans-serif" font-size="13" lengthAdjust="spacing" textLength="91" x="1896.5" y="221.0977">Error response</text><polygon fill="#181818" points="1243,251.1504,1233,255.1504,1243,259.1504" style="stroke:#181818;stroke-width:1.0;"/><line style="stroke:#181818;stroke-width:1.0;stroke-dasharray:2.0,2.0;" x1="1237" x2="1427.5" y1="255.1504" y2="255.1504"/><text fill="#000000" font-family="sans-serif" font-size="13" lengthAdjust="spacing" textLength="127" x="1266.75" y="250.4082">reject requestObject</text><polygon fill="#181818" points="2132,280.4609,2142,284.4609,2132,288.4609" style="stroke:#181818;stroke-width:1.0;"/><line style="stroke:#181818;stroke-width:1.0;" x1="1232" x2="2138" y1="284.4609" y2="284.4609"/><text fill="#000000" font-family="sans-serif" font-size="13" lengthAdjust="spacing" textLength="169" x="1603.5" y="279.7188">request and build template</text><polygon fill="#181818" points="1243,309.7715,1233,313.7715,1243,317.7715" style="stroke:#181818;stroke-width:1.0;"/><line style="stroke:#181818;stroke-width:1.0;" x1="1237" x2="2143" y1="313.7715" y2="313.7715"/><text fill="#000000" font-family="sans-serif" font-size="13" lengthAdjust="spacing" textLength="78" x="1649" y="309.0293">return HTML</text><polygon fill="#181818" points="1073,339.082,1063,343.082,1073,347.082" style="stroke:#181818;stroke-width:1.0;"/><line style="stroke:#181818;stroke-width:1.0;" x1="1067" x2="1231" y1="343.082" y2="343.082"/><text fill="#000000" font-family="sans-serif" font-size="13" lengthAdjust="spacing" textLength="78" x="1108" y="338.3398">return HTML</text><polygon fill="#181818" points="56.5,368.3926,46.5,372.3926,56.5,376.3926" style="stroke:#181818;stroke-width:1.0;"/><line style="stroke:#181818;stroke-width:1.0;" x1="50.5" x2="1061" y1="372.3926" y2="372.3926"/><text fill="#000000" font-family="sans-serif" font-size="13" lengthAdjust="spacing" textLength="108" x="499.75" y="367.6504">render error page</text><polygon fill="#181818" points="1439.5,404.7031,1429.5,408.7031,1439.5,412.7031" style="stroke:#181818;stroke-width:1.0;"/><line style="stroke:#181818;stroke-width:1.0;" x1="1433.5" x2="2454.5" y1="408.7031" y2="408.7031"/><text fill="#000000" font-family="sans-serif" font-size="13" lengthAdjust="spacing" textLength="77" x="1903.5" y="403.9609">ok response</text><polygon fill="#181818" points="1243,434.0137,1233,438.0137,1243,442.0137" style="stroke:#181818;stroke-width:1.0;"/><line style="stroke:#181818;stroke-width:1.0;" x1="1237" x2="1427.5" y1="438.0137" y2="438.0137"/><text fill="#000000" font-family="sans-serif" font-size="13" lengthAdjust="spacing" textLength="96" x="1282.25" y="433.2715">resolve request</text><polygon fill="#181818" points="1916,463.3242,1926,467.3242,1916,471.3242" style="stroke:#181818;stroke-width:1.0;"/><line style="stroke:#181818;stroke-width:1.0;" x1="1232" x2="1922" y1="467.3242" y2="467.3242"/><text fill="#000000" font-family="sans-serif" font-size="13" lengthAdjust="spacing" textLength="169" x="1495.5" y="462.582">request and build template</text><polygon fill="#181818" points="1243,492.6348,1233,496.6348,1243,500.6348" style="stroke:#181818;stroke-width:1.0;"/><line style="stroke:#181818;stroke-width:1.0;" x1="1237" x2="1927" y1="496.6348" y2="496.6348"/><text fill="#000000" font-family="sans-serif" font-size="13" lengthAdjust="spacing" textLength="78" x="1541" y="491.8926">return HTML</text><polygon fill="#181818" points="795,521.9453,785,525.9453,795,529.9453" style="stroke:#181818;stroke-width:1.0;"/><line style="stroke:#181818;stroke-width:1.0;" x1="789" x2="1231" y1="525.9453" y2="525.9453"/><text fill="#000000" font-family="sans-serif" font-size="13" lengthAdjust="spacing" textLength="78" x="969" y="521.2031">return HTML</text><polygon fill="#181818" points="56.5,551.2559,46.5,555.2559,56.5,559.2559" style="stroke:#181818;stroke-width:1.0;"/><line style="stroke:#181818;stroke-width:1.0;" x1="50.5" x2="783" y1="555.2559" y2="555.2559"/><text fill="#000000" font-family="sans-serif" font-size="13" lengthAdjust="spacing" textLength="80" x="374.75" y="550.5137">render HTML</text><polygon fill="#181818" points="772,580.5664,782,584.5664,772,588.5664" style="stroke:#181818;stroke-width:1.0;"/><line style="stroke:#181818;stroke-width:1.0;" x1="45.5" x2="778" y1="584.5664" y2="584.5664"/><text fill="#000000" font-family="sans-serif" font-size="13" lengthAdjust="spacing" textLength="220" x="304.75" y="579.8242">Enter notes and click "Save" button</text><polygon fill="#181818" points="1220,609.877,1230,613.877,1220,617.877" style="stroke:#181818;stroke-width:1.0;"/><line style="stroke:#181818;stroke-width:1.0;" x1="784" x2="1226" y1="613.877" y2="613.877"/><text fill="#000000" font-family="sans-serif" font-size="13" lengthAdjust="spacing" textLength="154" x="931" y="609.1348">call edit notes controller</text><polygon fill="#181818" points="2292.5,639.1875,2302.5,643.1875,2292.5,647.1875" style="stroke:#181818;stroke-width:1.0;"/><line style="stroke:#181818;stroke-width:1.0;" x1="1232" x2="2298.5" y1="643.1875" y2="643.1875"/><text fill="#000000" font-family="sans-serif" font-size="13" lengthAdjust="spacing" textLength="95" x="1720.75" y="638.4453">validate details</text><path d="M10,658.1875 L72,658.1875 L72,665.498 L62,675.498 L10,675.498 L10,658.1875 " fill="#EEEEEE" style="stroke:#000000;stroke-width:1.5;"/><rect fill="none" height="163.8633" style="stroke:#000000;stroke-width:1.5;" width="2375" x="10" y="658.1875"/><text fill="#000000" font-family="sans-serif" font-size="13" font-weight="bold" lengthAdjust="spacing" textLength="17" x="25" y="671.7559">alt</text><text fill="#000000" font-family="sans-serif" font-size="11" font-weight="bold" lengthAdjust="spacing" textLength="80" x="87" y="670.8223">[Invalid input]</text><polygon fill="#181818" points="1243,692.8086,1233,696.8086,1243,700.8086" style="stroke:#181818;stroke-width:1.0;"/><line style="stroke:#181818;stroke-width:1.0;" x1="1237" x2="2303.5" y1="696.8086" y2="696.8086"/><text fill="#000000" font-family="sans-serif" font-size="13" lengthAdjust="spacing" textLength="79" x="1728.75" y="692.0664">Invalid input</text><polygon fill="#181818" points="1916,722.1191,1926,726.1191,1916,730.1191" style="stroke:#181818;stroke-width:1.0;"/><line style="stroke:#181818;stroke-width:1.0;" x1="1232" x2="1922" y1="726.1191" y2="726.1191"/><text fill="#000000" font-family="sans-serif" font-size="13" lengthAdjust="spacing" textLength="169" x="1495.5" y="721.377">request and build template</text><polygon fill="#181818" points="1243,751.4297,1233,755.4297,1243,759.4297" style="stroke:#181818;stroke-width:1.0;"/><line style="stroke:#181818;stroke-width:1.0;" x1="1237" x2="1927" y1="755.4297" y2="755.4297"/><text fill="#000000" font-family="sans-serif" font-size="13" lengthAdjust="spacing" textLength="78" x="1541" y="750.6875">return HTML</text><polygon fill="#181818" points="795,780.7402,785,784.7402,795,788.7402" style="stroke:#181818;stroke-width:1.0;"/><line style="stroke:#181818;stroke-width:1.0;" x1="789" x2="1231" y1="784.7402" y2="784.7402"/><text fill="#000000" font-family="sans-serif" font-size="13" lengthAdjust="spacing" textLength="112" x="952" y="779.998">return error HTML</text><polygon fill="#181818" points="56.5,810.0508,46.5,814.0508,56.5,818.0508" style="stroke:#181818;stroke-width:1.0;"/><line style="stroke:#181818;stroke-width:1.0;" x1="50.5" x2="783" y1="814.0508" y2="814.0508"/><text fill="#000000" font-family="sans-serif" font-size="13" lengthAdjust="spacing" textLength="133" x="348.25" y="809.3086">render error message</text><polygon fill="#181818" points="1243,846.3613,1233,850.3613,1243,854.3613" style="stroke:#181818;stroke-width:1.0;"/><line style="stroke:#181818;stroke-width:1.0;" x1="1237" x2="2303.5" y1="850.3613" y2="850.3613"/><text fill="#000000" font-family="sans-serif" font-size="13" lengthAdjust="spacing" textLength="127" x="1704.75" y="845.6191">valid details entered</text><polygon fill="#181818" points="1650,875.6719,1660,879.6719,1650,883.6719" style="stroke:#181818;stroke-width:1.0;"/><line style="stroke:#181818;stroke-width:1.0;" x1="1232" x2="1656" y1="879.6719" y2="879.6719"/><text fill="#000000" font-family="sans-serif" font-size="13" lengthAdjust="spacing" textLength="126" x="1384" y="874.9297">build request object</text><polygon fill="#181818" points="2443.5,904.9824,2453.5,908.9824,2443.5,912.9824" style="stroke:#181818;stroke-width:1.0;"/><line style="stroke:#181818;stroke-width:1.0;" x1="1662" x2="2449.5" y1="908.9824" y2="908.9824"/><text fill="#000000" font-family="sans-serif" font-size="13" lengthAdjust="spacing" textLength="138" x="1989.75" y="904.2402">send backend request</text><path d="M10,923.9824 L72,923.9824 L72,931.293 L62,941.293 L10,941.293 L10,923.9824 " fill="#EEEEEE" style="stroke:#000000;stroke-width:1.5;"/><rect fill="none" height="193.1738" style="stroke:#000000;stroke-width:1.5;" width="2526" x="10" y="923.9824"/><text fill="#000000" font-family="sans-serif" font-size="13" font-weight="bold" lengthAdjust="spacing" textLength="17" x="25" y="937.5508">alt</text><text fill="#000000" font-family="sans-serif" font-size="11" font-weight="bold" lengthAdjust="spacing" textLength="112" x="87" y="936.6172">[Error saving notes]</text><polygon fill="#181818" points="1673,958.6035,1663,962.6035,1673,966.6035" style="stroke:#181818;stroke-width:1.0;"/><line style="stroke:#181818;stroke-width:1.0;stroke-dasharray:2.0,2.0;" x1="1667" x2="2454.5" y1="962.6035" y2="962.6035"/><text fill="#000000" font-family="sans-serif" font-size="13" lengthAdjust="spacing" textLength="91" x="2013.25" y="957.8613">Error response</text><polygon fill="#181818" points="1243,987.9141,1233,991.9141,1243,995.9141" style="stroke:#181818;stroke-width:1.0;"/><line style="stroke:#181818;stroke-width:1.0;stroke-dasharray:2.0,2.0;" x1="1237" x2="1661" y1="991.9141" y2="991.9141"/><text fill="#000000" font-family="sans-serif" font-size="13" lengthAdjust="spacing" textLength="127" x="1383.5" y="987.1719">reject requestObject</text><polygon fill="#181818" points="2132,1017.2246,2142,1021.2246,2132,1025.2246" style="stroke:#181818;stroke-width:1.0;"/><line style="stroke:#181818;stroke-width:1.0;" x1="1232" x2="2138" y1="1021.2246" y2="1021.2246"/><text fill="#000000" font-family="sans-serif" font-size="13" lengthAdjust="spacing" textLength="169" x="1603.5" y="1016.4824">request and build template</text><polygon fill="#181818" points="1243,1046.5352,1233,1050.5352,1243,1054.5352" style="stroke:#181818;stroke-width:1.0;"/><line style="stroke:#181818;stroke-width:1.0;" x1="1237" x2="2143" y1="1050.5352" y2="1050.5352"/><text fill="#000000" font-family="sans-serif" font-size="13" lengthAdjust="spacing" textLength="78" x="1649" y="1045.793">return HTML</text><polygon fill="#181818" points="1073,1075.8457,1063,1079.8457,1073,1083.8457" style="stroke:#181818;stroke-width:1.0;"/><line style="stroke:#181818;stroke-width:1.0;" x1="1067" x2="1231" y1="1079.8457" y2="1079.8457"/><text fill="#000000" font-family="sans-serif" font-size="13" lengthAdjust="spacing" textLength="78" x="1108" y="1075.1035">return HTML</text><polygon fill="#181818" points="56.5,1105.1563,46.5,1109.1563,56.5,1113.1563" style="stroke:#181818;stroke-width:1.0;"/><line style="stroke:#181818;stroke-width:1.0;" x1="50.5" x2="1061" y1="1109.1563" y2="1109.1563"/><text fill="#000000" font-family="sans-serif" font-size="13" lengthAdjust="spacing" textLength="108" x="499.75" y="1104.4141">render error page</text><polygon fill="#181818" points="1673,1141.4668,1663,1145.4668,1673,1149.4668" style="stroke:#181818;stroke-width:1.0;"/><line style="stroke:#181818;stroke-width:1.0;" x1="1667" x2="2454.5" y1="1145.4668" y2="1145.4668"/><text fill="#000000" font-family="sans-serif" font-size="13" lengthAdjust="spacing" textLength="77" x="2020.25" y="1140.7246">ok response</text><polygon fill="#181818" points="1243,1170.7773,1233,1174.7773,1243,1178.7773" style="stroke:#181818;stroke-width:1.0;"/><line style="stroke:#181818;stroke-width:1.0;" x1="1237" x2="1661" y1="1174.7773" y2="1174.7773"/><text fill="#000000" font-family="sans-serif" font-size="13" lengthAdjust="spacing" textLength="96" x="1399" y="1170.0352">resolve request</text><polygon fill="#181818" points="2627.5,1200.0879,2637.5,1204.0879,2627.5,1208.0879" style="stroke:#181818;stroke-width:1.0;"/><line style="stroke:#181818;stroke-width:1.0;" x1="1232" x2="2633.5" y1="1204.0879" y2="1204.0879"/><text fill="#000000" font-family="sans-serif" font-size="13" lengthAdjust="spacing" textLength="318" x="1776.75" y="1199.3457">pass control back to local authority info controller</text><polygon fill="#181818" points="422.5,1229.3984,412.5,1233.3984,422.5,1237.3984" style="stroke:#181818;stroke-width:1.0;"/><line style="stroke:#181818;stroke-width:1.0;" x1="416.5" x2="2638.5" y1="1233.3984" y2="1233.3984"/><text fill="#000000" font-family="sans-serif" font-size="13" lengthAdjust="spacing" textLength="287" x="1382" y="1228.6563">pass control back to local authority info page</text><polygon fill="#181818" points="56.5,1258.709,46.5,1262.709,56.5,1266.709" style="stroke:#181818;stroke-width:1.0;"/><line style="stroke:#181818;stroke-width:1.0;" x1="50.5" x2="410.5" y1="1262.709" y2="1262.709"/><text fill="#000000" font-family="sans-serif" font-size="13" lengthAdjust="spacing" textLength="342" x="57.5" y="1257.9668">render local authority info page with success message</text><!--SRC=[dPNVJwD04CVV-IlcUfUeIQ7lZJ519APtM7eKVJNRPMpNRdTxi6ZyxsyMMbeKl7el92mpdvqVtnbM8aCebHHgZPdpJIWkIphnlD4I5UQ2kmkf-Rhmjf8fKswaunHheROiPnkOcpU9K1Woiv_W-1F-AL5nlCEYO4lqfLYg3Ie3d1wOEmwP6S75bgZWSwFfwEpi3A8uy2D8uljqChrj6KMQC-cNPgLpOTucwadF20oNboEKQ05CkZakHK7uaRJ6BjjRZyQI1Jh3gwiMCio4cMg3nTT98oHVLrbdWjh8moI94vZvj-6yTSbjNSSmptNUt6DVoAzo3E9fciHH52RWJsyW2N_VX_CKukkVOP3E_r63G2kJQoan9-wxM5r11XvlBBndYXM-KojMvWsbrA_TrMWn3tcUJleOveqVx-DhdNjBDESN9qLL8smuRVp-exSjEr1LXTFmRXRvwRl6DEGKDwHkOplJ8O2Z0gZdTSLdBwWo4d6BPbjwH7giUbpin-Y3RnNOWnzDRlmqJdeYUs1IP8m2sYMra2NMdjT-y2iajHp4qo9SCxwcUmwTT9ngoC2zwXkaCGHIy3KCxErG9Jm0knUS7WT2TKbc36Gj0HiA77G3hyAi8FBfY9OCAo2tQw8mK2qDn_cngvO_cmG4EU_W3xlLDMmtO4Xfs7TuGiDNGYsXqXuqim5sDl8DCqAhmGNTd5TjsVkdLOhTzt_GpR2zI2wEQjtUC6C8xVBRbOMf37XTyZcfOW2BqXYj7AVjz1zbfdHUQkNWHDcn-3oFHcKdvNPIZuwdjgyr1NknZQcLHc3vwN9pUwgmPKMJEYn8zc1qPxEFwzFtBt7Xqo2-SjkMW3iT4BPtvchPzIFgYIbApkb72flwR-hy1G00]--></g></svg>