<?xml version="1.0" encoding="us-ascii" standalone="no"?><svg xmlns="http://www.w3.org/2000/svg" xmlns:xlink="http://www.w3.org/1999/xlink" contentStyleType="text/css" height="1493px" preserveAspectRatio="none" style="width:2466px;height:1493px;background:#FFFFFF;" version="1.1" viewBox="0 0 2466 1493" width="2466px" zoomAndPan="magnify"><defs/><g><rect fill="none" height="193.1738" style="stroke:#000000;stroke-width:1.5;" width="2252.5" x="10" y="187.2188"/><rect fill="none" height="193.1738" style="stroke:#000000;stroke-width:1.5;" width="2252.5" x="10" y="511.6348"/><rect fill="none" height="193.1738" style="stroke:#000000;stroke-width:1.5;" width="2252.5" x="10" y="836.0508"/><rect fill="none" height="118.2422" style="stroke:#000000;stroke-width:1.5;" width="1462" x="10" y="1219.0879"/><rect fill="none" height="118.2422" style="stroke:#000000;stroke-width:1.5;" width="1462" x="10" y="1351.3301"/><line style="stroke:#181818;stroke-width:0.5;stroke-dasharray:5.0,5.0;" x1="45" x2="45" y1="52.9766" y2="1486.5723"/><line style="stroke:#181818;stroke-width:0.5;stroke-dasharray:5.0,5.0;" x1="367" x2="367" y1="52.9766" y2="1486.5723"/><line style="stroke:#181818;stroke-width:0.5;stroke-dasharray:5.0,5.0;" x1="519" x2="519" y1="52.9766" y2="1486.5723"/><line style="stroke:#181818;stroke-width:0.5;stroke-dasharray:5.0,5.0;" x1="694" x2="694" y1="52.9766" y2="1486.5723"/><line style="stroke:#181818;stroke-width:0.5;stroke-dasharray:5.0,5.0;" x1="888" x2="888" y1="52.9766" y2="1486.5723"/><line style="stroke:#181818;stroke-width:0.5;stroke-dasharray:5.0,5.0;" x1="1127.5" x2="1127.5" y1="52.9766" y2="1486.5723"/><line style="stroke:#181818;stroke-width:0.5;stroke-dasharray:5.0,5.0;" x1="1319.5" x2="1319.5" y1="52.9766" y2="1486.5723"/><line style="stroke:#181818;stroke-width:0.5;stroke-dasharray:5.0,5.0;" x1="1538.5" x2="1538.5" y1="52.9766" y2="1486.5723"/><line style="stroke:#181818;stroke-width:0.5;stroke-dasharray:5.0,5.0;" x1="1804.5" x2="1804.5" y1="52.9766" y2="1486.5723"/><line style="stroke:#181818;stroke-width:0.5;stroke-dasharray:5.0,5.0;" x1="2021.5" x2="2021.5" y1="52.9766" y2="1486.5723"/><line style="stroke:#181818;stroke-width:0.5;stroke-dasharray:5.0,5.0;" x1="2181.5" x2="2181.5" y1="52.9766" y2="1486.5723"/><line style="stroke:#181818;stroke-width:0.5;stroke-dasharray:5.0,5.0;" x1="2361.5" x2="2361.5" y1="52.9766" y2="1486.5723"/><rect fill="#E2E2F0" height="30.4883" rx="2.5" ry="2.5" style="stroke:#181818;stroke-width:0.5;" width="51" x="20" y="21.4883"/><text fill="#000000" font-family="sans-serif" font-size="14" lengthAdjust="spacing" textLength="37" x="27" y="42.0234">Actor</text><rect fill="#E2E2F0" height="46.9766" rx="2.5" ry="2.5" style="stroke:#181818;stroke-width:0.5;" width="87" x="324" y="5"/><text fill="#000000" font-family="sans-serif" font-size="14" font-style="italic" lengthAdjust="spacing" textLength="21" x="357" y="25.5352">&#171;/&#187;</text><text fill="#000000" font-family="sans-serif" font-size="14" lengthAdjust="spacing" textLength="73" x="331" y="42.0234">HomePage</text><rect fill="#E2E2F0" height="46.9766" rx="2.5" ry="2.5" style="stroke:#181818;stroke-width:0.5;" width="196" x="421" y="5"/><text fill="#000000" font-family="sans-serif" font-size="14" font-style="italic" lengthAdjust="spacing" textLength="141" x="448.5" y="25.5352">&#171;/electoral-register&#187;</text><text fill="#000000" font-family="sans-serif" font-size="14" lengthAdjust="spacing" textLength="182" x="428" y="42.0234">ElectoralRegisterDashPage</text><rect fill="#E2E2F0" height="46.9766" rx="2.5" ry="2.5" style="stroke:#181818;stroke-width:0.5;" width="134" x="627" y="5"/><text fill="#000000" font-family="sans-serif" font-size="14" font-style="italic" lengthAdjust="spacing" textLength="56" x="666" y="25.5352">&#171;/error&#187;</text><text fill="#000000" font-family="sans-serif" font-size="14" lengthAdjust="spacing" textLength="120" x="634" y="42.0234">GenericErrorPage</text><rect fill="#FFFFE0" height="46.9766" rx="2.5" ry="2.5" style="stroke:#181818;stroke-width:0.5;" width="234" x="771" y="5"/><text fill="#000000" font-family="sans-serif" font-size="14" font-style="italic" lengthAdjust="spacing" textLength="220" x="778" y="25.5352">&#171;electoral-register.controller.js&#187;</text><text fill="#000000" font-family="sans-serif" font-size="14" lengthAdjust="spacing" textLength="185" x="795.5" y="42.0234">ElectoralRegisterController</text><rect fill="#FFFFE0" height="46.9766" rx="2.5" ry="2.5" style="stroke:#181818;stroke-width:0.5;" width="203" x="1026.5" y="5"/><text fill="#000000" font-family="sans-serif" font-size="14" font-style="italic" lengthAdjust="spacing" textLength="189" x="1033.5" y="25.5352">&#171;localAuthoritiesDAO.get()&#187;</text><text fill="#000000" font-family="sans-serif" font-size="14" lengthAdjust="spacing" textLength="142" x="1057" y="42.0234">LocalAuthoritiesDAO</text><rect fill="#FFFFE0" height="46.9766" rx="2.5" ry="2.5" style="stroke:#181818;stroke-width:0.5;" width="160" x="1239.5" y="5"/><text fill="#000000" font-family="sans-serif" font-size="14" font-style="italic" lengthAdjust="spacing" textLength="146" x="1246.5" y="25.5352">&#171;erUploadStats.get()&#187;</text><text fill="#000000" font-family="sans-serif" font-size="14" lengthAdjust="spacing" textLength="113" x="1263" y="42.0234">UploadStatsDAO</text><rect fill="#FFFFE0" height="46.9766" rx="2.5" ry="2.5" style="stroke:#181818;stroke-width:0.5;" width="258" x="1409.5" y="5"/><text fill="#000000" font-family="sans-serif" font-size="14" font-style="italic" lengthAdjust="spacing" textLength="244" x="1416.5" y="25.5352">&#171;erLocalAuthorityStatusDAO.post()&#187;</text><text fill="#000000" font-family="sans-serif" font-size="14" lengthAdjust="spacing" textLength="172" x="1452.5" y="42.0234">LocalAuthorityStatusDAO</text><rect fill="#E6E6FA" height="46.9766" rx="2.5" ry="2.5" style="stroke:#181818;stroke-width:0.5;" width="254" x="1677.5" y="5"/><text fill="#000000" font-family="sans-serif" font-size="14" font-style="italic" lengthAdjust="spacing" textLength="240" x="1684.5" y="25.5352">&#171;electoral-register/dashboard.njk&#187;</text><text fill="#000000" font-family="sans-serif" font-size="14" lengthAdjust="spacing" textLength="213" x="1698" y="42.0234">ElectoralRegisterDashTemplate</text><rect fill="#E6E6FA" height="46.9766" rx="2.5" ry="2.5" style="stroke:#181818;stroke-width:0.5;" width="160" x="1941.5" y="5"/><text fill="#000000" font-family="sans-serif" font-size="14" font-style="italic" lengthAdjust="spacing" textLength="146" x="1948.5" y="25.5352">&#171;_errors/generic.njk&#187;</text><text fill="#000000" font-family="sans-serif" font-size="14" lengthAdjust="spacing" textLength="99" x="1972" y="42.0234">ErrorTemplate</text><rect fill="#E2E2F0" height="30.4883" rx="2.5" ry="2.5" style="stroke:#181818;stroke-width:0.5;" width="141" x="2111.5" y="21.4883"/><text fill="#000000" font-family="sans-serif" font-size="14" lengthAdjust="spacing" textLength="127" x="2118.5" y="42.0234">BackendController</text><rect fill="#E2E2F0" height="30.4883" rx="2.5" ry="2.5" style="stroke:#181818;stroke-width:0.5;" width="198" x="2262.5" y="21.4883"/><text fill="#000000" font-family="sans-serif" font-size="14" lengthAdjust="spacing" textLength="184" x="2269.5" y="42.0234">DefaultExpensesController</text><polygon fill="#181818" points="355.5,80.2871,365.5,84.2871,355.5,88.2871" style="stroke:#181818;stroke-width:1.0;"/><line style="stroke:#181818;stroke-width:1.0;" x1="45.5" x2="361.5" y1="84.2871" y2="84.2871"/><text fill="#000000" font-family="sans-serif" font-size="13" lengthAdjust="spacing" textLength="298" x="57.5" y="79.5449">open apps drawer and select 'Electoral Register'</text><polygon fill="#181818" points="876,109.5977,886,113.5977,876,117.5977" style="stroke:#181818;stroke-width:1.0;"/><line style="stroke:#181818;stroke-width:1.0;" x1="367.5" x2="882" y1="113.5977" y2="113.5977"/><text fill="#000000" font-family="sans-serif" font-size="13" lengthAdjust="spacing" textLength="197" x="529.25" y="108.8555">call electoral register controller</text><polygon fill="#181818" points="1116,138.9082,1126,142.9082,1116,146.9082" style="stroke:#181818;stroke-width:1.0;"/><line style="stroke:#181818;stroke-width:1.0;" x1="888" x2="1122" y1="142.9082" y2="142.9082"/><text fill="#000000" font-family="sans-serif" font-size="13" lengthAdjust="spacing" textLength="126" x="945" y="138.166">build request object</text><polygon fill="#181818" points="2170,168.2188,2180,172.2188,2170,176.2188" style="stroke:#181818;stroke-width:1.0;"/><line style="stroke:#181818;stroke-width:1.0;" x1="1128" x2="2176" y1="172.2188" y2="172.2188"/><text fill="#000000" font-family="sans-serif" font-size="13" lengthAdjust="spacing" textLength="138" x="1586" y="167.4766">send backend request</text><path d="M10,187.2188 L72,187.2188 L72,194.5293 L62,204.5293 L10,204.5293 L10,187.2188 " fill="#EEEEEE" style="stroke:#000000;stroke-width:1.5;"/><rect fill="none" height="193.1738" style="stroke:#000000;stroke-width:1.5;" width="2252.5" x="10" y="187.2188"/><text fill="#000000" font-family="sans-serif" font-size="13" font-weight="bold" lengthAdjust="spacing" textLength="17" x="25" y="200.7871">alt</text><text fill="#000000" font-family="sans-serif" font-size="11" font-weight="bold" lengthAdjust="spacing" textLength="200" x="87" y="199.8535">[Error fetching all local authorities]</text><polygon fill="#181818" points="1139,221.8398,1129,225.8398,1139,229.8398" style="stroke:#181818;stroke-width:1.0;"/><line style="stroke:#181818;stroke-width:1.0;stroke-dasharray:2.0,2.0;" x1="1133" x2="2181" y1="225.8398" y2="225.8398"/><text fill="#000000" font-family="sans-serif" font-size="13" lengthAdjust="spacing" textLength="91" x="1609.5" y="221.0977">Error response</text><polygon fill="#181818" points="899,251.1504,889,255.1504,899,259.1504" style="stroke:#181818;stroke-width:1.0;"/><line style="stroke:#181818;stroke-width:1.0;stroke-dasharray:2.0,2.0;" x1="893" x2="1127" y1="255.1504" y2="255.1504"/><text fill="#000000" font-family="sans-serif" font-size="13" lengthAdjust="spacing" textLength="127" x="944.5" y="250.4082">reject requestObject</text><polygon fill="#181818" points="2009.5,280.4609,2019.5,284.4609,2009.5,288.4609" style="stroke:#181818;stroke-width:1.0;"/><line style="stroke:#181818;stroke-width:1.0;" x1="888" x2="2015.5" y1="284.4609" y2="284.4609"/><text fill="#000000" font-family="sans-serif" font-size="13" lengthAdjust="spacing" textLength="169" x="1370.25" y="279.7188">request and build template</text><polygon fill="#181818" points="899,309.7715,889,313.7715,899,317.7715" style="stroke:#181818;stroke-width:1.0;"/><line style="stroke:#181818;stroke-width:1.0;" x1="893" x2="2020.5" y1="313.7715" y2="313.7715"/><text fill="#000000" font-family="sans-serif" font-size="13" lengthAdjust="spacing" textLength="78" x="1415.75" y="309.0293">return HTML</text><polygon fill="#181818" points="705,339.082,695,343.082,705,347.082" style="stroke:#181818;stroke-width:1.0;"/><line style="stroke:#181818;stroke-width:1.0;" x1="699" x2="887" y1="343.082" y2="343.082"/><text fill="#000000" font-family="sans-serif" font-size="13" lengthAdjust="spacing" textLength="78" x="752" y="338.3398">return HTML</text><polygon fill="#181818" points="56.5,368.3926,46.5,372.3926,56.5,376.3926" style="stroke:#181818;stroke-width:1.0;"/><line style="stroke:#181818;stroke-width:1.0;" x1="50.5" x2="693" y1="372.3926" y2="372.3926"/><text fill="#000000" font-family="sans-serif" font-size="13" lengthAdjust="spacing" textLength="108" x="315.75" y="367.6504">render error page</text><polygon fill="#181818" points="1139,404.7031,1129,408.7031,1139,412.7031" style="stroke:#181818;stroke-width:1.0;"/><line style="stroke:#181818;stroke-width:1.0;" x1="1133" x2="2181" y1="408.7031" y2="408.7031"/><text fill="#000000" font-family="sans-serif" font-size="13" lengthAdjust="spacing" textLength="77" x="1616.5" y="403.9609">ok response</text><polygon fill="#181818" points="899,434.0137,889,438.0137,899,442.0137" style="stroke:#181818;stroke-width:1.0;"/><line style="stroke:#181818;stroke-width:1.0;" x1="893" x2="1127" y1="438.0137" y2="438.0137"/><text fill="#000000" font-family="sans-serif" font-size="13" lengthAdjust="spacing" textLength="96" x="960" y="433.2715">resolve request</text><polygon fill="#181818" points="1307.5,463.3242,1317.5,467.3242,1307.5,471.3242" style="stroke:#181818;stroke-width:1.0;"/><line style="stroke:#181818;stroke-width:1.0;" x1="888" x2="1313.5" y1="467.3242" y2="467.3242"/><text fill="#000000" font-family="sans-serif" font-size="13" lengthAdjust="spacing" textLength="126" x="1040.75" y="462.582">build request object</text><polygon fill="#181818" points="2170,492.6348,2180,496.6348,2170,500.6348" style="stroke:#181818;stroke-width:1.0;"/><line style="stroke:#181818;stroke-width:1.0;" x1="1319.5" x2="2176" y1="496.6348" y2="496.6348"/><text fill="#000000" font-family="sans-serif" font-size="13" lengthAdjust="spacing" textLength="138" x="1681.75" y="491.8926">send backend request</text><path d="M10,511.6348 L72,511.6348 L72,518.9453 L62,528.9453 L10,528.9453 L10,511.6348 " fill="#EEEEEE" style="stroke:#000000;stroke-width:1.5;"/><rect fill="none" height="193.1738" style="stroke:#000000;stroke-width:1.5;" width="2252.5" x="10" y="511.6348"/><text fill="#000000" font-family="sans-serif" font-size="13" font-weight="bold" lengthAdjust="spacing" textLength="17" x="25" y="525.2031">alt</text><text fill="#000000" font-family="sans-serif" font-size="11" font-weight="bold" lengthAdjust="spacing" textLength="258" x="87" y="524.2695">[Error fetching electoral register upload stats]</text><polygon fill="#181818" points="1330.5,546.2559,1320.5,550.2559,1330.5,554.2559" style="stroke:#181818;stroke-width:1.0;"/><line style="stroke:#181818;stroke-width:1.0;stroke-dasharray:2.0,2.0;" x1="1324.5" x2="2181" y1="550.2559" y2="550.2559"/><text fill="#000000" font-family="sans-serif" font-size="13" lengthAdjust="spacing" textLength="91" x="1705.25" y="545.5137">Error response</text><polygon fill="#181818" points="899,575.5664,889,579.5664,899,583.5664" style="stroke:#181818;stroke-width:1.0;"/><line style="stroke:#181818;stroke-width:1.0;stroke-dasharray:2.0,2.0;" x1="893" x2="1318.5" y1="579.5664" y2="579.5664"/><text fill="#000000" font-family="sans-serif" font-size="13" lengthAdjust="spacing" textLength="127" x="1040.25" y="574.8242">reject requestObject</text><polygon fill="#181818" points="2009.5,604.877,2019.5,608.877,2009.5,612.877" style="stroke:#181818;stroke-width:1.0;"/><line style="stroke:#181818;stroke-width:1.0;" x1="888" x2="2015.5" y1="608.877" y2="608.877"/><text fill="#000000" font-family="sans-serif" font-size="13" lengthAdjust="spacing" textLength="169" x="1370.25" y="604.1348">request and build template</text><polygon fill="#181818" points="899,634.1875,889,638.1875,899,642.1875" style="stroke:#181818;stroke-width:1.0;"/><line style="stroke:#181818;stroke-width:1.0;" x1="893" x2="2020.5" y1="638.1875" y2="638.1875"/><text fill="#000000" font-family="sans-serif" font-size="13" lengthAdjust="spacing" textLength="78" x="1415.75" y="633.4453">return HTML</text><polygon fill="#181818" points="705,663.498,695,667.498,705,671.498" style="stroke:#181818;stroke-width:1.0;"/><line style="stroke:#181818;stroke-width:1.0;" x1="699" x2="887" y1="667.498" y2="667.498"/><text fill="#000000" font-family="sans-serif" font-size="13" lengthAdjust="spacing" textLength="78" x="752" y="662.7559">return HTML</text><polygon fill="#181818" points="56.5,692.8086,46.5,696.8086,56.5,700.8086" style="stroke:#181818;stroke-width:1.0;"/><line style="stroke:#181818;stroke-width:1.0;" x1="50.5" x2="693" y1="696.8086" y2="696.8086"/><text fill="#000000" font-family="sans-serif" font-size="13" lengthAdjust="spacing" textLength="108" x="315.75" y="692.0664">render error page</text><polygon fill="#181818" points="1330.5,729.1191,1320.5,733.1191,1330.5,737.1191" style="stroke:#181818;stroke-width:1.0;"/><line style="stroke:#181818;stroke-width:1.0;" x1="1324.5" x2="2181" y1="733.1191" y2="733.1191"/><text fill="#000000" font-family="sans-serif" font-size="13" lengthAdjust="spacing" textLength="77" x="1712.25" y="728.377">ok response</text><polygon fill="#181818" points="899,758.4297,889,762.4297,899,766.4297" style="stroke:#181818;stroke-width:1.0;"/><line style="stroke:#181818;stroke-width:1.0;" x1="893" x2="1318.5" y1="762.4297" y2="762.4297"/><text fill="#000000" font-family="sans-serif" font-size="13" lengthAdjust="spacing" textLength="96" x="1055.75" y="757.6875">resolve request</text><polygon fill="#181818" points="1526.5,787.7402,1536.5,791.7402,1526.5,795.7402" style="stroke:#181818;stroke-width:1.0;"/><line style="stroke:#181818;stroke-width:1.0;" x1="888" x2="1532.5" y1="791.7402" y2="791.7402"/><text fill="#000000" font-family="sans-serif" font-size="13" lengthAdjust="spacing" textLength="126" x="1150.25" y="786.998">build request object</text><polygon fill="#181818" points="2170,817.0508,2180,821.0508,2170,825.0508" style="stroke:#181818;stroke-width:1.0;"/><line style="stroke:#181818;stroke-width:1.0;" x1="1538.5" x2="2176" y1="821.0508" y2="821.0508"/><text fill="#000000" font-family="sans-serif" font-size="13" lengthAdjust="spacing" textLength="138" x="1791.25" y="816.3086">send backend request</text><path d="M10,836.0508 L72,836.0508 L72,843.3613 L62,853.3613 L10,853.3613 L10,836.0508 " fill="#EEEEEE" style="stroke:#000000;stroke-width:1.5;"/><rect fill="none" height="193.1738" style="stroke:#000000;stroke-width:1.5;" width="2252.5" x="10" y="836.0508"/><text fill="#000000" font-family="sans-serif" font-size="13" font-weight="bold" lengthAdjust="spacing" textLength="17" x="25" y="849.6191">alt</text><text fill="#000000" font-family="sans-serif" font-size="11" font-weight="bold" lengthAdjust="spacing" textLength="275" x="87" y="848.6855">[Error fetching electoral register dashboard data]</text><polygon fill="#181818" points="1549.5,870.6719,1539.5,874.6719,1549.5,878.6719" style="stroke:#181818;stroke-width:1.0;"/><line style="stroke:#181818;stroke-width:1.0;stroke-dasharray:2.0,2.0;" x1="1543.5" x2="2181" y1="874.6719" y2="874.6719"/><text fill="#000000" font-family="sans-serif" font-size="13" lengthAdjust="spacing" textLength="91" x="1814.75" y="869.9297">Error response</text><polygon fill="#181818" points="899,899.9824,889,903.9824,899,907.9824" style="stroke:#181818;stroke-width:1.0;"/><line style="stroke:#181818;stroke-width:1.0;stroke-dasharray:2.0,2.0;" x1="893" x2="1537.5" y1="903.9824" y2="903.9824"/><text fill="#000000" font-family="sans-serif" font-size="13" lengthAdjust="spacing" textLength="127" x="1149.75" y="899.2402">reject requestObject</text><polygon fill="#181818" points="2009.5,929.293,2019.5,933.293,2009.5,937.293" style="stroke:#181818;stroke-width:1.0;"/><line style="stroke:#181818;stroke-width:1.0;" x1="888" x2="2015.5" y1="933.293" y2="933.293"/><text fill="#000000" font-family="sans-serif" font-size="13" lengthAdjust="spacing" textLength="169" x="1370.25" y="928.5508">request and build template</text><polygon fill="#181818" points="899,958.6035,889,962.6035,899,966.6035" style="stroke:#181818;stroke-width:1.0;"/><line style="stroke:#181818;stroke-width:1.0;" x1="893" x2="2020.5" y1="962.6035" y2="962.6035"/><text fill="#000000" font-family="sans-serif" font-size="13" lengthAdjust="spacing" textLength="78" x="1415.75" y="957.8613">return HTML</text><polygon fill="#181818" points="705,987.9141,695,991.9141,705,995.9141" style="stroke:#181818;stroke-width:1.0;"/><line style="stroke:#181818;stroke-width:1.0;" x1="699" x2="887" y1="991.9141" y2="991.9141"/><text fill="#000000" font-family="sans-serif" font-size="13" lengthAdjust="spacing" textLength="78" x="752" y="987.1719">return HTML</text><polygon fill="#181818" points="56.5,1017.2246,46.5,1021.2246,56.5,1025.2246" style="stroke:#181818;stroke-width:1.0;"/><line style="stroke:#181818;stroke-width:1.0;" x1="50.5" x2="693" y1="1021.2246" y2="1021.2246"/><text fill="#000000" font-family="sans-serif" font-size="13" lengthAdjust="spacing" textLength="108" x="315.75" y="1016.4824">render error page</text><polygon fill="#181818" points="1549.5,1053.5352,1539.5,1057.5352,1549.5,1061.5352" style="stroke:#181818;stroke-width:1.0;"/><line style="stroke:#181818;stroke-width:1.0;" x1="1543.5" x2="2181" y1="1057.5352" y2="1057.5352"/><text fill="#000000" font-family="sans-serif" font-size="13" lengthAdjust="spacing" textLength="77" x="1821.75" y="1052.793">ok response</text><polygon fill="#181818" points="899,1082.8457,889,1086.8457,899,1090.8457" style="stroke:#181818;stroke-width:1.0;"/><line style="stroke:#181818;stroke-width:1.0;" x1="893" x2="1537.5" y1="1086.8457" y2="1086.8457"/><text fill="#000000" font-family="sans-serif" font-size="13" lengthAdjust="spacing" textLength="96" x="1165.25" y="1082.1035">resolve request</text><polygon fill="#181818" points="1815.5,1112.1563,1805.5,1116.1563,1815.5,1120.1563" style="stroke:#181818;stroke-width:1.0;"/><line style="stroke:#181818;stroke-width:1.0;" x1="1809.5" x2="2360.5" y1="1116.1563" y2="1116.1563"/><text fill="#000000" font-family="sans-serif" font-size="13" lengthAdjust="spacing" textLength="169" x="1998.5" y="1111.4141">request and build template</text><polygon fill="#181818" points="2349.5,1141.4668,2359.5,1145.4668,2349.5,1149.4668" style="stroke:#181818;stroke-width:1.0;"/><line style="stroke:#181818;stroke-width:1.0;" x1="1804.5" x2="2355.5" y1="1145.4668" y2="1145.4668"/><text fill="#000000" font-family="sans-serif" font-size="13" lengthAdjust="spacing" textLength="78" x="2044" y="1140.7246">return HTML</text><polygon fill="#181818" points="530,1170.7773,520,1174.7773,530,1178.7773" style="stroke:#181818;stroke-width:1.0;"/><line style="stroke:#181818;stroke-width:1.0;" x1="524" x2="2360.5" y1="1174.7773" y2="1174.7773"/><text fill="#000000" font-family="sans-serif" font-size="13" lengthAdjust="spacing" textLength="78" x="1401.25" y="1170.0352">return HTML</text><polygon fill="#181818" points="56.5,1200.0879,46.5,1204.0879,56.5,1208.0879" style="stroke:#181818;stroke-width:1.0;"/><line style="stroke:#181818;stroke-width:1.0;" x1="50.5" x2="518" y1="1204.0879" y2="1204.0879"/><text fill="#000000" font-family="sans-serif" font-size="13" lengthAdjust="spacing" textLength="80" x="242.25" y="1199.3457">render HTML</text><path d="M10,1219.0879 L72,1219.0879 L72,1226.3984 L62,1236.3984 L10,1236.3984 L10,1219.0879 " fill="#EEEEEE" style="stroke:#000000;stroke-width:1.5;"/><rect fill="none" height="118.2422" style="stroke:#000000;stroke-width:1.5;" width="1462" x="10" y="1219.0879"/><text fill="#000000" font-family="sans-serif" font-size="13" font-weight="bold" lengthAdjust="spacing" textLength="17" x="25" y="1232.6563">alt</text><text fill="#000000" font-family="sans-serif" font-size="11" font-weight="bold" lengthAdjust="spacing" textLength="316" x="87" y="1231.7227">[User selects a status of LA to view (e.g. 'Not uploaded')]</text><polygon fill="#181818" points="507,1253.709,517,1257.709,507,1261.709" style="stroke:#181818;stroke-width:1.0;"/><line style="stroke:#181818;stroke-width:1.0;" x1="45.5" x2="513" y1="1257.709" y2="1257.709"/><text fill="#000000" font-family="sans-serif" font-size="13" lengthAdjust="spacing" textLength="307" x="128.75" y="1252.9668">select a status of LA to view (e.g. 'Not uploaded')</text><polygon fill="#181818" points="876,1283.0195,886,1287.0195,876,1291.0195" style="stroke:#181818;stroke-width:1.0;"/><line style="stroke:#181818;stroke-width:1.0;" x1="519" x2="882" y1="1287.0195" y2="1287.0195"/><text fill="#000000" font-family="sans-serif" font-size="13" lengthAdjust="spacing" textLength="307" x="550" y="1282.2773">call page controller - with status as query param</text><line style="stroke:#0000FF;stroke-width:1.0;stroke-dasharray:2.0,2.0;" x1="888" x2="930" y1="1316.3301" y2="1316.3301"/><line style="stroke:#0000FF;stroke-width:1.0;stroke-dasharray:2.0,2.0;" x1="930" x2="930" y1="1316.3301" y2="1329.3301"/><line style="stroke:#0000FF;stroke-width:1.0;stroke-dasharray:2.0,2.0;" x1="889" x2="930" y1="1329.3301" y2="1329.3301"/><polygon fill="#0000FF" points="899,1325.3301,889,1329.3301,899,1333.3301" style="stroke:#0000FF;stroke-width:1.0;"/><text fill="#000000" font-family="sans-serif" font-size="13" lengthAdjust="spacing" textLength="226" x="895" y="1311.5879">repeat API calls and render as above</text><path d="M1133,1303.5195 L1133,1328.5195 L1457,1328.5195 L1457,1313.5195 L1447,1303.5195 L1133,1303.5195 " fill="#FEFFDD" style="stroke:#181818;stroke-width:0.5;"/><path d="M1447,1303.5195 L1447,1313.5195 L1457,1313.5195 L1447,1303.5195 " fill="#FEFFDD" style="stroke:#181818;stroke-width:0.5;"/><text fill="#000000" font-family="sans-serif" font-size="13" lengthAdjust="spacing" textLength="303" x="1139" y="1321.0879">See first API call and render sequence for details</text><path d="M10,1351.3301 L72,1351.3301 L72,1358.6406 L62,1368.6406 L10,1368.6406 L10,1351.3301 " fill="#EEEEEE" style="stroke:#000000;stroke-width:1.5;"/><rect fill="none" height="118.2422" style="stroke:#000000;stroke-width:1.5;" width="1462" x="10" y="1351.3301"/><text fill="#000000" font-family="sans-serif" font-size="13" font-weight="bold" lengthAdjust="spacing" textLength="17" x="25" y="1364.8984">alt</text><text fill="#000000" font-family="sans-serif" font-size="11" font-weight="bold" lengthAdjust="spacing" textLength="233" x="87" y="1363.9648">[User searches for a specific LA by name]</text><polygon fill="#181818" points="507,1385.9512,517,1389.9512,507,1393.9512" style="stroke:#181818;stroke-width:1.0;"/><line style="stroke:#181818;stroke-width:1.0;" x1="45.5" x2="513" y1="1389.9512" y2="1389.9512"/><text fill="#000000" font-family="sans-serif" font-size="13" lengthAdjust="spacing" textLength="274" x="145.25" y="1385.209">Enter LA name in search box and click filter</text><polygon fill="#181818" points="876,1415.2617,886,1419.2617,876,1423.2617" style="stroke:#181818;stroke-width:1.0;"/><line style="stroke:#181818;stroke-width:1.0;" x1="519" x2="882" y1="1419.2617" y2="1419.2617"/><text fill="#000000" font-family="sans-serif" font-size="13" lengthAdjust="spacing" textLength="313" x="547" y="1414.5195">call page controller - with la code as query param</text><line style="stroke:#0000FF;stroke-width:1.0;stroke-dasharray:2.0,2.0;" x1="888" x2="930" y1="1448.5723" y2="1448.5723"/><line style="stroke:#0000FF;stroke-width:1.0;stroke-dasharray:2.0,2.0;" x1="930" x2="930" y1="1448.5723" y2="1461.5723"/><line style="stroke:#0000FF;stroke-width:1.0;stroke-dasharray:2.0,2.0;" x1="889" x2="930" y1="1461.5723" y2="1461.5723"/><polygon fill="#0000FF" points="899,1457.5723,889,1461.5723,899,1465.5723" style="stroke:#0000FF;stroke-width:1.0;"/><text fill="#000000" font-family="sans-serif" font-size="13" lengthAdjust="spacing" textLength="226" x="895" y="1443.8301">repeat API calls and render as above</text><path d="M1133,1435.7617 L1133,1460.7617 L1457,1460.7617 L1457,1445.7617 L1447,1435.7617 L1133,1435.7617 " fill="#FEFFDD" style="stroke:#181818;stroke-width:0.5;"/><path d="M1447,1435.7617 L1447,1445.7617 L1457,1445.7617 L1447,1435.7617 " fill="#FEFFDD" style="stroke:#181818;stroke-width:0.5;"/><text fill="#000000" font-family="sans-serif" font-size="13" lengthAdjust="spacing" textLength="303" x="1139" y="1453.3301">See first API call and render sequence for details</text><!--SRC=[tLRVRzem47xFNt5hAq4beEzLXPH2rh6bfOEqBzCq6US05sDdjjEM_tuN5m9f-T5EsijU4F7TVVVbkyzsfY95o9KKQePfy4aeBdDQcQ128tXp93MVsLOccNBvN0Q1dGcLCSFcC7GBYM0TfHKXs0pXxnmLnskqbaqmb6AYvgWSSFf14mIKvWGN6Q52o9scfLgj1d6_4yOmwDyblPkhIj8NFSTRWeABYxDsknAA91O8J0vm8Yp1TvcThd9n5MoQPVHLzTNBYqR6Q5CM5G-Kvpbr-ZV9e1_7qG32couCekztqJ21_kNNg9CCzpFfQEMCbX8DmRwbqk9blFLWssqu9g6cRe5IwgSASgmvas7kfje89z1smpuXohUhhGcw-ka-gBjCQfOE7NDB53GRIuVhArGMHL5U0ks8jJ9jjw1wUPFe-ZOEasXuUAO9pic73hTgUPPInaWpaxRKmyotOe-eKd9R1RWOxGRGBpzhUxRq-vjQp_5pBqwYmT3F_pwCUzqmwG-gXBiuPhbqqNE6ogAzPrAahFJrPTZv5b7nsakLual6PzHkxPOWy9i2cksrySz14pQmBBEG6lP4dc8g1UkbW5gf6AmagmLbBU7iy-OvqDWabAB2IbJW6vHEbXg5jxqEfTVt83Qs6RPH5Ry1H_uPnkZuLAW951oyfO6j2uzEFzQuQk-3FRUyS-uHw60ZY8zstx41_eP6wMVwvnWH2KwCz-GA9T75REkldBV9PkykQkm-EAbNm2GT5PPul1ZC0lEAv1Rq6E8Gd8P7WKzGnzQa1RKRxPR2OLex3G1A0-y-dizNvlqWz6x4z_ayArBNpeOcF0atNN5W5kZoCWlmLzcsTXk8pH_78vbZenWMfZyFzZUO8QChxxRdgLY_XL_6MZHc8_s8r59fEfnCSLIUqrsAC1R6hgisY-pofeKngPsYOqBQW4AL0JB3fsXz2acT8HTZmGkbHmjGR8xl7LTKNDv5NL44GYsXOQIVFISk1PyHMLdSyVziJfBH8dsY_2U3-WC0]--></g></svg>