<?xml version="1.0" encoding="us-ascii" standalone="no"?><svg xmlns="http://www.w3.org/2000/svg" xmlns:xlink="http://www.w3.org/1999/xlink" contentStyleType="text/css" height="963px" preserveAspectRatio="none" style="width:2789px;height:963px;background:#FFFFFF;" version="1.1" viewBox="0 0 2789 963" width="2789px" zoomAndPan="magnify"><defs/><g><rect fill="none" height="134.5527" style="stroke:#000000;stroke-width:1.5;" width="2111" x="10" y="128.5977"/><rect fill="none" height="193.1738" style="stroke:#000000;stroke-width:1.5;" width="2773" x="10" y="540.9453"/><line style="stroke:#181818;stroke-width:0.5;stroke-dasharray:5.0,5.0;" x1="45" x2="45" y1="52.9766" y2="956.293"/><line style="stroke:#181818;stroke-width:0.5;stroke-dasharray:5.0,5.0;" x1="425.5" x2="425.5" y1="52.9766" y2="956.293"/><line style="stroke:#181818;stroke-width:0.5;stroke-dasharray:5.0,5.0;" x1="689.5" x2="689.5" y1="52.9766" y2="956.293"/><line style="stroke:#181818;stroke-width:0.5;stroke-dasharray:5.0,5.0;" x1="923.5" x2="923.5" y1="52.9766" y2="956.293"/><line style="stroke:#181818;stroke-width:0.5;stroke-dasharray:5.0,5.0;" x1="1117.5" x2="1117.5" y1="52.9766" y2="956.293"/><line style="stroke:#181818;stroke-width:0.5;stroke-dasharray:5.0,5.0;" x1="1472" x2="1472" y1="52.9766" y2="956.293"/><line style="stroke:#181818;stroke-width:0.5;stroke-dasharray:5.0,5.0;" x1="1731" x2="1731" y1="52.9766" y2="956.293"/><line style="stroke:#181818;stroke-width:0.5;stroke-dasharray:5.0,5.0;" x1="1984" x2="1984" y1="52.9766" y2="956.293"/><line style="stroke:#181818;stroke-width:0.5;stroke-dasharray:5.0,5.0;" x1="2286" x2="2286" y1="52.9766" y2="956.293"/><line style="stroke:#181818;stroke-width:0.5;stroke-dasharray:5.0,5.0;" x1="2542" x2="2542" y1="52.9766" y2="956.293"/><line style="stroke:#181818;stroke-width:0.5;stroke-dasharray:5.0,5.0;" x1="2702" x2="2702" y1="52.9766" y2="956.293"/><rect fill="#E2E2F0" height="30.4883" rx="2.5" ry="2.5" style="stroke:#181818;stroke-width:0.5;" width="51" x="20" y="21.4883"/><text fill="#000000" font-family="sans-serif" font-size="14" lengthAdjust="spacing" textLength="37" x="27" y="42.0234">Actor</text><rect fill="#E2E2F0" height="46.9766" rx="2.5" ry="2.5" style="stroke:#181818;stroke-width:0.5;" width="196" x="327.5" y="5"/><text fill="#000000" font-family="sans-serif" font-size="14" font-style="italic" lengthAdjust="spacing" textLength="141" x="355" y="25.5352">&#171;/electoral-register&#187;</text><text fill="#000000" font-family="sans-serif" font-size="14" lengthAdjust="spacing" textLength="182" x="334.5" y="42.0234">ElectoralRegisterDashPage</text><rect fill="#E2E2F0" height="46.9766" rx="2.5" ry="2.5" style="stroke:#181818;stroke-width:0.5;" width="313" x="533.5" y="5"/><text fill="#000000" font-family="sans-serif" font-size="14" font-style="italic" lengthAdjust="spacing" textLength="299" x="540.5" y="25.5352">&#171;/electoral-register/mark-email-delivered&#187;</text><text fill="#000000" font-family="sans-serif" font-size="14" lengthAdjust="spacing" textLength="168" x="606" y="42.0234">MarkEmailDeliveredPage</text><rect fill="#E2E2F0" height="46.9766" rx="2.5" ry="2.5" style="stroke:#181818;stroke-width:0.5;" width="134" x="856.5" y="5"/><text fill="#000000" font-family="sans-serif" font-size="14" font-style="italic" lengthAdjust="spacing" textLength="56" x="895.5" y="25.5352">&#171;/error&#187;</text><text fill="#000000" font-family="sans-serif" font-size="14" lengthAdjust="spacing" textLength="120" x="863.5" y="42.0234">GenericErrorPage</text><rect fill="#FFFFE0" height="46.9766" rx="2.5" ry="2.5" style="stroke:#181818;stroke-width:0.5;" width="234" x="1000.5" y="5"/><text fill="#000000" font-family="sans-serif" font-size="14" font-style="italic" lengthAdjust="spacing" textLength="220" x="1007.5" y="25.5352">&#171;electoral-register.controller.js&#187;</text><text fill="#000000" font-family="sans-serif" font-size="14" lengthAdjust="spacing" textLength="185" x="1025" y="42.0234">ElectoralRegisterController</text><rect fill="#FFFFE0" height="46.9766" rx="2.5" ry="2.5" style="stroke:#181818;stroke-width:0.5;" width="265" x="1340" y="5"/><text fill="#000000" font-family="sans-serif" font-size="14" font-style="italic" lengthAdjust="spacing" textLength="251" x="1347" y="25.5352">&#171;mark-email-delivered.controller.js&#187;</text><text fill="#000000" font-family="sans-serif" font-size="14" lengthAdjust="spacing" textLength="205" x="1370" y="42.0234">MarkEmailDeliveredController</text><rect fill="#FFFFE0" height="46.9766" rx="2.5" ry="2.5" style="stroke:#181818;stroke-width:0.5;" width="232" x="1615" y="5"/><text fill="#000000" font-family="sans-serif" font-size="14" font-style="italic" lengthAdjust="spacing" textLength="218" x="1622" y="25.5352">&#171;markEmailDeliveredDAO.put()&#187;</text><text fill="#000000" font-family="sans-serif" font-size="14" lengthAdjust="spacing" textLength="166" x="1648" y="42.0234">MarkEmailDeliveredDAO</text><rect fill="#E6E6FA" height="46.9766" rx="2.5" ry="2.5" style="stroke:#181818;stroke-width:0.5;" width="254" x="1857" y="5"/><text fill="#000000" font-family="sans-serif" font-size="14" font-style="italic" lengthAdjust="spacing" textLength="240" x="1864" y="25.5352">&#171;electoral-register/dashboard.njk&#187;</text><text fill="#000000" font-family="sans-serif" font-size="14" lengthAdjust="spacing" textLength="213" x="1877.5" y="42.0234">ElectoralRegisterDashTemplate</text><rect fill="#E6E6FA" height="46.9766" rx="2.5" ry="2.5" style="stroke:#181818;stroke-width:0.5;" width="331" x="2121" y="5"/><text fill="#000000" font-family="sans-serif" font-size="14" font-style="italic" lengthAdjust="spacing" textLength="317" x="2128" y="25.5352">&#171;electoral-register/mark-email-delivered.njk&#187;</text><text fill="#000000" font-family="sans-serif" font-size="14" lengthAdjust="spacing" textLength="199" x="2187" y="42.0234">MarkEmailDeliveredTemplate</text><rect fill="#E6E6FA" height="46.9766" rx="2.5" ry="2.5" style="stroke:#181818;stroke-width:0.5;" width="160" x="2462" y="5"/><text fill="#000000" font-family="sans-serif" font-size="14" font-style="italic" lengthAdjust="spacing" textLength="146" x="2469" y="25.5352">&#171;_errors/generic.njk&#187;</text><text fill="#000000" font-family="sans-serif" font-size="14" lengthAdjust="spacing" textLength="99" x="2492.5" y="42.0234">ErrorTemplate</text><rect fill="#E2E2F0" height="30.4883" rx="2.5" ry="2.5" style="stroke:#181818;stroke-width:0.5;" width="141" x="2632" y="21.4883"/><text fill="#000000" font-family="sans-serif" font-size="14" lengthAdjust="spacing" textLength="127" x="2639" y="42.0234">BackendController</text><polygon fill="#181818" points="413.5,80.2871,423.5,84.2871,413.5,88.2871" style="stroke:#181818;stroke-width:1.0;"/><line style="stroke:#181818;stroke-width:1.0;" x1="45.5" x2="419.5" y1="84.2871" y2="84.2871"/><text fill="#000000" font-family="sans-serif" font-size="13" lengthAdjust="spacing" textLength="356" x="57.5" y="79.5449">Select multiple LA's and click "Mark email delivered" link</text><polygon fill="#181818" points="1105.5,109.5977,1115.5,113.5977,1105.5,117.5977" style="stroke:#181818;stroke-width:1.0;"/><line style="stroke:#181818;stroke-width:1.0;" x1="425.5" x2="1111.5" y1="113.5977" y2="113.5977"/><text fill="#000000" font-family="sans-serif" font-size="13" lengthAdjust="spacing" textLength="197" x="673" y="108.8555">call electoral register controller</text><path d="M10,128.5977 L72,128.5977 L72,135.9082 L62,145.9082 L10,145.9082 L10,128.5977 " fill="#EEEEEE" style="stroke:#000000;stroke-width:1.5;"/><rect fill="none" height="134.5527" style="stroke:#000000;stroke-width:1.5;" width="2111" x="10" y="128.5977"/><text fill="#000000" font-family="sans-serif" font-size="13" font-weight="bold" lengthAdjust="spacing" textLength="17" x="25" y="142.166">alt</text><text fill="#000000" font-family="sans-serif" font-size="11" font-weight="bold" lengthAdjust="spacing" textLength="99" x="87" y="141.2324">[No LA's selected]</text><polygon fill="#181818" points="1972,163.2188,1982,167.2188,1972,171.2188" style="stroke:#181818;stroke-width:1.0;"/><line style="stroke:#181818;stroke-width:1.0;" x1="1117.5" x2="1978" y1="167.2188" y2="167.2188"/><text fill="#000000" font-family="sans-serif" font-size="13" lengthAdjust="spacing" textLength="169" x="1466.25" y="162.4766">request and build template</text><polygon fill="#181818" points="1128.5,192.5293,1118.5,196.5293,1128.5,200.5293" style="stroke:#181818;stroke-width:1.0;"/><line style="stroke:#181818;stroke-width:1.0;" x1="1122.5" x2="1983" y1="196.5293" y2="196.5293"/><text fill="#000000" font-family="sans-serif" font-size="13" lengthAdjust="spacing" textLength="78" x="1511.75" y="191.7871">return HTML</text><polygon fill="#181818" points="436.5,221.8398,426.5,225.8398,436.5,229.8398" style="stroke:#181818;stroke-width:1.0;"/><line style="stroke:#181818;stroke-width:1.0;" x1="430.5" x2="1116.5" y1="225.8398" y2="225.8398"/><text fill="#000000" font-family="sans-serif" font-size="13" lengthAdjust="spacing" textLength="112" x="715.5" y="221.0977">return error HTML</text><polygon fill="#181818" points="56.5,251.1504,46.5,255.1504,56.5,259.1504" style="stroke:#181818;stroke-width:1.0;"/><line style="stroke:#181818;stroke-width:1.0;" x1="50.5" x2="424.5" y1="255.1504" y2="255.1504"/><text fill="#000000" font-family="sans-serif" font-size="13" lengthAdjust="spacing" textLength="133" x="169" y="250.4082">render error message</text><polygon fill="#181818" points="1460.5,287.4609,1470.5,291.4609,1460.5,295.4609" style="stroke:#181818;stroke-width:1.0;"/><line style="stroke:#181818;stroke-width:1.0;" x1="1117.5" x2="1466.5" y1="291.4609" y2="291.4609"/><text fill="#000000" font-family="sans-serif" font-size="13" lengthAdjust="spacing" textLength="331" x="1129.5" y="286.7188">pass selectec LA's to mark email delivered controller</text><polygon fill="#181818" points="2274.5,316.7715,2284.5,320.7715,2274.5,324.7715" style="stroke:#181818;stroke-width:1.0;"/><line style="stroke:#181818;stroke-width:1.0;" x1="1472.5" x2="2280.5" y1="320.7715" y2="320.7715"/><text fill="#000000" font-family="sans-serif" font-size="13" lengthAdjust="spacing" textLength="169" x="1795" y="316.0293">request and build template</text><polygon fill="#181818" points="1483.5,346.082,1473.5,350.082,1483.5,354.082" style="stroke:#181818;stroke-width:1.0;"/><line style="stroke:#181818;stroke-width:1.0;" x1="1477.5" x2="2285.5" y1="350.082" y2="350.082"/><text fill="#000000" font-family="sans-serif" font-size="13" lengthAdjust="spacing" textLength="78" x="1840.5" y="345.3398">return HTML</text><polygon fill="#181818" points="701,375.3926,691,379.3926,701,383.3926" style="stroke:#181818;stroke-width:1.0;"/><line style="stroke:#181818;stroke-width:1.0;" x1="695" x2="1471.5" y1="379.3926" y2="379.3926"/><text fill="#000000" font-family="sans-serif" font-size="13" lengthAdjust="spacing" textLength="78" x="1042.25" y="374.6504">return HTML</text><polygon fill="#181818" points="56.5,404.7031,46.5,408.7031,56.5,412.7031" style="stroke:#181818;stroke-width:1.0;"/><line style="stroke:#181818;stroke-width:1.0;" x1="50.5" x2="689" y1="408.7031" y2="408.7031"/><text fill="#000000" font-family="sans-serif" font-size="13" lengthAdjust="spacing" textLength="80" x="327.75" y="403.9609">render HTML</text><polygon fill="#181818" points="678,434.0137,688,438.0137,678,442.0137" style="stroke:#181818;stroke-width:1.0;"/><line style="stroke:#181818;stroke-width:1.0;" x1="45.5" x2="684" y1="438.0137" y2="438.0137"/><text fill="#000000" font-family="sans-serif" font-size="13" lengthAdjust="spacing" textLength="241" x="247.25" y="433.2715">Click "Yes - mark as delivered" button</text><polygon fill="#181818" points="1460.5,463.3242,1470.5,467.3242,1460.5,471.3242" style="stroke:#181818;stroke-width:1.0;"/><line style="stroke:#181818;stroke-width:1.0;" x1="690" x2="1466.5" y1="467.3242" y2="467.3242"/><text fill="#000000" font-family="sans-serif" font-size="13" lengthAdjust="spacing" textLength="222" x="970.25" y="462.582">call mark email delivered controller</text><polygon fill="#181818" points="1719,492.6348,1729,496.6348,1719,500.6348" style="stroke:#181818;stroke-width:1.0;"/><line style="stroke:#181818;stroke-width:1.0;" x1="1472.5" x2="1725" y1="496.6348" y2="496.6348"/><text fill="#000000" font-family="sans-serif" font-size="13" lengthAdjust="spacing" textLength="126" x="1538.75" y="491.8926">build request object</text><polygon fill="#181818" points="2690.5,521.9453,2700.5,525.9453,2690.5,529.9453" style="stroke:#181818;stroke-width:1.0;"/><line style="stroke:#181818;stroke-width:1.0;" x1="1731" x2="2696.5" y1="525.9453" y2="525.9453"/><text fill="#000000" font-family="sans-serif" font-size="13" lengthAdjust="spacing" textLength="138" x="2147.75" y="521.2031">send backend request</text><path d="M10,540.9453 L72,540.9453 L72,548.2559 L62,558.2559 L10,558.2559 L10,540.9453 " fill="#EEEEEE" style="stroke:#000000;stroke-width:1.5;"/><rect fill="none" height="193.1738" style="stroke:#000000;stroke-width:1.5;" width="2773" x="10" y="540.9453"/><text fill="#000000" font-family="sans-serif" font-size="13" font-weight="bold" lengthAdjust="spacing" textLength="17" x="25" y="554.5137">alt</text><text fill="#000000" font-family="sans-serif" font-size="11" font-weight="bold" lengthAdjust="spacing" textLength="330" x="87" y="553.5801">[Failed to mark email as delivered for all local authorities]</text><polygon fill="#181818" points="1742,575.5664,1732,579.5664,1742,583.5664" style="stroke:#181818;stroke-width:1.0;"/><line style="stroke:#181818;stroke-width:1.0;stroke-dasharray:2.0,2.0;" x1="1736" x2="2701.5" y1="579.5664" y2="579.5664"/><text fill="#000000" font-family="sans-serif" font-size="13" lengthAdjust="spacing" textLength="91" x="2171.25" y="574.8242">Error response</text><polygon fill="#181818" points="1483.5,604.877,1473.5,608.877,1483.5,612.877" style="stroke:#181818;stroke-width:1.0;"/><line style="stroke:#181818;stroke-width:1.0;stroke-dasharray:2.0,2.0;" x1="1477.5" x2="1730" y1="608.877" y2="608.877"/><text fill="#000000" font-family="sans-serif" font-size="13" lengthAdjust="spacing" textLength="127" x="1538.25" y="604.1348">reject requestObject</text><polygon fill="#181818" points="2530,634.1875,2540,638.1875,2530,642.1875" style="stroke:#181818;stroke-width:1.0;"/><line style="stroke:#181818;stroke-width:1.0;" x1="1472.5" x2="2536" y1="638.1875" y2="638.1875"/><text fill="#000000" font-family="sans-serif" font-size="13" lengthAdjust="spacing" textLength="169" x="1922.75" y="633.4453">request and build template</text><polygon fill="#181818" points="1483.5,663.498,1473.5,667.498,1483.5,671.498" style="stroke:#181818;stroke-width:1.0;"/><line style="stroke:#181818;stroke-width:1.0;" x1="1477.5" x2="2541" y1="667.498" y2="667.498"/><text fill="#000000" font-family="sans-serif" font-size="13" lengthAdjust="spacing" textLength="78" x="1968.25" y="662.7559">return HTML</text><polygon fill="#181818" points="934.5,692.8086,924.5,696.8086,934.5,700.8086" style="stroke:#181818;stroke-width:1.0;"/><line style="stroke:#181818;stroke-width:1.0;" x1="928.5" x2="1471.5" y1="696.8086" y2="696.8086"/><text fill="#000000" font-family="sans-serif" font-size="13" lengthAdjust="spacing" textLength="78" x="1159" y="692.0664">return HTML</text><polygon fill="#181818" points="56.5,722.1191,46.5,726.1191,56.5,730.1191" style="stroke:#181818;stroke-width:1.0;"/><line style="stroke:#181818;stroke-width:1.0;" x1="50.5" x2="922.5" y1="726.1191" y2="726.1191"/><text fill="#000000" font-family="sans-serif" font-size="13" lengthAdjust="spacing" textLength="108" x="430.5" y="721.377">render error page</text><polygon fill="#181818" points="1742,758.4297,1732,762.4297,1742,766.4297" style="stroke:#181818;stroke-width:1.0;"/><line style="stroke:#181818;stroke-width:1.0;" x1="1736" x2="2701.5" y1="762.4297" y2="762.4297"/><text fill="#000000" font-family="sans-serif" font-size="13" lengthAdjust="spacing" textLength="77" x="2178.25" y="757.6875">ok response</text><polygon fill="#181818" points="1483.5,787.7402,1473.5,791.7402,1483.5,795.7402" style="stroke:#181818;stroke-width:1.0;"/><line style="stroke:#181818;stroke-width:1.0;" x1="1477.5" x2="1730" y1="791.7402" y2="791.7402"/><text fill="#000000" font-family="sans-serif" font-size="13" lengthAdjust="spacing" textLength="96" x="1553.75" y="786.998">resolve request</text><polygon fill="#181818" points="1128.5,817.0508,1118.5,821.0508,1128.5,825.0508" style="stroke:#181818;stroke-width:1.0;"/><line style="stroke:#181818;stroke-width:1.0;" x1="1122.5" x2="1471.5" y1="821.0508" y2="821.0508"/><text fill="#000000" font-family="sans-serif" font-size="13" lengthAdjust="spacing" textLength="159" x="1215.5" y="816.3086">return to dashboard page</text><polygon fill="#181818" points="1972,846.3613,1982,850.3613,1972,854.3613" style="stroke:#181818;stroke-width:1.0;"/><line style="stroke:#181818;stroke-width:1.0;" x1="1117.5" x2="1978" y1="850.3613" y2="850.3613"/><text fill="#000000" font-family="sans-serif" font-size="13" lengthAdjust="spacing" textLength="169" x="1466.25" y="845.6191">request and build template</text><polygon fill="#181818" points="1128.5,875.6719,1118.5,879.6719,1128.5,883.6719" style="stroke:#181818;stroke-width:1.0;"/><line style="stroke:#181818;stroke-width:1.0;" x1="1122.5" x2="1983" y1="879.6719" y2="879.6719"/><text fill="#000000" font-family="sans-serif" font-size="13" lengthAdjust="spacing" textLength="78" x="1511.75" y="874.9297">return HTML</text><polygon fill="#181818" points="436.5,904.9824,426.5,908.9824,436.5,912.9824" style="stroke:#181818;stroke-width:1.0;"/><line style="stroke:#181818;stroke-width:1.0;" x1="430.5" x2="1116.5" y1="908.9824" y2="908.9824"/><text fill="#000000" font-family="sans-serif" font-size="13" lengthAdjust="spacing" textLength="78" x="732.5" y="904.2402">return HTML</text><polygon fill="#181818" points="56.5,934.293,46.5,938.293,56.5,942.293" style="stroke:#181818;stroke-width:1.0;"/><line style="stroke:#181818;stroke-width:1.0;" x1="50.5" x2="424.5" y1="938.293" y2="938.293"/><text fill="#000000" font-family="sans-serif" font-size="13" lengthAdjust="spacing" textLength="80" x="195.5" y="933.5508">render HTML</text><!--SRC=[jLLDRzim3BtxLt3PW3H0xDo38e3hk5stDEuIzx3JeCfSebgMCadkq7y_slceqyOEXc6N016fHxwdHtejCeHIIQ5opBmFGd5PqaaGZ5Qeq0ZkFqhDSnji95EkBAJdsLoe3JEiWALxaGZMKLeLWcO8VvMeEDwXjMo5eHGhLQ1omEa7ZUTHcXDSR0WLGkuq7VNxVPWbKJY3HVAGtivlZf8-wmBl2GekBqUJoL4ebbWXCBd0bR04FsLslS_5VT0tk-YRstVCv771X9oY5CzeC6k_EYeesSSgsy_swM_mRhR2nSPeSq2g_b1UpJ5AvkaYcStY1OJpAIpYRm_nCeNawaiSfSjkPf5MpcWfqH3i-_u2VeW7JtOoWOya_Dgze9JwzndMHz2dUFuB-3HCTgZlpeDDwIu6R-5gfTBuxduMfl7o_7EdM9157PwKPPHHngDc9WlKKrwNOi-eCZ9YTzlTg2T5wYfGUwA1-QFsXTtFshkxjGXNOVGr9f-yskO8yuhndB9VNy_pwda2Vz8n66EQq2e8HIcTsD0OpyA-1QOou5Bm77gL652JWmEv7bIBmck7FLMpuQinS2Ob7AI4lPJ06-qpwM2kjmtPEfTM4y0dKujIQvYeQssAYuvQmswR3Dkr6NXKn_EwU13DplaPmuRPG_DyIyLfA4veUaHznt7VPQghXYwwQWqxN3jisMs3XaLQjjyOegqDlgC5VziuiqqdF9REQULvBG3d9QgjS5wHtMo4zxSHNVXhBMZ138_dRWYzQygWEiSlqgG7FqcTgZ_w-95DMUdMsWWdqFO6tTQuzC_nDkXAewhYXwr4TbbXo-F_9u__0G00]--></g></svg>