<?xml version="1.0" encoding="us-ascii" standalone="no"?><svg xmlns="http://www.w3.org/2000/svg" xmlns:xlink="http://www.w3.org/1999/xlink" contentStyleType="text/css" height="1051px" preserveAspectRatio="none" style="width:2636px;height:1051px;background:#FFFFFF;" version="1.1" viewBox="0 0 2636 1051" width="2636px" zoomAndPan="magnify"><defs/><g><rect fill="none" height="193.1738" style="stroke:#000000;stroke-width:1.5;" width="2413" x="10" y="187.2188"/><rect fill="none" height="193.1738" style="stroke:#000000;stroke-width:1.5;" width="2413" x="10" y="687.498"/><line style="stroke:#181818;stroke-width:0.5;stroke-dasharray:5.0,5.0;" x1="45" x2="45" y1="52.9766" y2="1044.2246"/><line style="stroke:#181818;stroke-width:0.5;stroke-dasharray:5.0,5.0;" x1="411" x2="411" y1="52.9766" y2="1044.2246"/><line style="stroke:#181818;stroke-width:0.5;stroke-dasharray:5.0,5.0;" x1="800" x2="800" y1="52.9766" y2="1044.2246"/><line style="stroke:#181818;stroke-width:0.5;stroke-dasharray:5.0,5.0;" x1="1094" x2="1094" y1="52.9766" y2="1044.2246"/><line style="stroke:#181818;stroke-width:0.5;stroke-dasharray:5.0,5.0;" x1="1280" x2="1280" y1="52.9766" y2="1044.2246"/><line style="stroke:#181818;stroke-width:0.5;stroke-dasharray:5.0,5.0;" x1="1492" x2="1492" y1="52.9766" y2="1044.2246"/><line style="stroke:#181818;stroke-width:0.5;stroke-dasharray:5.0,5.0;" x1="1697" x2="1697" y1="52.9766" y2="1044.2246"/><line style="stroke:#181818;stroke-width:0.5;stroke-dasharray:5.0,5.0;" x1="1950" x2="1950" y1="52.9766" y2="1044.2246"/><line style="stroke:#181818;stroke-width:0.5;stroke-dasharray:5.0,5.0;" x1="2182" x2="2182" y1="52.9766" y2="1044.2246"/><line style="stroke:#181818;stroke-width:0.5;stroke-dasharray:5.0,5.0;" x1="2342" x2="2342" y1="52.9766" y2="1044.2246"/><line style="stroke:#181818;stroke-width:0.5;stroke-dasharray:5.0,5.0;" x1="2526" x2="2526" y1="52.9766" y2="1044.2246"/><rect fill="#E2E2F0" height="30.4883" rx="2.5" ry="2.5" style="stroke:#181818;stroke-width:0.5;" width="51" x="20" y="21.4883"/><text fill="#000000" font-family="sans-serif" font-size="14" lengthAdjust="spacing" textLength="37" x="27" y="42.0234">Actor</text><rect fill="#E2E2F0" height="46.9766" rx="2.5" ry="2.5" style="stroke:#181818;stroke-width:0.5;" width="323" x="250" y="5"/><text fill="#000000" font-family="sans-serif" font-size="14" font-style="italic" lengthAdjust="spacing" textLength="309" x="257" y="25.5352">&#171;/electoral-register/local-authority/:laCode&#187;</text><text fill="#000000" font-family="sans-serif" font-size="14" lengthAdjust="spacing" textLength="159" x="332" y="42.0234">LocalAuthorityInfoPage</text><rect fill="#E2E2F0" height="46.9766" rx="2.5" ry="2.5" style="stroke:#181818;stroke-width:0.5;" width="434" x="583" y="5"/><text fill="#000000" font-family="sans-serif" font-size="14" font-style="italic" lengthAdjust="spacing" textLength="420" x="590" y="25.5352">&#171;/electoral-register/local-authority/:laCode/send-reminder&#187;</text><text fill="#000000" font-family="sans-serif" font-size="14" lengthAdjust="spacing" textLength="133" x="733.5" y="42.0234">SendReminderPage</text><rect fill="#E2E2F0" height="46.9766" rx="2.5" ry="2.5" style="stroke:#181818;stroke-width:0.5;" width="134" x="1027" y="5"/><text fill="#000000" font-family="sans-serif" font-size="14" font-style="italic" lengthAdjust="spacing" textLength="56" x="1066" y="25.5352">&#171;/error&#187;</text><text fill="#000000" font-family="sans-serif" font-size="14" lengthAdjust="spacing" textLength="120" x="1034" y="42.0234">GenericErrorPage</text><rect fill="#FFFFE0" height="46.9766" rx="2.5" ry="2.5" style="stroke:#181818;stroke-width:0.5;" width="218" x="1171" y="5"/><text fill="#000000" font-family="sans-serif" font-size="14" font-style="italic" lengthAdjust="spacing" textLength="204" x="1178" y="25.5352">&#171;send-reminder.controller.js&#187;</text><text fill="#000000" font-family="sans-serif" font-size="14" lengthAdjust="spacing" textLength="170" x="1195" y="42.0234">SendReminderController</text><rect fill="#FFFFE0" height="46.9766" rx="2.5" ry="2.5" style="stroke:#181818;stroke-width:0.5;" width="187" x="1399" y="5"/><text fill="#000000" font-family="sans-serif" font-size="14" font-style="italic" lengthAdjust="spacing" textLength="173" x="1406" y="25.5352">&#171;localAuthorityInfo.get()&#187;</text><text fill="#000000" font-family="sans-serif" font-size="14" lengthAdjust="spacing" textLength="157" x="1414" y="42.0234">LocalAuthorityInfoDAO</text><rect fill="#FFFFE0" height="46.9766" rx="2.5" ry="2.5" style="stroke:#181818;stroke-width:0.5;" width="202" x="1596" y="5"/><text fill="#000000" font-family="sans-serif" font-size="14" font-style="italic" lengthAdjust="spacing" textLength="188" x="1603" y="25.5352">&#171;sendReminderDAO.post()&#187;</text><text fill="#000000" font-family="sans-serif" font-size="14" lengthAdjust="spacing" textLength="131" x="1631.5" y="42.0234">SendReminderDAO</text><rect fill="#E6E6FA" height="46.9766" rx="2.5" ry="2.5" style="stroke:#181818;stroke-width:0.5;" width="284" x="1808" y="5"/><text fill="#000000" font-family="sans-serif" font-size="14" font-style="italic" lengthAdjust="spacing" textLength="270" x="1815" y="25.5352">&#171;electoral-register/send-reminder.njk&#187;</text><text fill="#000000" font-family="sans-serif" font-size="14" lengthAdjust="spacing" textLength="164" x="1868" y="42.0234">SendReminderTemplate</text><rect fill="#E6E6FA" height="46.9766" rx="2.5" ry="2.5" style="stroke:#181818;stroke-width:0.5;" width="160" x="2102" y="5"/><text fill="#000000" font-family="sans-serif" font-size="14" font-style="italic" lengthAdjust="spacing" textLength="146" x="2109" y="25.5352">&#171;_errors/generic.njk&#187;</text><text fill="#000000" font-family="sans-serif" font-size="14" lengthAdjust="spacing" textLength="99" x="2132.5" y="42.0234">ErrorTemplate</text><rect fill="#E2E2F0" height="30.4883" rx="2.5" ry="2.5" style="stroke:#181818;stroke-width:0.5;" width="141" x="2272" y="21.4883"/><text fill="#000000" font-family="sans-serif" font-size="14" lengthAdjust="spacing" textLength="127" x="2279" y="42.0234">BackendController</text><rect fill="#E2E2F0" height="30.4883" rx="2.5" ry="2.5" style="stroke:#181818;stroke-width:0.5;" width="207" x="2423" y="21.4883"/><text fill="#000000" font-family="sans-serif" font-size="14" lengthAdjust="spacing" textLength="193" x="2430" y="42.0234">localAuthorityInfoController</text><polygon fill="#181818" points="399.5,80.2871,409.5,84.2871,399.5,88.2871" style="stroke:#181818;stroke-width:1.0;"/><line style="stroke:#181818;stroke-width:1.0;" x1="45.5" x2="405.5" y1="84.2871" y2="84.2871"/><text fill="#000000" font-family="sans-serif" font-size="13" lengthAdjust="spacing" textLength="202" x="127.5" y="79.5449">Click "Send email reminder" link</text><polygon fill="#181818" points="1268,109.5977,1278,113.5977,1268,117.5977" style="stroke:#181818;stroke-width:1.0;"/><line style="stroke:#181818;stroke-width:1.0;" x1="411.5" x2="1274" y1="113.5977" y2="113.5977"/><text fill="#000000" font-family="sans-serif" font-size="13" lengthAdjust="spacing" textLength="378" x="656.75" y="108.8555">call send reminder controller with LA code as request param</text><polygon fill="#181818" points="1480.5,138.9082,1490.5,142.9082,1480.5,146.9082" style="stroke:#181818;stroke-width:1.0;"/><line style="stroke:#181818;stroke-width:1.0;" x1="1280" x2="1486.5" y1="142.9082" y2="142.9082"/><text fill="#000000" font-family="sans-serif" font-size="13" lengthAdjust="spacing" textLength="126" x="1323.25" y="138.166">build request object</text><polygon fill="#181818" points="2330.5,168.2188,2340.5,172.2188,2330.5,176.2188" style="stroke:#181818;stroke-width:1.0;"/><line style="stroke:#181818;stroke-width:1.0;" x1="1492.5" x2="2336.5" y1="172.2188" y2="172.2188"/><text fill="#000000" font-family="sans-serif" font-size="13" lengthAdjust="spacing" textLength="138" x="1848.5" y="167.4766">send backend request</text><path d="M10,187.2188 L72,187.2188 L72,194.5293 L62,204.5293 L10,204.5293 L10,187.2188 " fill="#EEEEEE" style="stroke:#000000;stroke-width:1.5;"/><rect fill="none" height="193.1738" style="stroke:#000000;stroke-width:1.5;" width="2413" x="10" y="187.2188"/><text fill="#000000" font-family="sans-serif" font-size="13" font-weight="bold" lengthAdjust="spacing" textLength="17" x="25" y="200.7871">alt</text><text fill="#000000" font-family="sans-serif" font-size="11" font-weight="bold" lengthAdjust="spacing" textLength="243" x="87" y="199.8535">[Error fetching local authority information]</text><polygon fill="#181818" points="1503.5,221.8398,1493.5,225.8398,1503.5,229.8398" style="stroke:#181818;stroke-width:1.0;"/><line style="stroke:#181818;stroke-width:1.0;stroke-dasharray:2.0,2.0;" x1="1497.5" x2="2341.5" y1="225.8398" y2="225.8398"/><text fill="#000000" font-family="sans-serif" font-size="13" lengthAdjust="spacing" textLength="91" x="1872" y="221.0977">Error response</text><polygon fill="#181818" points="1291,251.1504,1281,255.1504,1291,259.1504" style="stroke:#181818;stroke-width:1.0;"/><line style="stroke:#181818;stroke-width:1.0;stroke-dasharray:2.0,2.0;" x1="1285" x2="1491.5" y1="255.1504" y2="255.1504"/><text fill="#000000" font-family="sans-serif" font-size="13" lengthAdjust="spacing" textLength="127" x="1322.75" y="250.4082">reject requestObject</text><polygon fill="#181818" points="2170,280.4609,2180,284.4609,2170,288.4609" style="stroke:#181818;stroke-width:1.0;"/><line style="stroke:#181818;stroke-width:1.0;" x1="1280" x2="2176" y1="284.4609" y2="284.4609"/><text fill="#000000" font-family="sans-serif" font-size="13" lengthAdjust="spacing" textLength="169" x="1646.5" y="279.7188">request and build template</text><polygon fill="#181818" points="1291,309.7715,1281,313.7715,1291,317.7715" style="stroke:#181818;stroke-width:1.0;"/><line style="stroke:#181818;stroke-width:1.0;" x1="1285" x2="2181" y1="313.7715" y2="313.7715"/><text fill="#000000" font-family="sans-serif" font-size="13" lengthAdjust="spacing" textLength="78" x="1692" y="309.0293">return HTML</text><polygon fill="#181818" points="1105,339.082,1095,343.082,1105,347.082" style="stroke:#181818;stroke-width:1.0;"/><line style="stroke:#181818;stroke-width:1.0;" x1="1099" x2="1279" y1="343.082" y2="343.082"/><text fill="#000000" font-family="sans-serif" font-size="13" lengthAdjust="spacing" textLength="78" x="1148" y="338.3398">return HTML</text><polygon fill="#181818" points="56.5,368.3926,46.5,372.3926,56.5,376.3926" style="stroke:#181818;stroke-width:1.0;"/><line style="stroke:#181818;stroke-width:1.0;" x1="50.5" x2="1093" y1="372.3926" y2="372.3926"/><text fill="#000000" font-family="sans-serif" font-size="13" lengthAdjust="spacing" textLength="108" x="515.75" y="367.6504">render error page</text><polygon fill="#181818" points="1503.5,404.7031,1493.5,408.7031,1503.5,412.7031" style="stroke:#181818;stroke-width:1.0;"/><line style="stroke:#181818;stroke-width:1.0;" x1="1497.5" x2="2341.5" y1="408.7031" y2="408.7031"/><text fill="#000000" font-family="sans-serif" font-size="13" lengthAdjust="spacing" textLength="77" x="1879" y="403.9609">ok response</text><polygon fill="#181818" points="1291,434.0137,1281,438.0137,1291,442.0137" style="stroke:#181818;stroke-width:1.0;"/><line style="stroke:#181818;stroke-width:1.0;" x1="1285" x2="1491.5" y1="438.0137" y2="438.0137"/><text fill="#000000" font-family="sans-serif" font-size="13" lengthAdjust="spacing" textLength="96" x="1338.25" y="433.2715">resolve request</text><polygon fill="#181818" points="1938,463.3242,1948,467.3242,1938,471.3242" style="stroke:#181818;stroke-width:1.0;"/><line style="stroke:#181818;stroke-width:1.0;" x1="1280" x2="1944" y1="467.3242" y2="467.3242"/><text fill="#000000" font-family="sans-serif" font-size="13" lengthAdjust="spacing" textLength="169" x="1530.5" y="462.582">request and build template</text><polygon fill="#181818" points="1291,492.6348,1281,496.6348,1291,500.6348" style="stroke:#181818;stroke-width:1.0;"/><line style="stroke:#181818;stroke-width:1.0;" x1="1285" x2="1949" y1="496.6348" y2="496.6348"/><text fill="#000000" font-family="sans-serif" font-size="13" lengthAdjust="spacing" textLength="78" x="1576" y="491.8926">return HTML</text><polygon fill="#181818" points="811,521.9453,801,525.9453,811,529.9453" style="stroke:#181818;stroke-width:1.0;"/><line style="stroke:#181818;stroke-width:1.0;" x1="805" x2="1279" y1="525.9453" y2="525.9453"/><text fill="#000000" font-family="sans-serif" font-size="13" lengthAdjust="spacing" textLength="78" x="1001" y="521.2031">return HTML</text><polygon fill="#181818" points="56.5,551.2559,46.5,555.2559,56.5,559.2559" style="stroke:#181818;stroke-width:1.0;"/><line style="stroke:#181818;stroke-width:1.0;" x1="50.5" x2="799" y1="555.2559" y2="555.2559"/><text fill="#000000" font-family="sans-serif" font-size="13" lengthAdjust="spacing" textLength="80" x="382.75" y="550.5137">render HTML</text><polygon fill="#181818" points="788,580.5664,798,584.5664,788,588.5664" style="stroke:#181818;stroke-width:1.0;"/><line style="stroke:#181818;stroke-width:1.0;" x1="45.5" x2="794" y1="584.5664" y2="584.5664"/><text fill="#000000" font-family="sans-serif" font-size="13" lengthAdjust="spacing" textLength="220" x="312.75" y="579.8242">Click "Yes - send reminder" button</text><polygon fill="#181818" points="1268,609.877,1278,613.877,1268,617.877" style="stroke:#181818;stroke-width:1.0;"/><line style="stroke:#181818;stroke-width:1.0;" x1="800" x2="1274" y1="613.877" y2="613.877"/><text fill="#000000" font-family="sans-serif" font-size="13" lengthAdjust="spacing" textLength="181" x="949.5" y="609.1348">call send reminder controller</text><polygon fill="#181818" points="1685,639.1875,1695,643.1875,1685,647.1875" style="stroke:#181818;stroke-width:1.0;"/><line style="stroke:#181818;stroke-width:1.0;" x1="1280" x2="1691" y1="643.1875" y2="643.1875"/><text fill="#000000" font-family="sans-serif" font-size="13" lengthAdjust="spacing" textLength="126" x="1425.5" y="638.4453">build request object</text><polygon fill="#181818" points="2330.5,668.498,2340.5,672.498,2330.5,676.498" style="stroke:#181818;stroke-width:1.0;"/><line style="stroke:#181818;stroke-width:1.0;" x1="1697" x2="2336.5" y1="672.498" y2="672.498"/><text fill="#000000" font-family="sans-serif" font-size="13" lengthAdjust="spacing" textLength="138" x="1950.75" y="667.7559">send backend request</text><path d="M10,687.498 L72,687.498 L72,694.8086 L62,704.8086 L10,704.8086 L10,687.498 " fill="#EEEEEE" style="stroke:#000000;stroke-width:1.5;"/><rect fill="none" height="193.1738" style="stroke:#000000;stroke-width:1.5;" width="2413" x="10" y="687.498"/><text fill="#000000" font-family="sans-serif" font-size="13" font-weight="bold" lengthAdjust="spacing" textLength="17" x="25" y="701.0664">alt</text><text fill="#000000" font-family="sans-serif" font-size="11" font-weight="bold" lengthAdjust="spacing" textLength="399" x="87" y="700.1328">[Failed to send reminder email to local authority in individual LA flow]</text><polygon fill="#181818" points="1708,722.1191,1698,726.1191,1708,730.1191" style="stroke:#181818;stroke-width:1.0;"/><line style="stroke:#181818;stroke-width:1.0;stroke-dasharray:2.0,2.0;" x1="1702" x2="2341.5" y1="726.1191" y2="726.1191"/><text fill="#000000" font-family="sans-serif" font-size="13" lengthAdjust="spacing" textLength="91" x="1974.25" y="721.377">Error response</text><polygon fill="#181818" points="1291,751.4297,1281,755.4297,1291,759.4297" style="stroke:#181818;stroke-width:1.0;"/><line style="stroke:#181818;stroke-width:1.0;stroke-dasharray:2.0,2.0;" x1="1285" x2="1696" y1="755.4297" y2="755.4297"/><text fill="#000000" font-family="sans-serif" font-size="13" lengthAdjust="spacing" textLength="127" x="1425" y="750.6875">reject requestObject</text><polygon fill="#181818" points="2170,780.7402,2180,784.7402,2170,788.7402" style="stroke:#181818;stroke-width:1.0;"/><line style="stroke:#181818;stroke-width:1.0;" x1="1280" x2="2176" y1="784.7402" y2="784.7402"/><text fill="#000000" font-family="sans-serif" font-size="13" lengthAdjust="spacing" textLength="169" x="1646.5" y="779.998">request and build template</text><polygon fill="#181818" points="1291,810.0508,1281,814.0508,1291,818.0508" style="stroke:#181818;stroke-width:1.0;"/><line style="stroke:#181818;stroke-width:1.0;" x1="1285" x2="2181" y1="814.0508" y2="814.0508"/><text fill="#000000" font-family="sans-serif" font-size="13" lengthAdjust="spacing" textLength="78" x="1692" y="809.3086">return HTML</text><polygon fill="#181818" points="1105,839.3613,1095,843.3613,1105,847.3613" style="stroke:#181818;stroke-width:1.0;"/><line style="stroke:#181818;stroke-width:1.0;" x1="1099" x2="1279" y1="843.3613" y2="843.3613"/><text fill="#000000" font-family="sans-serif" font-size="13" lengthAdjust="spacing" textLength="78" x="1148" y="838.6191">return HTML</text><polygon fill="#181818" points="56.5,868.6719,46.5,872.6719,56.5,876.6719" style="stroke:#181818;stroke-width:1.0;"/><line style="stroke:#181818;stroke-width:1.0;" x1="50.5" x2="1093" y1="872.6719" y2="872.6719"/><text fill="#000000" font-family="sans-serif" font-size="13" lengthAdjust="spacing" textLength="108" x="515.75" y="867.9297">render error page</text><polygon fill="#181818" points="1708,904.9824,1698,908.9824,1708,912.9824" style="stroke:#181818;stroke-width:1.0;"/><line style="stroke:#181818;stroke-width:1.0;" x1="1702" x2="2341.5" y1="908.9824" y2="908.9824"/><text fill="#000000" font-family="sans-serif" font-size="13" lengthAdjust="spacing" textLength="77" x="1981.25" y="904.2402">ok response</text><polygon fill="#181818" points="1291,934.293,1281,938.293,1291,942.293" style="stroke:#181818;stroke-width:1.0;"/><line style="stroke:#181818;stroke-width:1.0;" x1="1285" x2="1696" y1="938.293" y2="938.293"/><text fill="#000000" font-family="sans-serif" font-size="13" lengthAdjust="spacing" textLength="96" x="1440.5" y="933.5508">resolve request</text><polygon fill="#181818" points="2514.5,963.6035,2524.5,967.6035,2514.5,971.6035" style="stroke:#181818;stroke-width:1.0;"/><line style="stroke:#181818;stroke-width:1.0;" x1="1280" x2="2520.5" y1="967.6035" y2="967.6035"/><text fill="#000000" font-family="sans-serif" font-size="13" lengthAdjust="spacing" textLength="318" x="1744.25" y="962.8613">pass control back to local authority info controller</text><polygon fill="#181818" points="422.5,992.9141,412.5,996.9141,422.5,1000.9141" style="stroke:#181818;stroke-width:1.0;"/><line style="stroke:#181818;stroke-width:1.0;" x1="416.5" x2="2525.5" y1="996.9141" y2="996.9141"/><text fill="#000000" font-family="sans-serif" font-size="13" lengthAdjust="spacing" textLength="287" x="1325.5" y="992.1719">pass control back to local authority info page</text><polygon fill="#181818" points="56.5,1022.2246,46.5,1026.2246,56.5,1030.2246" style="stroke:#181818;stroke-width:1.0;"/><line style="stroke:#181818;stroke-width:1.0;" x1="50.5" x2="410.5" y1="1026.2246" y2="1026.2246"/><text fill="#000000" font-family="sans-serif" font-size="13" lengthAdjust="spacing" textLength="342" x="57.5" y="1021.4824">render local authority info page with success message</text><!--SRC=[dLLDRzim3BtxLt3PWBP0xDoB8e3hUa4sjquTzx3JeCfCeaQMCajkqNy_scu-7CTTEo0889fyf1uVgPN844ebXLfZvdmHYikIB9utMgB2Gd3tKMg-Djv6CcNBN3gEMGkrOGNBOMvV9OAnv5PzWiDF-AT4nV4MZM5BzALOgXoL1Kv_M3WEkLd1nOPGmUTMa-dix0oYEF0ZIEA7T7etQJb5cZFfbtQb2s5VfsgXPmGCLrSZb5W1CEaMk1I6u4UoSdRPrdjqALcWCnoFMv1pL5c2kL0P5fy76naA9wycdg2h-iCaYHEO-PDmtaerQTWCYqBlKrK7Ygi3W_WkJU8e2XFmxsuW2UyVmdaAyVMFC4Zd_s0YqCeMMaei2FUeN5UGWyTt7jwJ6O_XApLaPLzHIltIoqaBjdNRZ-DrYxtnussLBRktH7j-yT7Q6XJJjdWRRKvWr0IduUqiyjEZlXn2ffYJoctLcnCgQDzVFQthBEmPgtCBisxo0TZlkj5cEr6TsBgyQp_u6LBZzpfeOLuplYRlVKSSfvuQSCTzat49WHHy3OFgZe0v4nAszG-WcdYd9v8mUsHm2HGWeU9YXmLxBS2Bi2k8V3BH4c66V6WD60lrKd2SRsyK-BDfG3ZdfxCCJujcs2Ps28Fw30kqV2NK4cf9mKxuK0c_o9aLMWqkA7c1XrrEwxlsbd1A6CFEnhWuQ4Ddc-mQy0iDk6tI1l1OMgkLutJ2_flzZ_DxD4XTPh-JM303gu-IDIeYSvTh-cNYMMGbsKa12ngyYdNvxh9o-w-wOSPiBmUF9F_JQHVwa86-HyA5T-luJBOD0RurdM1xPwyHMpz4Cogcv9nUICYRPzBv2m00]--></g></svg>