<?xml version="1.0" encoding="us-ascii" standalone="no"?><svg xmlns="http://www.w3.org/2000/svg" xmlns:xlink="http://www.w3.org/1999/xlink" contentStyleType="text/css" height="904px" preserveAspectRatio="none" style="width:2022px;height:904px;background:#FFFFFF;" version="1.1" viewBox="0 0 2022 904" width="2022px" zoomAndPan="magnify"><defs/><g><rect fill="none" height="163.8633" style="stroke:#000000;stroke-width:1.5;" width="1685.5" x="10" y="304.4609"/><rect fill="none" height="193.1738" style="stroke:#000000;stroke-width:1.5;" width="2006.5" x="10" y="570.2559"/><line style="stroke:#181818;stroke-width:0.5;stroke-dasharray:5.0,5.0;" x1="45" x2="45" y1="52.9766" y2="897.6719"/><line style="stroke:#181818;stroke-width:0.5;stroke-dasharray:5.0,5.0;" x1="299.5" x2="299.5" y1="52.9766" y2="897.6719"/><line style="stroke:#181818;stroke-width:0.5;stroke-dasharray:5.0,5.0;" x1="531.5" x2="531.5" y1="52.9766" y2="897.6719"/><line style="stroke:#181818;stroke-width:0.5;stroke-dasharray:5.0,5.0;" x1="733.5" x2="733.5" y1="52.9766" y2="897.6719"/><line style="stroke:#181818;stroke-width:0.5;stroke-dasharray:5.0,5.0;" x1="910.5" x2="910.5" y1="52.9766" y2="897.6719"/><line style="stroke:#181818;stroke-width:0.5;stroke-dasharray:5.0,5.0;" x1="1106.5" x2="1106.5" y1="52.9766" y2="897.6719"/><line style="stroke:#181818;stroke-width:0.5;stroke-dasharray:5.0,5.0;" x1="1304.5" x2="1304.5" y1="52.9766" y2="897.6719"/><line style="stroke:#181818;stroke-width:0.5;stroke-dasharray:5.0,5.0;" x1="1551.5" x2="1551.5" y1="52.9766" y2="897.6719"/><line style="stroke:#181818;stroke-width:0.5;stroke-dasharray:5.0,5.0;" x1="1775.5" x2="1775.5" y1="52.9766" y2="897.6719"/><line style="stroke:#181818;stroke-width:0.5;stroke-dasharray:5.0,5.0;" x1="1935.5" x2="1935.5" y1="52.9766" y2="897.6719"/><rect fill="#E2E2F0" height="30.4883" rx="2.5" ry="2.5" style="stroke:#181818;stroke-width:0.5;" width="51" x="20" y="21.4883"/><text fill="#000000" font-family="sans-serif" font-size="14" lengthAdjust="spacing" textLength="37" x="27" y="42.0234">Actor</text><rect fill="#E2E2F0" height="46.9766" rx="2.5" ry="2.5" style="stroke:#181818;stroke-width:0.5;" width="196" x="201.5" y="5"/><text fill="#000000" font-family="sans-serif" font-size="14" font-style="italic" lengthAdjust="spacing" textLength="141" x="229" y="25.5352">&#171;/electoral-register&#187;</text><text fill="#000000" font-family="sans-serif" font-size="14" lengthAdjust="spacing" textLength="182" x="208.5" y="42.0234">ElectoralRegisterDashPage</text><rect fill="#E2E2F0" height="46.9766" rx="2.5" ry="2.5" style="stroke:#181818;stroke-width:0.5;" width="249" x="407.5" y="5"/><text fill="#000000" font-family="sans-serif" font-size="14" font-style="italic" lengthAdjust="spacing" textLength="235" x="414.5" y="25.5352">&#171;/electoral-register/set-deadline&#187;</text><text fill="#000000" font-family="sans-serif" font-size="14" lengthAdjust="spacing" textLength="114" x="475" y="42.0234">SetDeadlinePage</text><rect fill="#E2E2F0" height="46.9766" rx="2.5" ry="2.5" style="stroke:#181818;stroke-width:0.5;" width="134" x="666.5" y="5"/><text fill="#000000" font-family="sans-serif" font-size="14" font-style="italic" lengthAdjust="spacing" textLength="56" x="705.5" y="25.5352">&#171;/error&#187;</text><text fill="#000000" font-family="sans-serif" font-size="14" lengthAdjust="spacing" textLength="120" x="673.5" y="42.0234">GenericErrorPage</text><rect fill="#FFFFE0" height="46.9766" rx="2.5" ry="2.5" style="stroke:#181818;stroke-width:0.5;" width="201" x="810.5" y="5"/><text fill="#000000" font-family="sans-serif" font-size="14" font-style="italic" lengthAdjust="spacing" textLength="187" x="817.5" y="25.5352">&#171;set-deadline.controller.js&#187;</text><text fill="#000000" font-family="sans-serif" font-size="14" lengthAdjust="spacing" textLength="151" x="835.5" y="42.0234">SetDeadlineController</text><rect fill="#FFFFE0" height="46.9766" rx="2.5" ry="2.5" style="stroke:#181818;stroke-width:0.5;" width="170" x="1021.5" y="5"/><text fill="#000000" font-family="sans-serif" font-size="14" font-style="italic" lengthAdjust="spacing" textLength="156" x="1028.5" y="25.5352">&#171;erDeadlineDAO.put()&#187;</text><text fill="#000000" font-family="sans-serif" font-size="14" lengthAdjust="spacing" textLength="105" x="1054" y="42.0234">ErDeadlineDAO</text><rect fill="#E2E2F0" height="30.4883" rx="2.5" ry="2.5" style="stroke:#181818;stroke-width:0.5;" width="207" x="1201.5" y="21.4883"/><text fill="#000000" font-family="sans-serif" font-size="14" lengthAdjust="spacing" textLength="193" x="1208.5" y="42.0234">NonAttendanceDayValidator</text><rect fill="#E6E6FA" height="46.9766" rx="2.5" ry="2.5" style="stroke:#181818;stroke-width:0.5;" width="267" x="1418.5" y="5"/><text fill="#000000" font-family="sans-serif" font-size="14" font-style="italic" lengthAdjust="spacing" textLength="253" x="1425.5" y="25.5352">&#171;electoral-register/set-deadline.njk&#187;</text><text fill="#000000" font-family="sans-serif" font-size="14" lengthAdjust="spacing" textLength="145" x="1479.5" y="42.0234">SetDeadlineTemplate</text><rect fill="#E6E6FA" height="46.9766" rx="2.5" ry="2.5" style="stroke:#181818;stroke-width:0.5;" width="160" x="1695.5" y="5"/><text fill="#000000" font-family="sans-serif" font-size="14" font-style="italic" lengthAdjust="spacing" textLength="146" x="1702.5" y="25.5352">&#171;_errors/generic.njk&#187;</text><text fill="#000000" font-family="sans-serif" font-size="14" lengthAdjust="spacing" textLength="99" x="1726" y="42.0234">ErrorTemplate</text><rect fill="#E2E2F0" height="30.4883" rx="2.5" ry="2.5" style="stroke:#181818;stroke-width:0.5;" width="141" x="1865.5" y="21.4883"/><text fill="#000000" font-family="sans-serif" font-size="14" lengthAdjust="spacing" textLength="127" x="1872.5" y="42.0234">BackendController</text><polygon fill="#181818" points="287.5,80.2871,297.5,84.2871,287.5,88.2871" style="stroke:#181818;stroke-width:1.0;"/><line style="stroke:#181818;stroke-width:1.0;" x1="45.5" x2="293.5" y1="84.2871" y2="84.2871"/><text fill="#000000" font-family="sans-serif" font-size="13" lengthAdjust="spacing" textLength="150" x="97.5" y="79.5449">Click "Set deadline" link</text><polygon fill="#181818" points="899,109.5977,909,113.5977,899,117.5977" style="stroke:#181818;stroke-width:1.0;"/><line style="stroke:#181818;stroke-width:1.0;" x1="299.5" x2="905" y1="113.5977" y2="113.5977"/><text fill="#000000" font-family="sans-serif" font-size="13" lengthAdjust="spacing" textLength="121" x="544.75" y="108.8555">call page controller</text><polygon fill="#181818" points="1540,138.9082,1550,142.9082,1540,146.9082" style="stroke:#181818;stroke-width:1.0;"/><line style="stroke:#181818;stroke-width:1.0;" x1="911" x2="1546" y1="142.9082" y2="142.9082"/><text fill="#000000" font-family="sans-serif" font-size="13" lengthAdjust="spacing" textLength="169" x="1147" y="138.166">request and build template</text><polygon fill="#181818" points="922,168.2188,912,172.2188,922,176.2188" style="stroke:#181818;stroke-width:1.0;"/><line style="stroke:#181818;stroke-width:1.0;" x1="916" x2="1551" y1="172.2188" y2="172.2188"/><text fill="#000000" font-family="sans-serif" font-size="13" lengthAdjust="spacing" textLength="78" x="1192.5" y="167.4766">return HTML</text><polygon fill="#181818" points="543,197.5293,533,201.5293,543,205.5293" style="stroke:#181818;stroke-width:1.0;"/><line style="stroke:#181818;stroke-width:1.0;" x1="537" x2="910" y1="201.5293" y2="201.5293"/><text fill="#000000" font-family="sans-serif" font-size="13" lengthAdjust="spacing" textLength="78" x="682.5" y="196.7871">return HTML</text><polygon fill="#181818" points="56.5,226.8398,46.5,230.8398,56.5,234.8398" style="stroke:#181818;stroke-width:1.0;"/><line style="stroke:#181818;stroke-width:1.0;" x1="50.5" x2="531" y1="230.8398" y2="230.8398"/><text fill="#000000" font-family="sans-serif" font-size="13" lengthAdjust="spacing" textLength="80" x="248.75" y="226.0977">render HTML</text><polygon fill="#181818" points="520,256.1504,530,260.1504,520,264.1504" style="stroke:#181818;stroke-width:1.0;"/><line style="stroke:#181818;stroke-width:1.0;" x1="45.5" x2="526" y1="260.1504" y2="260.1504"/><text fill="#000000" font-family="sans-serif" font-size="13" lengthAdjust="spacing" textLength="276" x="150.75" y="255.4082">Select a date and click "Set deadline" button</text><polygon fill="#181818" points="1293,285.4609,1303,289.4609,1293,293.4609" style="stroke:#181818;stroke-width:1.0;"/><line style="stroke:#181818;stroke-width:1.0;" x1="911" x2="1299" y1="289.4609" y2="289.4609"/><text fill="#000000" font-family="sans-serif" font-size="13" lengthAdjust="spacing" textLength="95" x="1060.5" y="284.7188">validate details</text><path d="M10,304.4609 L72,304.4609 L72,311.7715 L62,321.7715 L10,321.7715 L10,304.4609 " fill="#EEEEEE" style="stroke:#000000;stroke-width:1.5;"/><rect fill="none" height="163.8633" style="stroke:#000000;stroke-width:1.5;" width="1685.5" x="10" y="304.4609"/><text fill="#000000" font-family="sans-serif" font-size="13" font-weight="bold" lengthAdjust="spacing" textLength="17" x="25" y="318.0293">alt</text><text fill="#000000" font-family="sans-serif" font-size="11" font-weight="bold" lengthAdjust="spacing" textLength="80" x="87" y="317.0957">[Invalid input]</text><polygon fill="#181818" points="922,339.082,912,343.082,922,347.082" style="stroke:#181818;stroke-width:1.0;"/><line style="stroke:#181818;stroke-width:1.0;" x1="916" x2="1304" y1="343.082" y2="343.082"/><text fill="#000000" font-family="sans-serif" font-size="13" lengthAdjust="spacing" textLength="79" x="1068.5" y="338.3398">Invalid input</text><polygon fill="#181818" points="1540,368.3926,1550,372.3926,1540,376.3926" style="stroke:#181818;stroke-width:1.0;"/><line style="stroke:#181818;stroke-width:1.0;" x1="911" x2="1546" y1="372.3926" y2="372.3926"/><text fill="#000000" font-family="sans-serif" font-size="13" lengthAdjust="spacing" textLength="169" x="1147" y="367.6504">request and build template</text><polygon fill="#181818" points="922,397.7031,912,401.7031,922,405.7031" style="stroke:#181818;stroke-width:1.0;"/><line style="stroke:#181818;stroke-width:1.0;" x1="916" x2="1551" y1="401.7031" y2="401.7031"/><text fill="#000000" font-family="sans-serif" font-size="13" lengthAdjust="spacing" textLength="78" x="1192.5" y="396.9609">return HTML</text><polygon fill="#181818" points="543,427.0137,533,431.0137,543,435.0137" style="stroke:#181818;stroke-width:1.0;"/><line style="stroke:#181818;stroke-width:1.0;" x1="537" x2="910" y1="431.0137" y2="431.0137"/><text fill="#000000" font-family="sans-serif" font-size="13" lengthAdjust="spacing" textLength="112" x="665.5" y="426.2715">return error HTML</text><polygon fill="#181818" points="56.5,456.3242,46.5,460.3242,56.5,464.3242" style="stroke:#181818;stroke-width:1.0;"/><line style="stroke:#181818;stroke-width:1.0;" x1="50.5" x2="531" y1="460.3242" y2="460.3242"/><text fill="#000000" font-family="sans-serif" font-size="13" lengthAdjust="spacing" textLength="133" x="222.25" y="455.582">render error message</text><polygon fill="#181818" points="922,492.6348,912,496.6348,922,500.6348" style="stroke:#181818;stroke-width:1.0;"/><line style="stroke:#181818;stroke-width:1.0;" x1="916" x2="1304" y1="496.6348" y2="496.6348"/><text fill="#000000" font-family="sans-serif" font-size="13" lengthAdjust="spacing" textLength="127" x="1044.5" y="491.8926">valid details entered</text><polygon fill="#181818" points="1094.5,521.9453,1104.5,525.9453,1094.5,529.9453" style="stroke:#181818;stroke-width:1.0;"/><line style="stroke:#181818;stroke-width:1.0;" x1="911" x2="1100.5" y1="525.9453" y2="525.9453"/><text fill="#000000" font-family="sans-serif" font-size="13" lengthAdjust="spacing" textLength="126" x="945.75" y="521.2031">build request object</text><polygon fill="#181818" points="1924,551.2559,1934,555.2559,1924,559.2559" style="stroke:#181818;stroke-width:1.0;"/><line style="stroke:#181818;stroke-width:1.0;" x1="1106.5" x2="1930" y1="555.2559" y2="555.2559"/><text fill="#000000" font-family="sans-serif" font-size="13" lengthAdjust="spacing" textLength="138" x="1452.25" y="550.5137">send backend request</text><path d="M10,570.2559 L72,570.2559 L72,577.5664 L62,587.5664 L10,587.5664 L10,570.2559 " fill="#EEEEEE" style="stroke:#000000;stroke-width:1.5;"/><rect fill="none" height="193.1738" style="stroke:#000000;stroke-width:1.5;" width="2006.5" x="10" y="570.2559"/><text fill="#000000" font-family="sans-serif" font-size="13" font-weight="bold" lengthAdjust="spacing" textLength="17" x="25" y="583.8242">alt</text><text fill="#000000" font-family="sans-serif" font-size="11" font-weight="bold" lengthAdjust="spacing" textLength="130" x="87" y="582.8906">[Error setting deadline]</text><polygon fill="#181818" points="1117.5,604.877,1107.5,608.877,1117.5,612.877" style="stroke:#181818;stroke-width:1.0;"/><line style="stroke:#181818;stroke-width:1.0;stroke-dasharray:2.0,2.0;" x1="1111.5" x2="1935" y1="608.877" y2="608.877"/><text fill="#000000" font-family="sans-serif" font-size="13" lengthAdjust="spacing" textLength="91" x="1475.75" y="604.1348">Error response</text><polygon fill="#181818" points="922,634.1875,912,638.1875,922,642.1875" style="stroke:#181818;stroke-width:1.0;"/><line style="stroke:#181818;stroke-width:1.0;stroke-dasharray:2.0,2.0;" x1="916" x2="1105.5" y1="638.1875" y2="638.1875"/><text fill="#000000" font-family="sans-serif" font-size="13" lengthAdjust="spacing" textLength="127" x="945.25" y="633.4453">reject requestObject</text><polygon fill="#181818" points="1763.5,663.498,1773.5,667.498,1763.5,671.498" style="stroke:#181818;stroke-width:1.0;"/><line style="stroke:#181818;stroke-width:1.0;" x1="911" x2="1769.5" y1="667.498" y2="667.498"/><text fill="#000000" font-family="sans-serif" font-size="13" lengthAdjust="spacing" textLength="169" x="1258.75" y="662.7559">request and build template</text><polygon fill="#181818" points="922,692.8086,912,696.8086,922,700.8086" style="stroke:#181818;stroke-width:1.0;"/><line style="stroke:#181818;stroke-width:1.0;" x1="916" x2="1774.5" y1="696.8086" y2="696.8086"/><text fill="#000000" font-family="sans-serif" font-size="13" lengthAdjust="spacing" textLength="78" x="1304.25" y="692.0664">return HTML</text><polygon fill="#181818" points="744.5,722.1191,734.5,726.1191,744.5,730.1191" style="stroke:#181818;stroke-width:1.0;"/><line style="stroke:#181818;stroke-width:1.0;" x1="738.5" x2="910" y1="726.1191" y2="726.1191"/><text fill="#000000" font-family="sans-serif" font-size="13" lengthAdjust="spacing" textLength="78" x="783.25" y="721.377">return HTML</text><polygon fill="#181818" points="56.5,751.4297,46.5,755.4297,56.5,759.4297" style="stroke:#181818;stroke-width:1.0;"/><line style="stroke:#181818;stroke-width:1.0;" x1="50.5" x2="732.5" y1="755.4297" y2="755.4297"/><text fill="#000000" font-family="sans-serif" font-size="13" lengthAdjust="spacing" textLength="108" x="335.5" y="750.6875">render error page</text><polygon fill="#181818" points="1117.5,787.7402,1107.5,791.7402,1117.5,795.7402" style="stroke:#181818;stroke-width:1.0;"/><line style="stroke:#181818;stroke-width:1.0;" x1="1111.5" x2="1935" y1="791.7402" y2="791.7402"/><text fill="#000000" font-family="sans-serif" font-size="13" lengthAdjust="spacing" textLength="77" x="1482.75" y="786.998">ok response</text><polygon fill="#181818" points="922,817.0508,912,821.0508,922,825.0508" style="stroke:#181818;stroke-width:1.0;"/><line style="stroke:#181818;stroke-width:1.0;" x1="916" x2="1105.5" y1="821.0508" y2="821.0508"/><text fill="#000000" font-family="sans-serif" font-size="13" lengthAdjust="spacing" textLength="96" x="960.75" y="816.3086">resolve request</text><polygon fill="#181818" points="310.5,846.3613,300.5,850.3613,310.5,854.3613" style="stroke:#181818;stroke-width:1.0;"/><line style="stroke:#181818;stroke-width:1.0;" x1="304.5" x2="910" y1="850.3613" y2="850.3613"/><text fill="#000000" font-family="sans-serif" font-size="13" lengthAdjust="spacing" textLength="169" x="520.75" y="845.6191">redirect to dashboard page</text><polygon fill="#181818" points="56.5,875.6719,46.5,879.6719,56.5,883.6719" style="stroke:#181818;stroke-width:1.0;"/><line style="stroke:#181818;stroke-width:1.0;" x1="50.5" x2="298.5" y1="879.6719" y2="879.6719"/><text fill="#000000" font-family="sans-serif" font-size="13" lengthAdjust="spacing" textLength="230" x="57.5" y="874.9297">view updated deadline on dashboard</text><!--SRC=[ZLHTZzem47pFhzZIa-vEWl2EJaWXf5VQ7E52xbuhuwp0Xx6fut3YttSTFaC9xGkIixlZcTan2v4Zb4eAjSJS-o8KboLzyVtk71KQmJipgVcoyDUIALkkfESLIw7MpB0LJErM8XIMsbm9palukqJ5yGMBWiqna6AkLgWiSFf1utdKPWKNQqA5W5jDd-xlxo5EmY26D7dBHkFdMjDtlS89GS7JKxVVhvKYYGw1oHJdeY3u8IiMXruy53jcNxsOdg8T8il90coUwHPeE_c-xGBWUUTKP8msHmHteBvAL9YCipI9uoY5O3o4D7fzYwOP98CVKPXDcyY4MbcZfKH3WEVN-_nOyJ-AVX- -ahiBkqKfzMVT67C06mO9eU3vsL-Nzk7nShmY_6qKPr4whTY-1_5e66H9MYSwrYgm5bNEQCj3jdrdKkICJ0DMmF6mWykYbqaSP56Zr0nNb2_hdFk7zRxwM5QKsORkfY3LvPBfPrY_gYqKXoZ_DLkH6mJXpuXqdfPKmnmmlgJkqp8yhuehTFetSjU3K0g-X1Q9X0Ft5hXdvZLF4UJr_VU0CobXxPhu6PCxKmavICwqWtcuYj6-vdVxCloFP-ektqMFlZZgm21t_ZAL0x-cSbPQgnMns-nYW2FbejP0wvYL_sFOXjP8LS0W76oBAD_j5nnCHY7vr7HJxJMqwsaXsEeC53OhrFmaX_1l_Bzq6ZTcC1V6sMKr-LKiPfgPl5hXtcAQlHMWZS1FADVEl_p81hGwWNb_0000]--></g></svg>