<?xml version="1.0" encoding="us-ascii" standalone="no"?><svg xmlns="http://www.w3.org/2000/svg" xmlns:xlink="http://www.w3.org/1999/xlink" contentStyleType="text/css" height="1023px" preserveAspectRatio="none" style="width:2616px;height:1023px;background:#FFFFFF;" version="1.1" viewBox="0 0 2616 1023" width="2616px" zoomAndPan="magnify"><defs/><g><rect fill="none" height="105.2422" style="stroke:#000000;stroke-width:1.5;" width="1589.5" x="10" y="128.5977"/><rect fill="none" height="193.1738" style="stroke:#000000;stroke-width:1.5;" width="2600.5" x="10" y="306.4609"/><rect fill="none" height="193.1738" style="stroke:#000000;stroke-width:1.5;" width="2600.5" x="10" y="630.877"/><line style="stroke:#181818;stroke-width:0.5;stroke-dasharray:5.0,5.0;" x1="45" x2="45" y1="52.9766" y2="1016.9141"/><line style="stroke:#181818;stroke-width:0.5;stroke-dasharray:5.0,5.0;" x1="376.5" x2="376.5" y1="52.9766" y2="1016.9141"/><line style="stroke:#181818;stroke-width:0.5;stroke-dasharray:5.0,5.0;" x1="645.5" x2="645.5" y1="52.9766" y2="1016.9141"/><line style="stroke:#181818;stroke-width:0.5;stroke-dasharray:5.0,5.0;" x1="884.5" x2="884.5" y1="52.9766" y2="1016.9141"/><line style="stroke:#181818;stroke-width:0.5;stroke-dasharray:5.0,5.0;" x1="1078.5" x2="1078.5" y1="52.9766" y2="1016.9141"/><line style="stroke:#181818;stroke-width:0.5;stroke-dasharray:5.0,5.0;" x1="1481.5" x2="1481.5" y1="52.9766" y2="1016.9141"/><line style="stroke:#181818;stroke-width:0.5;stroke-dasharray:5.0,5.0;" x1="1708.5" x2="1708.5" y1="52.9766" y2="1016.9141"/><line style="stroke:#181818;stroke-width:0.5;stroke-dasharray:5.0,5.0;" x1="1907.5" x2="1907.5" y1="52.9766" y2="1016.9141"/><line style="stroke:#181818;stroke-width:0.5;stroke-dasharray:5.0,5.0;" x1="2138.5" x2="2138.5" y1="52.9766" y2="1016.9141"/><line style="stroke:#181818;stroke-width:0.5;stroke-dasharray:5.0,5.0;" x1="2369.5" x2="2369.5" y1="52.9766" y2="1016.9141"/><line style="stroke:#181818;stroke-width:0.5;stroke-dasharray:5.0,5.0;" x1="2529.5" x2="2529.5" y1="52.9766" y2="1016.9141"/><rect fill="#E2E2F0" height="30.4883" rx="2.5" ry="2.5" style="stroke:#181818;stroke-width:0.5;" width="51" x="20" y="21.4883"/><text fill="#000000" font-family="sans-serif" font-size="14" lengthAdjust="spacing" textLength="37" x="27" y="42.0234">Actor</text><rect fill="#E2E2F0" height="46.9766" rx="2.5" ry="2.5" style="stroke:#181818;stroke-width:0.5;" width="196" x="278.5" y="5"/><text fill="#000000" font-family="sans-serif" font-size="14" font-style="italic" lengthAdjust="spacing" textLength="141" x="306" y="25.5352">&#171;/electoral-register&#187;</text><text fill="#000000" font-family="sans-serif" font-size="14" lengthAdjust="spacing" textLength="182" x="285.5" y="42.0234">ElectoralRegisterDashPage</text><rect fill="#E2E2F0" height="46.9766" rx="2.5" ry="2.5" style="stroke:#181818;stroke-width:0.5;" width="323" x="484.5" y="5"/><text fill="#000000" font-family="sans-serif" font-size="14" font-style="italic" lengthAdjust="spacing" textLength="309" x="491.5" y="25.5352">&#171;/electoral-register/local-authority/:laCode&#187;</text><text fill="#000000" font-family="sans-serif" font-size="14" lengthAdjust="spacing" textLength="159" x="566.5" y="42.0234">LocalAuthorityInfoPage</text><rect fill="#E2E2F0" height="46.9766" rx="2.5" ry="2.5" style="stroke:#181818;stroke-width:0.5;" width="134" x="817.5" y="5"/><text fill="#000000" font-family="sans-serif" font-size="14" font-style="italic" lengthAdjust="spacing" textLength="56" x="856.5" y="25.5352">&#171;/error&#187;</text><text fill="#000000" font-family="sans-serif" font-size="14" lengthAdjust="spacing" textLength="120" x="824.5" y="42.0234">GenericErrorPage</text><rect fill="#FFFFE0" height="46.9766" rx="2.5" ry="2.5" style="stroke:#181818;stroke-width:0.5;" width="234" x="961.5" y="5"/><text fill="#000000" font-family="sans-serif" font-size="14" font-style="italic" lengthAdjust="spacing" textLength="220" x="968.5" y="25.5352">&#171;electoral-register.controller.js&#187;</text><text fill="#000000" font-family="sans-serif" font-size="14" lengthAdjust="spacing" textLength="185" x="986" y="42.0234">ElectoralRegisterController</text><rect fill="#FFFFE0" height="46.9766" rx="2.5" ry="2.5" style="stroke:#181818;stroke-width:0.5;" width="216" x="1373.5" y="5"/><text fill="#000000" font-family="sans-serif" font-size="14" font-style="italic" lengthAdjust="spacing" textLength="202" x="1380.5" y="25.5352">&#171;local-authority.controller.js&#187;</text><text fill="#000000" font-family="sans-serif" font-size="14" lengthAdjust="spacing" textLength="169" x="1397" y="42.0234">LocalAuthorityController</text><rect fill="#FFFFE0" height="46.9766" rx="2.5" ry="2.5" style="stroke:#181818;stroke-width:0.5;" width="218" x="1599.5" y="5"/><text fill="#000000" font-family="sans-serif" font-size="14" font-style="italic" lengthAdjust="spacing" textLength="204" x="1606.5" y="25.5352">&#171;localAuthorityInfoDAO.get()&#187;</text><text fill="#000000" font-family="sans-serif" font-size="14" lengthAdjust="spacing" textLength="157" x="1630" y="42.0234">LocalAuthorityInfoDAO</text><rect fill="#FFFFE0" height="46.9766" rx="2.5" ry="2.5" style="stroke:#181818;stroke-width:0.5;" width="160" x="1827.5" y="5"/><text fill="#000000" font-family="sans-serif" font-size="14" font-style="italic" lengthAdjust="spacing" textLength="146" x="1834.5" y="25.5352">&#171;erUploadStats.get()&#187;</text><text fill="#000000" font-family="sans-serif" font-size="14" lengthAdjust="spacing" textLength="113" x="1851" y="42.0234">UploadStatsDAO</text><rect fill="#E6E6FA" height="46.9766" rx="2.5" ry="2.5" style="stroke:#181818;stroke-width:0.5;" width="282" x="1997.5" y="5"/><text fill="#000000" font-family="sans-serif" font-size="14" font-style="italic" lengthAdjust="spacing" textLength="268" x="2004.5" y="25.5352">&#171;electoral-register/local-authority.njk&#187;</text><text fill="#000000" font-family="sans-serif" font-size="14" lengthAdjust="spacing" textLength="190" x="2043.5" y="42.0234">LocalAuthorityInfoTemplate</text><rect fill="#E6E6FA" height="46.9766" rx="2.5" ry="2.5" style="stroke:#181818;stroke-width:0.5;" width="160" x="2289.5" y="5"/><text fill="#000000" font-family="sans-serif" font-size="14" font-style="italic" lengthAdjust="spacing" textLength="146" x="2296.5" y="25.5352">&#171;_errors/generic.njk&#187;</text><text fill="#000000" font-family="sans-serif" font-size="14" lengthAdjust="spacing" textLength="99" x="2320" y="42.0234">ErrorTemplate</text><rect fill="#E2E2F0" height="30.4883" rx="2.5" ry="2.5" style="stroke:#181818;stroke-width:0.5;" width="141" x="2459.5" y="21.4883"/><text fill="#000000" font-family="sans-serif" font-size="14" lengthAdjust="spacing" textLength="127" x="2466.5" y="42.0234">BackendController</text><polygon fill="#181818" points="364.5,80.2871,374.5,84.2871,364.5,88.2871" style="stroke:#181818;stroke-width:1.0;"/><line style="stroke:#181818;stroke-width:1.0;" x1="45.5" x2="370.5" y1="84.2871" y2="84.2871"/><text fill="#000000" font-family="sans-serif" font-size="13" lengthAdjust="spacing" textLength="289" x="66.5" y="79.5449">Select an LA from the list to view more details</text><polygon fill="#181818" points="1469.5,109.5977,1479.5,113.5977,1469.5,117.5977" style="stroke:#181818;stroke-width:1.0;"/><line style="stroke:#181818;stroke-width:1.0;" x1="376.5" x2="1475.5" y1="113.5977" y2="113.5977"/><text fill="#000000" font-family="sans-serif" font-size="13" lengthAdjust="spacing" textLength="379" x="739.5" y="108.8555">call local authority controller with LA code as request param</text><path d="M10,128.5977 L72,128.5977 L72,135.9082 L62,145.9082 L10,145.9082 L10,128.5977 " fill="#EEEEEE" style="stroke:#000000;stroke-width:1.5;"/><rect fill="none" height="105.2422" style="stroke:#000000;stroke-width:1.5;" width="1589.5" x="10" y="128.5977"/><text fill="#000000" font-family="sans-serif" font-size="13" font-weight="bold" lengthAdjust="spacing" textLength="17" x="25" y="142.166">alt</text><text fill="#000000" font-family="sans-serif" font-size="11" font-weight="bold" lengthAdjust="spacing" textLength="131" x="87" y="141.2324">[Search for inactive LA]</text><polygon fill="#181818" points="364.5,163.2188,374.5,167.2188,364.5,171.2188" style="stroke:#181818;stroke-width:1.0;"/><line style="stroke:#181818;stroke-width:1.0;" x1="45.5" x2="370.5" y1="167.2188" y2="167.2188"/><text fill="#000000" font-family="sans-serif" font-size="13" lengthAdjust="spacing" textLength="307" x="57.5" y="162.4766">Search for an inactive LA by name and click filter</text><polygon fill="#181818" points="1066.5,192.5293,1076.5,196.5293,1066.5,200.5293" style="stroke:#181818;stroke-width:1.0;"/><line style="stroke:#181818;stroke-width:1.0;" x1="376.5" x2="1072.5" y1="196.5293" y2="196.5293"/><text fill="#000000" font-family="sans-serif" font-size="13" lengthAdjust="spacing" textLength="313" x="571" y="191.7871">call page controller - with la code as query param</text><polygon fill="#181818" points="1469.5,221.8398,1479.5,225.8398,1469.5,229.8398" style="stroke:#181818;stroke-width:1.0;"/><line style="stroke:#181818;stroke-width:1.0;" x1="1078.5" x2="1475.5" y1="225.8398" y2="225.8398"/><text fill="#000000" font-family="sans-serif" font-size="13" lengthAdjust="spacing" textLength="379" x="1090.5" y="221.0977">call local authority controller with LA code as request param</text><polygon fill="#181818" points="1696.5,258.1504,1706.5,262.1504,1696.5,266.1504" style="stroke:#181818;stroke-width:1.0;"/><line style="stroke:#181818;stroke-width:1.0;" x1="1481.5" x2="1702.5" y1="262.1504" y2="262.1504"/><text fill="#000000" font-family="sans-serif" font-size="13" lengthAdjust="spacing" textLength="126" x="1532" y="257.4082">build request object</text><polygon fill="#181818" points="2518,287.4609,2528,291.4609,2518,295.4609" style="stroke:#181818;stroke-width:1.0;"/><line style="stroke:#181818;stroke-width:1.0;" x1="1708.5" x2="2524" y1="291.4609" y2="291.4609"/><text fill="#000000" font-family="sans-serif" font-size="13" lengthAdjust="spacing" textLength="138" x="2050.25" y="286.7188">send backend request</text><path d="M10,306.4609 L72,306.4609 L72,313.7715 L62,323.7715 L10,323.7715 L10,306.4609 " fill="#EEEEEE" style="stroke:#000000;stroke-width:1.5;"/><rect fill="none" height="193.1738" style="stroke:#000000;stroke-width:1.5;" width="2600.5" x="10" y="306.4609"/><text fill="#000000" font-family="sans-serif" font-size="13" font-weight="bold" lengthAdjust="spacing" textLength="17" x="25" y="320.0293">alt</text><text fill="#000000" font-family="sans-serif" font-size="11" font-weight="bold" lengthAdjust="spacing" textLength="243" x="87" y="319.0957">[Error fetching local authority information]</text><polygon fill="#181818" points="1719.5,341.082,1709.5,345.082,1719.5,349.082" style="stroke:#181818;stroke-width:1.0;"/><line style="stroke:#181818;stroke-width:1.0;stroke-dasharray:2.0,2.0;" x1="1713.5" x2="2529" y1="345.082" y2="345.082"/><text fill="#000000" font-family="sans-serif" font-size="13" lengthAdjust="spacing" textLength="91" x="2073.75" y="340.3398">Error response</text><polygon fill="#181818" points="1492.5,370.3926,1482.5,374.3926,1492.5,378.3926" style="stroke:#181818;stroke-width:1.0;"/><line style="stroke:#181818;stroke-width:1.0;stroke-dasharray:2.0,2.0;" x1="1486.5" x2="1707.5" y1="374.3926" y2="374.3926"/><text fill="#000000" font-family="sans-serif" font-size="13" lengthAdjust="spacing" textLength="127" x="1531.5" y="369.6504">reject requestObject</text><polygon fill="#181818" points="2357.5,399.7031,2367.5,403.7031,2357.5,407.7031" style="stroke:#181818;stroke-width:1.0;"/><line style="stroke:#181818;stroke-width:1.0;" x1="1481.5" x2="2363.5" y1="403.7031" y2="403.7031"/><text fill="#000000" font-family="sans-serif" font-size="13" lengthAdjust="spacing" textLength="169" x="1841" y="398.9609">request and build template</text><polygon fill="#181818" points="1492.5,429.0137,1482.5,433.0137,1492.5,437.0137" style="stroke:#181818;stroke-width:1.0;"/><line style="stroke:#181818;stroke-width:1.0;" x1="1486.5" x2="2368.5" y1="433.0137" y2="433.0137"/><text fill="#000000" font-family="sans-serif" font-size="13" lengthAdjust="spacing" textLength="78" x="1886.5" y="428.2715">return HTML</text><polygon fill="#181818" points="895.5,458.3242,885.5,462.3242,895.5,466.3242" style="stroke:#181818;stroke-width:1.0;"/><line style="stroke:#181818;stroke-width:1.0;" x1="889.5" x2="1480.5" y1="462.3242" y2="462.3242"/><text fill="#000000" font-family="sans-serif" font-size="13" lengthAdjust="spacing" textLength="78" x="1144" y="457.582">return HTML</text><polygon fill="#181818" points="56.5,487.6348,46.5,491.6348,56.5,495.6348" style="stroke:#181818;stroke-width:1.0;"/><line style="stroke:#181818;stroke-width:1.0;" x1="50.5" x2="883.5" y1="491.6348" y2="491.6348"/><text fill="#000000" font-family="sans-serif" font-size="13" lengthAdjust="spacing" textLength="108" x="411" y="486.8926">render error page</text><polygon fill="#181818" points="1719.5,523.9453,1709.5,527.9453,1719.5,531.9453" style="stroke:#181818;stroke-width:1.0;"/><line style="stroke:#181818;stroke-width:1.0;" x1="1713.5" x2="2529" y1="527.9453" y2="527.9453"/><text fill="#000000" font-family="sans-serif" font-size="13" lengthAdjust="spacing" textLength="77" x="2080.75" y="523.2031">ok response</text><polygon fill="#181818" points="1492.5,553.2559,1482.5,557.2559,1492.5,561.2559" style="stroke:#181818;stroke-width:1.0;"/><line style="stroke:#181818;stroke-width:1.0;" x1="1486.5" x2="1707.5" y1="557.2559" y2="557.2559"/><text fill="#000000" font-family="sans-serif" font-size="13" lengthAdjust="spacing" textLength="96" x="1547" y="552.5137">resolve request</text><polygon fill="#181818" points="1895.5,582.5664,1905.5,586.5664,1895.5,590.5664" style="stroke:#181818;stroke-width:1.0;"/><line style="stroke:#181818;stroke-width:1.0;" x1="1481.5" x2="1901.5" y1="586.5664" y2="586.5664"/><text fill="#000000" font-family="sans-serif" font-size="13" lengthAdjust="spacing" textLength="126" x="1631.5" y="581.8242">build request object</text><polygon fill="#181818" points="2518,611.877,2528,615.877,2518,619.877" style="stroke:#181818;stroke-width:1.0;"/><line style="stroke:#181818;stroke-width:1.0;" x1="1907.5" x2="2524" y1="615.877" y2="615.877"/><text fill="#000000" font-family="sans-serif" font-size="13" lengthAdjust="spacing" textLength="138" x="2149.75" y="611.1348">send backend request</text><path d="M10,630.877 L72,630.877 L72,638.1875 L62,648.1875 L10,648.1875 L10,630.877 " fill="#EEEEEE" style="stroke:#000000;stroke-width:1.5;"/><rect fill="none" height="193.1738" style="stroke:#000000;stroke-width:1.5;" width="2600.5" x="10" y="630.877"/><text fill="#000000" font-family="sans-serif" font-size="13" font-weight="bold" lengthAdjust="spacing" textLength="17" x="25" y="644.4453">alt</text><text fill="#000000" font-family="sans-serif" font-size="11" font-weight="bold" lengthAdjust="spacing" textLength="294" x="87" y="643.5117">[Error fetching local authority deadline information]</text><polygon fill="#181818" points="1918.5,665.498,1908.5,669.498,1918.5,673.498" style="stroke:#181818;stroke-width:1.0;"/><line style="stroke:#181818;stroke-width:1.0;stroke-dasharray:2.0,2.0;" x1="1912.5" x2="2529" y1="669.498" y2="669.498"/><text fill="#000000" font-family="sans-serif" font-size="13" lengthAdjust="spacing" textLength="91" x="2173.25" y="664.7559">Error response</text><polygon fill="#181818" points="1492.5,694.8086,1482.5,698.8086,1492.5,702.8086" style="stroke:#181818;stroke-width:1.0;"/><line style="stroke:#181818;stroke-width:1.0;stroke-dasharray:2.0,2.0;" x1="1486.5" x2="1906.5" y1="698.8086" y2="698.8086"/><text fill="#000000" font-family="sans-serif" font-size="13" lengthAdjust="spacing" textLength="127" x="1631" y="694.0664">reject requestObject</text><polygon fill="#181818" points="2357.5,724.1191,2367.5,728.1191,2357.5,732.1191" style="stroke:#181818;stroke-width:1.0;"/><line style="stroke:#181818;stroke-width:1.0;" x1="1481.5" x2="2363.5" y1="728.1191" y2="728.1191"/><text fill="#000000" font-family="sans-serif" font-size="13" lengthAdjust="spacing" textLength="169" x="1841" y="723.377">request and build template</text><polygon fill="#181818" points="1492.5,753.4297,1482.5,757.4297,1492.5,761.4297" style="stroke:#181818;stroke-width:1.0;"/><line style="stroke:#181818;stroke-width:1.0;" x1="1486.5" x2="2368.5" y1="757.4297" y2="757.4297"/><text fill="#000000" font-family="sans-serif" font-size="13" lengthAdjust="spacing" textLength="78" x="1886.5" y="752.6875">return HTML</text><polygon fill="#181818" points="895.5,782.7402,885.5,786.7402,895.5,790.7402" style="stroke:#181818;stroke-width:1.0;"/><line style="stroke:#181818;stroke-width:1.0;" x1="889.5" x2="1480.5" y1="786.7402" y2="786.7402"/><text fill="#000000" font-family="sans-serif" font-size="13" lengthAdjust="spacing" textLength="78" x="1144" y="781.998">return HTML</text><polygon fill="#181818" points="56.5,812.0508,46.5,816.0508,56.5,820.0508" style="stroke:#181818;stroke-width:1.0;"/><line style="stroke:#181818;stroke-width:1.0;" x1="50.5" x2="883.5" y1="816.0508" y2="816.0508"/><text fill="#000000" font-family="sans-serif" font-size="13" lengthAdjust="spacing" textLength="108" x="411" y="811.3086">render error page</text><polygon fill="#181818" points="1918.5,848.3613,1908.5,852.3613,1918.5,856.3613" style="stroke:#181818;stroke-width:1.0;"/><line style="stroke:#181818;stroke-width:1.0;" x1="1912.5" x2="2529" y1="852.3613" y2="852.3613"/><text fill="#000000" font-family="sans-serif" font-size="13" lengthAdjust="spacing" textLength="77" x="2180.25" y="847.6191">ok response</text><polygon fill="#181818" points="1492.5,877.6719,1482.5,881.6719,1492.5,885.6719" style="stroke:#181818;stroke-width:1.0;"/><line style="stroke:#181818;stroke-width:1.0;" x1="1486.5" x2="1906.5" y1="881.6719" y2="881.6719"/><text fill="#000000" font-family="sans-serif" font-size="13" lengthAdjust="spacing" textLength="96" x="1646.5" y="876.9297">resolve request</text><polygon fill="#181818" points="2126.5,906.9824,2136.5,910.9824,2126.5,914.9824" style="stroke:#181818;stroke-width:1.0;"/><line style="stroke:#181818;stroke-width:1.0;" x1="1481.5" x2="2132.5" y1="910.9824" y2="910.9824"/><text fill="#000000" font-family="sans-serif" font-size="13" lengthAdjust="spacing" textLength="169" x="1725.5" y="906.2402">request and build template</text><polygon fill="#181818" points="1492.5,936.293,1482.5,940.293,1492.5,944.293" style="stroke:#181818;stroke-width:1.0;"/><line style="stroke:#181818;stroke-width:1.0;" x1="1486.5" x2="2137.5" y1="940.293" y2="940.293"/><text fill="#000000" font-family="sans-serif" font-size="13" lengthAdjust="spacing" textLength="78" x="1771" y="935.5508">return HTML</text><polygon fill="#181818" points="657,965.6035,647,969.6035,657,973.6035" style="stroke:#181818;stroke-width:1.0;"/><line style="stroke:#181818;stroke-width:1.0;" x1="651" x2="1480.5" y1="969.6035" y2="969.6035"/><text fill="#000000" font-family="sans-serif" font-size="13" lengthAdjust="spacing" textLength="78" x="1024.75" y="964.8613">return HTML</text><polygon fill="#181818" points="56.5,994.9141,46.5,998.9141,56.5,1002.9141" style="stroke:#181818;stroke-width:1.0;"/><line style="stroke:#181818;stroke-width:1.0;" x1="50.5" x2="645" y1="998.9141" y2="998.9141"/><text fill="#000000" font-family="sans-serif" font-size="13" lengthAdjust="spacing" textLength="80" x="305.75" y="994.1719">render HTML</text><!--SRC=[jLNRRjim37tNLt1TWRH0axmNHG3NCOfkRf8bplEWoeojMfOoMKcHln_jN9sBjmpOYm6Bv24FUIYbCaPOQ2LrXZ7x8hLG2pf9KAELelskZCYApbnnxHQvOgp8f9vpotEOk9L2A1ovbIOuDE6l1Mg1RrWKF45FoKJdg1q8-g1bZDoS579EgE09P-YerMf1EFIz4CR3QVGwUAav1GfBDwx6cCY2CFgyI4U43KzFNTmQstPZxVLgqQ4HN7aBbnehtUfLpypbqAugdTjywzrzLDmtCHv1lgmR55Xhx0wi_26_Yei_74JZOHW6O_06VHW7FwR198BXyxV0ZoRDv7oZdJLAeINOqn8xOcVlV1Iz7dob1gTkXKgPpmRYDTWZcl-AMJQpxmstWCVddGJTtNqJt7Ik38ydZhjYZOFsuEXyVDNWA7WRXLuKJFvGNOGvoTVXsLOUJxkZFx8g6r-YZacgjJcLyps0-raDlEXkbkKajYhpsVE_1oI0lHvgcCzSPEIz7mrZrK90kzSW-aTQiT88N4FemSoQ75oAeCWDd86bn4_8ZKM8qN6f2dOPYn9TbCaZa451rIJODGdsMe5FwTAo144h0hm0Mwu-5L5T18nnvQXKRaKACo8bDHTEBf4Y6C1V4jr54za307XVWUOvPTKn22L51ZEfoki5e95jqxfj2CzBrmEMxJLFnNSyYQLTRLX28-J_x2yfXx7RZVwyqQjFQ7UNiZsSNzs7kguVuARwXnawaKgTd5GdASxct4cZR-wlo5xVzAlJniXZUgRmA3-xjTMsRO6Ywcw_gWdx6iu_5FViDm00]--></g></svg>