<?xml version="1.0" encoding="us-ascii" standalone="no"?><svg xmlns="http://www.w3.org/2000/svg" xmlns:xlink="http://www.w3.org/1999/xlink" contentStyleType="text/css" height="1656px" preserveAspectRatio="none" style="width:4005px;height:1656px;background:#FFFFFF;" version="1.1" viewBox="0 0 4005 1656" width="4005px" zoomAndPan="magnify"><defs/><g><rect fill="none" height="163.8633" style="stroke:#000000;stroke-width:1.5;" width="3595" x="20" y="333.7715"/><rect fill="none" height="1062.1348" style="stroke:#000000;stroke-width:1.5;" width="3988" x="10" y="540.9453"/><rect fill="none" height="193.1738" style="stroke:#000000;stroke-width:1.5;" width="3968" x="20" y="814.6953"/><rect fill="none" height="163.8633" style="stroke:#000000;stroke-width:1.5;" width="3817" x="20" y="1256.3535"/><line style="stroke:#181818;stroke-width:0.5;stroke-dasharray:5.0,5.0;" x1="55" x2="55" y1="52.9766" y2="1649.3906"/><line style="stroke:#181818;stroke-width:0.5;stroke-dasharray:5.0,5.0;" x1="311" x2="311" y1="52.9766" y2="1649.3906"/><line style="stroke:#181818;stroke-width:0.5;stroke-dasharray:5.0,5.0;" x1="815" x2="815" y1="52.9766" y2="1649.3906"/><line style="stroke:#181818;stroke-width:0.5;stroke-dasharray:5.0,5.0;" x1="1417" x2="1417" y1="52.9766" y2="1649.3906"/><line style="stroke:#181818;stroke-width:0.5;stroke-dasharray:5.0,5.0;" x1="1871" x2="1871" y1="52.9766" y2="1649.3906"/><line style="stroke:#181818;stroke-width:0.5;stroke-dasharray:5.0,5.0;" x1="2121" x2="2121" y1="52.9766" y2="1649.3906"/><line style="stroke:#181818;stroke-width:0.5;stroke-dasharray:5.0,5.0;" x1="2344" x2="2344" y1="52.9766" y2="1649.3906"/><line style="stroke:#181818;stroke-width:0.5;stroke-dasharray:5.0,5.0;" x1="2639" x2="2639" y1="52.9766" y2="1649.3906"/><line style="stroke:#181818;stroke-width:0.5;stroke-dasharray:5.0,5.0;" x1="3029" x2="3029" y1="52.9766" y2="1649.3906"/><line style="stroke:#181818;stroke-width:0.5;stroke-dasharray:5.0,5.0;" x1="3311" x2="3311" y1="52.9766" y2="1649.3906"/><line style="stroke:#181818;stroke-width:0.5;stroke-dasharray:5.0,5.0;" x1="3503" x2="3503" y1="52.9766" y2="1649.3906"/><line style="stroke:#181818;stroke-width:0.5;stroke-dasharray:5.0,5.0;" x1="3721" x2="3721" y1="52.9766" y2="1649.3906"/><line style="stroke:#181818;stroke-width:0.5;stroke-dasharray:5.0,5.0;" x1="3907" x2="3907" y1="52.9766" y2="1649.3906"/><rect fill="#E2E2F0" height="30.4883" rx="2.5" ry="2.5" style="stroke:#181818;stroke-width:0.5;" width="51" x="30" y="21.4883"/><text fill="#000000" font-family="sans-serif" font-size="14" lengthAdjust="spacing" textLength="37" x="37" y="42.0234">Actor</text><rect fill="#E2E2F0" height="46.9766" rx="2.5" ry="2.5" style="stroke:#181818;stroke-width:0.5;" width="441" x="91" y="5"/><text fill="#000000" font-family="sans-serif" font-size="14" font-style="italic" lengthAdjust="spacing" textLength="427" x="98" y="25.5352">&#171;/trial-management/trials/:trialNumber/:locationCode/detail&#187;</text><text fill="#000000" font-family="sans-serif" font-size="14" lengthAdjust="spacing" textLength="103" x="260" y="42.0234">TrialDetailPage</text><rect fill="#E2E2F0" height="46.9766" rx="2.5" ry="2.5" style="stroke:#181818;stroke-width:0.5;" width="546" x="542" y="5"/><text fill="#000000" font-family="sans-serif" font-size="14" font-style="italic" lengthAdjust="spacing" textLength="532" x="549" y="25.5352">&#171;/trial-management/trials/:locationCode/:trialnumber/add-panel-members&#187;</text><text fill="#000000" font-family="sans-serif" font-size="14" lengthAdjust="spacing" textLength="161" x="734.5" y="42.0234">AddPanelMembersPage</text><rect fill="#E2E2F0" height="46.9766" rx="2.5" ry="2.5" style="stroke:#181818;stroke-width:0.5;" width="638" x="1098" y="5"/><text fill="#000000" font-family="sans-serif" font-size="14" font-style="italic" lengthAdjust="spacing" textLength="624" x="1105" y="25.5352">&#171;/trial-management/trials/:locationCode/:trialnumber/add-panel-members/select-pools&#187;</text><text fill="#000000" font-family="sans-serif" font-size="14" lengthAdjust="spacing" textLength="110" x="1362" y="42.0234">SelectPoolsPage</text><rect fill="#FFFFE0" height="46.9766" rx="2.5" ry="2.5" style="stroke:#181818;stroke-width:0.5;" width="251" x="1746" y="5"/><text fill="#000000" font-family="sans-serif" font-size="14" font-style="italic" lengthAdjust="spacing" textLength="237" x="1753" y="25.5352">&#171;add-panel-member.controller.js&#187;</text><text fill="#000000" font-family="sans-serif" font-size="14" lengthAdjust="spacing" textLength="191" x="1776" y="42.0234">AddPanelMemberController</text><rect fill="#FFFFE0" height="46.9766" rx="2.5" ry="2.5" style="stroke:#181818;stroke-width:0.5;" width="229" x="2007" y="5"/><text fill="#000000" font-family="sans-serif" font-size="14" font-style="italic" lengthAdjust="spacing" textLength="215" x="2014" y="25.5352">&#171;addPanelMembersDAO.post()&#187;</text><text fill="#000000" font-family="sans-serif" font-size="14" lengthAdjust="spacing" textLength="159" x="2042" y="42.0234">AddPanelMembersDAO</text><rect fill="#FFFFE0" height="46.9766" rx="2.5" ry="2.5" style="stroke:#181818;stroke-width:0.5;" width="196" x="2246" y="5"/><text fill="#000000" font-family="sans-serif" font-size="14" font-style="italic" lengthAdjust="spacing" textLength="182" x="2253" y="25.5352">&#171;avialableJurorsDAO.get()&#187;</text><text fill="#000000" font-family="sans-serif" font-size="14" lengthAdjust="spacing" textLength="134" x="2277" y="42.0234">AvailableJurorsDAO</text><rect fill="#E6E6FA" height="46.9766" rx="2.5" ry="2.5" style="stroke:#181818;stroke-width:0.5;" width="375" x="2452" y="5"/><text fill="#000000" font-family="sans-serif" font-size="14" font-style="italic" lengthAdjust="spacing" textLength="361" x="2459" y="25.5352">&#171;trial-management/add-panel-members/index.njk&#187;</text><text fill="#000000" font-family="sans-serif" font-size="14" lengthAdjust="spacing" textLength="192" x="2543.5" y="42.0234">AddPanelMembersTemplate</text><rect fill="#E6E6FA" height="46.9766" rx="2.5" ry="2.5" style="stroke:#181818;stroke-width:0.5;" width="384" x="2837" y="5"/><text fill="#000000" font-family="sans-serif" font-size="14" font-style="italic" lengthAdjust="spacing" textLength="370" x="2844" y="25.5352">&#171;trial-management/generate-panel/select-pools.njk&#187;</text><text fill="#000000" font-family="sans-serif" font-size="14" lengthAdjust="spacing" textLength="141" x="2958.5" y="42.0234">SelectPoolsTemplate</text><rect fill="#E6E6FA" height="46.9766" rx="2.5" ry="2.5" style="stroke:#181818;stroke-width:0.5;" width="160" x="3231" y="5"/><text fill="#000000" font-family="sans-serif" font-size="14" font-style="italic" lengthAdjust="spacing" textLength="146" x="3238" y="25.5352">&#171;_errors/generic.njk&#187;</text><text fill="#000000" font-family="sans-serif" font-size="14" lengthAdjust="spacing" textLength="99" x="3261.5" y="42.0234">ErrorTemplate</text><rect fill="#E2E2F0" height="30.4883" rx="2.5" ry="2.5" style="stroke:#181818;stroke-width:0.5;" width="204" x="3401" y="21.4883"/><text fill="#000000" font-family="sans-serif" font-size="14" lengthAdjust="spacing" textLength="190" x="3408" y="42.0234">AddPanelMembersValidator</text><rect fill="#E2E2F0" height="30.4883" rx="2.5" ry="2.5" style="stroke:#181818;stroke-width:0.5;" width="212" x="3615" y="21.4883"/><text fill="#000000" font-family="sans-serif" font-size="14" lengthAdjust="spacing" textLength="198" x="3622" y="42.0234">GeneratePanelPoolsValidator</text><rect fill="#E2E2F0" height="30.4883" rx="2.5" ry="2.5" style="stroke:#181818;stroke-width:0.5;" width="141" x="3837" y="21.4883"/><text fill="#000000" font-family="sans-serif" font-size="14" lengthAdjust="spacing" textLength="127" x="3844" y="42.0234">BackendController</text><polygon fill="#181818" points="299.5,80.2871,309.5,84.2871,299.5,88.2871" style="stroke:#181818;stroke-width:1.0;"/><line style="stroke:#181818;stroke-width:1.0;" x1="55.5" x2="305.5" y1="84.2871" y2="84.2871"/><text fill="#000000" font-family="sans-serif" font-size="13" lengthAdjust="spacing" textLength="145" x="111" y="79.5449">Click 'Generate a Panel'</text><polygon fill="#181818" points="1859.5,109.5977,1869.5,113.5977,1859.5,117.5977" style="stroke:#181818;stroke-width:1.0;"/><line style="stroke:#181818;stroke-width:1.0;" x1="311.5" x2="1865.5" y1="113.5977" y2="113.5977"/><text fill="#000000" font-family="sans-serif" font-size="13" lengthAdjust="spacing" textLength="121" x="1031" y="108.8555">call page controller</text><polygon fill="#181818" points="2627.5,138.9082,2637.5,142.9082,2627.5,146.9082" style="stroke:#181818;stroke-width:1.0;"/><line style="stroke:#181818;stroke-width:1.0;" x1="1871.5" x2="2633.5" y1="142.9082" y2="142.9082"/><text fill="#000000" font-family="sans-serif" font-size="13" lengthAdjust="spacing" textLength="169" x="2171" y="138.166">request and build template</text><polygon fill="#181818" points="1882.5,168.2188,1872.5,172.2188,1882.5,176.2188" style="stroke:#181818;stroke-width:1.0;"/><line style="stroke:#181818;stroke-width:1.0;" x1="1876.5" x2="2638.5" y1="172.2188" y2="172.2188"/><text fill="#000000" font-family="sans-serif" font-size="13" lengthAdjust="spacing" textLength="78" x="2216.5" y="167.4766">return HTML</text><polygon fill="#181818" points="826,197.5293,816,201.5293,826,205.5293" style="stroke:#181818;stroke-width:1.0;"/><line style="stroke:#181818;stroke-width:1.0;" x1="820" x2="1870.5" y1="201.5293" y2="201.5293"/><text fill="#000000" font-family="sans-serif" font-size="13" lengthAdjust="spacing" textLength="78" x="1304.25" y="196.7871">return HTML</text><polygon fill="#181818" points="66.5,226.8398,56.5,230.8398,66.5,234.8398" style="stroke:#181818;stroke-width:1.0;"/><line style="stroke:#181818;stroke-width:1.0;" x1="60.5" x2="310.5" y1="230.8398" y2="230.8398"/><text fill="#000000" font-family="sans-serif" font-size="13" lengthAdjust="spacing" textLength="80" x="143.5" y="226.0977">render HTML</text><polygon fill="#181818" points="803,256.1504,813,260.1504,803,264.1504" style="stroke:#181818;stroke-width:1.0;"/><line style="stroke:#181818;stroke-width:1.0;" x1="55.5" x2="809" y1="260.1504" y2="260.1504"/><text fill="#000000" font-family="sans-serif" font-size="13" lengthAdjust="spacing" textLength="124" x="373.25" y="255.4082">submit form details</text><polygon fill="#181818" points="1859.5,285.4609,1869.5,289.4609,1859.5,293.4609" style="stroke:#181818;stroke-width:1.0;"/><line style="stroke:#181818;stroke-width:1.0;" x1="815" x2="1865.5" y1="289.4609" y2="289.4609"/><text fill="#000000" font-family="sans-serif" font-size="13" lengthAdjust="spacing" textLength="66" x="1310.25" y="284.7188">POST form</text><polygon fill="#181818" points="3491,314.7715,3501,318.7715,3491,322.7715" style="stroke:#181818;stroke-width:1.0;"/><line style="stroke:#181818;stroke-width:1.0;" x1="1871.5" x2="3497" y1="318.7715" y2="318.7715"/><text fill="#000000" font-family="sans-serif" font-size="13" lengthAdjust="spacing" textLength="160" x="2607.25" y="314.0293">validate form submission</text><path d="M20,333.7715 L82,333.7715 L82,341.082 L72,351.082 L20,351.082 L20,333.7715 " fill="#EEEEEE" style="stroke:#000000;stroke-width:1.5;"/><rect fill="none" height="163.8633" style="stroke:#000000;stroke-width:1.5;" width="3595" x="20" y="333.7715"/><text fill="#000000" font-family="sans-serif" font-size="13" font-weight="bold" lengthAdjust="spacing" textLength="17" x="35" y="347.3398">alt</text><text fill="#000000" font-family="sans-serif" font-size="11" font-weight="bold" lengthAdjust="spacing" textLength="146" x="97" y="346.4063">[Form missing selections]</text><polygon fill="#181818" points="1882.5,368.3926,1872.5,372.3926,1882.5,376.3926" style="stroke:#181818;stroke-width:1.0;"/><line style="stroke:#181818;stroke-width:1.0;" x1="1876.5" x2="3502" y1="372.3926" y2="372.3926"/><text fill="#000000" font-family="sans-serif" font-size="13" lengthAdjust="spacing" textLength="76" x="2649.25" y="367.6504">invalid form</text><polygon fill="#181818" points="2627.5,397.7031,2637.5,401.7031,2627.5,405.7031" style="stroke:#181818;stroke-width:1.0;"/><line style="stroke:#181818;stroke-width:1.0;" x1="1871.5" x2="2633.5" y1="401.7031" y2="401.7031"/><text fill="#000000" font-family="sans-serif" font-size="13" lengthAdjust="spacing" textLength="169" x="2171" y="396.9609">request and build template</text><polygon fill="#181818" points="1882.5,427.0137,1872.5,431.0137,1882.5,435.0137" style="stroke:#181818;stroke-width:1.0;"/><line style="stroke:#181818;stroke-width:1.0;" x1="1876.5" x2="2638.5" y1="431.0137" y2="431.0137"/><text fill="#000000" font-family="sans-serif" font-size="13" lengthAdjust="spacing" textLength="78" x="2216.5" y="426.2715">return HTML</text><polygon fill="#181818" points="826,456.3242,816,460.3242,826,464.3242" style="stroke:#181818;stroke-width:1.0;"/><line style="stroke:#181818;stroke-width:1.0;" x1="820" x2="1870.5" y1="460.3242" y2="460.3242"/><text fill="#000000" font-family="sans-serif" font-size="13" lengthAdjust="spacing" textLength="112" x="1287.25" y="455.582">return error HTML</text><polygon fill="#181818" points="66.5,485.6348,56.5,489.6348,66.5,493.6348" style="stroke:#181818;stroke-width:1.0;"/><line style="stroke:#181818;stroke-width:1.0;" x1="60.5" x2="814" y1="489.6348" y2="489.6348"/><text fill="#000000" font-family="sans-serif" font-size="13" lengthAdjust="spacing" textLength="133" x="368.75" y="484.8926">render error message</text><polygon fill="#181818" points="1882.5,521.9453,1872.5,525.9453,1882.5,529.9453" style="stroke:#181818;stroke-width:1.0;"/><line style="stroke:#181818;stroke-width:1.0;" x1="1876.5" x2="3502" y1="525.9453" y2="525.9453"/><text fill="#000000" font-family="sans-serif" font-size="13" lengthAdjust="spacing" textLength="141" x="2616.75" y="521.2031">valid form submission</text><path d="M10,540.9453 L72,540.9453 L72,548.2559 L62,558.2559 L10,558.2559 L10,540.9453 " fill="#EEEEEE" style="stroke:#000000;stroke-width:1.5;"/><rect fill="none" height="1062.1348" style="stroke:#000000;stroke-width:1.5;" width="3988" x="10" y="540.9453"/><text fill="#000000" font-family="sans-serif" font-size="13" font-weight="bold" lengthAdjust="spacing" textLength="17" x="25" y="554.5137">alt</text><text fill="#000000" font-family="sans-serif" font-size="11" font-weight="bold" lengthAdjust="spacing" textLength="113" x="87" y="553.5801">[All available pools]</text><polygon fill="#181818" points="2109.5,575.5664,2119.5,579.5664,2109.5,583.5664" style="stroke:#181818;stroke-width:1.0;"/><line style="stroke:#181818;stroke-width:1.0;" x1="1871.5" x2="2115.5" y1="579.5664" y2="579.5664"/><text fill="#000000" font-family="sans-serif" font-size="13" lengthAdjust="spacing" textLength="126" x="1933.5" y="574.8242">build request object</text><polygon fill="#181818" points="3895.5,604.877,3905.5,608.877,3895.5,612.877" style="stroke:#181818;stroke-width:1.0;"/><line style="stroke:#181818;stroke-width:1.0;" x1="2121.5" x2="3901.5" y1="608.877" y2="608.877"/><text fill="#000000" font-family="sans-serif" font-size="13" lengthAdjust="spacing" textLength="138" x="2945.5" y="604.1348">send backend request</text><polygon fill="#181818" points="2132.5,634.1875,2122.5,638.1875,2132.5,642.1875" style="stroke:#181818;stroke-width:1.0;"/><line style="stroke:#181818;stroke-width:1.0;" x1="2126.5" x2="3906.5" y1="638.1875" y2="638.1875"/><text fill="#000000" font-family="sans-serif" font-size="13" lengthAdjust="spacing" textLength="77" x="2976" y="633.4453">ok response</text><polygon fill="#181818" points="1882.5,663.498,1872.5,667.498,1882.5,671.498" style="stroke:#181818;stroke-width:1.0;"/><line style="stroke:#181818;stroke-width:1.0;" x1="1876.5" x2="2120.5" y1="667.498" y2="667.498"/><text fill="#000000" font-family="sans-serif" font-size="13" lengthAdjust="spacing" textLength="96" x="1948.5" y="662.7559">resolve request</text><polygon fill="#181818" points="322.5,692.8086,312.5,696.8086,322.5,700.8086" style="stroke:#181818;stroke-width:1.0;"/><line style="stroke:#181818;stroke-width:1.0;" x1="316.5" x2="1870.5" y1="696.8086" y2="696.8086"/><text fill="#000000" font-family="sans-serif" font-size="13" lengthAdjust="spacing" textLength="140" x="1021.5" y="692.0664">redirect to trial details</text><line style="stroke:#000000;stroke-width:1.0;stroke-dasharray:2.0,2.0;" x1="10" x2="3998" y1="705.8086" y2="705.8086"/><text fill="#000000" font-family="sans-serif" font-size="11" font-weight="bold" lengthAdjust="spacing" textLength="231" x="15" y="716.4434">[Jurors from one or more specific pools]</text><polygon fill="#181818" points="2332,737.0742,2342,741.0742,2332,745.0742" style="stroke:#181818;stroke-width:1.0;"/><line style="stroke:#181818;stroke-width:1.0;" x1="1871.5" x2="2338" y1="741.0742" y2="741.0742"/><text fill="#000000" font-family="sans-serif" font-size="13" lengthAdjust="spacing" textLength="126" x="2044.75" y="736.332">build request object</text><polygon fill="#181818" points="3895.5,766.3848,3905.5,770.3848,3895.5,774.3848" style="stroke:#181818;stroke-width:1.0;"/><line style="stroke:#181818;stroke-width:1.0;" x1="2344" x2="3901.5" y1="770.3848" y2="770.3848"/><text fill="#000000" font-family="sans-serif" font-size="13" lengthAdjust="spacing" textLength="138" x="3056.75" y="765.6426">send backend request</text><polygon fill="#181818" points="2355,795.6953,2345,799.6953,2355,803.6953" style="stroke:#181818;stroke-width:1.0;"/><line style="stroke:#181818;stroke-width:1.0;" x1="2349" x2="3906.5" y1="799.6953" y2="799.6953"/><text fill="#000000" font-family="sans-serif" font-size="13" lengthAdjust="spacing" textLength="77" x="3087.25" y="794.9531">ok response</text><path d="M20,814.6953 L82,814.6953 L82,822.0059 L72,832.0059 L20,832.0059 L20,814.6953 " fill="#EEEEEE" style="stroke:#000000;stroke-width:1.5;"/><rect fill="none" height="193.1738" style="stroke:#000000;stroke-width:1.5;" width="3968" x="20" y="814.6953"/><text fill="#000000" font-family="sans-serif" font-size="13" font-weight="bold" lengthAdjust="spacing" textLength="17" x="35" y="828.2637">alt</text><text fill="#000000" font-family="sans-serif" font-size="11" font-weight="bold" lengthAdjust="spacing" textLength="162" x="97" y="827.3301">[Available jurors API failure]</text><polygon fill="#181818" points="2355,849.3164,2345,853.3164,2355,857.3164" style="stroke:#181818;stroke-width:1.0;"/><line style="stroke:#181818;stroke-width:1.0;stroke-dasharray:2.0,2.0;" x1="2349" x2="3906.5" y1="853.3164" y2="853.3164"/><text fill="#000000" font-family="sans-serif" font-size="13" lengthAdjust="spacing" textLength="91" x="3080.25" y="848.5742">error response</text><polygon fill="#181818" points="1882.5,878.627,1872.5,882.627,1882.5,886.627" style="stroke:#181818;stroke-width:1.0;"/><line style="stroke:#181818;stroke-width:1.0;stroke-dasharray:2.0,2.0;" x1="1876.5" x2="2343" y1="882.627" y2="882.627"/><text fill="#000000" font-family="sans-serif" font-size="13" lengthAdjust="spacing" textLength="127" x="2044.25" y="877.8848">reject requestObject</text><polygon fill="#181818" points="3299,907.9375,3309,911.9375,3299,915.9375" style="stroke:#181818;stroke-width:1.0;"/><line style="stroke:#181818;stroke-width:1.0;" x1="1871.5" x2="3305" y1="911.9375" y2="911.9375"/><text fill="#000000" font-family="sans-serif" font-size="13" lengthAdjust="spacing" textLength="169" x="2506.75" y="907.1953">request and build template</text><polygon fill="#181818" points="1882.5,937.248,1872.5,941.248,1882.5,945.248" style="stroke:#181818;stroke-width:1.0;"/><line style="stroke:#181818;stroke-width:1.0;" x1="1876.5" x2="3310" y1="941.248" y2="941.248"/><text fill="#000000" font-family="sans-serif" font-size="13" lengthAdjust="spacing" textLength="78" x="2552.25" y="936.5059">return HTML</text><polygon fill="#181818" points="3299,966.5586,3309,970.5586,3299,974.5586" style="stroke:#181818;stroke-width:1.0;"/><line style="stroke:#181818;stroke-width:1.0;" x1="1871.5" x2="3305" y1="970.5586" y2="970.5586"/><text fill="#000000" font-family="sans-serif" font-size="13" lengthAdjust="spacing" textLength="78" x="2552.25" y="965.8164">return HTML</text><polygon fill="#181818" points="66.5,995.8691,56.5,999.8691,66.5,1003.8691" style="stroke:#181818;stroke-width:1.0;"/><line style="stroke:#181818;stroke-width:1.0;" x1="60.5" x2="3310" y1="999.8691" y2="999.8691"/><text fill="#000000" font-family="sans-serif" font-size="13" lengthAdjust="spacing" textLength="108" x="1629.25" y="995.127">render error page</text><polygon fill="#181818" points="1882.5,1032.1797,1872.5,1036.1797,1882.5,1040.1797" style="stroke:#181818;stroke-width:1.0;"/><line style="stroke:#181818;stroke-width:1.0;" x1="1876.5" x2="2343" y1="1036.1797" y2="1036.1797"/><text fill="#000000" font-family="sans-serif" font-size="13" lengthAdjust="spacing" textLength="96" x="2059.75" y="1031.4375">resolve request</text><polygon fill="#181818" points="3017,1061.4902,3027,1065.4902,3017,1069.4902" style="stroke:#181818;stroke-width:1.0;"/><line style="stroke:#181818;stroke-width:1.0;" x1="1871.5" x2="3023" y1="1065.4902" y2="1065.4902"/><text fill="#000000" font-family="sans-serif" font-size="13" lengthAdjust="spacing" textLength="169" x="2365.75" y="1060.748">request and build template</text><polygon fill="#181818" points="1882.5,1090.8008,1872.5,1094.8008,1882.5,1098.8008" style="stroke:#181818;stroke-width:1.0;"/><line style="stroke:#181818;stroke-width:1.0;" x1="1876.5" x2="3028" y1="1094.8008" y2="1094.8008"/><text fill="#000000" font-family="sans-serif" font-size="13" lengthAdjust="spacing" textLength="78" x="2411.25" y="1090.0586">return HTML</text><polygon fill="#181818" points="1428,1120.1113,1418,1124.1113,1428,1128.1113" style="stroke:#181818;stroke-width:1.0;"/><line style="stroke:#181818;stroke-width:1.0;" x1="1422" x2="1870.5" y1="1124.1113" y2="1124.1113"/><text fill="#000000" font-family="sans-serif" font-size="13" lengthAdjust="spacing" textLength="78" x="1605.25" y="1119.3691">return HTML</text><polygon fill="#181818" points="66.5,1149.4219,56.5,1153.4219,66.5,1157.4219" style="stroke:#181818;stroke-width:1.0;"/><line style="stroke:#181818;stroke-width:1.0;" x1="60.5" x2="1416" y1="1153.4219" y2="1153.4219"/><text fill="#000000" font-family="sans-serif" font-size="13" lengthAdjust="spacing" textLength="80" x="696.25" y="1148.6797">render HTML</text><polygon fill="#181818" points="1405,1178.7324,1415,1182.7324,1405,1186.7324" style="stroke:#181818;stroke-width:1.0;"/><line style="stroke:#181818;stroke-width:1.0;" x1="55.5" x2="1411" y1="1182.7324" y2="1182.7324"/><text fill="#000000" font-family="sans-serif" font-size="13" lengthAdjust="spacing" textLength="124" x="674.25" y="1177.9902">submit form details</text><polygon fill="#181818" points="1859.5,1208.043,1869.5,1212.043,1859.5,1216.043" style="stroke:#181818;stroke-width:1.0;"/><line style="stroke:#181818;stroke-width:1.0;" x1="1417" x2="1865.5" y1="1212.043" y2="1212.043"/><text fill="#000000" font-family="sans-serif" font-size="13" lengthAdjust="spacing" textLength="66" x="1611.25" y="1207.3008">POST form</text><polygon fill="#181818" points="3709,1237.3535,3719,1241.3535,3709,1245.3535" style="stroke:#181818;stroke-width:1.0;"/><line style="stroke:#181818;stroke-width:1.0;" x1="1871.5" x2="3715" y1="1241.3535" y2="1241.3535"/><text fill="#000000" font-family="sans-serif" font-size="13" lengthAdjust="spacing" textLength="160" x="2716.25" y="1236.6113">validate form submission</text><path d="M20,1256.3535 L82,1256.3535 L82,1263.6641 L72,1273.6641 L20,1273.6641 L20,1256.3535 " fill="#EEEEEE" style="stroke:#000000;stroke-width:1.5;"/><rect fill="none" height="163.8633" style="stroke:#000000;stroke-width:1.5;" width="3817" x="20" y="1256.3535"/><text fill="#000000" font-family="sans-serif" font-size="13" font-weight="bold" lengthAdjust="spacing" textLength="17" x="35" y="1269.9219">alt</text><text fill="#000000" font-family="sans-serif" font-size="11" font-weight="bold" lengthAdjust="spacing" textLength="146" x="97" y="1268.9883">[Form missing selections]</text><polygon fill="#181818" points="1882.5,1290.9746,1872.5,1294.9746,1882.5,1298.9746" style="stroke:#181818;stroke-width:1.0;"/><line style="stroke:#181818;stroke-width:1.0;" x1="1876.5" x2="3720" y1="1294.9746" y2="1294.9746"/><text fill="#000000" font-family="sans-serif" font-size="13" lengthAdjust="spacing" textLength="76" x="2758.25" y="1290.2324">invalid form</text><polygon fill="#181818" points="2627.5,1320.2852,2637.5,1324.2852,2627.5,1328.2852" style="stroke:#181818;stroke-width:1.0;"/><line style="stroke:#181818;stroke-width:1.0;" x1="1871.5" x2="2633.5" y1="1324.2852" y2="1324.2852"/><text fill="#000000" font-family="sans-serif" font-size="13" lengthAdjust="spacing" textLength="169" x="2171" y="1319.543">request and build template</text><polygon fill="#181818" points="1882.5,1349.5957,1872.5,1353.5957,1882.5,1357.5957" style="stroke:#181818;stroke-width:1.0;"/><line style="stroke:#181818;stroke-width:1.0;" x1="1876.5" x2="2638.5" y1="1353.5957" y2="1353.5957"/><text fill="#000000" font-family="sans-serif" font-size="13" lengthAdjust="spacing" textLength="78" x="2216.5" y="1348.8535">return HTML</text><polygon fill="#181818" points="1428,1378.9063,1418,1382.9063,1428,1386.9063" style="stroke:#181818;stroke-width:1.0;"/><line style="stroke:#181818;stroke-width:1.0;" x1="1422" x2="1870.5" y1="1382.9063" y2="1382.9063"/><text fill="#000000" font-family="sans-serif" font-size="13" lengthAdjust="spacing" textLength="112" x="1588.25" y="1378.1641">return error HTML</text><polygon fill="#181818" points="66.5,1408.2168,56.5,1412.2168,66.5,1416.2168" style="stroke:#181818;stroke-width:1.0;"/><line style="stroke:#181818;stroke-width:1.0;" x1="60.5" x2="1416" y1="1412.2168" y2="1412.2168"/><text fill="#000000" font-family="sans-serif" font-size="13" lengthAdjust="spacing" textLength="133" x="669.75" y="1407.4746">render error message</text><polygon fill="#181818" points="1882.5,1444.5273,1872.5,1448.5273,1882.5,1452.5273" style="stroke:#181818;stroke-width:1.0;"/><line style="stroke:#181818;stroke-width:1.0;" x1="1876.5" x2="3720" y1="1448.5273" y2="1448.5273"/><text fill="#000000" font-family="sans-serif" font-size="13" lengthAdjust="spacing" textLength="141" x="2725.75" y="1443.7852">valid form submission</text><polygon fill="#181818" points="2109.5,1473.8379,2119.5,1477.8379,2109.5,1481.8379" style="stroke:#181818;stroke-width:1.0;"/><line style="stroke:#181818;stroke-width:1.0;" x1="1871.5" x2="2115.5" y1="1477.8379" y2="1477.8379"/><text fill="#000000" font-family="sans-serif" font-size="13" lengthAdjust="spacing" textLength="126" x="1933.5" y="1473.0957">build request object</text><polygon fill="#181818" points="3895.5,1503.1484,3905.5,1507.1484,3895.5,1511.1484" style="stroke:#181818;stroke-width:1.0;"/><line style="stroke:#181818;stroke-width:1.0;" x1="2121.5" x2="3901.5" y1="1507.1484" y2="1507.1484"/><text fill="#000000" font-family="sans-serif" font-size="13" lengthAdjust="spacing" textLength="138" x="2945.5" y="1502.4063">send backend request</text><polygon fill="#181818" points="2132.5,1532.459,2122.5,1536.459,2132.5,1540.459" style="stroke:#181818;stroke-width:1.0;"/><line style="stroke:#181818;stroke-width:1.0;" x1="2126.5" x2="3906.5" y1="1536.459" y2="1536.459"/><text fill="#000000" font-family="sans-serif" font-size="13" lengthAdjust="spacing" textLength="77" x="2976" y="1531.7168">ok response</text><polygon fill="#181818" points="1882.5,1561.7695,1872.5,1565.7695,1882.5,1569.7695" style="stroke:#181818;stroke-width:1.0;"/><line style="stroke:#181818;stroke-width:1.0;" x1="1876.5" x2="2120.5" y1="1565.7695" y2="1565.7695"/><text fill="#000000" font-family="sans-serif" font-size="13" lengthAdjust="spacing" textLength="96" x="1948.5" y="1561.0273">resolve request</text><polygon fill="#181818" points="322.5,1591.0801,312.5,1595.0801,322.5,1599.0801" style="stroke:#181818;stroke-width:1.0;"/><line style="stroke:#181818;stroke-width:1.0;" x1="316.5" x2="1870.5" y1="1595.0801" y2="1595.0801"/><text fill="#000000" font-family="sans-serif" font-size="13" lengthAdjust="spacing" textLength="140" x="1021.5" y="1590.3379">redirect to trial details</text><polygon fill="#181818" points="66.5,1627.3906,56.5,1631.3906,66.5,1635.3906" style="stroke:#181818;stroke-width:1.0;"/><line style="stroke:#181818;stroke-width:1.0;" x1="60.5" x2="310.5" y1="1631.3906" y2="1631.3906"/><text fill="#000000" font-family="sans-serif" font-size="13" lengthAdjust="spacing" textLength="80" x="143.5" y="1626.6484">render HTML</text><!--SRC=[xLVRRkCs47tNLmpG1oSFTYxD5grW17KS9PjKZbrR2T2dWfOOBnDAT2dAxVvzXwHbwsPjWWOjK0W8OeaSpk6S6HvgqbUMh8aaCIpKLquXLPA5AeivEEb-YlwHqIIa4vgcP4L7dAsIc2OAGln7fUEWcM8XMnCS6uLAu52lrmD_EXxvC9y-1dSFjoMZG3B2hwaYZC_G8v3K3i5mUABqGpyc2Kve53kGdhZczo6BbrIUk5o4H36HZ4L4JoBZwVAol94ecf64yWdLAz8SvqR8k1McvDc29XQKH55_hLtsO-kpWhYWd8Pg9WJVePcNZu8xIGr0VwsT8hOXUJnz2EPJt_VcC7guXhdtwwEt261wTU-DWqKB8sEHA2aufr9ljF0s75QH1-5kTl22oF2TprPVr6-KS_5d6-dNewbshd-CryhSO2rITNJSwd23cILBJkypANOEAwFQ-GQ9AzaDLhJ1j-4iy2OpVnHuRVIa0OtNd2YRHZs-6nWEQzcivueb4VrhaBoywXrmig7uBW-LImchDD20jQ89bJXd0Kj5qOhdIMIcY6G64E5tgXzIwvY5DIU6ivixF_3c2rDaJoF_xdeKJEUj13uHpYA2Qg2nTY-b5RVRKCmo4tXfKNd4xkDgDFx5mptiwxxayOg4hxZhVJaxZcCa2VgNMurnOSnP-0gz71s8JN3FSQm5cXREWmiXuHpM-aZl3u9Ji43xSeMu8BLcfWf84i4oOpm2jPqiBXps6nQgJ2RmEPZuZjMgVdapHGCR6LhaaKcJCJkvZzluSI7DbZ5JyApVh6Ic5g8QxsoA2gBDAa7ka-F2nZvJwywuJbFKCSSXN5b4CvAim5OepgKEG3dweaUM69yMk6JuFdwh66qC0xHnRCv5RhZZUilcbcfh4zkhqS4nnpaSuZx06cCZB36IongOqrmZGQkVkmqt9q0iNv1SDDMJQ5Cx03hnLBDa9_A5snMumQOLuXNjqZMchCwdtGLE2xwX1NVR6xn6PSGaxX2K02DbkzAZFAMm5V1dAM8G2GNDfP3u8RAc8NjcuG4cgXV0GLQgXkzZg7RFl8Kj_3C9tINpnIuUpUxW6SSogQsQd3TxjnLM0AWafD_0XgGw_ZoIQSv6bKPx0tpZD5NplrzKF4UGNoSjScMYpe_HtatX76cHHJDpZAguJL6MQx2k6gMxz7sgKLjQZ6FxNTSQwovIQrmHvtm-t-K1VSwX3ajqOynlKsfRg8Urkf6J5id-HwBzFjd-HWfAodqu5MNnFb1tpOGsiVc_LcjDJUltni_6fDWtVcnBsJMG7zv0TjrXfJli-i6tz8F_QjFNTNTTTzTrTrrtrtLtNNVNTNTTTzTrT_zXTpVZ-1dsEF5XWzzwo0kS3SvFpoy6tny5NpAueKiu-mHdFxaNf-xf9xYT1A2dZvsZsvc_EOTKP3Aa437T52upNOd7pZrUZ33F4iLYwe9-Emecnx3mya7maWsJmZI8pltJn1h1Pw4MQw6CyGyN_IkcFw4bRWoU9iurVIOPbh-NX2B2qdVXCRZf_-Zu95bbM0uel0bUvGWWlxfmU_Kt]--></g></svg>