<?xml version="1.0" encoding="us-ascii" standalone="no"?><svg xmlns="http://www.w3.org/2000/svg" xmlns:xlink="http://www.w3.org/1999/xlink" contentStyleType="text/css" height="1644px" preserveAspectRatio="none" style="width:4591px;height:1644px;background:#FFFFFF;" version="1.1" viewBox="0 0 4591 1644" width="4591px" zoomAndPan="magnify"><defs/><g><rect fill="none" height="149.5078" style="stroke:#000000;stroke-width:1.5;" width="2562.5" x="10" y="69.9766"/><rect fill="none" height="193.1738" style="stroke:#000000;stroke-width:1.5;" width="4575.5" x="10" y="292.1055"/><rect fill="none" height="163.8633" style="stroke:#000000;stroke-width:1.5;" width="4424.5" x="10" y="763.0742"/><rect fill="none" height="193.1738" style="stroke:#000000;stroke-width:1.5;" width="4575.5" x="10" y="1028.8691"/><rect fill="none" height="325.3711" style="stroke:#000000;stroke-width:1.5;" width="3798.5" x="10" y="1294.6641"/><line style="stroke:#181818;stroke-width:0.5;stroke-dasharray:5.0,5.0;" x1="45" x2="45" y1="52.9766" y2="1637.0352"/><line style="stroke:#181818;stroke-width:0.5;stroke-dasharray:5.0,5.0;" x1="331" x2="331" y1="52.9766" y2="1637.0352"/><line style="stroke:#181818;stroke-width:0.5;stroke-dasharray:5.0,5.0;" x1="847" x2="847" y1="52.9766" y2="1637.0352"/><line style="stroke:#181818;stroke-width:0.5;stroke-dasharray:5.0,5.0;" x1="1450" x2="1450" y1="52.9766" y2="1637.0352"/><line style="stroke:#181818;stroke-width:0.5;stroke-dasharray:5.0,5.0;" x1="1809" x2="1809" y1="52.9766" y2="1637.0352"/><line style="stroke:#181818;stroke-width:0.5;stroke-dasharray:5.0,5.0;" x1="1986" x2="1986" y1="52.9766" y2="1637.0352"/><line style="stroke:#181818;stroke-width:0.5;stroke-dasharray:5.0,5.0;" x1="2209" x2="2209" y1="52.9766" y2="1637.0352"/><line style="stroke:#181818;stroke-width:0.5;stroke-dasharray:5.0,5.0;" x1="2463.5" x2="2463.5" y1="52.9766" y2="1637.0352"/><line style="stroke:#181818;stroke-width:0.5;stroke-dasharray:5.0,5.0;" x1="2676.5" x2="2676.5" y1="52.9766" y2="1637.0352"/><line style="stroke:#181818;stroke-width:0.5;stroke-dasharray:5.0,5.0;" x1="2898.5" x2="2898.5" y1="52.9766" y2="1637.0352"/><line style="stroke:#181818;stroke-width:0.5;stroke-dasharray:5.0,5.0;" x1="3191.5" x2="3191.5" y1="52.9766" y2="1637.0352"/><line style="stroke:#181818;stroke-width:0.5;stroke-dasharray:5.0,5.0;" x1="3587.5" x2="3587.5" y1="52.9766" y2="1637.0352"/><line style="stroke:#181818;stroke-width:0.5;stroke-dasharray:5.0,5.0;" x1="3931.5" x2="3931.5" y1="52.9766" y2="1637.0352"/><line style="stroke:#181818;stroke-width:0.5;stroke-dasharray:5.0,5.0;" x1="4144.5" x2="4144.5" y1="52.9766" y2="1637.0352"/><line style="stroke:#181818;stroke-width:0.5;stroke-dasharray:5.0,5.0;" x1="4329.5" x2="4329.5" y1="52.9766" y2="1637.0352"/><line style="stroke:#181818;stroke-width:0.5;stroke-dasharray:5.0,5.0;" x1="4504.5" x2="4504.5" y1="52.9766" y2="1637.0352"/><rect fill="#E2E2F0" height="30.4883" rx="2.5" ry="2.5" style="stroke:#181818;stroke-width:0.5;" width="51" x="20" y="21.4883"/><text fill="#000000" font-family="sans-serif" font-size="14" lengthAdjust="spacing" textLength="37" x="27" y="42.0234">Actor</text><rect fill="#E2E2F0" height="46.9766" rx="2.5" ry="2.5" style="stroke:#181818;stroke-width:0.5;" width="391" x="136" y="5"/><text fill="#000000" font-family="sans-serif" font-size="14" font-style="italic" lengthAdjust="spacing" textLength="377" x="143" y="25.5352">&#171;/juror-management/record/:jurorNumber/expenses&#187;</text><text fill="#000000" font-family="sans-serif" font-size="14" lengthAdjust="spacing" textLength="180" x="241.5" y="42.0234">JurorRecordExpensesPage</text><rect fill="#E2E2F0" height="46.9766" rx="2.5" ry="2.5" style="stroke:#181818;stroke-width:0.5;" width="621" x="537" y="5"/><text fill="#000000" font-family="sans-serif" font-size="14" font-style="italic" lengthAdjust="spacing" textLength="607" x="544" y="25.5352">&#171;/juror-management/unpaid-attendance/expense-record/:jurorNumber/:poolNumber&#187;</text><text fill="#000000" font-family="sans-serif" font-size="14" lengthAdjust="spacing" textLength="173" x="761" y="42.0234">DraftExpenseRecordPage</text><rect fill="#E2E2F0" height="46.9766" rx="2.5" ry="2.5" style="stroke:#181818;stroke-width:0.5;" width="564" x="1168" y="5"/><text fill="#000000" font-family="sans-serif" font-size="14" font-style="italic" lengthAdjust="spacing" textLength="550" x="1175" y="25.5352">&#171;/juror-management/expenses/:jurorNumber/:poolNumber/default-expenses&#187;</text><text fill="#000000" font-family="sans-serif" font-size="14" lengthAdjust="spacing" textLength="147" x="1376.5" y="42.0234">DefaultExpensesPage</text><rect fill="#E2E2F0" height="46.9766" rx="2.5" ry="2.5" style="stroke:#181818;stroke-width:0.5;" width="134" x="1742" y="5"/><text fill="#000000" font-family="sans-serif" font-size="14" font-style="italic" lengthAdjust="spacing" textLength="56" x="1781" y="25.5352">&#171;/error&#187;</text><text fill="#000000" font-family="sans-serif" font-size="14" lengthAdjust="spacing" textLength="120" x="1749" y="42.0234">GenericErrorPage</text><rect fill="#FFFFE0" height="46.9766" rx="2.5" ry="2.5" style="stroke:#181818;stroke-width:0.5;" width="201" x="1886" y="5"/><text fill="#000000" font-family="sans-serif" font-size="14" font-style="italic" lengthAdjust="spacing" textLength="187" x="1893" y="25.5352">&#171;juror-record.controller.js&#187;</text><text fill="#000000" font-family="sans-serif" font-size="14" lengthAdjust="spacing" textLength="152" x="1910.5" y="42.0234">JurorRecordController</text><rect fill="#FFFFE0" height="46.9766" rx="2.5" ry="2.5" style="stroke:#181818;stroke-width:0.5;" width="225" x="2097" y="5"/><text fill="#000000" font-family="sans-serif" font-size="14" font-style="italic" lengthAdjust="spacing" textLength="211" x="2104" y="25.5352">&#171;expense-record.controller.js&#187;</text><text fill="#000000" font-family="sans-serif" font-size="14" lengthAdjust="spacing" textLength="176" x="2121.5" y="42.0234">ExpenseRecordController</text><rect fill="#FFFFE0" height="46.9766" rx="2.5" ry="2.5" style="stroke:#181818;stroke-width:0.5;" width="198" x="2364.5" y="5"/><text fill="#000000" font-family="sans-serif" font-size="14" font-style="italic" lengthAdjust="spacing" textLength="165" x="2381" y="25.5352">&#171;expenses.controller.js&#187;</text><text fill="#000000" font-family="sans-serif" font-size="14" lengthAdjust="spacing" textLength="184" x="2371.5" y="42.0234">DefaultExpensesController</text><rect fill="#FFFFE0" height="46.9766" rx="2.5" ry="2.5" style="stroke:#181818;stroke-width:0.5;" width="208" x="2572.5" y="5"/><text fill="#000000" font-family="sans-serif" font-size="14" font-style="italic" lengthAdjust="spacing" textLength="194" x="2579.5" y="25.5352">&#171;defaultExpensesDAO.get()&#187;</text><text fill="#000000" font-family="sans-serif" font-size="14" lengthAdjust="spacing" textLength="158" x="2597.5" y="42.0234">DefaultExpensesObject</text><rect fill="#FFFFE0" height="46.9766" rx="2.5" ry="2.5" style="stroke:#181818;stroke-width:0.5;" width="216" x="2790.5" y="5"/><text fill="#000000" font-family="sans-serif" font-size="14" font-style="italic" lengthAdjust="spacing" textLength="202" x="2797.5" y="25.5352">&#171;defaultExpensesDAO.post()&#187;</text><text fill="#000000" font-family="sans-serif" font-size="14" lengthAdjust="spacing" textLength="179" x="2809" y="42.0234">SetDefaultExpensesObject</text><rect fill="#E6E6FA" height="46.9766" rx="2.5" ry="2.5" style="stroke:#181818;stroke-width:0.5;" width="351" x="3016.5" y="5"/><text fill="#000000" font-family="sans-serif" font-size="14" font-style="italic" lengthAdjust="spacing" textLength="337" x="3023.5" y="25.5352">&#171;juror-management/juror-record/expenses.njk&#187;</text><text fill="#000000" font-family="sans-serif" font-size="14" lengthAdjust="spacing" textLength="211" x="3086.5" y="42.0234">JurorRecordExpensesTemplate</text><rect fill="#E6E6FA" height="46.9766" rx="2.5" ry="2.5" style="stroke:#181818;stroke-width:0.5;" width="421" x="3377.5" y="5"/><text fill="#000000" font-family="sans-serif" font-size="14" font-style="italic" lengthAdjust="spacing" textLength="407" x="3384.5" y="25.5352">&#171;juror-management/expense-record/expense-record.njk&#187;</text><text fill="#000000" font-family="sans-serif" font-size="14" lengthAdjust="spacing" textLength="204" x="3486" y="42.0234">DraftExpenseRecordTemplate</text><rect fill="#E6E6FA" height="46.9766" rx="2.5" ry="2.5" style="stroke:#181818;stroke-width:0.5;" width="246" x="3808.5" y="5"/><text fill="#000000" font-family="sans-serif" font-size="14" font-style="italic" lengthAdjust="spacing" textLength="232" x="3815.5" y="25.5352">&#171;expenses/default-expenses.njk&#187;</text><text fill="#000000" font-family="sans-serif" font-size="14" lengthAdjust="spacing" textLength="178" x="3842.5" y="42.0234">DefaultExpensesTemplate</text><rect fill="#E6E6FA" height="46.9766" rx="2.5" ry="2.5" style="stroke:#181818;stroke-width:0.5;" width="160" x="4064.5" y="5"/><text fill="#000000" font-family="sans-serif" font-size="14" font-style="italic" lengthAdjust="spacing" textLength="146" x="4071.5" y="25.5352">&#171;_errors/generic.njk&#187;</text><text fill="#000000" font-family="sans-serif" font-size="14" lengthAdjust="spacing" textLength="99" x="4095" y="42.0234">ErrorTemplate</text><rect fill="#E2E2F0" height="30.4883" rx="2.5" ry="2.5" style="stroke:#181818;stroke-width:0.5;" width="190" x="4234.5" y="21.4883"/><text fill="#000000" font-family="sans-serif" font-size="14" lengthAdjust="spacing" textLength="176" x="4241.5" y="42.0234">DefaultExpensesValidator</text><rect fill="#E2E2F0" height="30.4883" rx="2.5" ry="2.5" style="stroke:#181818;stroke-width:0.5;" width="141" x="4434.5" y="21.4883"/><text fill="#000000" font-family="sans-serif" font-size="14" lengthAdjust="spacing" textLength="127" x="4441.5" y="42.0234">BackendController</text><path d="M10,69.9766 L236,69.9766 L236,77.2871 L226,87.2871 L10,87.2871 L10,69.9766 " fill="#EEEEEE" style="stroke:#000000;stroke-width:1.5;"/><rect fill="none" height="149.5078" style="stroke:#000000;stroke-width:1.5;" width="2562.5" x="10" y="69.9766"/><text fill="#000000" font-family="sans-serif" font-size="13" font-weight="bold" lengthAdjust="spacing" textLength="181" x="25" y="83.5449">Navigate from juror record</text><polygon fill="#181818" points="319.5,104.5977,329.5,108.5977,319.5,112.5977" style="stroke:#181818;stroke-width:1.0;"/><line style="stroke:#181818;stroke-width:1.0;" x1="45.5" x2="325.5" y1="108.5977" y2="108.5977"/><text fill="#000000" font-family="sans-serif" font-size="13" lengthAdjust="spacing" textLength="262" x="57.5" y="103.8555">click add or change default expenses link</text><polygon fill="#181818" points="2451.5,133.9082,2461.5,137.9082,2451.5,141.9082" style="stroke:#181818;stroke-width:1.0;"/><line style="stroke:#181818;stroke-width:1.0;" x1="331.5" x2="2457.5" y1="137.9082" y2="137.9082"/><text fill="#000000" font-family="sans-serif" font-size="13" lengthAdjust="spacing" textLength="150" x="1322.5" y="133.166">call expenses controller</text><line style="stroke:#000000;stroke-width:1.0;stroke-dasharray:2.0,2.0;" x1="10" x2="2572.5" y1="146.9082" y2="146.9082"/><text fill="#000000" font-family="sans-serif" font-size="11" font-weight="bold" lengthAdjust="spacing" textLength="176" x="15" y="157.543">[Navigate from expense record]</text><polygon fill="#181818" points="835.5,178.1738,845.5,182.1738,835.5,186.1738" style="stroke:#181818;stroke-width:1.0;"/><line style="stroke:#181818;stroke-width:1.0;" x1="45.5" x2="841.5" y1="182.1738" y2="182.1738"/><text fill="#000000" font-family="sans-serif" font-size="13" lengthAdjust="spacing" textLength="262" x="315.5" y="177.4316">click add or change default expenses link</text><polygon fill="#181818" points="2451.5,207.4844,2461.5,211.4844,2451.5,215.4844" style="stroke:#181818;stroke-width:1.0;"/><line style="stroke:#181818;stroke-width:1.0;" x1="847.5" x2="2457.5" y1="211.4844" y2="211.4844"/><text fill="#000000" font-family="sans-serif" font-size="13" lengthAdjust="spacing" textLength="150" x="1580.5" y="206.7422">call expenses controller</text><polygon fill="#181818" points="2664.5,243.7949,2674.5,247.7949,2664.5,251.7949" style="stroke:#181818;stroke-width:1.0;"/><line style="stroke:#181818;stroke-width:1.0;" x1="2463.5" x2="2670.5" y1="247.7949" y2="247.7949"/><text fill="#000000" font-family="sans-serif" font-size="13" lengthAdjust="spacing" textLength="126" x="2507" y="243.0527">build request object</text><polygon fill="#181818" points="4493,273.1055,4503,277.1055,4493,281.1055" style="stroke:#181818;stroke-width:1.0;"/><line style="stroke:#181818;stroke-width:1.0;" x1="2676.5" x2="4499" y1="277.1055" y2="277.1055"/><text fill="#000000" font-family="sans-serif" font-size="13" lengthAdjust="spacing" textLength="138" x="3521.75" y="272.3633">send backend request</text><path d="M10,292.1055 L72,292.1055 L72,299.416 L62,309.416 L10,309.416 L10,292.1055 " fill="#EEEEEE" style="stroke:#000000;stroke-width:1.5;"/><rect fill="none" height="193.1738" style="stroke:#000000;stroke-width:1.5;" width="4575.5" x="10" y="292.1055"/><text fill="#000000" font-family="sans-serif" font-size="13" font-weight="bold" lengthAdjust="spacing" textLength="17" x="25" y="305.6738">alt</text><text fill="#000000" font-family="sans-serif" font-size="11" font-weight="bold" lengthAdjust="spacing" textLength="223" x="87" y="304.7402">[Failed to fetch jurors default expenses]</text><polygon fill="#181818" points="2687.5,326.7266,2677.5,330.7266,2687.5,334.7266" style="stroke:#181818;stroke-width:1.0;"/><line style="stroke:#181818;stroke-width:1.0;stroke-dasharray:2.0,2.0;" x1="2681.5" x2="4504" y1="330.7266" y2="330.7266"/><text fill="#000000" font-family="sans-serif" font-size="13" lengthAdjust="spacing" textLength="91" x="3545.25" y="325.9844">Error response</text><polygon fill="#181818" points="2474.5,356.0371,2464.5,360.0371,2474.5,364.0371" style="stroke:#181818;stroke-width:1.0;"/><line style="stroke:#181818;stroke-width:1.0;stroke-dasharray:2.0,2.0;" x1="2468.5" x2="2675.5" y1="360.0371" y2="360.0371"/><text fill="#000000" font-family="sans-serif" font-size="13" lengthAdjust="spacing" textLength="127" x="2506.5" y="355.2949">reject requestObject</text><polygon fill="#181818" points="4132.5,385.3477,4142.5,389.3477,4132.5,393.3477" style="stroke:#181818;stroke-width:1.0;"/><line style="stroke:#181818;stroke-width:1.0;" x1="2463.5" x2="4138.5" y1="389.3477" y2="389.3477"/><text fill="#000000" font-family="sans-serif" font-size="13" lengthAdjust="spacing" textLength="169" x="3219.5" y="384.6055">request and build template</text><polygon fill="#181818" points="2474.5,414.6582,2464.5,418.6582,2474.5,422.6582" style="stroke:#181818;stroke-width:1.0;"/><line style="stroke:#181818;stroke-width:1.0;" x1="2468.5" x2="4143.5" y1="418.6582" y2="418.6582"/><text fill="#000000" font-family="sans-serif" font-size="13" lengthAdjust="spacing" textLength="78" x="3265" y="413.916">return HTML</text><polygon fill="#181818" points="1820,443.9688,1810,447.9688,1820,451.9688" style="stroke:#181818;stroke-width:1.0;"/><line style="stroke:#181818;stroke-width:1.0;" x1="1814" x2="2462.5" y1="447.9688" y2="447.9688"/><text fill="#000000" font-family="sans-serif" font-size="13" lengthAdjust="spacing" textLength="78" x="2097.25" y="443.2266">return HTML</text><polygon fill="#181818" points="56.5,473.2793,46.5,477.2793,56.5,481.2793" style="stroke:#181818;stroke-width:1.0;"/><line style="stroke:#181818;stroke-width:1.0;" x1="50.5" x2="1808" y1="477.2793" y2="477.2793"/><text fill="#000000" font-family="sans-serif" font-size="13" lengthAdjust="spacing" textLength="108" x="873.25" y="472.5371">render error page</text><polygon fill="#181818" points="2687.5,509.5898,2677.5,513.5898,2687.5,517.5898" style="stroke:#181818;stroke-width:1.0;"/><line style="stroke:#181818;stroke-width:1.0;" x1="2681.5" x2="4504" y1="513.5898" y2="513.5898"/><text fill="#000000" font-family="sans-serif" font-size="13" lengthAdjust="spacing" textLength="77" x="3552.25" y="508.8477">ok response</text><polygon fill="#181818" points="2474.5,538.9004,2464.5,542.9004,2474.5,546.9004" style="stroke:#181818;stroke-width:1.0;"/><line style="stroke:#181818;stroke-width:1.0;" x1="2468.5" x2="2675.5" y1="542.9004" y2="542.9004"/><text fill="#000000" font-family="sans-serif" font-size="13" lengthAdjust="spacing" textLength="96" x="2522" y="538.1582">resolve request</text><polygon fill="#181818" points="3919.5,568.2109,3929.5,572.2109,3919.5,576.2109" style="stroke:#181818;stroke-width:1.0;"/><line style="stroke:#181818;stroke-width:1.0;" x1="2463.5" x2="3925.5" y1="572.2109" y2="572.2109"/><text fill="#000000" font-family="sans-serif" font-size="13" lengthAdjust="spacing" textLength="169" x="3113" y="567.4688">request and build template</text><polygon fill="#181818" points="2474.5,597.5215,2464.5,601.5215,2474.5,605.5215" style="stroke:#181818;stroke-width:1.0;"/><line style="stroke:#181818;stroke-width:1.0;" x1="2468.5" x2="3930.5" y1="601.5215" y2="601.5215"/><text fill="#000000" font-family="sans-serif" font-size="13" lengthAdjust="spacing" textLength="78" x="3158.5" y="596.7793">return HTML</text><polygon fill="#181818" points="1461,626.832,1451,630.832,1461,634.832" style="stroke:#181818;stroke-width:1.0;"/><line style="stroke:#181818;stroke-width:1.0;" x1="1455" x2="2462.5" y1="630.832" y2="630.832"/><text fill="#000000" font-family="sans-serif" font-size="13" lengthAdjust="spacing" textLength="78" x="1917.75" y="626.0898">return HTML</text><polygon fill="#181818" points="56.5,656.1426,46.5,660.1426,56.5,664.1426" style="stroke:#181818;stroke-width:1.0;"/><line style="stroke:#181818;stroke-width:1.0;" x1="50.5" x2="1449" y1="660.1426" y2="660.1426"/><text fill="#000000" font-family="sans-serif" font-size="13" lengthAdjust="spacing" textLength="80" x="707.75" y="655.4004">render HTML</text><polygon fill="#181818" points="1438,685.4531,1448,689.4531,1438,693.4531" style="stroke:#181818;stroke-width:1.0;"/><line style="stroke:#181818;stroke-width:1.0;" x1="45.5" x2="1444" y1="689.4531" y2="689.4531"/><text fill="#000000" font-family="sans-serif" font-size="13" lengthAdjust="spacing" textLength="232" x="631.75" y="684.7109">enters a valid default expense values</text><polygon fill="#181818" points="2451.5,714.7637,2461.5,718.7637,2451.5,722.7637" style="stroke:#181818;stroke-width:1.0;"/><line style="stroke:#181818;stroke-width:1.0;" x1="1450" x2="2457.5" y1="718.7637" y2="718.7637"/><text fill="#000000" font-family="sans-serif" font-size="13" lengthAdjust="spacing" textLength="121" x="1896.25" y="714.0215">call page controller</text><polygon fill="#181818" points="4317.5,744.0742,4327.5,748.0742,4317.5,752.0742" style="stroke:#181818;stroke-width:1.0;"/><line style="stroke:#181818;stroke-width:1.0;" x1="2463.5" x2="4323.5" y1="748.0742" y2="748.0742"/><text fill="#000000" font-family="sans-serif" font-size="13" lengthAdjust="spacing" textLength="95" x="3349" y="743.332">validate details</text><path d="M10,763.0742 L72,763.0742 L72,770.3848 L62,780.3848 L10,780.3848 L10,763.0742 " fill="#EEEEEE" style="stroke:#000000;stroke-width:1.5;"/><rect fill="none" height="163.8633" style="stroke:#000000;stroke-width:1.5;" width="4424.5" x="10" y="763.0742"/><text fill="#000000" font-family="sans-serif" font-size="13" font-weight="bold" lengthAdjust="spacing" textLength="17" x="25" y="776.6426">alt</text><text fill="#000000" font-family="sans-serif" font-size="11" font-weight="bold" lengthAdjust="spacing" textLength="132" x="87" y="775.709">[Invalid values entered]</text><polygon fill="#181818" points="2474.5,797.6953,2464.5,801.6953,2474.5,805.6953" style="stroke:#181818;stroke-width:1.0;"/><line style="stroke:#181818;stroke-width:1.0;" x1="2468.5" x2="4328.5" y1="801.6953" y2="801.6953"/><text fill="#000000" font-family="sans-serif" font-size="13" lengthAdjust="spacing" textLength="137" x="3328" y="796.9531">Invalid values entered</text><polygon fill="#181818" points="3919.5,827.0059,3929.5,831.0059,3919.5,835.0059" style="stroke:#181818;stroke-width:1.0;"/><line style="stroke:#181818;stroke-width:1.0;" x1="2463.5" x2="3925.5" y1="831.0059" y2="831.0059"/><text fill="#000000" font-family="sans-serif" font-size="13" lengthAdjust="spacing" textLength="169" x="3113" y="826.2637">request and build template</text><polygon fill="#181818" points="2474.5,856.3164,2464.5,860.3164,2474.5,864.3164" style="stroke:#181818;stroke-width:1.0;"/><line style="stroke:#181818;stroke-width:1.0;" x1="2468.5" x2="3930.5" y1="860.3164" y2="860.3164"/><text fill="#000000" font-family="sans-serif" font-size="13" lengthAdjust="spacing" textLength="78" x="3158.5" y="855.5742">return HTML</text><polygon fill="#181818" points="1461,885.627,1451,889.627,1461,893.627" style="stroke:#181818;stroke-width:1.0;"/><line style="stroke:#181818;stroke-width:1.0;" x1="1455" x2="2462.5" y1="889.627" y2="889.627"/><text fill="#000000" font-family="sans-serif" font-size="13" lengthAdjust="spacing" textLength="112" x="1900.75" y="884.8848">return error HTML</text><polygon fill="#181818" points="56.5,914.9375,46.5,918.9375,56.5,922.9375" style="stroke:#181818;stroke-width:1.0;"/><line style="stroke:#181818;stroke-width:1.0;" x1="50.5" x2="1449" y1="918.9375" y2="918.9375"/><text fill="#000000" font-family="sans-serif" font-size="13" lengthAdjust="spacing" textLength="133" x="681.25" y="914.1953">render error message</text><polygon fill="#181818" points="2474.5,951.248,2464.5,955.248,2474.5,959.248" style="stroke:#181818;stroke-width:1.0;"/><line style="stroke:#181818;stroke-width:1.0;" x1="2468.5" x2="4328.5" y1="955.248" y2="955.248"/><text fill="#000000" font-family="sans-serif" font-size="13" lengthAdjust="spacing" textLength="127" x="3333" y="950.5059">valid details entered</text><polygon fill="#181818" points="2886.5,980.5586,2896.5,984.5586,2886.5,988.5586" style="stroke:#181818;stroke-width:1.0;"/><line style="stroke:#181818;stroke-width:1.0;" x1="2463.5" x2="2892.5" y1="984.5586" y2="984.5586"/><text fill="#000000" font-family="sans-serif" font-size="13" lengthAdjust="spacing" textLength="126" x="2618" y="979.8164">build request object</text><polygon fill="#181818" points="4493,1009.8691,4503,1013.8691,4493,1017.8691" style="stroke:#181818;stroke-width:1.0;"/><line style="stroke:#181818;stroke-width:1.0;" x1="2898.5" x2="4499" y1="1013.8691" y2="1013.8691"/><text fill="#000000" font-family="sans-serif" font-size="13" lengthAdjust="spacing" textLength="138" x="3632.75" y="1009.127">send backend request</text><path d="M10,1028.8691 L72,1028.8691 L72,1036.1797 L62,1046.1797 L10,1046.1797 L10,1028.8691 " fill="#EEEEEE" style="stroke:#000000;stroke-width:1.5;"/><rect fill="none" height="193.1738" style="stroke:#000000;stroke-width:1.5;" width="4575.5" x="10" y="1028.8691"/><text fill="#000000" font-family="sans-serif" font-size="13" font-weight="bold" lengthAdjust="spacing" textLength="17" x="25" y="1042.4375">alt</text><text fill="#000000" font-family="sans-serif" font-size="11" font-weight="bold" lengthAdjust="spacing" textLength="173" x="87" y="1041.5039">[Failed to set default expenses]</text><polygon fill="#181818" points="2909.5,1063.4902,2899.5,1067.4902,2909.5,1071.4902" style="stroke:#181818;stroke-width:1.0;"/><line style="stroke:#181818;stroke-width:1.0;stroke-dasharray:2.0,2.0;" x1="2903.5" x2="4504" y1="1067.4902" y2="1067.4902"/><text fill="#000000" font-family="sans-serif" font-size="13" lengthAdjust="spacing" textLength="91" x="3656.25" y="1062.748">Error response</text><polygon fill="#181818" points="2474.5,1092.8008,2464.5,1096.8008,2474.5,1100.8008" style="stroke:#181818;stroke-width:1.0;"/><line style="stroke:#181818;stroke-width:1.0;stroke-dasharray:2.0,2.0;" x1="2468.5" x2="2897.5" y1="1096.8008" y2="1096.8008"/><text fill="#000000" font-family="sans-serif" font-size="13" lengthAdjust="spacing" textLength="127" x="2617.5" y="1092.0586">reject requestObject</text><polygon fill="#181818" points="4132.5,1122.1113,4142.5,1126.1113,4132.5,1130.1113" style="stroke:#181818;stroke-width:1.0;"/><line style="stroke:#181818;stroke-width:1.0;" x1="2463.5" x2="4138.5" y1="1126.1113" y2="1126.1113"/><text fill="#000000" font-family="sans-serif" font-size="13" lengthAdjust="spacing" textLength="169" x="3219.5" y="1121.3691">request and build template</text><polygon fill="#181818" points="2474.5,1151.4219,2464.5,1155.4219,2474.5,1159.4219" style="stroke:#181818;stroke-width:1.0;"/><line style="stroke:#181818;stroke-width:1.0;" x1="2468.5" x2="4143.5" y1="1155.4219" y2="1155.4219"/><text fill="#000000" font-family="sans-serif" font-size="13" lengthAdjust="spacing" textLength="78" x="3265" y="1150.6797">return HTML</text><polygon fill="#181818" points="1820,1180.7324,1810,1184.7324,1820,1188.7324" style="stroke:#181818;stroke-width:1.0;"/><line style="stroke:#181818;stroke-width:1.0;" x1="1814" x2="2462.5" y1="1184.7324" y2="1184.7324"/><text fill="#000000" font-family="sans-serif" font-size="13" lengthAdjust="spacing" textLength="78" x="2097.25" y="1179.9902">return HTML</text><polygon fill="#181818" points="56.5,1210.043,46.5,1214.043,56.5,1218.043" style="stroke:#181818;stroke-width:1.0;"/><line style="stroke:#181818;stroke-width:1.0;" x1="50.5" x2="1808" y1="1214.043" y2="1214.043"/><text fill="#000000" font-family="sans-serif" font-size="13" lengthAdjust="spacing" textLength="108" x="873.25" y="1209.3008">render error page</text><polygon fill="#181818" points="2909.5,1246.3535,2899.5,1250.3535,2909.5,1254.3535" style="stroke:#181818;stroke-width:1.0;"/><line style="stroke:#181818;stroke-width:1.0;" x1="2903.5" x2="4504" y1="1250.3535" y2="1250.3535"/><text fill="#000000" font-family="sans-serif" font-size="13" lengthAdjust="spacing" textLength="77" x="3663.25" y="1245.6113">ok response</text><polygon fill="#181818" points="2474.5,1275.6641,2464.5,1279.6641,2474.5,1283.6641" style="stroke:#181818;stroke-width:1.0;"/><line style="stroke:#181818;stroke-width:1.0;" x1="2468.5" x2="2897.5" y1="1279.6641" y2="1279.6641"/><text fill="#000000" font-family="sans-serif" font-size="13" lengthAdjust="spacing" textLength="96" x="2633" y="1274.9219">resolve request</text><path d="M10,1294.6641 L294,1294.6641 L294,1301.9746 L284,1311.9746 L10,1311.9746 L10,1294.6641 " fill="#EEEEEE" style="stroke:#000000;stroke-width:1.5;"/><rect fill="none" height="325.3711" style="stroke:#000000;stroke-width:1.5;" width="3798.5" x="10" y="1294.6641"/><text fill="#000000" font-family="sans-serif" font-size="13" font-weight="bold" lengthAdjust="spacing" textLength="239" x="25" y="1308.2324">Initally navigated from juror record</text><polygon fill="#181818" points="1997.5,1329.2852,1987.5,1333.2852,1997.5,1337.2852" style="stroke:#181818;stroke-width:1.0;"/><line style="stroke:#181818;stroke-width:1.0;" x1="1991.5" x2="2462.5" y1="1333.2852" y2="1333.2852"/><text fill="#000000" font-family="sans-serif" font-size="13" lengthAdjust="spacing" textLength="230" x="2110" y="1328.543">call juror record controller controller</text><polygon fill="#181818" points="3180,1358.5957,3190,1362.5957,3180,1366.5957" style="stroke:#181818;stroke-width:1.0;"/><line style="stroke:#181818;stroke-width:1.0;" x1="1986.5" x2="3186" y1="1362.5957" y2="1362.5957"/><text fill="#000000" font-family="sans-serif" font-size="13" lengthAdjust="spacing" textLength="169" x="2504.75" y="1357.8535">request and build template</text><polygon fill="#181818" points="1997.5,1387.9063,1987.5,1391.9063,1997.5,1395.9063" style="stroke:#181818;stroke-width:1.0;"/><line style="stroke:#181818;stroke-width:1.0;" x1="1991.5" x2="3191" y1="1391.9063" y2="1391.9063"/><text fill="#000000" font-family="sans-serif" font-size="13" lengthAdjust="spacing" textLength="78" x="2550.25" y="1387.1641">return HTML</text><polygon fill="#181818" points="342.5,1417.2168,332.5,1421.2168,342.5,1425.2168" style="stroke:#181818;stroke-width:1.0;"/><line style="stroke:#181818;stroke-width:1.0;" x1="336.5" x2="1985.5" y1="1421.2168" y2="1421.2168"/><text fill="#000000" font-family="sans-serif" font-size="13" lengthAdjust="spacing" textLength="78" x="1120" y="1416.4746">return HTML</text><polygon fill="#181818" points="56.5,1446.5273,46.5,1450.5273,56.5,1454.5273" style="stroke:#181818;stroke-width:1.0;"/><line style="stroke:#181818;stroke-width:1.0;" x1="50.5" x2="330.5" y1="1450.5273" y2="1450.5273"/><text fill="#000000" font-family="sans-serif" font-size="13" lengthAdjust="spacing" textLength="80" x="148.5" y="1445.7852">render HTML</text><line style="stroke:#000000;stroke-width:1.0;stroke-dasharray:2.0,2.0;" x1="10" x2="3808.5" y1="1459.5273" y2="1459.5273"/><text fill="#000000" font-family="sans-serif" font-size="11" font-weight="bold" lengthAdjust="spacing" textLength="225" x="15" y="1470.1621">[Initally navigated from expense record]</text><polygon fill="#181818" points="2220.5,1490.793,2210.5,1494.793,2220.5,1498.793" style="stroke:#181818;stroke-width:1.0;"/><line style="stroke:#181818;stroke-width:1.0;" x1="2214.5" x2="2462.5" y1="1494.793" y2="1494.793"/><text fill="#000000" font-family="sans-serif" font-size="13" lengthAdjust="spacing" textLength="230" x="2221.5" y="1490.0508">call juror record controller controller</text><polygon fill="#181818" points="3576,1520.1035,3586,1524.1035,3576,1528.1035" style="stroke:#181818;stroke-width:1.0;"/><line style="stroke:#181818;stroke-width:1.0;" x1="2209.5" x2="3582" y1="1524.1035" y2="1524.1035"/><text fill="#000000" font-family="sans-serif" font-size="13" lengthAdjust="spacing" textLength="169" x="2814.25" y="1519.3613">request and build template</text><polygon fill="#181818" points="2220.5,1549.4141,2210.5,1553.4141,2220.5,1557.4141" style="stroke:#181818;stroke-width:1.0;"/><line style="stroke:#181818;stroke-width:1.0;" x1="2214.5" x2="3587" y1="1553.4141" y2="1553.4141"/><text fill="#000000" font-family="sans-serif" font-size="13" lengthAdjust="spacing" textLength="78" x="2859.75" y="1548.6719">return HTML</text><polygon fill="#181818" points="858.5,1578.7246,848.5,1582.7246,858.5,1586.7246" style="stroke:#181818;stroke-width:1.0;"/><line style="stroke:#181818;stroke-width:1.0;" x1="852.5" x2="2208.5" y1="1582.7246" y2="1582.7246"/><text fill="#000000" font-family="sans-serif" font-size="13" lengthAdjust="spacing" textLength="78" x="1489.5" y="1577.9824">return HTML</text><polygon fill="#181818" points="56.5,1608.0352,46.5,1612.0352,56.5,1616.0352" style="stroke:#181818;stroke-width:1.0;"/><line style="stroke:#181818;stroke-width:1.0;" x1="50.5" x2="846.5" y1="1612.0352" y2="1612.0352"/><text fill="#000000" font-family="sans-serif" font-size="13" lengthAdjust="spacing" textLength="80" x="406.5" y="1607.293">render HTML</text><!--SRC=[fLRRRk8m47ttLynsAxL8NDvHLIc5jA9BIHVIlgvSPu20SRAsmsx_VfqBa42SbkuB0djynkVCp37BC41810_56WFoBHIC9sPbWG9bo3flF69hrOqv5JhPS4BKEXGnbNG3C_tE4PGsOUaMbBVmTuA2uHCgHHVey70XDYWqCFE1aX0JfaCMnWOL7AOZitHrTGLZR-2COUgz-AF9GoNeCP6Hd2ABPE3-ZL4eLCy66MvkUgjqgxEXmlnEa_Ha5jRhPnkJPFE6ieV5eTlR2knGqhak07DqAsfYk8L1XsgD8g26t0wpKvUl7qSHpxyVfyGvJRZ-aCNknbRSNf0ZTIpS7l8IkjAStcN1z8U9ozGUU1D_wet7xXISoH2cxiyNT-Q3T_Ve3loPJVv19BICE4Tf0FDRvm9qsNwdkpANWU-cx4lzZfn7Vofe5S4hU5L9Fuzu96eTfleoclUsGgODKb1T7pfUTu7wkjM4DKDz1bmSgHgyh5g- -_GyTdntzj5S-BWnuwfnNvvIKvNhjU-mhbYjivHqQrhRZ6VpX3JX7ut4KJaRyrJ5A2NP3y9nlpVYPMrVGlcLjRxg5SPsSZRJ-7uqzjtfB1k7LsSy6Zg-DvqrtVELyZ2WUmExSmO_N7FuC5gLmtUKhKswGtiIif1H4iE4RiD5Uj6vZ3QGoGgvQ0HoWuJEhTK4-y1uoDP0Wm1C95jIOLOBkM0d5wGUR-1iA2Q1VOnC2ihv0UimImIvmYC2HLWD1OlXdiV00l9b0Y8WvB9e3ETvD321rrQaThqzjAiTruQBUnfo3417C4VDbdbLrGcfYnO1SYcpBjoTzgEKq1btEAIjULvQX1pqhtbz-f2zoWeeRDDsFhvYkfgW8dLdFwDvd0QMz2QNstngS2JYH9z1SpzjvmbWYZ4IERMSIauO0wFzEOMtUNbJxHNgkf8NSpyIeJP9tq4KynFKEe1Tugehd6fV1YhLe5mEWFhkgyLjDxquRPktj7AJiB4ziOj6lhP_3__Fs8BSRdW4snOpQcMkyWy0]--></g></svg>