<?xml version="1.0" encoding="us-ascii" standalone="no"?><svg xmlns="http://www.w3.org/2000/svg" xmlns:xlink="http://www.w3.org/1999/xlink" contentStyleType="text/css" height="1346px" preserveAspectRatio="none" style="width:2656px;height:1346px;background:#FFFFFF;" version="1.1" viewBox="0 0 2656 1346" width="2656px" zoomAndPan="magnify"><defs/><g><rect fill="none" height="163.8633" style="stroke:#000000;stroke-width:1.5;" width="2319.5" x="10" y="333.7715"/><rect fill="none" height="193.1738" style="stroke:#000000;stroke-width:1.5;" width="2640.5" x="10" y="599.5664"/><rect fill="none" height="193.1738" style="stroke:#000000;stroke-width:1.5;" width="2640.5" x="10" y="953.293"/><line style="stroke:#181818;stroke-width:0.5;stroke-dasharray:5.0,5.0;" x1="45" x2="45" y1="52.9766" y2="1339.3301"/><line style="stroke:#181818;stroke-width:0.5;stroke-dasharray:5.0,5.0;" x1="316.5" x2="316.5" y1="52.9766" y2="1339.3301"/><line style="stroke:#181818;stroke-width:0.5;stroke-dasharray:5.0,5.0;" x1="656.5" x2="656.5" y1="52.9766" y2="1339.3301"/><line style="stroke:#181818;stroke-width:0.5;stroke-dasharray:5.0,5.0;" x1="914.5" x2="914.5" y1="52.9766" y2="1339.3301"/><line style="stroke:#181818;stroke-width:0.5;stroke-dasharray:5.0,5.0;" x1="1106.5" x2="1106.5" y1="52.9766" y2="1339.3301"/><line style="stroke:#181818;stroke-width:0.5;stroke-dasharray:5.0,5.0;" x1="1319.5" x2="1319.5" y1="52.9766" y2="1339.3301"/><line style="stroke:#181818;stroke-width:0.5;stroke-dasharray:5.0,5.0;" x1="1512.5" x2="1512.5" y1="52.9766" y2="1339.3301"/><line style="stroke:#181818;stroke-width:0.5;stroke-dasharray:5.0,5.0;" x1="1717.5" x2="1717.5" y1="52.9766" y2="1339.3301"/><line style="stroke:#181818;stroke-width:0.5;stroke-dasharray:5.0,5.0;" x1="1931.5" x2="1931.5" y1="52.9766" y2="1339.3301"/><line style="stroke:#181818;stroke-width:0.5;stroke-dasharray:5.0,5.0;" x1="2183.5" x2="2183.5" y1="52.9766" y2="1339.3301"/><line style="stroke:#181818;stroke-width:0.5;stroke-dasharray:5.0,5.0;" x1="2409.5" x2="2409.5" y1="52.9766" y2="1339.3301"/><line style="stroke:#181818;stroke-width:0.5;stroke-dasharray:5.0,5.0;" x1="2569.5" x2="2569.5" y1="52.9766" y2="1339.3301"/><rect fill="#E2E2F0" height="30.4883" rx="2.5" ry="2.5" style="stroke:#181818;stroke-width:0.5;" width="51" x="20" y="21.4883"/><text fill="#000000" font-family="sans-serif" font-size="14" lengthAdjust="spacing" textLength="37" x="27" y="42.0234">Actor</text><rect fill="#E2E2F0" height="46.9766" rx="2.5" ry="2.5" style="stroke:#181818;stroke-width:0.5;" width="300" x="166.5" y="5"/><text fill="#000000" font-family="sans-serif" font-size="14" font-style="italic" lengthAdjust="spacing" textLength="286" x="173.5" y="25.5352">&#171;/administration/room-locations/rooms&#187;</text><text fill="#000000" font-family="sans-serif" font-size="14" lengthAdjust="spacing" textLength="80" x="276.5" y="42.0234">RoomsPage</text><rect fill="#E2E2F0" height="46.9766" rx="2.5" ry="2.5" style="stroke:#181818;stroke-width:0.5;" width="361" x="476.5" y="5"/><text fill="#000000" font-family="sans-serif" font-size="14" font-style="italic" lengthAdjust="spacing" textLength="347" x="483.5" y="25.5352">&#171;/administration/room-locations/add-edit-room&#187;</text><text fill="#000000" font-family="sans-serif" font-size="14" lengthAdjust="spacing" textLength="108" x="603" y="42.0234">AddRoomsPage</text><rect fill="#E2E2F0" height="46.9766" rx="2.5" ry="2.5" style="stroke:#181818;stroke-width:0.5;" width="134" x="847.5" y="5"/><text fill="#000000" font-family="sans-serif" font-size="14" font-style="italic" lengthAdjust="spacing" textLength="56" x="886.5" y="25.5352">&#171;/error&#187;</text><text fill="#000000" font-family="sans-serif" font-size="14" lengthAdjust="spacing" textLength="120" x="854.5" y="42.0234">GenericErrorPage</text><rect fill="#FFFFE0" height="46.9766" rx="2.5" ry="2.5" style="stroke:#181818;stroke-width:0.5;" width="231" x="991.5" y="5"/><text fill="#000000" font-family="sans-serif" font-size="14" font-style="italic" lengthAdjust="spacing" textLength="217" x="998.5" y="25.5352">&#171;non-sitting-days.controller.js&#187;</text><text fill="#000000" font-family="sans-serif" font-size="14" lengthAdjust="spacing" textLength="175" x="1019.5" y="42.0234">RoomLocationsController</text><rect fill="#FFFFE0" height="46.9766" rx="2.5" ry="2.5" style="stroke:#181818;stroke-width:0.5;" width="175" x="1232.5" y="5"/><text fill="#000000" font-family="sans-serif" font-size="14" font-style="italic" lengthAdjust="spacing" textLength="161" x="1239.5" y="25.5352">&#171;courtroomsDAO.get()&#187;</text><text fill="#000000" font-family="sans-serif" font-size="14" lengthAdjust="spacing" textLength="149" x="1245.5" y="42.0234">RoomLocationsObject</text><rect fill="#FFFFE0" height="46.9766" rx="2.5" ry="2.5" style="stroke:#181818;stroke-width:0.5;" width="191" x="1417.5" y="5"/><text fill="#000000" font-family="sans-serif" font-size="14" font-style="italic" lengthAdjust="spacing" textLength="169" x="1428.5" y="25.5352">&#171;courtroomsDAO.post()&#187;</text><text fill="#000000" font-family="sans-serif" font-size="14" lengthAdjust="spacing" textLength="177" x="1424.5" y="42.0234">AddRoomLocationsObject</text><rect fill="#FFD700" height="30.4883" rx="2.5" ry="2.5" style="stroke:#181818;stroke-width:0.5;" width="198" x="1618.5" y="21.4883"/><text fill="#000000" font-family="sans-serif" font-size="14" lengthAdjust="spacing" textLength="184" x="1625.5" y="42.0234">CourtroomDetailsValidator</text><rect fill="#E2E2F0" height="46.9766" rx="2.5" ry="2.5" style="stroke:#181818;stroke-width:0.5;" width="211" x="1826.5" y="5"/><text fill="#000000" font-family="sans-serif" font-size="14" font-style="italic" lengthAdjust="spacing" textLength="197" x="1833.5" y="25.5352">&#171;/administration/rooms.njk&#187;</text><text fill="#000000" font-family="sans-serif" font-size="14" lengthAdjust="spacing" textLength="111" x="1876.5" y="42.0234">RoomsTemplate</text><rect fill="#E2E2F0" height="46.9766" rx="2.5" ry="2.5" style="stroke:#181818;stroke-width:0.5;" width="272" x="2047.5" y="5"/><text fill="#000000" font-family="sans-serif" font-size="14" font-style="italic" lengthAdjust="spacing" textLength="258" x="2054.5" y="25.5352">&#171;/administration/add-edit-room.njk&#187;</text><text fill="#000000" font-family="sans-serif" font-size="14" lengthAdjust="spacing" textLength="165" x="2101" y="42.0234">AddEditRoomsTemplate</text><rect fill="#E6E6FA" height="46.9766" rx="2.5" ry="2.5" style="stroke:#181818;stroke-width:0.5;" width="160" x="2329.5" y="5"/><text fill="#000000" font-family="sans-serif" font-size="14" font-style="italic" lengthAdjust="spacing" textLength="146" x="2336.5" y="25.5352">&#171;_errors/generic.njk&#187;</text><text fill="#000000" font-family="sans-serif" font-size="14" lengthAdjust="spacing" textLength="99" x="2360" y="42.0234">ErrorTemplate</text><rect fill="#E2E2F0" height="30.4883" rx="2.5" ry="2.5" style="stroke:#181818;stroke-width:0.5;" width="141" x="2499.5" y="21.4883"/><text fill="#000000" font-family="sans-serif" font-size="14" lengthAdjust="spacing" textLength="127" x="2506.5" y="42.0234">BackendController</text><polygon fill="#181818" points="304.5,80.2871,314.5,84.2871,304.5,88.2871" style="stroke:#181818;stroke-width:1.0;"/><line style="stroke:#181818;stroke-width:1.0;" x1="45.5" x2="310.5" y1="84.2871" y2="84.2871"/><text fill="#000000" font-family="sans-serif" font-size="13" lengthAdjust="spacing" textLength="247" x="57.5" y="79.5449">click add room on room locations page</text><polygon fill="#181818" points="1095,109.5977,1105,113.5977,1095,117.5977" style="stroke:#181818;stroke-width:1.0;"/><line style="stroke:#181818;stroke-width:1.0;" x1="316.5" x2="1101" y1="113.5977" y2="113.5977"/><text fill="#000000" font-family="sans-serif" font-size="13" lengthAdjust="spacing" textLength="131" x="646.25" y="108.8555">call rooms controller</text><polygon fill="#181818" points="2171.5,138.9082,2181.5,142.9082,2171.5,146.9082" style="stroke:#181818;stroke-width:1.0;"/><line style="stroke:#181818;stroke-width:1.0;" x1="1107" x2="2177.5" y1="142.9082" y2="142.9082"/><text fill="#000000" font-family="sans-serif" font-size="13" lengthAdjust="spacing" textLength="169" x="1560.75" y="138.166">request and build template</text><polygon fill="#181818" points="1118,168.2188,1108,172.2188,1118,176.2188" style="stroke:#181818;stroke-width:1.0;"/><line style="stroke:#181818;stroke-width:1.0;" x1="1112" x2="2182.5" y1="172.2188" y2="172.2188"/><text fill="#000000" font-family="sans-serif" font-size="13" lengthAdjust="spacing" textLength="78" x="1606.25" y="167.4766">return HTML</text><polygon fill="#181818" points="668,197.5293,658,201.5293,668,205.5293" style="stroke:#181818;stroke-width:1.0;"/><line style="stroke:#181818;stroke-width:1.0;" x1="662" x2="1106" y1="201.5293" y2="201.5293"/><text fill="#000000" font-family="sans-serif" font-size="13" lengthAdjust="spacing" textLength="78" x="843" y="196.7871">return HTML</text><polygon fill="#181818" points="56.5,226.8398,46.5,230.8398,56.5,234.8398" style="stroke:#181818;stroke-width:1.0;"/><line style="stroke:#181818;stroke-width:1.0;" x1="50.5" x2="656" y1="230.8398" y2="230.8398"/><text fill="#000000" font-family="sans-serif" font-size="13" lengthAdjust="spacing" textLength="80" x="311.25" y="226.0977">render HTML</text><polygon fill="#181818" points="645,256.1504,655,260.1504,645,264.1504" style="stroke:#181818;stroke-width:1.0;"/><line style="stroke:#181818;stroke-width:1.0;" x1="45.5" x2="651" y1="260.1504" y2="260.1504"/><text fill="#000000" font-family="sans-serif" font-size="13" lengthAdjust="spacing" textLength="187" x="257.75" y="255.4082">enter details and click submit</text><polygon fill="#181818" points="1095,285.4609,1105,289.4609,1095,293.4609" style="stroke:#181818;stroke-width:1.0;"/><line style="stroke:#181818;stroke-width:1.0;" x1="657" x2="1101" y1="289.4609" y2="289.4609"/><text fill="#000000" font-family="sans-serif" font-size="13" lengthAdjust="spacing" textLength="148" x="808" y="284.7188">POST courtroom details</text><polygon fill="#181818" points="1705.5,314.7715,1715.5,318.7715,1705.5,322.7715" style="stroke:#181818;stroke-width:1.0;"/><line style="stroke:#181818;stroke-width:1.0;" x1="1107" x2="1711.5" y1="318.7715" y2="318.7715"/><text fill="#000000" font-family="sans-serif" font-size="13" lengthAdjust="spacing" textLength="95" x="1364.75" y="314.0293">validate details</text><path d="M10,333.7715 L72,333.7715 L72,341.082 L62,351.082 L10,351.082 L10,333.7715 " fill="#EEEEEE" style="stroke:#000000;stroke-width:1.5;"/><rect fill="none" height="163.8633" style="stroke:#000000;stroke-width:1.5;" width="2319.5" x="10" y="333.7715"/><text fill="#000000" font-family="sans-serif" font-size="13" font-weight="bold" lengthAdjust="spacing" textLength="17" x="25" y="347.3398">alt</text><text fill="#000000" font-family="sans-serif" font-size="11" font-weight="bold" lengthAdjust="spacing" textLength="133" x="87" y="346.4063">[invalid details entered]</text><polygon fill="#181818" points="1118,368.3926,1108,372.3926,1118,376.3926" style="stroke:#181818;stroke-width:1.0;"/><line style="stroke:#181818;stroke-width:1.0;" x1="1112" x2="1716.5" y1="372.3926" y2="372.3926"/><text fill="#000000" font-family="sans-serif" font-size="13" lengthAdjust="spacing" textLength="88" x="1368.25" y="367.6504">invalid details</text><polygon fill="#181818" points="2171.5,397.7031,2181.5,401.7031,2171.5,405.7031" style="stroke:#181818;stroke-width:1.0;"/><line style="stroke:#181818;stroke-width:1.0;" x1="1107" x2="2177.5" y1="401.7031" y2="401.7031"/><text fill="#000000" font-family="sans-serif" font-size="13" lengthAdjust="spacing" textLength="169" x="1560.75" y="396.9609">request and build template</text><polygon fill="#181818" points="1118,427.0137,1108,431.0137,1118,435.0137" style="stroke:#181818;stroke-width:1.0;"/><line style="stroke:#181818;stroke-width:1.0;" x1="1112" x2="2182.5" y1="431.0137" y2="431.0137"/><text fill="#000000" font-family="sans-serif" font-size="13" lengthAdjust="spacing" textLength="78" x="1606.25" y="426.2715">return HTML</text><polygon fill="#181818" points="668,456.3242,658,460.3242,668,464.3242" style="stroke:#181818;stroke-width:1.0;"/><line style="stroke:#181818;stroke-width:1.0;" x1="662" x2="1106" y1="460.3242" y2="460.3242"/><text fill="#000000" font-family="sans-serif" font-size="13" lengthAdjust="spacing" textLength="112" x="826" y="455.582">return error HTML</text><polygon fill="#181818" points="56.5,485.6348,46.5,489.6348,56.5,493.6348" style="stroke:#181818;stroke-width:1.0;"/><line style="stroke:#181818;stroke-width:1.0;" x1="50.5" x2="656" y1="489.6348" y2="489.6348"/><text fill="#000000" font-family="sans-serif" font-size="13" lengthAdjust="spacing" textLength="133" x="284.75" y="484.8926">render error message</text><polygon fill="#181818" points="1118,521.9453,1108,525.9453,1118,529.9453" style="stroke:#181818;stroke-width:1.0;"/><line style="stroke:#181818;stroke-width:1.0;" x1="1112" x2="1716.5" y1="525.9453" y2="525.9453"/><text fill="#000000" font-family="sans-serif" font-size="13" lengthAdjust="spacing" textLength="127" x="1348.75" y="521.2031">valid details entered</text><polygon fill="#181818" points="1501,551.2559,1511,555.2559,1501,559.2559" style="stroke:#181818;stroke-width:1.0;"/><line style="stroke:#181818;stroke-width:1.0;" x1="1107" x2="1507" y1="555.2559" y2="555.2559"/><text fill="#000000" font-family="sans-serif" font-size="13" lengthAdjust="spacing" textLength="126" x="1247" y="550.5137">build request object</text><polygon fill="#181818" points="2558,580.5664,2568,584.5664,2558,588.5664" style="stroke:#181818;stroke-width:1.0;"/><line style="stroke:#181818;stroke-width:1.0;" x1="1513" x2="2564" y1="584.5664" y2="584.5664"/><text fill="#000000" font-family="sans-serif" font-size="13" lengthAdjust="spacing" textLength="138" x="1972.5" y="579.8242">send backend request</text><path d="M10,599.5664 L72,599.5664 L72,606.877 L62,616.877 L10,616.877 L10,599.5664 " fill="#EEEEEE" style="stroke:#000000;stroke-width:1.5;"/><rect fill="none" height="193.1738" style="stroke:#000000;stroke-width:1.5;" width="2640.5" x="10" y="599.5664"/><text fill="#000000" font-family="sans-serif" font-size="13" font-weight="bold" lengthAdjust="spacing" textLength="17" x="25" y="613.1348">alt</text><text fill="#000000" font-family="sans-serif" font-size="11" font-weight="bold" lengthAdjust="spacing" textLength="143" x="87" y="612.2012">[Failed to add courtroom]</text><polygon fill="#181818" points="1524,634.1875,1514,638.1875,1524,642.1875" style="stroke:#181818;stroke-width:1.0;"/><line style="stroke:#181818;stroke-width:1.0;stroke-dasharray:2.0,2.0;" x1="1518" x2="2569" y1="638.1875" y2="638.1875"/><text fill="#000000" font-family="sans-serif" font-size="13" lengthAdjust="spacing" textLength="91" x="1996" y="633.4453">error response</text><polygon fill="#181818" points="1118,663.498,1108,667.498,1118,671.498" style="stroke:#181818;stroke-width:1.0;"/><line style="stroke:#181818;stroke-width:1.0;stroke-dasharray:2.0,2.0;" x1="1112" x2="1512" y1="667.498" y2="667.498"/><text fill="#000000" font-family="sans-serif" font-size="13" lengthAdjust="spacing" textLength="127" x="1246.5" y="662.7559">reject requestObject</text><polygon fill="#181818" points="2397.5,692.8086,2407.5,696.8086,2397.5,700.8086" style="stroke:#181818;stroke-width:1.0;"/><line style="stroke:#181818;stroke-width:1.0;" x1="1107" x2="2403.5" y1="696.8086" y2="696.8086"/><text fill="#000000" font-family="sans-serif" font-size="13" lengthAdjust="spacing" textLength="169" x="1673.75" y="692.0664">request and build template</text><polygon fill="#181818" points="1118,722.1191,1108,726.1191,1118,730.1191" style="stroke:#181818;stroke-width:1.0;"/><line style="stroke:#181818;stroke-width:1.0;" x1="1112" x2="2408.5" y1="726.1191" y2="726.1191"/><text fill="#000000" font-family="sans-serif" font-size="13" lengthAdjust="spacing" textLength="78" x="1719.25" y="721.377">return HTML</text><polygon fill="#181818" points="925.5,751.4297,915.5,755.4297,925.5,759.4297" style="stroke:#181818;stroke-width:1.0;"/><line style="stroke:#181818;stroke-width:1.0;" x1="919.5" x2="1106" y1="755.4297" y2="755.4297"/><text fill="#000000" font-family="sans-serif" font-size="13" lengthAdjust="spacing" textLength="78" x="971.75" y="750.6875">return HTML</text><polygon fill="#181818" points="56.5,780.7402,46.5,784.7402,56.5,788.7402" style="stroke:#181818;stroke-width:1.0;"/><line style="stroke:#181818;stroke-width:1.0;" x1="50.5" x2="913.5" y1="784.7402" y2="784.7402"/><text fill="#000000" font-family="sans-serif" font-size="13" lengthAdjust="spacing" textLength="108" x="426" y="779.998">render error page</text><polygon fill="#181818" points="1524,817.0508,1514,821.0508,1524,825.0508" style="stroke:#181818;stroke-width:1.0;"/><line style="stroke:#181818;stroke-width:1.0;" x1="1518" x2="2569" y1="821.0508" y2="821.0508"/><text fill="#000000" font-family="sans-serif" font-size="13" lengthAdjust="spacing" textLength="77" x="2003" y="816.3086">ok response</text><polygon fill="#181818" points="1118,846.3613,1108,850.3613,1118,854.3613" style="stroke:#181818;stroke-width:1.0;"/><line style="stroke:#181818;stroke-width:1.0;" x1="1112" x2="1512" y1="850.3613" y2="850.3613"/><text fill="#000000" font-family="sans-serif" font-size="13" lengthAdjust="spacing" textLength="96" x="1262" y="845.6191">resolve request</text><polygon fill="#181818" points="1095,875.6719,1105,879.6719,1095,883.6719" style="stroke:#181818;stroke-width:1.0;"/><line style="stroke:#181818;stroke-width:1.0;" x1="316.5" x2="1101" y1="879.6719" y2="879.6719"/><text fill="#000000" font-family="sans-serif" font-size="13" lengthAdjust="spacing" textLength="131" x="646.25" y="874.9297">call rooms controller</text><polygon fill="#181818" points="1308,904.9824,1318,908.9824,1308,912.9824" style="stroke:#181818;stroke-width:1.0;"/><line style="stroke:#181818;stroke-width:1.0;" x1="1107" x2="1314" y1="908.9824" y2="908.9824"/><text fill="#000000" font-family="sans-serif" font-size="13" lengthAdjust="spacing" textLength="126" x="1150.5" y="904.2402">build request object</text><polygon fill="#181818" points="2558,934.293,2568,938.293,2558,942.293" style="stroke:#181818;stroke-width:1.0;"/><line style="stroke:#181818;stroke-width:1.0;" x1="1320" x2="2564" y1="938.293" y2="938.293"/><text fill="#000000" font-family="sans-serif" font-size="13" lengthAdjust="spacing" textLength="138" x="1876" y="933.5508">send backend request</text><path d="M10,953.293 L72,953.293 L72,960.6035 L62,970.6035 L10,970.6035 L10,953.293 " fill="#EEEEEE" style="stroke:#000000;stroke-width:1.5;"/><rect fill="none" height="193.1738" style="stroke:#000000;stroke-width:1.5;" width="2640.5" x="10" y="953.293"/><text fill="#000000" font-family="sans-serif" font-size="13" font-weight="bold" lengthAdjust="spacing" textLength="17" x="25" y="966.8613">alt</text><text fill="#000000" font-family="sans-serif" font-size="11" font-weight="bold" lengthAdjust="spacing" textLength="152" x="87" y="965.9277">[Failed to fetch courtooms]</text><polygon fill="#181818" points="1331,987.9141,1321,991.9141,1331,995.9141" style="stroke:#181818;stroke-width:1.0;"/><line style="stroke:#181818;stroke-width:1.0;stroke-dasharray:2.0,2.0;" x1="1325" x2="2569" y1="991.9141" y2="991.9141"/><text fill="#000000" font-family="sans-serif" font-size="13" lengthAdjust="spacing" textLength="91" x="1899.5" y="987.1719">error response</text><polygon fill="#181818" points="1118,1017.2246,1108,1021.2246,1118,1025.2246" style="stroke:#181818;stroke-width:1.0;"/><line style="stroke:#181818;stroke-width:1.0;stroke-dasharray:2.0,2.0;" x1="1112" x2="1319" y1="1021.2246" y2="1021.2246"/><text fill="#000000" font-family="sans-serif" font-size="13" lengthAdjust="spacing" textLength="127" x="1150" y="1016.4824">reject requestObject</text><polygon fill="#181818" points="2397.5,1046.5352,2407.5,1050.5352,2397.5,1054.5352" style="stroke:#181818;stroke-width:1.0;"/><line style="stroke:#181818;stroke-width:1.0;" x1="1107" x2="2403.5" y1="1050.5352" y2="1050.5352"/><text fill="#000000" font-family="sans-serif" font-size="13" lengthAdjust="spacing" textLength="169" x="1673.75" y="1045.793">request and build template</text><polygon fill="#181818" points="1118,1075.8457,1108,1079.8457,1118,1083.8457" style="stroke:#181818;stroke-width:1.0;"/><line style="stroke:#181818;stroke-width:1.0;" x1="1112" x2="2408.5" y1="1079.8457" y2="1079.8457"/><text fill="#000000" font-family="sans-serif" font-size="13" lengthAdjust="spacing" textLength="78" x="1719.25" y="1075.1035">return HTML</text><polygon fill="#181818" points="925.5,1105.1563,915.5,1109.1563,925.5,1113.1563" style="stroke:#181818;stroke-width:1.0;"/><line style="stroke:#181818;stroke-width:1.0;" x1="919.5" x2="1106" y1="1109.1563" y2="1109.1563"/><text fill="#000000" font-family="sans-serif" font-size="13" lengthAdjust="spacing" textLength="78" x="971.75" y="1104.4141">return HTML</text><polygon fill="#181818" points="56.5,1134.4668,46.5,1138.4668,56.5,1142.4668" style="stroke:#181818;stroke-width:1.0;"/><line style="stroke:#181818;stroke-width:1.0;" x1="50.5" x2="913.5" y1="1138.4668" y2="1138.4668"/><text fill="#000000" font-family="sans-serif" font-size="13" lengthAdjust="spacing" textLength="108" x="426" y="1133.7246">render error page</text><polygon fill="#181818" points="1331,1170.7773,1321,1174.7773,1331,1178.7773" style="stroke:#181818;stroke-width:1.0;"/><line style="stroke:#181818;stroke-width:1.0;" x1="1325" x2="2569" y1="1174.7773" y2="1174.7773"/><text fill="#000000" font-family="sans-serif" font-size="13" lengthAdjust="spacing" textLength="77" x="1906.5" y="1170.0352">ok response</text><polygon fill="#181818" points="1118,1200.0879,1108,1204.0879,1118,1208.0879" style="stroke:#181818;stroke-width:1.0;"/><line style="stroke:#181818;stroke-width:1.0;" x1="1112" x2="1319" y1="1204.0879" y2="1204.0879"/><text fill="#000000" font-family="sans-serif" font-size="13" lengthAdjust="spacing" textLength="96" x="1165.5" y="1199.3457">resolve request</text><polygon fill="#181818" points="1920,1229.3984,1930,1233.3984,1920,1237.3984" style="stroke:#181818;stroke-width:1.0;"/><line style="stroke:#181818;stroke-width:1.0;" x1="1107" x2="1926" y1="1233.3984" y2="1233.3984"/><text fill="#000000" font-family="sans-serif" font-size="13" lengthAdjust="spacing" textLength="169" x="1435" y="1228.6563">request and build template</text><polygon fill="#181818" points="1118,1258.709,1108,1262.709,1118,1266.709" style="stroke:#181818;stroke-width:1.0;"/><line style="stroke:#181818;stroke-width:1.0;" x1="1112" x2="1931" y1="1262.709" y2="1262.709"/><text fill="#000000" font-family="sans-serif" font-size="13" lengthAdjust="spacing" textLength="78" x="1480.5" y="1257.9668">return HTML</text><polygon fill="#181818" points="327.5,1288.0195,317.5,1292.0195,327.5,1296.0195" style="stroke:#181818;stroke-width:1.0;"/><line style="stroke:#181818;stroke-width:1.0;" x1="321.5" x2="1106" y1="1292.0195" y2="1292.0195"/><text fill="#000000" font-family="sans-serif" font-size="13" lengthAdjust="spacing" textLength="78" x="672.75" y="1287.2773">return HTML</text><polygon fill="#181818" points="56.5,1317.3301,46.5,1321.3301,56.5,1325.3301" style="stroke:#181818;stroke-width:1.0;"/><line style="stroke:#181818;stroke-width:1.0;" x1="50.5" x2="315.5" y1="1321.3301" y2="1321.3301"/><text fill="#000000" font-family="sans-serif" font-size="13" lengthAdjust="spacing" textLength="80" x="141" y="1316.5879">render HTML</text><!--SRC=[bLN1JkCm4BtxAmQ114Yat2k45Dh0TZSGI0FNbHjRnSInix73Yh_VYPCqX2P5UsbgU-RPxyqR-rKm3fMIGcMS4N8aL2ehdDfonKkHUXkfqypC2acLhN99YCc4AcX9SrZR3yd1M0ohb-3p4lzJSPNoUsuCtN9VYgtAkRAGuWyl2S4mAr9H82hugTKuTNfw2c6qy4E8e-TazN0t28grpiqZOi7LrILbkL02TwPMQ7LPufg7vtGZuuRc-dgu1sF_WK0PypWJrgldlo3TDS84PQdB3etN0unp71RHGn97OHZ4u3yi8GwUdeDr0j7Dps2HhFT8XTsk2wrigQNa9K8ghJmZh1Lgwp7wOMRfRdNsXkJW62LzjHzSIlrt6ZFQlF7K8bwggz8wOPP-DDjoUtP-2AILwpkSGfiH8AV2xIfCWdZj97ZnmzNIJw9uo7xHOIsvfKAQ5oe5e-W5EBxJaZKuIN3_6Ff9i2-SINYEjhHJzJGpzPRjso30kdwNFgZ_28mh_gVytyu0vh9jcYO3HQ7lN37UUll6N_mAK8tU7mFC6vfc6DsxW13N6E1Tz-QVGof5cW4U4EgpWLRDT-TTA32Cz5vliyTSXc1KIfTleFSNcOf7g57zvb3MxMuiKCLWKmd9mBQBas1NtZIOhKe5FvBxa0pRrZj0PP3bT6jswDFhcBeQJKmlxkUWERZx2LZZI4UeKTnKcrnOCZpHGN4V8-pwNRzqa8ISl3S-vojLLFPi0k1YkZqkHfMx610v9z-KSQozvstnkd9gDqqceX5dpxC8ONXjWcQXGoA4IWkto8AZDRIpxquP0fFNZUUDRk6w3R5DWR4SywTDvarpBRdxqnwncKQiayObNw_vwJeDBeDpWjc4J18QvQEpdipXVfbYOhHyvxtQtIkEfeNXqxPxo8yQcZkJETUGVm00]--></g></svg>