<?xml version="1.0" encoding="us-ascii" standalone="no"?><svg xmlns="http://www.w3.org/2000/svg" xmlns:xlink="http://www.w3.org/1999/xlink" contentStyleType="text/css" height="933px" preserveAspectRatio="none" style="width:2989px;height:933px;background:#FFFFFF;" version="1.1" viewBox="0 0 2989 933" width="2989px" zoomAndPan="magnify"><defs/><g><rect fill="none" height="163.8633" style="stroke:#000000;stroke-width:1.5;" width="2678" x="10" y="333.7715"/><rect fill="none" height="193.1738" style="stroke:#000000;stroke-width:1.5;" width="2973" x="10" y="599.5664"/><line style="stroke:#181818;stroke-width:0.5;stroke-dasharray:5.0,5.0;" x1="45" x2="45" y1="52.9766" y2="926.9824"/><line style="stroke:#181818;stroke-width:0.5;stroke-dasharray:5.0,5.0;" x1="391" x2="391" y1="52.9766" y2="926.9824"/><line style="stroke:#181818;stroke-width:0.5;stroke-dasharray:5.0,5.0;" x1="1106" x2="1106" y1="52.9766" y2="926.9824"/><line style="stroke:#181818;stroke-width:0.5;stroke-dasharray:5.0,5.0;" x1="1643" x2="1643" y1="52.9766" y2="926.9824"/><line style="stroke:#181818;stroke-width:0.5;stroke-dasharray:5.0,5.0;" x1="1896" x2="1896" y1="52.9766" y2="926.9824"/><line style="stroke:#181818;stroke-width:0.5;stroke-dasharray:5.0,5.0;" x1="2247" x2="2247" y1="52.9766" y2="926.9824"/><line style="stroke:#181818;stroke-width:0.5;stroke-dasharray:5.0,5.0;" x1="2583" x2="2583" y1="52.9766" y2="926.9824"/><line style="stroke:#181818;stroke-width:0.5;stroke-dasharray:5.0,5.0;" x1="2758" x2="2758" y1="52.9766" y2="926.9824"/><line style="stroke:#181818;stroke-width:0.5;stroke-dasharray:5.0,5.0;" x1="2906" x2="2906" y1="52.9766" y2="926.9824"/><rect fill="#E2E2F0" height="30.4883" rx="2.5" ry="2.5" style="stroke:#181818;stroke-width:0.5;" width="51" x="20" y="21.4883"/><text fill="#000000" font-family="sans-serif" font-size="14" lengthAdjust="spacing" textLength="37" x="27" y="42.0234">Actor</text><rect fill="#E2E2F0" height="46.9766" rx="2.5" ry="2.5" style="stroke:#181818;stroke-width:0.5;" width="621" x="81" y="5"/><text fill="#000000" font-family="sans-serif" font-size="14" font-style="italic" lengthAdjust="spacing" textLength="607" x="88" y="25.5352">&#171;/juror-management/unpaid-attendance/expense-record/:jurorNumber/:poolNumber&#187;</text><text fill="#000000" font-family="sans-serif" font-size="14" lengthAdjust="spacing" textLength="139" x="322" y="42.0234">ExpenseRecordPage</text><rect fill="#E2E2F0" height="46.9766" rx="2.5" ry="2.5" style="stroke:#181818;stroke-width:0.5;" width="788" x="712" y="5"/><text fill="#000000" font-family="sans-serif" font-size="14" font-style="italic" lengthAdjust="spacing" textLength="774" x="719" y="25.5352">&#171;//juror-management/unpaid-attendance/expense-record/:jurorNumber/:poolNumber/add-smartcard-spend&#187;</text><text fill="#000000" font-family="sans-serif" font-size="14" lengthAdjust="spacing" textLength="174" x="1019" y="42.0234">AddSmartcardSpendPage</text><rect fill="#FFFFE0" height="46.9766" rx="2.5" ry="2.5" style="stroke:#181818;stroke-width:0.5;" width="267" x="1510" y="5"/><text fill="#000000" font-family="sans-serif" font-size="14" font-style="italic" lengthAdjust="spacing" textLength="253" x="1517" y="25.5352">&#171;add-smartcard-spend.controller.js&#187;</text><text fill="#000000" font-family="sans-serif" font-size="14" lengthAdjust="spacing" textLength="211" x="1538" y="42.0234">AddSmartcardSpendController</text><rect fill="#FFFFE0" height="46.9766" rx="2.5" ry="2.5" style="stroke:#181818;stroke-width:0.5;" width="219" x="1787" y="5"/><text fill="#000000" font-family="sans-serif" font-size="14" font-style="italic" lengthAdjust="spacing" textLength="205" x="1794" y="25.5352">&#171;addSmartcardSpend.patch()&#187;</text><text fill="#000000" font-family="sans-serif" font-size="14" lengthAdjust="spacing" textLength="185" x="1804" y="42.0234">AddSmartcardSpendObject</text><rect fill="#E6E6FA" height="46.9766" rx="2.5" ry="2.5" style="stroke:#181818;stroke-width:0.5;" width="463" x="2016" y="5"/><text fill="#000000" font-family="sans-serif" font-size="14" font-style="italic" lengthAdjust="spacing" textLength="449" x="2023" y="25.5352">&#171;juror-management/expense-record/add-smartcard-spend.njk&#187;</text><text fill="#000000" font-family="sans-serif" font-size="14" lengthAdjust="spacing" textLength="205" x="2145" y="42.0234">AddSmartcardSpendTemplate</text><rect fill="#E2E2F0" height="30.4883" rx="2.5" ry="2.5" style="stroke:#181818;stroke-width:0.5;" width="189" x="2489" y="21.4883"/><text fill="#000000" font-family="sans-serif" font-size="14" lengthAdjust="spacing" textLength="175" x="2496" y="42.0234">SmartcardSpendValidator</text><rect fill="#E2E2F0" height="30.4883" rx="2.5" ry="2.5" style="stroke:#181818;stroke-width:0.5;" width="141" x="2688" y="21.4883"/><text fill="#000000" font-family="sans-serif" font-size="14" lengthAdjust="spacing" textLength="127" x="2695" y="42.0234">BackendController</text><rect fill="#E2E2F0" height="30.4883" rx="2.5" ry="2.5" style="stroke:#181818;stroke-width:0.5;" width="134" x="2839" y="21.4883"/><text fill="#000000" font-family="sans-serif" font-size="14" lengthAdjust="spacing" textLength="120" x="2846" y="42.0234">GenericErrorPage</text><polygon fill="#181818" points="379.5,80.2871,389.5,84.2871,379.5,88.2871" style="stroke:#181818;stroke-width:1.0;"/><line style="stroke:#181818;stroke-width:1.0;" x1="45.5" x2="385.5" y1="84.2871" y2="84.2871"/><text fill="#000000" font-family="sans-serif" font-size="13" lengthAdjust="spacing" textLength="194" x="121.5" y="79.5449">click add smartcard spend link</text><polygon fill="#181818" points="1631.5,109.5977,1641.5,113.5977,1631.5,117.5977" style="stroke:#181818;stroke-width:1.0;"/><line style="stroke:#181818;stroke-width:1.0;" x1="391.5" x2="1637.5" y1="113.5977" y2="113.5977"/><text fill="#000000" font-family="sans-serif" font-size="13" lengthAdjust="spacing" textLength="196" x="919.5" y="108.8555">call smartcard spend controller</text><polygon fill="#181818" points="2235.5,138.9082,2245.5,142.9082,2235.5,146.9082" style="stroke:#181818;stroke-width:1.0;"/><line style="stroke:#181818;stroke-width:1.0;" x1="1643.5" x2="2241.5" y1="142.9082" y2="142.9082"/><text fill="#000000" font-family="sans-serif" font-size="13" lengthAdjust="spacing" textLength="169" x="1861" y="138.166">request and build template</text><polygon fill="#181818" points="1654.5,168.2188,1644.5,172.2188,1654.5,176.2188" style="stroke:#181818;stroke-width:1.0;"/><line style="stroke:#181818;stroke-width:1.0;" x1="1648.5" x2="2246.5" y1="172.2188" y2="172.2188"/><text fill="#000000" font-family="sans-serif" font-size="13" lengthAdjust="spacing" textLength="78" x="1906.5" y="167.4766">return HTML</text><polygon fill="#181818" points="1117,197.5293,1107,201.5293,1117,205.5293" style="stroke:#181818;stroke-width:1.0;"/><line style="stroke:#181818;stroke-width:1.0;" x1="1111" x2="1642.5" y1="201.5293" y2="201.5293"/><text fill="#000000" font-family="sans-serif" font-size="13" lengthAdjust="spacing" textLength="78" x="1335.75" y="196.7871">return HTML</text><polygon fill="#181818" points="56.5,226.8398,46.5,230.8398,56.5,234.8398" style="stroke:#181818;stroke-width:1.0;"/><line style="stroke:#181818;stroke-width:1.0;" x1="50.5" x2="1105" y1="230.8398" y2="230.8398"/><text fill="#000000" font-family="sans-serif" font-size="13" lengthAdjust="spacing" textLength="80" x="535.75" y="226.0977">render HTML</text><polygon fill="#181818" points="1094,256.1504,1104,260.1504,1094,264.1504" style="stroke:#181818;stroke-width:1.0;"/><line style="stroke:#181818;stroke-width:1.0;" x1="45.5" x2="1100" y1="260.1504" y2="260.1504"/><text fill="#000000" font-family="sans-serif" font-size="13" lengthAdjust="spacing" textLength="173" x="489.25" y="255.4082">enters valid expense values</text><polygon fill="#181818" points="1631.5,285.4609,1641.5,289.4609,1631.5,293.4609" style="stroke:#181818;stroke-width:1.0;"/><line style="stroke:#181818;stroke-width:1.0;" x1="1106" x2="1637.5" y1="289.4609" y2="289.4609"/><text fill="#000000" font-family="sans-serif" font-size="13" lengthAdjust="spacing" textLength="121" x="1314.25" y="284.7188">call page controller</text><polygon fill="#181818" points="2571.5,314.7715,2581.5,318.7715,2571.5,322.7715" style="stroke:#181818;stroke-width:1.0;"/><line style="stroke:#181818;stroke-width:1.0;" x1="1643.5" x2="2577.5" y1="318.7715" y2="318.7715"/><text fill="#000000" font-family="sans-serif" font-size="13" lengthAdjust="spacing" textLength="95" x="2066" y="314.0293">validate details</text><path d="M10,333.7715 L72,333.7715 L72,341.082 L62,351.082 L10,351.082 L10,333.7715 " fill="#EEEEEE" style="stroke:#000000;stroke-width:1.5;"/><rect fill="none" height="163.8633" style="stroke:#000000;stroke-width:1.5;" width="2678" x="10" y="333.7715"/><text fill="#000000" font-family="sans-serif" font-size="13" font-weight="bold" lengthAdjust="spacing" textLength="17" x="25" y="347.3398">alt</text><text fill="#000000" font-family="sans-serif" font-size="11" font-weight="bold" lengthAdjust="spacing" textLength="132" x="87" y="346.4063">[Invalid values entered]</text><polygon fill="#181818" points="1654.5,368.3926,1644.5,372.3926,1654.5,376.3926" style="stroke:#181818;stroke-width:1.0;"/><line style="stroke:#181818;stroke-width:1.0;" x1="1648.5" x2="2582.5" y1="372.3926" y2="372.3926"/><text fill="#000000" font-family="sans-serif" font-size="13" lengthAdjust="spacing" textLength="137" x="2045" y="367.6504">Invalid values entered</text><polygon fill="#181818" points="2235.5,397.7031,2245.5,401.7031,2235.5,405.7031" style="stroke:#181818;stroke-width:1.0;"/><line style="stroke:#181818;stroke-width:1.0;" x1="1643.5" x2="2241.5" y1="401.7031" y2="401.7031"/><text fill="#000000" font-family="sans-serif" font-size="13" lengthAdjust="spacing" textLength="169" x="1861" y="396.9609">request and build template</text><polygon fill="#181818" points="1654.5,427.0137,1644.5,431.0137,1654.5,435.0137" style="stroke:#181818;stroke-width:1.0;"/><line style="stroke:#181818;stroke-width:1.0;" x1="1648.5" x2="2246.5" y1="431.0137" y2="431.0137"/><text fill="#000000" font-family="sans-serif" font-size="13" lengthAdjust="spacing" textLength="78" x="1906.5" y="426.2715">return HTML</text><polygon fill="#181818" points="1117,456.3242,1107,460.3242,1117,464.3242" style="stroke:#181818;stroke-width:1.0;"/><line style="stroke:#181818;stroke-width:1.0;" x1="1111" x2="1642.5" y1="460.3242" y2="460.3242"/><text fill="#000000" font-family="sans-serif" font-size="13" lengthAdjust="spacing" textLength="112" x="1318.75" y="455.582">return error HTML</text><polygon fill="#181818" points="56.5,485.6348,46.5,489.6348,56.5,493.6348" style="stroke:#181818;stroke-width:1.0;"/><line style="stroke:#181818;stroke-width:1.0;" x1="50.5" x2="1105" y1="489.6348" y2="489.6348"/><text fill="#000000" font-family="sans-serif" font-size="13" lengthAdjust="spacing" textLength="133" x="509.25" y="484.8926">render error message</text><polygon fill="#181818" points="1654.5,521.9453,1644.5,525.9453,1654.5,529.9453" style="stroke:#181818;stroke-width:1.0;"/><line style="stroke:#181818;stroke-width:1.0;" x1="1648.5" x2="2582.5" y1="525.9453" y2="525.9453"/><text fill="#000000" font-family="sans-serif" font-size="13" lengthAdjust="spacing" textLength="127" x="2050" y="521.2031">valid details entered</text><polygon fill="#181818" points="1884.5,551.2559,1894.5,555.2559,1884.5,559.2559" style="stroke:#181818;stroke-width:1.0;"/><line style="stroke:#181818;stroke-width:1.0;" x1="1643.5" x2="1890.5" y1="555.2559" y2="555.2559"/><text fill="#000000" font-family="sans-serif" font-size="13" lengthAdjust="spacing" textLength="126" x="1707" y="550.5137">build request object</text><polygon fill="#181818" points="2746.5,580.5664,2756.5,584.5664,2746.5,588.5664" style="stroke:#181818;stroke-width:1.0;"/><line style="stroke:#181818;stroke-width:1.0;" x1="1896.5" x2="2752.5" y1="584.5664" y2="584.5664"/><text fill="#000000" font-family="sans-serif" font-size="13" lengthAdjust="spacing" textLength="138" x="2258.5" y="579.8242">send backend request</text><path d="M10,599.5664 L72,599.5664 L72,606.877 L62,616.877 L10,616.877 L10,599.5664 " fill="#EEEEEE" style="stroke:#000000;stroke-width:1.5;"/><rect fill="none" height="193.1738" style="stroke:#000000;stroke-width:1.5;" width="2973" x="10" y="599.5664"/><text fill="#000000" font-family="sans-serif" font-size="13" font-weight="bold" lengthAdjust="spacing" textLength="17" x="25" y="613.1348">alt</text><text fill="#000000" font-family="sans-serif" font-size="11" font-weight="bold" lengthAdjust="spacing" textLength="345" x="87" y="612.2012">[Failed to update the smart card amount for all selected days]</text><polygon fill="#181818" points="1907.5,634.1875,1897.5,638.1875,1907.5,642.1875" style="stroke:#181818;stroke-width:1.0;"/><line style="stroke:#181818;stroke-width:1.0;stroke-dasharray:2.0,2.0;" x1="1901.5" x2="2757.5" y1="638.1875" y2="638.1875"/><text fill="#000000" font-family="sans-serif" font-size="13" lengthAdjust="spacing" textLength="91" x="2282" y="633.4453">Error response</text><polygon fill="#181818" points="1654.5,663.498,1644.5,667.498,1654.5,671.498" style="stroke:#181818;stroke-width:1.0;"/><line style="stroke:#181818;stroke-width:1.0;stroke-dasharray:2.0,2.0;" x1="1648.5" x2="1895.5" y1="667.498" y2="667.498"/><text fill="#000000" font-family="sans-serif" font-size="13" lengthAdjust="spacing" textLength="127" x="1706.5" y="662.7559">reject requestObject</text><polygon fill="#181818" points="2235.5,692.8086,2245.5,696.8086,2235.5,700.8086" style="stroke:#181818;stroke-width:1.0;"/><line style="stroke:#181818;stroke-width:1.0;" x1="1643.5" x2="2241.5" y1="696.8086" y2="696.8086"/><text fill="#000000" font-family="sans-serif" font-size="13" lengthAdjust="spacing" textLength="169" x="1861" y="692.0664">request and build template</text><polygon fill="#181818" points="1654.5,722.1191,1644.5,726.1191,1654.5,730.1191" style="stroke:#181818;stroke-width:1.0;"/><line style="stroke:#181818;stroke-width:1.0;" x1="1648.5" x2="2246.5" y1="726.1191" y2="726.1191"/><text fill="#000000" font-family="sans-serif" font-size="13" lengthAdjust="spacing" textLength="78" x="1906.5" y="721.377">return HTML</text><polygon fill="#181818" points="2894,751.4297,2904,755.4297,2894,759.4297" style="stroke:#181818;stroke-width:1.0;"/><line style="stroke:#181818;stroke-width:1.0;" x1="1643.5" x2="2900" y1="755.4297" y2="755.4297"/><text fill="#000000" font-family="sans-serif" font-size="13" lengthAdjust="spacing" textLength="78" x="2235.75" y="750.6875">return HTML</text><polygon fill="#181818" points="56.5,780.7402,46.5,784.7402,56.5,788.7402" style="stroke:#181818;stroke-width:1.0;"/><line style="stroke:#181818;stroke-width:1.0;" x1="50.5" x2="2905" y1="784.7402" y2="784.7402"/><text fill="#000000" font-family="sans-serif" font-size="13" lengthAdjust="spacing" textLength="108" x="1421.75" y="779.998">render error page</text><polygon fill="#181818" points="1907.5,817.0508,1897.5,821.0508,1907.5,825.0508" style="stroke:#181818;stroke-width:1.0;"/><line style="stroke:#181818;stroke-width:1.0;" x1="1901.5" x2="2757.5" y1="821.0508" y2="821.0508"/><text fill="#000000" font-family="sans-serif" font-size="13" lengthAdjust="spacing" textLength="77" x="2289" y="816.3086">ok response</text><polygon fill="#181818" points="1654.5,846.3613,1644.5,850.3613,1654.5,854.3613" style="stroke:#181818;stroke-width:1.0;"/><line style="stroke:#181818;stroke-width:1.0;" x1="1648.5" x2="1895.5" y1="850.3613" y2="850.3613"/><text fill="#000000" font-family="sans-serif" font-size="13" lengthAdjust="spacing" textLength="96" x="1722" y="845.6191">resolve request</text><polygon fill="#181818" points="402.5,875.6719,392.5,879.6719,402.5,883.6719" style="stroke:#181818;stroke-width:1.0;"/><line style="stroke:#181818;stroke-width:1.0;" x1="396.5" x2="1642.5" y1="879.6719" y2="879.6719"/><text fill="#000000" font-family="sans-serif" font-size="13" lengthAdjust="spacing" textLength="199" x="918" y="874.9297">redirect to expense record page</text><polygon fill="#181818" points="56.5,904.9824,46.5,908.9824,56.5,912.9824" style="stroke:#181818;stroke-width:1.0;"/><line style="stroke:#181818;stroke-width:1.0;" x1="50.5" x2="390.5" y1="908.9824" y2="908.9824"/><text fill="#000000" font-family="sans-serif" font-size="13" lengthAdjust="spacing" textLength="174" x="131.5" y="904.2402">render expense record page</text><!--SRC=[hLJHRfj047pdAxPff2HIiD-jo19sIEMMc0IJl5_kjl7Pnq6Fmst-ldjWkoR6j97wOldWPdPsTfQb50YLLbAlKNYVfEQgeYUlgD58xh-edA_BGQ6OjbMcFAzSIrqmmp9Os3U5K5gwvbx1uIlyKQ7cU8zboLunKF9LPwWjSFf1utbqpKek2sA5WDkS7brSN40KJuC8alWfdSs_j2w5lmhK9IR8SoCUY1DkReQhokJ6pvYciwCVLbHV2fzPYrem4Z341kUR6ZWSrP1vbRsW6OwAF5VD__6uBKc8HKPdpenO4C6-udyiEMH2-EMkYb-wCYJ3sJ2DvsaIHr6OG32_XIHyV0eNASIJh-4qNVGhdURQcbmfDAIteyI0xoyCLkLu39zfE4lxXahbF_kfuvSLSjlGjjyC2cRvylBgFLtTJHhUFqH16lv5U8ePfSmwcuzCVcTfLrjwjQwhimsTS9kdkrcKXicYTl4vY6QtGHedRHrj4SzCIS7sUPm4qsyXOVyCf8MTCBvkMUvvTPZ17tS4TWHSIRu6KWzxzL2h1xT-tZ64UFe6J8nCgICoVg3dtDHsxCnDSyTxsKDwVNeorzrxSNNGTVVYZA1U-n8spbxOJjETAYm9tGdwjzuBTxNLyAOP8SvqKTd-Ja_C_kCMNCFPJ3VDDKqr3QCu8tFEjz_Iu64s9SaVDBzPkbv9PtTCAXHWSwWArphO9JQfW3eMBCihYkjtcb6T5rH4IG31tagdiC_d4r6ctgHnNmCgkfjdivtrIBQ9kF5FW5qcEt6_0G00]--></g></svg>