<?xml version="1.0" encoding="us-ascii" standalone="no"?><svg xmlns="http://www.w3.org/2000/svg" xmlns:xlink="http://www.w3.org/1999/xlink" contentStyleType="text/css" height="1383px" preserveAspectRatio="none" style="width:2656px;height:1383px;background:#FFFFFF;" version="1.1" viewBox="0 0 2656 1383" width="2656px" zoomAndPan="magnify"><defs/><g><text fill="#000000" font-family="sans-serif" font-size="14" font-weight="bold" lengthAdjust="spacing" textLength="141" x="1259.25" y="28.5352">Add Room Location</text><rect fill="none" height="163.8633" style="stroke:#000000;stroke-width:1.5;" width="2319.5" x="10" y="371.2598"/><rect fill="none" height="193.1738" style="stroke:#000000;stroke-width:1.5;" width="2640.5" x="10" y="637.0547"/><rect fill="none" height="193.1738" style="stroke:#000000;stroke-width:1.5;" width="2640.5" x="10" y="990.7813"/><line style="stroke:#181818;stroke-width:0.5;stroke-dasharray:5.0,5.0;" x1="45" x2="45" y1="90.4648" y2="1376.8184"/><line style="stroke:#181818;stroke-width:0.5;stroke-dasharray:5.0,5.0;" x1="316.5" x2="316.5" y1="90.4648" y2="1376.8184"/><line style="stroke:#181818;stroke-width:0.5;stroke-dasharray:5.0,5.0;" x1="656.5" x2="656.5" y1="90.4648" y2="1376.8184"/><line style="stroke:#181818;stroke-width:0.5;stroke-dasharray:5.0,5.0;" x1="914.5" x2="914.5" y1="90.4648" y2="1376.8184"/><line style="stroke:#181818;stroke-width:0.5;stroke-dasharray:5.0,5.0;" x1="1106.5" x2="1106.5" y1="90.4648" y2="1376.8184"/><line style="stroke:#181818;stroke-width:0.5;stroke-dasharray:5.0,5.0;" x1="1319.5" x2="1319.5" y1="90.4648" y2="1376.8184"/><line style="stroke:#181818;stroke-width:0.5;stroke-dasharray:5.0,5.0;" x1="1512.5" x2="1512.5" y1="90.4648" y2="1376.8184"/><line style="stroke:#181818;stroke-width:0.5;stroke-dasharray:5.0,5.0;" x1="1717.5" x2="1717.5" y1="90.4648" y2="1376.8184"/><line style="stroke:#181818;stroke-width:0.5;stroke-dasharray:5.0,5.0;" x1="1931.5" x2="1931.5" y1="90.4648" y2="1376.8184"/><line style="stroke:#181818;stroke-width:0.5;stroke-dasharray:5.0,5.0;" x1="2183.5" x2="2183.5" y1="90.4648" y2="1376.8184"/><line style="stroke:#181818;stroke-width:0.5;stroke-dasharray:5.0,5.0;" x1="2409.5" x2="2409.5" y1="90.4648" y2="1376.8184"/><line style="stroke:#181818;stroke-width:0.5;stroke-dasharray:5.0,5.0;" x1="2569.5" x2="2569.5" y1="90.4648" y2="1376.8184"/><rect fill="#E2E2F0" height="30.4883" rx="2.5" ry="2.5" style="stroke:#181818;stroke-width:0.5;" width="51" x="20" y="58.9766"/><text fill="#000000" font-family="sans-serif" font-size="14" lengthAdjust="spacing" textLength="37" x="27" y="79.5117">Actor</text><rect fill="#E2E2F0" height="46.9766" rx="2.5" ry="2.5" style="stroke:#181818;stroke-width:0.5;" width="300" x="166.5" y="42.4883"/><text fill="#000000" font-family="sans-serif" font-size="14" font-style="italic" lengthAdjust="spacing" textLength="286" x="173.5" y="63.0234">&#171;/administration/room-locations/rooms&#187;</text><text fill="#000000" font-family="sans-serif" font-size="14" lengthAdjust="spacing" textLength="80" x="276.5" y="79.5117">RoomsPage</text><rect fill="#E2E2F0" height="46.9766" rx="2.5" ry="2.5" style="stroke:#181818;stroke-width:0.5;" width="361" x="476.5" y="42.4883"/><text fill="#000000" font-family="sans-serif" font-size="14" font-style="italic" lengthAdjust="spacing" textLength="347" x="483.5" y="63.0234">&#171;/administration/room-locations/add-edit-room&#187;</text><text fill="#000000" font-family="sans-serif" font-size="14" lengthAdjust="spacing" textLength="108" x="603" y="79.5117">AddRoomsPage</text><rect fill="#E2E2F0" height="46.9766" rx="2.5" ry="2.5" style="stroke:#181818;stroke-width:0.5;" width="134" x="847.5" y="42.4883"/><text fill="#000000" font-family="sans-serif" font-size="14" font-style="italic" lengthAdjust="spacing" textLength="56" x="886.5" y="63.0234">&#171;/error&#187;</text><text fill="#000000" font-family="sans-serif" font-size="14" lengthAdjust="spacing" textLength="120" x="854.5" y="79.5117">GenericErrorPage</text><rect fill="#FFFFE0" height="46.9766" rx="2.5" ry="2.5" style="stroke:#181818;stroke-width:0.5;" width="231" x="991.5" y="42.4883"/><text fill="#000000" font-family="sans-serif" font-size="14" font-style="italic" lengthAdjust="spacing" textLength="217" x="998.5" y="63.0234">&#171;non-sitting-days.controller.js&#187;</text><text fill="#000000" font-family="sans-serif" font-size="14" lengthAdjust="spacing" textLength="175" x="1019.5" y="79.5117">RoomLocationsController</text><rect fill="#FFFFE0" height="46.9766" rx="2.5" ry="2.5" style="stroke:#181818;stroke-width:0.5;" width="175" x="1232.5" y="42.4883"/><text fill="#000000" font-family="sans-serif" font-size="14" font-style="italic" lengthAdjust="spacing" textLength="161" x="1239.5" y="63.0234">&#171;courtroomsDAO.get()&#187;</text><text fill="#000000" font-family="sans-serif" font-size="14" lengthAdjust="spacing" textLength="149" x="1245.5" y="79.5117">RoomLocationsObject</text><rect fill="#FFFFE0" height="46.9766" rx="2.5" ry="2.5" style="stroke:#181818;stroke-width:0.5;" width="191" x="1417.5" y="42.4883"/><text fill="#000000" font-family="sans-serif" font-size="14" font-style="italic" lengthAdjust="spacing" textLength="169" x="1428.5" y="63.0234">&#171;courtroomsDAO.post()&#187;</text><text fill="#000000" font-family="sans-serif" font-size="14" lengthAdjust="spacing" textLength="177" x="1424.5" y="79.5117">AddRoomLocationsObject</text><rect fill="#FFD700" height="30.4883" rx="2.5" ry="2.5" style="stroke:#181818;stroke-width:0.5;" width="198" x="1618.5" y="58.9766"/><text fill="#000000" font-family="sans-serif" font-size="14" lengthAdjust="spacing" textLength="184" x="1625.5" y="79.5117">CourtroomDetailsValidator</text><rect fill="#E2E2F0" height="46.9766" rx="2.5" ry="2.5" style="stroke:#181818;stroke-width:0.5;" width="211" x="1826.5" y="42.4883"/><text fill="#000000" font-family="sans-serif" font-size="14" font-style="italic" lengthAdjust="spacing" textLength="197" x="1833.5" y="63.0234">&#171;/administration/rooms.njk&#187;</text><text fill="#000000" font-family="sans-serif" font-size="14" lengthAdjust="spacing" textLength="111" x="1876.5" y="79.5117">RoomsTemplate</text><rect fill="#E2E2F0" height="46.9766" rx="2.5" ry="2.5" style="stroke:#181818;stroke-width:0.5;" width="272" x="2047.5" y="42.4883"/><text fill="#000000" font-family="sans-serif" font-size="14" font-style="italic" lengthAdjust="spacing" textLength="258" x="2054.5" y="63.0234">&#171;/administration/add-edit-room.njk&#187;</text><text fill="#000000" font-family="sans-serif" font-size="14" lengthAdjust="spacing" textLength="165" x="2101" y="79.5117">AddEditRoomsTemplate</text><rect fill="#E6E6FA" height="46.9766" rx="2.5" ry="2.5" style="stroke:#181818;stroke-width:0.5;" width="160" x="2329.5" y="42.4883"/><text fill="#000000" font-family="sans-serif" font-size="14" font-style="italic" lengthAdjust="spacing" textLength="146" x="2336.5" y="63.0234">&#171;_errors/generic.njk&#187;</text><text fill="#000000" font-family="sans-serif" font-size="14" lengthAdjust="spacing" textLength="99" x="2360" y="79.5117">ErrorTemplate</text><rect fill="#E2E2F0" height="30.4883" rx="2.5" ry="2.5" style="stroke:#181818;stroke-width:0.5;" width="141" x="2499.5" y="58.9766"/><text fill="#000000" font-family="sans-serif" font-size="14" lengthAdjust="spacing" textLength="127" x="2506.5" y="79.5117">BackendController</text><polygon fill="#181818" points="304.5,117.7754,314.5,121.7754,304.5,125.7754" style="stroke:#181818;stroke-width:1.0;"/><line style="stroke:#181818;stroke-width:1.0;" x1="45.5" x2="310.5" y1="121.7754" y2="121.7754"/><text fill="#000000" font-family="sans-serif" font-size="13" lengthAdjust="spacing" textLength="247" x="57.5" y="117.0332">click add room on room locations page</text><polygon fill="#181818" points="1095,147.0859,1105,151.0859,1095,155.0859" style="stroke:#181818;stroke-width:1.0;"/><line style="stroke:#181818;stroke-width:1.0;" x1="316.5" x2="1101" y1="151.0859" y2="151.0859"/><text fill="#000000" font-family="sans-serif" font-size="13" lengthAdjust="spacing" textLength="131" x="646.25" y="146.3438">call rooms controller</text><polygon fill="#181818" points="2171.5,176.3965,2181.5,180.3965,2171.5,184.3965" style="stroke:#181818;stroke-width:1.0;"/><line style="stroke:#181818;stroke-width:1.0;" x1="1107" x2="2177.5" y1="180.3965" y2="180.3965"/><text fill="#000000" font-family="sans-serif" font-size="13" lengthAdjust="spacing" textLength="169" x="1560.75" y="175.6543">request and build template</text><polygon fill="#181818" points="1118,205.707,1108,209.707,1118,213.707" style="stroke:#181818;stroke-width:1.0;"/><line style="stroke:#181818;stroke-width:1.0;" x1="1112" x2="2182.5" y1="209.707" y2="209.707"/><text fill="#000000" font-family="sans-serif" font-size="13" lengthAdjust="spacing" textLength="78" x="1606.25" y="204.9648">return HTML</text><polygon fill="#181818" points="668,235.0176,658,239.0176,668,243.0176" style="stroke:#181818;stroke-width:1.0;"/><line style="stroke:#181818;stroke-width:1.0;" x1="662" x2="1106" y1="239.0176" y2="239.0176"/><text fill="#000000" font-family="sans-serif" font-size="13" lengthAdjust="spacing" textLength="78" x="843" y="234.2754">return HTML</text><polygon fill="#181818" points="56.5,264.3281,46.5,268.3281,56.5,272.3281" style="stroke:#181818;stroke-width:1.0;"/><line style="stroke:#181818;stroke-width:1.0;" x1="50.5" x2="656" y1="268.3281" y2="268.3281"/><text fill="#000000" font-family="sans-serif" font-size="13" lengthAdjust="spacing" textLength="80" x="311.25" y="263.5859">render HTML</text><polygon fill="#181818" points="645,293.6387,655,297.6387,645,301.6387" style="stroke:#181818;stroke-width:1.0;"/><line style="stroke:#181818;stroke-width:1.0;" x1="45.5" x2="651" y1="297.6387" y2="297.6387"/><text fill="#000000" font-family="sans-serif" font-size="13" lengthAdjust="spacing" textLength="187" x="257.75" y="292.8965">enter details and click submit</text><polygon fill="#181818" points="1095,322.9492,1105,326.9492,1095,330.9492" style="stroke:#181818;stroke-width:1.0;"/><line style="stroke:#181818;stroke-width:1.0;" x1="657" x2="1101" y1="326.9492" y2="326.9492"/><text fill="#000000" font-family="sans-serif" font-size="13" lengthAdjust="spacing" textLength="148" x="808" y="322.207">POST courtroom details</text><polygon fill="#181818" points="1705.5,352.2598,1715.5,356.2598,1705.5,360.2598" style="stroke:#181818;stroke-width:1.0;"/><line style="stroke:#181818;stroke-width:1.0;" x1="1107" x2="1711.5" y1="356.2598" y2="356.2598"/><text fill="#000000" font-family="sans-serif" font-size="13" lengthAdjust="spacing" textLength="95" x="1364.75" y="351.5176">validate details</text><path d="M10,371.2598 L72,371.2598 L72,378.5703 L62,388.5703 L10,388.5703 L10,371.2598 " fill="#EEEEEE" style="stroke:#000000;stroke-width:1.5;"/><rect fill="none" height="163.8633" style="stroke:#000000;stroke-width:1.5;" width="2319.5" x="10" y="371.2598"/><text fill="#000000" font-family="sans-serif" font-size="13" font-weight="bold" lengthAdjust="spacing" textLength="17" x="25" y="384.8281">alt</text><text fill="#000000" font-family="sans-serif" font-size="11" font-weight="bold" lengthAdjust="spacing" textLength="133" x="87" y="383.8945">[invalid details entered]</text><polygon fill="#181818" points="1118,405.8809,1108,409.8809,1118,413.8809" style="stroke:#181818;stroke-width:1.0;"/><line style="stroke:#181818;stroke-width:1.0;" x1="1112" x2="1716.5" y1="409.8809" y2="409.8809"/><text fill="#000000" font-family="sans-serif" font-size="13" lengthAdjust="spacing" textLength="88" x="1368.25" y="405.1387">invalid details</text><polygon fill="#181818" points="2171.5,435.1914,2181.5,439.1914,2171.5,443.1914" style="stroke:#181818;stroke-width:1.0;"/><line style="stroke:#181818;stroke-width:1.0;" x1="1107" x2="2177.5" y1="439.1914" y2="439.1914"/><text fill="#000000" font-family="sans-serif" font-size="13" lengthAdjust="spacing" textLength="169" x="1560.75" y="434.4492">request and build template</text><polygon fill="#181818" points="1118,464.502,1108,468.502,1118,472.502" style="stroke:#181818;stroke-width:1.0;"/><line style="stroke:#181818;stroke-width:1.0;" x1="1112" x2="2182.5" y1="468.502" y2="468.502"/><text fill="#000000" font-family="sans-serif" font-size="13" lengthAdjust="spacing" textLength="78" x="1606.25" y="463.7598">return HTML</text><polygon fill="#181818" points="668,493.8125,658,497.8125,668,501.8125" style="stroke:#181818;stroke-width:1.0;"/><line style="stroke:#181818;stroke-width:1.0;" x1="662" x2="1106" y1="497.8125" y2="497.8125"/><text fill="#000000" font-family="sans-serif" font-size="13" lengthAdjust="spacing" textLength="112" x="826" y="493.0703">return error HTML</text><polygon fill="#181818" points="56.5,523.123,46.5,527.123,56.5,531.123" style="stroke:#181818;stroke-width:1.0;"/><line style="stroke:#181818;stroke-width:1.0;" x1="50.5" x2="656" y1="527.123" y2="527.123"/><text fill="#000000" font-family="sans-serif" font-size="13" lengthAdjust="spacing" textLength="133" x="284.75" y="522.3809">render error message</text><polygon fill="#181818" points="1118,559.4336,1108,563.4336,1118,567.4336" style="stroke:#181818;stroke-width:1.0;"/><line style="stroke:#181818;stroke-width:1.0;" x1="1112" x2="1716.5" y1="563.4336" y2="563.4336"/><text fill="#000000" font-family="sans-serif" font-size="13" lengthAdjust="spacing" textLength="127" x="1348.75" y="558.6914">valid details entered</text><polygon fill="#181818" points="1501,588.7441,1511,592.7441,1501,596.7441" style="stroke:#181818;stroke-width:1.0;"/><line style="stroke:#181818;stroke-width:1.0;" x1="1107" x2="1507" y1="592.7441" y2="592.7441"/><text fill="#000000" font-family="sans-serif" font-size="13" lengthAdjust="spacing" textLength="126" x="1247" y="588.002">build request object</text><polygon fill="#181818" points="2558,618.0547,2568,622.0547,2558,626.0547" style="stroke:#181818;stroke-width:1.0;"/><line style="stroke:#181818;stroke-width:1.0;" x1="1513" x2="2564" y1="622.0547" y2="622.0547"/><text fill="#000000" font-family="sans-serif" font-size="13" lengthAdjust="spacing" textLength="138" x="1972.5" y="617.3125">send backend request</text><path d="M10,637.0547 L72,637.0547 L72,644.3652 L62,654.3652 L10,654.3652 L10,637.0547 " fill="#EEEEEE" style="stroke:#000000;stroke-width:1.5;"/><rect fill="none" height="193.1738" style="stroke:#000000;stroke-width:1.5;" width="2640.5" x="10" y="637.0547"/><text fill="#000000" font-family="sans-serif" font-size="13" font-weight="bold" lengthAdjust="spacing" textLength="17" x="25" y="650.623">alt</text><text fill="#000000" font-family="sans-serif" font-size="11" font-weight="bold" lengthAdjust="spacing" textLength="143" x="87" y="649.6895">[Failed to add courtroom]</text><polygon fill="#181818" points="1524,671.6758,1514,675.6758,1524,679.6758" style="stroke:#181818;stroke-width:1.0;"/><line style="stroke:#181818;stroke-width:1.0;stroke-dasharray:2.0,2.0;" x1="1518" x2="2569" y1="675.6758" y2="675.6758"/><text fill="#000000" font-family="sans-serif" font-size="13" lengthAdjust="spacing" textLength="91" x="1996" y="670.9336">error response</text><polygon fill="#181818" points="1118,700.9863,1108,704.9863,1118,708.9863" style="stroke:#181818;stroke-width:1.0;"/><line style="stroke:#181818;stroke-width:1.0;stroke-dasharray:2.0,2.0;" x1="1112" x2="1512" y1="704.9863" y2="704.9863"/><text fill="#000000" font-family="sans-serif" font-size="13" lengthAdjust="spacing" textLength="127" x="1246.5" y="700.2441">reject requestObject</text><polygon fill="#181818" points="2397.5,730.2969,2407.5,734.2969,2397.5,738.2969" style="stroke:#181818;stroke-width:1.0;"/><line style="stroke:#181818;stroke-width:1.0;" x1="1107" x2="2403.5" y1="734.2969" y2="734.2969"/><text fill="#000000" font-family="sans-serif" font-size="13" lengthAdjust="spacing" textLength="169" x="1673.75" y="729.5547">request and build template</text><polygon fill="#181818" points="1118,759.6074,1108,763.6074,1118,767.6074" style="stroke:#181818;stroke-width:1.0;"/><line style="stroke:#181818;stroke-width:1.0;" x1="1112" x2="2408.5" y1="763.6074" y2="763.6074"/><text fill="#000000" font-family="sans-serif" font-size="13" lengthAdjust="spacing" textLength="78" x="1719.25" y="758.8652">return HTML</text><polygon fill="#181818" points="925.5,788.918,915.5,792.918,925.5,796.918" style="stroke:#181818;stroke-width:1.0;"/><line style="stroke:#181818;stroke-width:1.0;" x1="919.5" x2="1106" y1="792.918" y2="792.918"/><text fill="#000000" font-family="sans-serif" font-size="13" lengthAdjust="spacing" textLength="78" x="971.75" y="788.1758">return HTML</text><polygon fill="#181818" points="56.5,818.2285,46.5,822.2285,56.5,826.2285" style="stroke:#181818;stroke-width:1.0;"/><line style="stroke:#181818;stroke-width:1.0;" x1="50.5" x2="913.5" y1="822.2285" y2="822.2285"/><text fill="#000000" font-family="sans-serif" font-size="13" lengthAdjust="spacing" textLength="108" x="426" y="817.4863">render error page</text><polygon fill="#181818" points="1524,854.5391,1514,858.5391,1524,862.5391" style="stroke:#181818;stroke-width:1.0;"/><line style="stroke:#181818;stroke-width:1.0;" x1="1518" x2="2569" y1="858.5391" y2="858.5391"/><text fill="#000000" font-family="sans-serif" font-size="13" lengthAdjust="spacing" textLength="77" x="2003" y="853.7969">ok response</text><polygon fill="#181818" points="1118,883.8496,1108,887.8496,1118,891.8496" style="stroke:#181818;stroke-width:1.0;"/><line style="stroke:#181818;stroke-width:1.0;" x1="1112" x2="1512" y1="887.8496" y2="887.8496"/><text fill="#000000" font-family="sans-serif" font-size="13" lengthAdjust="spacing" textLength="96" x="1262" y="883.1074">resolve request</text><polygon fill="#181818" points="1095,913.1602,1105,917.1602,1095,921.1602" style="stroke:#181818;stroke-width:1.0;"/><line style="stroke:#181818;stroke-width:1.0;" x1="316.5" x2="1101" y1="917.1602" y2="917.1602"/><text fill="#000000" font-family="sans-serif" font-size="13" lengthAdjust="spacing" textLength="131" x="646.25" y="912.418">call rooms controller</text><polygon fill="#181818" points="1308,942.4707,1318,946.4707,1308,950.4707" style="stroke:#181818;stroke-width:1.0;"/><line style="stroke:#181818;stroke-width:1.0;" x1="1107" x2="1314" y1="946.4707" y2="946.4707"/><text fill="#000000" font-family="sans-serif" font-size="13" lengthAdjust="spacing" textLength="126" x="1150.5" y="941.7285">build request object</text><polygon fill="#181818" points="2558,971.7813,2568,975.7813,2558,979.7813" style="stroke:#181818;stroke-width:1.0;"/><line style="stroke:#181818;stroke-width:1.0;" x1="1320" x2="2564" y1="975.7813" y2="975.7813"/><text fill="#000000" font-family="sans-serif" font-size="13" lengthAdjust="spacing" textLength="138" x="1876" y="971.0391">send backend request</text><path d="M10,990.7813 L72,990.7813 L72,998.0918 L62,1008.0918 L10,1008.0918 L10,990.7813 " fill="#EEEEEE" style="stroke:#000000;stroke-width:1.5;"/><rect fill="none" height="193.1738" style="stroke:#000000;stroke-width:1.5;" width="2640.5" x="10" y="990.7813"/><text fill="#000000" font-family="sans-serif" font-size="13" font-weight="bold" lengthAdjust="spacing" textLength="17" x="25" y="1004.3496">alt</text><text fill="#000000" font-family="sans-serif" font-size="11" font-weight="bold" lengthAdjust="spacing" textLength="152" x="87" y="1003.416">[Failed to fetch courtooms]</text><polygon fill="#181818" points="1331,1025.4023,1321,1029.4023,1331,1033.4023" style="stroke:#181818;stroke-width:1.0;"/><line style="stroke:#181818;stroke-width:1.0;stroke-dasharray:2.0,2.0;" x1="1325" x2="2569" y1="1029.4023" y2="1029.4023"/><text fill="#000000" font-family="sans-serif" font-size="13" lengthAdjust="spacing" textLength="91" x="1899.5" y="1024.6602">error response</text><polygon fill="#181818" points="1118,1054.7129,1108,1058.7129,1118,1062.7129" style="stroke:#181818;stroke-width:1.0;"/><line style="stroke:#181818;stroke-width:1.0;stroke-dasharray:2.0,2.0;" x1="1112" x2="1319" y1="1058.7129" y2="1058.7129"/><text fill="#000000" font-family="sans-serif" font-size="13" lengthAdjust="spacing" textLength="127" x="1150" y="1053.9707">reject requestObject</text><polygon fill="#181818" points="2397.5,1084.0234,2407.5,1088.0234,2397.5,1092.0234" style="stroke:#181818;stroke-width:1.0;"/><line style="stroke:#181818;stroke-width:1.0;" x1="1107" x2="2403.5" y1="1088.0234" y2="1088.0234"/><text fill="#000000" font-family="sans-serif" font-size="13" lengthAdjust="spacing" textLength="169" x="1673.75" y="1083.2813">request and build template</text><polygon fill="#181818" points="1118,1113.334,1108,1117.334,1118,1121.334" style="stroke:#181818;stroke-width:1.0;"/><line style="stroke:#181818;stroke-width:1.0;" x1="1112" x2="2408.5" y1="1117.334" y2="1117.334"/><text fill="#000000" font-family="sans-serif" font-size="13" lengthAdjust="spacing" textLength="78" x="1719.25" y="1112.5918">return HTML</text><polygon fill="#181818" points="925.5,1142.6445,915.5,1146.6445,925.5,1150.6445" style="stroke:#181818;stroke-width:1.0;"/><line style="stroke:#181818;stroke-width:1.0;" x1="919.5" x2="1106" y1="1146.6445" y2="1146.6445"/><text fill="#000000" font-family="sans-serif" font-size="13" lengthAdjust="spacing" textLength="78" x="971.75" y="1141.9023">return HTML</text><polygon fill="#181818" points="56.5,1171.9551,46.5,1175.9551,56.5,1179.9551" style="stroke:#181818;stroke-width:1.0;"/><line style="stroke:#181818;stroke-width:1.0;" x1="50.5" x2="913.5" y1="1175.9551" y2="1175.9551"/><text fill="#000000" font-family="sans-serif" font-size="13" lengthAdjust="spacing" textLength="108" x="426" y="1171.2129">render error page</text><polygon fill="#181818" points="1331,1208.2656,1321,1212.2656,1331,1216.2656" style="stroke:#181818;stroke-width:1.0;"/><line style="stroke:#181818;stroke-width:1.0;" x1="1325" x2="2569" y1="1212.2656" y2="1212.2656"/><text fill="#000000" font-family="sans-serif" font-size="13" lengthAdjust="spacing" textLength="77" x="1906.5" y="1207.5234">ok response</text><polygon fill="#181818" points="1118,1237.5762,1108,1241.5762,1118,1245.5762" style="stroke:#181818;stroke-width:1.0;"/><line style="stroke:#181818;stroke-width:1.0;" x1="1112" x2="1319" y1="1241.5762" y2="1241.5762"/><text fill="#000000" font-family="sans-serif" font-size="13" lengthAdjust="spacing" textLength="96" x="1165.5" y="1236.834">resolve request</text><polygon fill="#181818" points="1920,1266.8867,1930,1270.8867,1920,1274.8867" style="stroke:#181818;stroke-width:1.0;"/><line style="stroke:#181818;stroke-width:1.0;" x1="1107" x2="1926" y1="1270.8867" y2="1270.8867"/><text fill="#000000" font-family="sans-serif" font-size="13" lengthAdjust="spacing" textLength="169" x="1435" y="1266.1445">request and build template</text><polygon fill="#181818" points="1118,1296.1973,1108,1300.1973,1118,1304.1973" style="stroke:#181818;stroke-width:1.0;"/><line style="stroke:#181818;stroke-width:1.0;" x1="1112" x2="1931" y1="1300.1973" y2="1300.1973"/><text fill="#000000" font-family="sans-serif" font-size="13" lengthAdjust="spacing" textLength="78" x="1480.5" y="1295.4551">return HTML</text><polygon fill="#181818" points="327.5,1325.5078,317.5,1329.5078,327.5,1333.5078" style="stroke:#181818;stroke-width:1.0;"/><line style="stroke:#181818;stroke-width:1.0;" x1="321.5" x2="1106" y1="1329.5078" y2="1329.5078"/><text fill="#000000" font-family="sans-serif" font-size="13" lengthAdjust="spacing" textLength="78" x="672.75" y="1324.7656">return HTML</text><polygon fill="#181818" points="56.5,1354.8184,46.5,1358.8184,56.5,1362.8184" style="stroke:#181818;stroke-width:1.0;"/><line style="stroke:#181818;stroke-width:1.0;" x1="50.5" x2="315.5" y1="1358.8184" y2="1358.8184"/><text fill="#000000" font-family="sans-serif" font-size="13" lengthAdjust="spacing" textLength="80" x="141" y="1354.0762">render HTML</text><!--SRC=[bLLHJwGm47xlhnYZYPh8-hun9hYBtjwXA8k-NhgqMIkbvMZnuh-_eS0YBgovbsNfp7pjzyqtvLKm3fMIGcMS4N8aL2ehNDfonKkHUXkfqypC2acLhN99YCc4AcX9SrZR3yd1M4ohG_0vnFzKNANydXj3jzoNOgjohYoa-CDBGgomMEip1h7MEOGwfLPeHGZMMv6A0hS3FxKQSqzFJo6C5du8SVISh1xk1abrlNd4JU3gwfAoN2Y1Ht9eboN6FDbY6_Tghg-7Up3s7mYKCOypORrw_GlINQDOK9QwxD1u_O9vZiCYUaZYA0o36Fo79SJ1qtEmJY2w-HaialKUgKuJiz3AbbfANYAaqiepmbgXjXwZ7sQMxgApDoG7nwZrg_tWKkg_qvZHvesd5l5INPNM2RFqezcMsxFpGo2jND_X5DgC03aLRbTX4iHh9y6B7wwMVXB5G_QB3cl9BHNIl50f64KlmF6Tbgp1IOBxnz1FWdtXJC9pzAkTwgUPgRTitmO1zlMxya7_Hs1Syp_L_tO6C9VjD3KLA0fzvuhnrjit_k9NW6hq_XXWtj0qm-pU1OIumG3lkZV_758fqWpmW52V3RHgdZllGe5ffFTwMptcCWIZKhfw0xs_o5G-GetgDuUolWUC1QeOR2eX6TWsE0bsvKs3sQfKy2Ev3ybmRBq3L0PLJhTcXxwypgcxqUJqudvEceExk80rZdI46iLDjSc59SCJ7HJtCSAftyrB1qd8oNlZSxvIHMNF9W0kfiVZObIvYm6HS_9D6yV6UzushskdTija8XjnzZoB48RN9cW27H8XL5guHHOShQ6TVNVA49YyRZnlT0itROXj2ipbM3zjCc-QQydTd_Q8pJ9YdJGk-NhDJ_TfS1cS4wmcP9BGA1-TzMGEpyiK4wFbE-_LxZxlQ5eOVjfsN_YZXkREPCurv1y0]--></g></svg>