<?xml version="1.0" encoding="us-ascii" standalone="no"?><svg xmlns="http://www.w3.org/2000/svg" xmlns:xlink="http://www.w3.org/1999/xlink" contentStyleType="text/css" height="1199px" preserveAspectRatio="none" style="width:3372px;height:1199px;background:#FFFFFF;" version="1.1" viewBox="0 0 3372 1199" width="3372px" zoomAndPan="magnify"><defs/><g><rect fill="none" height="163.8633" style="stroke:#000000;stroke-width:1.5;" width="3185.5" x="20" y="333.7715"/><rect fill="none" height="517.5898" style="stroke:#000000;stroke-width:1.5;" width="3356.5" x="10" y="570.2559"/><rect fill="none" height="193.1738" style="stroke:#000000;stroke-width:1.5;" width="3336.5" x="20" y="653.1875"/><line style="stroke:#181818;stroke-width:0.5;stroke-dasharray:5.0,5.0;" x1="55" x2="55" y1="52.9766" y2="1192.7773"/><line style="stroke:#181818;stroke-width:0.5;stroke-dasharray:5.0,5.0;" x1="307.5" x2="307.5" y1="52.9766" y2="1192.7773"/><line style="stroke:#181818;stroke-width:0.5;stroke-dasharray:5.0,5.0;" x1="534.5" x2="534.5" y1="52.9766" y2="1192.7773"/><line style="stroke:#181818;stroke-width:0.5;stroke-dasharray:5.0,5.0;" x1="810.5" x2="810.5" y1="52.9766" y2="1192.7773"/><line style="stroke:#181818;stroke-width:0.5;stroke-dasharray:5.0,5.0;" x1="1009.5" x2="1009.5" y1="52.9766" y2="1192.7773"/><line style="stroke:#181818;stroke-width:0.5;stroke-dasharray:5.0,5.0;" x1="1211.5" x2="1211.5" y1="52.9766" y2="1192.7773"/><line style="stroke:#181818;stroke-width:0.5;stroke-dasharray:5.0,5.0;" x1="1459.5" x2="1459.5" y1="52.9766" y2="1192.7773"/><line style="stroke:#181818;stroke-width:0.5;stroke-dasharray:5.0,5.0;" x1="1678.5" x2="1678.5" y1="52.9766" y2="1192.7773"/><line style="stroke:#181818;stroke-width:0.5;stroke-dasharray:5.0,5.0;" x1="1964.5" x2="1964.5" y1="52.9766" y2="1192.7773"/><line style="stroke:#181818;stroke-width:0.5;stroke-dasharray:5.0,5.0;" x1="2320.5" x2="2320.5" y1="52.9766" y2="1192.7773"/><line style="stroke:#181818;stroke-width:0.5;stroke-dasharray:5.0,5.0;" x1="2678.5" x2="2678.5" y1="52.9766" y2="1192.7773"/><line style="stroke:#181818;stroke-width:0.5;stroke-dasharray:5.0,5.0;" x1="2950.5" x2="2950.5" y1="52.9766" y2="1192.7773"/><line style="stroke:#181818;stroke-width:0.5;stroke-dasharray:5.0,5.0;" x1="3117.5" x2="3117.5" y1="52.9766" y2="1192.7773"/><line style="stroke:#181818;stroke-width:0.5;stroke-dasharray:5.0,5.0;" x1="3275.5" x2="3275.5" y1="52.9766" y2="1192.7773"/><rect fill="#E2E2F0" height="30.4883" rx="2.5" ry="2.5" style="stroke:#181818;stroke-width:0.5;" width="51" x="30" y="21.4883"/><text fill="#000000" font-family="sans-serif" font-size="14" lengthAdjust="spacing" textLength="37" x="37" y="42.0234">Actor</text><rect fill="#E2E2F0" height="46.9766" rx="2.5" ry="2.5" style="stroke:#181818;stroke-width:0.5;" width="146" x="234.5" y="5"/><text fill="#000000" font-family="sans-serif" font-size="14" font-style="italic" lengthAdjust="spacing" textLength="80" x="267.5" y="25.5352">&#171;/statistics&#187;</text><text fill="#000000" font-family="sans-serif" font-size="14" lengthAdjust="spacing" textLength="132" x="241.5" y="42.0234">CourtStatisticsPage</text><rect fill="#E2E2F0" height="46.9766" rx="2.5" ry="2.5" style="stroke:#181818;stroke-width:0.5;" width="289" x="390.5" y="5"/><text fill="#000000" font-family="sans-serif" font-size="14" font-style="italic" lengthAdjust="spacing" textLength="275" x="397.5" y="25.5352">&#171;/reporting/all-court-utilisation/select&#187;</text><text fill="#000000" font-family="sans-serif" font-size="14" lengthAdjust="spacing" textLength="145" x="462.5" y="42.0234">SelectCourtTypePage</text><rect fill="#E2E2F0" height="46.9766" rx="2.5" ry="2.5" style="stroke:#181818;stroke-width:0.5;" width="243" x="689.5" y="5"/><text fill="#000000" font-family="sans-serif" font-size="14" font-style="italic" lengthAdjust="spacing" textLength="229" x="696.5" y="25.5352">&#171;/reporting/all-court-utilisation&#187;</text><text fill="#000000" font-family="sans-serif" font-size="14" lengthAdjust="spacing" textLength="119" x="751.5" y="42.0234">SelectCourtsPage</text><rect fill="#E2E2F0" height="46.9766" rx="2.5" ry="2.5" style="stroke:#181818;stroke-width:0.5;" width="134" x="942.5" y="5"/><text fill="#000000" font-family="sans-serif" font-size="14" font-style="italic" lengthAdjust="spacing" textLength="56" x="981.5" y="25.5352">&#171;/error&#187;</text><text fill="#000000" font-family="sans-serif" font-size="14" lengthAdjust="spacing" textLength="120" x="949.5" y="42.0234">GenericErrorPage</text><rect fill="#FFFFE0" height="46.9766" rx="2.5" ry="2.5" style="stroke:#181818;stroke-width:0.5;" width="250" x="1086.5" y="5"/><text fill="#000000" font-family="sans-serif" font-size="14" font-style="italic" lengthAdjust="spacing" textLength="236" x="1093.5" y="25.5352">&#171;all-court-utilisation.controller.js&#187;</text><text fill="#000000" font-family="sans-serif" font-size="14" lengthAdjust="spacing" textLength="196" x="1113.5" y="42.0234">AllCourtUtilisationController</text><rect fill="#FFFFE0" height="46.9766" rx="2.5" ry="2.5" style="stroke:#181818;stroke-width:0.5;" width="226" x="1346.5" y="5"/><text fill="#000000" font-family="sans-serif" font-size="14" font-style="italic" lengthAdjust="spacing" textLength="212" x="1353.5" y="25.5352">&#171;standard-report.controller.js&#187;</text><text fill="#000000" font-family="sans-serif" font-size="14" lengthAdjust="spacing" textLength="178" x="1370.5" y="42.0234">StandardReportController</text><rect fill="#FFFFE0" height="46.9766" rx="2.5" ry="2.5" style="stroke:#181818;stroke-width:0.5;" width="193" x="1582.5" y="5"/><text fill="#000000" font-family="sans-serif" font-size="14" font-style="italic" lengthAdjust="spacing" textLength="179" x="1589.5" y="25.5352">&#171;fetchAllCourtsDAO.get()&#187;</text><text fill="#000000" font-family="sans-serif" font-size="14" lengthAdjust="spacing" textLength="108" x="1625" y="42.0234">AllCourtsObject</text><rect fill="#E6E6FA" height="46.9766" rx="2.5" ry="2.5" style="stroke:#181818;stroke-width:0.5;" width="358" x="1785.5" y="5"/><text fill="#000000" font-family="sans-serif" font-size="14" font-style="italic" lengthAdjust="spacing" textLength="344" x="1792.5" y="25.5352">&#171;reporting/all-court-utilisation/select-courts.njk&#187;</text><text fill="#000000" font-family="sans-serif" font-size="14" lengthAdjust="spacing" textLength="176" x="1876.5" y="42.0234">SelectCourtTypeTemplate</text><rect fill="#E6E6FA" height="46.9766" rx="2.5" ry="2.5" style="stroke:#181818;stroke-width:0.5;" width="334" x="2153.5" y="5"/><text fill="#000000" font-family="sans-serif" font-size="14" font-style="italic" lengthAdjust="spacing" textLength="320" x="2160.5" y="25.5352">&#171;reporting/standard-reports/court-select.njk&#187;</text><text fill="#000000" font-family="sans-serif" font-size="14" lengthAdjust="spacing" textLength="150" x="2245.5" y="42.0234">SelectCourtsTemplate</text><rect fill="#E6E6FA" height="46.9766" rx="2.5" ry="2.5" style="stroke:#181818;stroke-width:0.5;" width="363" x="2497.5" y="5"/><text fill="#000000" font-family="sans-serif" font-size="14" font-style="italic" lengthAdjust="spacing" textLength="349" x="2504.5" y="25.5352">&#171;reporting/standard-reports/standard-report.njk&#187;</text><text fill="#000000" font-family="sans-serif" font-size="14" lengthAdjust="spacing" textLength="172" x="2593" y="42.0234">StandardReportTemplate</text><rect fill="#E6E6FA" height="46.9766" rx="2.5" ry="2.5" style="stroke:#181818;stroke-width:0.5;" width="160" x="2870.5" y="5"/><text fill="#000000" font-family="sans-serif" font-size="14" font-style="italic" lengthAdjust="spacing" textLength="146" x="2877.5" y="25.5352">&#171;_errors/generic.njk&#187;</text><text fill="#000000" font-family="sans-serif" font-size="14" lengthAdjust="spacing" textLength="99" x="2901" y="42.0234">ErrorTemplate</text><rect fill="#FFD700" height="30.4883" rx="2.5" ry="2.5" style="stroke:#181818;stroke-width:0.5;" width="155" x="3040.5" y="21.4883"/><text fill="#000000" font-family="sans-serif" font-size="14" lengthAdjust="spacing" textLength="141" x="3047.5" y="42.0234">CourtSelectValidator</text><rect fill="#E2E2F0" height="30.4883" rx="2.5" ry="2.5" style="stroke:#181818;stroke-width:0.5;" width="141" x="3205.5" y="21.4883"/><text fill="#000000" font-family="sans-serif" font-size="14" lengthAdjust="spacing" textLength="127" x="3212.5" y="42.0234">BackendController</text><polygon fill="#181818" points="295.5,80.2871,305.5,84.2871,295.5,88.2871" style="stroke:#181818;stroke-width:1.0;"/><line style="stroke:#181818;stroke-width:1.0;" x1="55.5" x2="301.5" y1="84.2871" y2="84.2871"/><text fill="#000000" font-family="sans-serif" font-size="13" lengthAdjust="spacing" textLength="228" x="67.5" y="79.5449">click 'All Court Utilisation Stats' link</text><polygon fill="#181818" points="1199.5,109.5977,1209.5,113.5977,1199.5,117.5977" style="stroke:#181818;stroke-width:1.0;"/><line style="stroke:#181818;stroke-width:1.0;" x1="307.5" x2="1205.5" y1="113.5977" y2="113.5977"/><text fill="#000000" font-family="sans-serif" font-size="13" lengthAdjust="spacing" textLength="218" x="650.5" y="108.8555">call all courts utilisation controller</text><polygon fill="#181818" points="1952.5,138.9082,1962.5,142.9082,1952.5,146.9082" style="stroke:#181818;stroke-width:1.0;"/><line style="stroke:#181818;stroke-width:1.0;" x1="1211.5" x2="1958.5" y1="142.9082" y2="142.9082"/><text fill="#000000" font-family="sans-serif" font-size="13" lengthAdjust="spacing" textLength="169" x="1503.5" y="138.166">request and build template</text><polygon fill="#181818" points="1222.5,168.2188,1212.5,172.2188,1222.5,176.2188" style="stroke:#181818;stroke-width:1.0;"/><line style="stroke:#181818;stroke-width:1.0;" x1="1216.5" x2="1963.5" y1="172.2188" y2="172.2188"/><text fill="#000000" font-family="sans-serif" font-size="13" lengthAdjust="spacing" textLength="78" x="1549" y="167.4766">return HTML</text><polygon fill="#181818" points="546,197.5293,536,201.5293,546,205.5293" style="stroke:#181818;stroke-width:1.0;"/><line style="stroke:#181818;stroke-width:1.0;" x1="540" x2="1210.5" y1="201.5293" y2="201.5293"/><text fill="#000000" font-family="sans-serif" font-size="13" lengthAdjust="spacing" textLength="78" x="834.25" y="196.7871">return HTML</text><polygon fill="#181818" points="66.5,226.8398,56.5,230.8398,66.5,234.8398" style="stroke:#181818;stroke-width:1.0;"/><line style="stroke:#181818;stroke-width:1.0;" x1="60.5" x2="534" y1="230.8398" y2="230.8398"/><text fill="#000000" font-family="sans-serif" font-size="13" lengthAdjust="spacing" textLength="80" x="255.25" y="226.0977">render HTML</text><polygon fill="#181818" points="523,256.1504,533,260.1504,523,264.1504" style="stroke:#181818;stroke-width:1.0;"/><line style="stroke:#181818;stroke-width:1.0;" x1="55.5" x2="529" y1="260.1504" y2="260.1504"/><text fill="#000000" font-family="sans-serif" font-size="13" lengthAdjust="spacing" textLength="352" x="119.25" y="255.4082">select a court selection option (User selects 'All Courts')</text><polygon fill="#181818" points="1199.5,285.4609,1209.5,289.4609,1199.5,293.4609" style="stroke:#181818;stroke-width:1.0;"/><line style="stroke:#181818;stroke-width:1.0;" x1="535" x2="1205.5" y1="289.4609" y2="289.4609"/><text fill="#000000" font-family="sans-serif" font-size="13" lengthAdjust="spacing" textLength="218" x="764.25" y="284.7188">call all courts utilisation controller</text><polygon fill="#181818" points="3106,314.7715,3116,318.7715,3106,322.7715" style="stroke:#181818;stroke-width:1.0;"/><line style="stroke:#181818;stroke-width:1.0;" x1="1211.5" x2="3112" y1="318.7715" y2="318.7715"/><text fill="#000000" font-family="sans-serif" font-size="13" lengthAdjust="spacing" textLength="95" x="2117.25" y="314.0293">validate details</text><path d="M20,333.7715 L82,333.7715 L82,341.082 L72,351.082 L20,351.082 L20,333.7715 " fill="#EEEEEE" style="stroke:#000000;stroke-width:1.5;"/><rect fill="none" height="163.8633" style="stroke:#000000;stroke-width:1.5;" width="3185.5" x="20" y="333.7715"/><text fill="#000000" font-family="sans-serif" font-size="13" font-weight="bold" lengthAdjust="spacing" textLength="17" x="35" y="347.3398">alt</text><text fill="#000000" font-family="sans-serif" font-size="11" font-weight="bold" lengthAdjust="spacing" textLength="145" x="97" y="346.4063">[No court option selected]</text><polygon fill="#181818" points="1222.5,368.3926,1212.5,372.3926,1222.5,376.3926" style="stroke:#181818;stroke-width:1.0;"/><line style="stroke:#181818;stroke-width:1.0;" x1="1216.5" x2="3117" y1="372.3926" y2="372.3926"/><text fill="#000000" font-family="sans-serif" font-size="13" lengthAdjust="spacing" textLength="156" x="2086.75" y="367.6504">No court option selected</text><polygon fill="#181818" points="1952.5,397.7031,1962.5,401.7031,1952.5,405.7031" style="stroke:#181818;stroke-width:1.0;"/><line style="stroke:#181818;stroke-width:1.0;" x1="1211.5" x2="1958.5" y1="401.7031" y2="401.7031"/><text fill="#000000" font-family="sans-serif" font-size="13" lengthAdjust="spacing" textLength="169" x="1503.5" y="396.9609">request and build template</text><polygon fill="#181818" points="1222.5,427.0137,1212.5,431.0137,1222.5,435.0137" style="stroke:#181818;stroke-width:1.0;"/><line style="stroke:#181818;stroke-width:1.0;" x1="1216.5" x2="1963.5" y1="431.0137" y2="431.0137"/><text fill="#000000" font-family="sans-serif" font-size="13" lengthAdjust="spacing" textLength="78" x="1549" y="426.2715">return HTML</text><polygon fill="#181818" points="546,456.3242,536,460.3242,546,464.3242" style="stroke:#181818;stroke-width:1.0;"/><line style="stroke:#181818;stroke-width:1.0;" x1="540" x2="1210.5" y1="460.3242" y2="460.3242"/><text fill="#000000" font-family="sans-serif" font-size="13" lengthAdjust="spacing" textLength="112" x="817.25" y="455.582">return error HTML</text><polygon fill="#181818" points="66.5,485.6348,56.5,489.6348,66.5,493.6348" style="stroke:#181818;stroke-width:1.0;"/><line style="stroke:#181818;stroke-width:1.0;" x1="60.5" x2="534" y1="489.6348" y2="489.6348"/><text fill="#000000" font-family="sans-serif" font-size="13" lengthAdjust="spacing" textLength="133" x="228.75" y="484.8926">render error message</text><polygon fill="#181818" points="1222.5,521.9453,1212.5,525.9453,1222.5,529.9453" style="stroke:#181818;stroke-width:1.0;"/><line style="stroke:#181818;stroke-width:1.0;" x1="1216.5" x2="3117" y1="525.9453" y2="525.9453"/><text fill="#000000" font-family="sans-serif" font-size="13" lengthAdjust="spacing" textLength="127" x="2101.25" y="521.2031">valid details entered</text><polygon fill="#181818" points="1447.5,551.2559,1457.5,555.2559,1447.5,559.2559" style="stroke:#181818;stroke-width:1.0;"/><line style="stroke:#181818;stroke-width:1.0;" x1="1211.5" x2="1453.5" y1="555.2559" y2="555.2559"/><text fill="#000000" font-family="sans-serif" font-size="13" lengthAdjust="spacing" textLength="188" x="1241.5" y="550.5137">call standard report controller</text><path d="M10,570.2559 L72,570.2559 L72,577.5664 L62,587.5664 L10,587.5664 L10,570.2559 " fill="#EEEEEE" style="stroke:#000000;stroke-width:1.5;"/><rect fill="none" height="517.5898" style="stroke:#000000;stroke-width:1.5;" width="3356.5" x="10" y="570.2559"/><text fill="#000000" font-family="sans-serif" font-size="13" font-weight="bold" lengthAdjust="spacing" textLength="17" x="25" y="583.8242">alt</text><text fill="#000000" font-family="sans-serif" font-size="11" font-weight="bold" lengthAdjust="spacing" textLength="178" x="87" y="582.8906">[User selects 'Specific Court(s)']</text><polygon fill="#181818" points="1667,604.877,1677,608.877,1667,612.877" style="stroke:#181818;stroke-width:1.0;"/><line style="stroke:#181818;stroke-width:1.0;" x1="1459.5" x2="1673" y1="608.877" y2="608.877"/><text fill="#000000" font-family="sans-serif" font-size="13" lengthAdjust="spacing" textLength="126" x="1506.25" y="604.1348">build request object</text><polygon fill="#181818" points="3264,634.1875,3274,638.1875,3264,642.1875" style="stroke:#181818;stroke-width:1.0;"/><line style="stroke:#181818;stroke-width:1.0;" x1="1679" x2="3270" y1="638.1875" y2="638.1875"/><text fill="#000000" font-family="sans-serif" font-size="13" lengthAdjust="spacing" textLength="138" x="2408.5" y="633.4453">send backend request</text><path d="M20,653.1875 L82,653.1875 L82,660.498 L72,670.498 L20,670.498 L20,653.1875 " fill="#EEEEEE" style="stroke:#000000;stroke-width:1.5;"/><rect fill="none" height="193.1738" style="stroke:#000000;stroke-width:1.5;" width="3336.5" x="20" y="653.1875"/><text fill="#000000" font-family="sans-serif" font-size="13" font-weight="bold" lengthAdjust="spacing" textLength="17" x="35" y="666.7559">alt</text><text fill="#000000" font-family="sans-serif" font-size="11" font-weight="bold" lengthAdjust="spacing" textLength="279" x="97" y="665.8223">[Failed to fetch courts list (for report generation)]</text><polygon fill="#181818" points="1690,687.8086,1680,691.8086,1690,695.8086" style="stroke:#181818;stroke-width:1.0;"/><line style="stroke:#181818;stroke-width:1.0;stroke-dasharray:2.0,2.0;" x1="1684" x2="3275" y1="691.8086" y2="691.8086"/><text fill="#000000" font-family="sans-serif" font-size="13" lengthAdjust="spacing" textLength="91" x="2432" y="687.0664">Error response</text><polygon fill="#181818" points="1470.5,717.1191,1460.5,721.1191,1470.5,725.1191" style="stroke:#181818;stroke-width:1.0;"/><line style="stroke:#181818;stroke-width:1.0;stroke-dasharray:2.0,2.0;" x1="1464.5" x2="1678" y1="721.1191" y2="721.1191"/><text fill="#000000" font-family="sans-serif" font-size="13" lengthAdjust="spacing" textLength="127" x="1505.75" y="716.377">reject requestObject</text><polygon fill="#181818" points="2938.5,746.4297,2948.5,750.4297,2938.5,754.4297" style="stroke:#181818;stroke-width:1.0;"/><line style="stroke:#181818;stroke-width:1.0;" x1="1459.5" x2="2944.5" y1="750.4297" y2="750.4297"/><text fill="#000000" font-family="sans-serif" font-size="13" lengthAdjust="spacing" textLength="169" x="2120.5" y="745.6875">request and build template</text><polygon fill="#181818" points="1470.5,775.7402,1460.5,779.7402,1470.5,783.7402" style="stroke:#181818;stroke-width:1.0;"/><line style="stroke:#181818;stroke-width:1.0;" x1="1464.5" x2="2949.5" y1="779.7402" y2="779.7402"/><text fill="#000000" font-family="sans-serif" font-size="13" lengthAdjust="spacing" textLength="78" x="2166" y="774.998">return HTML</text><polygon fill="#181818" points="1020.5,805.0508,1010.5,809.0508,1020.5,813.0508" style="stroke:#181818;stroke-width:1.0;"/><line style="stroke:#181818;stroke-width:1.0;" x1="1014.5" x2="1458.5" y1="809.0508" y2="809.0508"/><text fill="#000000" font-family="sans-serif" font-size="13" lengthAdjust="spacing" textLength="78" x="1195.5" y="804.3086">return HTML</text><polygon fill="#181818" points="66.5,834.3613,56.5,838.3613,66.5,842.3613" style="stroke:#181818;stroke-width:1.0;"/><line style="stroke:#181818;stroke-width:1.0;" x1="60.5" x2="1008.5" y1="838.3613" y2="838.3613"/><text fill="#000000" font-family="sans-serif" font-size="13" lengthAdjust="spacing" textLength="108" x="478.5" y="833.6191">render error page</text><polygon fill="#181818" points="1690,870.6719,1680,874.6719,1690,878.6719" style="stroke:#181818;stroke-width:1.0;"/><line style="stroke:#181818;stroke-width:1.0;" x1="1684" x2="3275" y1="874.6719" y2="874.6719"/><text fill="#000000" font-family="sans-serif" font-size="13" lengthAdjust="spacing" textLength="77" x="2439" y="869.9297">ok response</text><polygon fill="#181818" points="1470.5,899.9824,1460.5,903.9824,1470.5,907.9824" style="stroke:#181818;stroke-width:1.0;"/><line style="stroke:#181818;stroke-width:1.0;" x1="1464.5" x2="1678" y1="903.9824" y2="903.9824"/><text fill="#000000" font-family="sans-serif" font-size="13" lengthAdjust="spacing" textLength="96" x="1521.25" y="899.2402">resolve request</text><polygon fill="#181818" points="2308.5,929.293,2318.5,933.293,2308.5,937.293" style="stroke:#181818;stroke-width:1.0;"/><line style="stroke:#181818;stroke-width:1.0;" x1="1459.5" x2="2314.5" y1="933.293" y2="933.293"/><text fill="#000000" font-family="sans-serif" font-size="13" lengthAdjust="spacing" textLength="169" x="1805.5" y="928.5508">request and build template</text><polygon fill="#181818" points="1470.5,958.6035,1460.5,962.6035,1470.5,966.6035" style="stroke:#181818;stroke-width:1.0;"/><line style="stroke:#181818;stroke-width:1.0;" x1="1464.5" x2="2319.5" y1="962.6035" y2="962.6035"/><text fill="#000000" font-family="sans-serif" font-size="13" lengthAdjust="spacing" textLength="78" x="1851" y="957.8613">return HTML</text><polygon fill="#181818" points="822,987.9141,812,991.9141,822,995.9141" style="stroke:#181818;stroke-width:1.0;"/><line style="stroke:#181818;stroke-width:1.0;" x1="816" x2="1458.5" y1="991.9141" y2="991.9141"/><text fill="#000000" font-family="sans-serif" font-size="13" lengthAdjust="spacing" textLength="78" x="1096.25" y="987.1719">return HTML</text><polygon fill="#181818" points="66.5,1017.2246,56.5,1021.2246,66.5,1025.2246" style="stroke:#181818;stroke-width:1.0;"/><line style="stroke:#181818;stroke-width:1.0;" x1="60.5" x2="810" y1="1021.2246" y2="1021.2246"/><text fill="#000000" font-family="sans-serif" font-size="13" lengthAdjust="spacing" textLength="80" x="393.25" y="1016.4824">render HTML</text><polygon fill="#181818" points="799,1046.5352,809,1050.5352,799,1054.5352" style="stroke:#181818;stroke-width:1.0;"/><line style="stroke:#181818;stroke-width:1.0;" x1="55.5" x2="805" y1="1050.5352" y2="1050.5352"/><text fill="#000000" font-family="sans-serif" font-size="13" lengthAdjust="spacing" textLength="164" x="351.25" y="1045.793">select court(s) and submit</text><polygon fill="#181818" points="1447.5,1075.8457,1457.5,1079.8457,1447.5,1083.8457" style="stroke:#181818;stroke-width:1.0;"/><line style="stroke:#181818;stroke-width:1.0;" x1="811" x2="1453.5" y1="1079.8457" y2="1079.8457"/><text fill="#000000" font-family="sans-serif" font-size="13" lengthAdjust="spacing" textLength="188" x="1041.25" y="1075.1035">call standard report controller</text><polygon fill="#181818" points="2667,1112.1563,2677,1116.1563,2667,1120.1563" style="stroke:#181818;stroke-width:1.0;"/><line style="stroke:#181818;stroke-width:1.0;" x1="1459.5" x2="2673" y1="1116.1563" y2="1116.1563"/><text fill="#000000" font-family="sans-serif" font-size="13" lengthAdjust="spacing" textLength="169" x="1984.75" y="1111.4141">request and build template</text><polygon fill="#181818" points="1470.5,1141.4668,1460.5,1145.4668,1470.5,1149.4668" style="stroke:#181818;stroke-width:1.0;"/><line style="stroke:#181818;stroke-width:1.0;" x1="1464.5" x2="2678" y1="1145.4668" y2="1145.4668"/><text fill="#000000" font-family="sans-serif" font-size="13" lengthAdjust="spacing" textLength="78" x="2030.25" y="1140.7246">return HTML</text><polygon fill="#181818" points="66.5,1170.7773,56.5,1174.7773,66.5,1178.7773" style="stroke:#181818;stroke-width:1.0;"/><line style="stroke:#181818;stroke-width:1.0;" x1="60.5" x2="1458.5" y1="1174.7773" y2="1174.7773"/><text fill="#000000" font-family="sans-serif" font-size="13" lengthAdjust="spacing" textLength="278" x="618.5" y="1170.0352">report displayed by standard report renderer</text><!--SRC=[hLRRKjim47tNLso1cIGpkRmp33Cc69hMO1exl7OKMGGHHNOjkPtyVTUISt5Yf-cq3y14sZsxv-ZiXdUHS2YK56h94q8-2SLaWKSBhdWks60kKxRKmqnIPOgL94GlXSfeJbSGcRNae0s6bLUmVyL_55mn_iIrfWlkIR5GAwuCCFp5Sq8mp0WcCaG5ZvaKZpgT3WJXs0jW6ixYoVDZBMYS5hc933L2uvb-GLIukHdfxSdjRIq-uf8pOxFYTSOtyJdFKWnIYn6LSi3Awq5XX1GQSL8rqZQj7KkV2NI0yEZKzFCypJS8lFo0SPRuE7oEfs4G-5FmdkzXwd-R-L4CuTqNVnn7TRcajAtCTjN6gJ9vAYNF4RYndo7RXWm_K2kun2TvDsikPVghJjPGbT0ycLg2DMHTNGqS-VCnDothSFw1IYBK6pViVNjyxuN31JVTtY68rIRsdru2B_QZKmySynLwr9JAdlV6xa8FrSVILgK_kKhGccqFtrZWG14zSjLSXTFGDPdF0p_K_nI-jTeUx7ThDpsgvleerohzC0bYVnfP2xvwmUJUYyDfr327bjyhbIAXEBjmkKXbuY3klF5N7zDtXgwbtr6sn88xMn5Ynny6juqZVWrC2hQ43dh51S2UxqiLZUv0kRr8KpgYdXuNn4UJGFdZ_01xJe6TmSbLRdNQA1gd9Nxt97Y_pQFzfktKsrEYQNbTWtCLKDTfzR5iCytid-vC8oDthFSKqvqUQKByZ-ByT5RW4vKLva-gD5dexxJgmyLpMibGaNUqUNBH8wT9bVAshRYAy6REmCtPFbD29JgmfdEKSIRU17EykhhN8G1NrPnvBvCnGdRRIlOFTsE_Fhd8z84AoHCmATYbkNaAf6QW-uQ6gRgq5ItR7eg0BJGwjhsHfcNNF_hkAv6RVAhh9cML5e3LG1VpbJ00c7gKyM_FWGm9QSq_mjxkmsl4mlzGKC6oltaX90fSNRRZtGnEuPaYL_0vVWggEJwAhZ6hk2H28y8QttU-FYBg7X1f0lm6]--></g></svg>