<?xml version="1.0" encoding="us-ascii" standalone="no"?><svg xmlns="http://www.w3.org/2000/svg" xmlns:xlink="http://www.w3.org/1999/xlink" contentStyleType="text/css" height="2290px" preserveAspectRatio="none" style="width:3691px;height:2290px;background:#FFFFFF;" version="1.1" viewBox="0 0 3691 2290" width="3691px" zoomAndPan="magnify"><defs/><g><rect fill="none" height="193.1738" style="stroke:#000000;stroke-width:1.5;" width="3655" x="20" y="187.2188"/><rect fill="none" height="163.8633" style="stroke:#000000;stroke-width:1.5;" width="2916" x="20" y="658.1875"/><rect fill="none" height="193.1738" style="stroke:#000000;stroke-width:1.5;" width="3655" x="20" y="923.9824"/><rect fill="none" height="959.248" style="stroke:#000000;stroke-width:1.5;" width="3675" x="10" y="1307.0195"/><rect fill="none" height="193.1738" style="stroke:#000000;stroke-width:1.5;" width="3655" x="20" y="1448.5723"/><rect fill="none" height="193.1738" style="stroke:#000000;stroke-width:1.5;" width="3655" x="20" y="1948.8516"/><line style="stroke:#181818;stroke-width:0.5;stroke-dasharray:5.0,5.0;" x1="55" x2="55" y1="52.9766" y2="2283.2676"/><line style="stroke:#181818;stroke-width:0.5;stroke-dasharray:5.0,5.0;" x1="225" x2="225" y1="52.9766" y2="2283.2676"/><line style="stroke:#181818;stroke-width:0.5;stroke-dasharray:5.0,5.0;" x1="558" x2="558" y1="52.9766" y2="2283.2676"/><line style="stroke:#181818;stroke-width:0.5;stroke-dasharray:5.0,5.0;" x1="947" x2="947" y1="52.9766" y2="2283.2676"/><line style="stroke:#181818;stroke-width:0.5;stroke-dasharray:5.0,5.0;" x1="1216" x2="1216" y1="52.9766" y2="2283.2676"/><line style="stroke:#181818;stroke-width:0.5;stroke-dasharray:5.0,5.0;" x1="1397" x2="1397" y1="52.9766" y2="2283.2676"/><line style="stroke:#181818;stroke-width:0.5;stroke-dasharray:5.0,5.0;" x1="1597" x2="1597" y1="52.9766" y2="2283.2676"/><line style="stroke:#181818;stroke-width:0.5;stroke-dasharray:5.0,5.0;" x1="1771" x2="1771" y1="52.9766" y2="2283.2676"/><line style="stroke:#181818;stroke-width:0.5;stroke-dasharray:5.0,5.0;" x1="1946" x2="1946" y1="52.9766" y2="2283.2676"/><line style="stroke:#181818;stroke-width:0.5;stroke-dasharray:5.0,5.0;" x1="2127" x2="2127" y1="52.9766" y2="2283.2676"/><line style="stroke:#181818;stroke-width:0.5;stroke-dasharray:5.0,5.0;" x1="2368" x2="2368" y1="52.9766" y2="2283.2676"/><line style="stroke:#181818;stroke-width:0.5;stroke-dasharray:5.0,5.0;" x1="2725" x2="2725" y1="52.9766" y2="2283.2676"/><line style="stroke:#181818;stroke-width:0.5;stroke-dasharray:5.0,5.0;" x1="3140" x2="3140" y1="52.9766" y2="2283.2676"/><line style="stroke:#181818;stroke-width:0.5;stroke-dasharray:5.0,5.0;" x1="3434" x2="3434" y1="52.9766" y2="2283.2676"/><line style="stroke:#181818;stroke-width:0.5;stroke-dasharray:5.0,5.0;" x1="3594" x2="3594" y1="52.9766" y2="2283.2676"/><rect fill="#E2E2F0" height="30.4883" rx="2.5" ry="2.5" style="stroke:#181818;stroke-width:0.5;" width="51" x="30" y="21.4883"/><text fill="#000000" font-family="sans-serif" font-size="14" lengthAdjust="spacing" textLength="37" x="37" y="42.0234">Actor</text><rect fill="#E2E2F0" height="46.9766" rx="2.5" ry="2.5" style="stroke:#181818;stroke-width:0.5;" width="269" x="91" y="5"/><text fill="#000000" font-family="sans-serif" font-size="14" font-style="italic" lengthAdjust="spacing" textLength="255" x="98" y="25.5352">&#171;/administration/users/user-record&#187;</text><text fill="#000000" font-family="sans-serif" font-size="14" lengthAdjust="spacing" textLength="112" x="169.5" y="42.0234">UserRecordPage</text><rect fill="#E2E2F0" height="46.9766" rx="2.5" ry="2.5" style="stroke:#181818;stroke-width:0.5;" width="376" x="370" y="5"/><text fill="#000000" font-family="sans-serif" font-size="14" font-style="italic" lengthAdjust="spacing" textLength="362" x="377" y="25.5352">&#171;/administration/users/assign-courts/assign-court&#187;</text><text fill="#000000" font-family="sans-serif" font-size="14" lengthAdjust="spacing" textLength="125" x="495.5" y="42.0234">AssignCourtsPage</text><rect fill="#E2E2F0" height="46.9766" rx="2.5" ry="2.5" style="stroke:#181818;stroke-width:0.5;" width="383" x="756" y="5"/><text fill="#000000" font-family="sans-serif" font-size="14" font-style="italic" lengthAdjust="spacing" textLength="369" x="763" y="25.5352">&#171;/administration/users/assign-courts/remove-court&#187;</text><text fill="#000000" font-family="sans-serif" font-size="14" lengthAdjust="spacing" textLength="133" x="881" y="42.0234">RemoveCourtsPage</text><rect fill="#E2E2F0" height="46.9766" rx="2.5" ry="2.5" style="stroke:#181818;stroke-width:0.5;" width="134" x="1149" y="5"/><text fill="#000000" font-family="sans-serif" font-size="14" font-style="italic" lengthAdjust="spacing" textLength="56" x="1188" y="25.5352">&#171;/error&#187;</text><text fill="#000000" font-family="sans-serif" font-size="14" lengthAdjust="spacing" textLength="120" x="1156" y="42.0234">GenericErrorPage</text><rect fill="#FFFFE0" height="46.9766" rx="2.5" ry="2.5" style="stroke:#181818;stroke-width:0.5;" width="209" x="1293" y="5"/><text fill="#000000" font-family="sans-serif" font-size="14" font-style="italic" lengthAdjust="spacing" textLength="195" x="1300" y="25.5352">&#171;assign-courts.controller.js&#187;</text><text fill="#000000" font-family="sans-serif" font-size="14" lengthAdjust="spacing" textLength="162" x="1316.5" y="42.0234">AssignCourtsController</text><rect fill="#FFFFE0" height="46.9766" rx="2.5" ry="2.5" style="stroke:#181818;stroke-width:0.5;" width="170" x="1512" y="5"/><text fill="#000000" font-family="sans-serif" font-size="14" font-style="italic" lengthAdjust="spacing" textLength="156" x="1519" y="25.5352">&#171;assignCourts.patch()&#187;</text><text fill="#000000" font-family="sans-serif" font-size="14" lengthAdjust="spacing" textLength="136" x="1529" y="42.0234">AssignCourtsObject</text><rect fill="#FFFFE0" height="46.9766" rx="2.5" ry="2.5" style="stroke:#181818;stroke-width:0.5;" width="158" x="1692" y="5"/><text fill="#000000" font-family="sans-serif" font-size="14" font-style="italic" lengthAdjust="spacing" textLength="131" x="1705.5" y="25.5352">&#171;userDAO.delete()&#187;</text><text fill="#000000" font-family="sans-serif" font-size="14" lengthAdjust="spacing" textLength="144" x="1699" y="42.0234">RemoveCourtsObject</text><rect fill="#FFFFE0" height="46.9766" rx="2.5" ry="2.5" style="stroke:#181818;stroke-width:0.5;" width="173" x="1860" y="5"/><text fill="#000000" font-family="sans-serif" font-size="14" font-style="italic" lengthAdjust="spacing" textLength="159" x="1867" y="25.5352">&#171;userRecordDAO.get()&#187;</text><text fill="#000000" font-family="sans-serif" font-size="14" lengthAdjust="spacing" textLength="123" x="1885" y="42.0234">UserRecordObject</text><rect fill="#FFD700" height="30.4883" rx="2.5" ry="2.5" style="stroke:#181818;stroke-width:0.5;" width="168" x="2043" y="21.4883"/><text fill="#000000" font-family="sans-serif" font-size="14" lengthAdjust="spacing" textLength="154" x="2050" y="42.0234">AssignCourtsValidator</text><rect fill="#E2E2F0" height="46.9766" rx="2.5" ry="2.5" style="stroke:#181818;stroke-width:0.5;" width="294" x="2221" y="5"/><text fill="#000000" font-family="sans-serif" font-size="14" font-style="italic" lengthAdjust="spacing" textLength="280" x="2228" y="25.5352">&#171;/administration/users/user-record.njk&#187;</text><text fill="#000000" font-family="sans-serif" font-size="14" lengthAdjust="spacing" textLength="143" x="2296.5" y="42.0234">UserRecordTemplate</text><rect fill="#E2E2F0" height="46.9766" rx="2.5" ry="2.5" style="stroke:#181818;stroke-width:0.5;" width="401" x="2525" y="5"/><text fill="#000000" font-family="sans-serif" font-size="14" font-style="italic" lengthAdjust="spacing" textLength="387" x="2532" y="25.5352">&#171;/administration/users/assign-courts/assign-court.njk&#187;</text><text fill="#000000" font-family="sans-serif" font-size="14" lengthAdjust="spacing" textLength="156" x="2647.5" y="42.0234">AssignCourtsTemplate</text><rect fill="#E2E2F0" height="46.9766" rx="2.5" ry="2.5" style="stroke:#181818;stroke-width:0.5;" width="408" x="2936" y="5"/><text fill="#000000" font-family="sans-serif" font-size="14" font-style="italic" lengthAdjust="spacing" textLength="394" x="2943" y="25.5352">&#171;/administration/users/assign-courts/remove-court.njk&#187;</text><text fill="#000000" font-family="sans-serif" font-size="14" lengthAdjust="spacing" textLength="164" x="3058" y="42.0234">RemoveCourtsTemplate</text><rect fill="#E6E6FA" height="46.9766" rx="2.5" ry="2.5" style="stroke:#181818;stroke-width:0.5;" width="160" x="3354" y="5"/><text fill="#000000" font-family="sans-serif" font-size="14" font-style="italic" lengthAdjust="spacing" textLength="146" x="3361" y="25.5352">&#171;_errors/generic.njk&#187;</text><text fill="#000000" font-family="sans-serif" font-size="14" lengthAdjust="spacing" textLength="99" x="3384.5" y="42.0234">ErrorTemplate</text><rect fill="#E2E2F0" height="30.4883" rx="2.5" ry="2.5" style="stroke:#181818;stroke-width:0.5;" width="141" x="3524" y="21.4883"/><text fill="#000000" font-family="sans-serif" font-size="14" lengthAdjust="spacing" textLength="127" x="3531" y="42.0234">BackendController</text><polygon fill="#181818" points="213.5,80.2871,223.5,84.2871,213.5,88.2871" style="stroke:#181818;stroke-width:1.0;"/><line style="stroke:#181818;stroke-width:1.0;" x1="55.5" x2="219.5" y1="84.2871" y2="84.2871"/><text fill="#000000" font-family="sans-serif" font-size="13" lengthAdjust="spacing" textLength="129" x="76" y="79.5449">click assign to court</text><polygon fill="#181818" points="1385.5,109.5977,1395.5,113.5977,1385.5,117.5977" style="stroke:#181818;stroke-width:1.0;"/><line style="stroke:#181818;stroke-width:1.0;" x1="225.5" x2="1391.5" y1="113.5977" y2="113.5977"/><text fill="#000000" font-family="sans-serif" font-size="13" lengthAdjust="spacing" textLength="176" x="723.5" y="108.8555">call assign courts controller</text><polygon fill="#181818" points="1934.5,138.9082,1944.5,142.9082,1934.5,146.9082" style="stroke:#181818;stroke-width:1.0;"/><line style="stroke:#181818;stroke-width:1.0;" x1="1397.5" x2="1940.5" y1="142.9082" y2="142.9082"/><text fill="#000000" font-family="sans-serif" font-size="13" lengthAdjust="spacing" textLength="126" x="1609" y="138.166">build request object</text><polygon fill="#181818" points="3582.5,168.2188,3592.5,172.2188,3582.5,176.2188" style="stroke:#181818;stroke-width:1.0;"/><line style="stroke:#181818;stroke-width:1.0;" x1="1946.5" x2="3588.5" y1="172.2188" y2="172.2188"/><text fill="#000000" font-family="sans-serif" font-size="13" lengthAdjust="spacing" textLength="138" x="2701.5" y="167.4766">send backend request</text><path d="M20,187.2188 L82,187.2188 L82,194.5293 L72,204.5293 L20,204.5293 L20,187.2188 " fill="#EEEEEE" style="stroke:#000000;stroke-width:1.5;"/><rect fill="none" height="193.1738" style="stroke:#000000;stroke-width:1.5;" width="3655" x="20" y="187.2188"/><text fill="#000000" font-family="sans-serif" font-size="13" font-weight="bold" lengthAdjust="spacing" textLength="17" x="35" y="200.7871">alt</text><text fill="#000000" font-family="sans-serif" font-size="11" font-weight="bold" lengthAdjust="spacing" textLength="127" x="97" y="199.8535">[Failed to fetch courts]</text><polygon fill="#181818" points="1957.5,221.8398,1947.5,225.8398,1957.5,229.8398" style="stroke:#181818;stroke-width:1.0;"/><line style="stroke:#181818;stroke-width:1.0;stroke-dasharray:2.0,2.0;" x1="1951.5" x2="3593.5" y1="225.8398" y2="225.8398"/><text fill="#000000" font-family="sans-serif" font-size="13" lengthAdjust="spacing" textLength="91" x="2725" y="221.0977">error response</text><polygon fill="#181818" points="1408.5,251.1504,1398.5,255.1504,1408.5,259.1504" style="stroke:#181818;stroke-width:1.0;"/><line style="stroke:#181818;stroke-width:1.0;stroke-dasharray:2.0,2.0;" x1="1402.5" x2="1945.5" y1="255.1504" y2="255.1504"/><text fill="#000000" font-family="sans-serif" font-size="13" lengthAdjust="spacing" textLength="127" x="1608.5" y="250.4082">reject requestObject</text><polygon fill="#181818" points="3422,280.4609,3432,284.4609,3422,288.4609" style="stroke:#181818;stroke-width:1.0;"/><line style="stroke:#181818;stroke-width:1.0;" x1="1397.5" x2="3428" y1="284.4609" y2="284.4609"/><text fill="#000000" font-family="sans-serif" font-size="13" lengthAdjust="spacing" textLength="169" x="2331.25" y="279.7188">request and build template</text><polygon fill="#181818" points="1408.5,309.7715,1398.5,313.7715,1408.5,317.7715" style="stroke:#181818;stroke-width:1.0;"/><line style="stroke:#181818;stroke-width:1.0;" x1="1402.5" x2="3433" y1="313.7715" y2="313.7715"/><text fill="#000000" font-family="sans-serif" font-size="13" lengthAdjust="spacing" textLength="78" x="2376.75" y="309.0293">return HTML</text><polygon fill="#181818" points="1227,339.082,1217,343.082,1227,347.082" style="stroke:#181818;stroke-width:1.0;"/><line style="stroke:#181818;stroke-width:1.0;" x1="1221" x2="1396.5" y1="343.082" y2="343.082"/><text fill="#000000" font-family="sans-serif" font-size="13" lengthAdjust="spacing" textLength="78" x="1267.75" y="338.3398">return HTML</text><polygon fill="#181818" points="66.5,368.3926,56.5,372.3926,66.5,376.3926" style="stroke:#181818;stroke-width:1.0;"/><line style="stroke:#181818;stroke-width:1.0;" x1="60.5" x2="1215" y1="372.3926" y2="372.3926"/><text fill="#000000" font-family="sans-serif" font-size="13" lengthAdjust="spacing" textLength="108" x="581.75" y="367.6504">render error page</text><polygon fill="#181818" points="1957.5,404.7031,1947.5,408.7031,1957.5,412.7031" style="stroke:#181818;stroke-width:1.0;"/><line style="stroke:#181818;stroke-width:1.0;" x1="1951.5" x2="3593.5" y1="408.7031" y2="408.7031"/><text fill="#000000" font-family="sans-serif" font-size="13" lengthAdjust="spacing" textLength="77" x="2732" y="403.9609">ok response</text><polygon fill="#181818" points="1408.5,434.0137,1398.5,438.0137,1408.5,442.0137" style="stroke:#181818;stroke-width:1.0;"/><line style="stroke:#181818;stroke-width:1.0;" x1="1402.5" x2="1945.5" y1="438.0137" y2="438.0137"/><text fill="#000000" font-family="sans-serif" font-size="13" lengthAdjust="spacing" textLength="96" x="1624" y="433.2715">resolve request</text><polygon fill="#181818" points="2713.5,463.3242,2723.5,467.3242,2713.5,471.3242" style="stroke:#181818;stroke-width:1.0;"/><line style="stroke:#181818;stroke-width:1.0;" x1="1397.5" x2="2719.5" y1="467.3242" y2="467.3242"/><text fill="#000000" font-family="sans-serif" font-size="13" lengthAdjust="spacing" textLength="169" x="1977" y="462.582">request and build template</text><polygon fill="#181818" points="1408.5,492.6348,1398.5,496.6348,1408.5,500.6348" style="stroke:#181818;stroke-width:1.0;"/><line style="stroke:#181818;stroke-width:1.0;" x1="1402.5" x2="2724.5" y1="496.6348" y2="496.6348"/><text fill="#000000" font-family="sans-serif" font-size="13" lengthAdjust="spacing" textLength="78" x="2022.5" y="491.8926">return HTML</text><polygon fill="#181818" points="569,521.9453,559,525.9453,569,529.9453" style="stroke:#181818;stroke-width:1.0;"/><line style="stroke:#181818;stroke-width:1.0;" x1="563" x2="1396.5" y1="525.9453" y2="525.9453"/><text fill="#000000" font-family="sans-serif" font-size="13" lengthAdjust="spacing" textLength="78" x="938.75" y="521.2031">return HTML</text><polygon fill="#181818" points="66.5,551.2559,56.5,555.2559,66.5,559.2559" style="stroke:#181818;stroke-width:1.0;"/><line style="stroke:#181818;stroke-width:1.0;" x1="60.5" x2="557" y1="555.2559" y2="555.2559"/><text fill="#000000" font-family="sans-serif" font-size="13" lengthAdjust="spacing" textLength="80" x="266.75" y="550.5137">render HTML</text><polygon fill="#181818" points="546,580.5664,556,584.5664,546,588.5664" style="stroke:#181818;stroke-width:1.0;"/><line style="stroke:#181818;stroke-width:1.0;" x1="55.5" x2="552" y1="584.5664" y2="584.5664"/><text fill="#000000" font-family="sans-serif" font-size="13" lengthAdjust="spacing" textLength="202" x="205.75" y="579.8242">select courts to assign a user to</text><polygon fill="#181818" points="1385.5,609.877,1395.5,613.877,1385.5,617.877" style="stroke:#181818;stroke-width:1.0;"/><line style="stroke:#181818;stroke-width:1.0;" x1="558" x2="1391.5" y1="613.877" y2="613.877"/><text fill="#000000" font-family="sans-serif" font-size="13" lengthAdjust="spacing" textLength="155" x="900.25" y="609.1348">POST assign courts form</text><polygon fill="#181818" points="2115,639.1875,2125,643.1875,2115,647.1875" style="stroke:#181818;stroke-width:1.0;"/><line style="stroke:#181818;stroke-width:1.0;" x1="1397.5" x2="2121" y1="643.1875" y2="643.1875"/><text fill="#000000" font-family="sans-serif" font-size="13" lengthAdjust="spacing" textLength="95" x="1714.75" y="638.4453">validate details</text><path d="M20,658.1875 L82,658.1875 L82,665.498 L72,675.498 L20,675.498 L20,658.1875 " fill="#EEEEEE" style="stroke:#000000;stroke-width:1.5;"/><rect fill="none" height="163.8633" style="stroke:#000000;stroke-width:1.5;" width="2916" x="20" y="658.1875"/><text fill="#000000" font-family="sans-serif" font-size="13" font-weight="bold" lengthAdjust="spacing" textLength="17" x="35" y="671.7559">alt</text><text fill="#000000" font-family="sans-serif" font-size="11" font-weight="bold" lengthAdjust="spacing" textLength="80" x="97" y="670.8223">[Invalid input]</text><polygon fill="#181818" points="1408.5,692.8086,1398.5,696.8086,1408.5,700.8086" style="stroke:#181818;stroke-width:1.0;"/><line style="stroke:#181818;stroke-width:1.0;" x1="1402.5" x2="2126" y1="696.8086" y2="696.8086"/><text fill="#000000" font-family="sans-serif" font-size="13" lengthAdjust="spacing" textLength="79" x="1722.75" y="692.0664">Invalid input</text><polygon fill="#181818" points="2713.5,722.1191,2723.5,726.1191,2713.5,730.1191" style="stroke:#181818;stroke-width:1.0;"/><line style="stroke:#181818;stroke-width:1.0;" x1="1397.5" x2="2719.5" y1="726.1191" y2="726.1191"/><text fill="#000000" font-family="sans-serif" font-size="13" lengthAdjust="spacing" textLength="169" x="1977" y="721.377">request and build template</text><polygon fill="#181818" points="1408.5,751.4297,1398.5,755.4297,1408.5,759.4297" style="stroke:#181818;stroke-width:1.0;"/><line style="stroke:#181818;stroke-width:1.0;" x1="1402.5" x2="2724.5" y1="755.4297" y2="755.4297"/><text fill="#000000" font-family="sans-serif" font-size="13" lengthAdjust="spacing" textLength="78" x="2022.5" y="750.6875">return HTML</text><polygon fill="#181818" points="569,780.7402,559,784.7402,569,788.7402" style="stroke:#181818;stroke-width:1.0;"/><line style="stroke:#181818;stroke-width:1.0;" x1="563" x2="1396.5" y1="784.7402" y2="784.7402"/><text fill="#000000" font-family="sans-serif" font-size="13" lengthAdjust="spacing" textLength="112" x="921.75" y="779.998">return error HTML</text><polygon fill="#181818" points="66.5,810.0508,56.5,814.0508,66.5,818.0508" style="stroke:#181818;stroke-width:1.0;"/><line style="stroke:#181818;stroke-width:1.0;" x1="60.5" x2="557" y1="814.0508" y2="814.0508"/><text fill="#000000" font-family="sans-serif" font-size="13" lengthAdjust="spacing" textLength="133" x="240.25" y="809.3086">render error message</text><polygon fill="#181818" points="1408.5,846.3613,1398.5,850.3613,1408.5,854.3613" style="stroke:#181818;stroke-width:1.0;"/><line style="stroke:#181818;stroke-width:1.0;" x1="1402.5" x2="2126" y1="850.3613" y2="850.3613"/><text fill="#000000" font-family="sans-serif" font-size="13" lengthAdjust="spacing" textLength="127" x="1698.75" y="845.6191">valid details entered</text><polygon fill="#181818" points="1585,875.6719,1595,879.6719,1585,883.6719" style="stroke:#181818;stroke-width:1.0;"/><line style="stroke:#181818;stroke-width:1.0;" x1="1397.5" x2="1591" y1="879.6719" y2="879.6719"/><text fill="#000000" font-family="sans-serif" font-size="13" lengthAdjust="spacing" textLength="126" x="1434.25" y="874.9297">build request object</text><polygon fill="#181818" points="3582.5,904.9824,3592.5,908.9824,3582.5,912.9824" style="stroke:#181818;stroke-width:1.0;"/><line style="stroke:#181818;stroke-width:1.0;" x1="1946.5" x2="3588.5" y1="908.9824" y2="908.9824"/><text fill="#000000" font-family="sans-serif" font-size="13" lengthAdjust="spacing" textLength="138" x="2701.5" y="904.2402">send backend request</text><path d="M20,923.9824 L82,923.9824 L82,931.293 L72,941.293 L20,941.293 L20,923.9824 " fill="#EEEEEE" style="stroke:#000000;stroke-width:1.5;"/><rect fill="none" height="193.1738" style="stroke:#000000;stroke-width:1.5;" width="3655" x="20" y="923.9824"/><text fill="#000000" font-family="sans-serif" font-size="13" font-weight="bold" lengthAdjust="spacing" textLength="17" x="35" y="937.5508">alt</text><text fill="#000000" font-family="sans-serif" font-size="11" font-weight="bold" lengthAdjust="spacing" textLength="178" x="97" y="936.6172">[Failed to assign courts to user]</text><polygon fill="#181818" points="1608,958.6035,1598,962.6035,1608,966.6035" style="stroke:#181818;stroke-width:1.0;"/><line style="stroke:#181818;stroke-width:1.0;stroke-dasharray:2.0,2.0;" x1="1602" x2="3593.5" y1="962.6035" y2="962.6035"/><text fill="#000000" font-family="sans-serif" font-size="13" lengthAdjust="spacing" textLength="91" x="2550.25" y="957.8613">error response</text><polygon fill="#181818" points="1408.5,987.9141,1398.5,991.9141,1408.5,995.9141" style="stroke:#181818;stroke-width:1.0;"/><line style="stroke:#181818;stroke-width:1.0;stroke-dasharray:2.0,2.0;" x1="1402.5" x2="1596" y1="991.9141" y2="991.9141"/><text fill="#000000" font-family="sans-serif" font-size="13" lengthAdjust="spacing" textLength="127" x="1433.75" y="987.1719">reject requestObject</text><polygon fill="#181818" points="3422,1017.2246,3432,1021.2246,3422,1025.2246" style="stroke:#181818;stroke-width:1.0;"/><line style="stroke:#181818;stroke-width:1.0;" x1="1397.5" x2="3428" y1="1021.2246" y2="1021.2246"/><text fill="#000000" font-family="sans-serif" font-size="13" lengthAdjust="spacing" textLength="169" x="2331.25" y="1016.4824">request and build template</text><polygon fill="#181818" points="1408.5,1046.5352,1398.5,1050.5352,1408.5,1054.5352" style="stroke:#181818;stroke-width:1.0;"/><line style="stroke:#181818;stroke-width:1.0;" x1="1402.5" x2="3433" y1="1050.5352" y2="1050.5352"/><text fill="#000000" font-family="sans-serif" font-size="13" lengthAdjust="spacing" textLength="78" x="2376.75" y="1045.793">return HTML</text><polygon fill="#181818" points="1227,1075.8457,1217,1079.8457,1227,1083.8457" style="stroke:#181818;stroke-width:1.0;"/><line style="stroke:#181818;stroke-width:1.0;" x1="1221" x2="1396.5" y1="1079.8457" y2="1079.8457"/><text fill="#000000" font-family="sans-serif" font-size="13" lengthAdjust="spacing" textLength="78" x="1267.75" y="1075.1035">return HTML</text><polygon fill="#181818" points="66.5,1105.1563,56.5,1109.1563,66.5,1113.1563" style="stroke:#181818;stroke-width:1.0;"/><line style="stroke:#181818;stroke-width:1.0;" x1="60.5" x2="1215" y1="1109.1563" y2="1109.1563"/><text fill="#000000" font-family="sans-serif" font-size="13" lengthAdjust="spacing" textLength="108" x="581.75" y="1104.4141">render error page</text><polygon fill="#181818" points="1608,1141.4668,1598,1145.4668,1608,1149.4668" style="stroke:#181818;stroke-width:1.0;"/><line style="stroke:#181818;stroke-width:1.0;" x1="1602" x2="3593.5" y1="1145.4668" y2="1145.4668"/><text fill="#000000" font-family="sans-serif" font-size="13" lengthAdjust="spacing" textLength="77" x="2557.25" y="1140.7246">ok response</text><polygon fill="#181818" points="1408.5,1170.7773,1398.5,1174.7773,1408.5,1178.7773" style="stroke:#181818;stroke-width:1.0;"/><line style="stroke:#181818;stroke-width:1.0;" x1="1402.5" x2="1596" y1="1174.7773" y2="1174.7773"/><text fill="#000000" font-family="sans-serif" font-size="13" lengthAdjust="spacing" textLength="96" x="1449.25" y="1170.0352">resolve request</text><polygon fill="#181818" points="2356,1200.0879,2366,1204.0879,2356,1208.0879" style="stroke:#181818;stroke-width:1.0;"/><line style="stroke:#181818;stroke-width:1.0;" x1="1397.5" x2="2362" y1="1204.0879" y2="1204.0879"/><text fill="#000000" font-family="sans-serif" font-size="13" lengthAdjust="spacing" textLength="169" x="1798.25" y="1199.3457">request and build template</text><polygon fill="#181818" points="1408.5,1229.3984,1398.5,1233.3984,1408.5,1237.3984" style="stroke:#181818;stroke-width:1.0;"/><line style="stroke:#181818;stroke-width:1.0;" x1="1402.5" x2="2367" y1="1233.3984" y2="1233.3984"/><text fill="#000000" font-family="sans-serif" font-size="13" lengthAdjust="spacing" textLength="78" x="1843.75" y="1228.6563">return HTML</text><polygon fill="#181818" points="236.5,1258.709,226.5,1262.709,236.5,1266.709" style="stroke:#181818;stroke-width:1.0;"/><line style="stroke:#181818;stroke-width:1.0;" x1="230.5" x2="1396.5" y1="1262.709" y2="1262.709"/><text fill="#000000" font-family="sans-serif" font-size="13" lengthAdjust="spacing" textLength="78" x="772.5" y="1257.9668">return HTML</text><polygon fill="#181818" points="66.5,1288.0195,56.5,1292.0195,66.5,1296.0195" style="stroke:#181818;stroke-width:1.0;"/><line style="stroke:#181818;stroke-width:1.0;" x1="60.5" x2="224.5" y1="1292.0195" y2="1292.0195"/><text fill="#000000" font-family="sans-serif" font-size="13" lengthAdjust="spacing" textLength="80" x="100.5" y="1287.2773">render HTML</text><path d="M10,1307.0195 L72,1307.0195 L72,1314.3301 L62,1324.3301 L10,1324.3301 L10,1307.0195 " fill="#EEEEEE" style="stroke:#000000;stroke-width:1.5;"/><rect fill="none" height="959.248" style="stroke:#000000;stroke-width:1.5;" width="3675" x="10" y="1307.0195"/><text fill="#000000" font-family="sans-serif" font-size="13" font-weight="bold" lengthAdjust="spacing" textLength="17" x="25" y="1320.5879">alt</text><text fill="#000000" font-family="sans-serif" font-size="11" font-weight="bold" lengthAdjust="spacing" textLength="96" x="87" y="1319.6543">[Remove a court]</text><polygon fill="#181818" points="213.5,1341.6406,223.5,1345.6406,213.5,1349.6406" style="stroke:#181818;stroke-width:1.0;"/><line style="stroke:#181818;stroke-width:1.0;" x1="55.5" x2="219.5" y1="1345.6406" y2="1345.6406"/><text fill="#000000" font-family="sans-serif" font-size="13" lengthAdjust="spacing" textLength="128" x="76.5" y="1340.8984">click remove a court</text><polygon fill="#181818" points="1385.5,1370.9512,1395.5,1374.9512,1385.5,1378.9512" style="stroke:#181818;stroke-width:1.0;"/><line style="stroke:#181818;stroke-width:1.0;" x1="225.5" x2="1391.5" y1="1374.9512" y2="1374.9512"/><text fill="#000000" font-family="sans-serif" font-size="13" lengthAdjust="spacing" textLength="176" x="723.5" y="1370.209">call assign courts controller</text><polygon fill="#181818" points="1934.5,1400.2617,1944.5,1404.2617,1934.5,1408.2617" style="stroke:#181818;stroke-width:1.0;"/><line style="stroke:#181818;stroke-width:1.0;" x1="1397.5" x2="1940.5" y1="1404.2617" y2="1404.2617"/><text fill="#000000" font-family="sans-serif" font-size="13" lengthAdjust="spacing" textLength="126" x="1609" y="1399.5195">build request object</text><polygon fill="#181818" points="3582.5,1429.5723,3592.5,1433.5723,3582.5,1437.5723" style="stroke:#181818;stroke-width:1.0;"/><line style="stroke:#181818;stroke-width:1.0;" x1="1946.5" x2="3588.5" y1="1433.5723" y2="1433.5723"/><text fill="#000000" font-family="sans-serif" font-size="13" lengthAdjust="spacing" textLength="138" x="2701.5" y="1428.8301">send backend request</text><path d="M20,1448.5723 L82,1448.5723 L82,1455.8828 L72,1465.8828 L20,1465.8828 L20,1448.5723 " fill="#EEEEEE" style="stroke:#000000;stroke-width:1.5;"/><rect fill="none" height="193.1738" style="stroke:#000000;stroke-width:1.5;" width="3655" x="20" y="1448.5723"/><text fill="#000000" font-family="sans-serif" font-size="13" font-weight="bold" lengthAdjust="spacing" textLength="17" x="35" y="1462.1406">alt</text><text fill="#000000" font-family="sans-serif" font-size="11" font-weight="bold" lengthAdjust="spacing" textLength="197" x="97" y="1461.207">[Failed to fetch user record details]</text><polygon fill="#181818" points="1957.5,1483.1934,1947.5,1487.1934,1957.5,1491.1934" style="stroke:#181818;stroke-width:1.0;"/><line style="stroke:#181818;stroke-width:1.0;stroke-dasharray:2.0,2.0;" x1="1951.5" x2="3593.5" y1="1487.1934" y2="1487.1934"/><text fill="#000000" font-family="sans-serif" font-size="13" lengthAdjust="spacing" textLength="91" x="2725" y="1482.4512">error response</text><polygon fill="#181818" points="1408.5,1512.5039,1398.5,1516.5039,1408.5,1520.5039" style="stroke:#181818;stroke-width:1.0;"/><line style="stroke:#181818;stroke-width:1.0;stroke-dasharray:2.0,2.0;" x1="1402.5" x2="1945.5" y1="1516.5039" y2="1516.5039"/><text fill="#000000" font-family="sans-serif" font-size="13" lengthAdjust="spacing" textLength="127" x="1608.5" y="1511.7617">reject requestObject</text><polygon fill="#181818" points="3422,1541.8145,3432,1545.8145,3422,1549.8145" style="stroke:#181818;stroke-width:1.0;"/><line style="stroke:#181818;stroke-width:1.0;" x1="1397.5" x2="3428" y1="1545.8145" y2="1545.8145"/><text fill="#000000" font-family="sans-serif" font-size="13" lengthAdjust="spacing" textLength="169" x="2331.25" y="1541.0723">request and build template</text><polygon fill="#181818" points="1408.5,1571.125,1398.5,1575.125,1408.5,1579.125" style="stroke:#181818;stroke-width:1.0;"/><line style="stroke:#181818;stroke-width:1.0;" x1="1402.5" x2="3433" y1="1575.125" y2="1575.125"/><text fill="#000000" font-family="sans-serif" font-size="13" lengthAdjust="spacing" textLength="78" x="2376.75" y="1570.3828">return HTML</text><polygon fill="#181818" points="1227,1600.4355,1217,1604.4355,1227,1608.4355" style="stroke:#181818;stroke-width:1.0;"/><line style="stroke:#181818;stroke-width:1.0;" x1="1221" x2="1396.5" y1="1604.4355" y2="1604.4355"/><text fill="#000000" font-family="sans-serif" font-size="13" lengthAdjust="spacing" textLength="78" x="1267.75" y="1599.6934">return HTML</text><polygon fill="#181818" points="66.5,1629.7461,56.5,1633.7461,66.5,1637.7461" style="stroke:#181818;stroke-width:1.0;"/><line style="stroke:#181818;stroke-width:1.0;" x1="60.5" x2="1215" y1="1633.7461" y2="1633.7461"/><text fill="#000000" font-family="sans-serif" font-size="13" lengthAdjust="spacing" textLength="108" x="581.75" y="1629.0039">render error page</text><polygon fill="#181818" points="1957.5,1666.0566,1947.5,1670.0566,1957.5,1674.0566" style="stroke:#181818;stroke-width:1.0;"/><line style="stroke:#181818;stroke-width:1.0;" x1="1951.5" x2="3593.5" y1="1670.0566" y2="1670.0566"/><text fill="#000000" font-family="sans-serif" font-size="13" lengthAdjust="spacing" textLength="77" x="2732" y="1665.3145">ok response</text><polygon fill="#181818" points="1408.5,1695.3672,1398.5,1699.3672,1408.5,1703.3672" style="stroke:#181818;stroke-width:1.0;"/><line style="stroke:#181818;stroke-width:1.0;" x1="1402.5" x2="1945.5" y1="1699.3672" y2="1699.3672"/><text fill="#000000" font-family="sans-serif" font-size="13" lengthAdjust="spacing" textLength="96" x="1624" y="1694.625">resolve request</text><polygon fill="#181818" points="3128,1724.6777,3138,1728.6777,3128,1732.6777" style="stroke:#181818;stroke-width:1.0;"/><line style="stroke:#181818;stroke-width:1.0;" x1="1397.5" x2="3134" y1="1728.6777" y2="1728.6777"/><text fill="#000000" font-family="sans-serif" font-size="13" lengthAdjust="spacing" textLength="169" x="2184.25" y="1723.9355">request and build template</text><polygon fill="#181818" points="1408.5,1753.9883,1398.5,1757.9883,1408.5,1761.9883" style="stroke:#181818;stroke-width:1.0;"/><line style="stroke:#181818;stroke-width:1.0;" x1="1402.5" x2="3139" y1="1757.9883" y2="1757.9883"/><text fill="#000000" font-family="sans-serif" font-size="13" lengthAdjust="spacing" textLength="78" x="2229.75" y="1753.2461">return HTML</text><polygon fill="#181818" points="958.5,1783.2988,948.5,1787.2988,958.5,1791.2988" style="stroke:#181818;stroke-width:1.0;"/><line style="stroke:#181818;stroke-width:1.0;" x1="952.5" x2="1396.5" y1="1787.2988" y2="1787.2988"/><text fill="#000000" font-family="sans-serif" font-size="13" lengthAdjust="spacing" textLength="78" x="1133.5" y="1782.5566">return HTML</text><polygon fill="#181818" points="66.5,1812.6094,56.5,1816.6094,66.5,1820.6094" style="stroke:#181818;stroke-width:1.0;"/><line style="stroke:#181818;stroke-width:1.0;" x1="60.5" x2="946.5" y1="1816.6094" y2="1816.6094"/><text fill="#000000" font-family="sans-serif" font-size="13" lengthAdjust="spacing" textLength="80" x="461.5" y="1811.8672">render HTML</text><polygon fill="#181818" points="935.5,1841.9199,945.5,1845.9199,935.5,1849.9199" style="stroke:#181818;stroke-width:1.0;"/><line style="stroke:#181818;stroke-width:1.0;" x1="55.5" x2="941.5" y1="1845.9199" y2="1845.9199"/><text fill="#000000" font-family="sans-serif" font-size="13" lengthAdjust="spacing" textLength="103" x="450" y="1841.1777">confirm removal</text><polygon fill="#181818" points="1385.5,1871.2305,1395.5,1875.2305,1385.5,1879.2305" style="stroke:#181818;stroke-width:1.0;"/><line style="stroke:#181818;stroke-width:1.0;" x1="947.5" x2="1391.5" y1="1875.2305" y2="1875.2305"/><text fill="#000000" font-family="sans-serif" font-size="13" lengthAdjust="spacing" textLength="176" x="1084.5" y="1870.4883">call assign courts controller</text><polygon fill="#181818" points="1759,1900.541,1769,1904.541,1759,1908.541" style="stroke:#181818;stroke-width:1.0;"/><line style="stroke:#181818;stroke-width:1.0;" x1="1397.5" x2="1765" y1="1904.541" y2="1904.541"/><text fill="#000000" font-family="sans-serif" font-size="13" lengthAdjust="spacing" textLength="126" x="1521.25" y="1899.7988">build request object</text><polygon fill="#181818" points="3582.5,1929.8516,3592.5,1933.8516,3582.5,1937.8516" style="stroke:#181818;stroke-width:1.0;"/><line style="stroke:#181818;stroke-width:1.0;" x1="1946.5" x2="3588.5" y1="1933.8516" y2="1933.8516"/><text fill="#000000" font-family="sans-serif" font-size="13" lengthAdjust="spacing" textLength="138" x="2701.5" y="1929.1094">send backend request</text><path d="M20,1948.8516 L82,1948.8516 L82,1956.1621 L72,1966.1621 L20,1966.1621 L20,1948.8516 " fill="#EEEEEE" style="stroke:#000000;stroke-width:1.5;"/><rect fill="none" height="193.1738" style="stroke:#000000;stroke-width:1.5;" width="3655" x="20" y="1948.8516"/><text fill="#000000" font-family="sans-serif" font-size="13" font-weight="bold" lengthAdjust="spacing" textLength="17" x="35" y="1962.4199">alt</text><text fill="#000000" font-family="sans-serif" font-size="11" font-weight="bold" lengthAdjust="spacing" textLength="201" x="97" y="1961.4863">[Failed to remove courts from user]</text><polygon fill="#181818" points="1782,1983.4727,1772,1987.4727,1782,1991.4727" style="stroke:#181818;stroke-width:1.0;"/><line style="stroke:#181818;stroke-width:1.0;stroke-dasharray:2.0,2.0;" x1="1776" x2="3593.5" y1="1987.4727" y2="1987.4727"/><text fill="#000000" font-family="sans-serif" font-size="13" lengthAdjust="spacing" textLength="91" x="2637.25" y="1982.7305">error response</text><polygon fill="#181818" points="1408.5,2012.7832,1398.5,2016.7832,1408.5,2020.7832" style="stroke:#181818;stroke-width:1.0;"/><line style="stroke:#181818;stroke-width:1.0;stroke-dasharray:2.0,2.0;" x1="1402.5" x2="1770" y1="2016.7832" y2="2016.7832"/><text fill="#000000" font-family="sans-serif" font-size="13" lengthAdjust="spacing" textLength="127" x="1520.75" y="2012.041">reject requestObject</text><polygon fill="#181818" points="3422,2042.0938,3432,2046.0938,3422,2050.0938" style="stroke:#181818;stroke-width:1.0;"/><line style="stroke:#181818;stroke-width:1.0;" x1="1397.5" x2="3428" y1="2046.0938" y2="2046.0938"/><text fill="#000000" font-family="sans-serif" font-size="13" lengthAdjust="spacing" textLength="169" x="2331.25" y="2041.3516">request and build template</text><polygon fill="#181818" points="1408.5,2071.4043,1398.5,2075.4043,1408.5,2079.4043" style="stroke:#181818;stroke-width:1.0;"/><line style="stroke:#181818;stroke-width:1.0;" x1="1402.5" x2="3433" y1="2075.4043" y2="2075.4043"/><text fill="#000000" font-family="sans-serif" font-size="13" lengthAdjust="spacing" textLength="78" x="2376.75" y="2070.6621">return HTML</text><polygon fill="#181818" points="1227,2100.7148,1217,2104.7148,1227,2108.7148" style="stroke:#181818;stroke-width:1.0;"/><line style="stroke:#181818;stroke-width:1.0;" x1="1221" x2="1396.5" y1="2104.7148" y2="2104.7148"/><text fill="#000000" font-family="sans-serif" font-size="13" lengthAdjust="spacing" textLength="78" x="1267.75" y="2099.9727">return HTML</text><polygon fill="#181818" points="66.5,2130.0254,56.5,2134.0254,66.5,2138.0254" style="stroke:#181818;stroke-width:1.0;"/><line style="stroke:#181818;stroke-width:1.0;" x1="60.5" x2="1215" y1="2134.0254" y2="2134.0254"/><text fill="#000000" font-family="sans-serif" font-size="13" lengthAdjust="spacing" textLength="108" x="581.75" y="2129.2832">render error page</text><polygon fill="#181818" points="1782,2166.3359,1772,2170.3359,1782,2174.3359" style="stroke:#181818;stroke-width:1.0;"/><line style="stroke:#181818;stroke-width:1.0;" x1="1776" x2="3593.5" y1="2170.3359" y2="2170.3359"/><text fill="#000000" font-family="sans-serif" font-size="13" lengthAdjust="spacing" textLength="77" x="2644.25" y="2165.5938">ok response</text><polygon fill="#181818" points="1408.5,2195.6465,1398.5,2199.6465,1408.5,2203.6465" style="stroke:#181818;stroke-width:1.0;"/><line style="stroke:#181818;stroke-width:1.0;" x1="1402.5" x2="1770" y1="2199.6465" y2="2199.6465"/><text fill="#000000" font-family="sans-serif" font-size="13" lengthAdjust="spacing" textLength="96" x="1536.25" y="2194.9043">resolve request</text><polygon fill="#181818" points="236.5,2224.957,226.5,2228.957,236.5,2232.957" style="stroke:#181818;stroke-width:1.0;"/><line style="stroke:#181818;stroke-width:1.0;" x1="230.5" x2="1396.5" y1="2228.957" y2="2228.957"/><text fill="#000000" font-family="sans-serif" font-size="13" lengthAdjust="spacing" textLength="311" x="656" y="2224.2148">redirect to user record page with banner message</text><polygon fill="#181818" points="66.5,2254.2676,56.5,2258.2676,66.5,2262.2676" style="stroke:#181818;stroke-width:1.0;"/><line style="stroke:#181818;stroke-width:1.0;" x1="60.5" x2="224.5" y1="2258.2676" y2="2258.2676"/><text fill="#000000" font-family="sans-serif" font-size="13" lengthAdjust="spacing" textLength="78" x="101.5" y="2253.5254">return HTML</text><!--SRC=[xLfTR-8u57tFhxWxir9R2UZ7TaQxgAgMKigq0uM5jA-haBZW4cp6SHZrt- -raq12d0nqEnNQXGTKukjZt-DpFs9rGZq28VCfcnBFidwXpFL3V3GcZ0ZgLaS-TwT1RUuxJ8OptxA2AMLpHpWp6CeNdq0WqKmDGNg8V0i9SqcN184p9WsVZjcCC0akVX5XMMWcgKldY0eDLt9yT71m09rUiz61GU_1lhrlPumU0Y86nEN2woCWN5mSEzwCCehBEv9oTXoYGQ2_gqBRNLvcLma2t4IJXq86fH2EDgowsZBpQmrnG6PyGRP657gQ4R4TaTuIWei4aQWVQAVvQVRkxK6lqsaDe75_3OFMNm-jeGszgxjMqnuM-jlaJ0hk-qGWOcOtDNSvL7iEBY_X8nxLHBuGt-VV2_5wesVYoYLMzB0sTwGxEJmg0qbJjWHH95qtUZMF-4IISe2L33BJeqSAP4na7a5pzzZet5utxDwWcAT7nwUUWsg4ZstkUz4ykzNjTnfsQrYm4PlCC3haHfgiiUTfYIv_25MiJGDockmjaTCQDI1hWQOW_zOY3OxZf17Dm2Dm5eHv98xjgqRpQmj5kz9m1lFASQTelPAgPUd40DNBjU2lW-jJTmhHba5oqFkqrb84pYk80GHmV3-P7xaCRchXNsD76ltR9beUcd4gEJLMiinKuCEDGttYgJq-4OoEUB4FHxY6qDmajZPNcovSoQIIIYwd8MoAjVNHEWGOOHWpiSUugPW21vG8y86Lov9bBFPxc7koB3vnCKFV5b4WaLis3-L6JYr3RmjVDpscVEegEwYiG_X0SRFzYUKJH6LDn-gq73-9Kpo4ICQ0dnyeN-Hdl9tu5ThF2m0jj2WPWaSaZkfeq8jknQyfkrLoDJc6NlAvFbvNhZzHCOiuTNnjdglixqHdlZoM4Hgh88aymMTBgHeKSL4jTa4GZmgL6MAr9mSqLnE_Kpc1aSFG0vX5_LoAKuHTMqZ1oL0m-69tEnOUgVMd-h8csKup_loqTdBVFAQRntrdMD0PRjmAxfk_rpP_kzhbGT7Cp5vYDTLX55BVmzo6gIYGmFLZ2_AME3ld9QZUYtcOHlL0WX8bQjK3cFl4jJoU2BjQDQwWpm6XWpbdGPoZ2qAzMZLvA8Z-8zvSB_6m10XzpSgXlYJ8KUvgocGyQ9Ninm2pgY5Wo6sbrImzTLccSXZAKYaq9cuU5JPTguoi6qddqpJZnVuPwGwuZmKy9OPYcesPujLi5w9bcCiLlUr9ps4iITUMk_6w0fiIloeATKXUSP8kLi6eIBvbUWIeUlKf3y92x3p6Vq0QKPHjBf38VjLnne6vFPiHb_4nWUuOYRTvjBrt0J2-V-Q4zAQrmEZklXgOHVSszQ20yYqgWg49VJNV1LXfvhPwdJHIRdXFJ5U27RqAsUKkqN2PicyP_sSjOpdLnjV0LpDUY9PcBt-piJtnEOorPB43TtgRilxUcQ7WLZ37mPjc1gF3-zomoWr6vlzLTYYWt90VTkqYkA_-b-2Xsu454G7b34vhPoTdvxNV3kr923Ta1AUVuFIF-lb9_UGJjBisgE4Zwx3TxopE8C1jk_ZQfIwnw2XKrrX7rfspS60GCabd6F_grw7TFO9XAta8BRQWWkjhO-lkiHiPmHSkXtCkjV7dy-eLbJ0a0ZS6ZrthcZmv8GPNYxdSesnSXmVxflgxrN7OEDI9XZ0BMKG2N-hGlle7]--></g></svg>