<?xml version="1.0" encoding="us-ascii" standalone="no"?><svg xmlns="http://www.w3.org/2000/svg" xmlns:xlink="http://www.w3.org/1999/xlink" contentStyleType="text/css" height="1791px" preserveAspectRatio="none" style="width:4252px;height:1791px;background:#FFFFFF;" version="1.1" viewBox="0 0 4252 1791" width="4252px" zoomAndPan="magnify"><defs/><g><rect fill="none" height="341.7266" style="stroke:#000000;stroke-width:1.5;" width="4236" x="10" y="128.5977"/><rect fill="none" height="193.1738" style="stroke:#000000;stroke-width:1.5;" width="4216" x="20" y="211.5293"/><rect fill="none" height="134.5527" style="stroke:#000000;stroke-width:1.5;" width="3126" x="20" y="484.3242"/><rect fill="none" height="193.1738" style="stroke:#000000;stroke-width:1.5;" width="4216" x="20" y="720.8086"/><rect fill="none" height="163.8633" style="stroke:#000000;stroke-width:1.5;" width="3495" x="20" y="986.6035"/><rect fill="none" height="222.4844" style="stroke:#000000;stroke-width:1.5;" width="4216" x="20" y="1398.9512"/><line style="stroke:#181818;stroke-width:0.5;stroke-dasharray:5.0,5.0;" x1="55" x2="55" y1="52.9766" y2="1784.9883"/><line style="stroke:#181818;stroke-width:0.5;stroke-dasharray:5.0,5.0;" x1="398" x2="398" y1="52.9766" y2="1784.9883"/><line style="stroke:#181818;stroke-width:0.5;stroke-dasharray:5.0,5.0;" x1="784" x2="784" y1="52.9766" y2="1784.9883"/><line style="stroke:#181818;stroke-width:0.5;stroke-dasharray:5.0,5.0;" x1="1174" x2="1174" y1="52.9766" y2="1784.9883"/><line style="stroke:#181818;stroke-width:0.5;stroke-dasharray:5.0,5.0;" x1="1440" x2="1440" y1="52.9766" y2="1784.9883"/><line style="stroke:#181818;stroke-width:0.5;stroke-dasharray:5.0,5.0;" x1="1623" x2="1623" y1="52.9766" y2="1784.9883"/><line style="stroke:#181818;stroke-width:0.5;stroke-dasharray:5.0,5.0;" x1="1875" x2="1875" y1="52.9766" y2="1784.9883"/><line style="stroke:#181818;stroke-width:0.5;stroke-dasharray:5.0,5.0;" x1="2065" x2="2065" y1="52.9766" y2="1784.9883"/><line style="stroke:#181818;stroke-width:0.5;stroke-dasharray:5.0,5.0;" x1="2312" x2="2312" y1="52.9766" y2="1784.9883"/><line style="stroke:#181818;stroke-width:0.5;stroke-dasharray:5.0,5.0;" x1="2541" x2="2541" y1="52.9766" y2="1784.9883"/><line style="stroke:#181818;stroke-width:0.5;stroke-dasharray:5.0,5.0;" x1="2884" x2="2884" y1="52.9766" y2="1784.9883"/><line style="stroke:#181818;stroke-width:0.5;stroke-dasharray:5.0,5.0;" x1="3325" x2="3325" y1="52.9766" y2="1784.9883"/><line style="stroke:#181818;stroke-width:0.5;stroke-dasharray:5.0,5.0;" x1="3710" x2="3710" y1="52.9766" y2="1784.9883"/><line style="stroke:#181818;stroke-width:0.5;stroke-dasharray:5.0,5.0;" x1="3995" x2="3995" y1="52.9766" y2="1784.9883"/><line style="stroke:#181818;stroke-width:0.5;stroke-dasharray:5.0,5.0;" x1="4155" x2="4155" y1="52.9766" y2="1784.9883"/><rect fill="#E2E2F0" height="30.4883" rx="2.5" ry="2.5" style="stroke:#181818;stroke-width:0.5;" width="51" x="30" y="21.4883"/><text fill="#000000" font-family="sans-serif" font-size="14" lengthAdjust="spacing" textLength="37" x="37" y="42.0234">Actor</text><rect fill="#E2E2F0" height="46.9766" rx="2.5" ry="2.5" style="stroke:#181818;stroke-width:0.5;" width="367" x="215" y="5"/><text fill="#000000" font-family="sans-serif" font-size="14" font-style="italic" lengthAdjust="spacing" textLength="353" x="222" y="25.5352">&#171;/pool-management/pool-overview/:poolNumber&#187;</text><text fill="#000000" font-family="sans-serif" font-size="14" lengthAdjust="spacing" textLength="125" x="336" y="42.0234">PoolOverviewPage</text><rect fill="#E2E2F0" height="46.9766" rx="2.5" ry="2.5" style="stroke:#181818;stroke-width:0.5;" width="384" x="592" y="5"/><text fill="#000000" font-family="sans-serif" font-size="14" font-style="italic" lengthAdjust="spacing" textLength="370" x="599" y="25.5352">&#171;//pool-management/:poolNumber/on-call/validate&#187;</text><text fill="#000000" font-family="sans-serif" font-size="14" lengthAdjust="spacing" textLength="146" x="711" y="42.0234">MovementCheckPage</text><rect fill="#E2E2F0" height="46.9766" rx="2.5" ry="2.5" style="stroke:#181818;stroke-width:0.5;" width="377" x="986" y="5"/><text fill="#000000" font-family="sans-serif" font-size="14" font-style="italic" lengthAdjust="spacing" textLength="363" x="993" y="25.5352">&#171;/pool-management/:poolNumber/on-call/confirm&#187;</text><text fill="#000000" font-family="sans-serif" font-size="14" lengthAdjust="spacing" textLength="108" x="1120.5" y="42.0234">BulkOnCallPage</text><rect fill="#E2E2F0" height="46.9766" rx="2.5" ry="2.5" style="stroke:#181818;stroke-width:0.5;" width="134" x="1373" y="5"/><text fill="#000000" font-family="sans-serif" font-size="14" font-style="italic" lengthAdjust="spacing" textLength="56" x="1412" y="25.5352">&#171;/error&#187;</text><text fill="#000000" font-family="sans-serif" font-size="14" lengthAdjust="spacing" textLength="120" x="1380" y="42.0234">GenericErrorPage</text><rect fill="#E2E2F0" height="46.9766" rx="2.5" ry="2.5" style="stroke:#181818;stroke-width:0.5;" width="213" x="1517" y="5"/><text fill="#000000" font-family="sans-serif" font-size="14" font-style="italic" lengthAdjust="spacing" textLength="199" x="1524" y="25.5352">&#171;pool-overview.controller.js&#187;</text><text fill="#000000" font-family="sans-serif" font-size="14" lengthAdjust="spacing" textLength="162" x="1542.5" y="42.0234">PoolOverviewController</text><rect fill="#E2E2F0" height="46.9766" rx="2.5" ry="2.5" style="stroke:#181818;stroke-width:0.5;" width="163" x="1794" y="5"/><text fill="#000000" font-family="sans-serif" font-size="14" font-style="italic" lengthAdjust="spacing" textLength="149" x="1801" y="25.5352">&#171;on-call.controller.js&#187;</text><text fill="#000000" font-family="sans-serif" font-size="14" lengthAdjust="spacing" textLength="116" x="1817.5" y="42.0234">OnCallController</text><rect fill="#E2E2F0" height="46.9766" rx="2.5" ry="2.5" style="stroke:#181818;stroke-width:0.5;" width="197" x="1967" y="5"/><text fill="#000000" font-family="sans-serif" font-size="14" font-style="italic" lengthAdjust="spacing" textLength="183" x="1974" y="25.5352">&#171;poolMembersDAO.post()&#187;</text><text fill="#000000" font-family="sans-serif" font-size="14" lengthAdjust="spacing" textLength="137" x="1997" y="42.0234">PoolMembersObject</text><rect fill="#E2E2F0" height="46.9766" rx="2.5" ry="2.5" style="stroke:#181818;stroke-width:0.5;" width="277" x="2174" y="5"/><text fill="#000000" font-family="sans-serif" font-size="14" font-style="italic" lengthAdjust="spacing" textLength="263" x="2181" y="25.5352">&#171;jurorRecordSimpleDetailsDAO.post()&#187;</text><text fill="#000000" font-family="sans-serif" font-size="14" lengthAdjust="spacing" textLength="218" x="2203.5" y="42.0234">JurorRecordSimpleDetailsObject</text><rect fill="#E2E2F0" height="46.9766" rx="2.5" ry="2.5" style="stroke:#181818;stroke-width:0.5;" width="161" x="2461" y="5"/><text fill="#000000" font-family="sans-serif" font-size="14" font-style="italic" lengthAdjust="spacing" textLength="147" x="2468" y="25.5352">&#171;changeDate.patch()&#187;</text><text fill="#000000" font-family="sans-serif" font-size="14" lengthAdjust="spacing" textLength="128" x="2477.5" y="42.0234">ChangeDateObject</text><rect fill="#E2E2F0" height="46.9766" rx="2.5" ry="2.5" style="stroke:#181818;stroke-width:0.5;" width="504" x="2632" y="5"/><text fill="#000000" font-family="sans-serif" font-size="14" font-style="italic" lengthAdjust="spacing" textLength="490" x="2639" y="25.5352">&#171;pool-management/pool-overview/{bureau/court}-pool-overview.njk&#187;</text><text fill="#000000" font-family="sans-serif" font-size="14" lengthAdjust="spacing" textLength="156" x="2806" y="42.0234">PoolOverviewTemplate</text><rect fill="#E2E2F0" height="46.9766" rx="2.5" ry="2.5" style="stroke:#181818;stroke-width:0.5;" width="359" x="3146" y="5"/><text fill="#000000" font-family="sans-serif" font-size="14" font-style="italic" lengthAdjust="spacing" textLength="345" x="3153" y="25.5352">&#171;pool-management/movement/bulk-validate.njk&#187;</text><text fill="#000000" font-family="sans-serif" font-size="14" lengthAdjust="spacing" textLength="177" x="3237" y="42.0234">MovementCheckTemplate</text><rect fill="#E2E2F0" height="46.9766" rx="2.5" ry="2.5" style="stroke:#181818;stroke-width:0.5;" width="390" x="3515" y="5"/><text fill="#000000" font-family="sans-serif" font-size="14" font-style="italic" lengthAdjust="spacing" textLength="376" x="3522" y="25.5352">&#171;pool-management/on-call/on-call-confirmation.njk&#187;</text><text fill="#000000" font-family="sans-serif" font-size="14" lengthAdjust="spacing" textLength="139" x="3640.5" y="42.0234">BulkOnCallTemplate</text><rect fill="#E2E2F0" height="46.9766" rx="2.5" ry="2.5" style="stroke:#181818;stroke-width:0.5;" width="160" x="3915" y="5"/><text fill="#000000" font-family="sans-serif" font-size="14" font-style="italic" lengthAdjust="spacing" textLength="146" x="3922" y="25.5352">&#171;_errors/generic.njk&#187;</text><text fill="#000000" font-family="sans-serif" font-size="14" lengthAdjust="spacing" textLength="99" x="3945.5" y="42.0234">ErrorTemplate</text><rect fill="#E2E2F0" height="30.4883" rx="2.5" ry="2.5" style="stroke:#181818;stroke-width:0.5;" width="141" x="4085" y="21.4883"/><text fill="#000000" font-family="sans-serif" font-size="14" lengthAdjust="spacing" textLength="127" x="4092" y="42.0234">BackendController</text><polygon fill="#181818" points="386.5,80.2871,396.5,84.2871,386.5,88.2871" style="stroke:#181818;stroke-width:1.0;"/><line style="stroke:#181818;stroke-width:1.0;" x1="55.5" x2="392.5" y1="84.2871" y2="84.2871"/><text fill="#000000" font-family="sans-serif" font-size="13" lengthAdjust="spacing" textLength="319" x="67.5" y="79.5449">User selects one or more jurors and clicks 'On call'</text><polygon fill="#181818" points="1611.5,109.5977,1621.5,113.5977,1611.5,117.5977" style="stroke:#181818;stroke-width:1.0;"/><line style="stroke:#181818;stroke-width:1.0;" x1="398.5" x2="1617.5" y1="113.5977" y2="113.5977"/><text fill="#000000" font-family="sans-serif" font-size="13" lengthAdjust="spacing" textLength="121" x="950.5" y="108.8555">call page controller</text><path d="M10,128.5977 L72,128.5977 L72,135.9082 L62,145.9082 L10,145.9082 L10,128.5977 " fill="#EEEEEE" style="stroke:#000000;stroke-width:1.5;"/><rect fill="none" height="341.7266" style="stroke:#000000;stroke-width:1.5;" width="4236" x="10" y="128.5977"/><text fill="#000000" font-family="sans-serif" font-size="13" font-weight="bold" lengthAdjust="spacing" textLength="17" x="25" y="142.166">alt</text><text fill="#000000" font-family="sans-serif" font-size="11" font-weight="bold" lengthAdjust="spacing" textLength="188" x="87" y="141.2324">[User clicks 'Check all' checkbox]</text><polygon fill="#181818" points="2053.5,163.2188,2063.5,167.2188,2053.5,171.2188" style="stroke:#181818;stroke-width:1.0;"/><line style="stroke:#181818;stroke-width:1.0;" x1="1623.5" x2="2059.5" y1="167.2188" y2="167.2188"/><text fill="#000000" font-family="sans-serif" font-size="13" lengthAdjust="spacing" textLength="126" x="1781.5" y="162.4766">build request object</text><polygon fill="#181818" points="4143.5,192.5293,4153.5,196.5293,4143.5,200.5293" style="stroke:#181818;stroke-width:1.0;"/><line style="stroke:#181818;stroke-width:1.0;" x1="2065.5" x2="4149.5" y1="196.5293" y2="196.5293"/><text fill="#000000" font-family="sans-serif" font-size="13" lengthAdjust="spacing" textLength="138" x="3041.5" y="191.7871">send backend request</text><path d="M20,211.5293 L82,211.5293 L82,218.8398 L72,228.8398 L20,228.8398 L20,211.5293 " fill="#EEEEEE" style="stroke:#000000;stroke-width:1.5;"/><rect fill="none" height="193.1738" style="stroke:#000000;stroke-width:1.5;" width="4216" x="20" y="211.5293"/><text fill="#000000" font-family="sans-serif" font-size="13" font-weight="bold" lengthAdjust="spacing" textLength="17" x="35" y="225.0977">alt</text><text fill="#000000" font-family="sans-serif" font-size="11" font-weight="bold" lengthAdjust="spacing" textLength="298" x="97" y="224.1641">[Failed to fetch pool members for bulk place on call]</text><polygon fill="#181818" points="2076.5,246.1504,2066.5,250.1504,2076.5,254.1504" style="stroke:#181818;stroke-width:1.0;"/><line style="stroke:#181818;stroke-width:1.0;stroke-dasharray:2.0,2.0;" x1="2070.5" x2="4154.5" y1="250.1504" y2="250.1504"/><text fill="#000000" font-family="sans-serif" font-size="13" lengthAdjust="spacing" textLength="91" x="3065" y="245.4082">Error response</text><polygon fill="#181818" points="1634.5,275.4609,1624.5,279.4609,1634.5,283.4609" style="stroke:#181818;stroke-width:1.0;"/><line style="stroke:#181818;stroke-width:1.0;stroke-dasharray:2.0,2.0;" x1="1628.5" x2="2064.5" y1="279.4609" y2="279.4609"/><text fill="#000000" font-family="sans-serif" font-size="13" lengthAdjust="spacing" textLength="127" x="1781" y="274.7188">reject requestObject</text><polygon fill="#181818" points="3983,304.7715,3993,308.7715,3983,312.7715" style="stroke:#181818;stroke-width:1.0;"/><line style="stroke:#181818;stroke-width:1.0;" x1="1623.5" x2="3989" y1="308.7715" y2="308.7715"/><text fill="#000000" font-family="sans-serif" font-size="13" lengthAdjust="spacing" textLength="169" x="2724.75" y="304.0293">request and build template</text><polygon fill="#181818" points="1634.5,334.082,1624.5,338.082,1634.5,342.082" style="stroke:#181818;stroke-width:1.0;"/><line style="stroke:#181818;stroke-width:1.0;" x1="1628.5" x2="3994" y1="338.082" y2="338.082"/><text fill="#000000" font-family="sans-serif" font-size="13" lengthAdjust="spacing" textLength="78" x="2770.25" y="333.3398">return HTML</text><polygon fill="#181818" points="1451,363.3926,1441,367.3926,1451,371.3926" style="stroke:#181818;stroke-width:1.0;"/><line style="stroke:#181818;stroke-width:1.0;" x1="1445" x2="1622.5" y1="367.3926" y2="367.3926"/><text fill="#000000" font-family="sans-serif" font-size="13" lengthAdjust="spacing" textLength="78" x="1492.75" y="362.6504">return HTML</text><polygon fill="#181818" points="66.5,392.7031,56.5,396.7031,66.5,400.7031" style="stroke:#181818;stroke-width:1.0;"/><line style="stroke:#181818;stroke-width:1.0;" x1="60.5" x2="1439" y1="396.7031" y2="396.7031"/><text fill="#000000" font-family="sans-serif" font-size="13" lengthAdjust="spacing" textLength="108" x="693.75" y="391.9609">render error page</text><polygon fill="#181818" points="2076.5,429.0137,2066.5,433.0137,2076.5,437.0137" style="stroke:#181818;stroke-width:1.0;"/><line style="stroke:#181818;stroke-width:1.0;" x1="2070.5" x2="4154.5" y1="433.0137" y2="433.0137"/><text fill="#000000" font-family="sans-serif" font-size="13" lengthAdjust="spacing" textLength="77" x="3072" y="428.2715">ok response</text><polygon fill="#181818" points="1634.5,458.3242,1624.5,462.3242,1634.5,466.3242" style="stroke:#181818;stroke-width:1.0;"/><line style="stroke:#181818;stroke-width:1.0;" x1="1628.5" x2="2064.5" y1="462.3242" y2="462.3242"/><text fill="#000000" font-family="sans-serif" font-size="13" lengthAdjust="spacing" textLength="96" x="1796.5" y="457.582">resolve request</text><path d="M20,484.3242 L82,484.3242 L82,491.6348 L72,501.6348 L20,501.6348 L20,484.3242 " fill="#EEEEEE" style="stroke:#000000;stroke-width:1.5;"/><rect fill="none" height="134.5527" style="stroke:#000000;stroke-width:1.5;" width="3126" x="20" y="484.3242"/><text fill="#000000" font-family="sans-serif" font-size="13" font-weight="bold" lengthAdjust="spacing" textLength="17" x="35" y="497.8926">alt</text><text fill="#000000" font-family="sans-serif" font-size="11" font-weight="bold" lengthAdjust="spacing" textLength="109" x="97" y="496.959">[no jurors selected]</text><polygon fill="#181818" points="2872,518.9453,2882,522.9453,2872,526.9453" style="stroke:#181818;stroke-width:1.0;"/><line style="stroke:#181818;stroke-width:1.0;" x1="1623.5" x2="2878" y1="522.9453" y2="522.9453"/><text fill="#000000" font-family="sans-serif" font-size="13" lengthAdjust="spacing" textLength="169" x="2169.25" y="518.2031">request and build template</text><polygon fill="#181818" points="1634.5,548.2559,1624.5,552.2559,1634.5,556.2559" style="stroke:#181818;stroke-width:1.0;"/><line style="stroke:#181818;stroke-width:1.0;" x1="1628.5" x2="2883" y1="552.2559" y2="552.2559"/><text fill="#000000" font-family="sans-serif" font-size="13" lengthAdjust="spacing" textLength="78" x="2214.75" y="547.5137">return HTML</text><polygon fill="#181818" points="409.5,577.5664,399.5,581.5664,409.5,585.5664" style="stroke:#181818;stroke-width:1.0;"/><line style="stroke:#181818;stroke-width:1.0;" x1="403.5" x2="1622.5" y1="581.5664" y2="581.5664"/><text fill="#000000" font-family="sans-serif" font-size="13" lengthAdjust="spacing" textLength="112" x="955" y="576.8242">return error HTML</text><polygon fill="#181818" points="66.5,606.877,56.5,610.877,66.5,614.877" style="stroke:#181818;stroke-width:1.0;"/><line style="stroke:#181818;stroke-width:1.0;" x1="60.5" x2="397.5" y1="610.877" y2="610.877"/><text fill="#000000" font-family="sans-serif" font-size="13" lengthAdjust="spacing" textLength="133" x="160.5" y="606.1348">render error message</text><polygon fill="#181818" points="1863.5,643.1875,1873.5,647.1875,1863.5,651.1875" style="stroke:#181818;stroke-width:1.0;"/><line style="stroke:#181818;stroke-width:1.0;" x1="1623.5" x2="1869.5" y1="647.1875" y2="647.1875"/><text fill="#000000" font-family="sans-serif" font-size="13" lengthAdjust="spacing" textLength="121" x="1689" y="642.4453">call page controller</text><polygon fill="#181818" points="2300.5,672.498,2310.5,676.498,2300.5,680.498" style="stroke:#181818;stroke-width:1.0;"/><line style="stroke:#181818;stroke-width:1.0;" x1="1875.5" x2="2306.5" y1="676.498" y2="676.498"/><text fill="#000000" font-family="sans-serif" font-size="13" lengthAdjust="spacing" textLength="126" x="2031" y="671.7559">build request object</text><polygon fill="#181818" points="4143.5,701.8086,4153.5,705.8086,4143.5,709.8086" style="stroke:#181818;stroke-width:1.0;"/><line style="stroke:#181818;stroke-width:1.0;" x1="2312.5" x2="4149.5" y1="705.8086" y2="705.8086"/><text fill="#000000" font-family="sans-serif" font-size="13" lengthAdjust="spacing" textLength="138" x="3165" y="701.0664">send backend request</text><path d="M20,720.8086 L82,720.8086 L82,728.1191 L72,738.1191 L20,738.1191 L20,720.8086 " fill="#EEEEEE" style="stroke:#000000;stroke-width:1.5;"/><rect fill="none" height="193.1738" style="stroke:#000000;stroke-width:1.5;" width="4216" x="20" y="720.8086"/><text fill="#000000" font-family="sans-serif" font-size="13" font-weight="bold" lengthAdjust="spacing" textLength="17" x="35" y="734.377">alt</text><text fill="#000000" font-family="sans-serif" font-size="11" font-weight="bold" lengthAdjust="spacing" textLength="348" x="97" y="733.4434">[Failed to fetch juror statuses to validate bulk placing on call]</text><polygon fill="#181818" points="2323.5,755.4297,2313.5,759.4297,2323.5,763.4297" style="stroke:#181818;stroke-width:1.0;"/><line style="stroke:#181818;stroke-width:1.0;stroke-dasharray:2.0,2.0;" x1="2317.5" x2="4154.5" y1="759.4297" y2="759.4297"/><text fill="#000000" font-family="sans-serif" font-size="13" lengthAdjust="spacing" textLength="91" x="3188.5" y="754.6875">Error response</text><polygon fill="#181818" points="1886.5,784.7402,1876.5,788.7402,1886.5,792.7402" style="stroke:#181818;stroke-width:1.0;"/><line style="stroke:#181818;stroke-width:1.0;stroke-dasharray:2.0,2.0;" x1="1880.5" x2="2311.5" y1="788.7402" y2="788.7402"/><text fill="#000000" font-family="sans-serif" font-size="13" lengthAdjust="spacing" textLength="127" x="2030.5" y="783.998">reject requestObject</text><polygon fill="#181818" points="3983,814.0508,3993,818.0508,3983,822.0508" style="stroke:#181818;stroke-width:1.0;"/><line style="stroke:#181818;stroke-width:1.0;" x1="1875.5" x2="3989" y1="818.0508" y2="818.0508"/><text fill="#000000" font-family="sans-serif" font-size="13" lengthAdjust="spacing" textLength="169" x="2850.75" y="813.3086">request and build template</text><polygon fill="#181818" points="1886.5,843.3613,1876.5,847.3613,1886.5,851.3613" style="stroke:#181818;stroke-width:1.0;"/><line style="stroke:#181818;stroke-width:1.0;" x1="1880.5" x2="3994" y1="847.3613" y2="847.3613"/><text fill="#000000" font-family="sans-serif" font-size="13" lengthAdjust="spacing" textLength="78" x="2896.25" y="842.6191">return HTML</text><polygon fill="#181818" points="1451,872.6719,1441,876.6719,1451,880.6719" style="stroke:#181818;stroke-width:1.0;"/><line style="stroke:#181818;stroke-width:1.0;" x1="1445" x2="1874.5" y1="876.6719" y2="876.6719"/><text fill="#000000" font-family="sans-serif" font-size="13" lengthAdjust="spacing" textLength="78" x="1618.75" y="871.9297">return HTML</text><polygon fill="#181818" points="66.5,901.9824,56.5,905.9824,66.5,909.9824" style="stroke:#181818;stroke-width:1.0;"/><line style="stroke:#181818;stroke-width:1.0;" x1="60.5" x2="1439" y1="905.9824" y2="905.9824"/><text fill="#000000" font-family="sans-serif" font-size="13" lengthAdjust="spacing" textLength="108" x="693.75" y="901.2402">render error page</text><polygon fill="#181818" points="2323.5,938.293,2313.5,942.293,2323.5,946.293" style="stroke:#181818;stroke-width:1.0;"/><line style="stroke:#181818;stroke-width:1.0;" x1="2317.5" x2="4154.5" y1="942.293" y2="942.293"/><text fill="#000000" font-family="sans-serif" font-size="13" lengthAdjust="spacing" textLength="77" x="3195.5" y="937.5508">ok response</text><polygon fill="#181818" points="1886.5,967.6035,1876.5,971.6035,1886.5,975.6035" style="stroke:#181818;stroke-width:1.0;"/><line style="stroke:#181818;stroke-width:1.0;" x1="1880.5" x2="2311.5" y1="971.6035" y2="971.6035"/><text fill="#000000" font-family="sans-serif" font-size="13" lengthAdjust="spacing" textLength="96" x="2046" y="966.8613">resolve request</text><path d="M20,986.6035 L82,986.6035 L82,993.9141 L72,1003.9141 L20,1003.9141 L20,986.6035 " fill="#EEEEEE" style="stroke:#000000;stroke-width:1.5;"/><rect fill="none" height="163.8633" style="stroke:#000000;stroke-width:1.5;" width="3495" x="20" y="986.6035"/><text fill="#000000" font-family="sans-serif" font-size="13" font-weight="bold" lengthAdjust="spacing" textLength="17" x="35" y="1000.1719">alt</text><text fill="#000000" font-family="sans-serif" font-size="11" font-weight="bold" lengthAdjust="spacing" textLength="233" x="97" y="999.2383">[One or more jurors unable to go on call]</text><polygon fill="#181818" points="3313.5,1021.2246,3323.5,1025.2246,3313.5,1029.2246" style="stroke:#181818;stroke-width:1.0;"/><line style="stroke:#181818;stroke-width:1.0;" x1="1875.5" x2="3319.5" y1="1025.2246" y2="1025.2246"/><text fill="#000000" font-family="sans-serif" font-size="13" lengthAdjust="spacing" textLength="169" x="2516" y="1020.4824">request and build template</text><polygon fill="#181818" points="1886.5,1050.5352,1876.5,1054.5352,1886.5,1058.5352" style="stroke:#181818;stroke-width:1.0;"/><line style="stroke:#181818;stroke-width:1.0;" x1="1880.5" x2="3324.5" y1="1054.5352" y2="1054.5352"/><text fill="#000000" font-family="sans-serif" font-size="13" lengthAdjust="spacing" textLength="78" x="2561.5" y="1049.793">return HTML</text><polygon fill="#181818" points="795,1079.8457,785,1083.8457,795,1087.8457" style="stroke:#181818;stroke-width:1.0;"/><line style="stroke:#181818;stroke-width:1.0;" x1="789" x2="1874.5" y1="1083.8457" y2="1083.8457"/><text fill="#000000" font-family="sans-serif" font-size="13" lengthAdjust="spacing" textLength="78" x="1290.75" y="1079.1035">return HTML</text><polygon fill="#181818" points="66.5,1109.1563,56.5,1113.1563,66.5,1117.1563" style="stroke:#181818;stroke-width:1.0;"/><line style="stroke:#181818;stroke-width:1.0;" x1="60.5" x2="783" y1="1113.1563" y2="1113.1563"/><text fill="#000000" font-family="sans-serif" font-size="13" lengthAdjust="spacing" textLength="80" x="379.75" y="1108.4141">render HTML</text><polygon fill="#181818" points="772,1138.4668,782,1142.4668,772,1146.4668" style="stroke:#181818;stroke-width:1.0;"/><line style="stroke:#181818;stroke-width:1.0;" x1="55.5" x2="778" y1="1142.4668" y2="1142.4668"/><text fill="#000000" font-family="sans-serif" font-size="13" lengthAdjust="spacing" textLength="322" x="258.75" y="1137.7246">clicks 'Continue and place remaining jurors on call'</text><polygon fill="#181818" points="3698,1174.7773,3708,1178.7773,3698,1182.7773" style="stroke:#181818;stroke-width:1.0;"/><line style="stroke:#181818;stroke-width:1.0;" x1="1875.5" x2="3704" y1="1178.7773" y2="1178.7773"/><text fill="#000000" font-family="sans-serif" font-size="13" lengthAdjust="spacing" textLength="169" x="2708.25" y="1174.0352">request and build template</text><polygon fill="#181818" points="1886.5,1204.0879,1876.5,1208.0879,1886.5,1212.0879" style="stroke:#181818;stroke-width:1.0;"/><line style="stroke:#181818;stroke-width:1.0;" x1="1880.5" x2="3709" y1="1208.0879" y2="1208.0879"/><text fill="#000000" font-family="sans-serif" font-size="13" lengthAdjust="spacing" textLength="78" x="2753.75" y="1203.3457">return HTML</text><polygon fill="#181818" points="1185.5,1233.3984,1175.5,1237.3984,1185.5,1241.3984" style="stroke:#181818;stroke-width:1.0;"/><line style="stroke:#181818;stroke-width:1.0;" x1="1179.5" x2="1874.5" y1="1237.3984" y2="1237.3984"/><text fill="#000000" font-family="sans-serif" font-size="13" lengthAdjust="spacing" textLength="78" x="1486" y="1232.6563">return HTML</text><polygon fill="#181818" points="66.5,1262.709,56.5,1266.709,66.5,1270.709" style="stroke:#181818;stroke-width:1.0;"/><line style="stroke:#181818;stroke-width:1.0;" x1="60.5" x2="1173.5" y1="1266.709" y2="1266.709"/><text fill="#000000" font-family="sans-serif" font-size="13" lengthAdjust="spacing" textLength="80" x="575" y="1261.9668">render HTML</text><polygon fill="#181818" points="1162.5,1292.0195,1172.5,1296.0195,1162.5,1300.0195" style="stroke:#181818;stroke-width:1.0;"/><line style="stroke:#181818;stroke-width:1.0;" x1="55.5" x2="1168.5" y1="1296.0195" y2="1296.0195"/><text fill="#000000" font-family="sans-serif" font-size="13" lengthAdjust="spacing" textLength="157" x="536.5" y="1291.2773">User clicks 'Place on call'</text><polygon fill="#181818" points="1863.5,1321.3301,1873.5,1325.3301,1863.5,1329.3301" style="stroke:#181818;stroke-width:1.0;"/><line style="stroke:#181818;stroke-width:1.0;" x1="1174.5" x2="1869.5" y1="1325.3301" y2="1325.3301"/><text fill="#000000" font-family="sans-serif" font-size="13" lengthAdjust="spacing" textLength="121" x="1464.5" y="1320.5879">call page controller</text><polygon fill="#181818" points="2529.5,1350.6406,2539.5,1354.6406,2529.5,1358.6406" style="stroke:#181818;stroke-width:1.0;"/><line style="stroke:#181818;stroke-width:1.0;" x1="1875.5" x2="2535.5" y1="1354.6406" y2="1354.6406"/><text fill="#000000" font-family="sans-serif" font-size="13" lengthAdjust="spacing" textLength="126" x="2145.5" y="1349.8984">build request object</text><polygon fill="#181818" points="4143.5,1379.9512,4153.5,1383.9512,4143.5,1387.9512" style="stroke:#181818;stroke-width:1.0;"/><line style="stroke:#181818;stroke-width:1.0;" x1="2541.5" x2="4149.5" y1="1383.9512" y2="1383.9512"/><text fill="#000000" font-family="sans-serif" font-size="13" lengthAdjust="spacing" textLength="138" x="3279.5" y="1379.209">send backend request</text><path d="M20,1398.9512 L82,1398.9512 L82,1406.2617 L72,1416.2617 L20,1416.2617 L20,1398.9512 " fill="#EEEEEE" style="stroke:#000000;stroke-width:1.5;"/><rect fill="none" height="222.4844" style="stroke:#000000;stroke-width:1.5;" width="4216" x="20" y="1398.9512"/><text fill="#000000" font-family="sans-serif" font-size="13" font-weight="bold" lengthAdjust="spacing" textLength="17" x="35" y="1412.5195">alt</text><text fill="#000000" font-family="sans-serif" font-size="11" font-weight="bold" lengthAdjust="spacing" textLength="169" x="97" y="1411.5859">[Failed to place jurors on call]</text><polygon fill="#181818" points="2552.5,1433.5723,2542.5,1437.5723,2552.5,1441.5723" style="stroke:#181818;stroke-width:1.0;"/><line style="stroke:#181818;stroke-width:1.0;stroke-dasharray:2.0,2.0;" x1="2546.5" x2="4154.5" y1="1437.5723" y2="1437.5723"/><text fill="#000000" font-family="sans-serif" font-size="13" lengthAdjust="spacing" textLength="91" x="3303" y="1432.8301">Error response</text><polygon fill="#181818" points="1886.5,1462.8828,1876.5,1466.8828,1886.5,1470.8828" style="stroke:#181818;stroke-width:1.0;"/><line style="stroke:#181818;stroke-width:1.0;stroke-dasharray:2.0,2.0;" x1="1880.5" x2="2540.5" y1="1466.8828" y2="1466.8828"/><text fill="#000000" font-family="sans-serif" font-size="13" lengthAdjust="spacing" textLength="127" x="2145" y="1462.1406">reject requestObject</text><polygon fill="#181818" points="1634.5,1492.1934,1624.5,1496.1934,1634.5,1500.1934" style="stroke:#181818;stroke-width:1.0;"/><line style="stroke:#181818;stroke-width:1.0;" x1="1628.5" x2="1874.5" y1="1496.1934" y2="1496.1934"/><text fill="#000000" font-family="sans-serif" font-size="13" lengthAdjust="spacing" textLength="228" x="1635.5" y="1491.4512">pass control to error page controller</text><polygon fill="#181818" points="2872,1521.5039,2882,1525.5039,2872,1529.5039" style="stroke:#181818;stroke-width:1.0;"/><line style="stroke:#181818;stroke-width:1.0;" x1="1623.5" x2="2878" y1="1525.5039" y2="1525.5039"/><text fill="#000000" font-family="sans-serif" font-size="13" lengthAdjust="spacing" textLength="169" x="2169.25" y="1520.7617">request and build template</text><polygon fill="#181818" points="1634.5,1550.8145,1624.5,1554.8145,1634.5,1558.8145" style="stroke:#181818;stroke-width:1.0;"/><line style="stroke:#181818;stroke-width:1.0;" x1="1628.5" x2="2883" y1="1554.8145" y2="1554.8145"/><text fill="#000000" font-family="sans-serif" font-size="13" lengthAdjust="spacing" textLength="78" x="2214.75" y="1550.0723">return HTML</text><polygon fill="#181818" points="409.5,1580.125,399.5,1584.125,409.5,1588.125" style="stroke:#181818;stroke-width:1.0;"/><line style="stroke:#181818;stroke-width:1.0;" x1="403.5" x2="1622.5" y1="1584.125" y2="1584.125"/><text fill="#000000" font-family="sans-serif" font-size="13" lengthAdjust="spacing" textLength="112" x="955" y="1579.3828">return error HTML</text><polygon fill="#181818" points="66.5,1609.4355,56.5,1613.4355,66.5,1617.4355" style="stroke:#181818;stroke-width:1.0;"/><line style="stroke:#181818;stroke-width:1.0;" x1="60.5" x2="397.5" y1="1613.4355" y2="1613.4355"/><text fill="#000000" font-family="sans-serif" font-size="13" lengthAdjust="spacing" textLength="133" x="160.5" y="1608.6934">render error message</text><polygon fill="#181818" points="2552.5,1645.7461,2542.5,1649.7461,2552.5,1653.7461" style="stroke:#181818;stroke-width:1.0;"/><line style="stroke:#181818;stroke-width:1.0;" x1="2546.5" x2="4154.5" y1="1649.7461" y2="1649.7461"/><text fill="#000000" font-family="sans-serif" font-size="13" lengthAdjust="spacing" textLength="77" x="3310" y="1645.0039">ok response</text><polygon fill="#181818" points="1886.5,1675.0566,1876.5,1679.0566,1886.5,1683.0566" style="stroke:#181818;stroke-width:1.0;"/><line style="stroke:#181818;stroke-width:1.0;" x1="1880.5" x2="2540.5" y1="1679.0566" y2="1679.0566"/><text fill="#000000" font-family="sans-serif" font-size="13" lengthAdjust="spacing" textLength="96" x="2160.5" y="1674.3145">resolve request</text><polygon fill="#181818" points="1634.5,1704.3672,1624.5,1708.3672,1634.5,1712.3672" style="stroke:#181818;stroke-width:1.0;"/><line style="stroke:#181818;stroke-width:1.0;" x1="1628.5" x2="1874.5" y1="1708.3672" y2="1708.3672"/><text fill="#000000" font-family="sans-serif" font-size="13" lengthAdjust="spacing" textLength="156" x="1671.5" y="1703.625">redirect to pool overview</text><polygon fill="#181818" points="409.5,1733.6777,399.5,1737.6777,409.5,1741.6777" style="stroke:#181818;stroke-width:1.0;"/><line style="stroke:#181818;stroke-width:1.0;" x1="403.5" x2="1622.5" y1="1737.6777" y2="1737.6777"/><text fill="#000000" font-family="sans-serif" font-size="13" lengthAdjust="spacing" textLength="156" x="933" y="1732.9355">redirect to pool overview</text><polygon fill="#181818" points="66.5,1762.9883,56.5,1766.9883,66.5,1770.9883" style="stroke:#181818;stroke-width:1.0;"/><line style="stroke:#181818;stroke-width:1.0;" x1="60.5" x2="397.5" y1="1766.9883" y2="1766.9883"/><text fill="#000000" font-family="sans-serif" font-size="13" lengthAdjust="spacing" textLength="297" x="78.5" y="1762.2461">render pool overview page with success banner</text><!--SRC=[bLRRRkCu37ttLt2B0T82kRm7HG4tSGVjfd7MSNSnJmD5OHCrifIHvNO6W_ttfNn9OZlEpBwqjKGUaOU7PBTYZP0fATGErzuVGd6PqSa65Hh11okf-IuTxYLJDakavwKxeVRCi0IMzeT4I2sPkIiulS9l6IgEpvYcR8E-51kLeBB0wGSQpoCpAxZO4ohut6ewwlLwC0id_WoYy2L-d7-k6Isqbk4xcdU17mk2XDlRqPxE1WbJzEd0YszT6et6xdEU9IiqTtSrh6UoSGwJBV9T1TP2E_4VQJNWJChHEvDYpIms0EypkGlLX2owGZi7nhLw5IPfO7qkY0-CqQP2G_T1TZb7at0UH-5i5aJWpwSG1N-z1CiOmlkdO18lEqcRQ6MDbX8D8TQO6lB3rV0jROHJf5LpBkE_wEPUVaQNRXgktf3Ryj7oREg7mxrExVLDm-yfeqmZvDgiboBPIvoYPK8UGTuw33eH9rkcDZYbeXqm-E5ek6UMRtEVdDiuU5xC_3ZefZ56UfGyAn8xvVTpbHba6LKvC_RVGPrnzRQxfCaBZoIbtMX5cXjKUZm3UDJa1RHAYkNlGIb9PeLMPp1pKPx0VSs5cOxAOL5wv4m-FCxY85hc4ltRdprE_JYCbiNTlJ_vCw3pevBhaJE-GxK-Qiuht9x2bsWUV867MVYFbmyD6Dor1yCONbBIQOgIgfs2LWXacMY3a8id1QRMmAMWkGQzK87BlEUrS1hO9oqmpbrWxwpuIPHCskBj2Zml9ZXuuExFbVxk0NmgwV8NZwuyr-TVwRTxg5ylG1-k7aZwk0QhuHL9oE3g2qdX0w-KjbC9a3Kd4efChsuy8hS8LkcAae8jMW3moT0rclobK3rearmCiDaN_LP1olSwk2IMMoEcYzycSKt7_Y_6nw_vozcWbSPibcBgpgiEEp8frEQ4ovp7iAsnJB4LRKT2sEZAtDM-OBSA8TQEeJE9d1q7_VRckY7CGokqzzhuA4K25oh3NFo580mcJ2YNJXcphdeXBzZlXjeUDFt6GYIM3Z4sLkMutZ2BKwNsFAzX_R_4uev9AL5BpkqKcZlYab0AxkgCNVrkB_GxHifDPt_S3iwbR70jZ5jcBY3NyzLcQOyn0kWSOzqmHRqQlcN52btK7Gh-FuJTGffnJl_smOefwbRlFm00]--></g></svg>