<?xml version="1.0" encoding="us-ascii" standalone="no"?><svg xmlns="http://www.w3.org/2000/svg" xmlns:xlink="http://www.w3.org/1999/xlink" contentStyleType="text/css" height="1731px" preserveAspectRatio="none" style="width:5356px;height:1731px;background:#FFFFFF;" version="1.1" viewBox="0 0 5356 1731" width="5356px" zoomAndPan="magnify"><defs/><g><rect fill="none" height="341.7266" style="stroke:#000000;stroke-width:1.5;" width="5098" x="10" y="128.5977"/><rect fill="none" height="193.1738" style="stroke:#000000;stroke-width:1.5;" width="5078" x="20" y="211.5293"/><rect fill="none" height="163.8633" style="stroke:#000000;stroke-width:1.5;" width="4927" x="20" y="513.6348"/><rect fill="none" height="163.8633" style="stroke:#000000;stroke-width:1.5;" width="5330" x="20" y="925.9824"/><rect fill="none" height="193.1738" style="stroke:#000000;stroke-width:1.5;" width="5078" x="20" y="1367.6406"/><line style="stroke:#181818;stroke-width:0.5;stroke-dasharray:5.0,5.0;" x1="55" x2="55" y1="52.9766" y2="1724.3672"/><line style="stroke:#181818;stroke-width:0.5;stroke-dasharray:5.0,5.0;" x1="513" x2="513" y1="52.9766" y2="1724.3672"/><line style="stroke:#181818;stroke-width:0.5;stroke-dasharray:5.0,5.0;" x1="968" x2="968" y1="52.9766" y2="1724.3672"/><line style="stroke:#181818;stroke-width:0.5;stroke-dasharray:5.0,5.0;" x1="1498" x2="1498" y1="52.9766" y2="1724.3672"/><line style="stroke:#181818;stroke-width:0.5;stroke-dasharray:5.0,5.0;" x1="1833" x2="1833" y1="52.9766" y2="1724.3672"/><line style="stroke:#181818;stroke-width:0.5;stroke-dasharray:5.0,5.0;" x1="2016" x2="2016" y1="52.9766" y2="1724.3672"/><line style="stroke:#181818;stroke-width:0.5;stroke-dasharray:5.0,5.0;" x1="2284" x2="2284" y1="52.9766" y2="1724.3672"/><line style="stroke:#181818;stroke-width:0.5;stroke-dasharray:5.0,5.0;" x1="2543" x2="2543" y1="52.9766" y2="1724.3672"/><line style="stroke:#181818;stroke-width:0.5;stroke-dasharray:5.0,5.0;" x1="2789" x2="2789" y1="52.9766" y2="1724.3672"/><line style="stroke:#181818;stroke-width:0.5;stroke-dasharray:5.0,5.0;" x1="3188" x2="3188" y1="52.9766" y2="1724.3672"/><line style="stroke:#181818;stroke-width:0.5;stroke-dasharray:5.0,5.0;" x1="3736" x2="3736" y1="52.9766" y2="1724.3672"/><line style="stroke:#181818;stroke-width:0.5;stroke-dasharray:5.0,5.0;" x1="4319" x2="4319" y1="52.9766" y2="1724.3672"/><line style="stroke:#181818;stroke-width:0.5;stroke-dasharray:5.0,5.0;" x1="4697" x2="4697" y1="52.9766" y2="1724.3672"/><line style="stroke:#181818;stroke-width:0.5;stroke-dasharray:5.0,5.0;" x1="4862" x2="4862" y1="52.9766" y2="1724.3672"/><line style="stroke:#181818;stroke-width:0.5;stroke-dasharray:5.0,5.0;" x1="5017" x2="5017" y1="52.9766" y2="1724.3672"/><line style="stroke:#181818;stroke-width:0.5;stroke-dasharray:5.0,5.0;" x1="5219" x2="5219" y1="52.9766" y2="1724.3672"/><rect fill="#E2E2F0" height="30.4883" rx="2.5" ry="2.5" style="stroke:#181818;stroke-width:0.5;" width="51" x="30" y="21.4883"/><text fill="#000000" font-family="sans-serif" font-size="14" lengthAdjust="spacing" textLength="37" x="37" y="42.0234">Actor</text><rect fill="#E2E2F0" height="46.9766" rx="2.5" ry="2.5" style="stroke:#181818;stroke-width:0.5;" width="367" x="330" y="5"/><text fill="#000000" font-family="sans-serif" font-size="14" font-style="italic" lengthAdjust="spacing" textLength="353" x="337" y="25.5352">&#171;/pool-management/pool-overview/:poolNumber&#187;</text><text fill="#000000" font-family="sans-serif" font-size="14" lengthAdjust="spacing" textLength="125" x="451" y="42.0234">PoolOverviewPage</text><rect fill="#E2E2F0" height="46.9766" rx="2.5" ry="2.5" style="stroke:#181818;stroke-width:0.5;" width="523" x="707" y="5"/><text fill="#000000" font-family="sans-serif" font-size="14" font-style="italic" lengthAdjust="spacing" textLength="509" x="714" y="25.5352">&#171;/pool-management/:poolNumber/change-next-due-at-court/continue&#187;</text><text fill="#000000" font-family="sans-serif" font-size="14" lengthAdjust="spacing" textLength="199" x="869" y="42.0234">ChangeNextDueAtCourtPage</text><rect fill="#E2E2F0" height="46.9766" rx="2.5" ry="2.5" style="stroke:#181818;stroke-width:0.5;" width="516" x="1240" y="5"/><text fill="#000000" font-family="sans-serif" font-size="14" font-style="italic" lengthAdjust="spacing" textLength="502" x="1247" y="25.5352">&#171;/pool-management/:poolNumber/change-next-due-at-court/confirm&#187;</text><text fill="#000000" font-family="sans-serif" font-size="14" lengthAdjust="spacing" textLength="290" x="1353" y="42.0234">ChangeNextDueAtCourtConfirmationPage</text><rect fill="#E2E2F0" height="46.9766" rx="2.5" ry="2.5" style="stroke:#181818;stroke-width:0.5;" width="134" x="1766" y="5"/><text fill="#000000" font-family="sans-serif" font-size="14" font-style="italic" lengthAdjust="spacing" textLength="56" x="1805" y="25.5352">&#171;/error&#187;</text><text fill="#000000" font-family="sans-serif" font-size="14" lengthAdjust="spacing" textLength="120" x="1773" y="42.0234">GenericErrorPage</text><rect fill="#E2E2F0" height="46.9766" rx="2.5" ry="2.5" style="stroke:#181818;stroke-width:0.5;" width="213" x="1910" y="5"/><text fill="#000000" font-family="sans-serif" font-size="14" font-style="italic" lengthAdjust="spacing" textLength="199" x="1917" y="25.5352">&#171;pool-overview.controller.js&#187;</text><text fill="#000000" font-family="sans-serif" font-size="14" lengthAdjust="spacing" textLength="162" x="1935.5" y="42.0234">PoolOverviewController</text><rect fill="#E2E2F0" height="46.9766" rx="2.5" ry="2.5" style="stroke:#181818;stroke-width:0.5;" width="302" x="2133" y="5"/><text fill="#000000" font-family="sans-serif" font-size="14" font-style="italic" lengthAdjust="spacing" textLength="288" x="2140" y="25.5352">&#171;change-next-due-at-court.controller.js&#187;</text><text fill="#000000" font-family="sans-serif" font-size="14" lengthAdjust="spacing" textLength="236" x="2166" y="42.0234">ChangeNextDueAtCourtController</text><rect fill="#E2E2F0" height="46.9766" rx="2.5" ry="2.5" style="stroke:#181818;stroke-width:0.5;" width="197" x="2445" y="5"/><text fill="#000000" font-family="sans-serif" font-size="14" font-style="italic" lengthAdjust="spacing" textLength="183" x="2452" y="25.5352">&#171;poolMembersDAO.post()&#187;</text><text fill="#000000" font-family="sans-serif" font-size="14" lengthAdjust="spacing" textLength="137" x="2475" y="42.0234">PoolMembersObject</text><rect fill="#E2E2F0" height="46.9766" rx="2.5" ry="2.5" style="stroke:#181818;stroke-width:0.5;" width="274" x="2652" y="5"/><text fill="#000000" font-family="sans-serif" font-size="14" font-style="italic" lengthAdjust="spacing" textLength="260" x="2659" y="25.5352">&#171;changeNextDueAtCourtDAO.patch()&#187;</text><text fill="#000000" font-family="sans-serif" font-size="14" lengthAdjust="spacing" textLength="210" x="2684" y="42.0234">ChangeNextDueAtCourtObject</text><rect fill="#E2E2F0" height="46.9766" rx="2.5" ry="2.5" style="stroke:#181818;stroke-width:0.5;" width="504" x="2936" y="5"/><text fill="#000000" font-family="sans-serif" font-size="14" font-style="italic" lengthAdjust="spacing" textLength="490" x="2943" y="25.5352">&#171;pool-management/pool-overview/{bureau/court}-pool-overview.njk&#187;</text><text fill="#000000" font-family="sans-serif" font-size="14" lengthAdjust="spacing" textLength="156" x="3110" y="42.0234">PoolOverviewTemplate</text><rect fill="#E2E2F0" height="46.9766" rx="2.5" ry="2.5" style="stroke:#181818;stroke-width:0.5;" width="572" x="3450" y="5"/><text fill="#000000" font-family="sans-serif" font-size="14" font-style="italic" lengthAdjust="spacing" textLength="558" x="3457" y="25.5352">&#171;pool-management/change-next-due-at-court/change-next-due-at-court.njk&#187;</text><text fill="#000000" font-family="sans-serif" font-size="14" lengthAdjust="spacing" textLength="230" x="3621" y="42.0234">ChangeNextDueAtCourtTemplate</text><rect fill="#E2E2F0" height="46.9766" rx="2.5" ry="2.5" style="stroke:#181818;stroke-width:0.5;" width="575" x="4032" y="5"/><text fill="#000000" font-family="sans-serif" font-size="14" font-style="italic" lengthAdjust="spacing" textLength="561" x="4039" y="25.5352">&#171;pool-management/change-next-due-at-court/confirm-next-due-at-court.njk&#187;</text><text fill="#000000" font-family="sans-serif" font-size="14" lengthAdjust="spacing" textLength="321" x="4159" y="42.0234">ChangeNextDueAtCourtConfirmationTemplate</text><rect fill="#E2E2F0" height="46.9766" rx="2.5" ry="2.5" style="stroke:#181818;stroke-width:0.5;" width="160" x="4617" y="5"/><text fill="#000000" font-family="sans-serif" font-size="14" font-style="italic" lengthAdjust="spacing" textLength="146" x="4624" y="25.5352">&#171;_errors/generic.njk&#187;</text><text fill="#000000" font-family="sans-serif" font-size="14" lengthAdjust="spacing" textLength="99" x="4647.5" y="42.0234">ErrorTemplate</text><rect fill="#E2E2F0" height="30.4883" rx="2.5" ry="2.5" style="stroke:#181818;stroke-width:0.5;" width="150" x="4787" y="21.4883"/><text fill="#000000" font-family="sans-serif" font-size="14" lengthAdjust="spacing" textLength="136" x="4794" y="42.0234">JurorSelectValidator</text><rect fill="#E2E2F0" height="30.4883" rx="2.5" ry="2.5" style="stroke:#181818;stroke-width:0.5;" width="141" x="4947" y="21.4883"/><text fill="#000000" font-family="sans-serif" font-size="14" lengthAdjust="spacing" textLength="127" x="4954" y="42.0234">BackendController</text><rect fill="#E2E2F0" height="30.4883" rx="2.5" ry="2.5" style="stroke:#181818;stroke-width:0.5;" width="242" x="5098" y="21.4883"/><text fill="#000000" font-family="sans-serif" font-size="14" lengthAdjust="spacing" textLength="228" x="5105" y="42.0234">ChangeNextDueAtCourtValidator</text><polygon fill="#181818" points="501.5,80.2871,511.5,84.2871,501.5,88.2871" style="stroke:#181818;stroke-width:1.0;"/><line style="stroke:#181818;stroke-width:1.0;" x1="55.5" x2="507.5" y1="84.2871" y2="84.2871"/><text fill="#000000" font-family="sans-serif" font-size="13" lengthAdjust="spacing" textLength="434" x="67.5" y="79.5449">User selects one or more jurors and clicks 'Change next due at court'</text><polygon fill="#181818" points="2004.5,109.5977,2014.5,113.5977,2004.5,117.5977" style="stroke:#181818;stroke-width:1.0;"/><line style="stroke:#181818;stroke-width:1.0;" x1="513.5" x2="2010.5" y1="113.5977" y2="113.5977"/><text fill="#000000" font-family="sans-serif" font-size="13" lengthAdjust="spacing" textLength="121" x="1204.5" y="108.8555">call page controller</text><path d="M10,128.5977 L72,128.5977 L72,135.9082 L62,145.9082 L10,145.9082 L10,128.5977 " fill="#EEEEEE" style="stroke:#000000;stroke-width:1.5;"/><rect fill="none" height="341.7266" style="stroke:#000000;stroke-width:1.5;" width="5098" x="10" y="128.5977"/><text fill="#000000" font-family="sans-serif" font-size="13" font-weight="bold" lengthAdjust="spacing" textLength="17" x="25" y="142.166">alt</text><text fill="#000000" font-family="sans-serif" font-size="11" font-weight="bold" lengthAdjust="spacing" textLength="188" x="87" y="141.2324">[User clicks 'Check all' checkbox]</text><polygon fill="#181818" points="2531.5,163.2188,2541.5,167.2188,2531.5,171.2188" style="stroke:#181818;stroke-width:1.0;"/><line style="stroke:#181818;stroke-width:1.0;" x1="2016.5" x2="2537.5" y1="167.2188" y2="167.2188"/><text fill="#000000" font-family="sans-serif" font-size="13" lengthAdjust="spacing" textLength="126" x="2217" y="162.4766">build request object</text><polygon fill="#181818" points="5005.5,192.5293,5015.5,196.5293,5005.5,200.5293" style="stroke:#181818;stroke-width:1.0;"/><line style="stroke:#181818;stroke-width:1.0;" x1="2543.5" x2="5011.5" y1="196.5293" y2="196.5293"/><text fill="#000000" font-family="sans-serif" font-size="13" lengthAdjust="spacing" textLength="138" x="3711.5" y="191.7871">send backend request</text><path d="M20,211.5293 L82,211.5293 L82,218.8398 L72,228.8398 L20,228.8398 L20,211.5293 " fill="#EEEEEE" style="stroke:#000000;stroke-width:1.5;"/><rect fill="none" height="193.1738" style="stroke:#000000;stroke-width:1.5;" width="5078" x="20" y="211.5293"/><text fill="#000000" font-family="sans-serif" font-size="13" font-weight="bold" lengthAdjust="spacing" textLength="17" x="35" y="225.0977">alt</text><text fill="#000000" font-family="sans-serif" font-size="11" font-weight="bold" lengthAdjust="spacing" textLength="356" x="97" y="224.1641">[Failed to fetch pool members to change next due at court date]</text><polygon fill="#181818" points="2554.5,246.1504,2544.5,250.1504,2554.5,254.1504" style="stroke:#181818;stroke-width:1.0;"/><line style="stroke:#181818;stroke-width:1.0;stroke-dasharray:2.0,2.0;" x1="2548.5" x2="5016.5" y1="250.1504" y2="250.1504"/><text fill="#000000" font-family="sans-serif" font-size="13" lengthAdjust="spacing" textLength="91" x="3735" y="245.4082">Error response</text><polygon fill="#181818" points="2027.5,275.4609,2017.5,279.4609,2027.5,283.4609" style="stroke:#181818;stroke-width:1.0;"/><line style="stroke:#181818;stroke-width:1.0;stroke-dasharray:2.0,2.0;" x1="2021.5" x2="2542.5" y1="279.4609" y2="279.4609"/><text fill="#000000" font-family="sans-serif" font-size="13" lengthAdjust="spacing" textLength="127" x="2216.5" y="274.7188">reject requestObject</text><polygon fill="#181818" points="4685,304.7715,4695,308.7715,4685,312.7715" style="stroke:#181818;stroke-width:1.0;"/><line style="stroke:#181818;stroke-width:1.0;" x1="2016.5" x2="4691" y1="308.7715" y2="308.7715"/><text fill="#000000" font-family="sans-serif" font-size="13" lengthAdjust="spacing" textLength="169" x="3272.25" y="304.0293">request and build template</text><polygon fill="#181818" points="2027.5,334.082,2017.5,338.082,2027.5,342.082" style="stroke:#181818;stroke-width:1.0;"/><line style="stroke:#181818;stroke-width:1.0;" x1="2021.5" x2="4696" y1="338.082" y2="338.082"/><text fill="#000000" font-family="sans-serif" font-size="13" lengthAdjust="spacing" textLength="78" x="3317.75" y="333.3398">return HTML</text><polygon fill="#181818" points="1844,363.3926,1834,367.3926,1844,371.3926" style="stroke:#181818;stroke-width:1.0;"/><line style="stroke:#181818;stroke-width:1.0;" x1="1838" x2="2015.5" y1="367.3926" y2="367.3926"/><text fill="#000000" font-family="sans-serif" font-size="13" lengthAdjust="spacing" textLength="78" x="1885.75" y="362.6504">return HTML</text><polygon fill="#181818" points="66.5,392.7031,56.5,396.7031,66.5,400.7031" style="stroke:#181818;stroke-width:1.0;"/><line style="stroke:#181818;stroke-width:1.0;" x1="60.5" x2="1832" y1="396.7031" y2="396.7031"/><text fill="#000000" font-family="sans-serif" font-size="13" lengthAdjust="spacing" textLength="108" x="890.25" y="391.9609">render error page</text><polygon fill="#181818" points="2554.5,429.0137,2544.5,433.0137,2554.5,437.0137" style="stroke:#181818;stroke-width:1.0;"/><line style="stroke:#181818;stroke-width:1.0;" x1="2548.5" x2="5016.5" y1="433.0137" y2="433.0137"/><text fill="#000000" font-family="sans-serif" font-size="13" lengthAdjust="spacing" textLength="77" x="3742" y="428.2715">ok response</text><polygon fill="#181818" points="2027.5,458.3242,2017.5,462.3242,2027.5,466.3242" style="stroke:#181818;stroke-width:1.0;"/><line style="stroke:#181818;stroke-width:1.0;" x1="2021.5" x2="2542.5" y1="462.3242" y2="462.3242"/><text fill="#000000" font-family="sans-serif" font-size="13" lengthAdjust="spacing" textLength="96" x="2232" y="457.582">resolve request</text><polygon fill="#181818" points="4850,494.6348,4860,498.6348,4850,502.6348" style="stroke:#181818;stroke-width:1.0;"/><line style="stroke:#181818;stroke-width:1.0;" x1="2016.5" x2="4856" y1="498.6348" y2="498.6348"/><text fill="#000000" font-family="sans-serif" font-size="13" lengthAdjust="spacing" textLength="95" x="3391.75" y="493.8926">validate details</text><path d="M20,513.6348 L82,513.6348 L82,520.9453 L72,530.9453 L20,530.9453 L20,513.6348 " fill="#EEEEEE" style="stroke:#000000;stroke-width:1.5;"/><rect fill="none" height="163.8633" style="stroke:#000000;stroke-width:1.5;" width="4927" x="20" y="513.6348"/><text fill="#000000" font-family="sans-serif" font-size="13" font-weight="bold" lengthAdjust="spacing" textLength="17" x="35" y="527.2031">alt</text><text fill="#000000" font-family="sans-serif" font-size="11" font-weight="bold" lengthAdjust="spacing" textLength="80" x="97" y="526.2695">[Invalid input]</text><polygon fill="#181818" points="2027.5,548.2559,2017.5,552.2559,2027.5,556.2559" style="stroke:#181818;stroke-width:1.0;"/><line style="stroke:#181818;stroke-width:1.0;" x1="2021.5" x2="4861" y1="552.2559" y2="552.2559"/><text fill="#000000" font-family="sans-serif" font-size="13" lengthAdjust="spacing" textLength="79" x="3399.75" y="547.5137">Invalid input</text><polygon fill="#181818" points="3176,577.5664,3186,581.5664,3176,585.5664" style="stroke:#181818;stroke-width:1.0;"/><line style="stroke:#181818;stroke-width:1.0;" x1="2016.5" x2="3182" y1="581.5664" y2="581.5664"/><text fill="#000000" font-family="sans-serif" font-size="13" lengthAdjust="spacing" textLength="169" x="2517.75" y="576.8242">request and build template</text><polygon fill="#181818" points="2027.5,606.877,2017.5,610.877,2027.5,614.877" style="stroke:#181818;stroke-width:1.0;"/><line style="stroke:#181818;stroke-width:1.0;" x1="2021.5" x2="3187" y1="610.877" y2="610.877"/><text fill="#000000" font-family="sans-serif" font-size="13" lengthAdjust="spacing" textLength="78" x="2563.25" y="606.1348">return HTML</text><polygon fill="#181818" points="524.5,636.1875,514.5,640.1875,524.5,644.1875" style="stroke:#181818;stroke-width:1.0;"/><line style="stroke:#181818;stroke-width:1.0;" x1="518.5" x2="2015.5" y1="640.1875" y2="640.1875"/><text fill="#000000" font-family="sans-serif" font-size="13" lengthAdjust="spacing" textLength="112" x="1209" y="635.4453">return error HTML</text><polygon fill="#181818" points="66.5,665.498,56.5,669.498,66.5,673.498" style="stroke:#181818;stroke-width:1.0;"/><line style="stroke:#181818;stroke-width:1.0;" x1="60.5" x2="512.5" y1="669.498" y2="669.498"/><text fill="#000000" font-family="sans-serif" font-size="13" lengthAdjust="spacing" textLength="133" x="218" y="664.7559">render error message</text><polygon fill="#181818" points="2027.5,701.8086,2017.5,705.8086,2027.5,709.8086" style="stroke:#181818;stroke-width:1.0;"/><line style="stroke:#181818;stroke-width:1.0;" x1="2021.5" x2="4861" y1="705.8086" y2="705.8086"/><text fill="#000000" font-family="sans-serif" font-size="13" lengthAdjust="spacing" textLength="127" x="3375.75" y="701.0664">valid details entered</text><polygon fill="#181818" points="3724,731.1191,3734,735.1191,3724,739.1191" style="stroke:#181818;stroke-width:1.0;"/><line style="stroke:#181818;stroke-width:1.0;" x1="2016.5" x2="3730" y1="735.1191" y2="735.1191"/><text fill="#000000" font-family="sans-serif" font-size="13" lengthAdjust="spacing" textLength="169" x="2791.75" y="730.377">request and build template</text><polygon fill="#181818" points="2027.5,760.4297,2017.5,764.4297,2027.5,768.4297" style="stroke:#181818;stroke-width:1.0;"/><line style="stroke:#181818;stroke-width:1.0;" x1="2021.5" x2="3735" y1="764.4297" y2="764.4297"/><text fill="#000000" font-family="sans-serif" font-size="13" lengthAdjust="spacing" textLength="78" x="2837.25" y="759.6875">return HTML</text><polygon fill="#181818" points="979.5,789.7402,969.5,793.7402,979.5,797.7402" style="stroke:#181818;stroke-width:1.0;"/><line style="stroke:#181818;stroke-width:1.0;" x1="973.5" x2="2015.5" y1="793.7402" y2="793.7402"/><text fill="#000000" font-family="sans-serif" font-size="13" lengthAdjust="spacing" textLength="78" x="1453.5" y="788.998">return HTML</text><polygon fill="#181818" points="66.5,819.0508,56.5,823.0508,66.5,827.0508" style="stroke:#181818;stroke-width:1.0;"/><line style="stroke:#181818;stroke-width:1.0;" x1="60.5" x2="967.5" y1="823.0508" y2="823.0508"/><text fill="#000000" font-family="sans-serif" font-size="13" lengthAdjust="spacing" textLength="80" x="472" y="818.3086">render HTML</text><polygon fill="#181818" points="956.5,848.3613,966.5,852.3613,956.5,856.3613" style="stroke:#181818;stroke-width:1.0;"/><line style="stroke:#181818;stroke-width:1.0;" x1="55.5" x2="962.5" y1="852.3613" y2="852.3613"/><text fill="#000000" font-family="sans-serif" font-size="13" lengthAdjust="spacing" textLength="253" x="385.5" y="847.6191">User selects a date and clicks 'Continue'</text><polygon fill="#181818" points="2272,877.6719,2282,881.6719,2272,885.6719" style="stroke:#181818;stroke-width:1.0;"/><line style="stroke:#181818;stroke-width:1.0;" x1="968.5" x2="2278" y1="881.6719" y2="881.6719"/><text fill="#000000" font-family="sans-serif" font-size="13" lengthAdjust="spacing" textLength="121" x="1565.75" y="876.9297">call page controller</text><polygon fill="#181818" points="5207,906.9824,5217,910.9824,5207,914.9824" style="stroke:#181818;stroke-width:1.0;"/><line style="stroke:#181818;stroke-width:1.0;" x1="2284" x2="5213" y1="910.9824" y2="910.9824"/><text fill="#000000" font-family="sans-serif" font-size="13" lengthAdjust="spacing" textLength="95" x="3704" y="906.2402">validate details</text><path d="M20,925.9824 L82,925.9824 L82,933.293 L72,943.293 L20,943.293 L20,925.9824 " fill="#EEEEEE" style="stroke:#000000;stroke-width:1.5;"/><rect fill="none" height="163.8633" style="stroke:#000000;stroke-width:1.5;" width="5330" x="20" y="925.9824"/><text fill="#000000" font-family="sans-serif" font-size="13" font-weight="bold" lengthAdjust="spacing" textLength="17" x="35" y="939.5508">alt</text><text fill="#000000" font-family="sans-serif" font-size="11" font-weight="bold" lengthAdjust="spacing" textLength="80" x="97" y="938.6172">[Invalid input]</text><polygon fill="#181818" points="2295,960.6035,2285,964.6035,2295,968.6035" style="stroke:#181818;stroke-width:1.0;"/><line style="stroke:#181818;stroke-width:1.0;" x1="2289" x2="5218" y1="964.6035" y2="964.6035"/><text fill="#000000" font-family="sans-serif" font-size="13" lengthAdjust="spacing" textLength="79" x="3712" y="959.8613">Invalid input</text><polygon fill="#181818" points="3724,989.9141,3734,993.9141,3724,997.9141" style="stroke:#181818;stroke-width:1.0;"/><line style="stroke:#181818;stroke-width:1.0;" x1="2284" x2="3730" y1="993.9141" y2="993.9141"/><text fill="#000000" font-family="sans-serif" font-size="13" lengthAdjust="spacing" textLength="169" x="2925.5" y="989.1719">request and build template</text><polygon fill="#181818" points="2295,1019.2246,2285,1023.2246,2295,1027.2246" style="stroke:#181818;stroke-width:1.0;"/><line style="stroke:#181818;stroke-width:1.0;" x1="2289" x2="3735" y1="1023.2246" y2="1023.2246"/><text fill="#000000" font-family="sans-serif" font-size="13" lengthAdjust="spacing" textLength="78" x="2971" y="1018.4824">return HTML</text><polygon fill="#181818" points="979.5,1048.5352,969.5,1052.5352,979.5,1056.5352" style="stroke:#181818;stroke-width:1.0;"/><line style="stroke:#181818;stroke-width:1.0;" x1="973.5" x2="2283" y1="1052.5352" y2="1052.5352"/><text fill="#000000" font-family="sans-serif" font-size="13" lengthAdjust="spacing" textLength="112" x="1570.25" y="1047.793">return error HTML</text><polygon fill="#181818" points="66.5,1077.8457,56.5,1081.8457,66.5,1085.8457" style="stroke:#181818;stroke-width:1.0;"/><line style="stroke:#181818;stroke-width:1.0;" x1="60.5" x2="967.5" y1="1081.8457" y2="1081.8457"/><text fill="#000000" font-family="sans-serif" font-size="13" lengthAdjust="spacing" textLength="133" x="445.5" y="1077.1035">render error message</text><polygon fill="#181818" points="2295,1114.1563,2285,1118.1563,2295,1122.1563" style="stroke:#181818;stroke-width:1.0;"/><line style="stroke:#181818;stroke-width:1.0;" x1="2289" x2="5218" y1="1118.1563" y2="1118.1563"/><text fill="#000000" font-family="sans-serif" font-size="13" lengthAdjust="spacing" textLength="127" x="3688" y="1113.4141">valid details entered</text><polygon fill="#181818" points="4307.5,1143.4668,4317.5,1147.4668,4307.5,1151.4668" style="stroke:#181818;stroke-width:1.0;"/><line style="stroke:#181818;stroke-width:1.0;" x1="2284" x2="4313.5" y1="1147.4668" y2="1147.4668"/><text fill="#000000" font-family="sans-serif" font-size="13" lengthAdjust="spacing" textLength="169" x="3217.25" y="1142.7246">request and build template</text><polygon fill="#181818" points="2295,1172.7773,2285,1176.7773,2295,1180.7773" style="stroke:#181818;stroke-width:1.0;"/><line style="stroke:#181818;stroke-width:1.0;" x1="2289" x2="4318.5" y1="1176.7773" y2="1176.7773"/><text fill="#000000" font-family="sans-serif" font-size="13" lengthAdjust="spacing" textLength="78" x="3262.75" y="1172.0352">return HTML</text><polygon fill="#181818" points="1509,1202.0879,1499,1206.0879,1509,1210.0879" style="stroke:#181818;stroke-width:1.0;"/><line style="stroke:#181818;stroke-width:1.0;" x1="1503" x2="2283" y1="1206.0879" y2="1206.0879"/><text fill="#000000" font-family="sans-serif" font-size="13" lengthAdjust="spacing" textLength="78" x="1852" y="1201.3457">return HTML</text><polygon fill="#181818" points="66.5,1231.3984,56.5,1235.3984,66.5,1239.3984" style="stroke:#181818;stroke-width:1.0;"/><line style="stroke:#181818;stroke-width:1.0;" x1="60.5" x2="1497" y1="1235.3984" y2="1235.3984"/><text fill="#000000" font-family="sans-serif" font-size="13" lengthAdjust="spacing" textLength="80" x="736.75" y="1230.6563">render HTML</text><polygon fill="#181818" points="1486,1260.709,1496,1264.709,1486,1268.709" style="stroke:#181818;stroke-width:1.0;"/><line style="stroke:#181818;stroke-width:1.0;" x1="55.5" x2="1492" y1="1264.709" y2="1264.709"/><text fill="#000000" font-family="sans-serif" font-size="13" lengthAdjust="spacing" textLength="136" x="708.75" y="1259.9668">User clicks 'Continue'</text><polygon fill="#181818" points="2272,1290.0195,2282,1294.0195,2272,1298.0195" style="stroke:#181818;stroke-width:1.0;"/><line style="stroke:#181818;stroke-width:1.0;" x1="1498" x2="2278" y1="1294.0195" y2="1294.0195"/><text fill="#000000" font-family="sans-serif" font-size="13" lengthAdjust="spacing" textLength="121" x="1830.5" y="1289.2773">call page controller</text><polygon fill="#181818" points="2777,1319.3301,2787,1323.3301,2777,1327.3301" style="stroke:#181818;stroke-width:1.0;"/><line style="stroke:#181818;stroke-width:1.0;" x1="2284" x2="2783" y1="1323.3301" y2="1323.3301"/><text fill="#000000" font-family="sans-serif" font-size="13" lengthAdjust="spacing" textLength="126" x="2473.5" y="1318.5879">build request object</text><polygon fill="#181818" points="5005.5,1348.6406,5015.5,1352.6406,5005.5,1356.6406" style="stroke:#181818;stroke-width:1.0;"/><line style="stroke:#181818;stroke-width:1.0;" x1="2789" x2="5011.5" y1="1352.6406" y2="1352.6406"/><text fill="#000000" font-family="sans-serif" font-size="13" lengthAdjust="spacing" textLength="138" x="3834.25" y="1347.8984">send backend request</text><path d="M20,1367.6406 L82,1367.6406 L82,1374.9512 L72,1384.9512 L20,1384.9512 L20,1367.6406 " fill="#EEEEEE" style="stroke:#000000;stroke-width:1.5;"/><rect fill="none" height="193.1738" style="stroke:#000000;stroke-width:1.5;" width="5078" x="20" y="1367.6406"/><text fill="#000000" font-family="sans-serif" font-size="13" font-weight="bold" lengthAdjust="spacing" textLength="17" x="35" y="1381.209">alt</text><text fill="#000000" font-family="sans-serif" font-size="11" font-weight="bold" lengthAdjust="spacing" textLength="262" x="97" y="1380.2754">[Failed to change attendance dates for juror(s)]</text><polygon fill="#181818" points="2800,1402.2617,2790,1406.2617,2800,1410.2617" style="stroke:#181818;stroke-width:1.0;"/><line style="stroke:#181818;stroke-width:1.0;stroke-dasharray:2.0,2.0;" x1="2794" x2="5016.5" y1="1406.2617" y2="1406.2617"/><text fill="#000000" font-family="sans-serif" font-size="13" lengthAdjust="spacing" textLength="91" x="3857.75" y="1401.5195">Error response</text><polygon fill="#181818" points="2295,1431.5723,2285,1435.5723,2295,1439.5723" style="stroke:#181818;stroke-width:1.0;"/><line style="stroke:#181818;stroke-width:1.0;stroke-dasharray:2.0,2.0;" x1="2289" x2="2788" y1="1435.5723" y2="1435.5723"/><text fill="#000000" font-family="sans-serif" font-size="13" lengthAdjust="spacing" textLength="127" x="2473" y="1430.8301">reject requestObject</text><polygon fill="#181818" points="4685,1460.8828,4695,1464.8828,4685,1468.8828" style="stroke:#181818;stroke-width:1.0;"/><line style="stroke:#181818;stroke-width:1.0;" x1="2284" x2="4691" y1="1464.8828" y2="1464.8828"/><text fill="#000000" font-family="sans-serif" font-size="13" lengthAdjust="spacing" textLength="169" x="3406" y="1460.1406">request and build template</text><polygon fill="#181818" points="2295,1490.1934,2285,1494.1934,2295,1498.1934" style="stroke:#181818;stroke-width:1.0;"/><line style="stroke:#181818;stroke-width:1.0;" x1="2289" x2="4696" y1="1494.1934" y2="1494.1934"/><text fill="#000000" font-family="sans-serif" font-size="13" lengthAdjust="spacing" textLength="78" x="3451.5" y="1489.4512">return HTML</text><polygon fill="#181818" points="1844,1519.5039,1834,1523.5039,1844,1527.5039" style="stroke:#181818;stroke-width:1.0;"/><line style="stroke:#181818;stroke-width:1.0;" x1="1838" x2="2283" y1="1523.5039" y2="1523.5039"/><text fill="#000000" font-family="sans-serif" font-size="13" lengthAdjust="spacing" textLength="78" x="2019.5" y="1518.7617">return HTML</text><polygon fill="#181818" points="66.5,1548.8145,56.5,1552.8145,66.5,1556.8145" style="stroke:#181818;stroke-width:1.0;"/><line style="stroke:#181818;stroke-width:1.0;" x1="60.5" x2="1832" y1="1552.8145" y2="1552.8145"/><text fill="#000000" font-family="sans-serif" font-size="13" lengthAdjust="spacing" textLength="108" x="890.25" y="1548.0723">render error page</text><polygon fill="#181818" points="2800,1585.125,2790,1589.125,2800,1593.125" style="stroke:#181818;stroke-width:1.0;"/><line style="stroke:#181818;stroke-width:1.0;" x1="2794" x2="5016.5" y1="1589.125" y2="1589.125"/><text fill="#000000" font-family="sans-serif" font-size="13" lengthAdjust="spacing" textLength="77" x="3864.75" y="1584.3828">ok response</text><polygon fill="#181818" points="2295,1614.4355,2285,1618.4355,2295,1622.4355" style="stroke:#181818;stroke-width:1.0;"/><line style="stroke:#181818;stroke-width:1.0;" x1="2289" x2="2788" y1="1618.4355" y2="1618.4355"/><text fill="#000000" font-family="sans-serif" font-size="13" lengthAdjust="spacing" textLength="96" x="2488.5" y="1613.6934">resolve request</text><polygon fill="#181818" points="2027.5,1643.7461,2017.5,1647.7461,2027.5,1651.7461" style="stroke:#181818;stroke-width:1.0;"/><line style="stroke:#181818;stroke-width:1.0;" x1="2021.5" x2="2283" y1="1647.7461" y2="1647.7461"/><text fill="#000000" font-family="sans-serif" font-size="13" lengthAdjust="spacing" textLength="156" x="2072.25" y="1643.0039">redirect to pool overview</text><polygon fill="#181818" points="524.5,1673.0566,514.5,1677.0566,524.5,1681.0566" style="stroke:#181818;stroke-width:1.0;"/><line style="stroke:#181818;stroke-width:1.0;" x1="518.5" x2="2015.5" y1="1677.0566" y2="1677.0566"/><text fill="#000000" font-family="sans-serif" font-size="13" lengthAdjust="spacing" textLength="156" x="1187" y="1672.3145">redirect to pool overview</text><polygon fill="#181818" points="66.5,1702.3672,56.5,1706.3672,66.5,1710.3672" style="stroke:#181818;stroke-width:1.0;"/><line style="stroke:#181818;stroke-width:1.0;" x1="60.5" x2="512.5" y1="1706.3672" y2="1706.3672"/><text fill="#000000" font-family="sans-serif" font-size="13" lengthAdjust="spacing" textLength="297" x="136" y="1701.625">render pool overview page with success banner</text><!--SRC=[fLRVR-8u47xFNp6tMeaYaV9UhIgbaAxeKTA3T4_tj39csheuDkSutJsTxd-_iPC20KmH-uAmFVDzusz-E2zYWL0fATGI5z5lGd5PqSupAZI2ntEf-RAyN4ccR5N8A2gNGgsOOGNCx3yIeRHavevW-mZ_hb1nlCUoPC-OIF6i2bGMEFsWYI8oiuAB5Q52mgschKwd0-Dia8nXcZtceydNbj63rZ9xG_CcyCS3GSANB_qLxSK5KxHquFLQDqRzAxUSLCKSpVLr2slmmjGpJl2d7LQOs86kZ0rXRg7qkVUB5Jd6YmfZPcFkVFjSAojKXIVm3BHw4gPWLcZrgvmEQ8VoQvssr1Xjtk7HBSZEApp89laq6u_JAIIJ8KpJFnxJMGxPpLqwo6T1oIbiQxIKQ0YnfVCbNnzTlfQdAR212btlAAeBx1wTF6KsVqLkcvYQlM6INQvqQI-w9qIp1k073ZqIi_p5GtdzylJ-OPpaQLYg70lg5ellGWKBzDzvPP1LVN_X_-AsgkfrUKBqHxZ2XHEI_3JAxG8-YxxsFudVb_4MoNTVocM_6KwDXy_BxMYSfzEPB-floNWqJF9isaxINKNECvIKxszCYWLpOwSrYAn5jM0qjuR4jx7n13V9uFUKm3SDrFAzONn9pflYZcgtk-nnEad_WjjnzcVa9nt4r_lJx0eUIsg8qaTNWbO8P5beW_3gmYw1gGLmAMWOGwVE2pW9WIG4HeFLITY9ze1toBQQxmeuan9MpeflXSsahOFPi25V0jbsWBk_S_qp0lZS925v60texE8mIs-_MNljjFRWqoqJ4XTWDJmXDHkuMeAYzd6xF71TeFJWfsv4kaVHvxSwNpXIgye6mpbK1Bs3_TlRorANM0oHuJhuNBlz8Dcnbkq5do6YMHTAyAdQAHZcjMWNIVCeTQ8WI83WuoBP4ViuoE6RRgb_jao7it5ED8UcMk-a1xnxF5bxx_tLJdCTpTAUz_aPssdNSqJwk7-RJcNhGUhBieGd4iZFiOkoImqRXJujuezlPt0XZ7koYSuFYlSdSt_s4LnmzeLXwdJk-3Qfg-kjxL1B_KFO5oWhpkcB5-PCaTZH_m00]--></g></svg>