<?xml version="1.0" encoding="us-ascii" standalone="no"?><svg xmlns="http://www.w3.org/2000/svg" xmlns:xlink="http://www.w3.org/1999/xlink" contentStyleType="text/css" height="1526px" preserveAspectRatio="none" style="width:3699px;height:1526px;background:#FFFFFF;" version="1.1" viewBox="0 0 3699 1526" width="3699px" zoomAndPan="magnify"><defs/><g><rect fill="none" height="341.7266" style="stroke:#000000;stroke-width:1.5;" width="3683" x="10" y="128.5977"/><rect fill="none" height="193.1738" style="stroke:#000000;stroke-width:1.5;" width="3663" x="20" y="211.5293"/><rect fill="none" height="134.5527" style="stroke:#000000;stroke-width:1.5;" width="2780" x="20" y="484.3242"/><rect fill="none" height="163.8633" style="stroke:#000000;stroke-width:1.5;" width="3512" x="20" y="867.3613"/><rect fill="none" height="222.4844" style="stroke:#000000;stroke-width:1.5;" width="3663" x="20" y="1133.1563"/><line style="stroke:#181818;stroke-width:0.5;stroke-dasharray:5.0,5.0;" x1="55" x2="55" y1="52.9766" y2="1519.1934"/><line style="stroke:#181818;stroke-width:0.5;stroke-dasharray:5.0,5.0;" x1="510" x2="510" y1="52.9766" y2="1519.1934"/><line style="stroke:#181818;stroke-width:0.5;stroke-dasharray:5.0,5.0;" x1="926" x2="926" y1="52.9766" y2="1519.1934"/><line style="stroke:#181818;stroke-width:0.5;stroke-dasharray:5.0,5.0;" x1="1226" x2="1226" y1="52.9766" y2="1519.1934"/><line style="stroke:#181818;stroke-width:0.5;stroke-dasharray:5.0,5.0;" x1="1409" x2="1409" y1="52.9766" y2="1519.1934"/><line style="stroke:#181818;stroke-width:0.5;stroke-dasharray:5.0,5.0;" x1="1661" x2="1661" y1="52.9766" y2="1519.1934"/><line style="stroke:#181818;stroke-width:0.5;stroke-dasharray:5.0,5.0;" x1="1898" x2="1898" y1="52.9766" y2="1519.1934"/><line style="stroke:#181818;stroke-width:0.5;stroke-dasharray:5.0,5.0;" x1="2141" x2="2141" y1="52.9766" y2="1519.1934"/><line style="stroke:#181818;stroke-width:0.5;stroke-dasharray:5.0,5.0;" x1="2538" x2="2538" y1="52.9766" y2="1519.1934"/><line style="stroke:#181818;stroke-width:0.5;stroke-dasharray:5.0,5.0;" x1="2967" x2="2967" y1="52.9766" y2="1519.1934"/><line style="stroke:#181818;stroke-width:0.5;stroke-dasharray:5.0,5.0;" x1="3225" x2="3225" y1="52.9766" y2="1519.1934"/><line style="stroke:#181818;stroke-width:0.5;stroke-dasharray:5.0,5.0;" x1="3418" x2="3418" y1="52.9766" y2="1519.1934"/><line style="stroke:#181818;stroke-width:0.5;stroke-dasharray:5.0,5.0;" x1="3602" x2="3602" y1="52.9766" y2="1519.1934"/><rect fill="#E2E2F0" height="30.4883" rx="2.5" ry="2.5" style="stroke:#181818;stroke-width:0.5;" width="51" x="30" y="21.4883"/><text fill="#000000" font-family="sans-serif" font-size="14" lengthAdjust="spacing" textLength="37" x="37" y="42.0234">Actor</text><rect fill="#E2E2F0" height="46.9766" rx="2.5" ry="2.5" style="stroke:#181818;stroke-width:0.5;" width="367" x="327" y="5"/><text fill="#000000" font-family="sans-serif" font-size="14" font-style="italic" lengthAdjust="spacing" textLength="353" x="334" y="25.5352">&#171;/pool-management/pool-overview/:poolNumber&#187;</text><text fill="#000000" font-family="sans-serif" font-size="14" lengthAdjust="spacing" textLength="125" x="448" y="42.0234">PoolOverviewPage</text><rect fill="#E2E2F0" height="46.9766" rx="2.5" ry="2.5" style="stroke:#181818;stroke-width:0.5;" width="445" x="704" y="5"/><text fill="#000000" font-family="sans-serif" font-size="14" font-style="italic" lengthAdjust="spacing" textLength="431" x="711" y="25.5352">&#171;/pool-management/:poolNumber/add-non-attendance-day&#187;</text><text fill="#000000" font-family="sans-serif" font-size="14" lengthAdjust="spacing" textLength="192" x="830.5" y="42.0234">AddNonAttendanceDayPage</text><rect fill="#E2E2F0" height="46.9766" rx="2.5" ry="2.5" style="stroke:#181818;stroke-width:0.5;" width="134" x="1159" y="5"/><text fill="#000000" font-family="sans-serif" font-size="14" font-style="italic" lengthAdjust="spacing" textLength="56" x="1198" y="25.5352">&#171;/error&#187;</text><text fill="#000000" font-family="sans-serif" font-size="14" lengthAdjust="spacing" textLength="120" x="1166" y="42.0234">GenericErrorPage</text><rect fill="#E2E2F0" height="46.9766" rx="2.5" ry="2.5" style="stroke:#181818;stroke-width:0.5;" width="213" x="1303" y="5"/><text fill="#000000" font-family="sans-serif" font-size="14" font-style="italic" lengthAdjust="spacing" textLength="199" x="1310" y="25.5352">&#171;pool-overview.controller.js&#187;</text><text fill="#000000" font-family="sans-serif" font-size="14" lengthAdjust="spacing" textLength="162" x="1328.5" y="42.0234">PoolOverviewController</text><rect fill="#E2E2F0" height="46.9766" rx="2.5" ry="2.5" style="stroke:#181818;stroke-width:0.5;" width="257" x="1533" y="5"/><text fill="#000000" font-family="sans-serif" font-size="14" font-style="italic" lengthAdjust="spacing" textLength="243" x="1540" y="25.5352">&#171;non-attendance-day.controller.js&#187;</text><text fill="#000000" font-family="sans-serif" font-size="14" lengthAdjust="spacing" textLength="201" x="1561" y="42.0234">NonAttendanceDayController</text><rect fill="#E2E2F0" height="46.9766" rx="2.5" ry="2.5" style="stroke:#181818;stroke-width:0.5;" width="197" x="1800" y="5"/><text fill="#000000" font-family="sans-serif" font-size="14" font-style="italic" lengthAdjust="spacing" textLength="183" x="1807" y="25.5352">&#171;poolMembersDAO.post()&#187;</text><text fill="#000000" font-family="sans-serif" font-size="14" lengthAdjust="spacing" textLength="137" x="1830" y="42.0234">PoolMembersObject</text><rect fill="#E2E2F0" height="46.9766" rx="2.5" ry="2.5" style="stroke:#181818;stroke-width:0.5;" width="269" x="2007" y="5"/><text fill="#000000" font-family="sans-serif" font-size="14" font-style="italic" lengthAdjust="spacing" textLength="255" x="2014" y="25.5352">&#171;bulkJurorNonAttendanceDao.post()&#187;</text><text fill="#000000" font-family="sans-serif" font-size="14" lengthAdjust="spacing" textLength="213" x="2035" y="42.0234">BulkJurorNonAttendanceObject</text><rect fill="#E2E2F0" height="46.9766" rx="2.5" ry="2.5" style="stroke:#181818;stroke-width:0.5;" width="504" x="2286" y="5"/><text fill="#000000" font-family="sans-serif" font-size="14" font-style="italic" lengthAdjust="spacing" textLength="490" x="2293" y="25.5352">&#171;pool-management/pool-overview/{bureau/court}-pool-overview.njk&#187;</text><text fill="#000000" font-family="sans-serif" font-size="14" lengthAdjust="spacing" textLength="156" x="2460" y="42.0234">PoolOverviewTemplate</text><rect fill="#E2E2F0" height="46.9766" rx="2.5" ry="2.5" style="stroke:#181818;stroke-width:0.5;" width="335" x="2800" y="5"/><text fill="#000000" font-family="sans-serif" font-size="14" font-style="italic" lengthAdjust="spacing" textLength="321" x="2807" y="25.5352">&#171;juror-management/non-attendance-day.njk&#187;</text><text fill="#000000" font-family="sans-serif" font-size="14" lengthAdjust="spacing" textLength="223" x="2856" y="42.0234">AddNonAttendanceDayTemplate</text><rect fill="#E2E2F0" height="46.9766" rx="2.5" ry="2.5" style="stroke:#181818;stroke-width:0.5;" width="160" x="3145" y="5"/><text fill="#000000" font-family="sans-serif" font-size="14" font-style="italic" lengthAdjust="spacing" textLength="146" x="3152" y="25.5352">&#171;_errors/generic.njk&#187;</text><text fill="#000000" font-family="sans-serif" font-size="14" lengthAdjust="spacing" textLength="99" x="3175.5" y="42.0234">ErrorTemplate</text><rect fill="#E2E2F0" height="30.4883" rx="2.5" ry="2.5" style="stroke:#181818;stroke-width:0.5;" width="207" x="3315" y="21.4883"/><text fill="#000000" font-family="sans-serif" font-size="14" lengthAdjust="spacing" textLength="193" x="3322" y="42.0234">NonAttendanceDayValidator</text><rect fill="#E2E2F0" height="30.4883" rx="2.5" ry="2.5" style="stroke:#181818;stroke-width:0.5;" width="141" x="3532" y="21.4883"/><text fill="#000000" font-family="sans-serif" font-size="14" lengthAdjust="spacing" textLength="127" x="3539" y="42.0234">BackendController</text><polygon fill="#181818" points="498.5,80.2871,508.5,84.2871,498.5,88.2871" style="stroke:#181818;stroke-width:1.0;"/><line style="stroke:#181818;stroke-width:1.0;" x1="55.5" x2="504.5" y1="84.2871" y2="84.2871"/><text fill="#000000" font-family="sans-serif" font-size="13" lengthAdjust="spacing" textLength="431" x="67.5" y="79.5449">User selects one or more jurors and clicks 'Add non-attendance day'</text><polygon fill="#181818" points="1397.5,109.5977,1407.5,113.5977,1397.5,117.5977" style="stroke:#181818;stroke-width:1.0;"/><line style="stroke:#181818;stroke-width:1.0;" x1="510.5" x2="1403.5" y1="113.5977" y2="113.5977"/><text fill="#000000" font-family="sans-serif" font-size="13" lengthAdjust="spacing" textLength="121" x="899.5" y="108.8555">call page controller</text><path d="M10,128.5977 L72,128.5977 L72,135.9082 L62,145.9082 L10,145.9082 L10,128.5977 " fill="#EEEEEE" style="stroke:#000000;stroke-width:1.5;"/><rect fill="none" height="341.7266" style="stroke:#000000;stroke-width:1.5;" width="3683" x="10" y="128.5977"/><text fill="#000000" font-family="sans-serif" font-size="13" font-weight="bold" lengthAdjust="spacing" textLength="17" x="25" y="142.166">alt</text><text fill="#000000" font-family="sans-serif" font-size="11" font-weight="bold" lengthAdjust="spacing" textLength="188" x="87" y="141.2324">[User clicks 'Check all' checkbox]</text><polygon fill="#181818" points="1886.5,163.2188,1896.5,167.2188,1886.5,171.2188" style="stroke:#181818;stroke-width:1.0;"/><line style="stroke:#181818;stroke-width:1.0;" x1="1409.5" x2="1892.5" y1="167.2188" y2="167.2188"/><text fill="#000000" font-family="sans-serif" font-size="13" lengthAdjust="spacing" textLength="126" x="1591" y="162.4766">build request object</text><polygon fill="#181818" points="3590.5,192.5293,3600.5,196.5293,3590.5,200.5293" style="stroke:#181818;stroke-width:1.0;"/><line style="stroke:#181818;stroke-width:1.0;" x1="1898.5" x2="3596.5" y1="196.5293" y2="196.5293"/><text fill="#000000" font-family="sans-serif" font-size="13" lengthAdjust="spacing" textLength="138" x="2681.5" y="191.7871">send backend request</text><path d="M20,211.5293 L82,211.5293 L82,218.8398 L72,228.8398 L20,228.8398 L20,211.5293 " fill="#EEEEEE" style="stroke:#000000;stroke-width:1.5;"/><rect fill="none" height="193.1738" style="stroke:#000000;stroke-width:1.5;" width="3663" x="20" y="211.5293"/><text fill="#000000" font-family="sans-serif" font-size="13" font-weight="bold" lengthAdjust="spacing" textLength="17" x="35" y="225.0977">alt</text><text fill="#000000" font-family="sans-serif" font-size="11" font-weight="bold" lengthAdjust="spacing" textLength="361" x="97" y="224.1641">[Failed to fetch pool members for bulk add non-attendance day]</text><polygon fill="#181818" points="1909.5,246.1504,1899.5,250.1504,1909.5,254.1504" style="stroke:#181818;stroke-width:1.0;"/><line style="stroke:#181818;stroke-width:1.0;stroke-dasharray:2.0,2.0;" x1="1903.5" x2="3601.5" y1="250.1504" y2="250.1504"/><text fill="#000000" font-family="sans-serif" font-size="13" lengthAdjust="spacing" textLength="91" x="2705" y="245.4082">Error response</text><polygon fill="#181818" points="1420.5,275.4609,1410.5,279.4609,1420.5,283.4609" style="stroke:#181818;stroke-width:1.0;"/><line style="stroke:#181818;stroke-width:1.0;stroke-dasharray:2.0,2.0;" x1="1414.5" x2="1897.5" y1="279.4609" y2="279.4609"/><text fill="#000000" font-family="sans-serif" font-size="13" lengthAdjust="spacing" textLength="127" x="1590.5" y="274.7188">reject requestObject</text><polygon fill="#181818" points="3213,304.7715,3223,308.7715,3213,312.7715" style="stroke:#181818;stroke-width:1.0;"/><line style="stroke:#181818;stroke-width:1.0;" x1="1409.5" x2="3219" y1="308.7715" y2="308.7715"/><text fill="#000000" font-family="sans-serif" font-size="13" lengthAdjust="spacing" textLength="169" x="2232.75" y="304.0293">request and build template</text><polygon fill="#181818" points="1420.5,334.082,1410.5,338.082,1420.5,342.082" style="stroke:#181818;stroke-width:1.0;"/><line style="stroke:#181818;stroke-width:1.0;" x1="1414.5" x2="3224" y1="338.082" y2="338.082"/><text fill="#000000" font-family="sans-serif" font-size="13" lengthAdjust="spacing" textLength="78" x="2278.25" y="333.3398">return HTML</text><polygon fill="#181818" points="1237,363.3926,1227,367.3926,1237,371.3926" style="stroke:#181818;stroke-width:1.0;"/><line style="stroke:#181818;stroke-width:1.0;" x1="1231" x2="1408.5" y1="367.3926" y2="367.3926"/><text fill="#000000" font-family="sans-serif" font-size="13" lengthAdjust="spacing" textLength="78" x="1278.75" y="362.6504">return HTML</text><polygon fill="#181818" points="66.5,392.7031,56.5,396.7031,66.5,400.7031" style="stroke:#181818;stroke-width:1.0;"/><line style="stroke:#181818;stroke-width:1.0;" x1="60.5" x2="1225" y1="396.7031" y2="396.7031"/><text fill="#000000" font-family="sans-serif" font-size="13" lengthAdjust="spacing" textLength="108" x="586.75" y="391.9609">render error page</text><polygon fill="#181818" points="1909.5,429.0137,1899.5,433.0137,1909.5,437.0137" style="stroke:#181818;stroke-width:1.0;"/><line style="stroke:#181818;stroke-width:1.0;" x1="1903.5" x2="3601.5" y1="433.0137" y2="433.0137"/><text fill="#000000" font-family="sans-serif" font-size="13" lengthAdjust="spacing" textLength="77" x="2712" y="428.2715">ok response</text><polygon fill="#181818" points="1420.5,458.3242,1410.5,462.3242,1420.5,466.3242" style="stroke:#181818;stroke-width:1.0;"/><line style="stroke:#181818;stroke-width:1.0;" x1="1414.5" x2="1897.5" y1="462.3242" y2="462.3242"/><text fill="#000000" font-family="sans-serif" font-size="13" lengthAdjust="spacing" textLength="96" x="1606" y="457.582">resolve request</text><path d="M20,484.3242 L82,484.3242 L82,491.6348 L72,501.6348 L20,501.6348 L20,484.3242 " fill="#EEEEEE" style="stroke:#000000;stroke-width:1.5;"/><rect fill="none" height="134.5527" style="stroke:#000000;stroke-width:1.5;" width="2780" x="20" y="484.3242"/><text fill="#000000" font-family="sans-serif" font-size="13" font-weight="bold" lengthAdjust="spacing" textLength="17" x="35" y="497.8926">alt</text><text fill="#000000" font-family="sans-serif" font-size="11" font-weight="bold" lengthAdjust="spacing" textLength="109" x="97" y="496.959">[no jurors selected]</text><polygon fill="#181818" points="2526,518.9453,2536,522.9453,2526,526.9453" style="stroke:#181818;stroke-width:1.0;"/><line style="stroke:#181818;stroke-width:1.0;" x1="1409.5" x2="2532" y1="522.9453" y2="522.9453"/><text fill="#000000" font-family="sans-serif" font-size="13" lengthAdjust="spacing" textLength="169" x="1889.25" y="518.2031">request and build template</text><polygon fill="#181818" points="1420.5,548.2559,1410.5,552.2559,1420.5,556.2559" style="stroke:#181818;stroke-width:1.0;"/><line style="stroke:#181818;stroke-width:1.0;" x1="1414.5" x2="2537" y1="552.2559" y2="552.2559"/><text fill="#000000" font-family="sans-serif" font-size="13" lengthAdjust="spacing" textLength="78" x="1934.75" y="547.5137">return HTML</text><polygon fill="#181818" points="521.5,577.5664,511.5,581.5664,521.5,585.5664" style="stroke:#181818;stroke-width:1.0;"/><line style="stroke:#181818;stroke-width:1.0;" x1="515.5" x2="1408.5" y1="581.5664" y2="581.5664"/><text fill="#000000" font-family="sans-serif" font-size="13" lengthAdjust="spacing" textLength="112" x="904" y="576.8242">return error HTML</text><polygon fill="#181818" points="66.5,606.877,56.5,610.877,66.5,614.877" style="stroke:#181818;stroke-width:1.0;"/><line style="stroke:#181818;stroke-width:1.0;" x1="60.5" x2="509.5" y1="610.877" y2="610.877"/><text fill="#000000" font-family="sans-serif" font-size="13" lengthAdjust="spacing" textLength="133" x="216.5" y="606.1348">render error message</text><polygon fill="#181818" points="1649.5,643.1875,1659.5,647.1875,1649.5,651.1875" style="stroke:#181818;stroke-width:1.0;"/><line style="stroke:#181818;stroke-width:1.0;" x1="1409.5" x2="1655.5" y1="647.1875" y2="647.1875"/><text fill="#000000" font-family="sans-serif" font-size="13" lengthAdjust="spacing" textLength="121" x="1475" y="642.4453">call page controller</text><polygon fill="#181818" points="2955.5,672.498,2965.5,676.498,2955.5,680.498" style="stroke:#181818;stroke-width:1.0;"/><line style="stroke:#181818;stroke-width:1.0;" x1="1661.5" x2="2961.5" y1="676.498" y2="676.498"/><text fill="#000000" font-family="sans-serif" font-size="13" lengthAdjust="spacing" textLength="169" x="2230" y="671.7559">request and build template</text><polygon fill="#181818" points="1672.5,701.8086,1662.5,705.8086,1672.5,709.8086" style="stroke:#181818;stroke-width:1.0;"/><line style="stroke:#181818;stroke-width:1.0;" x1="1666.5" x2="2966.5" y1="705.8086" y2="705.8086"/><text fill="#000000" font-family="sans-serif" font-size="13" lengthAdjust="spacing" textLength="78" x="2275.5" y="701.0664">return HTML</text><polygon fill="#181818" points="937.5,731.1191,927.5,735.1191,937.5,739.1191" style="stroke:#181818;stroke-width:1.0;"/><line style="stroke:#181818;stroke-width:1.0;" x1="931.5" x2="1660.5" y1="735.1191" y2="735.1191"/><text fill="#000000" font-family="sans-serif" font-size="13" lengthAdjust="spacing" textLength="78" x="1255" y="730.377">return HTML</text><polygon fill="#181818" points="66.5,760.4297,56.5,764.4297,66.5,768.4297" style="stroke:#181818;stroke-width:1.0;"/><line style="stroke:#181818;stroke-width:1.0;" x1="60.5" x2="925.5" y1="764.4297" y2="764.4297"/><text fill="#000000" font-family="sans-serif" font-size="13" lengthAdjust="spacing" textLength="80" x="451" y="759.6875">render HTML</text><polygon fill="#181818" points="914.5,789.7402,924.5,793.7402,914.5,797.7402" style="stroke:#181818;stroke-width:1.0;"/><line style="stroke:#181818;stroke-width:1.0;" x1="55.5" x2="920.5" y1="793.7402" y2="793.7402"/><text fill="#000000" font-family="sans-serif" font-size="13" lengthAdjust="spacing" textLength="336" x="323" y="788.998">User enters date and clicks 'Add non-attendance day'</text><polygon fill="#181818" points="1649.5,819.0508,1659.5,823.0508,1649.5,827.0508" style="stroke:#181818;stroke-width:1.0;"/><line style="stroke:#181818;stroke-width:1.0;" x1="926.5" x2="1655.5" y1="823.0508" y2="823.0508"/><text fill="#000000" font-family="sans-serif" font-size="13" lengthAdjust="spacing" textLength="121" x="1233.5" y="818.3086">call page controller</text><polygon fill="#181818" points="3406.5,848.3613,3416.5,852.3613,3406.5,856.3613" style="stroke:#181818;stroke-width:1.0;"/><line style="stroke:#181818;stroke-width:1.0;" x1="1661.5" x2="3412.5" y1="852.3613" y2="852.3613"/><text fill="#000000" font-family="sans-serif" font-size="13" lengthAdjust="spacing" textLength="95" x="2492.5" y="847.6191">validate details</text><path d="M20,867.3613 L82,867.3613 L82,874.6719 L72,884.6719 L20,884.6719 L20,867.3613 " fill="#EEEEEE" style="stroke:#000000;stroke-width:1.5;"/><rect fill="none" height="163.8633" style="stroke:#000000;stroke-width:1.5;" width="3512" x="20" y="867.3613"/><text fill="#000000" font-family="sans-serif" font-size="13" font-weight="bold" lengthAdjust="spacing" textLength="17" x="35" y="880.9297">alt</text><text fill="#000000" font-family="sans-serif" font-size="11" font-weight="bold" lengthAdjust="spacing" textLength="80" x="97" y="879.9961">[Invalid input]</text><polygon fill="#181818" points="1672.5,901.9824,1662.5,905.9824,1672.5,909.9824" style="stroke:#181818;stroke-width:1.0;"/><line style="stroke:#181818;stroke-width:1.0;" x1="1666.5" x2="3417.5" y1="905.9824" y2="905.9824"/><text fill="#000000" font-family="sans-serif" font-size="13" lengthAdjust="spacing" textLength="79" x="2500.5" y="901.2402">Invalid input</text><polygon fill="#181818" points="2955.5,931.293,2965.5,935.293,2955.5,939.293" style="stroke:#181818;stroke-width:1.0;"/><line style="stroke:#181818;stroke-width:1.0;" x1="1661.5" x2="2961.5" y1="935.293" y2="935.293"/><text fill="#000000" font-family="sans-serif" font-size="13" lengthAdjust="spacing" textLength="169" x="2230" y="930.5508">request and build template</text><polygon fill="#181818" points="1672.5,960.6035,1662.5,964.6035,1672.5,968.6035" style="stroke:#181818;stroke-width:1.0;"/><line style="stroke:#181818;stroke-width:1.0;" x1="1666.5" x2="2966.5" y1="964.6035" y2="964.6035"/><text fill="#000000" font-family="sans-serif" font-size="13" lengthAdjust="spacing" textLength="78" x="2275.5" y="959.8613">return HTML</text><polygon fill="#181818" points="937.5,989.9141,927.5,993.9141,937.5,997.9141" style="stroke:#181818;stroke-width:1.0;"/><line style="stroke:#181818;stroke-width:1.0;" x1="931.5" x2="1660.5" y1="993.9141" y2="993.9141"/><text fill="#000000" font-family="sans-serif" font-size="13" lengthAdjust="spacing" textLength="112" x="1238" y="989.1719">return error HTML</text><polygon fill="#181818" points="66.5,1019.2246,56.5,1023.2246,66.5,1027.2246" style="stroke:#181818;stroke-width:1.0;"/><line style="stroke:#181818;stroke-width:1.0;" x1="60.5" x2="925.5" y1="1023.2246" y2="1023.2246"/><text fill="#000000" font-family="sans-serif" font-size="13" lengthAdjust="spacing" textLength="133" x="424.5" y="1018.4824">render error message</text><polygon fill="#181818" points="1672.5,1055.5352,1662.5,1059.5352,1672.5,1063.5352" style="stroke:#181818;stroke-width:1.0;"/><line style="stroke:#181818;stroke-width:1.0;" x1="1666.5" x2="3417.5" y1="1059.5352" y2="1059.5352"/><text fill="#000000" font-family="sans-serif" font-size="13" lengthAdjust="spacing" textLength="127" x="2476.5" y="1054.793">valid details entered</text><polygon fill="#181818" points="2129.5,1084.8457,2139.5,1088.8457,2129.5,1092.8457" style="stroke:#181818;stroke-width:1.0;"/><line style="stroke:#181818;stroke-width:1.0;" x1="1661.5" x2="2135.5" y1="1088.8457" y2="1088.8457"/><text fill="#000000" font-family="sans-serif" font-size="13" lengthAdjust="spacing" textLength="126" x="1838.5" y="1084.1035">build request object</text><polygon fill="#181818" points="3590.5,1114.1563,3600.5,1118.1563,3590.5,1122.1563" style="stroke:#181818;stroke-width:1.0;"/><line style="stroke:#181818;stroke-width:1.0;" x1="2141.5" x2="3596.5" y1="1118.1563" y2="1118.1563"/><text fill="#000000" font-family="sans-serif" font-size="13" lengthAdjust="spacing" textLength="138" x="2803" y="1113.4141">send backend request</text><path d="M20,1133.1563 L82,1133.1563 L82,1140.4668 L72,1150.4668 L20,1150.4668 L20,1133.1563 " fill="#EEEEEE" style="stroke:#000000;stroke-width:1.5;"/><rect fill="none" height="222.4844" style="stroke:#000000;stroke-width:1.5;" width="3663" x="20" y="1133.1563"/><text fill="#000000" font-family="sans-serif" font-size="13" font-weight="bold" lengthAdjust="spacing" textLength="17" x="35" y="1146.7246">alt</text><text fill="#000000" font-family="sans-serif" font-size="11" font-weight="bold" lengthAdjust="spacing" textLength="271" x="97" y="1145.791">[Failed to add a non-attendance day for juror(s)]</text><polygon fill="#181818" points="2152.5,1167.7773,2142.5,1171.7773,2152.5,1175.7773" style="stroke:#181818;stroke-width:1.0;"/><line style="stroke:#181818;stroke-width:1.0;stroke-dasharray:2.0,2.0;" x1="2146.5" x2="3601.5" y1="1171.7773" y2="1171.7773"/><text fill="#000000" font-family="sans-serif" font-size="13" lengthAdjust="spacing" textLength="91" x="2826.5" y="1167.0352">Error response</text><polygon fill="#181818" points="1672.5,1197.0879,1662.5,1201.0879,1672.5,1205.0879" style="stroke:#181818;stroke-width:1.0;"/><line style="stroke:#181818;stroke-width:1.0;stroke-dasharray:2.0,2.0;" x1="1666.5" x2="2140.5" y1="1201.0879" y2="1201.0879"/><text fill="#000000" font-family="sans-serif" font-size="13" lengthAdjust="spacing" textLength="127" x="1838" y="1196.3457">reject requestObject</text><polygon fill="#181818" points="1420.5,1226.3984,1410.5,1230.3984,1420.5,1234.3984" style="stroke:#181818;stroke-width:1.0;"/><line style="stroke:#181818;stroke-width:1.0;" x1="1414.5" x2="1660.5" y1="1230.3984" y2="1230.3984"/><text fill="#000000" font-family="sans-serif" font-size="13" lengthAdjust="spacing" textLength="228" x="1421.5" y="1225.6563">pass control to error page controller</text><polygon fill="#181818" points="2526,1255.709,2536,1259.709,2526,1263.709" style="stroke:#181818;stroke-width:1.0;"/><line style="stroke:#181818;stroke-width:1.0;" x1="1409.5" x2="2532" y1="1259.709" y2="1259.709"/><text fill="#000000" font-family="sans-serif" font-size="13" lengthAdjust="spacing" textLength="169" x="1889.25" y="1254.9668">request and build template</text><polygon fill="#181818" points="1420.5,1285.0195,1410.5,1289.0195,1420.5,1293.0195" style="stroke:#181818;stroke-width:1.0;"/><line style="stroke:#181818;stroke-width:1.0;" x1="1414.5" x2="2537" y1="1289.0195" y2="1289.0195"/><text fill="#000000" font-family="sans-serif" font-size="13" lengthAdjust="spacing" textLength="78" x="1934.75" y="1284.2773">return HTML</text><polygon fill="#181818" points="521.5,1314.3301,511.5,1318.3301,521.5,1322.3301" style="stroke:#181818;stroke-width:1.0;"/><line style="stroke:#181818;stroke-width:1.0;" x1="515.5" x2="1408.5" y1="1318.3301" y2="1318.3301"/><text fill="#000000" font-family="sans-serif" font-size="13" lengthAdjust="spacing" textLength="112" x="904" y="1313.5879">return error HTML</text><polygon fill="#181818" points="66.5,1343.6406,56.5,1347.6406,66.5,1351.6406" style="stroke:#181818;stroke-width:1.0;"/><line style="stroke:#181818;stroke-width:1.0;" x1="60.5" x2="509.5" y1="1347.6406" y2="1347.6406"/><text fill="#000000" font-family="sans-serif" font-size="13" lengthAdjust="spacing" textLength="133" x="216.5" y="1342.8984">render error message</text><polygon fill="#181818" points="2152.5,1379.9512,2142.5,1383.9512,2152.5,1387.9512" style="stroke:#181818;stroke-width:1.0;"/><line style="stroke:#181818;stroke-width:1.0;" x1="2146.5" x2="3601.5" y1="1383.9512" y2="1383.9512"/><text fill="#000000" font-family="sans-serif" font-size="13" lengthAdjust="spacing" textLength="77" x="2833.5" y="1379.209">ok response</text><polygon fill="#181818" points="1672.5,1409.2617,1662.5,1413.2617,1672.5,1417.2617" style="stroke:#181818;stroke-width:1.0;"/><line style="stroke:#181818;stroke-width:1.0;" x1="1666.5" x2="2140.5" y1="1413.2617" y2="1413.2617"/><text fill="#000000" font-family="sans-serif" font-size="13" lengthAdjust="spacing" textLength="96" x="1853.5" y="1408.5195">resolve request</text><polygon fill="#181818" points="1420.5,1438.5723,1410.5,1442.5723,1420.5,1446.5723" style="stroke:#181818;stroke-width:1.0;"/><line style="stroke:#181818;stroke-width:1.0;" x1="1414.5" x2="1660.5" y1="1442.5723" y2="1442.5723"/><text fill="#000000" font-family="sans-serif" font-size="13" lengthAdjust="spacing" textLength="156" x="1457.5" y="1437.8301">redirect to pool overview</text><polygon fill="#181818" points="521.5,1467.8828,511.5,1471.8828,521.5,1475.8828" style="stroke:#181818;stroke-width:1.0;"/><line style="stroke:#181818;stroke-width:1.0;" x1="515.5" x2="1408.5" y1="1471.8828" y2="1471.8828"/><text fill="#000000" font-family="sans-serif" font-size="13" lengthAdjust="spacing" textLength="156" x="882" y="1467.1406">redirect to pool overview</text><polygon fill="#181818" points="66.5,1497.1934,56.5,1501.1934,66.5,1505.1934" style="stroke:#181818;stroke-width:1.0;"/><line style="stroke:#181818;stroke-width:1.0;" x1="60.5" x2="509.5" y1="1501.1934" y2="1501.1934"/><text fill="#000000" font-family="sans-serif" font-size="13" lengthAdjust="spacing" textLength="297" x="134.5" y="1496.4512">render pool overview page with success banner</text><!--SRC=[dLPTRzem57tFhxYhAb4a0kzLLIc5KD6bX8NGQK-JSTmIS6ncE-sgQVzzDnzyX92iwWl2zhtd7X-VUs4LHmnImMEnOP7r9HQKfxZpmWHJCRMNNDADxcyv4IPDk6NfJIosH944vkQTCz06mx8ZE3vYlr8cA7jaMfCNvl3uHIHC6A3umPHbOPY9QRn5L72eaRZLwNJ0yuUE1u6_22VJ-qhGJ4hklpBr6hEt6KB2pSrWYtjsGWGkC_1YBSkWmNMsdAR9agdRssh1A9fAuHZ3H4IGvOYyDq4UWGn85Db22fli4-s8l9zWtnUwkKf9jGDbsGBZyYiE_MaO-9xd1k1CHn2utnRkF0J_xi4TXlF6Em-bC4fopXGYLYxQf_kZ_bgVq3czPmMcVfbMh8pE8ykaqFvopQWfcPHx8yVlRwKsLzsJlBkKRnvIbA12PW-nF7iy8lA0bWiNkeyppmdTPer2bg1F3Tifr6YDFyjKCP8Eg4oL-MjNvHJhpV_zSbHgdN4_hdL6rZfcRf0Zb9-vIVIWxBio8x_uUEA5RZ3FxVBaU9EH4_h1lFMPdmYF8x9lgpjd-DN5x8FtgWz4w0Pp3zwmYhG7Vn5CtHymzlplLjwbOD_ME_4Q5Xhzf1d71zKW1GECJAHYa6kZWOW8A8zna407nOIgGe0ATQmQx4cf8-TU0oMSmpQBeaUa2JS5bLsjuOhH3M1i1sZsTIb_Mm2NfSRER3B4iwlpLNfrl_UghzQ3Yp69EOl0I7XcXguWSn8aHGuyemgPkO6SlV95ry9LmLh8dLI5YZY9uLBXCLDvIL-CfKfQcPusGQ_sK6Mz1b5HxfPXqIHvIN9ND9HPeQjce5vRC_MQ9dFNEjYlQNYNBin_NpJgYrtr4TjPJNYVrEErw3ms4TlKj0hHsBEVrkWouuIk3ch6QUFHDfxR79-vcfpHDFTzxkOhtRtug3bx3StURJJiZTt-G8f5iSf-Of1htfUx2LyVDGZLE6gQOGfBdkIMNYpQeffGkEKjDYlGAQNurmYMHE0eilu1]--></g></svg>