<?xml version="1.0" encoding="us-ascii" standalone="no"?><svg xmlns="http://www.w3.org/2000/svg" xmlns:xlink="http://www.w3.org/1999/xlink" contentStyleType="text/css" height="1526px" preserveAspectRatio="none" style="width:3693px;height:1526px;background:#FFFFFF;" version="1.1" viewBox="0 0 3693 1526" width="3693px" zoomAndPan="magnify"><defs/><g><rect fill="none" height="341.7266" style="stroke:#000000;stroke-width:1.5;" width="3677.5" x="10" y="128.5977"/><rect fill="none" height="193.1738" style="stroke:#000000;stroke-width:1.5;" width="3657.5" x="20" y="211.5293"/><rect fill="none" height="134.5527" style="stroke:#000000;stroke-width:1.5;" width="2715.5" x="20" y="484.3242"/><rect fill="none" height="163.8633" style="stroke:#000000;stroke-width:1.5;" width="3506.5" x="20" y="867.3613"/><rect fill="none" height="222.4844" style="stroke:#000000;stroke-width:1.5;" width="3657.5" x="20" y="1133.1563"/><line style="stroke:#181818;stroke-width:0.5;stroke-dasharray:5.0,5.0;" x1="55" x2="55" y1="52.9766" y2="1519.1934"/><line style="stroke:#181818;stroke-width:0.5;stroke-dasharray:5.0,5.0;" x1="462" x2="462" y1="52.9766" y2="1519.1934"/><line style="stroke:#181818;stroke-width:0.5;stroke-dasharray:5.0,5.0;" x1="879" x2="879" y1="52.9766" y2="1519.1934"/><line style="stroke:#181818;stroke-width:0.5;stroke-dasharray:5.0,5.0;" x1="1179" x2="1179" y1="52.9766" y2="1519.1934"/><line style="stroke:#181818;stroke-width:0.5;stroke-dasharray:5.0,5.0;" x1="1362" x2="1362" y1="52.9766" y2="1519.1934"/><line style="stroke:#181818;stroke-width:0.5;stroke-dasharray:5.0,5.0;" x1="1656.5" x2="1656.5" y1="52.9766" y2="1519.1934"/><line style="stroke:#181818;stroke-width:0.5;stroke-dasharray:5.0,5.0;" x1="1880.5" x2="1880.5" y1="52.9766" y2="1519.1934"/><line style="stroke:#181818;stroke-width:0.5;stroke-dasharray:5.0,5.0;" x1="2100.5" x2="2100.5" y1="52.9766" y2="1519.1934"/><line style="stroke:#181818;stroke-width:0.5;stroke-dasharray:5.0,5.0;" x1="2473.5" x2="2473.5" y1="52.9766" y2="1519.1934"/><line style="stroke:#181818;stroke-width:0.5;stroke-dasharray:5.0,5.0;" x1="2940.5" x2="2940.5" y1="52.9766" y2="1519.1934"/><line style="stroke:#181818;stroke-width:0.5;stroke-dasharray:5.0,5.0;" x1="3236.5" x2="3236.5" y1="52.9766" y2="1519.1934"/><line style="stroke:#181818;stroke-width:0.5;stroke-dasharray:5.0,5.0;" x1="3421.5" x2="3421.5" y1="52.9766" y2="1519.1934"/><line style="stroke:#181818;stroke-width:0.5;stroke-dasharray:5.0,5.0;" x1="3596.5" x2="3596.5" y1="52.9766" y2="1519.1934"/><rect fill="#E2E2F0" height="30.4883" rx="2.5" ry="2.5" style="stroke:#181818;stroke-width:0.5;" width="51" x="30" y="21.4883"/><text fill="#000000" font-family="sans-serif" font-size="14" lengthAdjust="spacing" textLength="37" x="37" y="42.0234">Actor</text><rect fill="#E2E2F0" height="46.9766" rx="2.5" ry="2.5" style="stroke:#181818;stroke-width:0.5;" width="367" x="279" y="5"/><text fill="#000000" font-family="sans-serif" font-size="14" font-style="italic" lengthAdjust="spacing" textLength="353" x="286" y="25.5352">&#171;/pool-management/pool-overview/:poolNumber&#187;</text><text fill="#000000" font-family="sans-serif" font-size="14" lengthAdjust="spacing" textLength="125" x="400" y="42.0234">PoolOverviewPage</text><rect fill="#E2E2F0" height="46.9766" rx="2.5" ry="2.5" style="stroke:#181818;stroke-width:0.5;" width="446" x="656" y="5"/><text fill="#000000" font-family="sans-serif" font-size="14" font-style="italic" lengthAdjust="spacing" textLength="432" x="663" y="25.5352">&#171;/pool-management/:poolNumber/complete-service/confirm&#187;</text><text fill="#000000" font-family="sans-serif" font-size="14" lengthAdjust="spacing" textLength="147" x="805.5" y="42.0234">CompleteServicePage</text><rect fill="#E2E2F0" height="46.9766" rx="2.5" ry="2.5" style="stroke:#181818;stroke-width:0.5;" width="134" x="1112" y="5"/><text fill="#000000" font-family="sans-serif" font-size="14" font-style="italic" lengthAdjust="spacing" textLength="56" x="1151" y="25.5352">&#171;/error&#187;</text><text fill="#000000" font-family="sans-serif" font-size="14" lengthAdjust="spacing" textLength="120" x="1119" y="42.0234">GenericErrorPage</text><rect fill="#E2E2F0" height="46.9766" rx="2.5" ry="2.5" style="stroke:#181818;stroke-width:0.5;" width="213" x="1256" y="5"/><text fill="#000000" font-family="sans-serif" font-size="14" font-style="italic" lengthAdjust="spacing" textLength="199" x="1263" y="25.5352">&#171;pool-overview.controller.js&#187;</text><text fill="#000000" font-family="sans-serif" font-size="14" lengthAdjust="spacing" textLength="162" x="1281.5" y="42.0234">PoolOverviewController</text><rect fill="#E2E2F0" height="46.9766" rx="2.5" ry="2.5" style="stroke:#181818;stroke-width:0.5;" width="232" x="1540.5" y="5"/><text fill="#000000" font-family="sans-serif" font-size="14" font-style="italic" lengthAdjust="spacing" textLength="218" x="1547.5" y="25.5352">&#171;complete-service.controller.js&#187;</text><text fill="#000000" font-family="sans-serif" font-size="14" lengthAdjust="spacing" textLength="184" x="1564.5" y="42.0234">CompleteServiceController</text><rect fill="#E2E2F0" height="46.9766" rx="2.5" ry="2.5" style="stroke:#181818;stroke-width:0.5;" width="197" x="1782.5" y="5"/><text fill="#000000" font-family="sans-serif" font-size="14" font-style="italic" lengthAdjust="spacing" textLength="183" x="1789.5" y="25.5352">&#171;poolMembersDAO.post()&#187;</text><text fill="#000000" font-family="sans-serif" font-size="14" lengthAdjust="spacing" textLength="137" x="1812.5" y="42.0234">PoolMembersObject</text><rect fill="#E2E2F0" height="46.9766" rx="2.5" ry="2.5" style="stroke:#181818;stroke-width:0.5;" width="222" x="1989.5" y="5"/><text fill="#000000" font-family="sans-serif" font-size="14" font-style="italic" lengthAdjust="spacing" textLength="208" x="1996.5" y="25.5352">&#171;completeServiceDAO.patch()&#187;</text><text fill="#000000" font-family="sans-serif" font-size="14" lengthAdjust="spacing" textLength="158" x="2021.5" y="42.0234">CompleteServiceObject</text><rect fill="#E2E2F0" height="46.9766" rx="2.5" ry="2.5" style="stroke:#181818;stroke-width:0.5;" width="504" x="2221.5" y="5"/><text fill="#000000" font-family="sans-serif" font-size="14" font-style="italic" lengthAdjust="spacing" textLength="490" x="2228.5" y="25.5352">&#171;pool-management/pool-overview/{bureau/court}-pool-overview.njk&#187;</text><text fill="#000000" font-family="sans-serif" font-size="14" lengthAdjust="spacing" textLength="156" x="2395.5" y="42.0234">PoolOverviewTemplate</text><rect fill="#E2E2F0" height="46.9766" rx="2.5" ry="2.5" style="stroke:#181818;stroke-width:0.5;" width="411" x="2735.5" y="5"/><text fill="#000000" font-family="sans-serif" font-size="14" font-style="italic" lengthAdjust="spacing" textLength="397" x="2742.5" y="25.5352">&#171;shared/complete-service/complete-service-confirm.njk&#187;</text><text fill="#000000" font-family="sans-serif" font-size="14" lengthAdjust="spacing" textLength="178" x="2852" y="42.0234">CompleteServiceTemplate</text><rect fill="#E2E2F0" height="46.9766" rx="2.5" ry="2.5" style="stroke:#181818;stroke-width:0.5;" width="160" x="3156.5" y="5"/><text fill="#000000" font-family="sans-serif" font-size="14" font-style="italic" lengthAdjust="spacing" textLength="146" x="3163.5" y="25.5352">&#171;_errors/generic.njk&#187;</text><text fill="#000000" font-family="sans-serif" font-size="14" lengthAdjust="spacing" textLength="99" x="3187" y="42.0234">ErrorTemplate</text><rect fill="#E2E2F0" height="30.4883" rx="2.5" ry="2.5" style="stroke:#181818;stroke-width:0.5;" width="190" x="3326.5" y="21.4883"/><text fill="#000000" font-family="sans-serif" font-size="14" lengthAdjust="spacing" textLength="176" x="3333.5" y="42.0234">CompleteServiceValidator</text><rect fill="#E2E2F0" height="30.4883" rx="2.5" ry="2.5" style="stroke:#181818;stroke-width:0.5;" width="141" x="3526.5" y="21.4883"/><text fill="#000000" font-family="sans-serif" font-size="14" lengthAdjust="spacing" textLength="127" x="3533.5" y="42.0234">BackendController</text><polygon fill="#181818" points="450.5,80.2871,460.5,84.2871,450.5,88.2871" style="stroke:#181818;stroke-width:1.0;"/><line style="stroke:#181818;stroke-width:1.0;" x1="55.5" x2="456.5" y1="84.2871" y2="84.2871"/><text fill="#000000" font-family="sans-serif" font-size="13" lengthAdjust="spacing" textLength="383" x="67.5" y="79.5449">User selects one or more jurors and clicks 'Complete service'</text><polygon fill="#181818" points="1350.5,109.5977,1360.5,113.5977,1350.5,117.5977" style="stroke:#181818;stroke-width:1.0;"/><line style="stroke:#181818;stroke-width:1.0;" x1="462.5" x2="1356.5" y1="113.5977" y2="113.5977"/><text fill="#000000" font-family="sans-serif" font-size="13" lengthAdjust="spacing" textLength="121" x="852" y="108.8555">call page controller</text><path d="M10,128.5977 L72,128.5977 L72,135.9082 L62,145.9082 L10,145.9082 L10,128.5977 " fill="#EEEEEE" style="stroke:#000000;stroke-width:1.5;"/><rect fill="none" height="341.7266" style="stroke:#000000;stroke-width:1.5;" width="3677.5" x="10" y="128.5977"/><text fill="#000000" font-family="sans-serif" font-size="13" font-weight="bold" lengthAdjust="spacing" textLength="17" x="25" y="142.166">alt</text><text fill="#000000" font-family="sans-serif" font-size="11" font-weight="bold" lengthAdjust="spacing" textLength="188" x="87" y="141.2324">[User clicks 'Check all' checkbox]</text><polygon fill="#181818" points="1869,163.2188,1879,167.2188,1869,171.2188" style="stroke:#181818;stroke-width:1.0;"/><line style="stroke:#181818;stroke-width:1.0;" x1="1362.5" x2="1875" y1="167.2188" y2="167.2188"/><text fill="#000000" font-family="sans-serif" font-size="13" lengthAdjust="spacing" textLength="126" x="1558.75" y="162.4766">build request object</text><polygon fill="#181818" points="3585,192.5293,3595,196.5293,3585,200.5293" style="stroke:#181818;stroke-width:1.0;"/><line style="stroke:#181818;stroke-width:1.0;" x1="1881" x2="3591" y1="196.5293" y2="196.5293"/><text fill="#000000" font-family="sans-serif" font-size="13" lengthAdjust="spacing" textLength="138" x="2670" y="191.7871">send backend request</text><path d="M20,211.5293 L82,211.5293 L82,218.8398 L72,228.8398 L20,228.8398 L20,211.5293 " fill="#EEEEEE" style="stroke:#000000;stroke-width:1.5;"/><rect fill="none" height="193.1738" style="stroke:#000000;stroke-width:1.5;" width="3657.5" x="20" y="211.5293"/><text fill="#000000" font-family="sans-serif" font-size="13" font-weight="bold" lengthAdjust="spacing" textLength="17" x="35" y="225.0977">alt</text><text fill="#000000" font-family="sans-serif" font-size="11" font-weight="bold" lengthAdjust="spacing" textLength="293" x="97" y="224.1641">[Failed to fetch pool members for complete service]</text><polygon fill="#181818" points="1892,246.1504,1882,250.1504,1892,254.1504" style="stroke:#181818;stroke-width:1.0;"/><line style="stroke:#181818;stroke-width:1.0;stroke-dasharray:2.0,2.0;" x1="1886" x2="3596" y1="250.1504" y2="250.1504"/><text fill="#000000" font-family="sans-serif" font-size="13" lengthAdjust="spacing" textLength="91" x="2693.5" y="245.4082">Error response</text><polygon fill="#181818" points="1373.5,275.4609,1363.5,279.4609,1373.5,283.4609" style="stroke:#181818;stroke-width:1.0;"/><line style="stroke:#181818;stroke-width:1.0;stroke-dasharray:2.0,2.0;" x1="1367.5" x2="1880" y1="279.4609" y2="279.4609"/><text fill="#000000" font-family="sans-serif" font-size="13" lengthAdjust="spacing" textLength="127" x="1558.25" y="274.7188">reject requestObject</text><polygon fill="#181818" points="3224.5,304.7715,3234.5,308.7715,3224.5,312.7715" style="stroke:#181818;stroke-width:1.0;"/><line style="stroke:#181818;stroke-width:1.0;" x1="1362.5" x2="3230.5" y1="308.7715" y2="308.7715"/><text fill="#000000" font-family="sans-serif" font-size="13" lengthAdjust="spacing" textLength="169" x="2215" y="304.0293">request and build template</text><polygon fill="#181818" points="1373.5,334.082,1363.5,338.082,1373.5,342.082" style="stroke:#181818;stroke-width:1.0;"/><line style="stroke:#181818;stroke-width:1.0;" x1="1367.5" x2="3235.5" y1="338.082" y2="338.082"/><text fill="#000000" font-family="sans-serif" font-size="13" lengthAdjust="spacing" textLength="78" x="2260.5" y="333.3398">return HTML</text><polygon fill="#181818" points="1190,363.3926,1180,367.3926,1190,371.3926" style="stroke:#181818;stroke-width:1.0;"/><line style="stroke:#181818;stroke-width:1.0;" x1="1184" x2="1361.5" y1="367.3926" y2="367.3926"/><text fill="#000000" font-family="sans-serif" font-size="13" lengthAdjust="spacing" textLength="78" x="1231.75" y="362.6504">return HTML</text><polygon fill="#181818" points="66.5,392.7031,56.5,396.7031,66.5,400.7031" style="stroke:#181818;stroke-width:1.0;"/><line style="stroke:#181818;stroke-width:1.0;" x1="60.5" x2="1178" y1="396.7031" y2="396.7031"/><text fill="#000000" font-family="sans-serif" font-size="13" lengthAdjust="spacing" textLength="108" x="563.25" y="391.9609">render error page</text><polygon fill="#181818" points="1892,429.0137,1882,433.0137,1892,437.0137" style="stroke:#181818;stroke-width:1.0;"/><line style="stroke:#181818;stroke-width:1.0;" x1="1886" x2="3596" y1="433.0137" y2="433.0137"/><text fill="#000000" font-family="sans-serif" font-size="13" lengthAdjust="spacing" textLength="77" x="2700.5" y="428.2715">ok response</text><polygon fill="#181818" points="1373.5,458.3242,1363.5,462.3242,1373.5,466.3242" style="stroke:#181818;stroke-width:1.0;"/><line style="stroke:#181818;stroke-width:1.0;" x1="1367.5" x2="1880" y1="462.3242" y2="462.3242"/><text fill="#000000" font-family="sans-serif" font-size="13" lengthAdjust="spacing" textLength="96" x="1573.75" y="457.582">resolve request</text><path d="M20,484.3242 L82,484.3242 L82,491.6348 L72,501.6348 L20,501.6348 L20,484.3242 " fill="#EEEEEE" style="stroke:#000000;stroke-width:1.5;"/><rect fill="none" height="134.5527" style="stroke:#000000;stroke-width:1.5;" width="2715.5" x="20" y="484.3242"/><text fill="#000000" font-family="sans-serif" font-size="13" font-weight="bold" lengthAdjust="spacing" textLength="17" x="35" y="497.8926">alt</text><text fill="#000000" font-family="sans-serif" font-size="11" font-weight="bold" lengthAdjust="spacing" textLength="109" x="97" y="496.959">[no jurors selected]</text><polygon fill="#181818" points="2461.5,518.9453,2471.5,522.9453,2461.5,526.9453" style="stroke:#181818;stroke-width:1.0;"/><line style="stroke:#181818;stroke-width:1.0;" x1="1362.5" x2="2467.5" y1="522.9453" y2="522.9453"/><text fill="#000000" font-family="sans-serif" font-size="13" lengthAdjust="spacing" textLength="169" x="1833.5" y="518.2031">request and build template</text><polygon fill="#181818" points="1373.5,548.2559,1363.5,552.2559,1373.5,556.2559" style="stroke:#181818;stroke-width:1.0;"/><line style="stroke:#181818;stroke-width:1.0;" x1="1367.5" x2="2472.5" y1="552.2559" y2="552.2559"/><text fill="#000000" font-family="sans-serif" font-size="13" lengthAdjust="spacing" textLength="78" x="1879" y="547.5137">return HTML</text><polygon fill="#181818" points="473.5,577.5664,463.5,581.5664,473.5,585.5664" style="stroke:#181818;stroke-width:1.0;"/><line style="stroke:#181818;stroke-width:1.0;" x1="467.5" x2="1361.5" y1="581.5664" y2="581.5664"/><text fill="#000000" font-family="sans-serif" font-size="13" lengthAdjust="spacing" textLength="112" x="856.5" y="576.8242">return error HTML</text><polygon fill="#181818" points="66.5,606.877,56.5,610.877,66.5,614.877" style="stroke:#181818;stroke-width:1.0;"/><line style="stroke:#181818;stroke-width:1.0;" x1="60.5" x2="461.5" y1="610.877" y2="610.877"/><text fill="#000000" font-family="sans-serif" font-size="13" lengthAdjust="spacing" textLength="133" x="192.5" y="606.1348">render error message</text><polygon fill="#181818" points="1644.5,643.1875,1654.5,647.1875,1644.5,651.1875" style="stroke:#181818;stroke-width:1.0;"/><line style="stroke:#181818;stroke-width:1.0;" x1="1362.5" x2="1650.5" y1="647.1875" y2="647.1875"/><text fill="#000000" font-family="sans-serif" font-size="13" lengthAdjust="spacing" textLength="270" x="1374.5" y="642.4453">pass control to complete service controller</text><polygon fill="#181818" points="2929,672.498,2939,676.498,2929,680.498" style="stroke:#181818;stroke-width:1.0;"/><line style="stroke:#181818;stroke-width:1.0;" x1="1656.5" x2="2935" y1="676.498" y2="676.498"/><text fill="#000000" font-family="sans-serif" font-size="13" lengthAdjust="spacing" textLength="169" x="2214.25" y="671.7559">request and build template</text><polygon fill="#181818" points="1667.5,701.8086,1657.5,705.8086,1667.5,709.8086" style="stroke:#181818;stroke-width:1.0;"/><line style="stroke:#181818;stroke-width:1.0;" x1="1661.5" x2="2940" y1="705.8086" y2="705.8086"/><text fill="#000000" font-family="sans-serif" font-size="13" lengthAdjust="spacing" textLength="78" x="2259.75" y="701.0664">return HTML</text><polygon fill="#181818" points="890,731.1191,880,735.1191,890,739.1191" style="stroke:#181818;stroke-width:1.0;"/><line style="stroke:#181818;stroke-width:1.0;" x1="884" x2="1655.5" y1="735.1191" y2="735.1191"/><text fill="#000000" font-family="sans-serif" font-size="13" lengthAdjust="spacing" textLength="78" x="1228.75" y="730.377">return HTML</text><polygon fill="#181818" points="66.5,760.4297,56.5,764.4297,66.5,768.4297" style="stroke:#181818;stroke-width:1.0;"/><line style="stroke:#181818;stroke-width:1.0;" x1="60.5" x2="878" y1="764.4297" y2="764.4297"/><text fill="#000000" font-family="sans-serif" font-size="13" lengthAdjust="spacing" textLength="80" x="427.25" y="759.6875">render HTML</text><polygon fill="#181818" points="867,789.7402,877,793.7402,867,797.7402" style="stroke:#181818;stroke-width:1.0;"/><line style="stroke:#181818;stroke-width:1.0;" x1="55.5" x2="873" y1="793.7402" y2="793.7402"/><text fill="#000000" font-family="sans-serif" font-size="13" lengthAdjust="spacing" textLength="368" x="283.25" y="788.998">User selects completion date and clicks 'Complete service'</text><polygon fill="#181818" points="1644.5,819.0508,1654.5,823.0508,1644.5,827.0508" style="stroke:#181818;stroke-width:1.0;"/><line style="stroke:#181818;stroke-width:1.0;" x1="879" x2="1650.5" y1="823.0508" y2="823.0508"/><text fill="#000000" font-family="sans-serif" font-size="13" lengthAdjust="spacing" textLength="121" x="1207.25" y="818.3086">call page controller</text><polygon fill="#181818" points="3409.5,848.3613,3419.5,852.3613,3409.5,856.3613" style="stroke:#181818;stroke-width:1.0;"/><line style="stroke:#181818;stroke-width:1.0;" x1="1656.5" x2="3415.5" y1="852.3613" y2="852.3613"/><text fill="#000000" font-family="sans-serif" font-size="13" lengthAdjust="spacing" textLength="95" x="2491.5" y="847.6191">validate details</text><path d="M20,867.3613 L82,867.3613 L82,874.6719 L72,884.6719 L20,884.6719 L20,867.3613 " fill="#EEEEEE" style="stroke:#000000;stroke-width:1.5;"/><rect fill="none" height="163.8633" style="stroke:#000000;stroke-width:1.5;" width="3506.5" x="20" y="867.3613"/><text fill="#000000" font-family="sans-serif" font-size="13" font-weight="bold" lengthAdjust="spacing" textLength="17" x="35" y="880.9297">alt</text><text fill="#000000" font-family="sans-serif" font-size="11" font-weight="bold" lengthAdjust="spacing" textLength="80" x="97" y="879.9961">[Invalid input]</text><polygon fill="#181818" points="1667.5,901.9824,1657.5,905.9824,1667.5,909.9824" style="stroke:#181818;stroke-width:1.0;"/><line style="stroke:#181818;stroke-width:1.0;" x1="1661.5" x2="3420.5" y1="905.9824" y2="905.9824"/><text fill="#000000" font-family="sans-serif" font-size="13" lengthAdjust="spacing" textLength="79" x="2499.5" y="901.2402">Invalid input</text><polygon fill="#181818" points="2929,931.293,2939,935.293,2929,939.293" style="stroke:#181818;stroke-width:1.0;"/><line style="stroke:#181818;stroke-width:1.0;" x1="1656.5" x2="2935" y1="935.293" y2="935.293"/><text fill="#000000" font-family="sans-serif" font-size="13" lengthAdjust="spacing" textLength="169" x="2214.25" y="930.5508">request and build template</text><polygon fill="#181818" points="1667.5,960.6035,1657.5,964.6035,1667.5,968.6035" style="stroke:#181818;stroke-width:1.0;"/><line style="stroke:#181818;stroke-width:1.0;" x1="1661.5" x2="2940" y1="964.6035" y2="964.6035"/><text fill="#000000" font-family="sans-serif" font-size="13" lengthAdjust="spacing" textLength="78" x="2259.75" y="959.8613">return HTML</text><polygon fill="#181818" points="890,989.9141,880,993.9141,890,997.9141" style="stroke:#181818;stroke-width:1.0;"/><line style="stroke:#181818;stroke-width:1.0;" x1="884" x2="1655.5" y1="993.9141" y2="993.9141"/><text fill="#000000" font-family="sans-serif" font-size="13" lengthAdjust="spacing" textLength="112" x="1211.75" y="989.1719">return error HTML</text><polygon fill="#181818" points="66.5,1019.2246,56.5,1023.2246,66.5,1027.2246" style="stroke:#181818;stroke-width:1.0;"/><line style="stroke:#181818;stroke-width:1.0;" x1="60.5" x2="878" y1="1023.2246" y2="1023.2246"/><text fill="#000000" font-family="sans-serif" font-size="13" lengthAdjust="spacing" textLength="133" x="400.75" y="1018.4824">render error message</text><polygon fill="#181818" points="1667.5,1055.5352,1657.5,1059.5352,1667.5,1063.5352" style="stroke:#181818;stroke-width:1.0;"/><line style="stroke:#181818;stroke-width:1.0;" x1="1661.5" x2="3420.5" y1="1059.5352" y2="1059.5352"/><text fill="#000000" font-family="sans-serif" font-size="13" lengthAdjust="spacing" textLength="127" x="2475.5" y="1054.793">valid details entered</text><polygon fill="#181818" points="2088.5,1084.8457,2098.5,1088.8457,2088.5,1092.8457" style="stroke:#181818;stroke-width:1.0;"/><line style="stroke:#181818;stroke-width:1.0;" x1="1656.5" x2="2094.5" y1="1088.8457" y2="1088.8457"/><text fill="#000000" font-family="sans-serif" font-size="13" lengthAdjust="spacing" textLength="126" x="1815.5" y="1084.1035">build request object</text><polygon fill="#181818" points="3585,1114.1563,3595,1118.1563,3585,1122.1563" style="stroke:#181818;stroke-width:1.0;"/><line style="stroke:#181818;stroke-width:1.0;" x1="2100.5" x2="3591" y1="1118.1563" y2="1118.1563"/><text fill="#000000" font-family="sans-serif" font-size="13" lengthAdjust="spacing" textLength="138" x="2779.75" y="1113.4141">send backend request</text><path d="M20,1133.1563 L82,1133.1563 L82,1140.4668 L72,1150.4668 L20,1150.4668 L20,1133.1563 " fill="#EEEEEE" style="stroke:#000000;stroke-width:1.5;"/><rect fill="none" height="222.4844" style="stroke:#000000;stroke-width:1.5;" width="3657.5" x="20" y="1133.1563"/><text fill="#000000" font-family="sans-serif" font-size="13" font-weight="bold" lengthAdjust="spacing" textLength="17" x="35" y="1146.7246">alt</text><text fill="#000000" font-family="sans-serif" font-size="11" font-weight="bold" lengthAdjust="spacing" textLength="201" x="97" y="1145.791">[Failed to complete juror(s) service]</text><polygon fill="#181818" points="2111.5,1167.7773,2101.5,1171.7773,2111.5,1175.7773" style="stroke:#181818;stroke-width:1.0;"/><line style="stroke:#181818;stroke-width:1.0;stroke-dasharray:2.0,2.0;" x1="2105.5" x2="3596" y1="1171.7773" y2="1171.7773"/><text fill="#000000" font-family="sans-serif" font-size="13" lengthAdjust="spacing" textLength="91" x="2803.25" y="1167.0352">Error response</text><polygon fill="#181818" points="1667.5,1197.0879,1657.5,1201.0879,1667.5,1205.0879" style="stroke:#181818;stroke-width:1.0;"/><line style="stroke:#181818;stroke-width:1.0;stroke-dasharray:2.0,2.0;" x1="1661.5" x2="2099.5" y1="1201.0879" y2="1201.0879"/><text fill="#000000" font-family="sans-serif" font-size="13" lengthAdjust="spacing" textLength="127" x="1815" y="1196.3457">reject requestObject</text><polygon fill="#181818" points="1373.5,1226.3984,1363.5,1230.3984,1373.5,1234.3984" style="stroke:#181818;stroke-width:1.0;"/><line style="stroke:#181818;stroke-width:1.0;" x1="1367.5" x2="1655.5" y1="1230.3984" y2="1230.3984"/><text fill="#000000" font-family="sans-serif" font-size="13" lengthAdjust="spacing" textLength="228" x="1395.5" y="1225.6563">pass control to error page controller</text><polygon fill="#181818" points="2461.5,1255.709,2471.5,1259.709,2461.5,1263.709" style="stroke:#181818;stroke-width:1.0;"/><line style="stroke:#181818;stroke-width:1.0;" x1="1362.5" x2="2467.5" y1="1259.709" y2="1259.709"/><text fill="#000000" font-family="sans-serif" font-size="13" lengthAdjust="spacing" textLength="169" x="1833.5" y="1254.9668">request and build template</text><polygon fill="#181818" points="1373.5,1285.0195,1363.5,1289.0195,1373.5,1293.0195" style="stroke:#181818;stroke-width:1.0;"/><line style="stroke:#181818;stroke-width:1.0;" x1="1367.5" x2="2472.5" y1="1289.0195" y2="1289.0195"/><text fill="#000000" font-family="sans-serif" font-size="13" lengthAdjust="spacing" textLength="78" x="1879" y="1284.2773">return HTML</text><polygon fill="#181818" points="473.5,1314.3301,463.5,1318.3301,473.5,1322.3301" style="stroke:#181818;stroke-width:1.0;"/><line style="stroke:#181818;stroke-width:1.0;" x1="467.5" x2="1361.5" y1="1318.3301" y2="1318.3301"/><text fill="#000000" font-family="sans-serif" font-size="13" lengthAdjust="spacing" textLength="112" x="856.5" y="1313.5879">return error HTML</text><polygon fill="#181818" points="66.5,1343.6406,56.5,1347.6406,66.5,1351.6406" style="stroke:#181818;stroke-width:1.0;"/><line style="stroke:#181818;stroke-width:1.0;" x1="60.5" x2="461.5" y1="1347.6406" y2="1347.6406"/><text fill="#000000" font-family="sans-serif" font-size="13" lengthAdjust="spacing" textLength="133" x="192.5" y="1342.8984">render error message</text><polygon fill="#181818" points="2111.5,1379.9512,2101.5,1383.9512,2111.5,1387.9512" style="stroke:#181818;stroke-width:1.0;"/><line style="stroke:#181818;stroke-width:1.0;" x1="2105.5" x2="3596" y1="1383.9512" y2="1383.9512"/><text fill="#000000" font-family="sans-serif" font-size="13" lengthAdjust="spacing" textLength="77" x="2810.25" y="1379.209">ok response</text><polygon fill="#181818" points="1667.5,1409.2617,1657.5,1413.2617,1667.5,1417.2617" style="stroke:#181818;stroke-width:1.0;"/><line style="stroke:#181818;stroke-width:1.0;" x1="1661.5" x2="2099.5" y1="1413.2617" y2="1413.2617"/><text fill="#000000" font-family="sans-serif" font-size="13" lengthAdjust="spacing" textLength="96" x="1830.5" y="1408.5195">resolve request</text><polygon fill="#181818" points="1373.5,1438.5723,1363.5,1442.5723,1373.5,1446.5723" style="stroke:#181818;stroke-width:1.0;"/><line style="stroke:#181818;stroke-width:1.0;" x1="1367.5" x2="1655.5" y1="1442.5723" y2="1442.5723"/><text fill="#000000" font-family="sans-serif" font-size="13" lengthAdjust="spacing" textLength="156" x="1431.5" y="1437.8301">redirect to pool overview</text><polygon fill="#181818" points="473.5,1467.8828,463.5,1471.8828,473.5,1475.8828" style="stroke:#181818;stroke-width:1.0;"/><line style="stroke:#181818;stroke-width:1.0;" x1="467.5" x2="1361.5" y1="1471.8828" y2="1471.8828"/><text fill="#000000" font-family="sans-serif" font-size="13" lengthAdjust="spacing" textLength="156" x="834.5" y="1467.1406">redirect to pool overview</text><polygon fill="#181818" points="66.5,1497.1934,56.5,1501.1934,66.5,1505.1934" style="stroke:#181818;stroke-width:1.0;"/><line style="stroke:#181818;stroke-width:1.0;" x1="60.5" x2="461.5" y1="1501.1934" y2="1501.1934"/><text fill="#000000" font-family="sans-serif" font-size="13" lengthAdjust="spacing" textLength="297" x="110.5" y="1496.4512">render pool overview page with success banner</text><!--SRC=[bLRRRjf047ttLqmZ98B4vHr5aHnY8bA2APXKVQgMzIGOrhjqTvsqglhl7LyWs62Il21sTkRCpDap0wieH4YaYEG6G-TB9Bb8oFAC4dN4EqkX-CPqju99cyJ2SSmcabkcMGnp-qSW64jkwHKSNk6l12N71pI6FQChecSPexJ0wGEruv2RZNYq9LHmkLLaQZQRCFO7xXXc_Y8OJUvAJbEbXF-2-YN2rob1mjLLRqksJima7LFm_AmAfru_FKwIU8dw-hg4DL3nLg35UUh9iGxk0A37Yv2EoMF889yY7LUGxtBMFAsLti5YUY2_hC61Fmbc_dZipS2TtCBC-xRmvW7uD_VU89ZNTZnGqceb16f2BBNPvVkhxjgSRxI4KkteB51QomEcJ1X_kKPkYp8AswthTxVAsClM-GBsiRnip-APvQiC82Cgy1wcOpVmwZa9a32OnHqZjKBukqmqieIUBD7sNwTCdrnlpjTyaCQicCRmb1RAXauXZXFWcJ8E87zcwZ2zOjoAY8o1uMWSUBDvffD7TpowTGD_DZzNwYCJKSZsmtJZ3hvw5FockLBm3UCRbE6RA9myxDvVp2RU3nYE_UzEDflGkJwUlpuig5qmAEX93IY9G9wnqWZh9Eq9c0o1YuZM1pHtbK91KTCv0gmaEH1h7pWJ0hQf5pyebmcR5x7FiaA-0V9j0a-_BjLl1w1HaEjEHmEwkpoTfNqiydRvkTfmCMIHm12iWYSakKAg9OZp67YY_dcbpukMGnpdfKgrOoOdZTOjD3HTeyxo-7AeT7oslAhssqVlKkIhOP8uhjy9VMBOc1t3QPFLRahi5wNlIWbKclwo5hvTDrZjK_kuvRn9xzIwhgYlA3HI4i9qiCvBxnJWEyoS563Z9Hyu7CbjOZ_H-dvGFqjA8ws3T3mxKit7ax-lxVspPtAzDAszcZ-gmdRDABTgbNdLESi_xTr8fxyTL5usTBi5Vhn72AbsZzJ3v6ghn1PIouLU3iZ5y1hP5PY4S_gV0qicQSyu_m40]--></g></svg>