<?xml version="1.0" encoding="us-ascii" standalone="no"?><svg xmlns="http://www.w3.org/2000/svg" xmlns:xlink="http://www.w3.org/1999/xlink" contentStyleType="text/css" height="2556px" preserveAspectRatio="none" style="width:3706px;height:2556px;background:#FFFFFF;" version="1.1" viewBox="0 0 3706 2556" width="3706px" zoomAndPan="magnify"><defs/><g><rect fill="none" height="193.1738" style="stroke:#000000;stroke-width:1.5;" width="3680" x="20" y="187.2188"/><rect fill="none" height="105.2422" style="stroke:#000000;stroke-width:1.5;" width="1539" x="20" y="453.0137"/><rect fill="none" height="222.4844" style="stroke:#000000;stroke-width:1.5;" width="3505" x="20" y="630.877"/><rect fill="none" height="605.5215" style="stroke:#000000;stroke-width:1.5;" width="3374" x="10" y="1043.2246"/><rect fill="none" height="163.8633" style="stroke:#000000;stroke-width:1.5;" width="3354" x="20" y="1331.3301"/><rect fill="none" height="163.8633" style="stroke:#000000;stroke-width:1.5;" width="3206" x="20" y="1750.6777"/><rect fill="none" height="193.1738" style="stroke:#000000;stroke-width:1.5;" width="3505" x="20" y="2192.3359"/><line style="stroke:#181818;stroke-width:0.5;stroke-dasharray:5.0,5.0;" x1="55" x2="55" y1="52.9766" y2="2549.0625"/><line style="stroke:#181818;stroke-width:0.5;stroke-dasharray:5.0,5.0;" x1="376" x2="376" y1="52.9766" y2="2549.0625"/><line style="stroke:#181818;stroke-width:0.5;stroke-dasharray:5.0,5.0;" x1="530" x2="530" y1="52.9766" y2="2549.0625"/><line style="stroke:#181818;stroke-width:0.5;stroke-dasharray:5.0,5.0;" x1="696" x2="696" y1="52.9766" y2="2549.0625"/><line style="stroke:#181818;stroke-width:0.5;stroke-dasharray:5.0,5.0;" x1="854" x2="854" y1="52.9766" y2="2549.0625"/><line style="stroke:#181818;stroke-width:0.5;stroke-dasharray:5.0,5.0;" x1="999" x2="999" y1="52.9766" y2="2549.0625"/><line style="stroke:#181818;stroke-width:0.5;stroke-dasharray:5.0,5.0;" x1="1182" x2="1182" y1="52.9766" y2="2549.0625"/><line style="stroke:#181818;stroke-width:0.5;stroke-dasharray:5.0,5.0;" x1="1434" x2="1434" y1="52.9766" y2="2549.0625"/><line style="stroke:#181818;stroke-width:0.5;stroke-dasharray:5.0,5.0;" x1="1638" x2="1638" y1="52.9766" y2="2549.0625"/><line style="stroke:#181818;stroke-width:0.5;stroke-dasharray:5.0,5.0;" x1="1829" x2="1829" y1="52.9766" y2="2549.0625"/><line style="stroke:#181818;stroke-width:0.5;stroke-dasharray:5.0,5.0;" x1="2023" x2="2023" y1="52.9766" y2="2549.0625"/><line style="stroke:#181818;stroke-width:0.5;stroke-dasharray:5.0,5.0;" x1="2202" x2="2202" y1="52.9766" y2="2549.0625"/><line style="stroke:#181818;stroke-width:0.5;stroke-dasharray:5.0,5.0;" x1="2401" x2="2401" y1="52.9766" y2="2549.0625"/><line style="stroke:#181818;stroke-width:0.5;stroke-dasharray:5.0,5.0;" x1="2611" x2="2611" y1="52.9766" y2="2549.0625"/><line style="stroke:#181818;stroke-width:0.5;stroke-dasharray:5.0,5.0;" x1="2801" x2="2801" y1="52.9766" y2="2549.0625"/><line style="stroke:#181818;stroke-width:0.5;stroke-dasharray:5.0,5.0;" x1="2974" x2="2974" y1="52.9766" y2="2549.0625"/><line style="stroke:#181818;stroke-width:0.5;stroke-dasharray:5.0,5.0;" x1="3140" x2="3140" y1="52.9766" y2="2549.0625"/><line style="stroke:#181818;stroke-width:0.5;stroke-dasharray:5.0,5.0;" x1="3295" x2="3295" y1="52.9766" y2="2549.0625"/><line style="stroke:#181818;stroke-width:0.5;stroke-dasharray:5.0,5.0;" x1="3444" x2="3444" y1="52.9766" y2="2549.0625"/><line style="stroke:#181818;stroke-width:0.5;stroke-dasharray:5.0,5.0;" x1="3607" x2="3607" y1="52.9766" y2="2549.0625"/><rect fill="#E2E2F0" height="30.4883" rx="2.5" ry="2.5" style="stroke:#181818;stroke-width:0.5;" width="51" x="30" y="21.4883"/><text fill="#000000" font-family="sans-serif" font-size="14" lengthAdjust="spacing" textLength="37" x="37" y="42.0234">Actor</text><rect fill="#E2E2F0" height="46.9766" rx="2.5" ry="2.5" style="stroke:#181818;stroke-width:0.5;" width="139" x="307" y="5"/><text fill="#000000" font-family="sans-serif" font-size="14" font-style="italic" lengthAdjust="spacing" textLength="120" x="316.5" y="25.5352">&#171;/pool-overview&#187;</text><text fill="#000000" font-family="sans-serif" font-size="14" lengthAdjust="spacing" textLength="125" x="314" y="42.0234">PoolOverviewPage</text><rect fill="#E2E2F0" height="46.9766" rx="2.5" ry="2.5" style="stroke:#181818;stroke-width:0.5;" width="149" x="456" y="5"/><text fill="#000000" font-family="sans-serif" font-size="14" font-style="italic" lengthAdjust="spacing" textLength="72" x="494.5" y="25.5352">&#171;/convert&#187;</text><text fill="#000000" font-family="sans-serif" font-size="14" lengthAdjust="spacing" textLength="135" x="463" y="42.0234">ConvertNilPoolPage</text><rect fill="#E2E2F0" height="46.9766" rx="2.5" ry="2.5" style="stroke:#181818;stroke-width:0.5;" width="162" x="615" y="5"/><text fill="#000000" font-family="sans-serif" font-size="14" font-style="italic" lengthAdjust="spacing" textLength="140" x="626" y="25.5352">&#171;/change-deferrals&#187;</text><text fill="#000000" font-family="sans-serif" font-size="14" lengthAdjust="spacing" textLength="148" x="622" y="42.0234">ChangeDeferralsPage</text><rect fill="#E2E2F0" height="46.9766" rx="2.5" ry="2.5" style="stroke:#181818;stroke-width:0.5;" width="135" x="787" y="5"/><text fill="#000000" font-family="sans-serif" font-size="14" font-style="italic" lengthAdjust="spacing" textLength="113" x="798" y="25.5352">&#171;/check-details&#187;</text><text fill="#000000" font-family="sans-serif" font-size="14" lengthAdjust="spacing" textLength="121" x="794" y="42.0234">CheckDetailsPage</text><rect fill="#E2E2F0" height="46.9766" rx="2.5" ry="2.5" style="stroke:#181818;stroke-width:0.5;" width="134" x="932" y="5"/><text fill="#000000" font-family="sans-serif" font-size="14" font-style="italic" lengthAdjust="spacing" textLength="56" x="971" y="25.5352">&#171;/error&#187;</text><text fill="#000000" font-family="sans-serif" font-size="14" lengthAdjust="spacing" textLength="120" x="939" y="42.0234">GenericErrorPage</text><rect fill="#E2E2F0" height="46.9766" rx="2.5" ry="2.5" style="stroke:#181818;stroke-width:0.5;" width="213" x="1076" y="5"/><text fill="#000000" font-family="sans-serif" font-size="14" font-style="italic" lengthAdjust="spacing" textLength="199" x="1083" y="25.5352">&#171;pool-overview.controller.js&#187;</text><text fill="#000000" font-family="sans-serif" font-size="14" lengthAdjust="spacing" textLength="162" x="1101.5" y="42.0234">PoolOverviewController</text><rect fill="#E2E2F0" height="46.9766" rx="2.5" ry="2.5" style="stroke:#181818;stroke-width:0.5;" width="229" x="1320" y="5"/><text fill="#000000" font-family="sans-serif" font-size="14" font-style="italic" lengthAdjust="spacing" textLength="215" x="1327" y="25.5352">&#171;convert-nil-pool.controller.js&#187;</text><text fill="#000000" font-family="sans-serif" font-size="14" lengthAdjust="spacing" textLength="172" x="1348.5" y="42.0234">ConvertNilPoolController</text><rect fill="#E2E2F0" height="46.9766" rx="2.5" ry="2.5" style="stroke:#181818;stroke-width:0.5;" width="159" x="1559" y="5"/><text fill="#000000" font-family="sans-serif" font-size="14" font-style="italic" lengthAdjust="spacing" textLength="145" x="1566" y="25.5352">&#171;poolSummary.get()&#187;</text><text fill="#000000" font-family="sans-serif" font-size="14" lengthAdjust="spacing" textLength="138" x="1569.5" y="42.0234">PoolSummaryObject</text><rect fill="#E2E2F0" height="46.9766" rx="2.5" ry="2.5" style="stroke:#181818;stroke-width:0.5;" width="202" x="1728" y="5"/><text fill="#000000" font-family="sans-serif" font-size="14" font-style="italic" lengthAdjust="spacing" textLength="188" x="1735" y="25.5352">&#171;FetchCourtDeferrals.get()&#187;</text><text fill="#000000" font-family="sans-serif" font-size="14" lengthAdjust="spacing" textLength="182" x="1738" y="42.0234">FetchCourtDeferralsObject</text><rect fill="#E2E2F0" height="46.9766" rx="2.5" ry="2.5" style="stroke:#181818;stroke-width:0.5;" width="167" x="1940" y="5"/><text fill="#000000" font-family="sans-serif" font-size="14" font-style="italic" lengthAdjust="spacing" textLength="153" x="1947" y="25.5352">&#171;NilPoolConvert.put()&#187;</text><text fill="#000000" font-family="sans-serif" font-size="14" lengthAdjust="spacing" textLength="146" x="1950.5" y="42.0234">NilPoolConvertObject</text><rect fill="#E2E2F0" height="46.9766" rx="2.5" ry="2.5" style="stroke:#181818;stroke-width:0.5;" width="170" x="2117" y="5"/><text fill="#000000" font-family="sans-serif" font-size="14" font-style="italic" lengthAdjust="spacing" textLength="138" x="2133" y="25.5352">&#171;pool-overview.njk&#187;</text><text fill="#000000" font-family="sans-serif" font-size="14" lengthAdjust="spacing" textLength="156" x="2124" y="42.0234">PoolOverviewTemplate</text><rect fill="#E2E2F0" height="46.9766" rx="2.5" ry="2.5" style="stroke:#181818;stroke-width:0.5;" width="208" x="2297" y="5"/><text fill="#000000" font-family="sans-serif" font-size="14" font-style="italic" lengthAdjust="spacing" textLength="194" x="2304" y="25.5352">&#171;convert-nil-pool/form.njk&#187;</text><text fill="#000000" font-family="sans-serif" font-size="14" lengthAdjust="spacing" textLength="100" x="2351" y="42.0234">FormTemplate</text><rect fill="#E2E2F0" height="46.9766" rx="2.5" ry="2.5" style="stroke:#181818;stroke-width:0.5;" width="193" x="2515" y="5"/><text fill="#000000" font-family="sans-serif" font-size="14" font-style="italic" lengthAdjust="spacing" textLength="158" x="2532.5" y="25.5352">&#171;change-deferrals.njk&#187;</text><text fill="#000000" font-family="sans-serif" font-size="14" lengthAdjust="spacing" textLength="179" x="2522" y="42.0234">ChangeDeferralsTemplate</text><rect fill="#E2E2F0" height="46.9766" rx="2.5" ry="2.5" style="stroke:#181818;stroke-width:0.5;" width="166" x="2718" y="5"/><text fill="#000000" font-family="sans-serif" font-size="14" font-style="italic" lengthAdjust="spacing" textLength="131" x="2735.5" y="25.5352">&#171;check-details.njk&#187;</text><text fill="#000000" font-family="sans-serif" font-size="14" lengthAdjust="spacing" textLength="152" x="2725" y="42.0234">CheckDetailsTemplate</text><rect fill="#E2E2F0" height="46.9766" rx="2.5" ry="2.5" style="stroke:#181818;stroke-width:0.5;" width="160" x="2894" y="5"/><text fill="#000000" font-family="sans-serif" font-size="14" font-style="italic" lengthAdjust="spacing" textLength="146" x="2901" y="25.5352">&#171;_errors/generic.njk&#187;</text><text fill="#000000" font-family="sans-serif" font-size="14" lengthAdjust="spacing" textLength="99" x="2924.5" y="42.0234">ErrorTemplate</text><rect fill="#E2E2F0" height="30.4883" rx="2.5" ry="2.5" style="stroke:#181818;stroke-width:0.5;" width="152" x="3064" y="21.4883"/><text fill="#000000" font-family="sans-serif" font-size="14" lengthAdjust="spacing" textLength="138" x="3071" y="42.0234">PoolDetailsValidator</text><rect fill="#E2E2F0" height="30.4883" rx="2.5" ry="2.5" style="stroke:#181818;stroke-width:0.5;" width="138" x="3226" y="21.4883"/><text fill="#000000" font-family="sans-serif" font-size="14" lengthAdjust="spacing" textLength="124" x="3233" y="42.0234">DeferralsValidator</text><rect fill="#E2E2F0" height="30.4883" rx="2.5" ry="2.5" style="stroke:#181818;stroke-width:0.5;" width="141" x="3374" y="21.4883"/><text fill="#000000" font-family="sans-serif" font-size="14" lengthAdjust="spacing" textLength="127" x="3381" y="42.0234">BackendController</text><rect fill="#E2E2F0" height="30.4883" rx="2.5" ry="2.5" style="stroke:#181818;stroke-width:0.5;" width="165" x="3525" y="21.4883"/><text fill="#000000" font-family="sans-serif" font-size="14" lengthAdjust="spacing" textLength="151" x="3532" y="42.0234">GenericErrorTemplate</text><polygon fill="#181818" points="364.5,80.2871,374.5,84.2871,364.5,88.2871" style="stroke:#181818;stroke-width:1.0;"/><line style="stroke:#181818;stroke-width:1.0;" x1="55.5" x2="370.5" y1="84.2871" y2="84.2871"/><text fill="#000000" font-family="sans-serif" font-size="13" lengthAdjust="spacing" textLength="99" x="166.5" y="79.5449">convert nil pool</text><polygon fill="#181818" points="1422.5,109.5977,1432.5,113.5977,1422.5,117.5977" style="stroke:#181818;stroke-width:1.0;"/><line style="stroke:#181818;stroke-width:1.0;" x1="376.5" x2="1428.5" y1="113.5977" y2="113.5977"/><text fill="#000000" font-family="sans-serif" font-size="13" lengthAdjust="spacing" textLength="121" x="845" y="108.8555">call page controller</text><polygon fill="#181818" points="1626.5,138.9082,1636.5,142.9082,1626.5,146.9082" style="stroke:#181818;stroke-width:1.0;"/><line style="stroke:#181818;stroke-width:1.0;" x1="1434.5" x2="1632.5" y1="142.9082" y2="142.9082"/><text fill="#000000" font-family="sans-serif" font-size="13" lengthAdjust="spacing" textLength="126" x="1473.5" y="138.166">build request object</text><polygon fill="#181818" points="3432.5,168.2188,3442.5,172.2188,3432.5,176.2188" style="stroke:#181818;stroke-width:1.0;"/><line style="stroke:#181818;stroke-width:1.0;" x1="1638.5" x2="3438.5" y1="172.2188" y2="172.2188"/><text fill="#000000" font-family="sans-serif" font-size="13" lengthAdjust="spacing" textLength="138" x="2472.5" y="167.4766">send backend request</text><path d="M20,187.2188 L82,187.2188 L82,194.5293 L72,204.5293 L20,204.5293 L20,187.2188 " fill="#EEEEEE" style="stroke:#000000;stroke-width:1.5;"/><rect fill="none" height="193.1738" style="stroke:#000000;stroke-width:1.5;" width="3680" x="20" y="187.2188"/><text fill="#000000" font-family="sans-serif" font-size="13" font-weight="bold" lengthAdjust="spacing" textLength="17" x="35" y="200.7871">alt</text><text fill="#000000" font-family="sans-serif" font-size="11" font-weight="bold" lengthAdjust="spacing" textLength="334" x="97" y="199.8535">[Failed to fetch the pool details when converting a nil pool]</text><polygon fill="#181818" points="1649.5,221.8398,1639.5,225.8398,1649.5,229.8398" style="stroke:#181818;stroke-width:1.0;"/><line style="stroke:#181818;stroke-width:1.0;stroke-dasharray:2.0,2.0;" x1="1643.5" x2="3443.5" y1="225.8398" y2="225.8398"/><text fill="#000000" font-family="sans-serif" font-size="13" lengthAdjust="spacing" textLength="91" x="2496" y="221.0977">Error response</text><polygon fill="#181818" points="1445.5,251.1504,1435.5,255.1504,1445.5,259.1504" style="stroke:#181818;stroke-width:1.0;"/><line style="stroke:#181818;stroke-width:1.0;stroke-dasharray:2.0,2.0;" x1="1439.5" x2="1637.5" y1="255.1504" y2="255.1504"/><text fill="#000000" font-family="sans-serif" font-size="13" lengthAdjust="spacing" textLength="127" x="1473" y="250.4082">reject requestObject</text><polygon fill="#181818" points="3595.5,280.4609,3605.5,284.4609,3595.5,288.4609" style="stroke:#181818;stroke-width:1.0;"/><line style="stroke:#181818;stroke-width:1.0;" x1="1434.5" x2="3601.5" y1="284.4609" y2="284.4609"/><text fill="#000000" font-family="sans-serif" font-size="13" lengthAdjust="spacing" textLength="169" x="2436.5" y="279.7188">request and build template</text><polygon fill="#181818" points="1445.5,309.7715,1435.5,313.7715,1445.5,317.7715" style="stroke:#181818;stroke-width:1.0;"/><line style="stroke:#181818;stroke-width:1.0;" x1="1439.5" x2="3606.5" y1="313.7715" y2="313.7715"/><text fill="#000000" font-family="sans-serif" font-size="13" lengthAdjust="spacing" textLength="78" x="2482" y="309.0293">return HTML</text><polygon fill="#181818" points="1010,339.082,1000,343.082,1010,347.082" style="stroke:#181818;stroke-width:1.0;"/><line style="stroke:#181818;stroke-width:1.0;" x1="1004" x2="1433.5" y1="343.082" y2="343.082"/><text fill="#000000" font-family="sans-serif" font-size="13" lengthAdjust="spacing" textLength="78" x="1177.75" y="338.3398">return HTML</text><polygon fill="#181818" points="66.5,368.3926,56.5,372.3926,66.5,376.3926" style="stroke:#181818;stroke-width:1.0;"/><line style="stroke:#181818;stroke-width:1.0;" x1="60.5" x2="998" y1="372.3926" y2="372.3926"/><text fill="#000000" font-family="sans-serif" font-size="13" lengthAdjust="spacing" textLength="108" x="473.25" y="367.6504">render error page</text><polygon fill="#181818" points="1649.5,404.7031,1639.5,408.7031,1649.5,412.7031" style="stroke:#181818;stroke-width:1.0;"/><line style="stroke:#181818;stroke-width:1.0;" x1="1643.5" x2="3443.5" y1="408.7031" y2="408.7031"/><text fill="#000000" font-family="sans-serif" font-size="13" lengthAdjust="spacing" textLength="77" x="2503" y="403.9609">ok response</text><polygon fill="#181818" points="1445.5,434.0137,1435.5,438.0137,1445.5,442.0137" style="stroke:#181818;stroke-width:1.0;"/><line style="stroke:#181818;stroke-width:1.0;" x1="1439.5" x2="1637.5" y1="438.0137" y2="438.0137"/><text fill="#000000" font-family="sans-serif" font-size="13" lengthAdjust="spacing" textLength="96" x="1488.5" y="433.2715">resolve request</text><path d="M20,453.0137 L82,453.0137 L82,460.3242 L72,470.3242 L20,470.3242 L20,453.0137 " fill="#EEEEEE" style="stroke:#000000;stroke-width:1.5;"/><rect fill="none" height="105.2422" style="stroke:#000000;stroke-width:1.5;" width="1539" x="20" y="453.0137"/><text fill="#000000" font-family="sans-serif" font-size="13" font-weight="bold" lengthAdjust="spacing" textLength="17" x="35" y="466.582">alt</text><text fill="#000000" font-family="sans-serif" font-size="11" font-weight="bold" lengthAdjust="spacing" textLength="127" x="97" y="465.6484">[Pool is not a nil pool]</text><polygon fill="#181818" points="1193.5,487.6348,1183.5,491.6348,1193.5,495.6348" style="stroke:#181818;stroke-width:1.0;"/><line style="stroke:#181818;stroke-width:1.0;" x1="1187.5" x2="1433.5" y1="491.6348" y2="491.6348"/><text fill="#000000" font-family="sans-serif" font-size="13" lengthAdjust="spacing" textLength="156" x="1230.5" y="486.8926">redirect to pool overview</text><polygon fill="#181818" points="387.5,516.9453,377.5,520.9453,387.5,524.9453" style="stroke:#181818;stroke-width:1.0;"/><line style="stroke:#181818;stroke-width:1.0;" x1="381.5" x2="1181.5" y1="520.9453" y2="520.9453"/><text fill="#000000" font-family="sans-serif" font-size="13" lengthAdjust="spacing" textLength="156" x="701.5" y="516.2031">redirect to pool overview</text><polygon fill="#181818" points="66.5,546.2559,56.5,550.2559,66.5,554.2559" style="stroke:#181818;stroke-width:1.0;"/><line style="stroke:#181818;stroke-width:1.0;" x1="60.5" x2="375.5" y1="550.2559" y2="550.2559"/><text fill="#000000" font-family="sans-serif" font-size="13" lengthAdjust="spacing" textLength="277" x="77.5" y="545.5137">render pool overview page with error banner</text><polygon fill="#181818" points="1817,582.5664,1827,586.5664,1817,590.5664" style="stroke:#181818;stroke-width:1.0;"/><line style="stroke:#181818;stroke-width:1.0;" x1="1434.5" x2="1823" y1="586.5664" y2="586.5664"/><text fill="#000000" font-family="sans-serif" font-size="13" lengthAdjust="spacing" textLength="126" x="1568.75" y="581.8242">build request object</text><polygon fill="#181818" points="3432.5,611.877,3442.5,615.877,3432.5,619.877" style="stroke:#181818;stroke-width:1.0;"/><line style="stroke:#181818;stroke-width:1.0;" x1="1829" x2="3438.5" y1="615.877" y2="615.877"/><text fill="#000000" font-family="sans-serif" font-size="13" lengthAdjust="spacing" textLength="138" x="2567.75" y="611.1348">send backend request</text><path d="M20,630.877 L82,630.877 L82,638.1875 L72,648.1875 L20,648.1875 L20,630.877 " fill="#EEEEEE" style="stroke:#000000;stroke-width:1.5;"/><rect fill="none" height="222.4844" style="stroke:#000000;stroke-width:1.5;" width="3505" x="20" y="630.877"/><text fill="#000000" font-family="sans-serif" font-size="13" font-weight="bold" lengthAdjust="spacing" textLength="17" x="35" y="644.4453">alt</text><text fill="#000000" font-family="sans-serif" font-size="11" font-weight="bold" lengthAdjust="spacing" textLength="330" x="97" y="643.5117">[Failed to fetch court deferrals when converting a nil pool]</text><polygon fill="#181818" points="1840,665.498,1830,669.498,1840,673.498" style="stroke:#181818;stroke-width:1.0;"/><line style="stroke:#181818;stroke-width:1.0;stroke-dasharray:2.0,2.0;" x1="1834" x2="3443.5" y1="669.498" y2="669.498"/><text fill="#000000" font-family="sans-serif" font-size="13" lengthAdjust="spacing" textLength="91" x="2591.25" y="664.7559">Error response</text><polygon fill="#181818" points="1445.5,694.8086,1435.5,698.8086,1445.5,702.8086" style="stroke:#181818;stroke-width:1.0;"/><line style="stroke:#181818;stroke-width:1.0;stroke-dasharray:2.0,2.0;" x1="1439.5" x2="1828" y1="698.8086" y2="698.8086"/><text fill="#000000" font-family="sans-serif" font-size="13" lengthAdjust="spacing" textLength="127" x="1568.25" y="694.0664">reject requestObject</text><polygon fill="#181818" points="1193.5,724.1191,1183.5,728.1191,1193.5,732.1191" style="stroke:#181818;stroke-width:1.0;"/><line style="stroke:#181818;stroke-width:1.0;" x1="1187.5" x2="1433.5" y1="728.1191" y2="728.1191"/><text fill="#000000" font-family="sans-serif" font-size="13" lengthAdjust="spacing" textLength="228" x="1194.5" y="723.377">pass control to error page controller</text><polygon fill="#181818" points="2190,753.4297,2200,757.4297,2190,761.4297" style="stroke:#181818;stroke-width:1.0;"/><line style="stroke:#181818;stroke-width:1.0;" x1="1182.5" x2="2196" y1="757.4297" y2="757.4297"/><text fill="#000000" font-family="sans-serif" font-size="13" lengthAdjust="spacing" textLength="169" x="1607.75" y="752.6875">request and build template</text><polygon fill="#181818" points="1193.5,782.7402,1183.5,786.7402,1193.5,790.7402" style="stroke:#181818;stroke-width:1.0;"/><line style="stroke:#181818;stroke-width:1.0;" x1="1187.5" x2="2201" y1="786.7402" y2="786.7402"/><text fill="#000000" font-family="sans-serif" font-size="13" lengthAdjust="spacing" textLength="78" x="1653.25" y="781.998">return HTML</text><polygon fill="#181818" points="387.5,812.0508,377.5,816.0508,387.5,820.0508" style="stroke:#181818;stroke-width:1.0;"/><line style="stroke:#181818;stroke-width:1.0;" x1="381.5" x2="1181.5" y1="816.0508" y2="816.0508"/><text fill="#000000" font-family="sans-serif" font-size="13" lengthAdjust="spacing" textLength="112" x="723.5" y="811.3086">return error HTML</text><polygon fill="#181818" points="66.5,841.3613,56.5,845.3613,66.5,849.3613" style="stroke:#181818;stroke-width:1.0;"/><line style="stroke:#181818;stroke-width:1.0;" x1="60.5" x2="375.5" y1="845.3613" y2="845.3613"/><text fill="#000000" font-family="sans-serif" font-size="13" lengthAdjust="spacing" textLength="133" x="149.5" y="840.6191">render error message</text><polygon fill="#181818" points="1840,877.6719,1830,881.6719,1840,885.6719" style="stroke:#181818;stroke-width:1.0;"/><line style="stroke:#181818;stroke-width:1.0;" x1="1834" x2="3443.5" y1="881.6719" y2="881.6719"/><text fill="#000000" font-family="sans-serif" font-size="13" lengthAdjust="spacing" textLength="77" x="2598.25" y="876.9297">ok response</text><polygon fill="#181818" points="1445.5,906.9824,1435.5,910.9824,1445.5,914.9824" style="stroke:#181818;stroke-width:1.0;"/><line style="stroke:#181818;stroke-width:1.0;" x1="1439.5" x2="1828" y1="910.9824" y2="910.9824"/><text fill="#000000" font-family="sans-serif" font-size="13" lengthAdjust="spacing" textLength="96" x="1583.75" y="906.2402">resolve request</text><polygon fill="#181818" points="2389,936.293,2399,940.293,2389,944.293" style="stroke:#181818;stroke-width:1.0;"/><line style="stroke:#181818;stroke-width:1.0;" x1="1434.5" x2="2395" y1="940.293" y2="940.293"/><text fill="#000000" font-family="sans-serif" font-size="13" lengthAdjust="spacing" textLength="169" x="1833.25" y="935.5508">request and build template</text><polygon fill="#181818" points="1445.5,965.6035,1435.5,969.6035,1445.5,973.6035" style="stroke:#181818;stroke-width:1.0;"/><line style="stroke:#181818;stroke-width:1.0;" x1="1439.5" x2="2400" y1="969.6035" y2="969.6035"/><text fill="#000000" font-family="sans-serif" font-size="13" lengthAdjust="spacing" textLength="78" x="1878.75" y="964.8613">return HTML</text><polygon fill="#181818" points="541.5,994.9141,531.5,998.9141,541.5,1002.9141" style="stroke:#181818;stroke-width:1.0;"/><line style="stroke:#181818;stroke-width:1.0;" x1="535.5" x2="1433.5" y1="998.9141" y2="998.9141"/><text fill="#000000" font-family="sans-serif" font-size="13" lengthAdjust="spacing" textLength="78" x="943.5" y="994.1719">return HTML</text><polygon fill="#181818" points="66.5,1024.2246,56.5,1028.2246,66.5,1032.2246" style="stroke:#181818;stroke-width:1.0;"/><line style="stroke:#181818;stroke-width:1.0;" x1="60.5" x2="529.5" y1="1028.2246" y2="1028.2246"/><text fill="#000000" font-family="sans-serif" font-size="13" lengthAdjust="spacing" textLength="80" x="253" y="1023.4824">render HTML</text><path d="M10,1043.2246 L72,1043.2246 L72,1050.5352 L62,1060.5352 L10,1060.5352 L10,1043.2246 " fill="#EEEEEE" style="stroke:#000000;stroke-width:1.5;"/><rect fill="none" height="605.5215" style="stroke:#000000;stroke-width:1.5;" width="3374" x="10" y="1043.2246"/><text fill="#000000" font-family="sans-serif" font-size="13" font-weight="bold" lengthAdjust="spacing" textLength="17" x="25" y="1056.793">alt</text><text fill="#000000" font-family="sans-serif" font-size="11" font-weight="bold" lengthAdjust="spacing" textLength="134" x="87" y="1055.8594">[change court deferrals]</text><polygon fill="#181818" points="518.5,1077.8457,528.5,1081.8457,518.5,1085.8457" style="stroke:#181818;stroke-width:1.0;"/><line style="stroke:#181818;stroke-width:1.0;" x1="55.5" x2="524.5" y1="1081.8457" y2="1081.8457"/><text fill="#000000" font-family="sans-serif" font-size="13" lengthAdjust="spacing" textLength="141" x="222.5" y="1077.1035">change court deferrals</text><polygon fill="#181818" points="1422.5,1107.1563,1432.5,1111.1563,1422.5,1115.1563" style="stroke:#181818;stroke-width:1.0;"/><line style="stroke:#181818;stroke-width:1.0;" x1="530.5" x2="1428.5" y1="1111.1563" y2="1111.1563"/><text fill="#000000" font-family="sans-serif" font-size="13" lengthAdjust="spacing" textLength="121" x="922" y="1106.4141">call page controller</text><polygon fill="#181818" points="2599.5,1136.4668,2609.5,1140.4668,2599.5,1144.4668" style="stroke:#181818;stroke-width:1.0;"/><line style="stroke:#181818;stroke-width:1.0;" x1="1434.5" x2="2605.5" y1="1140.4668" y2="1140.4668"/><text fill="#000000" font-family="sans-serif" font-size="13" lengthAdjust="spacing" textLength="169" x="1938.5" y="1135.7246">request and build template</text><polygon fill="#181818" points="1445.5,1165.7773,1435.5,1169.7773,1445.5,1173.7773" style="stroke:#181818;stroke-width:1.0;"/><line style="stroke:#181818;stroke-width:1.0;" x1="1439.5" x2="2610.5" y1="1169.7773" y2="1169.7773"/><text fill="#000000" font-family="sans-serif" font-size="13" lengthAdjust="spacing" textLength="78" x="1984" y="1165.0352">return HTML</text><polygon fill="#181818" points="707,1195.0879,697,1199.0879,707,1203.0879" style="stroke:#181818;stroke-width:1.0;"/><line style="stroke:#181818;stroke-width:1.0;" x1="701" x2="1433.5" y1="1199.0879" y2="1199.0879"/><text fill="#000000" font-family="sans-serif" font-size="13" lengthAdjust="spacing" textLength="78" x="1026.25" y="1194.3457">return HTML</text><polygon fill="#181818" points="66.5,1224.3984,56.5,1228.3984,66.5,1232.3984" style="stroke:#181818;stroke-width:1.0;"/><line style="stroke:#181818;stroke-width:1.0;" x1="60.5" x2="695" y1="1228.3984" y2="1228.3984"/><text fill="#000000" font-family="sans-serif" font-size="13" lengthAdjust="spacing" textLength="80" x="335.75" y="1223.6563">render HTML</text><polygon fill="#181818" points="684,1253.709,694,1257.709,684,1261.709" style="stroke:#181818;stroke-width:1.0;"/><line style="stroke:#181818;stroke-width:1.0;" x1="55.5" x2="690" y1="1257.709" y2="1257.709"/><text fill="#000000" font-family="sans-serif" font-size="13" lengthAdjust="spacing" textLength="165" x="293.25" y="1252.9668">enter no of court deferrals</text><polygon fill="#181818" points="1422.5,1283.0195,1432.5,1287.0195,1422.5,1291.0195" style="stroke:#181818;stroke-width:1.0;"/><line style="stroke:#181818;stroke-width:1.0;" x1="696" x2="1428.5" y1="1287.0195" y2="1287.0195"/><text fill="#000000" font-family="sans-serif" font-size="13" lengthAdjust="spacing" textLength="121" x="1004.75" y="1282.2773">call page controller</text><polygon fill="#181818" points="3283,1312.3301,3293,1316.3301,3283,1320.3301" style="stroke:#181818;stroke-width:1.0;"/><line style="stroke:#181818;stroke-width:1.0;" x1="1434.5" x2="3289" y1="1316.3301" y2="1316.3301"/><text fill="#000000" font-family="sans-serif" font-size="13" lengthAdjust="spacing" textLength="95" x="2317.25" y="1311.5879">validate details</text><path d="M20,1331.3301 L82,1331.3301 L82,1338.6406 L72,1348.6406 L20,1348.6406 L20,1331.3301 " fill="#EEEEEE" style="stroke:#000000;stroke-width:1.5;"/><rect fill="none" height="163.8633" style="stroke:#000000;stroke-width:1.5;" width="3354" x="20" y="1331.3301"/><text fill="#000000" font-family="sans-serif" font-size="13" font-weight="bold" lengthAdjust="spacing" textLength="17" x="35" y="1344.8984">alt</text><text fill="#000000" font-family="sans-serif" font-size="11" font-weight="bold" lengthAdjust="spacing" textLength="80" x="97" y="1343.9648">[Invalid input]</text><polygon fill="#181818" points="1445.5,1365.9512,1435.5,1369.9512,1445.5,1373.9512" style="stroke:#181818;stroke-width:1.0;"/><line style="stroke:#181818;stroke-width:1.0;" x1="1439.5" x2="3294" y1="1369.9512" y2="1369.9512"/><text fill="#000000" font-family="sans-serif" font-size="13" lengthAdjust="spacing" textLength="79" x="2325.25" y="1365.209">Invalid input</text><polygon fill="#181818" points="2599.5,1395.2617,2609.5,1399.2617,2599.5,1403.2617" style="stroke:#181818;stroke-width:1.0;"/><line style="stroke:#181818;stroke-width:1.0;" x1="1434.5" x2="2605.5" y1="1399.2617" y2="1399.2617"/><text fill="#000000" font-family="sans-serif" font-size="13" lengthAdjust="spacing" textLength="169" x="1938.5" y="1394.5195">request and build template</text><polygon fill="#181818" points="1445.5,1424.5723,1435.5,1428.5723,1445.5,1432.5723" style="stroke:#181818;stroke-width:1.0;"/><line style="stroke:#181818;stroke-width:1.0;" x1="1439.5" x2="2610.5" y1="1428.5723" y2="1428.5723"/><text fill="#000000" font-family="sans-serif" font-size="13" lengthAdjust="spacing" textLength="78" x="1984" y="1423.8301">return HTML</text><polygon fill="#181818" points="707,1453.8828,697,1457.8828,707,1461.8828" style="stroke:#181818;stroke-width:1.0;"/><line style="stroke:#181818;stroke-width:1.0;" x1="701" x2="1433.5" y1="1457.8828" y2="1457.8828"/><text fill="#000000" font-family="sans-serif" font-size="13" lengthAdjust="spacing" textLength="112" x="1009.25" y="1453.1406">return error HTML</text><polygon fill="#181818" points="66.5,1483.1934,56.5,1487.1934,66.5,1491.1934" style="stroke:#181818;stroke-width:1.0;"/><line style="stroke:#181818;stroke-width:1.0;" x1="60.5" x2="695" y1="1487.1934" y2="1487.1934"/><text fill="#000000" font-family="sans-serif" font-size="13" lengthAdjust="spacing" textLength="133" x="309.25" y="1482.4512">render error message</text><polygon fill="#181818" points="1445.5,1519.5039,1435.5,1523.5039,1445.5,1527.5039" style="stroke:#181818;stroke-width:1.0;"/><line style="stroke:#181818;stroke-width:1.0;" x1="1439.5" x2="3294" y1="1523.5039" y2="1523.5039"/><text fill="#000000" font-family="sans-serif" font-size="13" lengthAdjust="spacing" textLength="127" x="2301.25" y="1518.7617">valid details entered</text><polygon fill="#181818" points="2389,1548.8145,2399,1552.8145,2389,1556.8145" style="stroke:#181818;stroke-width:1.0;"/><line style="stroke:#181818;stroke-width:1.0;" x1="1434.5" x2="2395" y1="1552.8145" y2="1552.8145"/><text fill="#000000" font-family="sans-serif" font-size="13" lengthAdjust="spacing" textLength="169" x="1833.25" y="1548.0723">request and build template</text><polygon fill="#181818" points="1445.5,1578.125,1435.5,1582.125,1445.5,1586.125" style="stroke:#181818;stroke-width:1.0;"/><line style="stroke:#181818;stroke-width:1.0;" x1="1439.5" x2="2400" y1="1582.125" y2="1582.125"/><text fill="#000000" font-family="sans-serif" font-size="13" lengthAdjust="spacing" textLength="78" x="1878.75" y="1577.3828">return HTML</text><polygon fill="#181818" points="541.5,1607.4355,531.5,1611.4355,541.5,1615.4355" style="stroke:#181818;stroke-width:1.0;"/><line style="stroke:#181818;stroke-width:1.0;" x1="535.5" x2="1433.5" y1="1611.4355" y2="1611.4355"/><text fill="#000000" font-family="sans-serif" font-size="13" lengthAdjust="spacing" textLength="78" x="943.5" y="1606.6934">return HTML</text><polygon fill="#181818" points="66.5,1636.7461,56.5,1640.7461,66.5,1644.7461" style="stroke:#181818;stroke-width:1.0;"/><line style="stroke:#181818;stroke-width:1.0;" x1="60.5" x2="529.5" y1="1640.7461" y2="1640.7461"/><text fill="#000000" font-family="sans-serif" font-size="13" lengthAdjust="spacing" textLength="80" x="253" y="1636.0039">render HTML</text><polygon fill="#181818" points="518.5,1673.0566,528.5,1677.0566,518.5,1681.0566" style="stroke:#181818;stroke-width:1.0;"/><line style="stroke:#181818;stroke-width:1.0;" x1="55.5" x2="524.5" y1="1677.0566" y2="1677.0566"/><text fill="#000000" font-family="sans-serif" font-size="13" lengthAdjust="spacing" textLength="187" x="199.5" y="1672.3145">enter details and submit form</text><polygon fill="#181818" points="1422.5,1702.3672,1432.5,1706.3672,1422.5,1710.3672" style="stroke:#181818;stroke-width:1.0;"/><line style="stroke:#181818;stroke-width:1.0;" x1="530.5" x2="1428.5" y1="1706.3672" y2="1706.3672"/><text fill="#000000" font-family="sans-serif" font-size="13" lengthAdjust="spacing" textLength="121" x="922" y="1701.625">call page controller</text><polygon fill="#181818" points="3128,1731.6777,3138,1735.6777,3128,1739.6777" style="stroke:#181818;stroke-width:1.0;"/><line style="stroke:#181818;stroke-width:1.0;" x1="1434.5" x2="3134" y1="1735.6777" y2="1735.6777"/><text fill="#000000" font-family="sans-serif" font-size="13" lengthAdjust="spacing" textLength="95" x="2239.75" y="1730.9355">validate details</text><path d="M20,1750.6777 L82,1750.6777 L82,1757.9883 L72,1767.9883 L20,1767.9883 L20,1750.6777 " fill="#EEEEEE" style="stroke:#000000;stroke-width:1.5;"/><rect fill="none" height="163.8633" style="stroke:#000000;stroke-width:1.5;" width="3206" x="20" y="1750.6777"/><text fill="#000000" font-family="sans-serif" font-size="13" font-weight="bold" lengthAdjust="spacing" textLength="17" x="35" y="1764.2461">alt</text><text fill="#000000" font-family="sans-serif" font-size="11" font-weight="bold" lengthAdjust="spacing" textLength="80" x="97" y="1763.3125">[Invalid input]</text><polygon fill="#181818" points="1445.5,1785.2988,1435.5,1789.2988,1445.5,1793.2988" style="stroke:#181818;stroke-width:1.0;"/><line style="stroke:#181818;stroke-width:1.0;" x1="1439.5" x2="3139" y1="1789.2988" y2="1789.2988"/><text fill="#000000" font-family="sans-serif" font-size="13" lengthAdjust="spacing" textLength="79" x="2247.75" y="1784.5566">Invalid input</text><polygon fill="#181818" points="2389,1814.6094,2399,1818.6094,2389,1822.6094" style="stroke:#181818;stroke-width:1.0;"/><line style="stroke:#181818;stroke-width:1.0;" x1="1434.5" x2="2395" y1="1818.6094" y2="1818.6094"/><text fill="#000000" font-family="sans-serif" font-size="13" lengthAdjust="spacing" textLength="169" x="1833.25" y="1813.8672">request and build template</text><polygon fill="#181818" points="1445.5,1843.9199,1435.5,1847.9199,1445.5,1851.9199" style="stroke:#181818;stroke-width:1.0;"/><line style="stroke:#181818;stroke-width:1.0;" x1="1439.5" x2="2400" y1="1847.9199" y2="1847.9199"/><text fill="#000000" font-family="sans-serif" font-size="13" lengthAdjust="spacing" textLength="78" x="1878.75" y="1843.1777">return HTML</text><polygon fill="#181818" points="541.5,1873.2305,531.5,1877.2305,541.5,1881.2305" style="stroke:#181818;stroke-width:1.0;"/><line style="stroke:#181818;stroke-width:1.0;" x1="535.5" x2="1433.5" y1="1877.2305" y2="1877.2305"/><text fill="#000000" font-family="sans-serif" font-size="13" lengthAdjust="spacing" textLength="112" x="926.5" y="1872.4883">return error HTML</text><polygon fill="#181818" points="66.5,1902.541,56.5,1906.541,66.5,1910.541" style="stroke:#181818;stroke-width:1.0;"/><line style="stroke:#181818;stroke-width:1.0;" x1="60.5" x2="529.5" y1="1906.541" y2="1906.541"/><text fill="#000000" font-family="sans-serif" font-size="13" lengthAdjust="spacing" textLength="133" x="226.5" y="1901.7988">render error message</text><polygon fill="#181818" points="1445.5,1938.8516,1435.5,1942.8516,1445.5,1946.8516" style="stroke:#181818;stroke-width:1.0;"/><line style="stroke:#181818;stroke-width:1.0;" x1="1439.5" x2="3139" y1="1942.8516" y2="1942.8516"/><text fill="#000000" font-family="sans-serif" font-size="13" lengthAdjust="spacing" textLength="127" x="2223.75" y="1938.1094">valid details entered</text><polygon fill="#181818" points="2789,1968.1621,2799,1972.1621,2789,1976.1621" style="stroke:#181818;stroke-width:1.0;"/><line style="stroke:#181818;stroke-width:1.0;" x1="1434.5" x2="2795" y1="1972.1621" y2="1972.1621"/><text fill="#000000" font-family="sans-serif" font-size="13" lengthAdjust="spacing" textLength="169" x="2033.25" y="1967.4199">request and build template</text><polygon fill="#181818" points="1445.5,1997.4727,1435.5,2001.4727,1445.5,2005.4727" style="stroke:#181818;stroke-width:1.0;"/><line style="stroke:#181818;stroke-width:1.0;" x1="1439.5" x2="2800" y1="2001.4727" y2="2001.4727"/><text fill="#000000" font-family="sans-serif" font-size="13" lengthAdjust="spacing" textLength="78" x="2078.75" y="1996.7305">return HTML</text><polygon fill="#181818" points="865.5,2026.7832,855.5,2030.7832,865.5,2034.7832" style="stroke:#181818;stroke-width:1.0;"/><line style="stroke:#181818;stroke-width:1.0;" x1="859.5" x2="1433.5" y1="2030.7832" y2="2030.7832"/><text fill="#000000" font-family="sans-serif" font-size="13" lengthAdjust="spacing" textLength="78" x="1105.5" y="2026.041">return HTML</text><polygon fill="#181818" points="66.5,2056.0938,56.5,2060.0938,66.5,2064.0938" style="stroke:#181818;stroke-width:1.0;"/><line style="stroke:#181818;stroke-width:1.0;" x1="60.5" x2="853.5" y1="2060.0938" y2="2060.0938"/><text fill="#000000" font-family="sans-serif" font-size="13" lengthAdjust="spacing" textLength="80" x="415" y="2055.3516">render HTML</text><polygon fill="#181818" points="842.5,2085.4043,852.5,2089.4043,842.5,2093.4043" style="stroke:#181818;stroke-width:1.0;"/><line style="stroke:#181818;stroke-width:1.0;" x1="55.5" x2="848.5" y1="2089.4043" y2="2089.4043"/><text fill="#000000" font-family="sans-serif" font-size="13" lengthAdjust="spacing" textLength="170" x="370" y="2084.6621">confirm details and submit</text><polygon fill="#181818" points="1422.5,2114.7148,1432.5,2118.7148,1422.5,2122.7148" style="stroke:#181818;stroke-width:1.0;"/><line style="stroke:#181818;stroke-width:1.0;" x1="854.5" x2="1428.5" y1="2118.7148" y2="2118.7148"/><text fill="#000000" font-family="sans-serif" font-size="13" lengthAdjust="spacing" textLength="121" x="1084" y="2113.9727">call page controller</text><polygon fill="#181818" points="2011.5,2144.0254,2021.5,2148.0254,2011.5,2152.0254" style="stroke:#181818;stroke-width:1.0;"/><line style="stroke:#181818;stroke-width:1.0;" x1="1434.5" x2="2017.5" y1="2148.0254" y2="2148.0254"/><text fill="#000000" font-family="sans-serif" font-size="13" lengthAdjust="spacing" textLength="126" x="1666" y="2143.2832">build request object</text><polygon fill="#181818" points="3432.5,2173.3359,3442.5,2177.3359,3432.5,2181.3359" style="stroke:#181818;stroke-width:1.0;"/><line style="stroke:#181818;stroke-width:1.0;" x1="2023.5" x2="3438.5" y1="2177.3359" y2="2177.3359"/><text fill="#000000" font-family="sans-serif" font-size="13" lengthAdjust="spacing" textLength="138" x="2665" y="2172.5938">send backend request</text><path d="M20,2192.3359 L82,2192.3359 L82,2199.6465 L72,2209.6465 L20,2209.6465 L20,2192.3359 " fill="#EEEEEE" style="stroke:#000000;stroke-width:1.5;"/><rect fill="none" height="193.1738" style="stroke:#000000;stroke-width:1.5;" width="3505" x="20" y="2192.3359"/><text fill="#000000" font-family="sans-serif" font-size="13" font-weight="bold" lengthAdjust="spacing" textLength="17" x="35" y="2205.9043">alt</text><text fill="#000000" font-family="sans-serif" font-size="11" font-weight="bold" lengthAdjust="spacing" textLength="231" x="97" y="2204.9707">[Failed to convert nil pool to active pool]</text><polygon fill="#181818" points="2034.5,2226.957,2024.5,2230.957,2034.5,2234.957" style="stroke:#181818;stroke-width:1.0;"/><line style="stroke:#181818;stroke-width:1.0;stroke-dasharray:2.0,2.0;" x1="2028.5" x2="3443.5" y1="2230.957" y2="2230.957"/><text fill="#000000" font-family="sans-serif" font-size="13" lengthAdjust="spacing" textLength="91" x="2688.5" y="2226.2148">Error response</text><polygon fill="#181818" points="1445.5,2256.2676,1435.5,2260.2676,1445.5,2264.2676" style="stroke:#181818;stroke-width:1.0;"/><line style="stroke:#181818;stroke-width:1.0;stroke-dasharray:2.0,2.0;" x1="1439.5" x2="2022.5" y1="2260.2676" y2="2260.2676"/><text fill="#000000" font-family="sans-serif" font-size="13" lengthAdjust="spacing" textLength="127" x="1665.5" y="2255.5254">reject requestObject</text><polygon fill="#181818" points="2962,2285.5781,2972,2289.5781,2962,2293.5781" style="stroke:#181818;stroke-width:1.0;"/><line style="stroke:#181818;stroke-width:1.0;" x1="1434.5" x2="2968" y1="2289.5781" y2="2289.5781"/><text fill="#000000" font-family="sans-serif" font-size="13" lengthAdjust="spacing" textLength="169" x="2119.75" y="2284.8359">request and build template</text><polygon fill="#181818" points="1445.5,2314.8887,1435.5,2318.8887,1445.5,2322.8887" style="stroke:#181818;stroke-width:1.0;"/><line style="stroke:#181818;stroke-width:1.0;" x1="1439.5" x2="2973" y1="2318.8887" y2="2318.8887"/><text fill="#000000" font-family="sans-serif" font-size="13" lengthAdjust="spacing" textLength="78" x="2165.25" y="2314.1465">return HTML</text><polygon fill="#181818" points="1010,2344.1992,1000,2348.1992,1010,2352.1992" style="stroke:#181818;stroke-width:1.0;"/><line style="stroke:#181818;stroke-width:1.0;" x1="1004" x2="1433.5" y1="2348.1992" y2="2348.1992"/><text fill="#000000" font-family="sans-serif" font-size="13" lengthAdjust="spacing" textLength="78" x="1177.75" y="2343.457">return HTML</text><polygon fill="#181818" points="66.5,2373.5098,56.5,2377.5098,66.5,2381.5098" style="stroke:#181818;stroke-width:1.0;"/><line style="stroke:#181818;stroke-width:1.0;" x1="60.5" x2="998" y1="2377.5098" y2="2377.5098"/><text fill="#000000" font-family="sans-serif" font-size="13" lengthAdjust="spacing" textLength="108" x="473.25" y="2372.7676">render error page</text><polygon fill="#181818" points="2034.5,2409.8203,2024.5,2413.8203,2034.5,2417.8203" style="stroke:#181818;stroke-width:1.0;"/><line style="stroke:#181818;stroke-width:1.0;" x1="2028.5" x2="3443.5" y1="2413.8203" y2="2413.8203"/><text fill="#000000" font-family="sans-serif" font-size="13" lengthAdjust="spacing" textLength="77" x="2695.5" y="2409.0781">ok response</text><polygon fill="#181818" points="1445.5,2439.1309,1435.5,2443.1309,1445.5,2447.1309" style="stroke:#181818;stroke-width:1.0;"/><line style="stroke:#181818;stroke-width:1.0;" x1="1439.5" x2="2022.5" y1="2443.1309" y2="2443.1309"/><text fill="#000000" font-family="sans-serif" font-size="13" lengthAdjust="spacing" textLength="96" x="1681" y="2438.3887">resolve request</text><polygon fill="#181818" points="1193.5,2468.4414,1183.5,2472.4414,1193.5,2476.4414" style="stroke:#181818;stroke-width:1.0;"/><line style="stroke:#181818;stroke-width:1.0;" x1="1187.5" x2="1433.5" y1="2472.4414" y2="2472.4414"/><text fill="#000000" font-family="sans-serif" font-size="13" lengthAdjust="spacing" textLength="156" x="1230.5" y="2467.6992">redirect to pool overview</text><polygon fill="#181818" points="387.5,2497.752,377.5,2501.752,387.5,2505.752" style="stroke:#181818;stroke-width:1.0;"/><line style="stroke:#181818;stroke-width:1.0;" x1="381.5" x2="1181.5" y1="2501.752" y2="2501.752"/><text fill="#000000" font-family="sans-serif" font-size="13" lengthAdjust="spacing" textLength="156" x="701.5" y="2497.0098">redirect to pool overview</text><polygon fill="#181818" points="66.5,2527.0625,56.5,2531.0625,66.5,2535.0625" style="stroke:#181818;stroke-width:1.0;"/><line style="stroke:#181818;stroke-width:1.0;" x1="60.5" x2="375.5" y1="2531.0625" y2="2531.0625"/><text fill="#000000" font-family="sans-serif" font-size="13" lengthAdjust="spacing" textLength="297" x="67.5" y="2526.3203">render pool overview page with success banner</text><!--SRC=[jLVRRjim37tNLt13WIw0axuNHG4tTOPiQTmbxeOz3QgY96fiEPFb5llxKV8blgPRb_MXG4aUckJXHTsA5OTKXaBk-8gy4vA5AKesN78bsF0nZDak6Ur3AdKQXOGaEo7tLD48blfNo27HQ6PKK5NndocNZD_n9A4RxePY8oCkDJ3ynHKXQAO54tlq2YxJCOhEpyzXve_T6IpyXs0w_rWpke_Zq7_cwbdmbtjq2LTN5tkK3UDSU7rTin_74XLwBaA3B10iapPjjrHk-2rVSwLec9J6LZnS5V8MYhFTBTTKL24eGuGLDknD77TKegMfH8wmAKIbj07vc97WAHMhuXFS_85sMS76_ZnO-BEPjm1tVWiBxyk3jmp0l_daZOFbaUzZVRIAmv2hTXGZLYf7Jrrf54IqdHHi77LHvwRc92TeA4KuD0vV3MMPHX5Ll_p79yvq7aKk6ssu_Z1eO2PSi-quJfKk-Iwn7RfE7uV0JQmbl2uUxTCCQNaAlBlxcHjuozvQ1Zp28TEyLKdvj6lc4AkeOjwisSKQzHsmHfjNFJGwlHDywFOQijBm7J3RkXNx7xPzaujylUG8MwB9T1PuYwNjuw_kR7hh1lwYNQyyXgyq52jg5aVLe4pkeBQ-RzpnPm_z7iQb1hkXRCVbwj2991-lJ_x3OkvzXydC_qRideBXTNiNNKBE0I07O3WWBHl4zVOzucc8G6DtQ7XobbV9lP-EKV-X3- -q9y6fxOw200VUJx1uV0KwXhNfTj1RRWE6d4DusN9Pf2Fa1cYPq_i18JJCM02HW8nrHKi0V_gMm_1OxeglX38ZX47PK8hMRxdCTk2mxpElkSe8RE1p0XNoZovge8oG5w6tODiM7gd4eX8q9UJCK8RCB2pGbjcNPZAFqDIxV1nuZITcK51Ew36QdCwzuhIoTdhgY3IVPUKei45ix8ybLjb8JiVjpJidspFDN2hSj8Qa6Az-O8Vz6qRDUFhRf7lsgTFrdXWqaknuSLo2VHlXM46yxawr0_NMN9-p1Scdqjof_YJR6_KjYP- -d-mC7c-Qh9p5NgDo1Kdw60aDvZwIq_JD7zUnwtJzqTpyVLUs3xNJUgmEAhLhlcFjDLiB5NNKZhIi_-jTwtff7TkLpJDiP9HfySpB2tRY4tMYy_GFfob96SD_iuhZz1i0]--></g></svg>