<?xml version="1.0" encoding="us-ascii" standalone="no"?><svg xmlns="http://www.w3.org/2000/svg" xmlns:xlink="http://www.w3.org/1999/xlink" contentStyleType="text/css" height="2055px" preserveAspectRatio="none" style="width:2202px;height:2055px;background:#FFFFFF;" version="1.1" viewBox="0 0 2202 2055" width="2202px" zoomAndPan="magnify"><defs/><g><rect fill="none" height="193.1738" style="stroke:#000000;stroke-width:1.5;" width="2166" x="20" y="187.2188"/><rect fill="none" height="193.1738" style="stroke:#000000;stroke-width:1.5;" width="2166" x="20" y="511.6348"/><rect fill="none" height="1137.1113" style="stroke:#000000;stroke-width:1.5;" width="2186" x="10" y="894.6719"/><rect fill="none" height="163.8633" style="stroke:#000000;stroke-width:1.5;" width="1845" x="20" y="1182.7773"/><rect fill="none" height="193.1738" style="stroke:#000000;stroke-width:1.5;" width="2166" x="20" y="1448.5723"/><rect fill="none" height="193.1738" style="stroke:#000000;stroke-width:1.5;" width="2166" x="20" y="1772.9883"/><line style="stroke:#181818;stroke-width:0.5;stroke-dasharray:5.0,5.0;" x1="55" x2="55" y1="52.9766" y2="2048.7832"/><line style="stroke:#181818;stroke-width:0.5;stroke-dasharray:5.0,5.0;" x1="216" x2="216" y1="52.9766" y2="2048.7832"/><line style="stroke:#181818;stroke-width:0.5;stroke-dasharray:5.0,5.0;" x1="409" x2="409" y1="52.9766" y2="2048.7832"/><line style="stroke:#181818;stroke-width:0.5;stroke-dasharray:5.0,5.0;" x1="587" x2="587" y1="52.9766" y2="2048.7832"/><line style="stroke:#181818;stroke-width:0.5;stroke-dasharray:5.0,5.0;" x1="787" x2="787" y1="52.9766" y2="2048.7832"/><line style="stroke:#181818;stroke-width:0.5;stroke-dasharray:5.0,5.0;" x1="982" x2="982" y1="52.9766" y2="2048.7832"/><line style="stroke:#181818;stroke-width:0.5;stroke-dasharray:5.0,5.0;" x1="1175" x2="1175" y1="52.9766" y2="2048.7832"/><line style="stroke:#181818;stroke-width:0.5;stroke-dasharray:5.0,5.0;" x1="1368" x2="1368" y1="52.9766" y2="2048.7832"/><line style="stroke:#181818;stroke-width:0.5;stroke-dasharray:5.0,5.0;" x1="1553" x2="1553" y1="52.9766" y2="2048.7832"/><line style="stroke:#181818;stroke-width:0.5;stroke-dasharray:5.0,5.0;" x1="1749" x2="1749" y1="52.9766" y2="2048.7832"/><line style="stroke:#181818;stroke-width:0.5;stroke-dasharray:5.0,5.0;" x1="1945" x2="1945" y1="52.9766" y2="2048.7832"/><line style="stroke:#181818;stroke-width:0.5;stroke-dasharray:5.0,5.0;" x1="2105" x2="2105" y1="52.9766" y2="2048.7832"/><rect fill="#E2E2F0" height="30.4883" rx="2.5" ry="2.5" style="stroke:#181818;stroke-width:0.5;" width="51" x="30" y="21.4883"/><text fill="#000000" font-family="sans-serif" font-size="14" lengthAdjust="spacing" textLength="37" x="37" y="42.0234">Actor</text><rect fill="#E2E2F0" height="46.9766" rx="2.5" ry="2.5" style="stroke:#181818;stroke-width:0.5;" width="231" x="101" y="5"/><text fill="#000000" font-family="sans-serif" font-size="14" font-style="italic" lengthAdjust="spacing" textLength="217" x="108" y="25.5352">&#171;/administration/court-details&#187;</text><text fill="#000000" font-family="sans-serif" font-size="14" lengthAdjust="spacing" textLength="118" x="157.5" y="42.0234">CourtDetailsPage</text><rect fill="#E2E2F0" height="46.9766" rx="2.5" ry="2.5" style="stroke:#181818;stroke-width:0.5;" width="134" x="342" y="5"/><text fill="#000000" font-family="sans-serif" font-size="14" font-style="italic" lengthAdjust="spacing" textLength="56" x="381" y="25.5352">&#171;/error&#187;</text><text fill="#000000" font-family="sans-serif" font-size="14" lengthAdjust="spacing" textLength="120" x="349" y="42.0234">GenericErrorPage</text><rect fill="#FFFFE0" height="46.9766" rx="2.5" ry="2.5" style="stroke:#181818;stroke-width:0.5;" width="203" x="486" y="5"/><text fill="#000000" font-family="sans-serif" font-size="14" font-style="italic" lengthAdjust="spacing" textLength="189" x="493" y="25.5352">&#171;court-details.controller.js&#187;</text><text fill="#000000" font-family="sans-serif" font-size="14" lengthAdjust="spacing" textLength="155" x="510" y="42.0234">CourtDetailsController</text><rect fill="#FFFFE0" height="46.9766" rx="2.5" ry="2.5" style="stroke:#181818;stroke-width:0.5;" width="177" x="699" y="5"/><text fill="#000000" font-family="sans-serif" font-size="14" font-style="italic" lengthAdjust="spacing" textLength="163" x="706" y="25.5352">&#171;courtDetailsDAO.get()&#187;</text><text fill="#000000" font-family="sans-serif" font-size="14" lengthAdjust="spacing" textLength="129" x="723" y="42.0234">CourtDetailsObject</text><rect fill="#FFFFE0" height="46.9766" rx="2.5" ry="2.5" style="stroke:#181818;stroke-width:0.5;" width="192" x="886" y="5"/><text fill="#000000" font-family="sans-serif" font-size="14" font-style="italic" lengthAdjust="spacing" textLength="164" x="900" y="25.5352">&#171;courtDetailsDAO.put()&#187;</text><text fill="#000000" font-family="sans-serif" font-size="14" lengthAdjust="spacing" textLength="178" x="893" y="42.0234">UpdateCourtDetailsObject</text><rect fill="#FFFFE0" height="46.9766" rx="2.5" ry="2.5" style="stroke:#181818;stroke-width:0.5;" width="175" x="1088" y="5"/><text fill="#000000" font-family="sans-serif" font-size="14" font-style="italic" lengthAdjust="spacing" textLength="161" x="1095" y="25.5352">&#171;courtroomsDAO.get()&#187;</text><text fill="#000000" font-family="sans-serif" font-size="14" lengthAdjust="spacing" textLength="127" x="1112" y="42.0234">CourtroomsObject</text><rect fill="#FFFFE0" height="46.9766" rx="2.5" ry="2.5" style="stroke:#181818;stroke-width:0.5;" width="190" x="1273" y="5"/><text fill="#000000" font-family="sans-serif" font-size="14" font-style="italic" lengthAdjust="spacing" textLength="162" x="1287" y="25.5352">&#171;courtroomsDAO.put()&#187;</text><text fill="#000000" font-family="sans-serif" font-size="14" lengthAdjust="spacing" textLength="176" x="1280" y="42.0234">UpdateCourtroomsObject</text><rect fill="#FFD700" height="30.4883" rx="2.5" ry="2.5" style="stroke:#181818;stroke-width:0.5;" width="161" x="1473" y="21.4883"/><text fill="#000000" font-family="sans-serif" font-size="14" lengthAdjust="spacing" textLength="147" x="1480" y="42.0234">CourtDetailsValidator</text><rect fill="#E2E2F0" height="46.9766" rx="2.5" ry="2.5" style="stroke:#181818;stroke-width:0.5;" width="211" x="1644" y="5"/><text fill="#000000" font-family="sans-serif" font-size="14" font-style="italic" lengthAdjust="spacing" textLength="197" x="1651" y="25.5352">&#171;/administration/rooms.njk&#187;</text><text fill="#000000" font-family="sans-serif" font-size="14" lengthAdjust="spacing" textLength="149" x="1675" y="42.0234">CourtDetailsTemplate</text><rect fill="#E6E6FA" height="46.9766" rx="2.5" ry="2.5" style="stroke:#181818;stroke-width:0.5;" width="160" x="1865" y="5"/><text fill="#000000" font-family="sans-serif" font-size="14" font-style="italic" lengthAdjust="spacing" textLength="146" x="1872" y="25.5352">&#171;_errors/generic.njk&#187;</text><text fill="#000000" font-family="sans-serif" font-size="14" lengthAdjust="spacing" textLength="99" x="1895.5" y="42.0234">ErrorTemplate</text><rect fill="#E2E2F0" height="30.4883" rx="2.5" ry="2.5" style="stroke:#181818;stroke-width:0.5;" width="141" x="2035" y="21.4883"/><text fill="#000000" font-family="sans-serif" font-size="14" lengthAdjust="spacing" textLength="127" x="2042" y="42.0234">BackendController</text><polygon fill="#181818" points="204.5,80.2871,214.5,84.2871,204.5,88.2871" style="stroke:#181818;stroke-width:1.0;"/><line style="stroke:#181818;stroke-width:1.0;" x1="55.5" x2="210.5" y1="84.2871" y2="84.2871"/><text fill="#000000" font-family="sans-serif" font-size="13" lengthAdjust="spacing" textLength="137" x="67.5" y="79.5449">click court details tab</text><polygon fill="#181818" points="575.5,109.5977,585.5,113.5977,575.5,117.5977" style="stroke:#181818;stroke-width:1.0;"/><line style="stroke:#181818;stroke-width:1.0;" x1="216.5" x2="581.5" y1="113.5977" y2="113.5977"/><text fill="#000000" font-family="sans-serif" font-size="13" lengthAdjust="spacing" textLength="170" x="317" y="108.8555">call court details controller</text><polygon fill="#181818" points="775.5,138.9082,785.5,142.9082,775.5,146.9082" style="stroke:#181818;stroke-width:1.0;"/><line style="stroke:#181818;stroke-width:1.0;" x1="587.5" x2="781.5" y1="142.9082" y2="142.9082"/><text fill="#000000" font-family="sans-serif" font-size="13" lengthAdjust="spacing" textLength="126" x="624.5" y="138.166">build request object</text><polygon fill="#181818" points="2093.5,168.2188,2103.5,172.2188,2093.5,176.2188" style="stroke:#181818;stroke-width:1.0;"/><line style="stroke:#181818;stroke-width:1.0;" x1="787.5" x2="2099.5" y1="172.2188" y2="172.2188"/><text fill="#000000" font-family="sans-serif" font-size="13" lengthAdjust="spacing" textLength="138" x="1377.5" y="167.4766">send backend request</text><path d="M20,187.2188 L82,187.2188 L82,194.5293 L72,204.5293 L20,204.5293 L20,187.2188 " fill="#EEEEEE" style="stroke:#000000;stroke-width:1.5;"/><rect fill="none" height="193.1738" style="stroke:#000000;stroke-width:1.5;" width="2166" x="20" y="187.2188"/><text fill="#000000" font-family="sans-serif" font-size="13" font-weight="bold" lengthAdjust="spacing" textLength="17" x="35" y="200.7871">alt</text><text fill="#000000" font-family="sans-serif" font-size="11" font-weight="bold" lengthAdjust="spacing" textLength="192" x="97" y="199.8535">[Failed to fetch courtroom details]</text><polygon fill="#181818" points="798.5,221.8398,788.5,225.8398,798.5,229.8398" style="stroke:#181818;stroke-width:1.0;"/><line style="stroke:#181818;stroke-width:1.0;stroke-dasharray:2.0,2.0;" x1="792.5" x2="2104.5" y1="225.8398" y2="225.8398"/><text fill="#000000" font-family="sans-serif" font-size="13" lengthAdjust="spacing" textLength="91" x="1401" y="221.0977">Error response</text><polygon fill="#181818" points="598.5,251.1504,588.5,255.1504,598.5,259.1504" style="stroke:#181818;stroke-width:1.0;"/><line style="stroke:#181818;stroke-width:1.0;stroke-dasharray:2.0,2.0;" x1="592.5" x2="786.5" y1="255.1504" y2="255.1504"/><text fill="#000000" font-family="sans-serif" font-size="13" lengthAdjust="spacing" textLength="127" x="624" y="250.4082">reject requestObject</text><polygon fill="#181818" points="1933,280.4609,1943,284.4609,1933,288.4609" style="stroke:#181818;stroke-width:1.0;"/><line style="stroke:#181818;stroke-width:1.0;" x1="587.5" x2="1939" y1="284.4609" y2="284.4609"/><text fill="#000000" font-family="sans-serif" font-size="13" lengthAdjust="spacing" textLength="169" x="1181.75" y="279.7188">request and build template</text><polygon fill="#181818" points="598.5,309.7715,588.5,313.7715,598.5,317.7715" style="stroke:#181818;stroke-width:1.0;"/><line style="stroke:#181818;stroke-width:1.0;" x1="592.5" x2="1944" y1="313.7715" y2="313.7715"/><text fill="#000000" font-family="sans-serif" font-size="13" lengthAdjust="spacing" textLength="78" x="1227.25" y="309.0293">return HTML</text><polygon fill="#181818" points="420,339.082,410,343.082,420,347.082" style="stroke:#181818;stroke-width:1.0;"/><line style="stroke:#181818;stroke-width:1.0;" x1="414" x2="586.5" y1="343.082" y2="343.082"/><text fill="#000000" font-family="sans-serif" font-size="13" lengthAdjust="spacing" textLength="78" x="459.25" y="338.3398">return HTML</text><polygon fill="#181818" points="66.5,368.3926,56.5,372.3926,66.5,376.3926" style="stroke:#181818;stroke-width:1.0;"/><line style="stroke:#181818;stroke-width:1.0;" x1="60.5" x2="408" y1="372.3926" y2="372.3926"/><text fill="#000000" font-family="sans-serif" font-size="13" lengthAdjust="spacing" textLength="108" x="178.25" y="367.6504">render error page</text><polygon fill="#181818" points="798.5,404.7031,788.5,408.7031,798.5,412.7031" style="stroke:#181818;stroke-width:1.0;"/><line style="stroke:#181818;stroke-width:1.0;" x1="792.5" x2="2104.5" y1="408.7031" y2="408.7031"/><text fill="#000000" font-family="sans-serif" font-size="13" lengthAdjust="spacing" textLength="77" x="1408" y="403.9609">ok response</text><polygon fill="#181818" points="598.5,434.0137,588.5,438.0137,598.5,442.0137" style="stroke:#181818;stroke-width:1.0;"/><line style="stroke:#181818;stroke-width:1.0;" x1="592.5" x2="786.5" y1="438.0137" y2="438.0137"/><text fill="#000000" font-family="sans-serif" font-size="13" lengthAdjust="spacing" textLength="96" x="639.5" y="433.2715">resolve request</text><polygon fill="#181818" points="1163.5,463.3242,1173.5,467.3242,1163.5,471.3242" style="stroke:#181818;stroke-width:1.0;"/><line style="stroke:#181818;stroke-width:1.0;" x1="587.5" x2="1169.5" y1="467.3242" y2="467.3242"/><text fill="#000000" font-family="sans-serif" font-size="13" lengthAdjust="spacing" textLength="126" x="818.5" y="462.582">build request object</text><polygon fill="#181818" points="2093.5,492.6348,2103.5,496.6348,2093.5,500.6348" style="stroke:#181818;stroke-width:1.0;"/><line style="stroke:#181818;stroke-width:1.0;" x1="1175.5" x2="2099.5" y1="496.6348" y2="496.6348"/><text fill="#000000" font-family="sans-serif" font-size="13" lengthAdjust="spacing" textLength="138" x="1571.5" y="491.8926">send backend request</text><path d="M20,511.6348 L82,511.6348 L82,518.9453 L72,528.9453 L20,528.9453 L20,511.6348 " fill="#EEEEEE" style="stroke:#000000;stroke-width:1.5;"/><rect fill="none" height="193.1738" style="stroke:#000000;stroke-width:1.5;" width="2166" x="20" y="511.6348"/><text fill="#000000" font-family="sans-serif" font-size="13" font-weight="bold" lengthAdjust="spacing" textLength="17" x="35" y="525.2031">alt</text><text fill="#000000" font-family="sans-serif" font-size="11" font-weight="bold" lengthAdjust="spacing" textLength="157" x="97" y="524.2695">[Failed to fetch courtrooms]</text><polygon fill="#181818" points="1186.5,546.2559,1176.5,550.2559,1186.5,554.2559" style="stroke:#181818;stroke-width:1.0;"/><line style="stroke:#181818;stroke-width:1.0;stroke-dasharray:2.0,2.0;" x1="1180.5" x2="2104.5" y1="550.2559" y2="550.2559"/><text fill="#000000" font-family="sans-serif" font-size="13" lengthAdjust="spacing" textLength="91" x="1595" y="545.5137">Error response</text><polygon fill="#181818" points="598.5,575.5664,588.5,579.5664,598.5,583.5664" style="stroke:#181818;stroke-width:1.0;"/><line style="stroke:#181818;stroke-width:1.0;stroke-dasharray:2.0,2.0;" x1="592.5" x2="1174.5" y1="579.5664" y2="579.5664"/><text fill="#000000" font-family="sans-serif" font-size="13" lengthAdjust="spacing" textLength="127" x="818" y="574.8242">reject requestObject</text><polygon fill="#181818" points="1933,604.877,1943,608.877,1933,612.877" style="stroke:#181818;stroke-width:1.0;"/><line style="stroke:#181818;stroke-width:1.0;" x1="587.5" x2="1939" y1="608.877" y2="608.877"/><text fill="#000000" font-family="sans-serif" font-size="13" lengthAdjust="spacing" textLength="169" x="1181.75" y="604.1348">request and build template</text><polygon fill="#181818" points="598.5,634.1875,588.5,638.1875,598.5,642.1875" style="stroke:#181818;stroke-width:1.0;"/><line style="stroke:#181818;stroke-width:1.0;" x1="592.5" x2="1944" y1="638.1875" y2="638.1875"/><text fill="#000000" font-family="sans-serif" font-size="13" lengthAdjust="spacing" textLength="78" x="1227.25" y="633.4453">return HTML</text><polygon fill="#181818" points="420,663.498,410,667.498,420,671.498" style="stroke:#181818;stroke-width:1.0;"/><line style="stroke:#181818;stroke-width:1.0;" x1="414" x2="586.5" y1="667.498" y2="667.498"/><text fill="#000000" font-family="sans-serif" font-size="13" lengthAdjust="spacing" textLength="78" x="459.25" y="662.7559">return HTML</text><polygon fill="#181818" points="66.5,692.8086,56.5,696.8086,66.5,700.8086" style="stroke:#181818;stroke-width:1.0;"/><line style="stroke:#181818;stroke-width:1.0;" x1="60.5" x2="408" y1="696.8086" y2="696.8086"/><text fill="#000000" font-family="sans-serif" font-size="13" lengthAdjust="spacing" textLength="108" x="178.25" y="692.0664">render error page</text><polygon fill="#181818" points="1186.5,729.1191,1176.5,733.1191,1186.5,737.1191" style="stroke:#181818;stroke-width:1.0;"/><line style="stroke:#181818;stroke-width:1.0;" x1="1180.5" x2="2104.5" y1="733.1191" y2="733.1191"/><text fill="#000000" font-family="sans-serif" font-size="13" lengthAdjust="spacing" textLength="77" x="1602" y="728.377">ok response</text><polygon fill="#181818" points="598.5,758.4297,588.5,762.4297,598.5,766.4297" style="stroke:#181818;stroke-width:1.0;"/><line style="stroke:#181818;stroke-width:1.0;" x1="592.5" x2="1174.5" y1="762.4297" y2="762.4297"/><text fill="#000000" font-family="sans-serif" font-size="13" lengthAdjust="spacing" textLength="96" x="833.5" y="757.6875">resolve request</text><polygon fill="#181818" points="1737.5,787.7402,1747.5,791.7402,1737.5,795.7402" style="stroke:#181818;stroke-width:1.0;"/><line style="stroke:#181818;stroke-width:1.0;" x1="587.5" x2="1743.5" y1="791.7402" y2="791.7402"/><text fill="#000000" font-family="sans-serif" font-size="13" lengthAdjust="spacing" textLength="169" x="1084" y="786.998">request and build template</text><polygon fill="#181818" points="598.5,817.0508,588.5,821.0508,598.5,825.0508" style="stroke:#181818;stroke-width:1.0;"/><line style="stroke:#181818;stroke-width:1.0;" x1="592.5" x2="1748.5" y1="821.0508" y2="821.0508"/><text fill="#000000" font-family="sans-serif" font-size="13" lengthAdjust="spacing" textLength="78" x="1129.5" y="816.3086">return HTML</text><polygon fill="#181818" points="227.5,846.3613,217.5,850.3613,227.5,854.3613" style="stroke:#181818;stroke-width:1.0;"/><line style="stroke:#181818;stroke-width:1.0;" x1="221.5" x2="586.5" y1="850.3613" y2="850.3613"/><text fill="#000000" font-family="sans-serif" font-size="13" lengthAdjust="spacing" textLength="78" x="363" y="845.6191">return HTML</text><polygon fill="#181818" points="66.5,875.6719,56.5,879.6719,66.5,883.6719" style="stroke:#181818;stroke-width:1.0;"/><line style="stroke:#181818;stroke-width:1.0;" x1="60.5" x2="215.5" y1="879.6719" y2="879.6719"/><text fill="#000000" font-family="sans-serif" font-size="13" lengthAdjust="spacing" textLength="80" x="96" y="874.9297">render HTML</text><path d="M10,894.6719 L72,894.6719 L72,901.9824 L62,911.9824 L10,911.9824 L10,894.6719 " fill="#EEEEEE" style="stroke:#000000;stroke-width:1.5;"/><rect fill="none" height="1137.1113" style="stroke:#000000;stroke-width:1.5;" width="2186" x="10" y="894.6719"/><text fill="#000000" font-family="sans-serif" font-size="13" font-weight="bold" lengthAdjust="spacing" textLength="17" x="25" y="908.2402">alt</text><text fill="#000000" font-family="sans-serif" font-size="11" font-weight="bold" lengthAdjust="spacing" textLength="120" x="87" y="907.3066">[Update court details]</text><polygon fill="#181818" points="204.5,929.293,214.5,933.293,204.5,937.293" style="stroke:#181818;stroke-width:1.0;"/><line style="stroke:#181818;stroke-width:1.0;" x1="55.5" x2="210.5" y1="933.293" y2="933.293"/><text fill="#000000" font-family="sans-serif" font-size="13" lengthAdjust="spacing" textLength="107" x="82.5" y="928.5508">edit court details</text><polygon fill="#181818" points="575.5,958.6035,585.5,962.6035,575.5,966.6035" style="stroke:#181818;stroke-width:1.0;"/><line style="stroke:#181818;stroke-width:1.0;" x1="216.5" x2="581.5" y1="962.6035" y2="962.6035"/><text fill="#000000" font-family="sans-serif" font-size="13" lengthAdjust="spacing" textLength="170" x="317" y="957.8613">call court details controller</text><polygon fill="#181818" points="1737.5,987.9141,1747.5,991.9141,1737.5,995.9141" style="stroke:#181818;stroke-width:1.0;"/><line style="stroke:#181818;stroke-width:1.0;" x1="587.5" x2="1743.5" y1="991.9141" y2="991.9141"/><text fill="#000000" font-family="sans-serif" font-size="13" lengthAdjust="spacing" textLength="169" x="1084" y="987.1719">request and build template</text><polygon fill="#181818" points="598.5,1017.2246,588.5,1021.2246,598.5,1025.2246" style="stroke:#181818;stroke-width:1.0;"/><line style="stroke:#181818;stroke-width:1.0;" x1="592.5" x2="1748.5" y1="1021.2246" y2="1021.2246"/><text fill="#000000" font-family="sans-serif" font-size="13" lengthAdjust="spacing" textLength="78" x="1129.5" y="1016.4824">return HTML</text><polygon fill="#181818" points="227.5,1046.5352,217.5,1050.5352,227.5,1054.5352" style="stroke:#181818;stroke-width:1.0;"/><line style="stroke:#181818;stroke-width:1.0;" x1="221.5" x2="586.5" y1="1050.5352" y2="1050.5352"/><text fill="#000000" font-family="sans-serif" font-size="13" lengthAdjust="spacing" textLength="78" x="363" y="1045.793">return HTML</text><polygon fill="#181818" points="66.5,1075.8457,56.5,1079.8457,66.5,1083.8457" style="stroke:#181818;stroke-width:1.0;"/><line style="stroke:#181818;stroke-width:1.0;" x1="60.5" x2="215.5" y1="1079.8457" y2="1079.8457"/><text fill="#000000" font-family="sans-serif" font-size="13" lengthAdjust="spacing" textLength="80" x="96" y="1075.1035">render HTML</text><polygon fill="#181818" points="204.5,1105.1563,214.5,1109.1563,204.5,1113.1563" style="stroke:#181818;stroke-width:1.0;"/><line style="stroke:#181818;stroke-width:1.0;" x1="55.5" x2="210.5" y1="1109.1563" y2="1109.1563"/><text fill="#000000" font-family="sans-serif" font-size="13" lengthAdjust="spacing" textLength="62" x="105" y="1104.4141">click save</text><polygon fill="#181818" points="575.5,1134.4668,585.5,1138.4668,575.5,1142.4668" style="stroke:#181818;stroke-width:1.0;"/><line style="stroke:#181818;stroke-width:1.0;" x1="216.5" x2="581.5" y1="1138.4668" y2="1138.4668"/><text fill="#000000" font-family="sans-serif" font-size="13" lengthAdjust="spacing" textLength="170" x="317" y="1133.7246">call court details controller</text><polygon fill="#181818" points="1541.5,1163.7773,1551.5,1167.7773,1541.5,1171.7773" style="stroke:#181818;stroke-width:1.0;"/><line style="stroke:#181818;stroke-width:1.0;" x1="587.5" x2="1547.5" y1="1167.7773" y2="1167.7773"/><text fill="#000000" font-family="sans-serif" font-size="13" lengthAdjust="spacing" textLength="95" x="1023" y="1163.0352">validate details</text><path d="M20,1182.7773 L82,1182.7773 L82,1190.0879 L72,1200.0879 L20,1200.0879 L20,1182.7773 " fill="#EEEEEE" style="stroke:#000000;stroke-width:1.5;"/><rect fill="none" height="163.8633" style="stroke:#000000;stroke-width:1.5;" width="1845" x="20" y="1182.7773"/><text fill="#000000" font-family="sans-serif" font-size="13" font-weight="bold" lengthAdjust="spacing" textLength="17" x="35" y="1196.3457">alt</text><text fill="#000000" font-family="sans-serif" font-size="11" font-weight="bold" lengthAdjust="spacing" textLength="80" x="97" y="1195.4121">[Invalid input]</text><polygon fill="#181818" points="598.5,1217.3984,588.5,1221.3984,598.5,1225.3984" style="stroke:#181818;stroke-width:1.0;"/><line style="stroke:#181818;stroke-width:1.0;" x1="592.5" x2="1552.5" y1="1221.3984" y2="1221.3984"/><text fill="#000000" font-family="sans-serif" font-size="13" lengthAdjust="spacing" textLength="79" x="1031" y="1216.6563">Invalid input</text><polygon fill="#181818" points="1737.5,1246.709,1747.5,1250.709,1737.5,1254.709" style="stroke:#181818;stroke-width:1.0;"/><line style="stroke:#181818;stroke-width:1.0;" x1="587.5" x2="1743.5" y1="1250.709" y2="1250.709"/><text fill="#000000" font-family="sans-serif" font-size="13" lengthAdjust="spacing" textLength="169" x="1084" y="1245.9668">request and build template</text><polygon fill="#181818" points="598.5,1276.0195,588.5,1280.0195,598.5,1284.0195" style="stroke:#181818;stroke-width:1.0;"/><line style="stroke:#181818;stroke-width:1.0;" x1="592.5" x2="1748.5" y1="1280.0195" y2="1280.0195"/><text fill="#000000" font-family="sans-serif" font-size="13" lengthAdjust="spacing" textLength="78" x="1129.5" y="1275.2773">return HTML</text><polygon fill="#181818" points="227.5,1305.3301,217.5,1309.3301,227.5,1313.3301" style="stroke:#181818;stroke-width:1.0;"/><line style="stroke:#181818;stroke-width:1.0;" x1="221.5" x2="586.5" y1="1309.3301" y2="1309.3301"/><text fill="#000000" font-family="sans-serif" font-size="13" lengthAdjust="spacing" textLength="112" x="346" y="1304.5879">return error HTML</text><polygon fill="#181818" points="66.5,1334.6406,56.5,1338.6406,66.5,1342.6406" style="stroke:#181818;stroke-width:1.0;"/><line style="stroke:#181818;stroke-width:1.0;" x1="60.5" x2="215.5" y1="1338.6406" y2="1338.6406"/><text fill="#000000" font-family="sans-serif" font-size="13" lengthAdjust="spacing" textLength="133" x="69.5" y="1333.8984">render error message</text><polygon fill="#181818" points="598.5,1370.9512,588.5,1374.9512,598.5,1378.9512" style="stroke:#181818;stroke-width:1.0;"/><line style="stroke:#181818;stroke-width:1.0;" x1="592.5" x2="1552.5" y1="1374.9512" y2="1374.9512"/><text fill="#000000" font-family="sans-serif" font-size="13" lengthAdjust="spacing" textLength="127" x="1007" y="1370.209">valid details entered</text><polygon fill="#181818" points="970,1400.2617,980,1404.2617,970,1408.2617" style="stroke:#181818;stroke-width:1.0;"/><line style="stroke:#181818;stroke-width:1.0;" x1="587.5" x2="976" y1="1404.2617" y2="1404.2617"/><text fill="#000000" font-family="sans-serif" font-size="13" lengthAdjust="spacing" textLength="126" x="721.75" y="1399.5195">build request object</text><polygon fill="#181818" points="2093.5,1429.5723,2103.5,1433.5723,2093.5,1437.5723" style="stroke:#181818;stroke-width:1.0;"/><line style="stroke:#181818;stroke-width:1.0;" x1="982" x2="2099.5" y1="1433.5723" y2="1433.5723"/><text fill="#000000" font-family="sans-serif" font-size="13" lengthAdjust="spacing" textLength="138" x="1474.75" y="1428.8301">send backend request</text><path d="M20,1448.5723 L82,1448.5723 L82,1455.8828 L72,1465.8828 L20,1465.8828 L20,1448.5723 " fill="#EEEEEE" style="stroke:#000000;stroke-width:1.5;"/><rect fill="none" height="193.1738" style="stroke:#000000;stroke-width:1.5;" width="2166" x="20" y="1448.5723"/><text fill="#000000" font-family="sans-serif" font-size="13" font-weight="bold" lengthAdjust="spacing" textLength="17" x="35" y="1462.1406">alt</text><text fill="#000000" font-family="sans-serif" font-size="11" font-weight="bold" lengthAdjust="spacing" textLength="201" x="97" y="1461.207">[Failed to update courtroom details]</text><polygon fill="#181818" points="993,1483.1934,983,1487.1934,993,1491.1934" style="stroke:#181818;stroke-width:1.0;"/><line style="stroke:#181818;stroke-width:1.0;stroke-dasharray:2.0,2.0;" x1="987" x2="2104.5" y1="1487.1934" y2="1487.1934"/><text fill="#000000" font-family="sans-serif" font-size="13" lengthAdjust="spacing" textLength="91" x="1498.25" y="1482.4512">Error response</text><polygon fill="#181818" points="598.5,1512.5039,588.5,1516.5039,598.5,1520.5039" style="stroke:#181818;stroke-width:1.0;"/><line style="stroke:#181818;stroke-width:1.0;stroke-dasharray:2.0,2.0;" x1="592.5" x2="981" y1="1516.5039" y2="1516.5039"/><text fill="#000000" font-family="sans-serif" font-size="13" lengthAdjust="spacing" textLength="127" x="721.25" y="1511.7617">reject requestObject</text><polygon fill="#181818" points="1933,1541.8145,1943,1545.8145,1933,1549.8145" style="stroke:#181818;stroke-width:1.0;"/><line style="stroke:#181818;stroke-width:1.0;" x1="587.5" x2="1939" y1="1545.8145" y2="1545.8145"/><text fill="#000000" font-family="sans-serif" font-size="13" lengthAdjust="spacing" textLength="169" x="1181.75" y="1541.0723">request and build template</text><polygon fill="#181818" points="598.5,1571.125,588.5,1575.125,598.5,1579.125" style="stroke:#181818;stroke-width:1.0;"/><line style="stroke:#181818;stroke-width:1.0;" x1="592.5" x2="1944" y1="1575.125" y2="1575.125"/><text fill="#000000" font-family="sans-serif" font-size="13" lengthAdjust="spacing" textLength="78" x="1227.25" y="1570.3828">return HTML</text><polygon fill="#181818" points="420,1600.4355,410,1604.4355,420,1608.4355" style="stroke:#181818;stroke-width:1.0;"/><line style="stroke:#181818;stroke-width:1.0;" x1="414" x2="586.5" y1="1604.4355" y2="1604.4355"/><text fill="#000000" font-family="sans-serif" font-size="13" lengthAdjust="spacing" textLength="78" x="459.25" y="1599.6934">return HTML</text><polygon fill="#181818" points="66.5,1629.7461,56.5,1633.7461,66.5,1637.7461" style="stroke:#181818;stroke-width:1.0;"/><line style="stroke:#181818;stroke-width:1.0;" x1="60.5" x2="408" y1="1633.7461" y2="1633.7461"/><text fill="#000000" font-family="sans-serif" font-size="13" lengthAdjust="spacing" textLength="108" x="178.25" y="1629.0039">render error page</text><polygon fill="#181818" points="993,1666.0566,983,1670.0566,993,1674.0566" style="stroke:#181818;stroke-width:1.0;"/><line style="stroke:#181818;stroke-width:1.0;" x1="987" x2="2104.5" y1="1670.0566" y2="1670.0566"/><text fill="#000000" font-family="sans-serif" font-size="13" lengthAdjust="spacing" textLength="77" x="1505.25" y="1665.3145">ok response</text><polygon fill="#181818" points="598.5,1695.3672,588.5,1699.3672,598.5,1703.3672" style="stroke:#181818;stroke-width:1.0;"/><line style="stroke:#181818;stroke-width:1.0;" x1="592.5" x2="981" y1="1699.3672" y2="1699.3672"/><text fill="#000000" font-family="sans-serif" font-size="13" lengthAdjust="spacing" textLength="96" x="736.75" y="1694.625">resolve request</text><polygon fill="#181818" points="1356,1724.6777,1366,1728.6777,1356,1732.6777" style="stroke:#181818;stroke-width:1.0;"/><line style="stroke:#181818;stroke-width:1.0;" x1="587.5" x2="1362" y1="1728.6777" y2="1728.6777"/><text fill="#000000" font-family="sans-serif" font-size="13" lengthAdjust="spacing" textLength="126" x="914.75" y="1723.9355">build request object</text><polygon fill="#181818" points="2093.5,1753.9883,2103.5,1757.9883,2093.5,1761.9883" style="stroke:#181818;stroke-width:1.0;"/><line style="stroke:#181818;stroke-width:1.0;" x1="1368" x2="2099.5" y1="1757.9883" y2="1757.9883"/><text fill="#000000" font-family="sans-serif" font-size="13" lengthAdjust="spacing" textLength="138" x="1667.75" y="1753.2461">send backend request</text><path d="M20,1772.9883 L82,1772.9883 L82,1780.2988 L72,1790.2988 L20,1790.2988 L20,1772.9883 " fill="#EEEEEE" style="stroke:#000000;stroke-width:1.5;"/><rect fill="none" height="193.1738" style="stroke:#000000;stroke-width:1.5;" width="2166" x="20" y="1772.9883"/><text fill="#000000" font-family="sans-serif" font-size="13" font-weight="bold" lengthAdjust="spacing" textLength="17" x="35" y="1786.5566">alt</text><text fill="#000000" font-family="sans-serif" font-size="11" font-weight="bold" lengthAdjust="spacing" textLength="166" x="97" y="1785.623">[Failed to update courtrooms]</text><polygon fill="#181818" points="1379,1807.6094,1369,1811.6094,1379,1815.6094" style="stroke:#181818;stroke-width:1.0;"/><line style="stroke:#181818;stroke-width:1.0;stroke-dasharray:2.0,2.0;" x1="1373" x2="2104.5" y1="1811.6094" y2="1811.6094"/><text fill="#000000" font-family="sans-serif" font-size="13" lengthAdjust="spacing" textLength="91" x="1691.25" y="1806.8672">Error response</text><polygon fill="#181818" points="598.5,1836.9199,588.5,1840.9199,598.5,1844.9199" style="stroke:#181818;stroke-width:1.0;"/><line style="stroke:#181818;stroke-width:1.0;stroke-dasharray:2.0,2.0;" x1="592.5" x2="1367" y1="1840.9199" y2="1840.9199"/><text fill="#000000" font-family="sans-serif" font-size="13" lengthAdjust="spacing" textLength="127" x="914.25" y="1836.1777">reject requestObject</text><polygon fill="#181818" points="1933,1866.2305,1943,1870.2305,1933,1874.2305" style="stroke:#181818;stroke-width:1.0;"/><line style="stroke:#181818;stroke-width:1.0;" x1="587.5" x2="1939" y1="1870.2305" y2="1870.2305"/><text fill="#000000" font-family="sans-serif" font-size="13" lengthAdjust="spacing" textLength="169" x="1181.75" y="1865.4883">request and build template</text><polygon fill="#181818" points="598.5,1895.541,588.5,1899.541,598.5,1903.541" style="stroke:#181818;stroke-width:1.0;"/><line style="stroke:#181818;stroke-width:1.0;" x1="592.5" x2="1944" y1="1899.541" y2="1899.541"/><text fill="#000000" font-family="sans-serif" font-size="13" lengthAdjust="spacing" textLength="78" x="1227.25" y="1894.7988">return HTML</text><polygon fill="#181818" points="420,1924.8516,410,1928.8516,420,1932.8516" style="stroke:#181818;stroke-width:1.0;"/><line style="stroke:#181818;stroke-width:1.0;" x1="414" x2="586.5" y1="1928.8516" y2="1928.8516"/><text fill="#000000" font-family="sans-serif" font-size="13" lengthAdjust="spacing" textLength="78" x="459.25" y="1924.1094">return HTML</text><polygon fill="#181818" points="66.5,1954.1621,56.5,1958.1621,66.5,1962.1621" style="stroke:#181818;stroke-width:1.0;"/><line style="stroke:#181818;stroke-width:1.0;" x1="60.5" x2="408" y1="1958.1621" y2="1958.1621"/><text fill="#000000" font-family="sans-serif" font-size="13" lengthAdjust="spacing" textLength="108" x="178.25" y="1953.4199">render error page</text><polygon fill="#181818" points="1379,1990.4727,1369,1994.4727,1379,1998.4727" style="stroke:#181818;stroke-width:1.0;"/><line style="stroke:#181818;stroke-width:1.0;" x1="1373" x2="2104.5" y1="1994.4727" y2="1994.4727"/><text fill="#000000" font-family="sans-serif" font-size="13" lengthAdjust="spacing" textLength="77" x="1698.25" y="1989.7305">ok response</text><polygon fill="#181818" points="598.5,2019.7832,588.5,2023.7832,598.5,2027.7832" style="stroke:#181818;stroke-width:1.0;"/><line style="stroke:#181818;stroke-width:1.0;" x1="592.5" x2="1367" y1="2023.7832" y2="2023.7832"/><text fill="#000000" font-family="sans-serif" font-size="13" lengthAdjust="spacing" textLength="96" x="929.75" y="2019.041">resolve request</text><!--SRC=[jPJRRjf048Rl_HJJ91A9nE6-Yf2CSIDQWbCmkQsMzHGMhtUflKwLj-_Ovc2RGqsLtY2nE_F_CxFVU2K2X5H9eK8Ch4z2SPdIoH8Lne9t5bBpCEbk95CcZQHb9Q5G6nQp26RcNI8aXiAoAoXVuQyK5STdJ1AsH5kAfOfG6U3qWx5bKPWHN6n85MnkD1srMYqOUuuzXgatzqUJfqgGezFO3D4m8PCNaeJ7nnuB8g445S2CqAh7iv1EKCJq-vNqfw8TDuvrl4l7x0_5vSwED_6dtdZiJi6U367gVf-xCn-ymLVNyMTdIt6qCh6M4cDIh1JGvVkhxfhAWLiQmigyevJwzrazRx56RdPQsyEXxNMNQEuVBgdCDm4ps4Xha_v5ArU9jOvg6ldHjTLSqZbPIVuUh_PuDBHzRtf-zgzC2dBHCTmkjGoAFDzzVXdRldi-pSU8Q3Qd2ChhwgfrMACdnwQKzoD79-bjbwJ8e2RO6we0jomFREURIoWToAfe3XWFAVe0a6NbYm2T_X7idu5BmKF8XmTRmC2mXNMq5hNi4fyamgIiQV2I_Tss7Vjbv53a_McTzWbUszK9jU7c2rrY04R3JpHy1VjdtpdVF5pdLwBe2hVCnhgByrVPnViw6rIZxWuMzJcJB9CxpAipjG0kF2G6mXp5V-0h0lodTYzsLU2P4FyVtirRiUKuKjd7eaaR- -z2y-x8fo6Cvpwpbw1CIvJKTk2VZ1lkGjqsyoCqh3y0]--></g></svg>