<?xml version="1.0" encoding="us-ascii" standalone="no"?><svg xmlns="http://www.w3.org/2000/svg" xmlns:xlink="http://www.w3.org/1999/xlink" contentStyleType="text/css" height="1111px" preserveAspectRatio="none" style="width:2234px;height:1111px;background:#FFFFFF;" version="1.1" viewBox="0 0 2234 1111" width="2234px" zoomAndPan="magnify"><defs/><g><rect fill="none" height="193.1738" style="stroke:#000000;stroke-width:1.5;" width="2198" x="20" y="187.2188"/><rect fill="none" height="517.5898" style="stroke:#000000;stroke-width:1.5;" width="2218" x="10" y="570.2559"/><rect fill="none" height="193.1738" style="stroke:#000000;stroke-width:1.5;" width="2198" x="20" y="711.8086"/><line style="stroke:#181818;stroke-width:0.5;stroke-dasharray:5.0,5.0;" x1="55" x2="55" y1="52.9766" y2="1104.8457"/><line style="stroke:#181818;stroke-width:0.5;stroke-dasharray:5.0,5.0;" x1="202" x2="202" y1="52.9766" y2="1104.8457"/><line style="stroke:#181818;stroke-width:0.5;stroke-dasharray:5.0,5.0;" x1="458" x2="458" y1="52.9766" y2="1104.8457"/><line style="stroke:#181818;stroke-width:0.5;stroke-dasharray:5.0,5.0;" x1="670" x2="670" y1="52.9766" y2="1104.8457"/><line style="stroke:#181818;stroke-width:0.5;stroke-dasharray:5.0,5.0;" x1="822" x2="822" y1="52.9766" y2="1104.8457"/><line style="stroke:#181818;stroke-width:0.5;stroke-dasharray:5.0,5.0;" x1="978" x2="978" y1="52.9766" y2="1104.8457"/><line style="stroke:#181818;stroke-width:0.5;stroke-dasharray:5.0,5.0;" x1="1144" x2="1144" y1="52.9766" y2="1104.8457"/><line style="stroke:#181818;stroke-width:0.5;stroke-dasharray:5.0,5.0;" x1="1412" x2="1412" y1="52.9766" y2="1104.8457"/><line style="stroke:#181818;stroke-width:0.5;stroke-dasharray:5.0,5.0;" x1="1740" x2="1740" y1="52.9766" y2="1104.8457"/><line style="stroke:#181818;stroke-width:0.5;stroke-dasharray:5.0,5.0;" x1="1977" x2="1977" y1="52.9766" y2="1104.8457"/><line style="stroke:#181818;stroke-width:0.5;stroke-dasharray:5.0,5.0;" x1="2137" x2="2137" y1="52.9766" y2="1104.8457"/><rect fill="#E2E2F0" height="30.4883" rx="2.5" ry="2.5" style="stroke:#181818;stroke-width:0.5;" width="51" x="30" y="21.4883"/><text fill="#000000" font-family="sans-serif" font-size="14" lengthAdjust="spacing" textLength="37" x="37" y="42.0234">Actor</text><rect fill="#E2E2F0" height="46.9766" rx="2.5" ry="2.5" style="stroke:#181818;stroke-width:0.5;" width="223" x="91" y="5"/><text fill="#000000" font-family="sans-serif" font-size="14" font-style="italic" lengthAdjust="spacing" textLength="209" x="98" y="25.5352">&#171;/administration/users/users&#187;</text><text fill="#000000" font-family="sans-serif" font-size="14" lengthAdjust="spacing" textLength="71" x="167" y="42.0234">UsersPage</text><rect fill="#E2E2F0" height="46.9766" rx="2.5" ry="2.5" style="stroke:#181818;stroke-width:0.5;" width="269" x="324" y="5"/><text fill="#000000" font-family="sans-serif" font-size="14" font-style="italic" lengthAdjust="spacing" textLength="255" x="331" y="25.5352">&#171;/administration/users/user-record&#187;</text><text fill="#000000" font-family="sans-serif" font-size="14" lengthAdjust="spacing" textLength="112" x="402.5" y="42.0234">UserRecordPage</text><rect fill="#E2E2F0" height="46.9766" rx="2.5" ry="2.5" style="stroke:#181818;stroke-width:0.5;" width="134" x="603" y="5"/><text fill="#000000" font-family="sans-serif" font-size="14" font-style="italic" lengthAdjust="spacing" textLength="56" x="642" y="25.5352">&#171;/error&#187;</text><text fill="#000000" font-family="sans-serif" font-size="14" lengthAdjust="spacing" textLength="120" x="610" y="42.0234">GenericErrorPage</text><rect fill="#FFFFE0" height="46.9766" rx="2.5" ry="2.5" style="stroke:#181818;stroke-width:0.5;" width="151" x="747" y="5"/><text fill="#000000" font-family="sans-serif" font-size="14" font-style="italic" lengthAdjust="spacing" textLength="137" x="754" y="25.5352">&#171;users.controller.js&#187;</text><text fill="#000000" font-family="sans-serif" font-size="14" lengthAdjust="spacing" textLength="108" x="768.5" y="42.0234">UsersController</text><rect fill="#FFFFE0" height="46.9766" rx="2.5" ry="2.5" style="stroke:#181818;stroke-width:0.5;" width="140" x="908" y="5"/><text fill="#000000" font-family="sans-serif" font-size="14" font-style="italic" lengthAdjust="spacing" textLength="126" x="915" y="25.5352">&#171;usersDAO.post()&#187;</text><text fill="#000000" font-family="sans-serif" font-size="14" lengthAdjust="spacing" textLength="82" x="937" y="42.0234">UsersObject</text><rect fill="#FFFFE0" height="46.9766" rx="2.5" ry="2.5" style="stroke:#181818;stroke-width:0.5;" width="173" x="1058" y="5"/><text fill="#000000" font-family="sans-serif" font-size="14" font-style="italic" lengthAdjust="spacing" textLength="159" x="1065" y="25.5352">&#171;userRecordDAO.get()&#187;</text><text fill="#000000" font-family="sans-serif" font-size="14" lengthAdjust="spacing" textLength="123" x="1083" y="42.0234">UserRecordObject</text><rect fill="#E2E2F0" height="46.9766" rx="2.5" ry="2.5" style="stroke:#181818;stroke-width:0.5;" width="342" x="1241" y="5"/><text fill="#000000" font-family="sans-serif" font-size="14" font-style="italic" lengthAdjust="spacing" textLength="328" x="1248" y="25.5352">&#171;/administration/users/court-bureau-user.njk&#187;</text><text fill="#000000" font-family="sans-serif" font-size="14" lengthAdjust="spacing" textLength="102" x="1361" y="42.0234">UsersTemplate</text><rect fill="#E2E2F0" height="46.9766" rx="2.5" ry="2.5" style="stroke:#181818;stroke-width:0.5;" width="294" x="1593" y="5"/><text fill="#000000" font-family="sans-serif" font-size="14" font-style="italic" lengthAdjust="spacing" textLength="280" x="1600" y="25.5352">&#171;/administration/users/user-record.njk&#187;</text><text fill="#000000" font-family="sans-serif" font-size="14" lengthAdjust="spacing" textLength="143" x="1668.5" y="42.0234">UserRecordTemplate</text><rect fill="#E6E6FA" height="46.9766" rx="2.5" ry="2.5" style="stroke:#181818;stroke-width:0.5;" width="160" x="1897" y="5"/><text fill="#000000" font-family="sans-serif" font-size="14" font-style="italic" lengthAdjust="spacing" textLength="146" x="1904" y="25.5352">&#171;_errors/generic.njk&#187;</text><text fill="#000000" font-family="sans-serif" font-size="14" lengthAdjust="spacing" textLength="99" x="1927.5" y="42.0234">ErrorTemplate</text><rect fill="#E2E2F0" height="30.4883" rx="2.5" ry="2.5" style="stroke:#181818;stroke-width:0.5;" width="141" x="2067" y="21.4883"/><text fill="#000000" font-family="sans-serif" font-size="14" lengthAdjust="spacing" textLength="127" x="2074" y="42.0234">BackendController</text><polygon fill="#181818" points="190.5,80.2871,200.5,84.2871,190.5,88.2871" style="stroke:#181818;stroke-width:1.0;"/><line style="stroke:#181818;stroke-width:1.0;" x1="55.5" x2="196.5" y1="84.2871" y2="84.2871"/><text fill="#000000" font-family="sans-serif" font-size="13" lengthAdjust="spacing" textLength="92" x="83" y="79.5449">click users tab</text><polygon fill="#181818" points="810.5,109.5977,820.5,113.5977,810.5,117.5977" style="stroke:#181818;stroke-width:1.0;"/><line style="stroke:#181818;stroke-width:1.0;" x1="202.5" x2="816.5" y1="113.5977" y2="113.5977"/><text fill="#000000" font-family="sans-serif" font-size="13" lengthAdjust="spacing" textLength="125" x="450" y="108.8555">call users controller</text><polygon fill="#181818" points="966,138.9082,976,142.9082,966,146.9082" style="stroke:#181818;stroke-width:1.0;"/><line style="stroke:#181818;stroke-width:1.0;" x1="822.5" x2="972" y1="142.9082" y2="142.9082"/><text fill="#000000" font-family="sans-serif" font-size="13" lengthAdjust="spacing" textLength="126" x="837.25" y="138.166">build request object</text><polygon fill="#181818" points="2125.5,168.2188,2135.5,172.2188,2125.5,176.2188" style="stroke:#181818;stroke-width:1.0;"/><line style="stroke:#181818;stroke-width:1.0;" x1="978" x2="2131.5" y1="172.2188" y2="172.2188"/><text fill="#000000" font-family="sans-serif" font-size="13" lengthAdjust="spacing" textLength="138" x="1488.75" y="167.4766">send backend request</text><path d="M20,187.2188 L82,187.2188 L82,194.5293 L72,204.5293 L20,204.5293 L20,187.2188 " fill="#EEEEEE" style="stroke:#000000;stroke-width:1.5;"/><rect fill="none" height="193.1738" style="stroke:#000000;stroke-width:1.5;" width="2198" x="20" y="187.2188"/><text fill="#000000" font-family="sans-serif" font-size="13" font-weight="bold" lengthAdjust="spacing" textLength="17" x="35" y="200.7871">alt</text><text fill="#000000" font-family="sans-serif" font-size="11" font-weight="bold" lengthAdjust="spacing" textLength="160" x="97" y="199.8535">[Failed to fetch list of users]</text><polygon fill="#181818" points="989,221.8398,979,225.8398,989,229.8398" style="stroke:#181818;stroke-width:1.0;"/><line style="stroke:#181818;stroke-width:1.0;stroke-dasharray:2.0,2.0;" x1="983" x2="2136.5" y1="225.8398" y2="225.8398"/><text fill="#000000" font-family="sans-serif" font-size="13" lengthAdjust="spacing" textLength="91" x="1512.25" y="221.0977">Error response</text><polygon fill="#181818" points="833.5,251.1504,823.5,255.1504,833.5,259.1504" style="stroke:#181818;stroke-width:1.0;"/><line style="stroke:#181818;stroke-width:1.0;stroke-dasharray:2.0,2.0;" x1="827.5" x2="977" y1="255.1504" y2="255.1504"/><text fill="#000000" font-family="sans-serif" font-size="13" lengthAdjust="spacing" textLength="127" x="836.75" y="250.4082">reject requestObject</text><polygon fill="#181818" points="1965,280.4609,1975,284.4609,1965,288.4609" style="stroke:#181818;stroke-width:1.0;"/><line style="stroke:#181818;stroke-width:1.0;" x1="822.5" x2="1971" y1="284.4609" y2="284.4609"/><text fill="#000000" font-family="sans-serif" font-size="13" lengthAdjust="spacing" textLength="169" x="1315.25" y="279.7188">request and build template</text><polygon fill="#181818" points="833.5,309.7715,823.5,313.7715,833.5,317.7715" style="stroke:#181818;stroke-width:1.0;"/><line style="stroke:#181818;stroke-width:1.0;" x1="827.5" x2="1976" y1="313.7715" y2="313.7715"/><text fill="#000000" font-family="sans-serif" font-size="13" lengthAdjust="spacing" textLength="78" x="1360.75" y="309.0293">return HTML</text><polygon fill="#181818" points="681,339.082,671,343.082,681,347.082" style="stroke:#181818;stroke-width:1.0;"/><line style="stroke:#181818;stroke-width:1.0;" x1="675" x2="821.5" y1="343.082" y2="343.082"/><text fill="#000000" font-family="sans-serif" font-size="13" lengthAdjust="spacing" textLength="78" x="707.25" y="338.3398">return HTML</text><polygon fill="#181818" points="66.5,368.3926,56.5,372.3926,66.5,376.3926" style="stroke:#181818;stroke-width:1.0;"/><line style="stroke:#181818;stroke-width:1.0;" x1="60.5" x2="669" y1="372.3926" y2="372.3926"/><text fill="#000000" font-family="sans-serif" font-size="13" lengthAdjust="spacing" textLength="108" x="308.75" y="367.6504">render error page</text><polygon fill="#181818" points="989,404.7031,979,408.7031,989,412.7031" style="stroke:#181818;stroke-width:1.0;"/><line style="stroke:#181818;stroke-width:1.0;" x1="983" x2="2136.5" y1="408.7031" y2="408.7031"/><text fill="#000000" font-family="sans-serif" font-size="13" lengthAdjust="spacing" textLength="77" x="1519.25" y="403.9609">ok response</text><polygon fill="#181818" points="833.5,434.0137,823.5,438.0137,833.5,442.0137" style="stroke:#181818;stroke-width:1.0;"/><line style="stroke:#181818;stroke-width:1.0;" x1="827.5" x2="977" y1="438.0137" y2="438.0137"/><text fill="#000000" font-family="sans-serif" font-size="13" lengthAdjust="spacing" textLength="96" x="852.25" y="433.2715">resolve request</text><polygon fill="#181818" points="1400,463.3242,1410,467.3242,1400,471.3242" style="stroke:#181818;stroke-width:1.0;"/><line style="stroke:#181818;stroke-width:1.0;" x1="822.5" x2="1406" y1="467.3242" y2="467.3242"/><text fill="#000000" font-family="sans-serif" font-size="13" lengthAdjust="spacing" textLength="169" x="1032.75" y="462.582">request and build template</text><polygon fill="#181818" points="833.5,492.6348,823.5,496.6348,833.5,500.6348" style="stroke:#181818;stroke-width:1.0;"/><line style="stroke:#181818;stroke-width:1.0;" x1="827.5" x2="1411" y1="496.6348" y2="496.6348"/><text fill="#000000" font-family="sans-serif" font-size="13" lengthAdjust="spacing" textLength="78" x="1078.25" y="491.8926">return HTML</text><polygon fill="#181818" points="213.5,521.9453,203.5,525.9453,213.5,529.9453" style="stroke:#181818;stroke-width:1.0;"/><line style="stroke:#181818;stroke-width:1.0;" x1="207.5" x2="821.5" y1="525.9453" y2="525.9453"/><text fill="#000000" font-family="sans-serif" font-size="13" lengthAdjust="spacing" textLength="78" x="473.5" y="521.2031">return HTML</text><polygon fill="#181818" points="66.5,551.2559,56.5,555.2559,66.5,559.2559" style="stroke:#181818;stroke-width:1.0;"/><line style="stroke:#181818;stroke-width:1.0;" x1="60.5" x2="201.5" y1="555.2559" y2="555.2559"/><text fill="#000000" font-family="sans-serif" font-size="13" lengthAdjust="spacing" textLength="80" x="89" y="550.5137">render HTML</text><path d="M10,570.2559 L72,570.2559 L72,577.5664 L62,587.5664 L10,587.5664 L10,570.2559 " fill="#EEEEEE" style="stroke:#000000;stroke-width:1.5;"/><rect fill="none" height="517.5898" style="stroke:#000000;stroke-width:1.5;" width="2218" x="10" y="570.2559"/><text fill="#000000" font-family="sans-serif" font-size="13" font-weight="bold" lengthAdjust="spacing" textLength="17" x="25" y="583.8242">alt</text><text fill="#000000" font-family="sans-serif" font-size="11" font-weight="bold" lengthAdjust="spacing" textLength="118" x="87" y="582.8906">[Select a user record]</text><polygon fill="#181818" points="190.5,604.877,200.5,608.877,190.5,612.877" style="stroke:#181818;stroke-width:1.0;"/><line style="stroke:#181818;stroke-width:1.0;" x1="55.5" x2="196.5" y1="608.877" y2="608.877"/><text fill="#000000" font-family="sans-serif" font-size="13" lengthAdjust="spacing" textLength="92" x="83" y="604.1348">click on a user</text><polygon fill="#181818" points="810.5,634.1875,820.5,638.1875,810.5,642.1875" style="stroke:#181818;stroke-width:1.0;"/><line style="stroke:#181818;stroke-width:1.0;" x1="202.5" x2="816.5" y1="638.1875" y2="638.1875"/><text fill="#000000" font-family="sans-serif" font-size="13" lengthAdjust="spacing" textLength="125" x="450" y="633.4453">call users controller</text><polygon fill="#181818" points="1132.5,663.498,1142.5,667.498,1132.5,671.498" style="stroke:#181818;stroke-width:1.0;"/><line style="stroke:#181818;stroke-width:1.0;" x1="822.5" x2="1138.5" y1="667.498" y2="667.498"/><text fill="#000000" font-family="sans-serif" font-size="13" lengthAdjust="spacing" textLength="126" x="920.5" y="662.7559">build request object</text><polygon fill="#181818" points="2125.5,692.8086,2135.5,696.8086,2125.5,700.8086" style="stroke:#181818;stroke-width:1.0;"/><line style="stroke:#181818;stroke-width:1.0;" x1="1144.5" x2="2131.5" y1="696.8086" y2="696.8086"/><text fill="#000000" font-family="sans-serif" font-size="13" lengthAdjust="spacing" textLength="138" x="1572" y="692.0664">send backend request</text><path d="M20,711.8086 L82,711.8086 L82,719.1191 L72,729.1191 L20,729.1191 L20,711.8086 " fill="#EEEEEE" style="stroke:#000000;stroke-width:1.5;"/><rect fill="none" height="193.1738" style="stroke:#000000;stroke-width:1.5;" width="2198" x="20" y="711.8086"/><text fill="#000000" font-family="sans-serif" font-size="13" font-weight="bold" lengthAdjust="spacing" textLength="17" x="35" y="725.377">alt</text><text fill="#000000" font-family="sans-serif" font-size="11" font-weight="bold" lengthAdjust="spacing" textLength="156" x="97" y="724.4434">[Failed to fetch user record]</text><polygon fill="#181818" points="1155.5,746.4297,1145.5,750.4297,1155.5,754.4297" style="stroke:#181818;stroke-width:1.0;"/><line style="stroke:#181818;stroke-width:1.0;stroke-dasharray:2.0,2.0;" x1="1149.5" x2="2136.5" y1="750.4297" y2="750.4297"/><text fill="#000000" font-family="sans-serif" font-size="13" lengthAdjust="spacing" textLength="91" x="1595.5" y="745.6875">Error response</text><polygon fill="#181818" points="833.5,775.7402,823.5,779.7402,833.5,783.7402" style="stroke:#181818;stroke-width:1.0;"/><line style="stroke:#181818;stroke-width:1.0;stroke-dasharray:2.0,2.0;" x1="827.5" x2="1143.5" y1="779.7402" y2="779.7402"/><text fill="#000000" font-family="sans-serif" font-size="13" lengthAdjust="spacing" textLength="127" x="920" y="774.998">reject requestObject</text><polygon fill="#181818" points="1965,805.0508,1975,809.0508,1965,813.0508" style="stroke:#181818;stroke-width:1.0;"/><line style="stroke:#181818;stroke-width:1.0;" x1="822.5" x2="1971" y1="809.0508" y2="809.0508"/><text fill="#000000" font-family="sans-serif" font-size="13" lengthAdjust="spacing" textLength="169" x="1315.25" y="804.3086">request and build template</text><polygon fill="#181818" points="833.5,834.3613,823.5,838.3613,833.5,842.3613" style="stroke:#181818;stroke-width:1.0;"/><line style="stroke:#181818;stroke-width:1.0;" x1="827.5" x2="1976" y1="838.3613" y2="838.3613"/><text fill="#000000" font-family="sans-serif" font-size="13" lengthAdjust="spacing" textLength="78" x="1360.75" y="833.6191">return HTML</text><polygon fill="#181818" points="681,863.6719,671,867.6719,681,871.6719" style="stroke:#181818;stroke-width:1.0;"/><line style="stroke:#181818;stroke-width:1.0;" x1="675" x2="821.5" y1="867.6719" y2="867.6719"/><text fill="#000000" font-family="sans-serif" font-size="13" lengthAdjust="spacing" textLength="78" x="707.25" y="862.9297">return HTML</text><polygon fill="#181818" points="66.5,892.9824,56.5,896.9824,66.5,900.9824" style="stroke:#181818;stroke-width:1.0;"/><line style="stroke:#181818;stroke-width:1.0;" x1="60.5" x2="669" y1="896.9824" y2="896.9824"/><text fill="#000000" font-family="sans-serif" font-size="13" lengthAdjust="spacing" textLength="108" x="308.75" y="892.2402">render error page</text><polygon fill="#181818" points="1155.5,929.293,1145.5,933.293,1155.5,937.293" style="stroke:#181818;stroke-width:1.0;"/><line style="stroke:#181818;stroke-width:1.0;" x1="1149.5" x2="2136.5" y1="933.293" y2="933.293"/><text fill="#000000" font-family="sans-serif" font-size="13" lengthAdjust="spacing" textLength="77" x="1602.5" y="928.5508">ok response</text><polygon fill="#181818" points="833.5,958.6035,823.5,962.6035,833.5,966.6035" style="stroke:#181818;stroke-width:1.0;"/><line style="stroke:#181818;stroke-width:1.0;" x1="827.5" x2="1143.5" y1="962.6035" y2="962.6035"/><text fill="#000000" font-family="sans-serif" font-size="13" lengthAdjust="spacing" textLength="96" x="935.5" y="957.8613">resolve request</text><polygon fill="#181818" points="1728,987.9141,1738,991.9141,1728,995.9141" style="stroke:#181818;stroke-width:1.0;"/><line style="stroke:#181818;stroke-width:1.0;" x1="822.5" x2="1734" y1="991.9141" y2="991.9141"/><text fill="#000000" font-family="sans-serif" font-size="13" lengthAdjust="spacing" textLength="169" x="1196.75" y="987.1719">request and build template</text><polygon fill="#181818" points="833.5,1017.2246,823.5,1021.2246,833.5,1025.2246" style="stroke:#181818;stroke-width:1.0;"/><line style="stroke:#181818;stroke-width:1.0;" x1="827.5" x2="1739" y1="1021.2246" y2="1021.2246"/><text fill="#000000" font-family="sans-serif" font-size="13" lengthAdjust="spacing" textLength="78" x="1242.25" y="1016.4824">return HTML</text><polygon fill="#181818" points="469.5,1046.5352,459.5,1050.5352,469.5,1054.5352" style="stroke:#181818;stroke-width:1.0;"/><line style="stroke:#181818;stroke-width:1.0;" x1="463.5" x2="821.5" y1="1050.5352" y2="1050.5352"/><text fill="#000000" font-family="sans-serif" font-size="13" lengthAdjust="spacing" textLength="78" x="601.5" y="1045.793">return HTML</text><polygon fill="#181818" points="66.5,1075.8457,56.5,1079.8457,66.5,1083.8457" style="stroke:#181818;stroke-width:1.0;"/><line style="stroke:#181818;stroke-width:1.0;" x1="60.5" x2="457.5" y1="1079.8457" y2="1079.8457"/><text fill="#000000" font-family="sans-serif" font-size="13" lengthAdjust="spacing" textLength="80" x="217" y="1075.1035">render HTML</text><!--SRC=[vLThSnet5FskNt6RTCOmuyMFEfs6oNWAU4tYWg6mv6j7xCeW8oIgrTBnl- -LTZ7x8dRYPD877tQCzfmZtNCVo4iUCKYau7B58l83bw58S6N19DCyzEP2XQkujH5KccGj28bNN6wefckOcWV183O8iwyW_uhzcJ0PiY6BOxfW7S4NSisaWH0VJ1E2CCD3la5Lw8H6uTBHqH4CHhtE02QZMV3Xjby0pMAcup5gmRjt9pHQSybnPsguaYU9VPS-Boyhh0aBbOwUf7hQuKe2_TG6NskbTnBCVa6SEt5lT1jCHeE1Fu7ExHLC_Dzd_ZI0KVV6xmNJQWWz9OrMGZ2DKcxtLlYurBh70E0rkhKq3qm8zLTLO3I_Pw7PaQywezP6nQRHV8gOsb1WfqjMOi5g55nyWJyS3pg1NnDAmDPO5kQmhQ5AjF7cYMOqyUnIIzwl3cReIRbSbcg4N8fo6d-uDCKdMI6d30oGRfcCM5PltKxlDn_JjizYGRDBmnMYzpaZn1KhU9VxWcn3A7Yu0dT8C7HEzhMwm-MoZd0gH8OESye_PYVjZ3_q4D4e4O_pwJykXdiChwuf5om2e-2EcN090jq3TPVkywg9yjh5lQC4oXxmm2PxtSTGK84AWuqjRFrGfmjfCWZWvx0lIcPmX_ioRoppMVxag_nfat91e4Lka-UxLApQuzAiQH8K8h_Q1raMHcps-MPpz9y-DV_L8_6_DWI_sxI32dJ7plBHXdd2HOJjYIrWPvbRtl4o478gfqPcZ0imJr_i1D8XOcVO9qVbVaZjwiBpQlTmLgDul54oPdjQlfgHMWn9C_T7TgHqEJrO7H-ZAoQq_UW6jG4wVqpsajJjNyCtYPRmFXWEa53jKwycWqLEMX88h90jqbOLkAA33QuXtat0igMrZgfLtiwQOCfUnafiMJw_Xqhg1GPM-NapSlFrCvpRinujSv3l_GjxqC32eFnaOnQGNwKxopPK1_VB6xGKt_-xIqlcVdchLbmjzkipAkw5VLiZKcxU_3NdCpiuHossyVxYDxR_DS-60zYYBlw6mrdh_FJyelLJ8rWcSCtcSFO6pjwsBqxRfs-WFmp0lcwIHdyys9v3Z5U7a45axm1ydjXRG9FSq2s5II8DN-C0iDyQmR09Kt-t2BxSSgtSFP7SV1oc87Ylp7IZZ0F_VE5rkHqr6Wy67uVaYjtH19lFbw6Ak5oqOHPSUx-G0PMBn4qQ9abFuGRweGtzxjy0]--></g></svg>