<?xml version="1.0" encoding="us-ascii" standalone="no"?><svg xmlns="http://www.w3.org/2000/svg" xmlns:xlink="http://www.w3.org/1999/xlink" contentStyleType="text/css" height="1375px" preserveAspectRatio="none" style="width:2040px;height:1375px;background:#FFFFFF;" version="1.1" viewBox="0 0 2040 1375" width="2040px" zoomAndPan="magnify"><defs/><g><rect fill="none" height="193.1738" style="stroke:#000000;stroke-width:1.5;" width="2024" x="10" y="187.2188"/><rect fill="none" height="163.8633" style="stroke:#000000;stroke-width:1.5;" width="1703" x="10" y="834.0508"/><rect fill="none" height="193.1738" style="stroke:#000000;stroke-width:1.5;" width="2024" x="10" y="1099.8457"/><line style="stroke:#181818;stroke-width:0.5;stroke-dasharray:5.0,5.0;" x1="45" x2="45" y1="52.9766" y2="1368.6406"/><line style="stroke:#181818;stroke-width:0.5;stroke-dasharray:5.0,5.0;" x1="245" x2="245" y1="52.9766" y2="1368.6406"/><line style="stroke:#181818;stroke-width:0.5;stroke-dasharray:5.0,5.0;" x1="467" x2="467" y1="52.9766" y2="1368.6406"/><line style="stroke:#181818;stroke-width:0.5;stroke-dasharray:5.0,5.0;" x1="674" x2="674" y1="52.9766" y2="1368.6406"/><line style="stroke:#181818;stroke-width:0.5;stroke-dasharray:5.0,5.0;" x1="897" x2="897" y1="52.9766" y2="1368.6406"/><line style="stroke:#181818;stroke-width:0.5;stroke-dasharray:5.0,5.0;" x1="1092" x2="1092" y1="52.9766" y2="1368.6406"/><line style="stroke:#181818;stroke-width:0.5;stroke-dasharray:5.0,5.0;" x1="1292" x2="1292" y1="52.9766" y2="1368.6406"/><line style="stroke:#181818;stroke-width:0.5;stroke-dasharray:5.0,5.0;" x1="1546" x2="1546" y1="52.9766" y2="1368.6406"/><line style="stroke:#181818;stroke-width:0.5;stroke-dasharray:5.0,5.0;" x1="1793" x2="1793" y1="52.9766" y2="1368.6406"/><line style="stroke:#181818;stroke-width:0.5;stroke-dasharray:5.0,5.0;" x1="1953" x2="1953" y1="52.9766" y2="1368.6406"/><rect fill="#E2E2F0" height="30.4883" rx="2.5" ry="2.5" style="stroke:#181818;stroke-width:0.5;" width="51" x="20" y="21.4883"/><text fill="#000000" font-family="sans-serif" font-size="14" lengthAdjust="spacing" textLength="37" x="27" y="42.0234">Actor</text><rect fill="#E2E2F0" height="46.9766" rx="2.5" ry="2.5" style="stroke:#181818;stroke-width:0.5;" width="289" x="101" y="5"/><text fill="#000000" font-family="sans-serif" font-size="14" font-style="italic" lengthAdjust="spacing" textLength="275" x="108" y="25.5352">&#171;/administration/expense-limits-court&#187;</text><text fill="#000000" font-family="sans-serif" font-size="14" lengthAdjust="spacing" textLength="131" x="180" y="42.0234">ExpenseLimitsPage</text><rect fill="#E2E2F0" height="46.9766" rx="2.5" ry="2.5" style="stroke:#181818;stroke-width:0.5;" width="134" x="400" y="5"/><text fill="#000000" font-family="sans-serif" font-size="14" font-style="italic" lengthAdjust="spacing" textLength="56" x="439" y="25.5352">&#171;/error&#187;</text><text fill="#000000" font-family="sans-serif" font-size="14" lengthAdjust="spacing" textLength="120" x="407" y="42.0234">GenericErrorPage</text><rect fill="#FFFFE0" height="46.9766" rx="2.5" ry="2.5" style="stroke:#181818;stroke-width:0.5;" width="261" x="544" y="5"/><text fill="#000000" font-family="sans-serif" font-size="14" font-style="italic" lengthAdjust="spacing" textLength="247" x="551" y="25.5352">&#171;expense-limits-court.controller.js&#187;</text><text fill="#000000" font-family="sans-serif" font-size="14" lengthAdjust="spacing" textLength="168" x="590.5" y="42.0234">ExpenseLimitsController</text><rect fill="#FFFFE0" height="46.9766" rx="2.5" ry="2.5" style="stroke:#181818;stroke-width:0.5;" width="165" x="815" y="5"/><text fill="#000000" font-family="sans-serif" font-size="14" font-style="italic" lengthAdjust="spacing" textLength="151" x="822" y="25.5352">&#171;transportRates.get()&#187;</text><text fill="#000000" font-family="sans-serif" font-size="14" lengthAdjust="spacing" textLength="142" x="826.5" y="42.0234">ExpenseLimitsObject</text><rect fill="#FFFFE0" height="46.9766" rx="2.5" ry="2.5" style="stroke:#181818;stroke-width:0.5;" width="205" x="990" y="5"/><text fill="#000000" font-family="sans-serif" font-size="14" font-style="italic" lengthAdjust="spacing" textLength="152" x="1016.5" y="25.5352">&#171;transportRates.put()&#187;</text><text fill="#000000" font-family="sans-serif" font-size="14" lengthAdjust="spacing" textLength="191" x="997" y="42.0234">UpdateExpenseLimitsObject</text><rect fill="#FFD700" height="30.4883" rx="2.5" ry="2.5" style="stroke:#181818;stroke-width:0.5;" width="174" x="1205" y="21.4883"/><text fill="#000000" font-family="sans-serif" font-size="14" lengthAdjust="spacing" textLength="160" x="1212" y="42.0234">ExpenseLimitsValidator</text><rect fill="#E2E2F0" height="46.9766" rx="2.5" ry="2.5" style="stroke:#181818;stroke-width:0.5;" width="314" x="1389" y="5"/><text fill="#000000" font-family="sans-serif" font-size="14" font-style="italic" lengthAdjust="spacing" textLength="300" x="1396" y="25.5352">&#171;/administration/expense-limits-court.njk&#187;</text><text fill="#000000" font-family="sans-serif" font-size="14" lengthAdjust="spacing" textLength="162" x="1465" y="42.0234">ExpenseLimitsTemplate</text><rect fill="#E6E6FA" height="46.9766" rx="2.5" ry="2.5" style="stroke:#181818;stroke-width:0.5;" width="160" x="1713" y="5"/><text fill="#000000" font-family="sans-serif" font-size="14" font-style="italic" lengthAdjust="spacing" textLength="146" x="1720" y="25.5352">&#171;_errors/generic.njk&#187;</text><text fill="#000000" font-family="sans-serif" font-size="14" lengthAdjust="spacing" textLength="99" x="1743.5" y="42.0234">ErrorTemplate</text><rect fill="#E2E2F0" height="30.4883" rx="2.5" ry="2.5" style="stroke:#181818;stroke-width:0.5;" width="141" x="1883" y="21.4883"/><text fill="#000000" font-family="sans-serif" font-size="14" lengthAdjust="spacing" textLength="127" x="1890" y="42.0234">BackendController</text><polygon fill="#181818" points="233.5,80.2871,243.5,84.2871,233.5,88.2871" style="stroke:#181818;stroke-width:1.0;"/><line style="stroke:#181818;stroke-width:1.0;" x1="45.5" x2="239.5" y1="84.2871" y2="84.2871"/><text fill="#000000" font-family="sans-serif" font-size="13" lengthAdjust="spacing" textLength="150" x="70.5" y="79.5449">click expense limits tab</text><polygon fill="#181818" points="662.5,109.5977,672.5,113.5977,662.5,117.5977" style="stroke:#181818;stroke-width:1.0;"/><line style="stroke:#181818;stroke-width:1.0;" x1="245.5" x2="668.5" y1="113.5977" y2="113.5977"/><text fill="#000000" font-family="sans-serif" font-size="13" lengthAdjust="spacing" textLength="183" x="368.5" y="108.8555">call expense limits controller</text><polygon fill="#181818" points="885.5,138.9082,895.5,142.9082,885.5,146.9082" style="stroke:#181818;stroke-width:1.0;"/><line style="stroke:#181818;stroke-width:1.0;" x1="674.5" x2="891.5" y1="142.9082" y2="142.9082"/><text fill="#000000" font-family="sans-serif" font-size="13" lengthAdjust="spacing" textLength="126" x="723" y="138.166">build request object</text><polygon fill="#181818" points="1941.5,168.2188,1951.5,172.2188,1941.5,176.2188" style="stroke:#181818;stroke-width:1.0;"/><line style="stroke:#181818;stroke-width:1.0;" x1="897.5" x2="1947.5" y1="172.2188" y2="172.2188"/><text fill="#000000" font-family="sans-serif" font-size="13" lengthAdjust="spacing" textLength="138" x="1356.5" y="167.4766">send backend request</text><path d="M10,187.2188 L72,187.2188 L72,194.5293 L62,204.5293 L10,204.5293 L10,187.2188 " fill="#EEEEEE" style="stroke:#000000;stroke-width:1.5;"/><rect fill="none" height="193.1738" style="stroke:#000000;stroke-width:1.5;" width="2024" x="10" y="187.2188"/><text fill="#000000" font-family="sans-serif" font-size="13" font-weight="bold" lengthAdjust="spacing" textLength="17" x="25" y="200.7871">alt</text><text fill="#000000" font-family="sans-serif" font-size="11" font-weight="bold" lengthAdjust="spacing" textLength="249" x="87" y="199.8535">[Failed to fetch expense limits for transport]</text><polygon fill="#181818" points="908.5,221.8398,898.5,225.8398,908.5,229.8398" style="stroke:#181818;stroke-width:1.0;"/><line style="stroke:#181818;stroke-width:1.0;stroke-dasharray:2.0,2.0;" x1="902.5" x2="1952.5" y1="225.8398" y2="225.8398"/><text fill="#000000" font-family="sans-serif" font-size="13" lengthAdjust="spacing" textLength="91" x="1380" y="221.0977">Error response</text><polygon fill="#181818" points="685.5,251.1504,675.5,255.1504,685.5,259.1504" style="stroke:#181818;stroke-width:1.0;"/><line style="stroke:#181818;stroke-width:1.0;stroke-dasharray:2.0,2.0;" x1="679.5" x2="896.5" y1="255.1504" y2="255.1504"/><text fill="#000000" font-family="sans-serif" font-size="13" lengthAdjust="spacing" textLength="127" x="722.5" y="250.4082">reject requestObject</text><polygon fill="#181818" points="1781,280.4609,1791,284.4609,1781,288.4609" style="stroke:#181818;stroke-width:1.0;"/><line style="stroke:#181818;stroke-width:1.0;" x1="674.5" x2="1787" y1="284.4609" y2="284.4609"/><text fill="#000000" font-family="sans-serif" font-size="13" lengthAdjust="spacing" textLength="169" x="1149.25" y="279.7188">request and build template</text><polygon fill="#181818" points="685.5,309.7715,675.5,313.7715,685.5,317.7715" style="stroke:#181818;stroke-width:1.0;"/><line style="stroke:#181818;stroke-width:1.0;" x1="679.5" x2="1792" y1="313.7715" y2="313.7715"/><text fill="#000000" font-family="sans-serif" font-size="13" lengthAdjust="spacing" textLength="78" x="1194.75" y="309.0293">return HTML</text><polygon fill="#181818" points="478,339.082,468,343.082,478,347.082" style="stroke:#181818;stroke-width:1.0;"/><line style="stroke:#181818;stroke-width:1.0;" x1="472" x2="673.5" y1="343.082" y2="343.082"/><text fill="#000000" font-family="sans-serif" font-size="13" lengthAdjust="spacing" textLength="78" x="531.75" y="338.3398">return HTML</text><polygon fill="#181818" points="56.5,368.3926,46.5,372.3926,56.5,376.3926" style="stroke:#181818;stroke-width:1.0;"/><line style="stroke:#181818;stroke-width:1.0;" x1="50.5" x2="466" y1="372.3926" y2="372.3926"/><text fill="#000000" font-family="sans-serif" font-size="13" lengthAdjust="spacing" textLength="108" x="202.25" y="367.6504">render error page</text><polygon fill="#181818" points="908.5,404.7031,898.5,408.7031,908.5,412.7031" style="stroke:#181818;stroke-width:1.0;"/><line style="stroke:#181818;stroke-width:1.0;" x1="902.5" x2="1952.5" y1="408.7031" y2="408.7031"/><text fill="#000000" font-family="sans-serif" font-size="13" lengthAdjust="spacing" textLength="77" x="1387" y="403.9609">ok response</text><polygon fill="#181818" points="685.5,434.0137,675.5,438.0137,685.5,442.0137" style="stroke:#181818;stroke-width:1.0;"/><line style="stroke:#181818;stroke-width:1.0;" x1="679.5" x2="896.5" y1="438.0137" y2="438.0137"/><text fill="#000000" font-family="sans-serif" font-size="13" lengthAdjust="spacing" textLength="96" x="738" y="433.2715">resolve request</text><polygon fill="#181818" points="1534,463.3242,1544,467.3242,1534,471.3242" style="stroke:#181818;stroke-width:1.0;"/><line style="stroke:#181818;stroke-width:1.0;" x1="674.5" x2="1540" y1="467.3242" y2="467.3242"/><text fill="#000000" font-family="sans-serif" font-size="13" lengthAdjust="spacing" textLength="169" x="1025.75" y="462.582">request and build template</text><polygon fill="#181818" points="685.5,492.6348,675.5,496.6348,685.5,500.6348" style="stroke:#181818;stroke-width:1.0;"/><line style="stroke:#181818;stroke-width:1.0;" x1="679.5" x2="1545" y1="496.6348" y2="496.6348"/><text fill="#000000" font-family="sans-serif" font-size="13" lengthAdjust="spacing" textLength="78" x="1071.25" y="491.8926">return HTML</text><polygon fill="#181818" points="256.5,521.9453,246.5,525.9453,256.5,529.9453" style="stroke:#181818;stroke-width:1.0;"/><line style="stroke:#181818;stroke-width:1.0;" x1="250.5" x2="673.5" y1="525.9453" y2="525.9453"/><text fill="#000000" font-family="sans-serif" font-size="13" lengthAdjust="spacing" textLength="78" x="421" y="521.2031">return HTML</text><polygon fill="#181818" points="56.5,551.2559,46.5,555.2559,56.5,559.2559" style="stroke:#181818;stroke-width:1.0;"/><line style="stroke:#181818;stroke-width:1.0;" x1="50.5" x2="244.5" y1="555.2559" y2="555.2559"/><text fill="#000000" font-family="sans-serif" font-size="13" lengthAdjust="spacing" textLength="80" x="105.5" y="550.5137">render HTML</text><polygon fill="#181818" points="233.5,580.5664,243.5,584.5664,233.5,588.5664" style="stroke:#181818;stroke-width:1.0;"/><line style="stroke:#181818;stroke-width:1.0;" x1="45.5" x2="239.5" y1="584.5664" y2="584.5664"/><text fill="#000000" font-family="sans-serif" font-size="13" lengthAdjust="spacing" textLength="120" x="85.5" y="579.8242">edit expense limits</text><polygon fill="#181818" points="662.5,609.877,672.5,613.877,662.5,617.877" style="stroke:#181818;stroke-width:1.0;"/><line style="stroke:#181818;stroke-width:1.0;" x1="245.5" x2="668.5" y1="613.877" y2="613.877"/><text fill="#000000" font-family="sans-serif" font-size="13" lengthAdjust="spacing" textLength="176" x="372" y="609.1348">call expense limit controller</text><polygon fill="#181818" points="1534,639.1875,1544,643.1875,1534,647.1875" style="stroke:#181818;stroke-width:1.0;"/><line style="stroke:#181818;stroke-width:1.0;" x1="674.5" x2="1540" y1="643.1875" y2="643.1875"/><text fill="#000000" font-family="sans-serif" font-size="13" lengthAdjust="spacing" textLength="169" x="1025.75" y="638.4453">request and build template</text><polygon fill="#181818" points="685.5,668.498,675.5,672.498,685.5,676.498" style="stroke:#181818;stroke-width:1.0;"/><line style="stroke:#181818;stroke-width:1.0;" x1="679.5" x2="1545" y1="672.498" y2="672.498"/><text fill="#000000" font-family="sans-serif" font-size="13" lengthAdjust="spacing" textLength="78" x="1071.25" y="667.7559">return HTML</text><polygon fill="#181818" points="256.5,697.8086,246.5,701.8086,256.5,705.8086" style="stroke:#181818;stroke-width:1.0;"/><line style="stroke:#181818;stroke-width:1.0;" x1="250.5" x2="673.5" y1="701.8086" y2="701.8086"/><text fill="#000000" font-family="sans-serif" font-size="13" lengthAdjust="spacing" textLength="78" x="421" y="697.0664">return HTML</text><polygon fill="#181818" points="56.5,727.1191,46.5,731.1191,56.5,735.1191" style="stroke:#181818;stroke-width:1.0;"/><line style="stroke:#181818;stroke-width:1.0;" x1="50.5" x2="244.5" y1="731.1191" y2="731.1191"/><text fill="#000000" font-family="sans-serif" font-size="13" lengthAdjust="spacing" textLength="80" x="105.5" y="726.377">render HTML</text><polygon fill="#181818" points="233.5,756.4297,243.5,760.4297,233.5,764.4297" style="stroke:#181818;stroke-width:1.0;"/><line style="stroke:#181818;stroke-width:1.0;" x1="45.5" x2="239.5" y1="760.4297" y2="760.4297"/><text fill="#000000" font-family="sans-serif" font-size="13" lengthAdjust="spacing" textLength="176" x="57.5" y="755.6875">update limits and click save</text><polygon fill="#181818" points="662.5,785.7402,672.5,789.7402,662.5,793.7402" style="stroke:#181818;stroke-width:1.0;"/><line style="stroke:#181818;stroke-width:1.0;" x1="245.5" x2="668.5" y1="789.7402" y2="789.7402"/><text fill="#000000" font-family="sans-serif" font-size="13" lengthAdjust="spacing" textLength="183" x="368.5" y="784.998">call expense limits controller</text><polygon fill="#181818" points="1280,815.0508,1290,819.0508,1280,823.0508" style="stroke:#181818;stroke-width:1.0;"/><line style="stroke:#181818;stroke-width:1.0;" x1="674.5" x2="1286" y1="819.0508" y2="819.0508"/><text fill="#000000" font-family="sans-serif" font-size="13" lengthAdjust="spacing" textLength="95" x="935.75" y="814.3086">validate details</text><path d="M10,834.0508 L72,834.0508 L72,841.3613 L62,851.3613 L10,851.3613 L10,834.0508 " fill="#EEEEEE" style="stroke:#000000;stroke-width:1.5;"/><rect fill="none" height="163.8633" style="stroke:#000000;stroke-width:1.5;" width="1703" x="10" y="834.0508"/><text fill="#000000" font-family="sans-serif" font-size="13" font-weight="bold" lengthAdjust="spacing" textLength="17" x="25" y="847.6191">alt</text><text fill="#000000" font-family="sans-serif" font-size="11" font-weight="bold" lengthAdjust="spacing" textLength="80" x="87" y="846.6855">[Invalid input]</text><polygon fill="#181818" points="685.5,868.6719,675.5,872.6719,685.5,876.6719" style="stroke:#181818;stroke-width:1.0;"/><line style="stroke:#181818;stroke-width:1.0;" x1="679.5" x2="1291" y1="872.6719" y2="872.6719"/><text fill="#000000" font-family="sans-serif" font-size="13" lengthAdjust="spacing" textLength="79" x="943.75" y="867.9297">Invalid input</text><polygon fill="#181818" points="1534,897.9824,1544,901.9824,1534,905.9824" style="stroke:#181818;stroke-width:1.0;"/><line style="stroke:#181818;stroke-width:1.0;" x1="674.5" x2="1540" y1="901.9824" y2="901.9824"/><text fill="#000000" font-family="sans-serif" font-size="13" lengthAdjust="spacing" textLength="169" x="1025.75" y="897.2402">request and build template</text><polygon fill="#181818" points="685.5,927.293,675.5,931.293,685.5,935.293" style="stroke:#181818;stroke-width:1.0;"/><line style="stroke:#181818;stroke-width:1.0;" x1="679.5" x2="1545" y1="931.293" y2="931.293"/><text fill="#000000" font-family="sans-serif" font-size="13" lengthAdjust="spacing" textLength="78" x="1071.25" y="926.5508">return HTML</text><polygon fill="#181818" points="256.5,956.6035,246.5,960.6035,256.5,964.6035" style="stroke:#181818;stroke-width:1.0;"/><line style="stroke:#181818;stroke-width:1.0;" x1="250.5" x2="673.5" y1="960.6035" y2="960.6035"/><text fill="#000000" font-family="sans-serif" font-size="13" lengthAdjust="spacing" textLength="112" x="404" y="955.8613">return error HTML</text><polygon fill="#181818" points="56.5,985.9141,46.5,989.9141,56.5,993.9141" style="stroke:#181818;stroke-width:1.0;"/><line style="stroke:#181818;stroke-width:1.0;" x1="50.5" x2="244.5" y1="989.9141" y2="989.9141"/><text fill="#000000" font-family="sans-serif" font-size="13" lengthAdjust="spacing" textLength="133" x="79" y="985.1719">render error message</text><polygon fill="#181818" points="685.5,1022.2246,675.5,1026.2246,685.5,1030.2246" style="stroke:#181818;stroke-width:1.0;"/><line style="stroke:#181818;stroke-width:1.0;" x1="679.5" x2="1291" y1="1026.2246" y2="1026.2246"/><text fill="#000000" font-family="sans-serif" font-size="13" lengthAdjust="spacing" textLength="127" x="919.75" y="1021.4824">valid details entered</text><polygon fill="#181818" points="1080.5,1051.5352,1090.5,1055.5352,1080.5,1059.5352" style="stroke:#181818;stroke-width:1.0;"/><line style="stroke:#181818;stroke-width:1.0;" x1="674.5" x2="1086.5" y1="1055.5352" y2="1055.5352"/><text fill="#000000" font-family="sans-serif" font-size="13" lengthAdjust="spacing" textLength="126" x="820.5" y="1050.793">build request object</text><polygon fill="#181818" points="1941.5,1080.8457,1951.5,1084.8457,1941.5,1088.8457" style="stroke:#181818;stroke-width:1.0;"/><line style="stroke:#181818;stroke-width:1.0;" x1="1092.5" x2="1947.5" y1="1084.8457" y2="1084.8457"/><text fill="#000000" font-family="sans-serif" font-size="13" lengthAdjust="spacing" textLength="138" x="1454" y="1080.1035">send backend request</text><path d="M10,1099.8457 L72,1099.8457 L72,1107.1563 L62,1117.1563 L10,1117.1563 L10,1099.8457 " fill="#EEEEEE" style="stroke:#000000;stroke-width:1.5;"/><rect fill="none" height="193.1738" style="stroke:#000000;stroke-width:1.5;" width="2024" x="10" y="1099.8457"/><text fill="#000000" font-family="sans-serif" font-size="13" font-weight="bold" lengthAdjust="spacing" textLength="17" x="25" y="1113.4141">alt</text><text fill="#000000" font-family="sans-serif" font-size="11" font-weight="bold" lengthAdjust="spacing" textLength="258" x="87" y="1112.4805">[Failed to update expense limits for transport]</text><polygon fill="#181818" points="1103.5,1134.4668,1093.5,1138.4668,1103.5,1142.4668" style="stroke:#181818;stroke-width:1.0;"/><line style="stroke:#181818;stroke-width:1.0;stroke-dasharray:2.0,2.0;" x1="1097.5" x2="1952.5" y1="1138.4668" y2="1138.4668"/><text fill="#000000" font-family="sans-serif" font-size="13" lengthAdjust="spacing" textLength="91" x="1477.5" y="1133.7246">Error response</text><polygon fill="#181818" points="685.5,1163.7773,675.5,1167.7773,685.5,1171.7773" style="stroke:#181818;stroke-width:1.0;"/><line style="stroke:#181818;stroke-width:1.0;stroke-dasharray:2.0,2.0;" x1="679.5" x2="1091.5" y1="1167.7773" y2="1167.7773"/><text fill="#000000" font-family="sans-serif" font-size="13" lengthAdjust="spacing" textLength="127" x="820" y="1163.0352">reject requestObject</text><polygon fill="#181818" points="1781,1193.0879,1791,1197.0879,1781,1201.0879" style="stroke:#181818;stroke-width:1.0;"/><line style="stroke:#181818;stroke-width:1.0;" x1="674.5" x2="1787" y1="1197.0879" y2="1197.0879"/><text fill="#000000" font-family="sans-serif" font-size="13" lengthAdjust="spacing" textLength="169" x="1149.25" y="1192.3457">request and build template</text><polygon fill="#181818" points="685.5,1222.3984,675.5,1226.3984,685.5,1230.3984" style="stroke:#181818;stroke-width:1.0;"/><line style="stroke:#181818;stroke-width:1.0;" x1="679.5" x2="1792" y1="1226.3984" y2="1226.3984"/><text fill="#000000" font-family="sans-serif" font-size="13" lengthAdjust="spacing" textLength="78" x="1194.75" y="1221.6563">return HTML</text><polygon fill="#181818" points="478,1251.709,468,1255.709,478,1259.709" style="stroke:#181818;stroke-width:1.0;"/><line style="stroke:#181818;stroke-width:1.0;" x1="472" x2="673.5" y1="1255.709" y2="1255.709"/><text fill="#000000" font-family="sans-serif" font-size="13" lengthAdjust="spacing" textLength="78" x="531.75" y="1250.9668">return HTML</text><polygon fill="#181818" points="56.5,1281.0195,46.5,1285.0195,56.5,1289.0195" style="stroke:#181818;stroke-width:1.0;"/><line style="stroke:#181818;stroke-width:1.0;" x1="50.5" x2="466" y1="1285.0195" y2="1285.0195"/><text fill="#000000" font-family="sans-serif" font-size="13" lengthAdjust="spacing" textLength="108" x="202.25" y="1280.2773">render error page</text><polygon fill="#181818" points="1103.5,1317.3301,1093.5,1321.3301,1103.5,1325.3301" style="stroke:#181818;stroke-width:1.0;"/><line style="stroke:#181818;stroke-width:1.0;" x1="1097.5" x2="1952.5" y1="1321.3301" y2="1321.3301"/><text fill="#000000" font-family="sans-serif" font-size="13" lengthAdjust="spacing" textLength="77" x="1484.5" y="1316.5879">ok response</text><polygon fill="#181818" points="685.5,1346.6406,675.5,1350.6406,685.5,1354.6406" style="stroke:#181818;stroke-width:1.0;"/><line style="stroke:#181818;stroke-width:1.0;" x1="679.5" x2="1091.5" y1="1350.6406" y2="1350.6406"/><text fill="#000000" font-family="sans-serif" font-size="13" lengthAdjust="spacing" textLength="96" x="835.5" y="1345.8984">resolve request</text><!--SRC=[nLJBRjim4BphAxP90CU07_SYC20xQk1MiL9PphMWgOr3co9LaagRl-zQaj-FkcY1NWH870vdPeVw81INHOemGuL6yFPKQhwmdLmovOfCUfvT29Kpmp8OktU9O1t1bakmlOJV2rGS7z5QDaDVYfdAK3dWz43ZUGHpWekSMC7dJjEdHgC1OJJmGuYZIJ8SFUo0WfyvAekXo8IpJyG9TtTTbcP22LB0dD2gYnMcBKjGc-l2k5vlX-QXiXKOeysA1PSlX2iL3A9H4aTX6CJWZ-uX3hvEWd42KVzpC4Z6foKDj796Iuc6A8y9wV0reZEtlHvSKoYlxXsbr3zEyqRJEN97d6HIsLmR5pE7jZD3TziynpB9Km9Un9KNHxZAD9xzS7Zl9r5ynlapauAEqWQkPrgcrSOaU7mA_IGuio_1Z5hbBXraHyqNUyCifxX5ywsSfEtMtQrsa2lsXYh5kc9zV_0beCbk1ht3sMTyGUZDE3slx2UqUuST_0XS2hw0MYzKUi6ngNVOrts2hSOG3vDoduPlQRYfFVbFmm51RqymjOwLfxKRL0kkFZ4XCGMduGKTVzq_-8NihYjorQJJJHdWYY7HIqCNQjWSUn19ytosc0gt9-tlOzrEzV_OAigBkSgQgRGkaQMQ_kFQtBnLTnE7Qdd7BtEsliz_ulZYVfxyBPrhQHtPRshw2m00]--></g></svg>