<?xml version="1.0" encoding="us-ascii" standalone="no"?><svg xmlns="http://www.w3.org/2000/svg" xmlns:xlink="http://www.w3.org/1999/xlink" contentStyleType="text/css" height="1729px" preserveAspectRatio="none" style="width:3711px;height:1729px;background:#FFFFFF;" version="1.1" viewBox="0 0 3711 1729" width="3711px" zoomAndPan="magnify"><defs/><g><rect fill="none" height="163.8633" style="stroke:#000000;stroke-width:1.5;" width="2953" x="10" y="333.7715"/><rect fill="none" height="163.8633" style="stroke:#000000;stroke-width:1.5;" width="2571" x="10" y="746.1191"/><rect fill="none" height="193.1738" style="stroke:#000000;stroke-width:1.5;" width="3695" x="10" y="1187.7773"/><rect fill="none" height="193.1738" style="stroke:#000000;stroke-width:1.5;" width="3695" x="10" y="1453.5723"/><line style="stroke:#181818;stroke-width:0.5;stroke-dasharray:5.0,5.0;" x1="45" x2="45" y1="52.9766" y2="1722.3672"/><line style="stroke:#181818;stroke-width:0.5;stroke-dasharray:5.0,5.0;" x1="218" x2="218" y1="52.9766" y2="1722.3672"/><line style="stroke:#181818;stroke-width:0.5;stroke-dasharray:5.0,5.0;" x1="521" x2="521" y1="52.9766" y2="1722.3672"/><line style="stroke:#181818;stroke-width:0.5;stroke-dasharray:5.0,5.0;" x1="886" x2="886" y1="52.9766" y2="1722.3672"/><line style="stroke:#181818;stroke-width:0.5;stroke-dasharray:5.0,5.0;" x1="1263" x2="1263" y1="52.9766" y2="1722.3672"/><line style="stroke:#181818;stroke-width:0.5;stroke-dasharray:5.0,5.0;" x1="1533" x2="1533" y1="52.9766" y2="1722.3672"/><line style="stroke:#181818;stroke-width:0.5;stroke-dasharray:5.0,5.0;" x1="1710" x2="1710" y1="52.9766" y2="1722.3672"/><line style="stroke:#181818;stroke-width:0.5;stroke-dasharray:5.0,5.0;" x1="1912" x2="1912" y1="52.9766" y2="1722.3672"/><line style="stroke:#181818;stroke-width:0.5;stroke-dasharray:5.0,5.0;" x1="2093" x2="2093" y1="52.9766" y2="1722.3672"/><line style="stroke:#181818;stroke-width:0.5;stroke-dasharray:5.0,5.0;" x1="2377" x2="2377" y1="52.9766" y2="1722.3672"/><line style="stroke:#181818;stroke-width:0.5;stroke-dasharray:5.0,5.0;" x1="2767" x2="2767" y1="52.9766" y2="1722.3672"/><line style="stroke:#181818;stroke-width:0.5;stroke-dasharray:5.0,5.0;" x1="3168" x2="3168" y1="52.9766" y2="1722.3672"/><line style="stroke:#181818;stroke-width:0.5;stroke-dasharray:5.0,5.0;" x1="3464" x2="3464" y1="52.9766" y2="1722.3672"/><line style="stroke:#181818;stroke-width:0.5;stroke-dasharray:5.0,5.0;" x1="3624" x2="3624" y1="52.9766" y2="1722.3672"/><rect fill="#E2E2F0" height="30.4883" rx="2.5" ry="2.5" style="stroke:#181818;stroke-width:0.5;" width="51" x="20" y="21.4883"/><text fill="#000000" font-family="sans-serif" font-size="14" lengthAdjust="spacing" textLength="37" x="27" y="42.0234">Actor</text><rect fill="#E2E2F0" height="46.9766" rx="2.5" ry="2.5" style="stroke:#181818;stroke-width:0.5;" width="223" x="107" y="5"/><text fill="#000000" font-family="sans-serif" font-size="14" font-style="italic" lengthAdjust="spacing" textLength="209" x="114" y="25.5352">&#171;/administration/users/users&#187;</text><text fill="#000000" font-family="sans-serif" font-size="14" lengthAdjust="spacing" textLength="71" x="183" y="42.0234">UsersPage</text><rect fill="#E2E2F0" height="46.9766" rx="2.5" ry="2.5" style="stroke:#181818;stroke-width:0.5;" width="363" x="340" y="5"/><text fill="#000000" font-family="sans-serif" font-size="14" font-style="italic" lengthAdjust="spacing" textLength="349" x="347" y="25.5352">&#171;/administration/users/create-users/user-details&#187;</text><text fill="#000000" font-family="sans-serif" font-size="14" lengthAdjust="spacing" textLength="109" x="467" y="42.0234">CreateUserPage</text><rect fill="#E2E2F0" height="46.9766" rx="2.5" ry="2.5" style="stroke:#181818;stroke-width:0.5;" width="347" x="713" y="5"/><text fill="#000000" font-family="sans-serif" font-size="14" font-style="italic" lengthAdjust="spacing" textLength="333" x="720" y="25.5352">&#171;/administration/users/create-users/user-type&#187;</text><text fill="#000000" font-family="sans-serif" font-size="14" lengthAdjust="spacing" textLength="142" x="815.5" y="42.0234">CreateUserTypePage</text><rect fill="#E2E2F0" height="46.9766" rx="2.5" ry="2.5" style="stroke:#181818;stroke-width:0.5;" width="386" x="1070" y="5"/><text fill="#000000" font-family="sans-serif" font-size="14" font-style="italic" lengthAdjust="spacing" textLength="372" x="1077" y="25.5352">&#171;/administration/users/create-users/confirm-details&#187;</text><text fill="#000000" font-family="sans-serif" font-size="14" lengthAdjust="spacing" textLength="166" x="1180" y="42.0234">ConfirmUserDetailsPage</text><rect fill="#E2E2F0" height="46.9766" rx="2.5" ry="2.5" style="stroke:#181818;stroke-width:0.5;" width="134" x="1466" y="5"/><text fill="#000000" font-family="sans-serif" font-size="14" font-style="italic" lengthAdjust="spacing" textLength="56" x="1505" y="25.5352">&#171;/error&#187;</text><text fill="#000000" font-family="sans-serif" font-size="14" lengthAdjust="spacing" textLength="120" x="1473" y="42.0234">GenericErrorPage</text><rect fill="#FFFFE0" height="46.9766" rx="2.5" ry="2.5" style="stroke:#181818;stroke-width:0.5;" width="201" x="1610" y="5"/><text fill="#000000" font-family="sans-serif" font-size="14" font-style="italic" lengthAdjust="spacing" textLength="187" x="1617" y="25.5352">&#171;create-users.controller.js&#187;</text><text fill="#000000" font-family="sans-serif" font-size="14" lengthAdjust="spacing" textLength="153" x="1634" y="42.0234">CreateUsersController</text><rect fill="#FFFFE0" height="46.9766" rx="2.5" ry="2.5" style="stroke:#181818;stroke-width:0.5;" width="183" x="1821" y="5"/><text fill="#000000" font-family="sans-serif" font-size="14" font-style="italic" lengthAdjust="spacing" textLength="169" x="1828" y="25.5352">&#171;usersDAO.createUser()&#187;</text><text fill="#000000" font-family="sans-serif" font-size="14" lengthAdjust="spacing" textLength="127" x="1849" y="42.0234">CreateUsersObject</text><rect fill="#FFD700" height="30.4883" rx="2.5" ry="2.5" style="stroke:#181818;stroke-width:0.5;" width="159" x="2014" y="21.4883"/><text fill="#000000" font-family="sans-serif" font-size="14" lengthAdjust="spacing" textLength="145" x="2021" y="42.0234">CreateUsersValidator</text><rect fill="#E2E2F0" height="46.9766" rx="2.5" ry="2.5" style="stroke:#181818;stroke-width:0.5;" width="388" x="2183" y="5"/><text fill="#000000" font-family="sans-serif" font-size="14" font-style="italic" lengthAdjust="spacing" textLength="374" x="2190" y="25.5352">&#171;/administration/users/create-users/user-details.njk&#187;</text><text fill="#000000" font-family="sans-serif" font-size="14" lengthAdjust="spacing" textLength="140" x="2307" y="42.0234">CreateUserTemplate</text><rect fill="#E2E2F0" height="46.9766" rx="2.5" ry="2.5" style="stroke:#181818;stroke-width:0.5;" width="372" x="2581" y="5"/><text fill="#000000" font-family="sans-serif" font-size="14" font-style="italic" lengthAdjust="spacing" textLength="358" x="2588" y="25.5352">&#171;/administration/users/create-users/user-type.njk&#187;</text><text fill="#000000" font-family="sans-serif" font-size="14" lengthAdjust="spacing" textLength="173" x="2680.5" y="42.0234">CreateUserTypeTemplate</text><rect fill="#E2E2F0" height="46.9766" rx="2.5" ry="2.5" style="stroke:#181818;stroke-width:0.5;" width="411" x="2963" y="5"/><text fill="#000000" font-family="sans-serif" font-size="14" font-style="italic" lengthAdjust="spacing" textLength="397" x="2970" y="25.5352">&#171;/administration/users/create-users/confirm-details.njk&#187;</text><text fill="#000000" font-family="sans-serif" font-size="14" lengthAdjust="spacing" textLength="197" x="3070" y="42.0234">ConfirmUserDetailsTemplate</text><rect fill="#E6E6FA" height="46.9766" rx="2.5" ry="2.5" style="stroke:#181818;stroke-width:0.5;" width="160" x="3384" y="5"/><text fill="#000000" font-family="sans-serif" font-size="14" font-style="italic" lengthAdjust="spacing" textLength="146" x="3391" y="25.5352">&#171;_errors/generic.njk&#187;</text><text fill="#000000" font-family="sans-serif" font-size="14" lengthAdjust="spacing" textLength="99" x="3414.5" y="42.0234">ErrorTemplate</text><rect fill="#E2E2F0" height="30.4883" rx="2.5" ry="2.5" style="stroke:#181818;stroke-width:0.5;" width="141" x="3554" y="21.4883"/><text fill="#000000" font-family="sans-serif" font-size="14" lengthAdjust="spacing" textLength="127" x="3561" y="42.0234">BackendController</text><polygon fill="#181818" points="206.5,80.2871,216.5,84.2871,206.5,88.2871" style="stroke:#181818;stroke-width:1.0;"/><line style="stroke:#181818;stroke-width:1.0;" x1="45.5" x2="212.5" y1="84.2871" y2="84.2871"/><text fill="#000000" font-family="sans-serif" font-size="13" lengthAdjust="spacing" textLength="149" x="57.5" y="79.5449">click create user button</text><polygon fill="#181818" points="1698.5,109.5977,1708.5,113.5977,1698.5,117.5977" style="stroke:#181818;stroke-width:1.0;"/><line style="stroke:#181818;stroke-width:1.0;" x1="218.5" x2="1704.5" y1="113.5977" y2="113.5977"/><text fill="#000000" font-family="sans-serif" font-size="13" lengthAdjust="spacing" textLength="167" x="881" y="108.8555">call create users controller</text><polygon fill="#181818" points="2755,138.9082,2765,142.9082,2755,146.9082" style="stroke:#181818;stroke-width:1.0;"/><line style="stroke:#181818;stroke-width:1.0;" x1="1710.5" x2="2761" y1="142.9082" y2="142.9082"/><text fill="#000000" font-family="sans-serif" font-size="13" lengthAdjust="spacing" textLength="169" x="2154.25" y="138.166">request and build template</text><polygon fill="#181818" points="1721.5,168.2188,1711.5,172.2188,1721.5,176.2188" style="stroke:#181818;stroke-width:1.0;"/><line style="stroke:#181818;stroke-width:1.0;" x1="1715.5" x2="2766" y1="172.2188" y2="172.2188"/><text fill="#000000" font-family="sans-serif" font-size="13" lengthAdjust="spacing" textLength="78" x="2199.75" y="167.4766">return HTML</text><polygon fill="#181818" points="897.5,197.5293,887.5,201.5293,897.5,205.5293" style="stroke:#181818;stroke-width:1.0;"/><line style="stroke:#181818;stroke-width:1.0;" x1="891.5" x2="1709.5" y1="201.5293" y2="201.5293"/><text fill="#000000" font-family="sans-serif" font-size="13" lengthAdjust="spacing" textLength="78" x="1259.5" y="196.7871">return HTML</text><polygon fill="#181818" points="56.5,226.8398,46.5,230.8398,56.5,234.8398" style="stroke:#181818;stroke-width:1.0;"/><line style="stroke:#181818;stroke-width:1.0;" x1="50.5" x2="885.5" y1="230.8398" y2="230.8398"/><text fill="#000000" font-family="sans-serif" font-size="13" lengthAdjust="spacing" textLength="80" x="426" y="226.0977">render HTML</text><polygon fill="#181818" points="874.5,256.1504,884.5,260.1504,874.5,264.1504" style="stroke:#181818;stroke-width:1.0;"/><line style="stroke:#181818;stroke-width:1.0;" x1="45.5" x2="880.5" y1="260.1504" y2="260.1504"/><text fill="#000000" font-family="sans-serif" font-size="13" lengthAdjust="spacing" textLength="219" x="356.5" y="255.4082">Select user type and click continue</text><polygon fill="#181818" points="1698.5,285.4609,1708.5,289.4609,1698.5,293.4609" style="stroke:#181818;stroke-width:1.0;"/><line style="stroke:#181818;stroke-width:1.0;" x1="886.5" x2="1704.5" y1="289.4609" y2="289.4609"/><text fill="#000000" font-family="sans-serif" font-size="13" lengthAdjust="spacing" textLength="167" x="1215" y="284.7188">call create users controller</text><polygon fill="#181818" points="2081.5,314.7715,2091.5,318.7715,2081.5,322.7715" style="stroke:#181818;stroke-width:1.0;"/><line style="stroke:#181818;stroke-width:1.0;" x1="1710.5" x2="2087.5" y1="318.7715" y2="318.7715"/><text fill="#000000" font-family="sans-serif" font-size="13" lengthAdjust="spacing" textLength="95" x="1854.5" y="314.0293">validate details</text><path d="M10,333.7715 L72,333.7715 L72,341.082 L62,351.082 L10,351.082 L10,333.7715 " fill="#EEEEEE" style="stroke:#000000;stroke-width:1.5;"/><rect fill="none" height="163.8633" style="stroke:#000000;stroke-width:1.5;" width="2953" x="10" y="333.7715"/><text fill="#000000" font-family="sans-serif" font-size="13" font-weight="bold" lengthAdjust="spacing" textLength="17" x="25" y="347.3398">alt</text><text fill="#000000" font-family="sans-serif" font-size="11" font-weight="bold" lengthAdjust="spacing" textLength="127" x="87" y="346.4063">[No user type selected]</text><polygon fill="#181818" points="1721.5,368.3926,1711.5,372.3926,1721.5,376.3926" style="stroke:#181818;stroke-width:1.0;"/><line style="stroke:#181818;stroke-width:1.0;" x1="1715.5" x2="2092.5" y1="372.3926" y2="372.3926"/><text fill="#000000" font-family="sans-serif" font-size="13" lengthAdjust="spacing" textLength="136" x="1834" y="367.6504">No user type selected</text><polygon fill="#181818" points="2755,397.7031,2765,401.7031,2755,405.7031" style="stroke:#181818;stroke-width:1.0;"/><line style="stroke:#181818;stroke-width:1.0;" x1="1710.5" x2="2761" y1="401.7031" y2="401.7031"/><text fill="#000000" font-family="sans-serif" font-size="13" lengthAdjust="spacing" textLength="169" x="2154.25" y="396.9609">request and build template</text><polygon fill="#181818" points="1721.5,427.0137,1711.5,431.0137,1721.5,435.0137" style="stroke:#181818;stroke-width:1.0;"/><line style="stroke:#181818;stroke-width:1.0;" x1="1715.5" x2="2766" y1="431.0137" y2="431.0137"/><text fill="#000000" font-family="sans-serif" font-size="13" lengthAdjust="spacing" textLength="78" x="2199.75" y="426.2715">return HTML</text><polygon fill="#181818" points="897.5,456.3242,887.5,460.3242,897.5,464.3242" style="stroke:#181818;stroke-width:1.0;"/><line style="stroke:#181818;stroke-width:1.0;" x1="891.5" x2="1709.5" y1="460.3242" y2="460.3242"/><text fill="#000000" font-family="sans-serif" font-size="13" lengthAdjust="spacing" textLength="112" x="1242.5" y="455.582">return error HTML</text><polygon fill="#181818" points="56.5,485.6348,46.5,489.6348,56.5,493.6348" style="stroke:#181818;stroke-width:1.0;"/><line style="stroke:#181818;stroke-width:1.0;" x1="50.5" x2="885.5" y1="489.6348" y2="489.6348"/><text fill="#000000" font-family="sans-serif" font-size="13" lengthAdjust="spacing" textLength="133" x="399.5" y="484.8926">render error message</text><polygon fill="#181818" points="1721.5,521.9453,1711.5,525.9453,1721.5,529.9453" style="stroke:#181818;stroke-width:1.0;"/><line style="stroke:#181818;stroke-width:1.0;" x1="1715.5" x2="2092.5" y1="525.9453" y2="525.9453"/><text fill="#000000" font-family="sans-serif" font-size="13" lengthAdjust="spacing" textLength="127" x="1838.5" y="521.2031">valid details entered</text><polygon fill="#181818" points="2365,551.2559,2375,555.2559,2365,559.2559" style="stroke:#181818;stroke-width:1.0;"/><line style="stroke:#181818;stroke-width:1.0;" x1="1710.5" x2="2371" y1="555.2559" y2="555.2559"/><text fill="#000000" font-family="sans-serif" font-size="13" lengthAdjust="spacing" textLength="169" x="1959.25" y="550.5137">request and build template</text><polygon fill="#181818" points="1721.5,580.5664,1711.5,584.5664,1721.5,588.5664" style="stroke:#181818;stroke-width:1.0;"/><line style="stroke:#181818;stroke-width:1.0;" x1="1715.5" x2="2376" y1="584.5664" y2="584.5664"/><text fill="#000000" font-family="sans-serif" font-size="13" lengthAdjust="spacing" textLength="78" x="2004.75" y="579.8242">return HTML</text><polygon fill="#181818" points="532.5,609.877,522.5,613.877,532.5,617.877" style="stroke:#181818;stroke-width:1.0;"/><line style="stroke:#181818;stroke-width:1.0;" x1="526.5" x2="1709.5" y1="613.877" y2="613.877"/><text fill="#000000" font-family="sans-serif" font-size="13" lengthAdjust="spacing" textLength="78" x="1077" y="609.1348">return HTML</text><polygon fill="#181818" points="56.5,639.1875,46.5,643.1875,56.5,647.1875" style="stroke:#181818;stroke-width:1.0;"/><line style="stroke:#181818;stroke-width:1.0;" x1="50.5" x2="520.5" y1="643.1875" y2="643.1875"/><text fill="#000000" font-family="sans-serif" font-size="13" lengthAdjust="spacing" textLength="80" x="243.5" y="638.4453">render HTML</text><polygon fill="#181818" points="509.5,668.498,519.5,672.498,509.5,676.498" style="stroke:#181818;stroke-width:1.0;"/><line style="stroke:#181818;stroke-width:1.0;" x1="45.5" x2="515.5" y1="672.498" y2="672.498"/><text fill="#000000" font-family="sans-serif" font-size="13" lengthAdjust="spacing" textLength="229" x="169" y="667.7559">enter user details and click continue</text><polygon fill="#181818" points="1698.5,697.8086,1708.5,701.8086,1698.5,705.8086" style="stroke:#181818;stroke-width:1.0;"/><line style="stroke:#181818;stroke-width:1.0;" x1="521.5" x2="1704.5" y1="701.8086" y2="701.8086"/><text fill="#000000" font-family="sans-serif" font-size="13" lengthAdjust="spacing" textLength="167" x="1032.5" y="697.0664">call create users controller</text><polygon fill="#181818" points="2081.5,727.1191,2091.5,731.1191,2081.5,735.1191" style="stroke:#181818;stroke-width:1.0;"/><line style="stroke:#181818;stroke-width:1.0;" x1="1710.5" x2="2087.5" y1="731.1191" y2="731.1191"/><text fill="#000000" font-family="sans-serif" font-size="13" lengthAdjust="spacing" textLength="95" x="1854.5" y="726.377">validate details</text><path d="M10,746.1191 L72,746.1191 L72,753.4297 L62,763.4297 L10,763.4297 L10,746.1191 " fill="#EEEEEE" style="stroke:#000000;stroke-width:1.5;"/><rect fill="none" height="163.8633" style="stroke:#000000;stroke-width:1.5;" width="2571" x="10" y="746.1191"/><text fill="#000000" font-family="sans-serif" font-size="13" font-weight="bold" lengthAdjust="spacing" textLength="17" x="25" y="759.6875">alt</text><text fill="#000000" font-family="sans-serif" font-size="11" font-weight="bold" lengthAdjust="spacing" textLength="116" x="87" y="758.7539">[Invalid user details]</text><polygon fill="#181818" points="1721.5,780.7402,1711.5,784.7402,1721.5,788.7402" style="stroke:#181818;stroke-width:1.0;"/><line style="stroke:#181818;stroke-width:1.0;" x1="1715.5" x2="2092.5" y1="784.7402" y2="784.7402"/><text fill="#000000" font-family="sans-serif" font-size="13" lengthAdjust="spacing" textLength="119" x="1842.5" y="779.998">Invalid user details</text><polygon fill="#181818" points="2365,810.0508,2375,814.0508,2365,818.0508" style="stroke:#181818;stroke-width:1.0;"/><line style="stroke:#181818;stroke-width:1.0;" x1="1710.5" x2="2371" y1="814.0508" y2="814.0508"/><text fill="#000000" font-family="sans-serif" font-size="13" lengthAdjust="spacing" textLength="169" x="1959.25" y="809.3086">request and build template</text><polygon fill="#181818" points="1721.5,839.3613,1711.5,843.3613,1721.5,847.3613" style="stroke:#181818;stroke-width:1.0;"/><line style="stroke:#181818;stroke-width:1.0;" x1="1715.5" x2="2376" y1="843.3613" y2="843.3613"/><text fill="#000000" font-family="sans-serif" font-size="13" lengthAdjust="spacing" textLength="78" x="2004.75" y="838.6191">return HTML</text><polygon fill="#181818" points="532.5,868.6719,522.5,872.6719,532.5,876.6719" style="stroke:#181818;stroke-width:1.0;"/><line style="stroke:#181818;stroke-width:1.0;" x1="526.5" x2="1709.5" y1="872.6719" y2="872.6719"/><text fill="#000000" font-family="sans-serif" font-size="13" lengthAdjust="spacing" textLength="112" x="1060" y="867.9297">return error HTML</text><polygon fill="#181818" points="56.5,897.9824,46.5,901.9824,56.5,905.9824" style="stroke:#181818;stroke-width:1.0;"/><line style="stroke:#181818;stroke-width:1.0;" x1="50.5" x2="520.5" y1="901.9824" y2="901.9824"/><text fill="#000000" font-family="sans-serif" font-size="13" lengthAdjust="spacing" textLength="133" x="217" y="897.2402">render error message</text><polygon fill="#181818" points="1721.5,934.293,1711.5,938.293,1721.5,942.293" style="stroke:#181818;stroke-width:1.0;"/><line style="stroke:#181818;stroke-width:1.0;" x1="1715.5" x2="2092.5" y1="938.293" y2="938.293"/><text fill="#000000" font-family="sans-serif" font-size="13" lengthAdjust="spacing" textLength="127" x="1838.5" y="933.5508">valid details entered</text><polygon fill="#181818" points="3156.5,963.6035,3166.5,967.6035,3156.5,971.6035" style="stroke:#181818;stroke-width:1.0;"/><line style="stroke:#181818;stroke-width:1.0;" x1="1710.5" x2="3162.5" y1="967.6035" y2="967.6035"/><text fill="#000000" font-family="sans-serif" font-size="13" lengthAdjust="spacing" textLength="169" x="2355" y="962.8613">request and build template</text><polygon fill="#181818" points="1721.5,992.9141,1711.5,996.9141,1721.5,1000.9141" style="stroke:#181818;stroke-width:1.0;"/><line style="stroke:#181818;stroke-width:1.0;" x1="1715.5" x2="3167.5" y1="996.9141" y2="996.9141"/><text fill="#000000" font-family="sans-serif" font-size="13" lengthAdjust="spacing" textLength="78" x="2400.5" y="992.1719">return HTML</text><polygon fill="#181818" points="1274,1022.2246,1264,1026.2246,1274,1030.2246" style="stroke:#181818;stroke-width:1.0;"/><line style="stroke:#181818;stroke-width:1.0;" x1="1268" x2="1709.5" y1="1026.2246" y2="1026.2246"/><text fill="#000000" font-family="sans-serif" font-size="13" lengthAdjust="spacing" textLength="78" x="1447.75" y="1021.4824">return HTML</text><polygon fill="#181818" points="56.5,1051.5352,46.5,1055.5352,56.5,1059.5352" style="stroke:#181818;stroke-width:1.0;"/><line style="stroke:#181818;stroke-width:1.0;" x1="50.5" x2="1262" y1="1055.5352" y2="1055.5352"/><text fill="#000000" font-family="sans-serif" font-size="13" lengthAdjust="spacing" textLength="80" x="614.25" y="1050.793">render HTML</text><polygon fill="#181818" points="1251,1080.8457,1261,1084.8457,1251,1088.8457" style="stroke:#181818;stroke-width:1.0;"/><line style="stroke:#181818;stroke-width:1.0;" x1="45.5" x2="1257" y1="1084.8457" y2="1084.8457"/><text fill="#000000" font-family="sans-serif" font-size="13" lengthAdjust="spacing" textLength="83" x="612.75" y="1080.1035">click confirm</text><polygon fill="#181818" points="1698.5,1110.1563,1708.5,1114.1563,1698.5,1118.1563" style="stroke:#181818;stroke-width:1.0;"/><line style="stroke:#181818;stroke-width:1.0;" x1="1263" x2="1704.5" y1="1114.1563" y2="1114.1563"/><text fill="#000000" font-family="sans-serif" font-size="13" lengthAdjust="spacing" textLength="167" x="1403.25" y="1109.4141">call create users controller</text><polygon fill="#181818" points="1900.5,1139.4668,1910.5,1143.4668,1900.5,1147.4668" style="stroke:#181818;stroke-width:1.0;"/><line style="stroke:#181818;stroke-width:1.0;" x1="1710.5" x2="1906.5" y1="1143.4668" y2="1143.4668"/><text fill="#000000" font-family="sans-serif" font-size="13" lengthAdjust="spacing" textLength="126" x="1748.5" y="1138.7246">build request object</text><polygon fill="#181818" points="3612.5,1168.7773,3622.5,1172.7773,3612.5,1176.7773" style="stroke:#181818;stroke-width:1.0;"/><line style="stroke:#181818;stroke-width:1.0;" x1="1912.5" x2="3618.5" y1="1172.7773" y2="1172.7773"/><text fill="#000000" font-family="sans-serif" font-size="13" lengthAdjust="spacing" textLength="138" x="2699.5" y="1168.0352">send backend request</text><path d="M10,1187.7773 L72,1187.7773 L72,1195.0879 L62,1205.0879 L10,1205.0879 L10,1187.7773 " fill="#EEEEEE" style="stroke:#000000;stroke-width:1.5;"/><rect fill="none" height="193.1738" style="stroke:#000000;stroke-width:1.5;" width="3695" x="10" y="1187.7773"/><text fill="#000000" font-family="sans-serif" font-size="13" font-weight="bold" lengthAdjust="spacing" textLength="17" x="25" y="1201.3457">alt</text><text fill="#000000" font-family="sans-serif" font-size="11" font-weight="bold" lengthAdjust="spacing" textLength="121" x="87" y="1200.4121">[Failed to create user]</text><polygon fill="#181818" points="1923.5,1222.3984,1913.5,1226.3984,1923.5,1230.3984" style="stroke:#181818;stroke-width:1.0;"/><line style="stroke:#181818;stroke-width:1.0;stroke-dasharray:2.0,2.0;" x1="1917.5" x2="3623.5" y1="1226.3984" y2="1226.3984"/><text fill="#000000" font-family="sans-serif" font-size="13" lengthAdjust="spacing" textLength="91" x="2723" y="1221.6563">Error response</text><polygon fill="#181818" points="1721.5,1251.709,1711.5,1255.709,1721.5,1259.709" style="stroke:#181818;stroke-width:1.0;"/><line style="stroke:#181818;stroke-width:1.0;stroke-dasharray:2.0,2.0;" x1="1715.5" x2="1911.5" y1="1255.709" y2="1255.709"/><text fill="#000000" font-family="sans-serif" font-size="13" lengthAdjust="spacing" textLength="127" x="1748" y="1250.9668">reject requestObject</text><polygon fill="#181818" points="3452,1281.0195,3462,1285.0195,3452,1289.0195" style="stroke:#181818;stroke-width:1.0;"/><line style="stroke:#181818;stroke-width:1.0;" x1="1710.5" x2="3458" y1="1285.0195" y2="1285.0195"/><text fill="#000000" font-family="sans-serif" font-size="13" lengthAdjust="spacing" textLength="169" x="2502.75" y="1280.2773">request and build template</text><polygon fill="#181818" points="1721.5,1310.3301,1711.5,1314.3301,1721.5,1318.3301" style="stroke:#181818;stroke-width:1.0;"/><line style="stroke:#181818;stroke-width:1.0;" x1="1715.5" x2="3463" y1="1314.3301" y2="1314.3301"/><text fill="#000000" font-family="sans-serif" font-size="13" lengthAdjust="spacing" textLength="78" x="2548.25" y="1309.5879">return HTML</text><polygon fill="#181818" points="1544,1339.6406,1534,1343.6406,1544,1347.6406" style="stroke:#181818;stroke-width:1.0;"/><line style="stroke:#181818;stroke-width:1.0;" x1="1538" x2="1709.5" y1="1343.6406" y2="1343.6406"/><text fill="#000000" font-family="sans-serif" font-size="13" lengthAdjust="spacing" textLength="78" x="1582.75" y="1338.8984">return HTML</text><polygon fill="#181818" points="56.5,1368.9512,46.5,1372.9512,56.5,1376.9512" style="stroke:#181818;stroke-width:1.0;"/><line style="stroke:#181818;stroke-width:1.0;" x1="50.5" x2="1532" y1="1372.9512" y2="1372.9512"/><text fill="#000000" font-family="sans-serif" font-size="13" lengthAdjust="spacing" textLength="108" x="735.25" y="1368.209">render error page</text><polygon fill="#181818" points="1923.5,1405.2617,1913.5,1409.2617,1923.5,1413.2617" style="stroke:#181818;stroke-width:1.0;"/><line style="stroke:#181818;stroke-width:1.0;" x1="1917.5" x2="3623.5" y1="1409.2617" y2="1409.2617"/><text fill="#000000" font-family="sans-serif" font-size="13" lengthAdjust="spacing" textLength="77" x="2730" y="1404.5195">ok response</text><polygon fill="#181818" points="1721.5,1434.5723,1711.5,1438.5723,1721.5,1442.5723" style="stroke:#181818;stroke-width:1.0;"/><line style="stroke:#181818;stroke-width:1.0;" x1="1715.5" x2="1911.5" y1="1438.5723" y2="1438.5723"/><text fill="#000000" font-family="sans-serif" font-size="13" lengthAdjust="spacing" textLength="96" x="1763.5" y="1433.8301">resolve request</text><path d="M10,1453.5723 L72,1453.5723 L72,1460.8828 L62,1470.8828 L10,1470.8828 L10,1453.5723 " fill="#EEEEEE" style="stroke:#000000;stroke-width:1.5;"/><rect fill="none" height="193.1738" style="stroke:#000000;stroke-width:1.5;" width="3695" x="10" y="1453.5723"/><text fill="#000000" font-family="sans-serif" font-size="13" font-weight="bold" lengthAdjust="spacing" textLength="17" x="25" y="1467.1406">alt</text><text fill="#000000" font-family="sans-serif" font-size="11" font-weight="bold" lengthAdjust="spacing" textLength="169" x="87" y="1466.207">[Email address already in use]</text><polygon fill="#181818" points="1923.5,1488.1934,1913.5,1492.1934,1923.5,1496.1934" style="stroke:#181818;stroke-width:1.0;"/><line style="stroke:#181818;stroke-width:1.0;stroke-dasharray:2.0,2.0;" x1="1917.5" x2="3623.5" y1="1492.1934" y2="1492.1934"/><text fill="#000000" font-family="sans-serif" font-size="13" lengthAdjust="spacing" textLength="91" x="2723" y="1487.4512">Error response</text><polygon fill="#181818" points="1721.5,1517.5039,1711.5,1521.5039,1721.5,1525.5039" style="stroke:#181818;stroke-width:1.0;"/><line style="stroke:#181818;stroke-width:1.0;stroke-dasharray:2.0,2.0;" x1="1715.5" x2="1911.5" y1="1521.5039" y2="1521.5039"/><text fill="#000000" font-family="sans-serif" font-size="13" lengthAdjust="spacing" textLength="127" x="1748" y="1516.7617">reject requestObject</text><polygon fill="#181818" points="3156.5,1546.8145,3166.5,1550.8145,3156.5,1554.8145" style="stroke:#181818;stroke-width:1.0;"/><line style="stroke:#181818;stroke-width:1.0;" x1="1710.5" x2="3162.5" y1="1550.8145" y2="1550.8145"/><text fill="#000000" font-family="sans-serif" font-size="13" lengthAdjust="spacing" textLength="169" x="2355" y="1546.0723">request and build template</text><polygon fill="#181818" points="1721.5,1576.125,1711.5,1580.125,1721.5,1584.125" style="stroke:#181818;stroke-width:1.0;"/><line style="stroke:#181818;stroke-width:1.0;" x1="1715.5" x2="3167.5" y1="1580.125" y2="1580.125"/><text fill="#000000" font-family="sans-serif" font-size="13" lengthAdjust="spacing" textLength="78" x="2400.5" y="1575.3828">return HTML</text><polygon fill="#181818" points="1274,1605.4355,1264,1609.4355,1274,1613.4355" style="stroke:#181818;stroke-width:1.0;"/><line style="stroke:#181818;stroke-width:1.0;" x1="1268" x2="1709.5" y1="1609.4355" y2="1609.4355"/><text fill="#000000" font-family="sans-serif" font-size="13" lengthAdjust="spacing" textLength="112" x="1430.75" y="1604.6934">return error HTML</text><polygon fill="#181818" points="56.5,1634.7461,46.5,1638.7461,56.5,1642.7461" style="stroke:#181818;stroke-width:1.0;"/><line style="stroke:#181818;stroke-width:1.0;" x1="50.5" x2="1262" y1="1638.7461" y2="1638.7461"/><text fill="#000000" font-family="sans-serif" font-size="13" lengthAdjust="spacing" textLength="133" x="587.75" y="1634.0039">render error message</text><polygon fill="#181818" points="229.5,1671.0566,219.5,1675.0566,229.5,1679.0566" style="stroke:#181818;stroke-width:1.0;"/><line style="stroke:#181818;stroke-width:1.0;" x1="223.5" x2="1709.5" y1="1675.0566" y2="1675.0566"/><text fill="#000000" font-family="sans-serif" font-size="13" lengthAdjust="spacing" textLength="137" x="896" y="1670.3145">redirect to users page</text><polygon fill="#181818" points="56.5,1700.3672,46.5,1704.3672,56.5,1708.3672" style="stroke:#181818;stroke-width:1.0;"/><line style="stroke:#181818;stroke-width:1.0;" x1="50.5" x2="217.5" y1="1704.3672" y2="1704.3672"/><text fill="#000000" font-family="sans-serif" font-size="13" lengthAdjust="spacing" textLength="80" x="92" y="1699.625">render HTML</text><!--SRC=[xLbjS-8s4FxkNx7DTIOm0-IbkKxBt6Jg48TB2e62awyTnTOb2aBYR9bE_drNiW4xMBpTNOzqBXyOiBJFQXyzkrevJooaa0ZEn8Y6ZlCJ4m5FyD4Z5JHYGVs1os0KDoQS29MCkUF48oOc929Z6AeNJY5ME4qFGNw8Vawe26YNnZ5vf2vdZs9CXO80FsZaE3XDiO1D41NSG4byT7Xu29rUo-t0e7VdNz-s2vFkOXh5VSI23n-EI3XcWg5defWKHuaUIp_FpmjMhOWIHRNjIjF0JAilSEeXLOHnEvp_Cg5RGYeqUOqdnISMZJNWPUfmSymWjRMij9rkdnT5SXuwrJzmdc6wrRlr1xrEnnk0Uti90- -lEs_eG-_YnclvGqlKCIvOHP9p6Y5WVZcDO3xIUCR5m3lSyYVrGZcN_zZGUW_FD528P20ktLuZc0zMggz1pBBltSxrfUlt1jObtXFEGeAAWdTjoSFKpFUw_OxhUyDbJVbqZE9MQtJL4CyZknZMGLZrjHeM1RC3jDPP6UwIrhR3VgMt4Wz6R3dGlutWugEibAGMkATaIaL8iuo_S5j_UYZ0XHuBc1Sa6E7iXUuSnvGBg9ylIa8J0iw24QJh1RrUU4YKai9Pb0qqA1SoMXFEyyOn13b_FqTckRF0VAdXAgLODSlkrKegHpKNoV9e4qierybXWj5R2aI4ipZH8HC9TKhgqUvXJjF4eTTYagZryIqIRPkeQt1mAtD1nIPA6XvKToUwn9sTu9HSSmgboyZql9hUlQ3M4YTIUYsCXq90spDgBH0roq5LOBXqHdD1gHvrB0VUxincjSNjNxTmuWRKfcTEhLYiaC8hN0mDGScyCyCXOfl9BbTVWE-DqG6GC8om9GB2qI9y0IQqduCToS_rH7KhWH4DMQGhYP8PWHEqo3OExHOWUgwM2tpqkntd3_pkE4_5zZ3x-sOzu8-ExzjqVFlOpctQl_tesFQdOzkprWmiTaijrJn6NUEmBCNAdFSF2UDOyxD1AroXkYx1gIGIQSc4qdAngZJdRUSLkGIaM9htgt64ZNOXbzTDcFL3irv5Wn2keBGrr0ussPY21plI_qCp9b6tKavgCKuFOpGon_lsnAQDvgnfDYSv3JVDnA_8w7eslpZxDioyxt6Z-8evLtPts2dbh41lLnlhicnVCipUAEpCvch80gkMbdRxp2i7icRWTxbnRfPuMIlSp1YVxO4qZuiOsLIqNsgeq3wcUjlIWHcCIN-JkwMNrjV9EslBw_LI3wO7HEXu8aLCLsP-lJJ4Y9elsUBInqwM-2lOAlQUk-fq6IKlhUKxqTQYN89ubUuJMwxFQIzbNOxob6zI8d9ynv9FQLuDMWkhNZ2y4KcyqJfcEINMLBFIq-8_UAFJr__9k-jsO8gpyEO89utJuzEpnYyL_oc1A_e09-_XvFVcsN7p-3sqkpxeuQfJQVSxqrE8PH85s4JecoV3cnmYL9qRCYKmIB396MC1rhygVhSAGs_s43mnPP4qxt-Sc_jkEWa-IZMSI6Kc_tfMls0ARoyHBWpkkyub_KGIBMmHo929noRS-LVrtvmE4Oz9rdDXUKS7qKiJsXV_0W00]--></g></svg>