<?xml version="1.0" encoding="us-ascii" standalone="no"?><svg xmlns="http://www.w3.org/2000/svg" xmlns:xlink="http://www.w3.org/1999/xlink" contentStyleType="text/css" height="2733px" preserveAspectRatio="none" style="width:6134px;height:2733px;background:#FFFFFF;" version="1.1" viewBox="0 0 6134 2733" width="6134px" zoomAndPan="magnify"><defs/><g><rect fill="none" height="163.8633" style="stroke:#000000;stroke-width:1.5;" width="5967" x="10" y="157.9082"/><rect fill="none" height="163.8633" style="stroke:#000000;stroke-width:1.5;" width="5967" x="10" y="599.5664"/><rect fill="none" height="193.1738" style="stroke:#000000;stroke-width:1.5;" width="6118" x="10" y="865.3613"/><rect fill="none" height="163.8633" style="stroke:#000000;stroke-width:1.5;" width="5188" x="10" y="1131.1563"/><rect fill="none" height="163.8633" style="stroke:#000000;stroke-width:1.5;" width="5967" x="10" y="1514.1934"/><rect fill="none" height="193.1738" style="stroke:#000000;stroke-width:1.5;" width="6118" x="10" y="1779.9883"/><rect fill="none" height="193.1738" style="stroke:#000000;stroke-width:1.5;" width="5564" x="10" y="2045.7832"/><rect fill="none" height="193.1738" style="stroke:#000000;stroke-width:1.5;" width="6118" x="10" y="2311.5781"/><line style="stroke:#181818;stroke-width:0.5;stroke-dasharray:5.0,5.0;" x1="45" x2="45" y1="52.9766" y2="2726.9258"/><line style="stroke:#181818;stroke-width:0.5;stroke-dasharray:5.0,5.0;" x1="295" x2="295" y1="52.9766" y2="2726.9258"/><line style="stroke:#181818;stroke-width:0.5;stroke-dasharray:5.0,5.0;" x1="814" x2="814" y1="52.9766" y2="2726.9258"/><line style="stroke:#181818;stroke-width:0.5;stroke-dasharray:5.0,5.0;" x1="1418" x2="1418" y1="52.9766" y2="2726.9258"/><line style="stroke:#181818;stroke-width:0.5;stroke-dasharray:5.0,5.0;" x1="2044" x2="2044" y1="52.9766" y2="2726.9258"/><line style="stroke:#181818;stroke-width:0.5;stroke-dasharray:5.0,5.0;" x1="2439" x2="2439" y1="52.9766" y2="2726.9258"/><line style="stroke:#181818;stroke-width:0.5;stroke-dasharray:5.0,5.0;" x1="2655" x2="2655" y1="52.9766" y2="2726.9258"/><line style="stroke:#181818;stroke-width:0.5;stroke-dasharray:5.0,5.0;" x1="2968" x2="2968" y1="52.9766" y2="2726.9258"/><line style="stroke:#181818;stroke-width:0.5;stroke-dasharray:5.0,5.0;" x1="3221" x2="3221" y1="52.9766" y2="2726.9258"/><line style="stroke:#181818;stroke-width:0.5;stroke-dasharray:5.0,5.0;" x1="3478" x2="3478" y1="52.9766" y2="2726.9258"/><line style="stroke:#181818;stroke-width:0.5;stroke-dasharray:5.0,5.0;" x1="3673" x2="3673" y1="52.9766" y2="2726.9258"/><line style="stroke:#181818;stroke-width:0.5;stroke-dasharray:5.0,5.0;" x1="3970" x2="3970" y1="52.9766" y2="2726.9258"/><line style="stroke:#181818;stroke-width:0.5;stroke-dasharray:5.0,5.0;" x1="4350" x2="4350" y1="52.9766" y2="2726.9258"/><line style="stroke:#181818;stroke-width:0.5;stroke-dasharray:5.0,5.0;" x1="4688" x2="4688" y1="52.9766" y2="2726.9258"/><line style="stroke:#181818;stroke-width:0.5;stroke-dasharray:5.0,5.0;" x1="5020" x2="5020" y1="52.9766" y2="2726.9258"/><line style="stroke:#181818;stroke-width:0.5;stroke-dasharray:5.0,5.0;" x1="5381" x2="5381" y1="52.9766" y2="2726.9258"/><line style="stroke:#181818;stroke-width:0.5;stroke-dasharray:5.0,5.0;" x1="5656" x2="5656" y1="52.9766" y2="2726.9258"/><line style="stroke:#181818;stroke-width:0.5;stroke-dasharray:5.0,5.0;" x1="5858" x2="5858" y1="52.9766" y2="2726.9258"/><line style="stroke:#181818;stroke-width:0.5;stroke-dasharray:5.0,5.0;" x1="6047" x2="6047" y1="52.9766" y2="2726.9258"/><rect fill="#E2E2F0" height="30.4883" rx="2.5" ry="2.5" style="stroke:#181818;stroke-width:0.5;" width="51" x="20" y="21.4883"/><text fill="#000000" font-family="sans-serif" font-size="14" lengthAdjust="spacing" textLength="37" x="27" y="42.0234">Actor</text><rect fill="#E2E2F0" height="46.9766" rx="2.5" ry="2.5" style="stroke:#181818;stroke-width:0.5;" width="423" x="84" y="5"/><text fill="#000000" font-family="sans-serif" font-size="14" font-style="italic" lengthAdjust="spacing" textLength="409" x="91" y="25.5352">&#171;/pool-management/deferral-maintenance/:locationCode&#187;</text><text fill="#000000" font-family="sans-serif" font-size="14" lengthAdjust="spacing" textLength="175" x="208" y="42.0234">DeferralMaintenancePage</text><rect fill="#E2E2F0" height="46.9766" rx="2.5" ry="2.5" style="stroke:#181818;stroke-width:0.5;" width="594" x="517" y="5"/><text fill="#000000" font-family="sans-serif" font-size="14" font-style="italic" lengthAdjust="spacing" textLength="580" x="524" y="25.5352">&#171;/pool-management/deferral-maintenance/location/:locationCode/postpone/date&#187;</text><text fill="#000000" font-family="sans-serif" font-size="14" lengthAdjust="spacing" textLength="104" x="762" y="42.0234">SelectDatePage</text><rect fill="#E2E2F0" height="46.9766" rx="2.5" ry="2.5" style="stroke:#181818;stroke-width:0.5;" width="595" x="1121" y="5"/><text fill="#000000" font-family="sans-serif" font-size="14" font-style="italic" lengthAdjust="spacing" textLength="581" x="1128" y="25.5352">&#171;/pool-management/deferral-maintenance/location/:locationCode/postpone/pool&#187;</text><text fill="#000000" font-family="sans-serif" font-size="14" lengthAdjust="spacing" textLength="132" x="1352.5" y="42.0234">AvailablePoolsPage</text><rect fill="#E2E2F0" height="46.9766" rx="2.5" ry="2.5" style="stroke:#181818;stroke-width:0.5;" width="636" x="1726" y="5"/><text fill="#000000" font-family="sans-serif" font-size="14" font-style="italic" lengthAdjust="spacing" textLength="622" x="1733" y="25.5352">&#171;/pool-management/deferral-maintenance/location/:locationCode/postpone/movement&#187;</text><text fill="#000000" font-family="sans-serif" font-size="14" lengthAdjust="spacing" textLength="173" x="1957.5" y="42.0234">MovementValidationPage</text><rect fill="#E2E2F0" height="46.9766" rx="2.5" ry="2.5" style="stroke:#181818;stroke-width:0.5;" width="134" x="2372" y="5"/><text fill="#000000" font-family="sans-serif" font-size="14" font-style="italic" lengthAdjust="spacing" textLength="56" x="2411" y="25.5352">&#171;/error&#187;</text><text fill="#000000" font-family="sans-serif" font-size="14" lengthAdjust="spacing" textLength="120" x="2379" y="42.0234">GenericErrorPage</text><rect fill="#E2E2F0" height="46.9766" rx="2.5" ry="2.5" style="stroke:#181818;stroke-width:0.5;" width="279" x="2516" y="5"/><text fill="#000000" font-family="sans-serif" font-size="14" font-style="italic" lengthAdjust="spacing" textLength="265" x="2523" y="25.5352">&#171;summons-management.controller.js&#187;</text><text fill="#000000" font-family="sans-serif" font-size="14" lengthAdjust="spacing" textLength="212" x="2549.5" y="42.0234">DeferralMaintenanceController</text><rect fill="#E2E2F0" height="46.9766" rx="2.5" ry="2.5" style="stroke:#181818;stroke-width:0.5;" width="179" x="2879" y="5"/><text fill="#000000" font-family="sans-serif" font-size="14" font-style="italic" lengthAdjust="spacing" textLength="165" x="2886" y="25.5352">&#171;postpone.controller.js&#187;</text><text fill="#000000" font-family="sans-serif" font-size="14" lengthAdjust="spacing" textLength="134" x="2901.5" y="42.0234">PostponeController</text><rect fill="#E2E2F0" height="46.9766" rx="2.5" ry="2.5" style="stroke:#181818;stroke-width:0.5;" width="306" x="3068" y="5"/><text fill="#000000" font-family="sans-serif" font-size="14" font-style="italic" lengthAdjust="spacing" textLength="292" x="3075" y="25.5352">&#171;deferralMaintenance.availablePools.get()&#187;</text><text fill="#000000" font-family="sans-serif" font-size="14" lengthAdjust="spacing" textLength="123" x="3159.5" y="42.0234">AvailablePoolsObj</text><rect fill="#E2E2F0" height="46.9766" rx="2.5" ry="2.5" style="stroke:#181818;stroke-width:0.5;" width="189" x="3384" y="5"/><text fill="#000000" font-family="sans-serif" font-size="14" font-style="italic" lengthAdjust="spacing" textLength="175" x="3391" y="25.5352">&#171;validateMovement.put()&#187;</text><text fill="#000000" font-family="sans-serif" font-size="14" lengthAdjust="spacing" textLength="150" x="3403.5" y="42.0234">ValidateMovementObj</text><rect fill="#E2E2F0" height="46.9766" rx="2.5" ry="2.5" style="stroke:#181818;stroke-width:0.5;" width="181" x="3583" y="5"/><text fill="#000000" font-family="sans-serif" font-size="14" font-style="italic" lengthAdjust="spacing" textLength="167" x="3590" y="25.5352">&#171;postponeObject.post()&#187;</text><text fill="#000000" font-family="sans-serif" font-size="14" lengthAdjust="spacing" textLength="109" x="3619" y="42.0234">postponeObject</text><rect fill="#E2E2F0" height="46.9766" rx="2.5" ry="2.5" style="stroke:#181818;stroke-width:0.5;" width="392" x="3774" y="5"/><text fill="#000000" font-family="sans-serif" font-size="14" font-style="italic" lengthAdjust="spacing" textLength="378" x="3781" y="25.5352">&#171;/pool-management/deferral-maintenance/index.njk&#187;</text><text fill="#000000" font-family="sans-serif" font-size="14" lengthAdjust="spacing" textLength="206" x="3867" y="42.0234">DeferralMaintenanceTemplate</text><rect fill="#E2E2F0" height="46.9766" rx="2.5" ry="2.5" style="stroke:#181818;stroke-width:0.5;" width="348" x="4176" y="5"/><text fill="#000000" font-family="sans-serif" font-size="14" font-style="italic" lengthAdjust="spacing" textLength="334" x="4183" y="25.5352">&#171;/juror-management/postpone/select-date.njk&#187;</text><text fill="#000000" font-family="sans-serif" font-size="14" lengthAdjust="spacing" textLength="135" x="4282.5" y="42.0234">SelectDateTemplate</text><rect fill="#E2E2F0" height="46.9766" rx="2.5" ry="2.5" style="stroke:#181818;stroke-width:0.5;" width="309" x="4534" y="5"/><text fill="#000000" font-family="sans-serif" font-size="14" font-style="italic" lengthAdjust="spacing" textLength="295" x="4541" y="25.5352">&#171;/juror-management/postpone/pools.njk&#187;</text><text fill="#000000" font-family="sans-serif" font-size="14" lengthAdjust="spacing" textLength="163" x="4607" y="42.0234">AvailablePoolsTemplate</text><rect fill="#E2E2F0" height="46.9766" rx="2.5" ry="2.5" style="stroke:#181818;stroke-width:0.5;" width="335" x="4853" y="5"/><text fill="#000000" font-family="sans-serif" font-size="14" font-style="italic" lengthAdjust="spacing" textLength="321" x="4860" y="25.5352">&#171;/juror-management/postpone/no-pools.njk&#187;</text><text fill="#000000" font-family="sans-serif" font-size="14" lengthAdjust="spacing" textLength="182" x="4929.5" y="42.0234">NoAvailablePoolsTemplate</text><rect fill="#E2E2F0" height="46.9766" rx="2.5" ry="2.5" style="stroke:#181818;stroke-width:0.5;" width="366" x="5198" y="5"/><text fill="#000000" font-family="sans-serif" font-size="14" font-style="italic" lengthAdjust="spacing" textLength="352" x="5205" y="25.5352">&#171;/pool-management/movement/bulk-validate.njk&#187;</text><text fill="#000000" font-family="sans-serif" font-size="14" lengthAdjust="spacing" textLength="204" x="5279" y="42.0234">MovementValidationTemplate</text><rect fill="#E6E6FA" height="46.9766" rx="2.5" ry="2.5" style="stroke:#181818;stroke-width:0.5;" width="165" x="5574" y="5"/><text fill="#000000" font-family="sans-serif" font-size="14" font-style="italic" lengthAdjust="spacing" textLength="146" x="5583.5" y="25.5352">&#171;_errors/generic.njk&#187;</text><text fill="#000000" font-family="sans-serif" font-size="14" lengthAdjust="spacing" textLength="151" x="5581" y="42.0234">GenericErrorTemplate</text><rect fill="#E2E2F0" height="30.4883" rx="2.5" ry="2.5" style="stroke:#181818;stroke-width:0.5;" width="218" x="5749" y="21.4883"/><text fill="#000000" font-family="sans-serif" font-size="14" lengthAdjust="spacing" textLength="204" x="5756" y="42.0234">DeferralMaintenanceValidator</text><rect fill="#E2E2F0" height="30.4883" rx="2.5" ry="2.5" style="stroke:#181818;stroke-width:0.5;" width="141" x="5977" y="21.4883"/><text fill="#000000" font-family="sans-serif" font-size="14" lengthAdjust="spacing" textLength="127" x="5984" y="42.0234">BackendController</text><polygon fill="#181818" points="283.5,80.2871,293.5,84.2871,283.5,88.2871" style="stroke:#181818;stroke-width:1.0;"/><line style="stroke:#181818;stroke-width:1.0;" x1="45.5" x2="289.5" y1="84.2871" y2="84.2871"/><text fill="#000000" font-family="sans-serif" font-size="13" lengthAdjust="spacing" textLength="226" x="57.5" y="79.5449">select deferrals and click 'postpone'</text><polygon fill="#181818" points="2643.5,109.5977,2653.5,113.5977,2643.5,117.5977" style="stroke:#181818;stroke-width:1.0;"/><line style="stroke:#181818;stroke-width:1.0;" x1="295.5" x2="2649.5" y1="113.5977" y2="113.5977"/><text fill="#000000" font-family="sans-serif" font-size="13" lengthAdjust="spacing" textLength="286" x="1332.5" y="108.8555">call process controller with selected deferrals</text><polygon fill="#181818" points="5846,138.9082,5856,142.9082,5846,146.9082" style="stroke:#181818;stroke-width:1.0;"/><line style="stroke:#181818;stroke-width:1.0;" x1="2655.5" x2="5852" y1="142.9082" y2="142.9082"/><text fill="#000000" font-family="sans-serif" font-size="13" lengthAdjust="spacing" textLength="95" x="4209.25" y="138.166">validate details</text><path d="M10,157.9082 L72,157.9082 L72,165.2188 L62,175.2188 L10,175.2188 L10,157.9082 " fill="#EEEEEE" style="stroke:#000000;stroke-width:1.5;"/><rect fill="none" height="163.8633" style="stroke:#000000;stroke-width:1.5;" width="5967" x="10" y="157.9082"/><text fill="#000000" font-family="sans-serif" font-size="13" font-weight="bold" lengthAdjust="spacing" textLength="17" x="25" y="171.4766">alt</text><text fill="#000000" font-family="sans-serif" font-size="11" font-weight="bold" lengthAdjust="spacing" textLength="110" x="87" y="170.543">[No jurors selected]</text><polygon fill="#181818" points="2666.5,192.5293,2656.5,196.5293,2666.5,200.5293" style="stroke:#181818;stroke-width:1.0;"/><line style="stroke:#181818;stroke-width:1.0;" x1="2660.5" x2="5857" y1="196.5293" y2="196.5293"/><text fill="#000000" font-family="sans-serif" font-size="13" lengthAdjust="spacing" textLength="115" x="4199.25" y="191.7871">No jurors selected</text><polygon fill="#181818" points="3958,221.8398,3968,225.8398,3958,229.8398" style="stroke:#181818;stroke-width:1.0;"/><line style="stroke:#181818;stroke-width:1.0;" x1="2655.5" x2="3964" y1="225.8398" y2="225.8398"/><text fill="#000000" font-family="sans-serif" font-size="13" lengthAdjust="spacing" textLength="169" x="3228.25" y="221.0977">request and build template</text><polygon fill="#181818" points="2666.5,251.1504,2656.5,255.1504,2666.5,259.1504" style="stroke:#181818;stroke-width:1.0;"/><line style="stroke:#181818;stroke-width:1.0;" x1="2660.5" x2="3969" y1="255.1504" y2="255.1504"/><text fill="#000000" font-family="sans-serif" font-size="13" lengthAdjust="spacing" textLength="78" x="3273.75" y="250.4082">return HTML</text><polygon fill="#181818" points="306.5,280.4609,296.5,284.4609,306.5,288.4609" style="stroke:#181818;stroke-width:1.0;"/><line style="stroke:#181818;stroke-width:1.0;" x1="300.5" x2="2654.5" y1="284.4609" y2="284.4609"/><text fill="#000000" font-family="sans-serif" font-size="13" lengthAdjust="spacing" textLength="112" x="1419.5" y="279.7188">return error HTML</text><polygon fill="#181818" points="56.5,309.7715,46.5,313.7715,56.5,317.7715" style="stroke:#181818;stroke-width:1.0;"/><line style="stroke:#181818;stroke-width:1.0;" x1="50.5" x2="294.5" y1="313.7715" y2="313.7715"/><text fill="#000000" font-family="sans-serif" font-size="13" lengthAdjust="spacing" textLength="133" x="104" y="309.0293">render error message</text><polygon fill="#181818" points="2666.5,346.082,2656.5,350.082,2666.5,354.082" style="stroke:#181818;stroke-width:1.0;"/><line style="stroke:#181818;stroke-width:1.0;" x1="2660.5" x2="5857" y1="350.082" y2="350.082"/><text fill="#000000" font-family="sans-serif" font-size="13" lengthAdjust="spacing" textLength="127" x="4193.25" y="345.3398">valid details entered</text><polygon fill="#181818" points="2956.5,375.3926,2966.5,379.3926,2956.5,383.3926" style="stroke:#181818;stroke-width:1.0;"/><line style="stroke:#181818;stroke-width:1.0;" x1="2655.5" x2="2962.5" y1="379.3926" y2="379.3926"/><text fill="#000000" font-family="sans-serif" font-size="13" lengthAdjust="spacing" textLength="289" x="2667.5" y="374.6504">pass selected deferrals to postpone controller</text><polygon fill="#181818" points="4338,404.7031,4348,408.7031,4338,412.7031" style="stroke:#181818;stroke-width:1.0;"/><line style="stroke:#181818;stroke-width:1.0;" x1="2968.5" x2="4344" y1="408.7031" y2="408.7031"/><text fill="#000000" font-family="sans-serif" font-size="13" lengthAdjust="spacing" textLength="169" x="3574.75" y="403.9609">request and build template</text><polygon fill="#181818" points="2979.5,434.0137,2969.5,438.0137,2979.5,442.0137" style="stroke:#181818;stroke-width:1.0;"/><line style="stroke:#181818;stroke-width:1.0;" x1="2973.5" x2="4349" y1="438.0137" y2="438.0137"/><text fill="#000000" font-family="sans-serif" font-size="13" lengthAdjust="spacing" textLength="78" x="3620.25" y="433.2715">return HTML</text><polygon fill="#181818" points="825,463.3242,815,467.3242,825,471.3242" style="stroke:#181818;stroke-width:1.0;"/><line style="stroke:#181818;stroke-width:1.0;" x1="819" x2="2967.5" y1="467.3242" y2="467.3242"/><text fill="#000000" font-family="sans-serif" font-size="13" lengthAdjust="spacing" textLength="78" x="1852.25" y="462.582">return HTML</text><polygon fill="#181818" points="56.5,492.6348,46.5,496.6348,56.5,500.6348" style="stroke:#181818;stroke-width:1.0;"/><line style="stroke:#181818;stroke-width:1.0;" x1="50.5" x2="813" y1="496.6348" y2="496.6348"/><text fill="#000000" font-family="sans-serif" font-size="13" lengthAdjust="spacing" textLength="80" x="389.75" y="491.8926">render HTML</text><polygon fill="#181818" points="802,521.9453,812,525.9453,802,529.9453" style="stroke:#181818;stroke-width:1.0;"/><line style="stroke:#181818;stroke-width:1.0;" x1="45.5" x2="808" y1="525.9453" y2="525.9453"/><text fill="#000000" font-family="sans-serif" font-size="13" lengthAdjust="spacing" textLength="223" x="318.25" y="521.2031">select new date and click 'continue'</text><polygon fill="#181818" points="2956.5,551.2559,2966.5,555.2559,2956.5,559.2559" style="stroke:#181818;stroke-width:1.0;"/><line style="stroke:#181818;stroke-width:1.0;" x1="814" x2="2962.5" y1="555.2559" y2="555.2559"/><text fill="#000000" font-family="sans-serif" font-size="13" lengthAdjust="spacing" textLength="354" x="1714.25" y="550.5137">call postpone controller with selected date and deferrals</text><polygon fill="#181818" points="5846,580.5664,5856,584.5664,5846,588.5664" style="stroke:#181818;stroke-width:1.0;"/><line style="stroke:#181818;stroke-width:1.0;" x1="2968.5" x2="5852" y1="584.5664" y2="584.5664"/><text fill="#000000" font-family="sans-serif" font-size="13" lengthAdjust="spacing" textLength="95" x="4365.75" y="579.8242">validate details</text><path d="M10,599.5664 L72,599.5664 L72,606.877 L62,616.877 L10,616.877 L10,599.5664 " fill="#EEEEEE" style="stroke:#000000;stroke-width:1.5;"/><rect fill="none" height="163.8633" style="stroke:#000000;stroke-width:1.5;" width="5967" x="10" y="599.5664"/><text fill="#000000" font-family="sans-serif" font-size="13" font-weight="bold" lengthAdjust="spacing" textLength="17" x="25" y="613.1348">alt</text><text fill="#000000" font-family="sans-serif" font-size="11" font-weight="bold" lengthAdjust="spacing" textLength="99" x="87" y="612.2012">[No date selected]</text><polygon fill="#181818" points="2979.5,634.1875,2969.5,638.1875,2979.5,642.1875" style="stroke:#181818;stroke-width:1.0;"/><line style="stroke:#181818;stroke-width:1.0;" x1="2973.5" x2="5857" y1="638.1875" y2="638.1875"/><text fill="#000000" font-family="sans-serif" font-size="13" lengthAdjust="spacing" textLength="105" x="4360.75" y="633.4453">No date selected</text><polygon fill="#181818" points="4338,663.498,4348,667.498,4338,671.498" style="stroke:#181818;stroke-width:1.0;"/><line style="stroke:#181818;stroke-width:1.0;" x1="2968.5" x2="4344" y1="667.498" y2="667.498"/><text fill="#000000" font-family="sans-serif" font-size="13" lengthAdjust="spacing" textLength="169" x="3574.75" y="662.7559">request and build template</text><polygon fill="#181818" points="2979.5,692.8086,2969.5,696.8086,2979.5,700.8086" style="stroke:#181818;stroke-width:1.0;"/><line style="stroke:#181818;stroke-width:1.0;" x1="2973.5" x2="4349" y1="696.8086" y2="696.8086"/><text fill="#000000" font-family="sans-serif" font-size="13" lengthAdjust="spacing" textLength="78" x="3620.25" y="692.0664">return HTML</text><polygon fill="#181818" points="825,722.1191,815,726.1191,825,730.1191" style="stroke:#181818;stroke-width:1.0;"/><line style="stroke:#181818;stroke-width:1.0;" x1="819" x2="2967.5" y1="726.1191" y2="726.1191"/><text fill="#000000" font-family="sans-serif" font-size="13" lengthAdjust="spacing" textLength="112" x="1835.25" y="721.377">return error HTML</text><polygon fill="#181818" points="56.5,751.4297,46.5,755.4297,56.5,759.4297" style="stroke:#181818;stroke-width:1.0;"/><line style="stroke:#181818;stroke-width:1.0;" x1="50.5" x2="813" y1="755.4297" y2="755.4297"/><text fill="#000000" font-family="sans-serif" font-size="13" lengthAdjust="spacing" textLength="133" x="363.25" y="750.6875">render error message</text><polygon fill="#181818" points="2979.5,787.7402,2969.5,791.7402,2979.5,795.7402" style="stroke:#181818;stroke-width:1.0;"/><line style="stroke:#181818;stroke-width:1.0;" x1="2973.5" x2="5857" y1="791.7402" y2="791.7402"/><text fill="#000000" font-family="sans-serif" font-size="13" lengthAdjust="spacing" textLength="127" x="4349.75" y="786.998">valid details entered</text><polygon fill="#181818" points="3209,817.0508,3219,821.0508,3209,825.0508" style="stroke:#181818;stroke-width:1.0;"/><line style="stroke:#181818;stroke-width:1.0;" x1="2968.5" x2="3215" y1="821.0508" y2="821.0508"/><text fill="#000000" font-family="sans-serif" font-size="13" lengthAdjust="spacing" textLength="126" x="3031.75" y="816.3086">build request object</text><polygon fill="#181818" points="6035.5,846.3613,6045.5,850.3613,6035.5,854.3613" style="stroke:#181818;stroke-width:1.0;"/><line style="stroke:#181818;stroke-width:1.0;" x1="3221" x2="6041.5" y1="850.3613" y2="850.3613"/><text fill="#000000" font-family="sans-serif" font-size="13" lengthAdjust="spacing" textLength="138" x="4565.25" y="845.6191">send backend request</text><path d="M10,865.3613 L72,865.3613 L72,872.6719 L62,882.6719 L10,882.6719 L10,865.3613 " fill="#EEEEEE" style="stroke:#000000;stroke-width:1.5;"/><rect fill="none" height="193.1738" style="stroke:#000000;stroke-width:1.5;" width="6118" x="10" y="865.3613"/><text fill="#000000" font-family="sans-serif" font-size="13" font-weight="bold" lengthAdjust="spacing" textLength="17" x="25" y="878.9297">alt</text><text fill="#000000" font-family="sans-serif" font-size="11" font-weight="bold" lengthAdjust="spacing" textLength="163" x="87" y="877.9961">[Failed to fetch pool options]</text><polygon fill="#181818" points="3232,899.9824,3222,903.9824,3232,907.9824" style="stroke:#181818;stroke-width:1.0;"/><line style="stroke:#181818;stroke-width:1.0;stroke-dasharray:2.0,2.0;" x1="3226" x2="6046.5" y1="903.9824" y2="903.9824"/><text fill="#000000" font-family="sans-serif" font-size="13" lengthAdjust="spacing" textLength="91" x="4588.75" y="899.2402">Error response</text><polygon fill="#181818" points="2979.5,929.293,2969.5,933.293,2979.5,937.293" style="stroke:#181818;stroke-width:1.0;"/><line style="stroke:#181818;stroke-width:1.0;stroke-dasharray:2.0,2.0;" x1="2973.5" x2="3220" y1="933.293" y2="933.293"/><text fill="#000000" font-family="sans-serif" font-size="13" lengthAdjust="spacing" textLength="127" x="3031.25" y="928.5508">reject requestObject</text><polygon fill="#181818" points="5644.5,958.6035,5654.5,962.6035,5644.5,966.6035" style="stroke:#181818;stroke-width:1.0;"/><line style="stroke:#181818;stroke-width:1.0;" x1="2968.5" x2="5650.5" y1="962.6035" y2="962.6035"/><text fill="#000000" font-family="sans-serif" font-size="13" lengthAdjust="spacing" textLength="169" x="4228" y="957.8613">request and build template</text><polygon fill="#181818" points="2979.5,987.9141,2969.5,991.9141,2979.5,995.9141" style="stroke:#181818;stroke-width:1.0;"/><line style="stroke:#181818;stroke-width:1.0;" x1="2973.5" x2="5655.5" y1="991.9141" y2="991.9141"/><text fill="#000000" font-family="sans-serif" font-size="13" lengthAdjust="spacing" textLength="78" x="4273.5" y="987.1719">return HTML</text><polygon fill="#181818" points="2450,1017.2246,2440,1021.2246,2450,1025.2246" style="stroke:#181818;stroke-width:1.0;"/><line style="stroke:#181818;stroke-width:1.0;" x1="2444" x2="2967.5" y1="1021.2246" y2="1021.2246"/><text fill="#000000" font-family="sans-serif" font-size="13" lengthAdjust="spacing" textLength="78" x="2664.75" y="1016.4824">return HTML</text><polygon fill="#181818" points="56.5,1046.5352,46.5,1050.5352,56.5,1054.5352" style="stroke:#181818;stroke-width:1.0;"/><line style="stroke:#181818;stroke-width:1.0;" x1="50.5" x2="2438" y1="1050.5352" y2="1050.5352"/><text fill="#000000" font-family="sans-serif" font-size="13" lengthAdjust="spacing" textLength="108" x="1188.25" y="1045.793">render error page</text><polygon fill="#181818" points="3232,1082.8457,3222,1086.8457,3232,1090.8457" style="stroke:#181818;stroke-width:1.0;"/><line style="stroke:#181818;stroke-width:1.0;" x1="3226" x2="6046.5" y1="1086.8457" y2="1086.8457"/><text fill="#000000" font-family="sans-serif" font-size="13" lengthAdjust="spacing" textLength="77" x="4595.75" y="1082.1035">ok response</text><polygon fill="#181818" points="2979.5,1112.1563,2969.5,1116.1563,2979.5,1120.1563" style="stroke:#181818;stroke-width:1.0;"/><line style="stroke:#181818;stroke-width:1.0;" x1="2973.5" x2="3220" y1="1116.1563" y2="1116.1563"/><text fill="#000000" font-family="sans-serif" font-size="13" lengthAdjust="spacing" textLength="96" x="3046.75" y="1111.4141">resolve request</text><path d="M10,1131.1563 L72,1131.1563 L72,1138.4668 L62,1148.4668 L10,1148.4668 L10,1131.1563 " fill="#EEEEEE" style="stroke:#000000;stroke-width:1.5;"/><rect fill="none" height="163.8633" style="stroke:#000000;stroke-width:1.5;" width="5188" x="10" y="1131.1563"/><text fill="#000000" font-family="sans-serif" font-size="13" font-weight="bold" lengthAdjust="spacing" textLength="17" x="25" y="1144.7246">alt</text><text fill="#000000" font-family="sans-serif" font-size="11" font-weight="bold" lengthAdjust="spacing" textLength="111" x="87" y="1143.791">[no pools available]</text><polygon fill="#181818" points="5008.5,1165.7773,5018.5,1169.7773,5008.5,1173.7773" style="stroke:#181818;stroke-width:1.0;"/><line style="stroke:#181818;stroke-width:1.0;" x1="2968.5" x2="5014.5" y1="1169.7773" y2="1169.7773"/><text fill="#000000" font-family="sans-serif" font-size="13" lengthAdjust="spacing" textLength="169" x="3910" y="1165.0352">request and build template</text><polygon fill="#181818" points="2979.5,1195.0879,2969.5,1199.0879,2979.5,1203.0879" style="stroke:#181818;stroke-width:1.0;"/><line style="stroke:#181818;stroke-width:1.0;" x1="2973.5" x2="5019.5" y1="1199.0879" y2="1199.0879"/><text fill="#000000" font-family="sans-serif" font-size="13" lengthAdjust="spacing" textLength="78" x="3955.5" y="1194.3457">return HTML</text><polygon fill="#181818" points="1429.5,1224.3984,1419.5,1228.3984,1429.5,1232.3984" style="stroke:#181818;stroke-width:1.0;"/><line style="stroke:#181818;stroke-width:1.0;" x1="1423.5" x2="2967.5" y1="1228.3984" y2="1228.3984"/><text fill="#000000" font-family="sans-serif" font-size="13" lengthAdjust="spacing" textLength="78" x="2154.5" y="1223.6563">return HTML</text><polygon fill="#181818" points="56.5,1253.709,46.5,1257.709,56.5,1261.709" style="stroke:#181818;stroke-width:1.0;"/><line style="stroke:#181818;stroke-width:1.0;" x1="50.5" x2="1417.5" y1="1257.709" y2="1257.709"/><text fill="#000000" font-family="sans-serif" font-size="13" lengthAdjust="spacing" textLength="80" x="692" y="1252.9668">render HTML</text><polygon fill="#181818" points="1406.5,1283.0195,1416.5,1287.0195,1406.5,1291.0195" style="stroke:#181818;stroke-width:1.0;"/><line style="stroke:#181818;stroke-width:1.0;" x1="45.5" x2="1412.5" y1="1287.0195" y2="1287.0195"/><text fill="#000000" font-family="sans-serif" font-size="13" lengthAdjust="spacing" textLength="95" x="684.5" y="1282.2773">click 'continue'</text><polygon fill="#181818" points="4676.5,1319.3301,4686.5,1323.3301,4676.5,1327.3301" style="stroke:#181818;stroke-width:1.0;"/><line style="stroke:#181818;stroke-width:1.0;" x1="2968.5" x2="4682.5" y1="1323.3301" y2="1323.3301"/><text fill="#000000" font-family="sans-serif" font-size="13" lengthAdjust="spacing" textLength="169" x="3744" y="1318.5879">request and build template</text><polygon fill="#181818" points="2979.5,1348.6406,2969.5,1352.6406,2979.5,1356.6406" style="stroke:#181818;stroke-width:1.0;"/><line style="stroke:#181818;stroke-width:1.0;" x1="2973.5" x2="4687.5" y1="1352.6406" y2="1352.6406"/><text fill="#000000" font-family="sans-serif" font-size="13" lengthAdjust="spacing" textLength="78" x="3789.5" y="1347.8984">return HTML</text><polygon fill="#181818" points="1429.5,1377.9512,1419.5,1381.9512,1429.5,1385.9512" style="stroke:#181818;stroke-width:1.0;"/><line style="stroke:#181818;stroke-width:1.0;" x1="1423.5" x2="2967.5" y1="1381.9512" y2="1381.9512"/><text fill="#000000" font-family="sans-serif" font-size="13" lengthAdjust="spacing" textLength="78" x="2154.5" y="1377.209">return HTML</text><polygon fill="#181818" points="56.5,1407.2617,46.5,1411.2617,56.5,1415.2617" style="stroke:#181818;stroke-width:1.0;"/><line style="stroke:#181818;stroke-width:1.0;" x1="50.5" x2="1417.5" y1="1411.2617" y2="1411.2617"/><text fill="#000000" font-family="sans-serif" font-size="13" lengthAdjust="spacing" textLength="80" x="692" y="1406.5195">render HTML</text><polygon fill="#181818" points="1406.5,1436.5723,1416.5,1440.5723,1406.5,1444.5723" style="stroke:#181818;stroke-width:1.0;"/><line style="stroke:#181818;stroke-width:1.0;" x1="45.5" x2="1412.5" y1="1440.5723" y2="1440.5723"/><text fill="#000000" font-family="sans-serif" font-size="13" lengthAdjust="spacing" textLength="195" x="634.5" y="1435.8301">select pool and click 'continue'</text><polygon fill="#181818" points="2956.5,1465.8828,2966.5,1469.8828,2956.5,1473.8828" style="stroke:#181818;stroke-width:1.0;"/><line style="stroke:#181818;stroke-width:1.0;" x1="1418.5" x2="2962.5" y1="1469.8828" y2="1469.8828"/><text fill="#000000" font-family="sans-serif" font-size="13" lengthAdjust="spacing" textLength="355" x="2016" y="1465.1406">call postpone controller with selected pool and deferrals</text><polygon fill="#181818" points="5846,1495.1934,5856,1499.1934,5846,1503.1934" style="stroke:#181818;stroke-width:1.0;"/><line style="stroke:#181818;stroke-width:1.0;" x1="2968.5" x2="5852" y1="1499.1934" y2="1499.1934"/><text fill="#000000" font-family="sans-serif" font-size="13" lengthAdjust="spacing" textLength="95" x="4365.75" y="1494.4512">validate details</text><path d="M10,1514.1934 L72,1514.1934 L72,1521.5039 L62,1531.5039 L10,1531.5039 L10,1514.1934 " fill="#EEEEEE" style="stroke:#000000;stroke-width:1.5;"/><rect fill="none" height="163.8633" style="stroke:#000000;stroke-width:1.5;" width="5967" x="10" y="1514.1934"/><text fill="#000000" font-family="sans-serif" font-size="13" font-weight="bold" lengthAdjust="spacing" textLength="17" x="25" y="1527.7617">alt</text><text fill="#000000" font-family="sans-serif" font-size="11" font-weight="bold" lengthAdjust="spacing" textLength="101" x="87" y="1526.8281">[No pool selected]</text><polygon fill="#181818" points="2979.5,1548.8145,2969.5,1552.8145,2979.5,1556.8145" style="stroke:#181818;stroke-width:1.0;"/><line style="stroke:#181818;stroke-width:1.0;" x1="2973.5" x2="5857" y1="1552.8145" y2="1552.8145"/><text fill="#000000" font-family="sans-serif" font-size="13" lengthAdjust="spacing" textLength="106" x="4360.25" y="1548.0723">No pool selected</text><polygon fill="#181818" points="4676.5,1578.125,4686.5,1582.125,4676.5,1586.125" style="stroke:#181818;stroke-width:1.0;"/><line style="stroke:#181818;stroke-width:1.0;" x1="2968.5" x2="4682.5" y1="1582.125" y2="1582.125"/><text fill="#000000" font-family="sans-serif" font-size="13" lengthAdjust="spacing" textLength="169" x="3744" y="1577.3828">request and build template</text><polygon fill="#181818" points="2979.5,1607.4355,2969.5,1611.4355,2979.5,1615.4355" style="stroke:#181818;stroke-width:1.0;"/><line style="stroke:#181818;stroke-width:1.0;" x1="2973.5" x2="4687.5" y1="1611.4355" y2="1611.4355"/><text fill="#000000" font-family="sans-serif" font-size="13" lengthAdjust="spacing" textLength="78" x="3789.5" y="1606.6934">return HTML</text><polygon fill="#181818" points="1429.5,1636.7461,1419.5,1640.7461,1429.5,1644.7461" style="stroke:#181818;stroke-width:1.0;"/><line style="stroke:#181818;stroke-width:1.0;" x1="1423.5" x2="2967.5" y1="1640.7461" y2="1640.7461"/><text fill="#000000" font-family="sans-serif" font-size="13" lengthAdjust="spacing" textLength="112" x="2137.5" y="1636.0039">return error HTML</text><polygon fill="#181818" points="56.5,1666.0566,46.5,1670.0566,56.5,1674.0566" style="stroke:#181818;stroke-width:1.0;"/><line style="stroke:#181818;stroke-width:1.0;" x1="50.5" x2="1417.5" y1="1670.0566" y2="1670.0566"/><text fill="#000000" font-family="sans-serif" font-size="13" lengthAdjust="spacing" textLength="133" x="665.5" y="1665.3145">render error message</text><polygon fill="#181818" points="2979.5,1702.3672,2969.5,1706.3672,2979.5,1710.3672" style="stroke:#181818;stroke-width:1.0;"/><line style="stroke:#181818;stroke-width:1.0;" x1="2973.5" x2="5857" y1="1706.3672" y2="1706.3672"/><text fill="#000000" font-family="sans-serif" font-size="13" lengthAdjust="spacing" textLength="127" x="4349.75" y="1701.625">valid details entered</text><polygon fill="#181818" points="3466.5,1731.6777,3476.5,1735.6777,3466.5,1739.6777" style="stroke:#181818;stroke-width:1.0;"/><line style="stroke:#181818;stroke-width:1.0;" x1="2968.5" x2="3472.5" y1="1735.6777" y2="1735.6777"/><text fill="#000000" font-family="sans-serif" font-size="13" lengthAdjust="spacing" textLength="126" x="3160.5" y="1730.9355">build request object</text><polygon fill="#181818" points="6035.5,1760.9883,6045.5,1764.9883,6035.5,1768.9883" style="stroke:#181818;stroke-width:1.0;"/><line style="stroke:#181818;stroke-width:1.0;" x1="3478.5" x2="6041.5" y1="1764.9883" y2="1764.9883"/><text fill="#000000" font-family="sans-serif" font-size="13" lengthAdjust="spacing" textLength="138" x="4694" y="1760.2461">send backend request</text><path d="M10,1779.9883 L72,1779.9883 L72,1787.2988 L62,1797.2988 L10,1797.2988 L10,1779.9883 " fill="#EEEEEE" style="stroke:#000000;stroke-width:1.5;"/><rect fill="none" height="193.1738" style="stroke:#000000;stroke-width:1.5;" width="6118" x="10" y="1779.9883"/><text fill="#000000" font-family="sans-serif" font-size="13" font-weight="bold" lengthAdjust="spacing" textLength="17" x="25" y="1793.5566">alt</text><text fill="#000000" font-family="sans-serif" font-size="11" font-weight="bold" lengthAdjust="spacing" textLength="186" x="87" y="1792.623">[Failed to check transfer validity]</text><polygon fill="#181818" points="3489.5,1814.6094,3479.5,1818.6094,3489.5,1822.6094" style="stroke:#181818;stroke-width:1.0;"/><line style="stroke:#181818;stroke-width:1.0;stroke-dasharray:2.0,2.0;" x1="3483.5" x2="6046.5" y1="1818.6094" y2="1818.6094"/><text fill="#000000" font-family="sans-serif" font-size="13" lengthAdjust="spacing" textLength="91" x="4717.5" y="1813.8672">Error response</text><polygon fill="#181818" points="2979.5,1843.9199,2969.5,1847.9199,2979.5,1851.9199" style="stroke:#181818;stroke-width:1.0;"/><line style="stroke:#181818;stroke-width:1.0;stroke-dasharray:2.0,2.0;" x1="2973.5" x2="3477.5" y1="1847.9199" y2="1847.9199"/><text fill="#000000" font-family="sans-serif" font-size="13" lengthAdjust="spacing" textLength="127" x="3160" y="1843.1777">reject requestObject</text><polygon fill="#181818" points="5644.5,1873.2305,5654.5,1877.2305,5644.5,1881.2305" style="stroke:#181818;stroke-width:1.0;"/><line style="stroke:#181818;stroke-width:1.0;" x1="2968.5" x2="5650.5" y1="1877.2305" y2="1877.2305"/><text fill="#000000" font-family="sans-serif" font-size="13" lengthAdjust="spacing" textLength="169" x="4228" y="1872.4883">request and build template</text><polygon fill="#181818" points="2979.5,1902.541,2969.5,1906.541,2979.5,1910.541" style="stroke:#181818;stroke-width:1.0;"/><line style="stroke:#181818;stroke-width:1.0;" x1="2973.5" x2="5655.5" y1="1906.541" y2="1906.541"/><text fill="#000000" font-family="sans-serif" font-size="13" lengthAdjust="spacing" textLength="78" x="4273.5" y="1901.7988">return HTML</text><polygon fill="#181818" points="2450,1931.8516,2440,1935.8516,2450,1939.8516" style="stroke:#181818;stroke-width:1.0;"/><line style="stroke:#181818;stroke-width:1.0;" x1="2444" x2="2967.5" y1="1935.8516" y2="1935.8516"/><text fill="#000000" font-family="sans-serif" font-size="13" lengthAdjust="spacing" textLength="78" x="2664.75" y="1931.1094">return HTML</text><polygon fill="#181818" points="56.5,1961.1621,46.5,1965.1621,56.5,1969.1621" style="stroke:#181818;stroke-width:1.0;"/><line style="stroke:#181818;stroke-width:1.0;" x1="50.5" x2="2438" y1="1965.1621" y2="1965.1621"/><text fill="#000000" font-family="sans-serif" font-size="13" lengthAdjust="spacing" textLength="108" x="1188.25" y="1960.4199">render error page</text><polygon fill="#181818" points="3489.5,1997.4727,3479.5,2001.4727,3489.5,2005.4727" style="stroke:#181818;stroke-width:1.0;"/><line style="stroke:#181818;stroke-width:1.0;" x1="3483.5" x2="6046.5" y1="2001.4727" y2="2001.4727"/><text fill="#000000" font-family="sans-serif" font-size="13" lengthAdjust="spacing" textLength="77" x="4724.5" y="1996.7305">ok response</text><polygon fill="#181818" points="2979.5,2026.7832,2969.5,2030.7832,2979.5,2034.7832" style="stroke:#181818;stroke-width:1.0;"/><line style="stroke:#181818;stroke-width:1.0;" x1="2973.5" x2="3477.5" y1="2030.7832" y2="2030.7832"/><text fill="#000000" font-family="sans-serif" font-size="13" lengthAdjust="spacing" textLength="96" x="3175.5" y="2026.041">resolve request</text><path d="M10,2045.7832 L72,2045.7832 L72,2053.0938 L62,2063.0938 L10,2063.0938 L10,2045.7832 " fill="#EEEEEE" style="stroke:#000000;stroke-width:1.5;"/><rect fill="none" height="193.1738" style="stroke:#000000;stroke-width:1.5;" width="5564" x="10" y="2045.7832"/><text fill="#000000" font-family="sans-serif" font-size="13" font-weight="bold" lengthAdjust="spacing" textLength="17" x="25" y="2059.3516">alt</text><text fill="#000000" font-family="sans-serif" font-size="11" font-weight="bold" lengthAdjust="spacing" textLength="211" x="87" y="2058.418">[some jurors unable to be postponed]</text><polygon fill="#181818" points="5369,2080.4043,5379,2084.4043,5369,2088.4043" style="stroke:#181818;stroke-width:1.0;"/><line style="stroke:#181818;stroke-width:1.0;" x1="2968.5" x2="5375" y1="2084.4043" y2="2084.4043"/><text fill="#000000" font-family="sans-serif" font-size="13" lengthAdjust="spacing" textLength="169" x="4090.25" y="2079.6621">request and build template</text><polygon fill="#181818" points="2979.5,2109.7148,2969.5,2113.7148,2979.5,2117.7148" style="stroke:#181818;stroke-width:1.0;"/><line style="stroke:#181818;stroke-width:1.0;" x1="2973.5" x2="5380" y1="2113.7148" y2="2113.7148"/><text fill="#000000" font-family="sans-serif" font-size="13" lengthAdjust="spacing" textLength="78" x="4135.75" y="2108.9727">return HTML</text><polygon fill="#181818" points="2055,2139.0254,2045,2143.0254,2055,2147.0254" style="stroke:#181818;stroke-width:1.0;"/><line style="stroke:#181818;stroke-width:1.0;" x1="2049" x2="2967.5" y1="2143.0254" y2="2143.0254"/><text fill="#000000" font-family="sans-serif" font-size="13" lengthAdjust="spacing" textLength="78" x="2467.25" y="2138.2832">return HTML</text><polygon fill="#181818" points="56.5,2168.3359,46.5,2172.3359,56.5,2176.3359" style="stroke:#181818;stroke-width:1.0;"/><line style="stroke:#181818;stroke-width:1.0;" x1="50.5" x2="2043" y1="2172.3359" y2="2172.3359"/><text fill="#000000" font-family="sans-serif" font-size="13" lengthAdjust="spacing" textLength="80" x="1004.75" y="2167.5938">render HTML</text><polygon fill="#181818" points="2032,2197.6465,2042,2201.6465,2032,2205.6465" style="stroke:#181818;stroke-width:1.0;"/><line style="stroke:#181818;stroke-width:1.0;" x1="45.5" x2="2038" y1="2201.6465" y2="2201.6465"/><text fill="#000000" font-family="sans-serif" font-size="13" lengthAdjust="spacing" textLength="107" x="991.25" y="2196.9043">click 'continue...'</text><polygon fill="#181818" points="2956.5,2226.957,2966.5,2230.957,2956.5,2234.957" style="stroke:#181818;stroke-width:1.0;"/><line style="stroke:#181818;stroke-width:1.0;" x1="2044" x2="2962.5" y1="2230.957" y2="2230.957"/><text fill="#000000" font-family="sans-serif" font-size="13" lengthAdjust="spacing" textLength="150" x="2431.25" y="2226.2148">call postpone controller</text><polygon fill="#181818" points="3661.5,2263.2676,3671.5,2267.2676,3661.5,2271.2676" style="stroke:#181818;stroke-width:1.0;"/><line style="stroke:#181818;stroke-width:1.0;" x1="2968.5" x2="3667.5" y1="2267.2676" y2="2267.2676"/><text fill="#000000" font-family="sans-serif" font-size="13" lengthAdjust="spacing" textLength="126" x="3258" y="2262.5254">build request object</text><polygon fill="#181818" points="6035.5,2292.5781,6045.5,2296.5781,6035.5,2300.5781" style="stroke:#181818;stroke-width:1.0;"/><line style="stroke:#181818;stroke-width:1.0;" x1="3673.5" x2="6041.5" y1="2296.5781" y2="2296.5781"/><text fill="#000000" font-family="sans-serif" font-size="13" lengthAdjust="spacing" textLength="138" x="4791.5" y="2291.8359">send backend request</text><path d="M10,2311.5781 L72,2311.5781 L72,2318.8887 L62,2328.8887 L10,2328.8887 L10,2311.5781 " fill="#EEEEEE" style="stroke:#000000;stroke-width:1.5;"/><rect fill="none" height="193.1738" style="stroke:#000000;stroke-width:1.5;" width="6118" x="10" y="2311.5781"/><text fill="#000000" font-family="sans-serif" font-size="13" font-weight="bold" lengthAdjust="spacing" textLength="17" x="25" y="2325.1465">alt</text><text fill="#000000" font-family="sans-serif" font-size="11" font-weight="bold" lengthAdjust="spacing" textLength="149" x="87" y="2324.2129">[Failed to postpone jurors]</text><polygon fill="#181818" points="3684.5,2346.1992,3674.5,2350.1992,3684.5,2354.1992" style="stroke:#181818;stroke-width:1.0;"/><line style="stroke:#181818;stroke-width:1.0;stroke-dasharray:2.0,2.0;" x1="3678.5" x2="6046.5" y1="2350.1992" y2="2350.1992"/><text fill="#000000" font-family="sans-serif" font-size="13" lengthAdjust="spacing" textLength="91" x="4815" y="2345.457">Error response</text><polygon fill="#181818" points="2979.5,2375.5098,2969.5,2379.5098,2979.5,2383.5098" style="stroke:#181818;stroke-width:1.0;"/><line style="stroke:#181818;stroke-width:1.0;stroke-dasharray:2.0,2.0;" x1="2973.5" x2="3672.5" y1="2379.5098" y2="2379.5098"/><text fill="#000000" font-family="sans-serif" font-size="13" lengthAdjust="spacing" textLength="127" x="3257.5" y="2374.7676">reject requestObject</text><polygon fill="#181818" points="5644.5,2404.8203,5654.5,2408.8203,5644.5,2412.8203" style="stroke:#181818;stroke-width:1.0;"/><line style="stroke:#181818;stroke-width:1.0;" x1="2968.5" x2="5650.5" y1="2408.8203" y2="2408.8203"/><text fill="#000000" font-family="sans-serif" font-size="13" lengthAdjust="spacing" textLength="169" x="4228" y="2404.0781">request and build template</text><polygon fill="#181818" points="2979.5,2434.1309,2969.5,2438.1309,2979.5,2442.1309" style="stroke:#181818;stroke-width:1.0;"/><line style="stroke:#181818;stroke-width:1.0;" x1="2973.5" x2="5655.5" y1="2438.1309" y2="2438.1309"/><text fill="#000000" font-family="sans-serif" font-size="13" lengthAdjust="spacing" textLength="78" x="4273.5" y="2433.3887">return HTML</text><polygon fill="#181818" points="2450,2463.4414,2440,2467.4414,2450,2471.4414" style="stroke:#181818;stroke-width:1.0;"/><line style="stroke:#181818;stroke-width:1.0;" x1="2444" x2="2967.5" y1="2467.4414" y2="2467.4414"/><text fill="#000000" font-family="sans-serif" font-size="13" lengthAdjust="spacing" textLength="78" x="2664.75" y="2462.6992">return HTML</text><polygon fill="#181818" points="56.5,2492.752,46.5,2496.752,56.5,2500.752" style="stroke:#181818;stroke-width:1.0;"/><line style="stroke:#181818;stroke-width:1.0;" x1="50.5" x2="2438" y1="2496.752" y2="2496.752"/><text fill="#000000" font-family="sans-serif" font-size="13" lengthAdjust="spacing" textLength="108" x="1188.25" y="2492.0098">render error page</text><polygon fill="#181818" points="3684.5,2529.0625,3674.5,2533.0625,3684.5,2537.0625" style="stroke:#181818;stroke-width:1.0;"/><line style="stroke:#181818;stroke-width:1.0;" x1="3678.5" x2="6046.5" y1="2533.0625" y2="2533.0625"/><text fill="#000000" font-family="sans-serif" font-size="13" lengthAdjust="spacing" textLength="77" x="4822" y="2528.3203">ok response</text><polygon fill="#181818" points="2979.5,2558.373,2969.5,2562.373,2979.5,2566.373" style="stroke:#181818;stroke-width:1.0;"/><line style="stroke:#181818;stroke-width:1.0;" x1="2973.5" x2="3672.5" y1="2562.373" y2="2562.373"/><text fill="#000000" font-family="sans-serif" font-size="13" lengthAdjust="spacing" textLength="96" x="3273" y="2557.6309">resolve request</text><polygon fill="#181818" points="2666.5,2587.6836,2656.5,2591.6836,2666.5,2595.6836" style="stroke:#181818;stroke-width:1.0;"/><line style="stroke:#181818;stroke-width:1.0;" x1="2660.5" x2="2967.5" y1="2591.6836" y2="2591.6836"/><text fill="#000000" font-family="sans-serif" font-size="13" lengthAdjust="spacing" textLength="235" x="2694.5" y="2586.9414">redirect to deferral maintenance page</text><polygon fill="#181818" points="3958,2616.9941,3968,2620.9941,3958,2624.9941" style="stroke:#181818;stroke-width:1.0;"/><line style="stroke:#181818;stroke-width:1.0;" x1="2655.5" x2="3964" y1="2620.9941" y2="2620.9941"/><text fill="#000000" font-family="sans-serif" font-size="13" lengthAdjust="spacing" textLength="169" x="3228.25" y="2616.252">request and build template</text><polygon fill="#181818" points="2666.5,2646.3047,2656.5,2650.3047,2666.5,2654.3047" style="stroke:#181818;stroke-width:1.0;"/><line style="stroke:#181818;stroke-width:1.0;" x1="2660.5" x2="3969" y1="2650.3047" y2="2650.3047"/><text fill="#000000" font-family="sans-serif" font-size="13" lengthAdjust="spacing" textLength="78" x="3273.75" y="2645.5625">return HTML</text><polygon fill="#181818" points="306.5,2675.6152,296.5,2679.6152,306.5,2683.6152" style="stroke:#181818;stroke-width:1.0;"/><line style="stroke:#181818;stroke-width:1.0;" x1="300.5" x2="2654.5" y1="2679.6152" y2="2679.6152"/><text fill="#000000" font-family="sans-serif" font-size="13" lengthAdjust="spacing" textLength="78" x="1436.5" y="2674.873">return HTML</text><polygon fill="#181818" points="56.5,2704.9258,46.5,2708.9258,56.5,2712.9258" style="stroke:#181818;stroke-width:1.0;"/><line style="stroke:#181818;stroke-width:1.0;" x1="50.5" x2="294.5" y1="2708.9258" y2="2708.9258"/><text fill="#000000" font-family="sans-serif" font-size="13" lengthAdjust="spacing" textLength="80" x="130.5" y="2704.1836">render HTML</text><!--SRC=[hLRRRjD047ttLmnGALHodFUegkIcBWgaSKXS44zeOo_fDkjTurqN-7l6r_gQ2_GbKjOpPoxdpEm-ie128ZWJUneORvZmUO8dEofepFpnbaj_hwo84w6Ja1k6sZCHaPY4iD5_E0MbqIpz1FLFz6T2XK_lgL9aHstETYAaGeEFFpGs33JJp6SHeeBjQub7ez485kxCNi3QVV3comyDerlwWyOnuVU48O8W2Bv2PBYwcaHIyd581FvDOqo2mXJFAjl95EiWcaanam6zlcvWRoYdlhub-Zp84h69ZRvAHrBGIO20hKZsCs6SR3bTOG3rgj5Ia5QqU_cS0NuXd0MPowj630luLjGFkNASE9Pn6O-cVz0k8tdcBhsrkrWuQx2Njx1sFZyu6m_Scu_EpDiSOtqcXOubvpH6O9M4eHIgLehbLz-j9zLARLMati0ew-bu7c3EtJwXPz3DpY8DEsj7zVlBLXO57RIa9mTxRfrQKT9rBND55rHiBVdym4h_PavvfptdVhMmFUTeKpqQueJhqxN1H41_M-9fFpXATSYd1EclOrOQKfdzE2sy1wtPzDCGewplNQob_1Sq8ST3WDtfEjJ5SbWcsuJlnoNPFR3ryQa1Viz6I4sAlPmxmZjEdYbIKQpFk_d2SzQRRAo-s8lvhUsvwwFa5mMKE_Z6ddro4E1bJ1i0DyJVOyYN4SgzFheFwwNp3UuMxbSZs-WmlXxSsbF8YOTIN0g82C3dpD_3gEp-o1ZoxuUkZVKKVC8vHB7qyGg2bz66Nqm_5j5fy1BVk2WvcOjqyWx2cmVRQ1wQC7Ee9oQyNKh8bAYg_DvU6iRXGh4JFLjj2X5HggTCqB9Q8hMk6CP5dEceJDEJQKxlkz1cpuYRhHiKawuKqBfRA-85_GLfj-kyf_amaI3lBQ-X8dEEk-MqIIxZ3BBTL-TXYezt8ISqYrsdywAOO7irds7wlQ4xbutPknOmmXqQOeN8wW-g_KT8rmx8ADr6Aer6EBPQPiSuOYMi0N0wtqEBq-nvpLmYSaLzpsDdsgKQqpX7VUVaSZYJGeXPntf5QFIu_QSIgs2lgCJJEv8hCilXN4Nsl5bEqAJ_IB6bEYP2OGMGLShqdrAOIeQqt7Y9I5DDdRQqQcHmbb27BsHpu2dSaEl0QxaZMSkoHkWtO7wkG0hzdq11ywbtGlUhQ7cBZzybL-F-t6CQi3YT5GGjXGkrro1UDZiwCCFdtwD7Rqgiuoy0]--></g></svg>