<?xml version="1.0" encoding="us-ascii" standalone="no"?><svg xmlns="http://www.w3.org/2000/svg" xmlns:xlink="http://www.w3.org/1999/xlink" contentStyleType="text/css" height="2966px" preserveAspectRatio="none" style="width:4040px;height:2966px;background:#FFFFFF;" version="1.1" viewBox="0 0 4040 2966" width="4040px" zoomAndPan="magnify"><defs/><g><rect fill="none" height="163.8633" style="stroke:#000000;stroke-width:1.5;" width="3873.5" x="10" y="333.7715"/><rect fill="none" height="193.1738" style="stroke:#000000;stroke-width:1.5;" width="4024.5" x="10" y="599.5664"/><rect fill="none" height="163.8633" style="stroke:#000000;stroke-width:1.5;" width="3873.5" x="10" y="1246.3984"/><rect fill="none" height="193.1738" style="stroke:#000000;stroke-width:1.5;" width="4024.5" x="10" y="1512.1934"/><rect fill="none" height="163.8633" style="stroke:#000000;stroke-width:1.5;" width="3873.5" x="10" y="1983.1621"/><rect fill="none" height="193.1738" style="stroke:#000000;stroke-width:1.5;" width="4024.5" x="10" y="2248.957"/><rect fill="none" height="193.1738" style="stroke:#000000;stroke-width:1.5;" width="4024.5" x="10" y="2573.373"/><line style="stroke:#181818;stroke-width:0.5;stroke-dasharray:5.0,5.0;" x1="45" x2="45" y1="52.9766" y2="2959.4102"/><line style="stroke:#181818;stroke-width:0.5;stroke-dasharray:5.0,5.0;" x1="309.5" x2="309.5" y1="52.9766" y2="2959.4102"/><line style="stroke:#181818;stroke-width:0.5;stroke-dasharray:5.0,5.0;" x1="612.5" x2="612.5" y1="52.9766" y2="2959.4102"/><line style="stroke:#181818;stroke-width:0.5;stroke-dasharray:5.0,5.0;" x1="1075.5" x2="1075.5" y1="52.9766" y2="2959.4102"/><line style="stroke:#181818;stroke-width:0.5;stroke-dasharray:5.0,5.0;" x1="1394.5" x2="1394.5" y1="52.9766" y2="2959.4102"/><line style="stroke:#181818;stroke-width:0.5;stroke-dasharray:5.0,5.0;" x1="1610.5" x2="1610.5" y1="52.9766" y2="2959.4102"/><line style="stroke:#181818;stroke-width:0.5;stroke-dasharray:5.0,5.0;" x1="1895.5" x2="1895.5" y1="52.9766" y2="2959.4102"/><line style="stroke:#181818;stroke-width:0.5;stroke-dasharray:5.0,5.0;" x1="2193.5" x2="2193.5" y1="52.9766" y2="2959.4102"/><line style="stroke:#181818;stroke-width:0.5;stroke-dasharray:5.0,5.0;" x1="2511.5" x2="2511.5" y1="52.9766" y2="2959.4102"/><line style="stroke:#181818;stroke-width:0.5;stroke-dasharray:5.0,5.0;" x1="2873.5" x2="2873.5" y1="52.9766" y2="2959.4102"/><line style="stroke:#181818;stroke-width:0.5;stroke-dasharray:5.0,5.0;" x1="3274.5" x2="3274.5" y1="52.9766" y2="2959.4102"/><line style="stroke:#181818;stroke-width:0.5;stroke-dasharray:5.0,5.0;" x1="3562.5" x2="3562.5" y1="52.9766" y2="2959.4102"/><line style="stroke:#181818;stroke-width:0.5;stroke-dasharray:5.0,5.0;" x1="3764.5" x2="3764.5" y1="52.9766" y2="2959.4102"/><line style="stroke:#181818;stroke-width:0.5;stroke-dasharray:5.0,5.0;" x1="3953.5" x2="3953.5" y1="52.9766" y2="2959.4102"/><rect fill="#E2E2F0" height="30.4883" rx="2.5" ry="2.5" style="stroke:#181818;stroke-width:0.5;" width="51" x="20" y="21.4883"/><text fill="#000000" font-family="sans-serif" font-size="14" lengthAdjust="spacing" textLength="37" x="27" y="42.0234">Actor</text><rect fill="#E2E2F0" height="46.9766" rx="2.5" ry="2.5" style="stroke:#181818;stroke-width:0.5;" width="164" x="227.5" y="5"/><text fill="#000000" font-family="sans-serif" font-size="14" font-style="italic" lengthAdjust="spacing" textLength="150" x="234.5" y="25.5352">&#171;/pool-management&#187;</text><text fill="#000000" font-family="sans-serif" font-size="14" lengthAdjust="spacing" textLength="125" x="247" y="42.0234">PoolRequestsPage</text><rect fill="#E2E2F0" height="46.9766" rx="2.5" ry="2.5" style="stroke:#181818;stroke-width:0.5;" width="423" x="401.5" y="5"/><text fill="#000000" font-family="sans-serif" font-size="14" font-style="italic" lengthAdjust="spacing" textLength="409" x="408.5" y="25.5352">&#171;/pool-management/deferral-maintenance/:locationCode&#187;</text><text fill="#000000" font-family="sans-serif" font-size="14" lengthAdjust="spacing" textLength="175" x="525.5" y="42.0234">DeferralMaintenancePage</text><rect fill="#E2E2F0" height="46.9766" rx="2.5" ry="2.5" style="stroke:#181818;stroke-width:0.5;" width="483" x="834.5" y="5"/><text fill="#000000" font-family="sans-serif" font-size="14" font-style="italic" lengthAdjust="spacing" textLength="469" x="841.5" y="25.5352">&#171;/pool-management/deferral-maintenance/:locationCode/process&#187;</text><text fill="#000000" font-family="sans-serif" font-size="14" lengthAdjust="spacing" textLength="140" x="1006" y="42.0234">ProcessDeferralPage</text><rect fill="#E2E2F0" height="46.9766" rx="2.5" ry="2.5" style="stroke:#181818;stroke-width:0.5;" width="134" x="1327.5" y="5"/><text fill="#000000" font-family="sans-serif" font-size="14" font-style="italic" lengthAdjust="spacing" textLength="56" x="1366.5" y="25.5352">&#171;/error&#187;</text><text fill="#000000" font-family="sans-serif" font-size="14" lengthAdjust="spacing" textLength="120" x="1334.5" y="42.0234">GenericErrorPage</text><rect fill="#E2E2F0" height="46.9766" rx="2.5" ry="2.5" style="stroke:#181818;stroke-width:0.5;" width="279" x="1471.5" y="5"/><text fill="#000000" font-family="sans-serif" font-size="14" font-style="italic" lengthAdjust="spacing" textLength="265" x="1478.5" y="25.5352">&#171;summons-management.controller.js&#187;</text><text fill="#000000" font-family="sans-serif" font-size="14" lengthAdjust="spacing" textLength="212" x="1505" y="42.0234">DeferralMaintenanceController</text><rect fill="#E2E2F0" height="46.9766" rx="2.5" ry="2.5" style="stroke:#181818;stroke-width:0.5;" width="270" x="1760.5" y="5"/><text fill="#000000" font-family="sans-serif" font-size="14" font-style="italic" lengthAdjust="spacing" textLength="256" x="1767.5" y="25.5352">&#171;deferralMaintenance.deferrals.get()&#187;</text><text fill="#000000" font-family="sans-serif" font-size="14" lengthAdjust="spacing" textLength="86" x="1852.5" y="42.0234">DeferralsObj</text><rect fill="#E2E2F0" height="46.9766" rx="2.5" ry="2.5" style="stroke:#181818;stroke-width:0.5;" width="306" x="2040.5" y="5"/><text fill="#000000" font-family="sans-serif" font-size="14" font-style="italic" lengthAdjust="spacing" textLength="292" x="2047.5" y="25.5352">&#171;deferralMaintenance.availablePools.get()&#187;</text><text fill="#000000" font-family="sans-serif" font-size="14" lengthAdjust="spacing" textLength="123" x="2132" y="42.0234">AvailablePoolsObj</text><rect fill="#E2E2F0" height="46.9766" rx="2.5" ry="2.5" style="stroke:#181818;stroke-width:0.5;" width="311" x="2356.5" y="5"/><text fill="#000000" font-family="sans-serif" font-size="14" font-style="italic" lengthAdjust="spacing" textLength="297" x="2363.5" y="25.5352">&#171;deferralMaintenance.allocateJurors.post()&#187;</text><text fill="#000000" font-family="sans-serif" font-size="14" lengthAdjust="spacing" textLength="120" x="2452" y="42.0234">AllocateJurorsObj</text><rect fill="#E2E2F0" height="46.9766" rx="2.5" ry="2.5" style="stroke:#181818;stroke-width:0.5;" width="392" x="2677.5" y="5"/><text fill="#000000" font-family="sans-serif" font-size="14" font-style="italic" lengthAdjust="spacing" textLength="378" x="2684.5" y="25.5352">&#171;/pool-management/deferral-maintenance/index.njk&#187;</text><text fill="#000000" font-family="sans-serif" font-size="14" lengthAdjust="spacing" textLength="206" x="2770.5" y="42.0234">DeferralMaintenanceTemplate</text><rect fill="#E2E2F0" height="46.9766" rx="2.5" ry="2.5" style="stroke:#181818;stroke-width:0.5;" width="391" x="3079.5" y="5"/><text fill="#000000" font-family="sans-serif" font-size="14" font-style="italic" lengthAdjust="spacing" textLength="377" x="3086.5" y="25.5352">&#171;/pool-management/deferral-maintenance/pools.njk&#187;</text><text fill="#000000" font-family="sans-serif" font-size="14" lengthAdjust="spacing" textLength="171" x="3189.5" y="42.0234">ProcessDeferralTemplate</text><rect fill="#E6E6FA" height="46.9766" rx="2.5" ry="2.5" style="stroke:#181818;stroke-width:0.5;" width="165" x="3480.5" y="5"/><text fill="#000000" font-family="sans-serif" font-size="14" font-style="italic" lengthAdjust="spacing" textLength="146" x="3490" y="25.5352">&#171;_errors/generic.njk&#187;</text><text fill="#000000" font-family="sans-serif" font-size="14" lengthAdjust="spacing" textLength="151" x="3487.5" y="42.0234">GenericErrorTemplate</text><rect fill="#E2E2F0" height="30.4883" rx="2.5" ry="2.5" style="stroke:#181818;stroke-width:0.5;" width="218" x="3655.5" y="21.4883"/><text fill="#000000" font-family="sans-serif" font-size="14" lengthAdjust="spacing" textLength="204" x="3662.5" y="42.0234">DeferralMaintenanceValidator</text><rect fill="#E2E2F0" height="30.4883" rx="2.5" ry="2.5" style="stroke:#181818;stroke-width:0.5;" width="141" x="3883.5" y="21.4883"/><text fill="#000000" font-family="sans-serif" font-size="14" lengthAdjust="spacing" textLength="127" x="3890.5" y="42.0234">BackendController</text><polygon fill="#181818" points="297.5,80.2871,307.5,84.2871,297.5,88.2871" style="stroke:#181818;stroke-width:1.0;"/><line style="stroke:#181818;stroke-width:1.0;" x1="45.5" x2="303.5" y1="84.2871" y2="84.2871"/><text fill="#000000" font-family="sans-serif" font-size="13" lengthAdjust="spacing" textLength="240" x="57.5" y="79.5449">navigate to deferral maintanence page</text><polygon fill="#181818" points="1599,109.5977,1609,113.5977,1599,117.5977" style="stroke:#181818;stroke-width:1.0;"/><line style="stroke:#181818;stroke-width:1.0;" x1="309.5" x2="1605" y1="113.5977" y2="113.5977"/><text fill="#000000" font-family="sans-serif" font-size="13" lengthAdjust="spacing" textLength="121" x="899.75" y="108.8555">call page controller</text><polygon fill="#181818" points="2861.5,138.9082,2871.5,142.9082,2861.5,146.9082" style="stroke:#181818;stroke-width:1.0;"/><line style="stroke:#181818;stroke-width:1.0;" x1="1611" x2="2867.5" y1="142.9082" y2="142.9082"/><text fill="#000000" font-family="sans-serif" font-size="13" lengthAdjust="spacing" textLength="169" x="2157.75" y="138.166">request and build template</text><polygon fill="#181818" points="1622,168.2188,1612,172.2188,1622,176.2188" style="stroke:#181818;stroke-width:1.0;"/><line style="stroke:#181818;stroke-width:1.0;" x1="1616" x2="2872.5" y1="172.2188" y2="172.2188"/><text fill="#000000" font-family="sans-serif" font-size="13" lengthAdjust="spacing" textLength="78" x="2203.25" y="167.4766">return HTML</text><polygon fill="#181818" points="624,197.5293,614,201.5293,624,205.5293" style="stroke:#181818;stroke-width:1.0;"/><line style="stroke:#181818;stroke-width:1.0;" x1="618" x2="1610" y1="201.5293" y2="201.5293"/><text fill="#000000" font-family="sans-serif" font-size="13" lengthAdjust="spacing" textLength="78" x="1073" y="196.7871">return HTML</text><polygon fill="#181818" points="56.5,226.8398,46.5,230.8398,56.5,234.8398" style="stroke:#181818;stroke-width:1.0;"/><line style="stroke:#181818;stroke-width:1.0;" x1="50.5" x2="612" y1="230.8398" y2="230.8398"/><text fill="#000000" font-family="sans-serif" font-size="13" lengthAdjust="spacing" textLength="80" x="289.25" y="226.0977">render HTML</text><polygon fill="#181818" points="601,256.1504,611,260.1504,601,264.1504" style="stroke:#181818;stroke-width:1.0;"/><line style="stroke:#181818;stroke-width:1.0;" x1="45.5" x2="607" y1="260.1504" y2="260.1504"/><text fill="#000000" font-family="sans-serif" font-size="13" lengthAdjust="spacing" textLength="182" x="238.25" y="255.4082">select location and click find</text><polygon fill="#181818" points="1599,285.4609,1609,289.4609,1599,293.4609" style="stroke:#181818;stroke-width:1.0;"/><line style="stroke:#181818;stroke-width:1.0;" x1="613" x2="1605" y1="289.4609" y2="289.4609"/><text fill="#000000" font-family="sans-serif" font-size="13" lengthAdjust="spacing" textLength="239" x="992.5" y="284.7188">call page controller with locationCode</text><polygon fill="#181818" points="3752.5,314.7715,3762.5,318.7715,3752.5,322.7715" style="stroke:#181818;stroke-width:1.0;"/><line style="stroke:#181818;stroke-width:1.0;" x1="1611" x2="3758.5" y1="318.7715" y2="318.7715"/><text fill="#000000" font-family="sans-serif" font-size="13" lengthAdjust="spacing" textLength="95" x="2640.25" y="314.0293">validate details</text><path d="M10,333.7715 L72,333.7715 L72,341.082 L62,351.082 L10,351.082 L10,333.7715 " fill="#EEEEEE" style="stroke:#000000;stroke-width:1.5;"/><rect fill="none" height="163.8633" style="stroke:#000000;stroke-width:1.5;" width="3873.5" x="10" y="333.7715"/><text fill="#000000" font-family="sans-serif" font-size="13" font-weight="bold" lengthAdjust="spacing" textLength="17" x="25" y="347.3398">alt</text><text fill="#000000" font-family="sans-serif" font-size="11" font-weight="bold" lengthAdjust="spacing" textLength="126" x="87" y="346.4063">[Invalid location code]</text><polygon fill="#181818" points="1622,368.3926,1612,372.3926,1622,376.3926" style="stroke:#181818;stroke-width:1.0;"/><line style="stroke:#181818;stroke-width:1.0;" x1="1616" x2="3763.5" y1="372.3926" y2="372.3926"/><text fill="#000000" font-family="sans-serif" font-size="13" lengthAdjust="spacing" textLength="131" x="2622.25" y="367.6504">Invalid location code</text><polygon fill="#181818" points="2861.5,397.7031,2871.5,401.7031,2861.5,405.7031" style="stroke:#181818;stroke-width:1.0;"/><line style="stroke:#181818;stroke-width:1.0;" x1="1611" x2="2867.5" y1="401.7031" y2="401.7031"/><text fill="#000000" font-family="sans-serif" font-size="13" lengthAdjust="spacing" textLength="169" x="2157.75" y="396.9609">request and build template</text><polygon fill="#181818" points="1622,427.0137,1612,431.0137,1622,435.0137" style="stroke:#181818;stroke-width:1.0;"/><line style="stroke:#181818;stroke-width:1.0;" x1="1616" x2="2872.5" y1="431.0137" y2="431.0137"/><text fill="#000000" font-family="sans-serif" font-size="13" lengthAdjust="spacing" textLength="78" x="2203.25" y="426.2715">return HTML</text><polygon fill="#181818" points="624,456.3242,614,460.3242,624,464.3242" style="stroke:#181818;stroke-width:1.0;"/><line style="stroke:#181818;stroke-width:1.0;" x1="618" x2="1610" y1="460.3242" y2="460.3242"/><text fill="#000000" font-family="sans-serif" font-size="13" lengthAdjust="spacing" textLength="112" x="1056" y="455.582">return error HTML</text><polygon fill="#181818" points="56.5,485.6348,46.5,489.6348,56.5,493.6348" style="stroke:#181818;stroke-width:1.0;"/><line style="stroke:#181818;stroke-width:1.0;" x1="50.5" x2="612" y1="489.6348" y2="489.6348"/><text fill="#000000" font-family="sans-serif" font-size="13" lengthAdjust="spacing" textLength="133" x="262.75" y="484.8926">render error message</text><polygon fill="#181818" points="1622,521.9453,1612,525.9453,1622,529.9453" style="stroke:#181818;stroke-width:1.0;"/><line style="stroke:#181818;stroke-width:1.0;" x1="1616" x2="3763.5" y1="525.9453" y2="525.9453"/><text fill="#000000" font-family="sans-serif" font-size="13" lengthAdjust="spacing" textLength="127" x="2624.25" y="521.2031">valid details entered</text><polygon fill="#181818" points="1883.5,551.2559,1893.5,555.2559,1883.5,559.2559" style="stroke:#181818;stroke-width:1.0;"/><line style="stroke:#181818;stroke-width:1.0;" x1="1611" x2="1889.5" y1="555.2559" y2="555.2559"/><text fill="#000000" font-family="sans-serif" font-size="13" lengthAdjust="spacing" textLength="126" x="1690.25" y="550.5137">build request object</text><polygon fill="#181818" points="3942,580.5664,3952,584.5664,3942,588.5664" style="stroke:#181818;stroke-width:1.0;"/><line style="stroke:#181818;stroke-width:1.0;" x1="1895.5" x2="3948" y1="584.5664" y2="584.5664"/><text fill="#000000" font-family="sans-serif" font-size="13" lengthAdjust="spacing" textLength="138" x="2855.75" y="579.8242">send backend request</text><path d="M10,599.5664 L72,599.5664 L72,606.877 L62,616.877 L10,616.877 L10,599.5664 " fill="#EEEEEE" style="stroke:#000000;stroke-width:1.5;"/><rect fill="none" height="193.1738" style="stroke:#000000;stroke-width:1.5;" width="4024.5" x="10" y="599.5664"/><text fill="#000000" font-family="sans-serif" font-size="13" font-weight="bold" lengthAdjust="spacing" textLength="17" x="25" y="613.1348">alt</text><text fill="#000000" font-family="sans-serif" font-size="11" font-weight="bold" lengthAdjust="spacing" textLength="142" x="87" y="612.2012">[Failed to fetch deferrals]</text><polygon fill="#181818" points="1906.5,634.1875,1896.5,638.1875,1906.5,642.1875" style="stroke:#181818;stroke-width:1.0;"/><line style="stroke:#181818;stroke-width:1.0;stroke-dasharray:2.0,2.0;" x1="1900.5" x2="3953" y1="638.1875" y2="638.1875"/><text fill="#000000" font-family="sans-serif" font-size="13" lengthAdjust="spacing" textLength="91" x="2879.25" y="633.4453">Error response</text><polygon fill="#181818" points="1622,663.498,1612,667.498,1622,671.498" style="stroke:#181818;stroke-width:1.0;"/><line style="stroke:#181818;stroke-width:1.0;stroke-dasharray:2.0,2.0;" x1="1616" x2="1894.5" y1="667.498" y2="667.498"/><text fill="#000000" font-family="sans-serif" font-size="13" lengthAdjust="spacing" textLength="127" x="1689.75" y="662.7559">reject requestObject</text><polygon fill="#181818" points="2861.5,692.8086,2871.5,696.8086,2861.5,700.8086" style="stroke:#181818;stroke-width:1.0;"/><line style="stroke:#181818;stroke-width:1.0;" x1="1611" x2="2867.5" y1="696.8086" y2="696.8086"/><text fill="#000000" font-family="sans-serif" font-size="13" lengthAdjust="spacing" textLength="169" x="2157.75" y="692.0664">request and build template</text><polygon fill="#181818" points="1622,722.1191,1612,726.1191,1622,730.1191" style="stroke:#181818;stroke-width:1.0;"/><line style="stroke:#181818;stroke-width:1.0;" x1="1616" x2="2872.5" y1="726.1191" y2="726.1191"/><text fill="#000000" font-family="sans-serif" font-size="13" lengthAdjust="spacing" textLength="78" x="2203.25" y="721.377">return HTML</text><polygon fill="#181818" points="624,751.4297,614,755.4297,624,759.4297" style="stroke:#181818;stroke-width:1.0;"/><line style="stroke:#181818;stroke-width:1.0;" x1="618" x2="1610" y1="755.4297" y2="755.4297"/><text fill="#000000" font-family="sans-serif" font-size="13" lengthAdjust="spacing" textLength="112" x="1056" y="750.6875">return error HTML</text><polygon fill="#181818" points="56.5,780.7402,46.5,784.7402,56.5,788.7402" style="stroke:#181818;stroke-width:1.0;"/><line style="stroke:#181818;stroke-width:1.0;" x1="50.5" x2="612" y1="784.7402" y2="784.7402"/><text fill="#000000" font-family="sans-serif" font-size="13" lengthAdjust="spacing" textLength="133" x="262.75" y="779.998">render error message</text><polygon fill="#181818" points="1906.5,817.0508,1896.5,821.0508,1906.5,825.0508" style="stroke:#181818;stroke-width:1.0;"/><line style="stroke:#181818;stroke-width:1.0;" x1="1900.5" x2="3953" y1="821.0508" y2="821.0508"/><text fill="#000000" font-family="sans-serif" font-size="13" lengthAdjust="spacing" textLength="77" x="2886.25" y="816.3086">ok response</text><polygon fill="#181818" points="1622,846.3613,1612,850.3613,1622,854.3613" style="stroke:#181818;stroke-width:1.0;"/><line style="stroke:#181818;stroke-width:1.0;" x1="1616" x2="1894.5" y1="850.3613" y2="850.3613"/><text fill="#000000" font-family="sans-serif" font-size="13" lengthAdjust="spacing" textLength="96" x="1705.25" y="845.6191">resolve request</text><polygon fill="#181818" points="2861.5,875.6719,2871.5,879.6719,2861.5,883.6719" style="stroke:#181818;stroke-width:1.0;"/><line style="stroke:#181818;stroke-width:1.0;" x1="1611" x2="2867.5" y1="879.6719" y2="879.6719"/><text fill="#000000" font-family="sans-serif" font-size="13" lengthAdjust="spacing" textLength="169" x="2157.75" y="874.9297">request and build template</text><polygon fill="#181818" points="1622,904.9824,1612,908.9824,1622,912.9824" style="stroke:#181818;stroke-width:1.0;"/><line style="stroke:#181818;stroke-width:1.0;" x1="1616" x2="2872.5" y1="908.9824" y2="908.9824"/><text fill="#000000" font-family="sans-serif" font-size="13" lengthAdjust="spacing" textLength="78" x="2203.25" y="904.2402">return HTML</text><polygon fill="#181818" points="624,934.293,614,938.293,624,942.293" style="stroke:#181818;stroke-width:1.0;"/><line style="stroke:#181818;stroke-width:1.0;" x1="618" x2="1610" y1="938.293" y2="938.293"/><text fill="#000000" font-family="sans-serif" font-size="13" lengthAdjust="spacing" textLength="78" x="1073" y="933.5508">return HTML</text><polygon fill="#181818" points="56.5,963.6035,46.5,967.6035,56.5,971.6035" style="stroke:#181818;stroke-width:1.0;"/><line style="stroke:#181818;stroke-width:1.0;" x1="50.5" x2="612" y1="967.6035" y2="967.6035"/><text fill="#000000" font-family="sans-serif" font-size="13" lengthAdjust="spacing" textLength="80" x="289.25" y="962.8613">render HTML</text><polygon fill="#181818" points="601,992.9141,611,996.9141,601,1000.9141" style="stroke:#181818;stroke-width:1.0;"/><line style="stroke:#181818;stroke-width:1.0;" x1="45.5" x2="607" y1="996.9141" y2="996.9141"/><text fill="#000000" font-family="sans-serif" font-size="13" lengthAdjust="spacing" textLength="212" x="223.25" y="992.1719">open filter panel and select filters</text><polygon fill="#181818" points="1599,1022.2246,1609,1026.2246,1599,1030.2246" style="stroke:#181818;stroke-width:1.0;"/><line style="stroke:#181818;stroke-width:1.0;" x1="613" x2="1605" y1="1026.2246" y2="1026.2246"/><text fill="#000000" font-family="sans-serif" font-size="13" lengthAdjust="spacing" textLength="307" x="958.5" y="1021.4824">call page controller with locationCode and filters</text><polygon fill="#181818" points="2861.5,1051.5352,2871.5,1055.5352,2861.5,1059.5352" style="stroke:#181818;stroke-width:1.0;"/><line style="stroke:#181818;stroke-width:1.0;" x1="1611" x2="2867.5" y1="1055.5352" y2="1055.5352"/><text fill="#000000" font-family="sans-serif" font-size="13" lengthAdjust="spacing" textLength="169" x="2157.75" y="1050.793">request and build template</text><polygon fill="#181818" points="1622,1080.8457,1612,1084.8457,1622,1088.8457" style="stroke:#181818;stroke-width:1.0;"/><line style="stroke:#181818;stroke-width:1.0;" x1="1616" x2="2872.5" y1="1084.8457" y2="1084.8457"/><text fill="#000000" font-family="sans-serif" font-size="13" lengthAdjust="spacing" textLength="78" x="2203.25" y="1080.1035">return HTML</text><polygon fill="#181818" points="624,1110.1563,614,1114.1563,624,1118.1563" style="stroke:#181818;stroke-width:1.0;"/><line style="stroke:#181818;stroke-width:1.0;" x1="618" x2="1610" y1="1114.1563" y2="1114.1563"/><text fill="#000000" font-family="sans-serif" font-size="13" lengthAdjust="spacing" textLength="78" x="1073" y="1109.4141">return HTML</text><polygon fill="#181818" points="56.5,1139.4668,46.5,1143.4668,56.5,1147.4668" style="stroke:#181818;stroke-width:1.0;"/><line style="stroke:#181818;stroke-width:1.0;" x1="50.5" x2="612" y1="1143.4668" y2="1143.4668"/><text fill="#000000" font-family="sans-serif" font-size="13" lengthAdjust="spacing" textLength="80" x="289.25" y="1138.7246">render HTML</text><polygon fill="#181818" points="601,1168.7773,611,1172.7773,601,1176.7773" style="stroke:#181818;stroke-width:1.0;"/><line style="stroke:#181818;stroke-width:1.0;" x1="45.5" x2="607" y1="1172.7773" y2="1172.7773"/><text fill="#000000" font-family="sans-serif" font-size="13" lengthAdjust="spacing" textLength="239" x="209.75" y="1168.0352">select deferrals and click 'add to pool'</text><polygon fill="#181818" points="1599,1198.0879,1609,1202.0879,1599,1206.0879" style="stroke:#181818;stroke-width:1.0;"/><line style="stroke:#181818;stroke-width:1.0;" x1="613" x2="1605" y1="1202.0879" y2="1202.0879"/><text fill="#000000" font-family="sans-serif" font-size="13" lengthAdjust="spacing" textLength="286" x="969" y="1197.3457">call process controller with selected deferrals</text><polygon fill="#181818" points="3752.5,1227.3984,3762.5,1231.3984,3752.5,1235.3984" style="stroke:#181818;stroke-width:1.0;"/><line style="stroke:#181818;stroke-width:1.0;" x1="1611" x2="3758.5" y1="1231.3984" y2="1231.3984"/><text fill="#000000" font-family="sans-serif" font-size="13" lengthAdjust="spacing" textLength="95" x="2640.25" y="1226.6563">validate details</text><path d="M10,1246.3984 L72,1246.3984 L72,1253.709 L62,1263.709 L10,1263.709 L10,1246.3984 " fill="#EEEEEE" style="stroke:#000000;stroke-width:1.5;"/><rect fill="none" height="163.8633" style="stroke:#000000;stroke-width:1.5;" width="3873.5" x="10" y="1246.3984"/><text fill="#000000" font-family="sans-serif" font-size="13" font-weight="bold" lengthAdjust="spacing" textLength="17" x="25" y="1259.9668">alt</text><text fill="#000000" font-family="sans-serif" font-size="11" font-weight="bold" lengthAdjust="spacing" textLength="126" x="87" y="1259.0332">[No deferrals selected]</text><polygon fill="#181818" points="1622,1281.0195,1612,1285.0195,1622,1289.0195" style="stroke:#181818;stroke-width:1.0;"/><line style="stroke:#181818;stroke-width:1.0;" x1="1616" x2="3763.5" y1="1285.0195" y2="1285.0195"/><text fill="#000000" font-family="sans-serif" font-size="13" lengthAdjust="spacing" textLength="133" x="2621.25" y="1280.2773">No deferrals selected</text><polygon fill="#181818" points="2861.5,1310.3301,2871.5,1314.3301,2861.5,1318.3301" style="stroke:#181818;stroke-width:1.0;"/><line style="stroke:#181818;stroke-width:1.0;" x1="1611" x2="2867.5" y1="1314.3301" y2="1314.3301"/><text fill="#000000" font-family="sans-serif" font-size="13" lengthAdjust="spacing" textLength="169" x="2157.75" y="1309.5879">request and build template</text><polygon fill="#181818" points="1622,1339.6406,1612,1343.6406,1622,1347.6406" style="stroke:#181818;stroke-width:1.0;"/><line style="stroke:#181818;stroke-width:1.0;" x1="1616" x2="2872.5" y1="1343.6406" y2="1343.6406"/><text fill="#000000" font-family="sans-serif" font-size="13" lengthAdjust="spacing" textLength="78" x="2203.25" y="1338.8984">return HTML</text><polygon fill="#181818" points="624,1368.9512,614,1372.9512,624,1376.9512" style="stroke:#181818;stroke-width:1.0;"/><line style="stroke:#181818;stroke-width:1.0;" x1="618" x2="1610" y1="1372.9512" y2="1372.9512"/><text fill="#000000" font-family="sans-serif" font-size="13" lengthAdjust="spacing" textLength="112" x="1056" y="1368.209">return error HTML</text><polygon fill="#181818" points="56.5,1398.2617,46.5,1402.2617,56.5,1406.2617" style="stroke:#181818;stroke-width:1.0;"/><line style="stroke:#181818;stroke-width:1.0;" x1="50.5" x2="612" y1="1402.2617" y2="1402.2617"/><text fill="#000000" font-family="sans-serif" font-size="13" lengthAdjust="spacing" textLength="133" x="262.75" y="1397.5195">render error message</text><polygon fill="#181818" points="1622,1434.5723,1612,1438.5723,1622,1442.5723" style="stroke:#181818;stroke-width:1.0;"/><line style="stroke:#181818;stroke-width:1.0;" x1="1616" x2="3763.5" y1="1438.5723" y2="1438.5723"/><text fill="#000000" font-family="sans-serif" font-size="13" lengthAdjust="spacing" textLength="127" x="2624.25" y="1433.8301">valid details entered</text><polygon fill="#181818" points="2181.5,1463.8828,2191.5,1467.8828,2181.5,1471.8828" style="stroke:#181818;stroke-width:1.0;"/><line style="stroke:#181818;stroke-width:1.0;" x1="1611" x2="2187.5" y1="1467.8828" y2="1467.8828"/><text fill="#000000" font-family="sans-serif" font-size="13" lengthAdjust="spacing" textLength="126" x="1839.25" y="1463.1406">build request object</text><polygon fill="#181818" points="3942,1493.1934,3952,1497.1934,3942,1501.1934" style="stroke:#181818;stroke-width:1.0;"/><line style="stroke:#181818;stroke-width:1.0;" x1="2193.5" x2="3948" y1="1497.1934" y2="1497.1934"/><text fill="#000000" font-family="sans-serif" font-size="13" lengthAdjust="spacing" textLength="138" x="3004.75" y="1492.4512">send backend request</text><path d="M10,1512.1934 L72,1512.1934 L72,1519.5039 L62,1529.5039 L10,1529.5039 L10,1512.1934 " fill="#EEEEEE" style="stroke:#000000;stroke-width:1.5;"/><rect fill="none" height="193.1738" style="stroke:#000000;stroke-width:1.5;" width="4024.5" x="10" y="1512.1934"/><text fill="#000000" font-family="sans-serif" font-size="13" font-weight="bold" lengthAdjust="spacing" textLength="17" x="25" y="1525.7617">alt</text><text fill="#000000" font-family="sans-serif" font-size="11" font-weight="bold" lengthAdjust="spacing" textLength="177" x="87" y="1524.8281">[Failed to fetch available pools]</text><polygon fill="#181818" points="2204.5,1546.8145,2194.5,1550.8145,2204.5,1554.8145" style="stroke:#181818;stroke-width:1.0;"/><line style="stroke:#181818;stroke-width:1.0;stroke-dasharray:2.0,2.0;" x1="2198.5" x2="3953" y1="1550.8145" y2="1550.8145"/><text fill="#000000" font-family="sans-serif" font-size="13" lengthAdjust="spacing" textLength="91" x="3028.25" y="1546.0723">Error response</text><polygon fill="#181818" points="1622,1576.125,1612,1580.125,1622,1584.125" style="stroke:#181818;stroke-width:1.0;"/><line style="stroke:#181818;stroke-width:1.0;stroke-dasharray:2.0,2.0;" x1="1616" x2="2192.5" y1="1580.125" y2="1580.125"/><text fill="#000000" font-family="sans-serif" font-size="13" lengthAdjust="spacing" textLength="127" x="1838.75" y="1575.3828">reject requestObject</text><polygon fill="#181818" points="3551,1605.4355,3561,1609.4355,3551,1613.4355" style="stroke:#181818;stroke-width:1.0;"/><line style="stroke:#181818;stroke-width:1.0;" x1="1611" x2="3557" y1="1609.4355" y2="1609.4355"/><text fill="#000000" font-family="sans-serif" font-size="13" lengthAdjust="spacing" textLength="169" x="2502.5" y="1604.6934">request and build template</text><polygon fill="#181818" points="1622,1634.7461,1612,1638.7461,1622,1642.7461" style="stroke:#181818;stroke-width:1.0;"/><line style="stroke:#181818;stroke-width:1.0;" x1="1616" x2="3562" y1="1638.7461" y2="1638.7461"/><text fill="#000000" font-family="sans-serif" font-size="13" lengthAdjust="spacing" textLength="78" x="2548" y="1634.0039">return HTML</text><polygon fill="#181818" points="1405.5,1664.0566,1395.5,1668.0566,1405.5,1672.0566" style="stroke:#181818;stroke-width:1.0;"/><line style="stroke:#181818;stroke-width:1.0;" x1="1399.5" x2="1610" y1="1668.0566" y2="1668.0566"/><text fill="#000000" font-family="sans-serif" font-size="13" lengthAdjust="spacing" textLength="78" x="1463.75" y="1663.3145">return HTML</text><polygon fill="#181818" points="56.5,1693.3672,46.5,1697.3672,56.5,1701.3672" style="stroke:#181818;stroke-width:1.0;"/><line style="stroke:#181818;stroke-width:1.0;" x1="50.5" x2="1393.5" y1="1697.3672" y2="1697.3672"/><text fill="#000000" font-family="sans-serif" font-size="13" lengthAdjust="spacing" textLength="108" x="666" y="1692.625">render error page</text><polygon fill="#181818" points="2204.5,1729.6777,2194.5,1733.6777,2204.5,1737.6777" style="stroke:#181818;stroke-width:1.0;"/><line style="stroke:#181818;stroke-width:1.0;" x1="2198.5" x2="3953" y1="1733.6777" y2="1733.6777"/><text fill="#000000" font-family="sans-serif" font-size="13" lengthAdjust="spacing" textLength="77" x="3035.25" y="1728.9355">ok response</text><polygon fill="#181818" points="1622,1758.9883,1612,1762.9883,1622,1766.9883" style="stroke:#181818;stroke-width:1.0;"/><line style="stroke:#181818;stroke-width:1.0;" x1="1616" x2="2192.5" y1="1762.9883" y2="1762.9883"/><text fill="#000000" font-family="sans-serif" font-size="13" lengthAdjust="spacing" textLength="96" x="1854.25" y="1758.2461">resolve request</text><polygon fill="#181818" points="3263,1788.2988,3273,1792.2988,3263,1796.2988" style="stroke:#181818;stroke-width:1.0;"/><line style="stroke:#181818;stroke-width:1.0;" x1="1611" x2="3269" y1="1792.2988" y2="1792.2988"/><text fill="#000000" font-family="sans-serif" font-size="13" lengthAdjust="spacing" textLength="169" x="2358.5" y="1787.5566">request and build template</text><polygon fill="#181818" points="1622,1817.6094,1612,1821.6094,1622,1825.6094" style="stroke:#181818;stroke-width:1.0;"/><line style="stroke:#181818;stroke-width:1.0;" x1="1616" x2="3274" y1="1821.6094" y2="1821.6094"/><text fill="#000000" font-family="sans-serif" font-size="13" lengthAdjust="spacing" textLength="78" x="2404" y="1816.8672">return HTML</text><polygon fill="#181818" points="1087,1846.9199,1077,1850.9199,1087,1854.9199" style="stroke:#181818;stroke-width:1.0;"/><line style="stroke:#181818;stroke-width:1.0;" x1="1081" x2="1610" y1="1850.9199" y2="1850.9199"/><text fill="#000000" font-family="sans-serif" font-size="13" lengthAdjust="spacing" textLength="78" x="1304.5" y="1846.1777">return HTML</text><polygon fill="#181818" points="56.5,1876.2305,46.5,1880.2305,56.5,1884.2305" style="stroke:#181818;stroke-width:1.0;"/><line style="stroke:#181818;stroke-width:1.0;" x1="50.5" x2="1075" y1="1880.2305" y2="1880.2305"/><text fill="#000000" font-family="sans-serif" font-size="13" lengthAdjust="spacing" textLength="80" x="520.75" y="1875.4883">render HTML</text><polygon fill="#181818" points="1064,1905.541,1074,1909.541,1064,1913.541" style="stroke:#181818;stroke-width:1.0;"/><line style="stroke:#181818;stroke-width:1.0;" x1="45.5" x2="1070" y1="1909.541" y2="1909.541"/><text fill="#000000" font-family="sans-serif" font-size="13" lengthAdjust="spacing" textLength="189" x="466.25" y="1904.7988">select pool and click 'confirm'</text><polygon fill="#181818" points="1599,1934.8516,1609,1938.8516,1599,1942.8516" style="stroke:#181818;stroke-width:1.0;"/><line style="stroke:#181818;stroke-width:1.0;" x1="1076" x2="1605" y1="1938.8516" y2="1938.8516"/><text fill="#000000" font-family="sans-serif" font-size="13" lengthAdjust="spacing" textLength="259" x="1214" y="1934.1094">call process controller with selected pool</text><polygon fill="#181818" points="3752.5,1964.1621,3762.5,1968.1621,3752.5,1972.1621" style="stroke:#181818;stroke-width:1.0;"/><line style="stroke:#181818;stroke-width:1.0;" x1="1611" x2="3758.5" y1="1968.1621" y2="1968.1621"/><text fill="#000000" font-family="sans-serif" font-size="13" lengthAdjust="spacing" textLength="95" x="2640.25" y="1963.4199">validate details</text><path d="M10,1983.1621 L72,1983.1621 L72,1990.4727 L62,2000.4727 L10,2000.4727 L10,1983.1621 " fill="#EEEEEE" style="stroke:#000000;stroke-width:1.5;"/><rect fill="none" height="163.8633" style="stroke:#000000;stroke-width:1.5;" width="3873.5" x="10" y="1983.1621"/><text fill="#000000" font-family="sans-serif" font-size="13" font-weight="bold" lengthAdjust="spacing" textLength="17" x="25" y="1996.7305">alt</text><text fill="#000000" font-family="sans-serif" font-size="11" font-weight="bold" lengthAdjust="spacing" textLength="101" x="87" y="1995.7969">[No pool selected]</text><polygon fill="#181818" points="1622,2017.7832,1612,2021.7832,1622,2025.7832" style="stroke:#181818;stroke-width:1.0;"/><line style="stroke:#181818;stroke-width:1.0;" x1="1616" x2="3763.5" y1="2021.7832" y2="2021.7832"/><text fill="#000000" font-family="sans-serif" font-size="13" lengthAdjust="spacing" textLength="106" x="2634.75" y="2017.041">No pool selected</text><polygon fill="#181818" points="3263,2047.0938,3273,2051.0938,3263,2055.0938" style="stroke:#181818;stroke-width:1.0;"/><line style="stroke:#181818;stroke-width:1.0;" x1="1611" x2="3269" y1="2051.0938" y2="2051.0938"/><text fill="#000000" font-family="sans-serif" font-size="13" lengthAdjust="spacing" textLength="169" x="2358.5" y="2046.3516">request and build template</text><polygon fill="#181818" points="1622,2076.4043,1612,2080.4043,1622,2084.4043" style="stroke:#181818;stroke-width:1.0;"/><line style="stroke:#181818;stroke-width:1.0;" x1="1616" x2="3274" y1="2080.4043" y2="2080.4043"/><text fill="#000000" font-family="sans-serif" font-size="13" lengthAdjust="spacing" textLength="78" x="2404" y="2075.6621">return HTML</text><polygon fill="#181818" points="1087,2105.7148,1077,2109.7148,1087,2113.7148" style="stroke:#181818;stroke-width:1.0;"/><line style="stroke:#181818;stroke-width:1.0;" x1="1081" x2="1610" y1="2109.7148" y2="2109.7148"/><text fill="#000000" font-family="sans-serif" font-size="13" lengthAdjust="spacing" textLength="112" x="1287.5" y="2104.9727">return error HTML</text><polygon fill="#181818" points="56.5,2135.0254,46.5,2139.0254,56.5,2143.0254" style="stroke:#181818;stroke-width:1.0;"/><line style="stroke:#181818;stroke-width:1.0;" x1="50.5" x2="1075" y1="2139.0254" y2="2139.0254"/><text fill="#000000" font-family="sans-serif" font-size="13" lengthAdjust="spacing" textLength="133" x="494.25" y="2134.2832">render error message</text><polygon fill="#181818" points="1622,2171.3359,1612,2175.3359,1622,2179.3359" style="stroke:#181818;stroke-width:1.0;"/><line style="stroke:#181818;stroke-width:1.0;" x1="1616" x2="3763.5" y1="2175.3359" y2="2175.3359"/><text fill="#000000" font-family="sans-serif" font-size="13" lengthAdjust="spacing" textLength="127" x="2624.25" y="2170.5938">valid details entered</text><polygon fill="#181818" points="2500,2200.6465,2510,2204.6465,2500,2208.6465" style="stroke:#181818;stroke-width:1.0;"/><line style="stroke:#181818;stroke-width:1.0;" x1="1611" x2="2506" y1="2204.6465" y2="2204.6465"/><text fill="#000000" font-family="sans-serif" font-size="13" lengthAdjust="spacing" textLength="126" x="1998.5" y="2199.9043">build request object</text><polygon fill="#181818" points="3942,2229.957,3952,2233.957,3942,2237.957" style="stroke:#181818;stroke-width:1.0;"/><line style="stroke:#181818;stroke-width:1.0;" x1="2512" x2="3948" y1="2233.957" y2="2233.957"/><text fill="#000000" font-family="sans-serif" font-size="13" lengthAdjust="spacing" textLength="138" x="3164" y="2229.2148">send backend request</text><path d="M10,2248.957 L72,2248.957 L72,2256.2676 L62,2266.2676 L10,2266.2676 L10,2248.957 " fill="#EEEEEE" style="stroke:#000000;stroke-width:1.5;"/><rect fill="none" height="193.1738" style="stroke:#000000;stroke-width:1.5;" width="4024.5" x="10" y="2248.957"/><text fill="#000000" font-family="sans-serif" font-size="13" font-weight="bold" lengthAdjust="spacing" textLength="17" x="25" y="2262.5254">alt</text><text fill="#000000" font-family="sans-serif" font-size="11" font-weight="bold" lengthAdjust="spacing" textLength="142" x="87" y="2261.5918">[Failed to fetch deferrals]</text><polygon fill="#181818" points="2523,2283.5781,2513,2287.5781,2523,2291.5781" style="stroke:#181818;stroke-width:1.0;"/><line style="stroke:#181818;stroke-width:1.0;stroke-dasharray:2.0,2.0;" x1="2517" x2="3953" y1="2287.5781" y2="2287.5781"/><text fill="#000000" font-family="sans-serif" font-size="13" lengthAdjust="spacing" textLength="91" x="3187.5" y="2282.8359">Error response</text><polygon fill="#181818" points="1622,2312.8887,1612,2316.8887,1622,2320.8887" style="stroke:#181818;stroke-width:1.0;"/><line style="stroke:#181818;stroke-width:1.0;stroke-dasharray:2.0,2.0;" x1="1616" x2="2511" y1="2316.8887" y2="2316.8887"/><text fill="#000000" font-family="sans-serif" font-size="13" lengthAdjust="spacing" textLength="127" x="1998" y="2312.1465">reject requestObject</text><polygon fill="#181818" points="3263,2342.1992,3273,2346.1992,3263,2350.1992" style="stroke:#181818;stroke-width:1.0;"/><line style="stroke:#181818;stroke-width:1.0;" x1="1611" x2="3269" y1="2346.1992" y2="2346.1992"/><text fill="#000000" font-family="sans-serif" font-size="13" lengthAdjust="spacing" textLength="169" x="2358.5" y="2341.457">request and build template</text><polygon fill="#181818" points="1622,2371.5098,1612,2375.5098,1622,2379.5098" style="stroke:#181818;stroke-width:1.0;"/><line style="stroke:#181818;stroke-width:1.0;" x1="1616" x2="3274" y1="2375.5098" y2="2375.5098"/><text fill="#000000" font-family="sans-serif" font-size="13" lengthAdjust="spacing" textLength="78" x="2404" y="2370.7676">return HTML</text><polygon fill="#181818" points="1087,2400.8203,1077,2404.8203,1087,2408.8203" style="stroke:#181818;stroke-width:1.0;"/><line style="stroke:#181818;stroke-width:1.0;" x1="1081" x2="1610" y1="2404.8203" y2="2404.8203"/><text fill="#000000" font-family="sans-serif" font-size="13" lengthAdjust="spacing" textLength="112" x="1287.5" y="2400.0781">return error HTML</text><polygon fill="#181818" points="56.5,2430.1309,46.5,2434.1309,56.5,2438.1309" style="stroke:#181818;stroke-width:1.0;"/><line style="stroke:#181818;stroke-width:1.0;" x1="50.5" x2="1075" y1="2434.1309" y2="2434.1309"/><text fill="#000000" font-family="sans-serif" font-size="13" lengthAdjust="spacing" textLength="133" x="494.25" y="2429.3887">render error message</text><polygon fill="#181818" points="2523,2466.4414,2513,2470.4414,2523,2474.4414" style="stroke:#181818;stroke-width:1.0;"/><line style="stroke:#181818;stroke-width:1.0;" x1="2517" x2="3953" y1="2470.4414" y2="2470.4414"/><text fill="#000000" font-family="sans-serif" font-size="13" lengthAdjust="spacing" textLength="77" x="3194.5" y="2465.6992">ok response</text><polygon fill="#181818" points="1622,2495.752,1612,2499.752,1622,2503.752" style="stroke:#181818;stroke-width:1.0;"/><line style="stroke:#181818;stroke-width:1.0;" x1="1616" x2="2511" y1="2499.752" y2="2499.752"/><text fill="#000000" font-family="sans-serif" font-size="13" lengthAdjust="spacing" textLength="96" x="2013.5" y="2495.0098">resolve request</text><polygon fill="#181818" points="1883.5,2525.0625,1893.5,2529.0625,1883.5,2533.0625" style="stroke:#181818;stroke-width:1.0;"/><line style="stroke:#181818;stroke-width:1.0;" x1="1611" x2="1889.5" y1="2529.0625" y2="2529.0625"/><text fill="#000000" font-family="sans-serif" font-size="13" lengthAdjust="spacing" textLength="126" x="1690.25" y="2524.3203">build request object</text><polygon fill="#181818" points="3942,2554.373,3952,2558.373,3942,2562.373" style="stroke:#181818;stroke-width:1.0;"/><line style="stroke:#181818;stroke-width:1.0;" x1="1895.5" x2="3948" y1="2558.373" y2="2558.373"/><text fill="#000000" font-family="sans-serif" font-size="13" lengthAdjust="spacing" textLength="138" x="2855.75" y="2553.6309">send backend request</text><path d="M10,2573.373 L72,2573.373 L72,2580.6836 L62,2590.6836 L10,2590.6836 L10,2573.373 " fill="#EEEEEE" style="stroke:#000000;stroke-width:1.5;"/><rect fill="none" height="193.1738" style="stroke:#000000;stroke-width:1.5;" width="4024.5" x="10" y="2573.373"/><text fill="#000000" font-family="sans-serif" font-size="13" font-weight="bold" lengthAdjust="spacing" textLength="17" x="25" y="2586.9414">alt</text><text fill="#000000" font-family="sans-serif" font-size="11" font-weight="bold" lengthAdjust="spacing" textLength="142" x="87" y="2586.0078">[Failed to fetch deferrals]</text><polygon fill="#181818" points="1906.5,2607.9941,1896.5,2611.9941,1906.5,2615.9941" style="stroke:#181818;stroke-width:1.0;"/><line style="stroke:#181818;stroke-width:1.0;stroke-dasharray:2.0,2.0;" x1="1900.5" x2="3953" y1="2611.9941" y2="2611.9941"/><text fill="#000000" font-family="sans-serif" font-size="13" lengthAdjust="spacing" textLength="91" x="2879.25" y="2607.252">Error response</text><polygon fill="#181818" points="1622,2637.3047,1612,2641.3047,1622,2645.3047" style="stroke:#181818;stroke-width:1.0;"/><line style="stroke:#181818;stroke-width:1.0;stroke-dasharray:2.0,2.0;" x1="1616" x2="1894.5" y1="2641.3047" y2="2641.3047"/><text fill="#000000" font-family="sans-serif" font-size="13" lengthAdjust="spacing" textLength="127" x="1689.75" y="2636.5625">reject requestObject</text><polygon fill="#181818" points="2861.5,2666.6152,2871.5,2670.6152,2861.5,2674.6152" style="stroke:#181818;stroke-width:1.0;"/><line style="stroke:#181818;stroke-width:1.0;" x1="1611" x2="2867.5" y1="2670.6152" y2="2670.6152"/><text fill="#000000" font-family="sans-serif" font-size="13" lengthAdjust="spacing" textLength="169" x="2157.75" y="2665.873">request and build template</text><polygon fill="#181818" points="1622,2695.9258,1612,2699.9258,1622,2703.9258" style="stroke:#181818;stroke-width:1.0;"/><line style="stroke:#181818;stroke-width:1.0;" x1="1616" x2="2872.5" y1="2699.9258" y2="2699.9258"/><text fill="#000000" font-family="sans-serif" font-size="13" lengthAdjust="spacing" textLength="78" x="2203.25" y="2695.1836">return HTML</text><polygon fill="#181818" points="624,2725.2363,614,2729.2363,624,2733.2363" style="stroke:#181818;stroke-width:1.0;"/><line style="stroke:#181818;stroke-width:1.0;" x1="618" x2="1610" y1="2729.2363" y2="2729.2363"/><text fill="#000000" font-family="sans-serif" font-size="13" lengthAdjust="spacing" textLength="112" x="1056" y="2724.4941">return error HTML</text><polygon fill="#181818" points="56.5,2754.5469,46.5,2758.5469,56.5,2762.5469" style="stroke:#181818;stroke-width:1.0;"/><line style="stroke:#181818;stroke-width:1.0;" x1="50.5" x2="612" y1="2758.5469" y2="2758.5469"/><text fill="#000000" font-family="sans-serif" font-size="13" lengthAdjust="spacing" textLength="133" x="262.75" y="2753.8047">render error message</text><polygon fill="#181818" points="1906.5,2790.8574,1896.5,2794.8574,1906.5,2798.8574" style="stroke:#181818;stroke-width:1.0;"/><line style="stroke:#181818;stroke-width:1.0;" x1="1900.5" x2="3953" y1="2794.8574" y2="2794.8574"/><text fill="#000000" font-family="sans-serif" font-size="13" lengthAdjust="spacing" textLength="77" x="2886.25" y="2790.1152">ok response</text><polygon fill="#181818" points="1622,2820.168,1612,2824.168,1622,2828.168" style="stroke:#181818;stroke-width:1.0;"/><line style="stroke:#181818;stroke-width:1.0;" x1="1616" x2="1894.5" y1="2824.168" y2="2824.168"/><text fill="#000000" font-family="sans-serif" font-size="13" lengthAdjust="spacing" textLength="96" x="1705.25" y="2819.4258">resolve request</text><polygon fill="#181818" points="2861.5,2849.4785,2871.5,2853.4785,2861.5,2857.4785" style="stroke:#181818;stroke-width:1.0;"/><line style="stroke:#181818;stroke-width:1.0;" x1="1611" x2="2867.5" y1="2853.4785" y2="2853.4785"/><text fill="#000000" font-family="sans-serif" font-size="13" lengthAdjust="spacing" textLength="169" x="2157.75" y="2848.7363">request and build template</text><polygon fill="#181818" points="1622,2878.7891,1612,2882.7891,1622,2886.7891" style="stroke:#181818;stroke-width:1.0;"/><line style="stroke:#181818;stroke-width:1.0;" x1="1616" x2="2872.5" y1="2882.7891" y2="2882.7891"/><text fill="#000000" font-family="sans-serif" font-size="13" lengthAdjust="spacing" textLength="78" x="2203.25" y="2878.0469">return HTML</text><polygon fill="#181818" points="624,2908.0996,614,2912.0996,624,2916.0996" style="stroke:#181818;stroke-width:1.0;"/><line style="stroke:#181818;stroke-width:1.0;" x1="618" x2="1610" y1="2912.0996" y2="2912.0996"/><text fill="#000000" font-family="sans-serif" font-size="13" lengthAdjust="spacing" textLength="78" x="1073" y="2907.3574">return HTML</text><polygon fill="#181818" points="56.5,2937.4102,46.5,2941.4102,56.5,2945.4102" style="stroke:#181818;stroke-width:1.0;"/><line style="stroke:#181818;stroke-width:1.0;" x1="50.5" x2="612" y1="2941.4102" y2="2941.4102"/><text fill="#000000" font-family="sans-serif" font-size="13" lengthAdjust="spacing" textLength="80" x="289.25" y="2936.668">render HTML</text><!--SRC=[xLfRR-9657xthpXD8oMH0haqMxLM59KGaoKrWOAJga-LiIV4mSnuVQ7TVzypuqiC7cCWP4MwxCDAs3FVd3ddErVdsR49HDHrw9ZOoWyEjTm8dum89RvZrOOkiyP1tNDD6aOJLr62iKCzqpSdC0Y_kWI249VnLv1_HRv4X5gaGuB07966wupeXD0GBFoF-8g2oqB7SZn4XOOLCdnqS700UhVPqA7VVJ3QzxSpYtgCkNsE6eH13o7XylB4msUrYKdn9mU_kfhPSKEUYE-RRiTqy4ngeZWb6q_iP2a-ozQUg7XpCtGORJARp67tV6RXrT8ZriSzyMAaEVpRMFkQxpC_1IVy1wuJYcfsxur-LzUrFZJkRw2l_V6W3GpeNjzfJMDGfOScew7FN9Vu21n4amcZGKxkkfMzhxy49MeDkiCNt6qNqUlfiw0-8k7XqHn0OsewhZbq2JVf0XHpPfqSoXMw97SHgcOHrCowkiU262lMfQ5rUdh3q2hLPf09-a6ulAaTQfD_w_Hbl9W-A-DwGYD5t3njSg1_2-e49ubFnnlXHzUS4XGmSRrMMpUq_a3GwR6XjsyQHhTVgP97qtLiC_FVwqRpTmq1Nkav0t1jMcCyyfL-yQwxxaF_NliBMdhtJqL40wXT5JrU1MfEdH6_KyWWLGm8nPYKXnlmS9rIs8XWYvr01Gif8dQ3bHDktnSAIbLfC0vtk13hU15nZik2qf7oUk-okAL2G5nYXP363p2f3PRhM6DuGgOfPHlNl3xyuuJFa0zMg91fR6_IfbuKhg69Z2_hwUaOzjfKoF2g1GibsqC5xlDBD7hjlh2Py84kRJ5_igoOF80SItq8ZsrXC28s9zuJ2QtdZ7x1tjeMtp9sCOzG99AB-HcfG8ah-9LmBduUl3_7nA7fQTzIGoiuO6Rxd0SUcBPW1m_D1szNKvmW2fgA1K0UPY9iWqlUivnAKX7H9VUJX8DEsSHRLSbMA0oMTiQiL13g3_ZHwp2d92qVoygzl4_9gi6CB5oYF4_Gf4-EFpbGPBisnWz-waQfiOfkOag8Y-VPi6vyBbHvQmNfrOpxqPB9DuoKl-59Yl8yqpPc_zwjEzprWj9USDVeBTdeVQ-jtVBzMqMZjarz6LJiamDdQbF1ZyKGUNaOEIx6ukHb9VPbhH8xZ7mAdusEBWUBdRXMUVTPe5Z_ycs96U8S46_u6Fqah6V9ZBLuL5hZ8F52Z2C11pNT4AHz8ZzmBVlcJon7_gvuAIBFwkoCjqtYr8yxHJNnTgF49aau0AAE8FPAaKAa5JLHUse8Ddn15yd1Y5Mugn0XXJzniyKlKWJ1SK78qg9lXfHnSglLf0U8w8_8WOTvV3aor-RlvnD-erIyRdo_XBqx1c-0mOa5fGPauxprbbP7Phg0kLEIfzOk3suW3sxXv6jdsMhBVjI9tJiMFT99t4QAddBaNShOig9d2OCKM_FImgUuT2FLpzp8LgoJ30msMGZ9Bhsu6ghKexGhVokZIq7pL2vEXTOEjmMeETfwCvoL6MaJjOxSEhC5pn8MAPk_lDKeYt3pMfLE0zSsZVpBWho-sTQl4E-RxcQ-CcmgqnL1__VCaoUsXVpRkgHM61AN9xN2qdTewIL3wuscCybrtzpSxqYSP3c9xJQIvQH6MpdBxMPMkvdLnvnPxGORbOED-0DxZ__5zKD7Xodn0_wLuQn-Vdf-KV_fq7YEe4M6SFO9pdvLBqxLqqzmsp60lpvI3czx-lGS0XRv5XPC3ly2FupuaEb8kSEk2_eH3Pq9KO7_EZGwHp3GqeUWqQdZC_4rNhbxxCIBu3CB1nuBnUAVBshNJWW3ugDWyDZXanCpmbYXKOlP3Xsfy62qQhyekab74TvEHR8fJOO7-5zLkBt-3m00]--></g></svg>