<?xml version="1.0" encoding="us-ascii" standalone="no"?><svg xmlns="http://www.w3.org/2000/svg" xmlns:xlink="http://www.w3.org/1999/xlink" contentStyleType="text/css" height="2231px" preserveAspectRatio="none" style="width:4731px;height:2231px;background:#FFFFFF;" version="1.1" viewBox="0 0 4731 2231" width="4731px" zoomAndPan="magnify"><defs/><g><rect fill="none" height="163.8633" style="stroke:#000000;stroke-width:1.5;" width="4564" x="10" y="157.9082"/><rect fill="none" height="193.1738" style="stroke:#000000;stroke-width:1.5;" width="4715" x="10" y="423.7031"/><rect fill="none" height="163.8633" style="stroke:#000000;stroke-width:1.5;" width="4564" x="10" y="894.6719"/><rect fill="none" height="193.1738" style="stroke:#000000;stroke-width:1.5;" width="4715" x="10" y="1160.4668"/><rect fill="none" height="163.8633" style="stroke:#000000;stroke-width:1.5;" width="4564" x="10" y="1631.4355"/><rect fill="none" height="193.1738" style="stroke:#000000;stroke-width:1.5;" width="4715" x="10" y="1897.2305"/><line style="stroke:#181818;stroke-width:0.5;stroke-dasharray:5.0,5.0;" x1="45" x2="45" y1="52.9766" y2="2224.6465"/><line style="stroke:#181818;stroke-width:0.5;stroke-dasharray:5.0,5.0;" x1="307" x2="307" y1="52.9766" y2="2224.6465"/><line style="stroke:#181818;stroke-width:0.5;stroke-dasharray:5.0,5.0;" x1="815" x2="815" y1="52.9766" y2="2224.6465"/><line style="stroke:#181818;stroke-width:0.5;stroke-dasharray:5.0,5.0;" x1="1507" x2="1507" y1="52.9766" y2="2224.6465"/><line style="stroke:#181818;stroke-width:0.5;stroke-dasharray:5.0,5.0;" x1="1980" x2="1980" y1="52.9766" y2="2224.6465"/><line style="stroke:#181818;stroke-width:0.5;stroke-dasharray:5.0,5.0;" x1="2196" x2="2196" y1="52.9766" y2="2224.6465"/><line style="stroke:#181818;stroke-width:0.5;stroke-dasharray:5.0,5.0;" x1="2433" x2="2433" y1="52.9766" y2="2224.6465"/><line style="stroke:#181818;stroke-width:0.5;stroke-dasharray:5.0,5.0;" x1="2684" x2="2684" y1="52.9766" y2="2224.6465"/><line style="stroke:#181818;stroke-width:0.5;stroke-dasharray:5.0,5.0;" x1="2921" x2="2921" y1="52.9766" y2="2224.6465"/><line style="stroke:#181818;stroke-width:0.5;stroke-dasharray:5.0,5.0;" x1="3201" x2="3201" y1="52.9766" y2="2224.6465"/><line style="stroke:#181818;stroke-width:0.5;stroke-dasharray:5.0,5.0;" x1="3583" x2="3583" y1="52.9766" y2="2224.6465"/><line style="stroke:#181818;stroke-width:0.5;stroke-dasharray:5.0,5.0;" x1="3965" x2="3965" y1="52.9766" y2="2224.6465"/><line style="stroke:#181818;stroke-width:0.5;stroke-dasharray:5.0,5.0;" x1="4253" x2="4253" y1="52.9766" y2="2224.6465"/><line style="stroke:#181818;stroke-width:0.5;stroke-dasharray:5.0,5.0;" x1="4455" x2="4455" y1="52.9766" y2="2224.6465"/><line style="stroke:#181818;stroke-width:0.5;stroke-dasharray:5.0,5.0;" x1="4644" x2="4644" y1="52.9766" y2="2224.6465"/><rect fill="#E2E2F0" height="30.4883" rx="2.5" ry="2.5" style="stroke:#181818;stroke-width:0.5;" width="51" x="20" y="21.4883"/><text fill="#000000" font-family="sans-serif" font-size="14" lengthAdjust="spacing" textLength="37" x="27" y="42.0234">Actor</text><rect fill="#E2E2F0" height="46.9766" rx="2.5" ry="2.5" style="stroke:#181818;stroke-width:0.5;" width="423" x="96" y="5"/><text fill="#000000" font-family="sans-serif" font-size="14" font-style="italic" lengthAdjust="spacing" textLength="409" x="103" y="25.5352">&#171;/pool-management/deferral-maintenance/:locationCode&#187;</text><text fill="#000000" font-family="sans-serif" font-size="14" lengthAdjust="spacing" textLength="175" x="220" y="42.0234">DeferralMaintenancePage</text><rect fill="#E2E2F0" height="46.9766" rx="2.5" ry="2.5" style="stroke:#181818;stroke-width:0.5;" width="573" x="529" y="5"/><text fill="#000000" font-family="sans-serif" font-size="14" font-style="italic" lengthAdjust="spacing" textLength="559" x="536" y="25.5352">&#171;/pool-management/deferral-maintenance/location/:locationCode/move-court&#187;</text><text fill="#000000" font-family="sans-serif" font-size="14" lengthAdjust="spacing" textLength="112" x="759.5" y="42.0234">SelectCourtPage</text><rect fill="#E2E2F0" height="46.9766" rx="2.5" ry="2.5" style="stroke:#181818;stroke-width:0.5;" width="791" x="1112" y="5"/><text fill="#000000" font-family="sans-serif" font-size="14" font-style="italic" lengthAdjust="spacing" textLength="777" x="1119" y="25.5352">&#171;/pool-management/deferral-maintenance/location/:locationCode/move-court/:newLocationCode/select-pool&#187;</text><text fill="#000000" font-family="sans-serif" font-size="14" lengthAdjust="spacing" textLength="132" x="1441.5" y="42.0234">AvailablePoolsPage</text><rect fill="#E2E2F0" height="46.9766" rx="2.5" ry="2.5" style="stroke:#181818;stroke-width:0.5;" width="134" x="1913" y="5"/><text fill="#000000" font-family="sans-serif" font-size="14" font-style="italic" lengthAdjust="spacing" textLength="56" x="1952" y="25.5352">&#171;/error&#187;</text><text fill="#000000" font-family="sans-serif" font-size="14" lengthAdjust="spacing" textLength="120" x="1920" y="42.0234">GenericErrorPage</text><rect fill="#E2E2F0" height="46.9766" rx="2.5" ry="2.5" style="stroke:#181818;stroke-width:0.5;" width="279" x="2057" y="5"/><text fill="#000000" font-family="sans-serif" font-size="14" font-style="italic" lengthAdjust="spacing" textLength="265" x="2064" y="25.5352">&#171;summons-management.controller.js&#187;</text><text fill="#000000" font-family="sans-serif" font-size="14" lengthAdjust="spacing" textLength="212" x="2090.5" y="42.0234">DeferralMaintenanceController</text><rect fill="#E2E2F0" height="46.9766" rx="2.5" ry="2.5" style="stroke:#181818;stroke-width:0.5;" width="175" x="2346" y="5"/><text fill="#000000" font-family="sans-serif" font-size="14" font-style="italic" lengthAdjust="spacing" textLength="161" x="2353" y="25.5352">&#171;fetchCourtsDAO.get()&#187;</text><text fill="#000000" font-family="sans-serif" font-size="14" lengthAdjust="spacing" textLength="107" x="2380" y="42.0234">FetchCourtsObj</text><rect fill="#E2E2F0" height="46.9766" rx="2.5" ry="2.5" style="stroke:#181818;stroke-width:0.5;" width="306" x="2531" y="5"/><text fill="#000000" font-family="sans-serif" font-size="14" font-style="italic" lengthAdjust="spacing" textLength="292" x="2538" y="25.5352">&#171;deferralMaintenance.availablePools.get()&#187;</text><text fill="#000000" font-family="sans-serif" font-size="14" lengthAdjust="spacing" textLength="123" x="2622.5" y="42.0234">AvailablePoolsObj</text><rect fill="#E2E2F0" height="46.9766" rx="2.5" ry="2.5" style="stroke:#181818;stroke-width:0.5;" width="148" x="2847" y="5"/><text fill="#000000" font-family="sans-serif" font-size="14" font-style="italic" lengthAdjust="spacing" textLength="134" x="2854" y="25.5352">&#171;moveCourt.post()&#187;</text><text fill="#000000" font-family="sans-serif" font-size="14" lengthAdjust="spacing" textLength="99" x="2871.5" y="42.0234">MoveCourtObj</text><rect fill="#E2E2F0" height="46.9766" rx="2.5" ry="2.5" style="stroke:#181818;stroke-width:0.5;" width="392" x="3005" y="5"/><text fill="#000000" font-family="sans-serif" font-size="14" font-style="italic" lengthAdjust="spacing" textLength="378" x="3012" y="25.5352">&#171;/pool-management/deferral-maintenance/index.njk&#187;</text><text fill="#000000" font-family="sans-serif" font-size="14" lengthAdjust="spacing" textLength="206" x="3098" y="42.0234">DeferralMaintenanceTemplate</text><rect fill="#E2E2F0" height="46.9766" rx="2.5" ry="2.5" style="stroke:#181818;stroke-width:0.5;" width="353" x="3407" y="5"/><text fill="#000000" font-family="sans-serif" font-size="14" font-style="italic" lengthAdjust="spacing" textLength="339" x="3414" y="25.5352">&#171;/pool-management/_common/select-court.njk&#187;</text><text fill="#000000" font-family="sans-serif" font-size="14" lengthAdjust="spacing" textLength="143" x="3512" y="42.0234">SelectCourtTemplate</text><rect fill="#E2E2F0" height="46.9766" rx="2.5" ry="2.5" style="stroke:#181818;stroke-width:0.5;" width="391" x="3770" y="5"/><text fill="#000000" font-family="sans-serif" font-size="14" font-style="italic" lengthAdjust="spacing" textLength="377" x="3777" y="25.5352">&#171;/pool-management/deferral-maintenance/pools.njk&#187;</text><text fill="#000000" font-family="sans-serif" font-size="14" lengthAdjust="spacing" textLength="163" x="3884" y="42.0234">AvailablePoolsTemplate</text><rect fill="#E6E6FA" height="46.9766" rx="2.5" ry="2.5" style="stroke:#181818;stroke-width:0.5;" width="165" x="4171" y="5"/><text fill="#000000" font-family="sans-serif" font-size="14" font-style="italic" lengthAdjust="spacing" textLength="146" x="4180.5" y="25.5352">&#171;_errors/generic.njk&#187;</text><text fill="#000000" font-family="sans-serif" font-size="14" lengthAdjust="spacing" textLength="151" x="4178" y="42.0234">GenericErrorTemplate</text><rect fill="#E2E2F0" height="30.4883" rx="2.5" ry="2.5" style="stroke:#181818;stroke-width:0.5;" width="218" x="4346" y="21.4883"/><text fill="#000000" font-family="sans-serif" font-size="14" lengthAdjust="spacing" textLength="204" x="4353" y="42.0234">DeferralMaintenanceValidator</text><rect fill="#E2E2F0" height="30.4883" rx="2.5" ry="2.5" style="stroke:#181818;stroke-width:0.5;" width="141" x="4574" y="21.4883"/><text fill="#000000" font-family="sans-serif" font-size="14" lengthAdjust="spacing" textLength="127" x="4581" y="42.0234">BackendController</text><polygon fill="#181818" points="295.5,80.2871,305.5,84.2871,295.5,88.2871" style="stroke:#181818;stroke-width:1.0;"/><line style="stroke:#181818;stroke-width:1.0;" x1="45.5" x2="301.5" y1="84.2871" y2="84.2871"/><text fill="#000000" font-family="sans-serif" font-size="13" lengthAdjust="spacing" textLength="238" x="57.5" y="79.5449">select deferrals and click 'move court'</text><polygon fill="#181818" points="2184.5,109.5977,2194.5,113.5977,2184.5,117.5977" style="stroke:#181818;stroke-width:1.0;"/><line style="stroke:#181818;stroke-width:1.0;" x1="307.5" x2="2190.5" y1="113.5977" y2="113.5977"/><text fill="#000000" font-family="sans-serif" font-size="13" lengthAdjust="spacing" textLength="233" x="1135.5" y="108.8555">call controller with selected deferrals</text><polygon fill="#181818" points="4443,138.9082,4453,142.9082,4443,146.9082" style="stroke:#181818;stroke-width:1.0;"/><line style="stroke:#181818;stroke-width:1.0;" x1="2196.5" x2="4449" y1="142.9082" y2="142.9082"/><text fill="#000000" font-family="sans-serif" font-size="13" lengthAdjust="spacing" textLength="95" x="3278.25" y="138.166">validate details</text><path d="M10,157.9082 L72,157.9082 L72,165.2188 L62,175.2188 L10,175.2188 L10,157.9082 " fill="#EEEEEE" style="stroke:#000000;stroke-width:1.5;"/><rect fill="none" height="163.8633" style="stroke:#000000;stroke-width:1.5;" width="4564" x="10" y="157.9082"/><text fill="#000000" font-family="sans-serif" font-size="13" font-weight="bold" lengthAdjust="spacing" textLength="17" x="25" y="171.4766">alt</text><text fill="#000000" font-family="sans-serif" font-size="11" font-weight="bold" lengthAdjust="spacing" textLength="110" x="87" y="170.543">[No jurors selected]</text><polygon fill="#181818" points="2207.5,192.5293,2197.5,196.5293,2207.5,200.5293" style="stroke:#181818;stroke-width:1.0;"/><line style="stroke:#181818;stroke-width:1.0;" x1="2201.5" x2="4454" y1="196.5293" y2="196.5293"/><text fill="#000000" font-family="sans-serif" font-size="13" lengthAdjust="spacing" textLength="115" x="3268.25" y="191.7871">No jurors selected</text><polygon fill="#181818" points="3189,221.8398,3199,225.8398,3189,229.8398" style="stroke:#181818;stroke-width:1.0;"/><line style="stroke:#181818;stroke-width:1.0;" x1="2196.5" x2="3195" y1="225.8398" y2="225.8398"/><text fill="#000000" font-family="sans-serif" font-size="13" lengthAdjust="spacing" textLength="169" x="2614.25" y="221.0977">request and build template</text><polygon fill="#181818" points="2207.5,251.1504,2197.5,255.1504,2207.5,259.1504" style="stroke:#181818;stroke-width:1.0;"/><line style="stroke:#181818;stroke-width:1.0;" x1="2201.5" x2="3200" y1="255.1504" y2="255.1504"/><text fill="#000000" font-family="sans-serif" font-size="13" lengthAdjust="spacing" textLength="78" x="2659.75" y="250.4082">return HTML</text><polygon fill="#181818" points="318.5,280.4609,308.5,284.4609,318.5,288.4609" style="stroke:#181818;stroke-width:1.0;"/><line style="stroke:#181818;stroke-width:1.0;" x1="312.5" x2="2195.5" y1="284.4609" y2="284.4609"/><text fill="#000000" font-family="sans-serif" font-size="13" lengthAdjust="spacing" textLength="112" x="1196" y="279.7188">return error HTML</text><polygon fill="#181818" points="56.5,309.7715,46.5,313.7715,56.5,317.7715" style="stroke:#181818;stroke-width:1.0;"/><line style="stroke:#181818;stroke-width:1.0;" x1="50.5" x2="306.5" y1="313.7715" y2="313.7715"/><text fill="#000000" font-family="sans-serif" font-size="13" lengthAdjust="spacing" textLength="133" x="110" y="309.0293">render error message</text><polygon fill="#181818" points="2207.5,346.082,2197.5,350.082,2207.5,354.082" style="stroke:#181818;stroke-width:1.0;"/><line style="stroke:#181818;stroke-width:1.0;" x1="2201.5" x2="4454" y1="350.082" y2="350.082"/><text fill="#000000" font-family="sans-serif" font-size="13" lengthAdjust="spacing" textLength="127" x="3262.25" y="345.3398">valid details entered</text><polygon fill="#181818" points="2421.5,375.3926,2431.5,379.3926,2421.5,383.3926" style="stroke:#181818;stroke-width:1.0;"/><line style="stroke:#181818;stroke-width:1.0;" x1="2196.5" x2="2427.5" y1="379.3926" y2="379.3926"/><text fill="#000000" font-family="sans-serif" font-size="13" lengthAdjust="spacing" textLength="126" x="2252" y="374.6504">build request object</text><polygon fill="#181818" points="4632.5,404.7031,4642.5,408.7031,4632.5,412.7031" style="stroke:#181818;stroke-width:1.0;"/><line style="stroke:#181818;stroke-width:1.0;" x1="2433.5" x2="4638.5" y1="408.7031" y2="408.7031"/><text fill="#000000" font-family="sans-serif" font-size="13" lengthAdjust="spacing" textLength="138" x="3470" y="403.9609">send backend request</text><path d="M10,423.7031 L72,423.7031 L72,431.0137 L62,441.0137 L10,441.0137 L10,423.7031 " fill="#EEEEEE" style="stroke:#000000;stroke-width:1.5;"/><rect fill="none" height="193.1738" style="stroke:#000000;stroke-width:1.5;" width="4715" x="10" y="423.7031"/><text fill="#000000" font-family="sans-serif" font-size="13" font-weight="bold" lengthAdjust="spacing" textLength="17" x="25" y="437.2715">alt</text><text fill="#000000" font-family="sans-serif" font-size="11" font-weight="bold" lengthAdjust="spacing" textLength="149" x="87" y="436.3379">[Failed to fetch courts list]</text><polygon fill="#181818" points="2444.5,458.3242,2434.5,462.3242,2444.5,466.3242" style="stroke:#181818;stroke-width:1.0;"/><line style="stroke:#181818;stroke-width:1.0;stroke-dasharray:2.0,2.0;" x1="2438.5" x2="4643.5" y1="462.3242" y2="462.3242"/><text fill="#000000" font-family="sans-serif" font-size="13" lengthAdjust="spacing" textLength="91" x="3493.5" y="457.582">Error response</text><polygon fill="#181818" points="2207.5,487.6348,2197.5,491.6348,2207.5,495.6348" style="stroke:#181818;stroke-width:1.0;"/><line style="stroke:#181818;stroke-width:1.0;stroke-dasharray:2.0,2.0;" x1="2201.5" x2="2432.5" y1="491.6348" y2="491.6348"/><text fill="#000000" font-family="sans-serif" font-size="13" lengthAdjust="spacing" textLength="127" x="2251.5" y="486.8926">reject requestObject</text><polygon fill="#181818" points="4241.5,516.9453,4251.5,520.9453,4241.5,524.9453" style="stroke:#181818;stroke-width:1.0;"/><line style="stroke:#181818;stroke-width:1.0;" x1="2196.5" x2="4247.5" y1="520.9453" y2="520.9453"/><text fill="#000000" font-family="sans-serif" font-size="13" lengthAdjust="spacing" textLength="169" x="3140.5" y="516.2031">request and build template</text><polygon fill="#181818" points="2207.5,546.2559,2197.5,550.2559,2207.5,554.2559" style="stroke:#181818;stroke-width:1.0;"/><line style="stroke:#181818;stroke-width:1.0;" x1="2201.5" x2="4252.5" y1="550.2559" y2="550.2559"/><text fill="#000000" font-family="sans-serif" font-size="13" lengthAdjust="spacing" textLength="78" x="3186" y="545.5137">return HTML</text><polygon fill="#181818" points="1991,575.5664,1981,579.5664,1991,583.5664" style="stroke:#181818;stroke-width:1.0;"/><line style="stroke:#181818;stroke-width:1.0;" x1="1985" x2="2195.5" y1="579.5664" y2="579.5664"/><text fill="#000000" font-family="sans-serif" font-size="13" lengthAdjust="spacing" textLength="78" x="2049.25" y="574.8242">return HTML</text><polygon fill="#181818" points="56.5,604.877,46.5,608.877,56.5,612.877" style="stroke:#181818;stroke-width:1.0;"/><line style="stroke:#181818;stroke-width:1.0;" x1="50.5" x2="1979" y1="608.877" y2="608.877"/><text fill="#000000" font-family="sans-serif" font-size="13" lengthAdjust="spacing" textLength="108" x="958.75" y="604.1348">render error page</text><polygon fill="#181818" points="2444.5,641.1875,2434.5,645.1875,2444.5,649.1875" style="stroke:#181818;stroke-width:1.0;"/><line style="stroke:#181818;stroke-width:1.0;" x1="2438.5" x2="4643.5" y1="645.1875" y2="645.1875"/><text fill="#000000" font-family="sans-serif" font-size="13" lengthAdjust="spacing" textLength="77" x="3500.5" y="640.4453">ok response</text><polygon fill="#181818" points="2207.5,670.498,2197.5,674.498,2207.5,678.498" style="stroke:#181818;stroke-width:1.0;"/><line style="stroke:#181818;stroke-width:1.0;" x1="2201.5" x2="2432.5" y1="674.498" y2="674.498"/><text fill="#000000" font-family="sans-serif" font-size="13" lengthAdjust="spacing" textLength="96" x="2267" y="669.7559">resolve request</text><polygon fill="#181818" points="3571.5,699.8086,3581.5,703.8086,3571.5,707.8086" style="stroke:#181818;stroke-width:1.0;"/><line style="stroke:#181818;stroke-width:1.0;" x1="2196.5" x2="3577.5" y1="703.8086" y2="703.8086"/><text fill="#000000" font-family="sans-serif" font-size="13" lengthAdjust="spacing" textLength="169" x="2805.5" y="699.0664">request and build template</text><polygon fill="#181818" points="2207.5,729.1191,2197.5,733.1191,2207.5,737.1191" style="stroke:#181818;stroke-width:1.0;"/><line style="stroke:#181818;stroke-width:1.0;" x1="2201.5" x2="3582.5" y1="733.1191" y2="733.1191"/><text fill="#000000" font-family="sans-serif" font-size="13" lengthAdjust="spacing" textLength="78" x="2851" y="728.377">return HTML</text><polygon fill="#181818" points="826.5,758.4297,816.5,762.4297,826.5,766.4297" style="stroke:#181818;stroke-width:1.0;"/><line style="stroke:#181818;stroke-width:1.0;" x1="820.5" x2="2195.5" y1="762.4297" y2="762.4297"/><text fill="#000000" font-family="sans-serif" font-size="13" lengthAdjust="spacing" textLength="78" x="1467" y="757.6875">return HTML</text><polygon fill="#181818" points="56.5,787.7402,46.5,791.7402,56.5,795.7402" style="stroke:#181818;stroke-width:1.0;"/><line style="stroke:#181818;stroke-width:1.0;" x1="50.5" x2="814.5" y1="791.7402" y2="791.7402"/><text fill="#000000" font-family="sans-serif" font-size="13" lengthAdjust="spacing" textLength="80" x="390.5" y="786.998">render HTML</text><polygon fill="#181818" points="803.5,817.0508,813.5,821.0508,803.5,825.0508" style="stroke:#181818;stroke-width:1.0;"/><line style="stroke:#181818;stroke-width:1.0;" x1="45.5" x2="809.5" y1="821.0508" y2="821.0508"/><text fill="#000000" font-family="sans-serif" font-size="13" lengthAdjust="spacing" textLength="200" x="330.5" y="816.3086">select court and click 'continue'</text><polygon fill="#181818" points="2184.5,846.3613,2194.5,850.3613,2184.5,854.3613" style="stroke:#181818;stroke-width:1.0;"/><line style="stroke:#181818;stroke-width:1.0;" x1="815.5" x2="2190.5" y1="850.3613" y2="850.3613"/><text fill="#000000" font-family="sans-serif" font-size="13" lengthAdjust="spacing" textLength="211" x="1400.5" y="845.6191">call controller with selected court</text><polygon fill="#181818" points="4443,875.6719,4453,879.6719,4443,883.6719" style="stroke:#181818;stroke-width:1.0;"/><line style="stroke:#181818;stroke-width:1.0;" x1="2196.5" x2="4449" y1="879.6719" y2="879.6719"/><text fill="#000000" font-family="sans-serif" font-size="13" lengthAdjust="spacing" textLength="95" x="3278.25" y="874.9297">validate details</text><path d="M10,894.6719 L72,894.6719 L72,901.9824 L62,911.9824 L10,911.9824 L10,894.6719 " fill="#EEEEEE" style="stroke:#000000;stroke-width:1.5;"/><rect fill="none" height="163.8633" style="stroke:#000000;stroke-width:1.5;" width="4564" x="10" y="894.6719"/><text fill="#000000" font-family="sans-serif" font-size="13" font-weight="bold" lengthAdjust="spacing" textLength="17" x="25" y="908.2402">alt</text><text fill="#000000" font-family="sans-serif" font-size="11" font-weight="bold" lengthAdjust="spacing" textLength="105" x="87" y="907.3066">[No court selected]</text><polygon fill="#181818" points="2207.5,929.293,2197.5,933.293,2207.5,937.293" style="stroke:#181818;stroke-width:1.0;"/><line style="stroke:#181818;stroke-width:1.0;" x1="2201.5" x2="4454" y1="933.293" y2="933.293"/><text fill="#000000" font-family="sans-serif" font-size="13" lengthAdjust="spacing" textLength="111" x="3270.25" y="928.5508">No court selected</text><polygon fill="#181818" points="3571.5,958.6035,3581.5,962.6035,3571.5,966.6035" style="stroke:#181818;stroke-width:1.0;"/><line style="stroke:#181818;stroke-width:1.0;" x1="2196.5" x2="3577.5" y1="962.6035" y2="962.6035"/><text fill="#000000" font-family="sans-serif" font-size="13" lengthAdjust="spacing" textLength="169" x="2805.5" y="957.8613">request and build template</text><polygon fill="#181818" points="2207.5,987.9141,2197.5,991.9141,2207.5,995.9141" style="stroke:#181818;stroke-width:1.0;"/><line style="stroke:#181818;stroke-width:1.0;" x1="2201.5" x2="3582.5" y1="991.9141" y2="991.9141"/><text fill="#000000" font-family="sans-serif" font-size="13" lengthAdjust="spacing" textLength="78" x="2851" y="987.1719">return HTML</text><polygon fill="#181818" points="826.5,1017.2246,816.5,1021.2246,826.5,1025.2246" style="stroke:#181818;stroke-width:1.0;"/><line style="stroke:#181818;stroke-width:1.0;" x1="820.5" x2="2195.5" y1="1021.2246" y2="1021.2246"/><text fill="#000000" font-family="sans-serif" font-size="13" lengthAdjust="spacing" textLength="112" x="1450" y="1016.4824">return error HTML</text><polygon fill="#181818" points="56.5,1046.5352,46.5,1050.5352,56.5,1054.5352" style="stroke:#181818;stroke-width:1.0;"/><line style="stroke:#181818;stroke-width:1.0;" x1="50.5" x2="814.5" y1="1050.5352" y2="1050.5352"/><text fill="#000000" font-family="sans-serif" font-size="13" lengthAdjust="spacing" textLength="133" x="364" y="1045.793">render error message</text><polygon fill="#181818" points="2207.5,1082.8457,2197.5,1086.8457,2207.5,1090.8457" style="stroke:#181818;stroke-width:1.0;"/><line style="stroke:#181818;stroke-width:1.0;" x1="2201.5" x2="4454" y1="1086.8457" y2="1086.8457"/><text fill="#000000" font-family="sans-serif" font-size="13" lengthAdjust="spacing" textLength="127" x="3262.25" y="1082.1035">valid details entered</text><polygon fill="#181818" points="2672,1112.1563,2682,1116.1563,2672,1120.1563" style="stroke:#181818;stroke-width:1.0;"/><line style="stroke:#181818;stroke-width:1.0;" x1="2196.5" x2="2678" y1="1116.1563" y2="1116.1563"/><text fill="#000000" font-family="sans-serif" font-size="13" lengthAdjust="spacing" textLength="126" x="2377.25" y="1111.4141">build request object</text><polygon fill="#181818" points="4632.5,1141.4668,4642.5,1145.4668,4632.5,1149.4668" style="stroke:#181818;stroke-width:1.0;"/><line style="stroke:#181818;stroke-width:1.0;" x1="2684" x2="4638.5" y1="1145.4668" y2="1145.4668"/><text fill="#000000" font-family="sans-serif" font-size="13" lengthAdjust="spacing" textLength="138" x="3595.25" y="1140.7246">send backend request</text><path d="M10,1160.4668 L72,1160.4668 L72,1167.7773 L62,1177.7773 L10,1177.7773 L10,1160.4668 " fill="#EEEEEE" style="stroke:#000000;stroke-width:1.5;"/><rect fill="none" height="193.1738" style="stroke:#000000;stroke-width:1.5;" width="4715" x="10" y="1160.4668"/><text fill="#000000" font-family="sans-serif" font-size="13" font-weight="bold" lengthAdjust="spacing" textLength="17" x="25" y="1174.0352">alt</text><text fill="#000000" font-family="sans-serif" font-size="11" font-weight="bold" lengthAdjust="spacing" textLength="177" x="87" y="1173.1016">[Failed to fetch available pools]</text><polygon fill="#181818" points="2695,1195.0879,2685,1199.0879,2695,1203.0879" style="stroke:#181818;stroke-width:1.0;"/><line style="stroke:#181818;stroke-width:1.0;stroke-dasharray:2.0,2.0;" x1="2689" x2="4643.5" y1="1199.0879" y2="1199.0879"/><text fill="#000000" font-family="sans-serif" font-size="13" lengthAdjust="spacing" textLength="91" x="3618.75" y="1194.3457">Error response</text><polygon fill="#181818" points="2207.5,1224.3984,2197.5,1228.3984,2207.5,1232.3984" style="stroke:#181818;stroke-width:1.0;"/><line style="stroke:#181818;stroke-width:1.0;stroke-dasharray:2.0,2.0;" x1="2201.5" x2="2683" y1="1228.3984" y2="1228.3984"/><text fill="#000000" font-family="sans-serif" font-size="13" lengthAdjust="spacing" textLength="127" x="2376.75" y="1223.6563">reject requestObject</text><polygon fill="#181818" points="4241.5,1253.709,4251.5,1257.709,4241.5,1261.709" style="stroke:#181818;stroke-width:1.0;"/><line style="stroke:#181818;stroke-width:1.0;" x1="2196.5" x2="4247.5" y1="1257.709" y2="1257.709"/><text fill="#000000" font-family="sans-serif" font-size="13" lengthAdjust="spacing" textLength="169" x="3140.5" y="1252.9668">request and build template</text><polygon fill="#181818" points="2207.5,1283.0195,2197.5,1287.0195,2207.5,1291.0195" style="stroke:#181818;stroke-width:1.0;"/><line style="stroke:#181818;stroke-width:1.0;" x1="2201.5" x2="4252.5" y1="1287.0195" y2="1287.0195"/><text fill="#000000" font-family="sans-serif" font-size="13" lengthAdjust="spacing" textLength="78" x="3186" y="1282.2773">return HTML</text><polygon fill="#181818" points="1991,1312.3301,1981,1316.3301,1991,1320.3301" style="stroke:#181818;stroke-width:1.0;"/><line style="stroke:#181818;stroke-width:1.0;" x1="1985" x2="2195.5" y1="1316.3301" y2="1316.3301"/><text fill="#000000" font-family="sans-serif" font-size="13" lengthAdjust="spacing" textLength="78" x="2049.25" y="1311.5879">return HTML</text><polygon fill="#181818" points="56.5,1341.6406,46.5,1345.6406,56.5,1349.6406" style="stroke:#181818;stroke-width:1.0;"/><line style="stroke:#181818;stroke-width:1.0;" x1="50.5" x2="1979" y1="1345.6406" y2="1345.6406"/><text fill="#000000" font-family="sans-serif" font-size="13" lengthAdjust="spacing" textLength="108" x="958.75" y="1340.8984">render error page</text><polygon fill="#181818" points="2695,1377.9512,2685,1381.9512,2695,1385.9512" style="stroke:#181818;stroke-width:1.0;"/><line style="stroke:#181818;stroke-width:1.0;" x1="2689" x2="4643.5" y1="1381.9512" y2="1381.9512"/><text fill="#000000" font-family="sans-serif" font-size="13" lengthAdjust="spacing" textLength="77" x="3625.75" y="1377.209">ok response</text><polygon fill="#181818" points="2207.5,1407.2617,2197.5,1411.2617,2207.5,1415.2617" style="stroke:#181818;stroke-width:1.0;"/><line style="stroke:#181818;stroke-width:1.0;" x1="2201.5" x2="2683" y1="1411.2617" y2="1411.2617"/><text fill="#000000" font-family="sans-serif" font-size="13" lengthAdjust="spacing" textLength="96" x="2392.25" y="1406.5195">resolve request</text><polygon fill="#181818" points="3953.5,1436.5723,3963.5,1440.5723,3953.5,1444.5723" style="stroke:#181818;stroke-width:1.0;"/><line style="stroke:#181818;stroke-width:1.0;" x1="2196.5" x2="3959.5" y1="1440.5723" y2="1440.5723"/><text fill="#000000" font-family="sans-serif" font-size="13" lengthAdjust="spacing" textLength="169" x="2996.5" y="1435.8301">request and build template</text><polygon fill="#181818" points="2207.5,1465.8828,2197.5,1469.8828,2207.5,1473.8828" style="stroke:#181818;stroke-width:1.0;"/><line style="stroke:#181818;stroke-width:1.0;" x1="2201.5" x2="3964.5" y1="1469.8828" y2="1469.8828"/><text fill="#000000" font-family="sans-serif" font-size="13" lengthAdjust="spacing" textLength="78" x="3042" y="1465.1406">return HTML</text><polygon fill="#181818" points="1518.5,1495.1934,1508.5,1499.1934,1518.5,1503.1934" style="stroke:#181818;stroke-width:1.0;"/><line style="stroke:#181818;stroke-width:1.0;" x1="1512.5" x2="2195.5" y1="1499.1934" y2="1499.1934"/><text fill="#000000" font-family="sans-serif" font-size="13" lengthAdjust="spacing" textLength="78" x="1813" y="1494.4512">return HTML</text><polygon fill="#181818" points="56.5,1524.5039,46.5,1528.5039,56.5,1532.5039" style="stroke:#181818;stroke-width:1.0;"/><line style="stroke:#181818;stroke-width:1.0;" x1="50.5" x2="1506.5" y1="1528.5039" y2="1528.5039"/><text fill="#000000" font-family="sans-serif" font-size="13" lengthAdjust="spacing" textLength="80" x="736.5" y="1523.7617">render HTML</text><polygon fill="#181818" points="1495.5,1553.8145,1505.5,1557.8145,1495.5,1561.8145" style="stroke:#181818;stroke-width:1.0;"/><line style="stroke:#181818;stroke-width:1.0;" x1="45.5" x2="1501.5" y1="1557.8145" y2="1557.8145"/><text fill="#000000" font-family="sans-serif" font-size="13" lengthAdjust="spacing" textLength="189" x="682" y="1553.0723">select pool and click 'confirm'</text><polygon fill="#181818" points="2184.5,1583.125,2194.5,1587.125,2184.5,1591.125" style="stroke:#181818;stroke-width:1.0;"/><line style="stroke:#181818;stroke-width:1.0;" x1="1507.5" x2="2190.5" y1="1587.125" y2="1587.125"/><text fill="#000000" font-family="sans-serif" font-size="13" lengthAdjust="spacing" textLength="206" x="1749" y="1582.3828">call controller with selected pool</text><polygon fill="#181818" points="4443,1612.4355,4453,1616.4355,4443,1620.4355" style="stroke:#181818;stroke-width:1.0;"/><line style="stroke:#181818;stroke-width:1.0;" x1="2196.5" x2="4449" y1="1616.4355" y2="1616.4355"/><text fill="#000000" font-family="sans-serif" font-size="13" lengthAdjust="spacing" textLength="95" x="3278.25" y="1611.6934">validate details</text><path d="M10,1631.4355 L72,1631.4355 L72,1638.7461 L62,1648.7461 L10,1648.7461 L10,1631.4355 " fill="#EEEEEE" style="stroke:#000000;stroke-width:1.5;"/><rect fill="none" height="163.8633" style="stroke:#000000;stroke-width:1.5;" width="4564" x="10" y="1631.4355"/><text fill="#000000" font-family="sans-serif" font-size="13" font-weight="bold" lengthAdjust="spacing" textLength="17" x="25" y="1645.0039">alt</text><text fill="#000000" font-family="sans-serif" font-size="11" font-weight="bold" lengthAdjust="spacing" textLength="101" x="87" y="1644.0703">[No pool selected]</text><polygon fill="#181818" points="2207.5,1666.0566,2197.5,1670.0566,2207.5,1674.0566" style="stroke:#181818;stroke-width:1.0;"/><line style="stroke:#181818;stroke-width:1.0;" x1="2201.5" x2="4454" y1="1670.0566" y2="1670.0566"/><text fill="#000000" font-family="sans-serif" font-size="13" lengthAdjust="spacing" textLength="106" x="3272.75" y="1665.3145">No pool selected</text><polygon fill="#181818" points="3953.5,1695.3672,3963.5,1699.3672,3953.5,1703.3672" style="stroke:#181818;stroke-width:1.0;"/><line style="stroke:#181818;stroke-width:1.0;" x1="2196.5" x2="3959.5" y1="1699.3672" y2="1699.3672"/><text fill="#000000" font-family="sans-serif" font-size="13" lengthAdjust="spacing" textLength="169" x="2996.5" y="1694.625">request and build template</text><polygon fill="#181818" points="2207.5,1724.6777,2197.5,1728.6777,2207.5,1732.6777" style="stroke:#181818;stroke-width:1.0;"/><line style="stroke:#181818;stroke-width:1.0;" x1="2201.5" x2="3964.5" y1="1728.6777" y2="1728.6777"/><text fill="#000000" font-family="sans-serif" font-size="13" lengthAdjust="spacing" textLength="78" x="3042" y="1723.9355">return HTML</text><polygon fill="#181818" points="1518.5,1753.9883,1508.5,1757.9883,1518.5,1761.9883" style="stroke:#181818;stroke-width:1.0;"/><line style="stroke:#181818;stroke-width:1.0;" x1="1512.5" x2="2195.5" y1="1757.9883" y2="1757.9883"/><text fill="#000000" font-family="sans-serif" font-size="13" lengthAdjust="spacing" textLength="112" x="1796" y="1753.2461">return error HTML</text><polygon fill="#181818" points="56.5,1783.2988,46.5,1787.2988,56.5,1791.2988" style="stroke:#181818;stroke-width:1.0;"/><line style="stroke:#181818;stroke-width:1.0;" x1="50.5" x2="1506.5" y1="1787.2988" y2="1787.2988"/><text fill="#000000" font-family="sans-serif" font-size="13" lengthAdjust="spacing" textLength="133" x="710" y="1782.5566">render error message</text><polygon fill="#181818" points="2207.5,1819.6094,2197.5,1823.6094,2207.5,1827.6094" style="stroke:#181818;stroke-width:1.0;"/><line style="stroke:#181818;stroke-width:1.0;" x1="2201.5" x2="4454" y1="1823.6094" y2="1823.6094"/><text fill="#000000" font-family="sans-serif" font-size="13" lengthAdjust="spacing" textLength="127" x="3262.25" y="1818.8672">valid details entered</text><polygon fill="#181818" points="2909,1848.9199,2919,1852.9199,2909,1856.9199" style="stroke:#181818;stroke-width:1.0;"/><line style="stroke:#181818;stroke-width:1.0;" x1="2196.5" x2="2915" y1="1852.9199" y2="1852.9199"/><text fill="#000000" font-family="sans-serif" font-size="13" lengthAdjust="spacing" textLength="126" x="2495.75" y="1848.1777">build request object</text><polygon fill="#181818" points="4632.5,1878.2305,4642.5,1882.2305,4632.5,1886.2305" style="stroke:#181818;stroke-width:1.0;"/><line style="stroke:#181818;stroke-width:1.0;" x1="2921" x2="4638.5" y1="1882.2305" y2="1882.2305"/><text fill="#000000" font-family="sans-serif" font-size="13" lengthAdjust="spacing" textLength="138" x="3713.75" y="1877.4883">send backend request</text><path d="M10,1897.2305 L72,1897.2305 L72,1904.541 L62,1914.541 L10,1914.541 L10,1897.2305 " fill="#EEEEEE" style="stroke:#000000;stroke-width:1.5;"/><rect fill="none" height="193.1738" style="stroke:#000000;stroke-width:1.5;" width="4715" x="10" y="1897.2305"/><text fill="#000000" font-family="sans-serif" font-size="13" font-weight="bold" lengthAdjust="spacing" textLength="17" x="25" y="1910.7988">alt</text><text fill="#000000" font-family="sans-serif" font-size="11" font-weight="bold" lengthAdjust="spacing" textLength="309" x="87" y="1909.8652">[Failed to move the selected deferrals to another court]</text><polygon fill="#181818" points="2932,1931.8516,2922,1935.8516,2932,1939.8516" style="stroke:#181818;stroke-width:1.0;"/><line style="stroke:#181818;stroke-width:1.0;stroke-dasharray:2.0,2.0;" x1="2926" x2="4643.5" y1="1935.8516" y2="1935.8516"/><text fill="#000000" font-family="sans-serif" font-size="13" lengthAdjust="spacing" textLength="91" x="3737.25" y="1931.1094">Error response</text><polygon fill="#181818" points="2207.5,1961.1621,2197.5,1965.1621,2207.5,1969.1621" style="stroke:#181818;stroke-width:1.0;"/><line style="stroke:#181818;stroke-width:1.0;stroke-dasharray:2.0,2.0;" x1="2201.5" x2="2920" y1="1965.1621" y2="1965.1621"/><text fill="#000000" font-family="sans-serif" font-size="13" lengthAdjust="spacing" textLength="127" x="2495.25" y="1960.4199">reject requestObject</text><polygon fill="#181818" points="4241.5,1990.4727,4251.5,1994.4727,4241.5,1998.4727" style="stroke:#181818;stroke-width:1.0;"/><line style="stroke:#181818;stroke-width:1.0;" x1="2196.5" x2="4247.5" y1="1994.4727" y2="1994.4727"/><text fill="#000000" font-family="sans-serif" font-size="13" lengthAdjust="spacing" textLength="169" x="3140.5" y="1989.7305">request and build template</text><polygon fill="#181818" points="2207.5,2019.7832,2197.5,2023.7832,2207.5,2027.7832" style="stroke:#181818;stroke-width:1.0;"/><line style="stroke:#181818;stroke-width:1.0;" x1="2201.5" x2="4252.5" y1="2023.7832" y2="2023.7832"/><text fill="#000000" font-family="sans-serif" font-size="13" lengthAdjust="spacing" textLength="78" x="3186" y="2019.041">return HTML</text><polygon fill="#181818" points="1991,2049.0938,1981,2053.0938,1991,2057.0938" style="stroke:#181818;stroke-width:1.0;"/><line style="stroke:#181818;stroke-width:1.0;" x1="1985" x2="2195.5" y1="2053.0938" y2="2053.0938"/><text fill="#000000" font-family="sans-serif" font-size="13" lengthAdjust="spacing" textLength="78" x="2049.25" y="2048.3516">return HTML</text><polygon fill="#181818" points="56.5,2078.4043,46.5,2082.4043,56.5,2086.4043" style="stroke:#181818;stroke-width:1.0;"/><line style="stroke:#181818;stroke-width:1.0;" x1="50.5" x2="1979" y1="2082.4043" y2="2082.4043"/><text fill="#000000" font-family="sans-serif" font-size="13" lengthAdjust="spacing" textLength="108" x="958.75" y="2077.6621">render error page</text><polygon fill="#181818" points="2932,2114.7148,2922,2118.7148,2932,2122.7148" style="stroke:#181818;stroke-width:1.0;"/><line style="stroke:#181818;stroke-width:1.0;" x1="2926" x2="4643.5" y1="2118.7148" y2="2118.7148"/><text fill="#000000" font-family="sans-serif" font-size="13" lengthAdjust="spacing" textLength="77" x="3744.25" y="2113.9727">ok response</text><polygon fill="#181818" points="2207.5,2144.0254,2197.5,2148.0254,2207.5,2152.0254" style="stroke:#181818;stroke-width:1.0;"/><line style="stroke:#181818;stroke-width:1.0;" x1="2201.5" x2="2920" y1="2148.0254" y2="2148.0254"/><text fill="#000000" font-family="sans-serif" font-size="13" lengthAdjust="spacing" textLength="96" x="2510.75" y="2143.2832">resolve request</text><polygon fill="#181818" points="318.5,2173.3359,308.5,2177.3359,318.5,2181.3359" style="stroke:#181818;stroke-width:1.0;"/><line style="stroke:#181818;stroke-width:1.0;" x1="312.5" x2="2195.5" y1="2177.3359" y2="2177.3359"/><text fill="#000000" font-family="sans-serif" font-size="13" lengthAdjust="spacing" textLength="235" x="1134.5" y="2172.5938">redirect to deferral maintenance page</text><polygon fill="#181818" points="56.5,2202.6465,46.5,2206.6465,56.5,2210.6465" style="stroke:#181818;stroke-width:1.0;"/><line style="stroke:#181818;stroke-width:1.0;" x1="50.5" x2="306.5" y1="2206.6465" y2="2206.6465"/><text fill="#000000" font-family="sans-serif" font-size="13" lengthAdjust="spacing" textLength="74" x="139.5" y="2201.9043">render page</text><!--SRC=[hLLTRzem57tFh_2wIhGI7- -egfI6KD45qa7QQK-Lwzo2mR4pss7Rlv_ZG0WqV7Jq9LBiwtFlFUVuUaPZG1bdb2yWThvGJbXcLgR0GLBIUcM2B5GxPPZhB66EenQKfrZY14tqNmP8QHEMRw7g5lpAW1COWb9u2YwZKvu0ruYO3qZ7CM6Q4feQLEGIBSnIez50GUYv0Hg7Jz5WTByLr8Cta1Ap8QO6WMC3_cYGqSrD9nM2jHBCpM-UenElGirQ6TlfcZwmfe9x8eRRsoti2J0WsXEPr1_2N4DkWtSIiOGMoT5syhXBJ1b-PV1eqDNdfkfqEVmEgdlATjNAuNVgk2-qzQKKSbq5v3ycpihWXQDe70Q1FqRkg8V6_lSdVnAXyEx1zwB9CLqymRKKZ84qm2fB4i5LfS4sAVVRSxLJMXyqcLabLFWwD-VVDWizDsnFGLzT7wIrE1Q_BwkDj-9geOQ6JvkiG4dMl-rKg2BQyXFvmyV0ZVoZL4IGc9kZJzUPyXZ-jFbyiT-YXp1VYCZfNcjldL63jitOXujCBN_lOQk-ge2-M6-fpcga50VHLuQNOBfTtVp-88ZyySJwxTaD1Zqt2iT7-Nt6ZCQu71zthlVDDm0R_su1t66oC2at_YnEFOHFuv7_4_M3y8TZXn5gtUuTE5rKa8lMr2Y4UOm8esI16hbZaAMzuUn3g0Ult9ek8fWnjBadw3VLirLUY3UPdSjbGG0CU9hfguEmpOC4DW_PjxcFZIQw60aqpt9zo_ekhXtdSYMs-pZmJ2_7Ajk-zirQ9vbSVMDRqxyMo8w5WcY565NQ9fNMKEi3aSXBF9QwvcOrTry4WrtwOlUnAFrWYwbw8TUFyWmQpkwPinrWStsg-gVGKAXTz7c6sE_czSbwbnCSsH5aSl-NvFNZhrdpFbzlTAzvl4lfysfsb7-ZCcauDOVErZvFzgdIdqv7OG3RxHdwLn_P4wIt8rNFe6R-vTkO2xCf2rlcrHncz-1abn1JcGjgSDT9KENbGwc9MrdYfdKGA7Tb4VuF]--></g></svg>