<?xml version="1.0" encoding="us-ascii" standalone="no"?><svg xmlns="http://www.w3.org/2000/svg" xmlns:xlink="http://www.w3.org/1999/xlink" contentStyleType="text/css" height="1319px" preserveAspectRatio="none" style="width:2199px;height:1319px;background:#FFFFFF;" version="1.1" viewBox="0 0 2199 1319" width="2199px" zoomAndPan="magnify"><defs/><g><rect fill="none" height="193.1738" style="stroke:#000000;stroke-width:1.5;" width="2173" x="20" y="187.2188"/><rect fill="none" height="134.5527" style="stroke:#000000;stroke-width:1.5;" width="1656" x="20" y="570.2559"/><rect fill="none" height="341.7266" style="stroke:#000000;stroke-width:1.5;" width="2183" x="10" y="836.0508"/><rect fill="none" height="134.5527" style="stroke:#000000;stroke-width:1.5;" width="1852" x="20" y="918.9824"/><line style="stroke:#181818;stroke-width:0.5;stroke-dasharray:5.0,5.0;" x1="55" x2="55" y1="52.9766" y2="1312.0195"/><line style="stroke:#181818;stroke-width:0.5;stroke-dasharray:5.0,5.0;" x1="235" x2="235" y1="52.9766" y2="1312.0195"/><line style="stroke:#181818;stroke-width:0.5;stroke-dasharray:5.0,5.0;" x1="375" x2="375" y1="52.9766" y2="1312.0195"/><line style="stroke:#181818;stroke-width:0.5;stroke-dasharray:5.0,5.0;" x1="516" x2="516" y1="52.9766" y2="1312.0195"/><line style="stroke:#181818;stroke-width:0.5;stroke-dasharray:5.0,5.0;" x1="694" x2="694" y1="52.9766" y2="1312.0195"/><line style="stroke:#181818;stroke-width:0.5;stroke-dasharray:5.0,5.0;" x1="903" x2="903" y1="52.9766" y2="1312.0195"/><line style="stroke:#181818;stroke-width:0.5;stroke-dasharray:5.0,5.0;" x1="1115" x2="1115" y1="52.9766" y2="1312.0195"/><line style="stroke:#181818;stroke-width:0.5;stroke-dasharray:5.0,5.0;" x1="1322" x2="1322" y1="52.9766" y2="1312.0195"/><line style="stroke:#181818;stroke-width:0.5;stroke-dasharray:5.0,5.0;" x1="1547" x2="1547" y1="52.9766" y2="1312.0195"/><line style="stroke:#181818;stroke-width:0.5;stroke-dasharray:5.0,5.0;" x1="1769" x2="1769" y1="52.9766" y2="1312.0195"/><line style="stroke:#181818;stroke-width:0.5;stroke-dasharray:5.0,5.0;" x1="1952" x2="1952" y1="52.9766" y2="1312.0195"/><line style="stroke:#181818;stroke-width:0.5;stroke-dasharray:5.0,5.0;" x1="2112" x2="2112" y1="52.9766" y2="1312.0195"/><rect fill="#E2E2F0" height="30.4883" rx="2.5" ry="2.5" style="stroke:#181818;stroke-width:0.5;" width="51" x="30" y="21.4883"/><text fill="#000000" font-family="sans-serif" font-size="14" lengthAdjust="spacing" textLength="37" x="37" y="42.0234">Actor</text><rect fill="#E2E2F0" height="46.9766" rx="2.5" ry="2.5" style="stroke:#181818;stroke-width:0.5;" width="139" x="166" y="5"/><text fill="#000000" font-family="sans-serif" font-size="14" font-style="italic" lengthAdjust="spacing" textLength="120" x="175.5" y="25.5352">&#171;/pool-overview&#187;</text><text fill="#000000" font-family="sans-serif" font-size="14" lengthAdjust="spacing" textLength="125" x="173" y="42.0234">PoolOverviewPage</text><rect fill="#E2E2F0" height="46.9766" rx="2.5" ry="2.5" style="stroke:#181818;stroke-width:0.5;" width="120" x="315" y="5"/><text fill="#000000" font-family="sans-serif" font-size="14" font-style="italic" lengthAdjust="spacing" textLength="102" x="324" y="25.5352">&#171;/delete-pool&#187;</text><text fill="#000000" font-family="sans-serif" font-size="14" lengthAdjust="spacing" textLength="106" x="322" y="42.0234">DeletePoolPage</text><rect fill="#E2E2F0" height="46.9766" rx="2.5" ry="2.5" style="stroke:#181818;stroke-width:0.5;" width="142" x="445" y="5"/><text fill="#000000" font-family="sans-serif" font-size="14" font-style="italic" lengthAdjust="spacing" textLength="128" x="452" y="25.5352">&#171;/_errors/generic&#187;</text><text fill="#000000" font-family="sans-serif" font-size="14" lengthAdjust="spacing" textLength="120" x="456" y="42.0234">GenericErrorPage</text><rect fill="#E2E2F0" height="46.9766" rx="2.5" ry="2.5" style="stroke:#181818;stroke-width:0.5;" width="195" x="597" y="5"/><text fill="#000000" font-family="sans-serif" font-size="14" font-style="italic" lengthAdjust="spacing" textLength="181" x="604" y="25.5352">&#171;delete-pool.controller.js&#187;</text><text fill="#000000" font-family="sans-serif" font-size="14" lengthAdjust="spacing" textLength="143" x="623" y="42.0234">DeletePoolController</text><rect fill="#E2E2F0" height="46.9766" rx="2.5" ry="2.5" style="stroke:#181818;stroke-width:0.5;" width="203" x="802" y="5"/><text fill="#000000" font-family="sans-serif" font-size="14" font-style="italic" lengthAdjust="spacing" textLength="189" x="809" y="25.5352">&#171;poolSummaryObject.get()&#187;</text><text fill="#000000" font-family="sans-serif" font-size="14" lengthAdjust="spacing" textLength="138" x="834.5" y="42.0234">PoolSummaryObject</text><rect fill="#E2E2F0" height="46.9766" rx="2.5" ry="2.5" style="stroke:#181818;stroke-width:0.5;" width="200" x="1015" y="5"/><text fill="#000000" font-family="sans-serif" font-size="14" font-style="italic" lengthAdjust="spacing" textLength="186" x="1022" y="25.5352">&#171;deletePoolObject.delete()&#187;</text><text fill="#000000" font-family="sans-serif" font-size="14" lengthAdjust="spacing" textLength="117" x="1056.5" y="42.0234">DeletePoolObject</text><rect fill="#E2E2F0" height="46.9766" rx="2.5" ry="2.5" style="stroke:#181818;stroke-width:0.5;" width="194" x="1225" y="5"/><text fill="#000000" font-family="sans-serif" font-size="14" font-style="italic" lengthAdjust="spacing" textLength="180" x="1232" y="25.5352">&#171;delete-pool/confirm.njk&#187;</text><text fill="#000000" font-family="sans-serif" font-size="14" lengthAdjust="spacing" textLength="120" x="1262" y="42.0234">ConfirmTemplate</text><rect fill="#E2E2F0" height="46.9766" rx="2.5" ry="2.5" style="stroke:#181818;stroke-width:0.5;" width="237" x="1429" y="5"/><text fill="#000000" font-family="sans-serif" font-size="14" font-style="italic" lengthAdjust="spacing" textLength="223" x="1436" y="25.5352">&#171;delete-pool/has-members.njk&#187;</text><text fill="#000000" font-family="sans-serif" font-size="14" lengthAdjust="spacing" textLength="152" x="1471.5" y="42.0234">HasMembersTemplate</text><rect fill="#E2E2F0" height="46.9766" rx="2.5" ry="2.5" style="stroke:#181818;stroke-width:0.5;" width="186" x="1676" y="5"/><text fill="#000000" font-family="sans-serif" font-size="14" font-style="italic" lengthAdjust="spacing" textLength="172" x="1683" y="25.5352">&#171;delete-pool/locked.njk&#187;</text><text fill="#000000" font-family="sans-serif" font-size="14" lengthAdjust="spacing" textLength="112" x="1713" y="42.0234">LockedTemplate</text><rect fill="#E2E2F0" height="46.9766" rx="2.5" ry="2.5" style="stroke:#181818;stroke-width:0.5;" width="160" x="1872" y="5"/><text fill="#000000" font-family="sans-serif" font-size="14" font-style="italic" lengthAdjust="spacing" textLength="146" x="1879" y="25.5352">&#171;_errors/generic.njk&#187;</text><text fill="#000000" font-family="sans-serif" font-size="14" lengthAdjust="spacing" textLength="99" x="1902.5" y="42.0234">ErrorTemplate</text><rect fill="#E2E2F0" height="30.4883" rx="2.5" ry="2.5" style="stroke:#181818;stroke-width:0.5;" width="141" x="2042" y="21.4883"/><text fill="#000000" font-family="sans-serif" font-size="14" lengthAdjust="spacing" textLength="127" x="2049" y="42.0234">BackendController</text><polygon fill="#181818" points="223.5,80.2871,233.5,84.2871,223.5,88.2871" style="stroke:#181818;stroke-width:1.0;"/><line style="stroke:#181818;stroke-width:1.0;" x1="55.5" x2="229.5" y1="84.2871" y2="84.2871"/><text fill="#000000" font-family="sans-serif" font-size="13" lengthAdjust="spacing" textLength="156" x="67.5" y="79.5449">click 'delete pool' button</text><polygon fill="#181818" points="682.5,109.5977,692.5,113.5977,682.5,117.5977" style="stroke:#181818;stroke-width:1.0;"/><line style="stroke:#181818;stroke-width:1.0;" x1="235.5" x2="688.5" y1="113.5977" y2="113.5977"/><text fill="#000000" font-family="sans-serif" font-size="13" lengthAdjust="spacing" textLength="123" x="403.5" y="108.8555">Call page controller</text><polygon fill="#181818" points="891.5,138.9082,901.5,142.9082,891.5,146.9082" style="stroke:#181818;stroke-width:1.0;"/><line style="stroke:#181818;stroke-width:1.0;" x1="694.5" x2="897.5" y1="142.9082" y2="142.9082"/><text fill="#000000" font-family="sans-serif" font-size="13" lengthAdjust="spacing" textLength="126" x="736" y="138.166">build request object</text><polygon fill="#181818" points="2100.5,168.2188,2110.5,172.2188,2100.5,176.2188" style="stroke:#181818;stroke-width:1.0;"/><line style="stroke:#181818;stroke-width:1.0;" x1="903.5" x2="2106.5" y1="172.2188" y2="172.2188"/><text fill="#000000" font-family="sans-serif" font-size="13" lengthAdjust="spacing" textLength="138" x="1439" y="167.4766">send backend request</text><path d="M20,187.2188 L82,187.2188 L82,194.5293 L72,204.5293 L20,204.5293 L20,187.2188 " fill="#EEEEEE" style="stroke:#000000;stroke-width:1.5;"/><rect fill="none" height="193.1738" style="stroke:#000000;stroke-width:1.5;" width="2173" x="20" y="187.2188"/><text fill="#000000" font-family="sans-serif" font-size="13" font-weight="bold" lengthAdjust="spacing" textLength="17" x="35" y="200.7871">alt</text><text fill="#000000" font-family="sans-serif" font-size="11" font-weight="bold" lengthAdjust="spacing" textLength="293" x="97" y="199.8535">[Failed to fetch pool summary (delete pool journey)]</text><polygon fill="#181818" points="914.5,221.8398,904.5,225.8398,914.5,229.8398" style="stroke:#181818;stroke-width:1.0;"/><line style="stroke:#181818;stroke-width:1.0;stroke-dasharray:2.0,2.0;" x1="908.5" x2="2111.5" y1="225.8398" y2="225.8398"/><text fill="#000000" font-family="sans-serif" font-size="13" lengthAdjust="spacing" textLength="91" x="1462.5" y="221.0977">Error response</text><polygon fill="#181818" points="705.5,251.1504,695.5,255.1504,705.5,259.1504" style="stroke:#181818;stroke-width:1.0;"/><line style="stroke:#181818;stroke-width:1.0;stroke-dasharray:2.0,2.0;" x1="699.5" x2="902.5" y1="255.1504" y2="255.1504"/><text fill="#000000" font-family="sans-serif" font-size="13" lengthAdjust="spacing" textLength="127" x="735.5" y="250.4082">reject requestObject</text><polygon fill="#181818" points="1940,280.4609,1950,284.4609,1940,288.4609" style="stroke:#181818;stroke-width:1.0;"/><line style="stroke:#181818;stroke-width:1.0;" x1="694.5" x2="1946" y1="284.4609" y2="284.4609"/><text fill="#000000" font-family="sans-serif" font-size="13" lengthAdjust="spacing" textLength="169" x="1238.75" y="279.7188">request and build template</text><polygon fill="#181818" points="705.5,309.7715,695.5,313.7715,705.5,317.7715" style="stroke:#181818;stroke-width:1.0;"/><line style="stroke:#181818;stroke-width:1.0;" x1="699.5" x2="1951" y1="313.7715" y2="313.7715"/><text fill="#000000" font-family="sans-serif" font-size="13" lengthAdjust="spacing" textLength="78" x="1284.25" y="309.0293">return HTML</text><polygon fill="#181818" points="527,339.082,517,343.082,527,347.082" style="stroke:#181818;stroke-width:1.0;"/><line style="stroke:#181818;stroke-width:1.0;" x1="521" x2="693.5" y1="343.082" y2="343.082"/><text fill="#000000" font-family="sans-serif" font-size="13" lengthAdjust="spacing" textLength="78" x="566.25" y="338.3398">return HTML</text><polygon fill="#181818" points="66.5,368.3926,56.5,372.3926,66.5,376.3926" style="stroke:#181818;stroke-width:1.0;"/><line style="stroke:#181818;stroke-width:1.0;" x1="60.5" x2="515" y1="372.3926" y2="372.3926"/><text fill="#000000" font-family="sans-serif" font-size="13" lengthAdjust="spacing" textLength="108" x="231.75" y="367.6504">render error page</text><polygon fill="#181818" points="914.5,404.7031,904.5,408.7031,914.5,412.7031" style="stroke:#181818;stroke-width:1.0;"/><line style="stroke:#181818;stroke-width:1.0;" x1="908.5" x2="2111.5" y1="408.7031" y2="408.7031"/><text fill="#000000" font-family="sans-serif" font-size="13" lengthAdjust="spacing" textLength="77" x="1469.5" y="403.9609">ok response</text><polygon fill="#181818" points="705.5,434.0137,695.5,438.0137,705.5,442.0137" style="stroke:#181818;stroke-width:1.0;"/><line style="stroke:#181818;stroke-width:1.0;" x1="699.5" x2="902.5" y1="438.0137" y2="438.0137"/><text fill="#000000" font-family="sans-serif" font-size="13" lengthAdjust="spacing" textLength="96" x="751" y="433.2715">resolve request</text><polygon fill="#181818" points="1310,463.3242,1320,467.3242,1310,471.3242" style="stroke:#181818;stroke-width:1.0;"/><line style="stroke:#181818;stroke-width:1.0;" x1="694.5" x2="1316" y1="467.3242" y2="467.3242"/><text fill="#000000" font-family="sans-serif" font-size="13" lengthAdjust="spacing" textLength="169" x="923.75" y="462.582">request and build template</text><polygon fill="#181818" points="705.5,492.6348,695.5,496.6348,705.5,500.6348" style="stroke:#181818;stroke-width:1.0;"/><line style="stroke:#181818;stroke-width:1.0;" x1="699.5" x2="1321" y1="496.6348" y2="496.6348"/><text fill="#000000" font-family="sans-serif" font-size="13" lengthAdjust="spacing" textLength="78" x="969.25" y="491.8926">return HTML</text><polygon fill="#181818" points="386,521.9453,376,525.9453,386,529.9453" style="stroke:#181818;stroke-width:1.0;"/><line style="stroke:#181818;stroke-width:1.0;" x1="380" x2="693.5" y1="525.9453" y2="525.9453"/><text fill="#000000" font-family="sans-serif" font-size="13" lengthAdjust="spacing" textLength="78" x="495.75" y="521.2031">return HTML</text><polygon fill="#181818" points="66.5,551.2559,56.5,555.2559,66.5,559.2559" style="stroke:#181818;stroke-width:1.0;"/><line style="stroke:#181818;stroke-width:1.0;" x1="60.5" x2="374" y1="555.2559" y2="555.2559"/><text fill="#000000" font-family="sans-serif" font-size="13" lengthAdjust="spacing" textLength="80" x="175.25" y="550.5137">render HTML</text><path d="M20,570.2559 L82,570.2559 L82,577.5664 L72,587.5664 L20,587.5664 L20,570.2559 " fill="#EEEEEE" style="stroke:#000000;stroke-width:1.5;"/><rect fill="none" height="134.5527" style="stroke:#000000;stroke-width:1.5;" width="1656" x="20" y="570.2559"/><text fill="#000000" font-family="sans-serif" font-size="13" font-weight="bold" lengthAdjust="spacing" textLength="17" x="35" y="583.8242">alt</text><text fill="#000000" font-family="sans-serif" font-size="11" font-weight="bold" lengthAdjust="spacing" textLength="112" x="97" y="582.8906">[Pool has members]</text><polygon fill="#181818" points="1535.5,604.877,1545.5,608.877,1535.5,612.877" style="stroke:#181818;stroke-width:1.0;"/><line style="stroke:#181818;stroke-width:1.0;" x1="694.5" x2="1541.5" y1="608.877" y2="608.877"/><text fill="#000000" font-family="sans-serif" font-size="13" lengthAdjust="spacing" textLength="169" x="1036.5" y="604.1348">request and build template</text><polygon fill="#181818" points="705.5,634.1875,695.5,638.1875,705.5,642.1875" style="stroke:#181818;stroke-width:1.0;"/><line style="stroke:#181818;stroke-width:1.0;" x1="699.5" x2="1546.5" y1="638.1875" y2="638.1875"/><text fill="#000000" font-family="sans-serif" font-size="13" lengthAdjust="spacing" textLength="78" x="1082" y="633.4453">return HTML</text><polygon fill="#181818" points="386,663.498,376,667.498,386,671.498" style="stroke:#181818;stroke-width:1.0;"/><line style="stroke:#181818;stroke-width:1.0;" x1="380" x2="693.5" y1="667.498" y2="667.498"/><text fill="#000000" font-family="sans-serif" font-size="13" lengthAdjust="spacing" textLength="78" x="495.75" y="662.7559">return HTML</text><polygon fill="#181818" points="66.5,692.8086,56.5,696.8086,66.5,700.8086" style="stroke:#181818;stroke-width:1.0;"/><line style="stroke:#181818;stroke-width:1.0;" x1="60.5" x2="374" y1="696.8086" y2="696.8086"/><text fill="#000000" font-family="sans-serif" font-size="13" lengthAdjust="spacing" textLength="80" x="175.25" y="692.0664">render HTML</text><polygon fill="#181818" points="363,729.1191,373,733.1191,363,737.1191" style="stroke:#181818;stroke-width:1.0;"/><line style="stroke:#181818;stroke-width:1.0;" x1="55.5" x2="369" y1="733.1191" y2="733.1191"/><text fill="#000000" font-family="sans-serif" font-size="13" lengthAdjust="spacing" textLength="156" x="137.25" y="728.377">click 'delete pool' button</text><polygon fill="#181818" points="682.5,758.4297,692.5,762.4297,682.5,766.4297" style="stroke:#181818;stroke-width:1.0;"/><line style="stroke:#181818;stroke-width:1.0;" x1="375" x2="688.5" y1="762.4297" y2="762.4297"/><text fill="#000000" font-family="sans-serif" font-size="13" lengthAdjust="spacing" textLength="123" x="473.25" y="757.6875">Call page controller</text><polygon fill="#181818" points="1103,787.7402,1113,791.7402,1103,795.7402" style="stroke:#181818;stroke-width:1.0;"/><line style="stroke:#181818;stroke-width:1.0;" x1="694.5" x2="1109" y1="791.7402" y2="791.7402"/><text fill="#000000" font-family="sans-serif" font-size="13" lengthAdjust="spacing" textLength="126" x="841.75" y="786.998">build request object</text><polygon fill="#181818" points="2100.5,817.0508,2110.5,821.0508,2100.5,825.0508" style="stroke:#181818;stroke-width:1.0;"/><line style="stroke:#181818;stroke-width:1.0;" x1="1115" x2="2106.5" y1="821.0508" y2="821.0508"/><text fill="#000000" font-family="sans-serif" font-size="13" lengthAdjust="spacing" textLength="138" x="1544.75" y="816.3086">send backend request</text><path d="M10,836.0508 L72,836.0508 L72,843.3613 L62,853.3613 L10,853.3613 L10,836.0508 " fill="#EEEEEE" style="stroke:#000000;stroke-width:1.5;"/><rect fill="none" height="341.7266" style="stroke:#000000;stroke-width:1.5;" width="2183" x="10" y="836.0508"/><text fill="#000000" font-family="sans-serif" font-size="13" font-weight="bold" lengthAdjust="spacing" textLength="17" x="25" y="849.6191">alt</text><text fill="#000000" font-family="sans-serif" font-size="11" font-weight="bold" lengthAdjust="spacing" textLength="122" x="87" y="848.6855">[Failed to delete pool]</text><polygon fill="#181818" points="1126,870.6719,1116,874.6719,1126,878.6719" style="stroke:#181818;stroke-width:1.0;"/><line style="stroke:#181818;stroke-width:1.0;stroke-dasharray:2.0,2.0;" x1="1120" x2="2111.5" y1="874.6719" y2="874.6719"/><text fill="#000000" font-family="sans-serif" font-size="13" lengthAdjust="spacing" textLength="91" x="1568.25" y="869.9297">Error response</text><polygon fill="#181818" points="705.5,899.9824,695.5,903.9824,705.5,907.9824" style="stroke:#181818;stroke-width:1.0;"/><line style="stroke:#181818;stroke-width:1.0;stroke-dasharray:2.0,2.0;" x1="699.5" x2="1114" y1="903.9824" y2="903.9824"/><text fill="#000000" font-family="sans-serif" font-size="13" lengthAdjust="spacing" textLength="127" x="841.25" y="899.2402">reject requestObject</text><path d="M20,918.9824 L82,918.9824 L82,926.293 L72,936.293 L20,936.293 L20,918.9824 " fill="#EEEEEE" style="stroke:#000000;stroke-width:1.5;"/><rect fill="none" height="134.5527" style="stroke:#000000;stroke-width:1.5;" width="1852" x="20" y="918.9824"/><text fill="#000000" font-family="sans-serif" font-size="13" font-weight="bold" lengthAdjust="spacing" textLength="17" x="35" y="932.5508">alt</text><text fill="#000000" font-family="sans-serif" font-size="11" font-weight="bold" lengthAdjust="spacing" textLength="88" x="97" y="931.6172">[Pool is locked]</text><polygon fill="#181818" points="1757,953.6035,1767,957.6035,1757,961.6035" style="stroke:#181818;stroke-width:1.0;"/><line style="stroke:#181818;stroke-width:1.0;" x1="694.5" x2="1763" y1="957.6035" y2="957.6035"/><text fill="#000000" font-family="sans-serif" font-size="13" lengthAdjust="spacing" textLength="169" x="1147.25" y="952.8613">request and build template</text><polygon fill="#181818" points="705.5,982.9141,695.5,986.9141,705.5,990.9141" style="stroke:#181818;stroke-width:1.0;"/><line style="stroke:#181818;stroke-width:1.0;" x1="699.5" x2="1768" y1="986.9141" y2="986.9141"/><text fill="#000000" font-family="sans-serif" font-size="13" lengthAdjust="spacing" textLength="78" x="1192.75" y="982.1719">return HTML</text><polygon fill="#181818" points="386,1012.2246,376,1016.2246,386,1020.2246" style="stroke:#181818;stroke-width:1.0;"/><line style="stroke:#181818;stroke-width:1.0;" x1="380" x2="693.5" y1="1016.2246" y2="1016.2246"/><text fill="#000000" font-family="sans-serif" font-size="13" lengthAdjust="spacing" textLength="78" x="495.75" y="1011.4824">return HTML</text><polygon fill="#181818" points="66.5,1041.5352,56.5,1045.5352,66.5,1049.5352" style="stroke:#181818;stroke-width:1.0;"/><line style="stroke:#181818;stroke-width:1.0;" x1="60.5" x2="374" y1="1045.5352" y2="1045.5352"/><text fill="#000000" font-family="sans-serif" font-size="13" lengthAdjust="spacing" textLength="80" x="175.25" y="1040.793">render HTML</text><polygon fill="#181818" points="1940,1077.8457,1950,1081.8457,1940,1085.8457" style="stroke:#181818;stroke-width:1.0;"/><line style="stroke:#181818;stroke-width:1.0;" x1="694.5" x2="1946" y1="1081.8457" y2="1081.8457"/><text fill="#000000" font-family="sans-serif" font-size="13" lengthAdjust="spacing" textLength="169" x="1238.75" y="1077.1035">request and build template</text><polygon fill="#181818" points="705.5,1107.1563,695.5,1111.1563,705.5,1115.1563" style="stroke:#181818;stroke-width:1.0;"/><line style="stroke:#181818;stroke-width:1.0;" x1="699.5" x2="1951" y1="1111.1563" y2="1111.1563"/><text fill="#000000" font-family="sans-serif" font-size="13" lengthAdjust="spacing" textLength="78" x="1284.25" y="1106.4141">return HTML</text><polygon fill="#181818" points="527,1136.4668,517,1140.4668,527,1144.4668" style="stroke:#181818;stroke-width:1.0;"/><line style="stroke:#181818;stroke-width:1.0;" x1="521" x2="693.5" y1="1140.4668" y2="1140.4668"/><text fill="#000000" font-family="sans-serif" font-size="13" lengthAdjust="spacing" textLength="78" x="566.25" y="1135.7246">return HTML</text><polygon fill="#181818" points="66.5,1165.7773,56.5,1169.7773,66.5,1173.7773" style="stroke:#181818;stroke-width:1.0;"/><line style="stroke:#181818;stroke-width:1.0;" x1="60.5" x2="515" y1="1169.7773" y2="1169.7773"/><text fill="#000000" font-family="sans-serif" font-size="13" lengthAdjust="spacing" textLength="108" x="231.75" y="1165.0352">render error page</text><polygon fill="#181818" points="1126,1202.0879,1116,1206.0879,1126,1210.0879" style="stroke:#181818;stroke-width:1.0;"/><line style="stroke:#181818;stroke-width:1.0;" x1="1120" x2="2111.5" y1="1206.0879" y2="1206.0879"/><text fill="#000000" font-family="sans-serif" font-size="13" lengthAdjust="spacing" textLength="77" x="1575.25" y="1201.3457">ok response</text><polygon fill="#181818" points="705.5,1231.3984,695.5,1235.3984,705.5,1239.3984" style="stroke:#181818;stroke-width:1.0;"/><line style="stroke:#181818;stroke-width:1.0;" x1="699.5" x2="1114" y1="1235.3984" y2="1235.3984"/><text fill="#000000" font-family="sans-serif" font-size="13" lengthAdjust="spacing" textLength="96" x="856.75" y="1230.6563">resolve request</text><polygon fill="#181818" points="246.5,1260.709,236.5,1264.709,246.5,1268.709" style="stroke:#181818;stroke-width:1.0;"/><line style="stroke:#181818;stroke-width:1.0;" x1="240.5" x2="693.5" y1="1264.709" y2="1264.709"/><text fill="#000000" font-family="sans-serif" font-size="13" lengthAdjust="spacing" textLength="157" x="386.5" y="1259.9668">redirect to Pool Overview</text><polygon fill="#181818" points="66.5,1290.0195,56.5,1294.0195,66.5,1298.0195" style="stroke:#181818;stroke-width:1.0;"/><line style="stroke:#181818;stroke-width:1.0;" x1="60.5" x2="234.5" y1="1294.0195" y2="1294.0195"/><text fill="#000000" font-family="sans-serif" font-size="13" lengthAdjust="spacing" textLength="80" x="105.5" y="1289.2773">render HTML</text><!--SRC=[bLNRRk8m47ttLynMbIWIeUzLLGbeUjj0M4YrsgTLIARKuDYiRRhgt-_42PVSLkeBWl6SuvavnyCxJn7sKd2vnPHzup8HUugiKQBcYRSIAjcQuKx4qkupmPZPShcBTPp1qduA16CfBJ-2yoFyiqUPu1IDYTSu4dmjCvGM4lf0pHYbMPxm7R72AB6AGhrU3u9mCWfW4Rv6pxF7Ij9SAH5-eFxW-7TEb71xUxsZcAVAuDrT9VyU1LhCKOVir4My75JBVInwzRLM-f3z6_DVvhgS0o5SWPDm5Yt28F0NC9hTmyB_yUel8mZ7B_uaMdPKC57IQYK4Qc8-AsEO70-66rChAWSkzraMwyzmjS744dPNZmtNQA_wdQqVWMajD2m23khwYlpfF1X5VhK5AloDwop2ZFItMAt-EYbEXtAphLNm59ifPYlKfWFw7XilAp9Qu05P3jCEg727BIWdtncefc29SDsEHvFlFibtKhF2D8xf2fcUP6C5x2LyNSpyN_0GX3-PSoruTqrdta0YUBA5Nb4sv6NtOBMtLadMo2Q6LgVSm2GM0dPvpiadxB9iPpH_pi-lsh23fda6rV4CuE8XvW9Ji0hUq2Rlhaem1GQkpag7ZTfhYP_zYpwxr3GNFD94Ac-XeuQQUGQr9zbdiIXS3kG6ADt00BvoHzDepMk8ZPtKgks5_sfLo_sYKgsv5OxoUTxGVLoaeFEbQIme5sQDFC8sd4bWGm5O5GS73kQ6UvBuh3kQS7D1U5uhjVCCSPgTaWOhoFETHkYMfZIwBsL5HPWHnr5sRg1up1JyckpL1T6K7C29VYIjB_WEsieJAOtJCglMKQdjQKuTKseVab7Y0u-wDV_cl2xJQKovpbb8NpVF0wuqEo5RLbCn47YAfW7x1m00]--></g></svg>