<?xml version="1.0" encoding="us-ascii" standalone="no"?><svg xmlns="http://www.w3.org/2000/svg" xmlns:xlink="http://www.w3.org/1999/xlink" contentStyleType="text/css" height="950px" preserveAspectRatio="none" style="width:2516px;height:950px;background:#FFFFFF;" version="1.1" viewBox="0 0 2516 950" width="2516px" zoomAndPan="magnify"><defs/><g><rect fill="none" height="681.0977" style="stroke:#000000;stroke-width:1.5;" width="2499.5" x="10" y="128.5977"/><rect fill="none" height="193.1738" style="stroke:#000000;stroke-width:1.5;" width="2479.5" x="20" y="211.5293"/><rect fill="none" height="193.1738" style="stroke:#000000;stroke-width:1.5;" width="2479.5" x="20" y="550.9004"/><line style="stroke:#181818;stroke-width:0.5;stroke-dasharray:5.0,5.0;" x1="55" x2="55" y1="52.9766" y2="943.9375"/><line style="stroke:#181818;stroke-width:0.5;stroke-dasharray:5.0,5.0;" x1="346.5" x2="346.5" y1="52.9766" y2="943.9375"/><line style="stroke:#181818;stroke-width:0.5;stroke-dasharray:5.0,5.0;" x1="674.5" x2="674.5" y1="52.9766" y2="943.9375"/><line style="stroke:#181818;stroke-width:0.5;stroke-dasharray:5.0,5.0;" x1="958.5" x2="958.5" y1="52.9766" y2="943.9375"/><line style="stroke:#181818;stroke-width:0.5;stroke-dasharray:5.0,5.0;" x1="1147.5" x2="1147.5" y1="52.9766" y2="943.9375"/><line style="stroke:#181818;stroke-width:0.5;stroke-dasharray:5.0,5.0;" x1="1367.5" x2="1367.5" y1="52.9766" y2="943.9375"/><line style="stroke:#181818;stroke-width:0.5;stroke-dasharray:5.0,5.0;" x1="1597.5" x2="1597.5" y1="52.9766" y2="943.9375"/><line style="stroke:#181818;stroke-width:0.5;stroke-dasharray:5.0,5.0;" x1="1949.5" x2="1949.5" y1="52.9766" y2="943.9375"/><line style="stroke:#181818;stroke-width:0.5;stroke-dasharray:5.0,5.0;" x1="2258.5" x2="2258.5" y1="52.9766" y2="943.9375"/><line style="stroke:#181818;stroke-width:0.5;stroke-dasharray:5.0,5.0;" x1="2418.5" x2="2418.5" y1="52.9766" y2="943.9375"/><rect fill="#E2E2F0" height="30.4883" rx="2.5" ry="2.5" style="stroke:#181818;stroke-width:0.5;" width="51" x="30" y="21.4883"/><text fill="#000000" font-family="sans-serif" font-size="14" lengthAdjust="spacing" textLength="37" x="37" y="42.0234">Actor</text><rect fill="#E2E2F0" height="46.9766" rx="2.5" ry="2.5" style="stroke:#181818;stroke-width:0.5;" width="224" x="234.5" y="5"/><text fill="#000000" font-family="sans-serif" font-size="14" font-style="italic" lengthAdjust="spacing" textLength="210" x="241.5" y="25.5352">&#171;/documents/index-usertype&#187;</text><text fill="#000000" font-family="sans-serif" font-size="14" lengthAdjust="spacing" textLength="72" x="310.5" y="42.0234">IndexPage</text><rect fill="#E2E2F0" height="46.9766" rx="2.5" ry="2.5" style="stroke:#181818;stroke-width:0.5;" width="413" x="468.5" y="5"/><text fill="#000000" font-family="sans-serif" font-size="14" font-style="italic" lengthAdjust="spacing" textLength="399" x="475.5" y="25.5352">&#171;/juror-bureau/client/documents/_common/${template}&#187;</text><text fill="#000000" font-family="sans-serif" font-size="14" lengthAdjust="spacing" textLength="178" x="586" y="42.0234">GenericDocumentListPage</text><rect fill="#E2E2F0" height="46.9766" rx="2.5" ry="2.5" style="stroke:#181818;stroke-width:0.5;" width="134" x="891.5" y="5"/><text fill="#000000" font-family="sans-serif" font-size="14" font-style="italic" lengthAdjust="spacing" textLength="56" x="930.5" y="25.5352">&#171;/error&#187;</text><text fill="#000000" font-family="sans-serif" font-size="14" lengthAdjust="spacing" textLength="120" x="898.5" y="42.0234">GenericErrorPage</text><rect fill="#FFFFE0" height="46.9766" rx="2.5" ry="2.5" style="stroke:#181818;stroke-width:0.5;" width="224" x="1035.5" y="5"/><text fill="#000000" font-family="sans-serif" font-size="14" font-style="italic" lengthAdjust="spacing" textLength="210" x="1042.5" y="25.5352">&#171;document-form.controller.js&#187;</text><text fill="#000000" font-family="sans-serif" font-size="14" lengthAdjust="spacing" textLength="175" x="1060" y="42.0234">documentFormController</text><rect fill="#FFFFE0" height="46.9766" rx="2.5" ry="2.5" style="stroke:#181818;stroke-width:0.5;" width="196" x="1269.5" y="5"/><text fill="#000000" font-family="sans-serif" font-size="14" font-style="italic" lengthAdjust="spacing" textLength="182" x="1276.5" y="25.5352">&#171;reissueLetterDAO.getList&#187;</text><text fill="#000000" font-family="sans-serif" font-size="14" lengthAdjust="spacing" textLength="119" x="1308" y="42.0234">reissueLetterDAO</text><rect fill="#FFFFE0" height="46.9766" rx="2.5" ry="2.5" style="stroke:#181818;stroke-width:0.5;" width="245" x="1475.5" y="5"/><text fill="#000000" font-family="sans-serif" font-size="14" font-style="italic" lengthAdjust="spacing" textLength="231" x="1482.5" y="25.5352">&#171;reissueLetterDAO.getListCourt()&#187;</text><text fill="#000000" font-family="sans-serif" font-size="14" lengthAdjust="spacing" textLength="106" x="1545" y="42.0234">courtLetterDAO</text><rect fill="#E2E2F0" height="46.9766" rx="2.5" ry="2.5" style="stroke:#181818;stroke-width:0.5;" width="438" x="1730.5" y="5"/><text fill="#000000" font-family="sans-serif" font-size="14" font-style="italic" lengthAdjust="spacing" textLength="424" x="1737.5" y="25.5352">&#171;/juror-bureau/client/documents/_common/${template}.njk&#187;</text><text fill="#000000" font-family="sans-serif" font-size="14" lengthAdjust="spacing" textLength="209" x="1845" y="42.0234">GenericDocumentListTemplate</text><rect fill="#E6E6FA" height="46.9766" rx="2.5" ry="2.5" style="stroke:#181818;stroke-width:0.5;" width="160" x="2178.5" y="5"/><text fill="#000000" font-family="sans-serif" font-size="14" font-style="italic" lengthAdjust="spacing" textLength="146" x="2185.5" y="25.5352">&#171;_errors/generic.njk&#187;</text><text fill="#000000" font-family="sans-serif" font-size="14" lengthAdjust="spacing" textLength="99" x="2209" y="42.0234">ErrorTemplate</text><rect fill="#E2E2F0" height="30.4883" rx="2.5" ry="2.5" style="stroke:#181818;stroke-width:0.5;" width="141" x="2348.5" y="21.4883"/><text fill="#000000" font-family="sans-serif" font-size="14" lengthAdjust="spacing" textLength="127" x="2355.5" y="42.0234">BackendController</text><polygon fill="#181818" points="334.5,80.2871,344.5,84.2871,334.5,88.2871" style="stroke:#181818;stroke-width:1.0;"/><line style="stroke:#181818;stroke-width:1.0;" x1="55.5" x2="340.5" y1="84.2871" y2="84.2871"/><text fill="#000000" font-family="sans-serif" font-size="13" lengthAdjust="spacing" textLength="267" x="67.5" y="79.5449">select document type from documents list</text><polygon fill="#181818" points="1135.5,109.5977,1145.5,113.5977,1135.5,117.5977" style="stroke:#181818;stroke-width:1.0;"/><line style="stroke:#181818;stroke-width:1.0;" x1="346.5" x2="1141.5" y1="113.5977" y2="113.5977"/><text fill="#000000" font-family="sans-serif" font-size="13" lengthAdjust="spacing" textLength="87" x="703.5" y="108.8555">call controller</text><path d="M10,128.5977 L72,128.5977 L72,135.9082 L62,145.9082 L10,145.9082 L10,128.5977 " fill="#EEEEEE" style="stroke:#000000;stroke-width:1.5;"/><rect fill="none" height="681.0977" style="stroke:#000000;stroke-width:1.5;" width="2499.5" x="10" y="128.5977"/><text fill="#000000" font-family="sans-serif" font-size="13" font-weight="bold" lengthAdjust="spacing" textLength="17" x="25" y="142.166">alt</text><text fill="#000000" font-family="sans-serif" font-size="11" font-weight="bold" lengthAdjust="spacing" textLength="65" x="87" y="141.2324">[court user]</text><polygon fill="#181818" points="1586,163.2188,1596,167.2188,1586,171.2188" style="stroke:#181818;stroke-width:1.0;"/><line style="stroke:#181818;stroke-width:1.0;" x1="1147.5" x2="1592" y1="167.2188" y2="167.2188"/><text fill="#000000" font-family="sans-serif" font-size="13" lengthAdjust="spacing" textLength="126" x="1309.75" y="162.4766">build request object</text><polygon fill="#181818" points="2407,192.5293,2417,196.5293,2407,200.5293" style="stroke:#181818;stroke-width:1.0;"/><line style="stroke:#181818;stroke-width:1.0;" x1="1598" x2="2413" y1="196.5293" y2="196.5293"/><text fill="#000000" font-family="sans-serif" font-size="13" lengthAdjust="spacing" textLength="138" x="1939.5" y="191.7871">send backend request</text><path d="M20,211.5293 L82,211.5293 L82,218.8398 L72,228.8398 L20,228.8398 L20,211.5293 " fill="#EEEEEE" style="stroke:#000000;stroke-width:1.5;"/><rect fill="none" height="193.1738" style="stroke:#000000;stroke-width:1.5;" width="2479.5" x="20" y="211.5293"/><text fill="#000000" font-family="sans-serif" font-size="13" font-weight="bold" lengthAdjust="spacing" textLength="17" x="35" y="225.0977">alt</text><text fill="#000000" font-family="sans-serif" font-size="11" font-weight="bold" lengthAdjust="spacing" textLength="223" x="97" y="224.1641">[Failed to fetch documents / jurors list]</text><polygon fill="#181818" points="1609,246.1504,1599,250.1504,1609,254.1504" style="stroke:#181818;stroke-width:1.0;"/><line style="stroke:#181818;stroke-width:1.0;stroke-dasharray:2.0,2.0;" x1="1603" x2="2418" y1="250.1504" y2="250.1504"/><text fill="#000000" font-family="sans-serif" font-size="13" lengthAdjust="spacing" textLength="91" x="1963" y="245.4082">Error response</text><polygon fill="#181818" points="1158.5,275.4609,1148.5,279.4609,1158.5,283.4609" style="stroke:#181818;stroke-width:1.0;"/><line style="stroke:#181818;stroke-width:1.0;stroke-dasharray:2.0,2.0;" x1="1152.5" x2="1597" y1="279.4609" y2="279.4609"/><text fill="#000000" font-family="sans-serif" font-size="13" lengthAdjust="spacing" textLength="127" x="1309.25" y="274.7188">reject requestObject</text><polygon fill="#181818" points="2246.5,304.7715,2256.5,308.7715,2246.5,312.7715" style="stroke:#181818;stroke-width:1.0;"/><line style="stroke:#181818;stroke-width:1.0;" x1="1147.5" x2="2252.5" y1="308.7715" y2="308.7715"/><text fill="#000000" font-family="sans-serif" font-size="13" lengthAdjust="spacing" textLength="169" x="1618.5" y="304.0293">request and build template</text><polygon fill="#181818" points="1158.5,334.082,1148.5,338.082,1158.5,342.082" style="stroke:#181818;stroke-width:1.0;"/><line style="stroke:#181818;stroke-width:1.0;" x1="1152.5" x2="2257.5" y1="338.082" y2="338.082"/><text fill="#000000" font-family="sans-serif" font-size="13" lengthAdjust="spacing" textLength="78" x="1664" y="333.3398">return HTML</text><polygon fill="#181818" points="969.5,363.3926,959.5,367.3926,969.5,371.3926" style="stroke:#181818;stroke-width:1.0;"/><line style="stroke:#181818;stroke-width:1.0;" x1="963.5" x2="1146.5" y1="367.3926" y2="367.3926"/><text fill="#000000" font-family="sans-serif" font-size="13" lengthAdjust="spacing" textLength="78" x="1014" y="362.6504">return HTML</text><polygon fill="#181818" points="66.5,392.7031,56.5,396.7031,66.5,400.7031" style="stroke:#181818;stroke-width:1.0;"/><line style="stroke:#181818;stroke-width:1.0;" x1="60.5" x2="957.5" y1="396.7031" y2="396.7031"/><text fill="#000000" font-family="sans-serif" font-size="13" lengthAdjust="spacing" textLength="108" x="453" y="391.9609">render error page</text><polygon fill="#181818" points="1609,429.0137,1599,433.0137,1609,437.0137" style="stroke:#181818;stroke-width:1.0;"/><line style="stroke:#181818;stroke-width:1.0;" x1="1603" x2="2418" y1="433.0137" y2="433.0137"/><text fill="#000000" font-family="sans-serif" font-size="13" lengthAdjust="spacing" textLength="77" x="1970" y="428.2715">ok response</text><polygon fill="#181818" points="1158.5,458.3242,1148.5,462.3242,1158.5,466.3242" style="stroke:#181818;stroke-width:1.0;"/><line style="stroke:#181818;stroke-width:1.0;" x1="1152.5" x2="1597" y1="462.3242" y2="462.3242"/><text fill="#000000" font-family="sans-serif" font-size="13" lengthAdjust="spacing" textLength="96" x="1324.75" y="457.582">resolve request</text><line style="stroke:#000000;stroke-width:1.0;stroke-dasharray:2.0,2.0;" x1="10" x2="2509.5" y1="471.3242" y2="471.3242"/><text fill="#000000" font-family="sans-serif" font-size="11" font-weight="bold" lengthAdjust="spacing" textLength="74" x="15" y="481.959">[bureau user]</text><polygon fill="#181818" points="1355.5,502.5898,1365.5,506.5898,1355.5,510.5898" style="stroke:#181818;stroke-width:1.0;"/><line style="stroke:#181818;stroke-width:1.0;" x1="1147.5" x2="1361.5" y1="506.5898" y2="506.5898"/><text fill="#000000" font-family="sans-serif" font-size="13" lengthAdjust="spacing" textLength="126" x="1194.5" y="501.8477">build request object</text><polygon fill="#181818" points="2407,531.9004,2417,535.9004,2407,539.9004" style="stroke:#181818;stroke-width:1.0;"/><line style="stroke:#181818;stroke-width:1.0;" x1="1367.5" x2="2413" y1="535.9004" y2="535.9004"/><text fill="#000000" font-family="sans-serif" font-size="13" lengthAdjust="spacing" textLength="138" x="1824.25" y="531.1582">send backend request</text><path d="M20,550.9004 L82,550.9004 L82,558.2109 L72,568.2109 L20,568.2109 L20,550.9004 " fill="#EEEEEE" style="stroke:#000000;stroke-width:1.5;"/><rect fill="none" height="193.1738" style="stroke:#000000;stroke-width:1.5;" width="2479.5" x="20" y="550.9004"/><text fill="#000000" font-family="sans-serif" font-size="13" font-weight="bold" lengthAdjust="spacing" textLength="17" x="35" y="564.4688">alt</text><text fill="#000000" font-family="sans-serif" font-size="11" font-weight="bold" lengthAdjust="spacing" textLength="223" x="97" y="563.5352">[Failed to fetch documents / jurors list]</text><polygon fill="#181818" points="1378.5,585.5215,1368.5,589.5215,1378.5,593.5215" style="stroke:#181818;stroke-width:1.0;"/><line style="stroke:#181818;stroke-width:1.0;stroke-dasharray:2.0,2.0;" x1="1372.5" x2="2418" y1="589.5215" y2="589.5215"/><text fill="#000000" font-family="sans-serif" font-size="13" lengthAdjust="spacing" textLength="91" x="1847.75" y="584.7793">Error response</text><polygon fill="#181818" points="1158.5,614.832,1148.5,618.832,1158.5,622.832" style="stroke:#181818;stroke-width:1.0;"/><line style="stroke:#181818;stroke-width:1.0;stroke-dasharray:2.0,2.0;" x1="1152.5" x2="1366.5" y1="618.832" y2="618.832"/><text fill="#000000" font-family="sans-serif" font-size="13" lengthAdjust="spacing" textLength="127" x="1194" y="614.0898">reject requestObject</text><polygon fill="#181818" points="2246.5,644.1426,2256.5,648.1426,2246.5,652.1426" style="stroke:#181818;stroke-width:1.0;"/><line style="stroke:#181818;stroke-width:1.0;" x1="1147.5" x2="2252.5" y1="648.1426" y2="648.1426"/><text fill="#000000" font-family="sans-serif" font-size="13" lengthAdjust="spacing" textLength="169" x="1618.5" y="643.4004">request and build template</text><polygon fill="#181818" points="1158.5,673.4531,1148.5,677.4531,1158.5,681.4531" style="stroke:#181818;stroke-width:1.0;"/><line style="stroke:#181818;stroke-width:1.0;" x1="1152.5" x2="2257.5" y1="677.4531" y2="677.4531"/><text fill="#000000" font-family="sans-serif" font-size="13" lengthAdjust="spacing" textLength="78" x="1664" y="672.7109">return HTML</text><polygon fill="#181818" points="969.5,702.7637,959.5,706.7637,969.5,710.7637" style="stroke:#181818;stroke-width:1.0;"/><line style="stroke:#181818;stroke-width:1.0;" x1="963.5" x2="1146.5" y1="706.7637" y2="706.7637"/><text fill="#000000" font-family="sans-serif" font-size="13" lengthAdjust="spacing" textLength="78" x="1014" y="702.0215">return HTML</text><polygon fill="#181818" points="66.5,732.0742,56.5,736.0742,66.5,740.0742" style="stroke:#181818;stroke-width:1.0;"/><line style="stroke:#181818;stroke-width:1.0;" x1="60.5" x2="957.5" y1="736.0742" y2="736.0742"/><text fill="#000000" font-family="sans-serif" font-size="13" lengthAdjust="spacing" textLength="108" x="453" y="731.332">render error page</text><polygon fill="#181818" points="1378.5,768.3848,1368.5,772.3848,1378.5,776.3848" style="stroke:#181818;stroke-width:1.0;"/><line style="stroke:#181818;stroke-width:1.0;" x1="1372.5" x2="2418" y1="772.3848" y2="772.3848"/><text fill="#000000" font-family="sans-serif" font-size="13" lengthAdjust="spacing" textLength="77" x="1854.75" y="767.6426">ok response</text><polygon fill="#181818" points="1158.5,797.6953,1148.5,801.6953,1158.5,805.6953" style="stroke:#181818;stroke-width:1.0;"/><line style="stroke:#181818;stroke-width:1.0;" x1="1152.5" x2="1366.5" y1="801.6953" y2="801.6953"/><text fill="#000000" font-family="sans-serif" font-size="13" lengthAdjust="spacing" textLength="96" x="1209.5" y="796.9531">resolve request</text><polygon fill="#181818" points="1937.5,834.0059,1947.5,838.0059,1937.5,842.0059" style="stroke:#181818;stroke-width:1.0;"/><line style="stroke:#181818;stroke-width:1.0;" x1="1147.5" x2="1943.5" y1="838.0059" y2="838.0059"/><text fill="#000000" font-family="sans-serif" font-size="13" lengthAdjust="spacing" textLength="169" x="1464" y="833.2637">request and build template</text><polygon fill="#181818" points="1158.5,863.3164,1148.5,867.3164,1158.5,871.3164" style="stroke:#181818;stroke-width:1.0;"/><line style="stroke:#181818;stroke-width:1.0;" x1="1152.5" x2="1948.5" y1="867.3164" y2="867.3164"/><text fill="#000000" font-family="sans-serif" font-size="13" lengthAdjust="spacing" textLength="78" x="1509.5" y="862.5742">return HTML</text><polygon fill="#181818" points="686,892.627,676,896.627,686,900.627" style="stroke:#181818;stroke-width:1.0;"/><line style="stroke:#181818;stroke-width:1.0;" x1="680" x2="1146.5" y1="896.627" y2="896.627"/><text fill="#000000" font-family="sans-serif" font-size="13" lengthAdjust="spacing" textLength="78" x="872.25" y="891.8848">return HTML</text><polygon fill="#181818" points="66.5,921.9375,56.5,925.9375,66.5,929.9375" style="stroke:#181818;stroke-width:1.0;"/><line style="stroke:#181818;stroke-width:1.0;" x1="60.5" x2="674" y1="925.9375" y2="925.9375"/><text fill="#000000" font-family="sans-serif" font-size="13" lengthAdjust="spacing" textLength="80" x="325.25" y="921.1953">render HTML</text><!--SRC=[xLVVR-9647xVls9wZHIGOaZINDLQ9rH272wf2HISUpqPUm8RbbrkTqqlElL_xzW6Wh7XVlKUhYqFIEpEVZFpVP_7ovJ728aKNCumPZzm6Oc4LYOeKVF86GiLpKnZ8K9faxbWpCouN8GwdCF8FWa4OoaitOBjBNoNe8omXyQ44smBFf5pb1OY-aBD68LP7l45eK8xiegMsF7nCVZzJjk7OVy-kBdh5g9kP8pl1mG6hrurOnKbAPvfydJPIGng-xJ0LgjmffitSRMAzhcnQuJ7H2ljZ1EDOTAC1AVjBTItaPhFbMmUVR0ufzuj_bKDxMc2MMDY-eFYiauw_RjWsFTzRmZjkoiOUd_SUwC0-fUtNYSO5R3MUQ-LddUKj5e9WPeGrnlE0-qqeirMuz6qMl0ZiJgrJoY4-hE0fv4Raw2FbhY-QlS9QNUfCS6CZaCmaKgq_HIGJXfOg-zYPJG4Nc_WjmDlL1OpM55xID26V9nzNDHjfCyMjY95fkeMwDjCMTDSFHJv2MesN29Lg_DEBzkTtprI-bdu0kPb6Cqe-bbVnZBZWzFQyhOB1WL6pvw0b0Luq6g-MJ8Wg6VsV8WGzbZ8XIWK0gAjfA5OAGifnmpeSxJggpsuwL1uhHhiPCSG9qMQJk35TSW5nc0LFA2Dfbi5Do6J9Q_yHPsXC0YvHfzVnguDlweG6JDsf3CPrm21IbdTc_w0_qxsJPmwZRUiH_PRbd5Q6BgRpxURhT_h9FqlZCb_ys3yJYOWx3jEm3lwkZItk8Z9FVGO6Wjg_4ZL4ifE79qiDPmr9sCOvnjhZ7mqf6Lzuk3AudTzvpYL2JF9A9DPA6cG7UWrHIWrgp5jRrrfFszsnTaXrefESJTqXMdx6O5hdx431LN0s4HBU1tqV3fN7XtEVXyKZ-REe_WIHXgPcXSoRyE2rYW-6ziLf5TohcRRXE_lhe9jeyGIDyQeV4yUehqqq_RQjHJvpGrRdhV_Y6KhMlxVj0NJLX3_LRQjP7p7k7dc_LGVUbbzCV4V0wsGeNoZ-M8rIb0RKR83nHlW8Fr3VT_pOOdQS2NXh75-UdxH-AaMJ1EunZ6SlOIpNzsBK_Vq9NHx0QJRTLRh3lpbEHYQ7152pDChuZYnX51dj-4oX64YBP-Z2-clMj2hmyXRBu8dbrohxBh8Rj_qyY1uhUneeMmM_FE5SyajNJ8r5GPlUkmA7yA4ddHFHYhcSkB2VN3j_CByK4uIwj8bbp6wsX1DJovqB_y6]--></g></svg>