<?xml version="1.0" encoding="us-ascii" standalone="no"?><svg xmlns="http://www.w3.org/2000/svg" xmlns:xlink="http://www.w3.org/1999/xlink" contentStyleType="text/css" height="2497px" preserveAspectRatio="none" style="width:3277px;height:2497px;background:#FFFFFF;" version="1.1" viewBox="0 0 3277 2497" width="3277px" zoomAndPan="magnify"><defs/><g><rect fill="none" height="193.1738" style="stroke:#000000;stroke-width:1.5;" width="3261.5" x="10" y="187.2188"/><rect fill="none" height="193.1738" style="stroke:#000000;stroke-width:1.5;" width="3261.5" x="10" y="540.9453"/><rect fill="none" height="163.8633" style="stroke:#000000;stroke-width:1.5;" width="3110.5" x="10" y="1011.9141"/><rect fill="none" height="193.1738" style="stroke:#000000;stroke-width:1.5;" width="3261.5" x="10" y="1307.0195"/><rect fill="none" height="134.5527" style="stroke:#000000;stroke-width:1.5;" width="2729.5" x="10" y="1514.1934"/><rect fill="none" height="193.1738" style="stroke:#000000;stroke-width:1.5;" width="3261.5" x="10" y="1779.9883"/><rect fill="none" height="193.1738" style="stroke:#000000;stroke-width:1.5;" width="3261.5" x="10" y="2104.4043"/><line style="stroke:#181818;stroke-width:0.5;stroke-dasharray:5.0,5.0;" x1="45" x2="45" y1="52.9766" y2="2490.4414"/><line style="stroke:#181818;stroke-width:0.5;stroke-dasharray:5.0,5.0;" x1="234.5" x2="234.5" y1="52.9766" y2="2490.4414"/><line style="stroke:#181818;stroke-width:0.5;stroke-dasharray:5.0,5.0;" x1="733.5" x2="733.5" y1="52.9766" y2="2490.4414"/><line style="stroke:#181818;stroke-width:0.5;stroke-dasharray:5.0,5.0;" x1="1147.5" x2="1147.5" y1="52.9766" y2="2490.4414"/><line style="stroke:#181818;stroke-width:0.5;stroke-dasharray:5.0,5.0;" x1="1336.5" x2="1336.5" y1="52.9766" y2="2490.4414"/><line style="stroke:#181818;stroke-width:0.5;stroke-dasharray:5.0,5.0;" x1="1547.5" x2="1547.5" y1="52.9766" y2="2490.4414"/><line style="stroke:#181818;stroke-width:0.5;stroke-dasharray:5.0,5.0;" x1="1740.5" x2="1740.5" y1="52.9766" y2="2490.4414"/><line style="stroke:#181818;stroke-width:0.5;stroke-dasharray:5.0,5.0;" x1="1954.5" x2="1954.5" y1="52.9766" y2="2490.4414"/><line style="stroke:#181818;stroke-width:0.5;stroke-dasharray:5.0,5.0;" x1="2185.5" x2="2185.5" y1="52.9766" y2="2490.4414"/><line style="stroke:#181818;stroke-width:0.5;stroke-dasharray:5.0,5.0;" x1="2518.5" x2="2518.5" y1="52.9766" y2="2490.4414"/><line style="stroke:#181818;stroke-width:0.5;stroke-dasharray:5.0,5.0;" x1="2821.5" x2="2821.5" y1="52.9766" y2="2490.4414"/><line style="stroke:#181818;stroke-width:0.5;stroke-dasharray:5.0,5.0;" x1="3012.5" x2="3012.5" y1="52.9766" y2="2490.4414"/><line style="stroke:#181818;stroke-width:0.5;stroke-dasharray:5.0,5.0;" x1="3190.5" x2="3190.5" y1="52.9766" y2="2490.4414"/><rect fill="#E2E2F0" height="30.4883" rx="2.5" ry="2.5" style="stroke:#181818;stroke-width:0.5;" width="51" x="20" y="21.4883"/><text fill="#000000" font-family="sans-serif" font-size="14" lengthAdjust="spacing" textLength="37" x="27" y="42.0234">Actor</text><rect fill="#E2E2F0" height="46.9766" rx="2.5" ry="2.5" style="stroke:#181818;stroke-width:0.5;" width="306" x="81.5" y="5"/><text fill="#000000" font-family="sans-serif" font-size="14" font-style="italic" lengthAdjust="spacing" textLength="292" x="88.5" y="25.5352">&#171;/juror-management/unpaid-attendance&#187;</text><text fill="#000000" font-family="sans-serif" font-size="14" lengthAdjust="spacing" textLength="160" x="154.5" y="42.0234">UnpaidAttendancePage</text><rect fill="#E2E2F0" height="46.9766" rx="2.5" ry="2.5" style="stroke:#181818;stroke-width:0.5;" width="673" x="397.5" y="5"/><text fill="#000000" font-family="sans-serif" font-size="14" font-style="italic" lengthAdjust="spacing" textLength="659" x="404.5" y="25.5352">&#171;/juror-management/unpaid-attendance/expense-record/:jurorNumber/:poolNumber/:status&#187;</text><text fill="#000000" font-family="sans-serif" font-size="14" lengthAdjust="spacing" textLength="139" x="664.5" y="42.0234">ExpenseRecordPage</text><rect fill="#E2E2F0" height="46.9766" rx="2.5" ry="2.5" style="stroke:#181818;stroke-width:0.5;" width="134" x="1080.5" y="5"/><text fill="#000000" font-family="sans-serif" font-size="14" font-style="italic" lengthAdjust="spacing" textLength="56" x="1119.5" y="25.5352">&#171;/error&#187;</text><text fill="#000000" font-family="sans-serif" font-size="14" lengthAdjust="spacing" textLength="120" x="1087.5" y="42.0234">GenericErrorPage</text><rect fill="#FFFFE0" height="46.9766" rx="2.5" ry="2.5" style="stroke:#181818;stroke-width:0.5;" width="225" x="1224.5" y="5"/><text fill="#000000" font-family="sans-serif" font-size="14" font-style="italic" lengthAdjust="spacing" textLength="211" x="1231.5" y="25.5352">&#171;expense-record.controller.js&#187;</text><text fill="#000000" font-family="sans-serif" font-size="14" lengthAdjust="spacing" textLength="176" x="1249" y="42.0234">ExpenseRecordController</text><rect fill="#FFFFE0" height="46.9766" rx="2.5" ry="2.5" style="stroke:#181818;stroke-width:0.5;" width="176" x="1459.5" y="5"/><text fill="#000000" font-family="sans-serif" font-size="14" font-style="italic" lengthAdjust="spacing" textLength="133" x="1481" y="25.5352">&#171;draft.controller.js&#187;</text><text fill="#000000" font-family="sans-serif" font-size="14" lengthAdjust="spacing" textLength="162" x="1466.5" y="42.0234">DraftExpenseController</text><rect fill="#FFFFE0" height="46.9766" rx="2.5" ry="2.5" style="stroke:#181818;stroke-width:0.5;" width="191" x="1645.5" y="5"/><text fill="#000000" font-family="sans-serif" font-size="14" font-style="italic" lengthAdjust="spacing" textLength="177" x="1652.5" y="25.5352">&#171;jurorOverviewDAO.get()&#187;</text><text fill="#000000" font-family="sans-serif" font-size="14" lengthAdjust="spacing" textLength="140" x="1671" y="42.0234">JurorOverviewObject</text><rect fill="#FFFFE0" height="46.9766" rx="2.5" ry="2.5" style="stroke:#181818;stroke-width:0.5;" width="216" x="1846.5" y="5"/><text fill="#000000" font-family="sans-serif" font-size="14" font-style="italic" lengthAdjust="spacing" textLength="202" x="1853.5" y="25.5352">&#171;getDraftExpensesDAO.get()&#187;</text><text fill="#000000" font-family="sans-serif" font-size="14" lengthAdjust="spacing" textLength="153" x="1878" y="42.0234">GetDraftExpensesDAO</text><rect fill="#FFFFE0" height="46.9766" rx="2.5" ry="2.5" style="stroke:#181818;stroke-width:0.5;" width="226" x="2072.5" y="5"/><text fill="#000000" font-family="sans-serif" font-size="14" font-style="italic" lengthAdjust="spacing" textLength="212" x="2079.5" y="25.5352">&#171;submitDraftExpenses.patch()&#187;</text><text fill="#000000" font-family="sans-serif" font-size="14" lengthAdjust="spacing" textLength="191" x="2090" y="42.0234">SubmitDraftExpensesObject</text><rect fill="#E6E6FA" height="46.9766" rx="2.5" ry="2.5" style="stroke:#181818;stroke-width:0.5;" width="421" x="2308.5" y="5"/><text fill="#000000" font-family="sans-serif" font-size="14" font-style="italic" lengthAdjust="spacing" textLength="407" x="2315.5" y="25.5352">&#171;juror-management/expense-record/expense-record.njk&#187;</text><text fill="#000000" font-family="sans-serif" font-size="14" lengthAdjust="spacing" textLength="170" x="2434" y="42.0234">ExpenseRecordTemplate</text><rect fill="#E6E6FA" height="46.9766" rx="2.5" ry="2.5" style="stroke:#181818;stroke-width:0.5;" width="165" x="2739.5" y="5"/><text fill="#000000" font-family="sans-serif" font-size="14" font-style="italic" lengthAdjust="spacing" textLength="146" x="2749" y="25.5352">&#171;_errors/generic.njk&#187;</text><text fill="#000000" font-family="sans-serif" font-size="14" lengthAdjust="spacing" textLength="151" x="2746.5" y="42.0234">GenericErrorTemplate</text><rect fill="#E2E2F0" height="30.4883" rx="2.5" ry="2.5" style="stroke:#181818;stroke-width:0.5;" width="196" x="2914.5" y="21.4883"/><text fill="#000000" font-family="sans-serif" font-size="14" lengthAdjust="spacing" textLength="182" x="2921.5" y="42.0234">ExpenseSelectionValidator</text><rect fill="#E2E2F0" height="30.4883" rx="2.5" ry="2.5" style="stroke:#181818;stroke-width:0.5;" width="141" x="3120.5" y="21.4883"/><text fill="#000000" font-family="sans-serif" font-size="14" lengthAdjust="spacing" textLength="127" x="3127.5" y="42.0234">BackendController</text><polygon fill="#181818" points="222.5,80.2871,232.5,84.2871,222.5,88.2871" style="stroke:#181818;stroke-width:1.0;"/><line style="stroke:#181818;stroke-width:1.0;" x1="45.5" x2="228.5" y1="84.2871" y2="84.2871"/><text fill="#000000" font-family="sans-serif" font-size="13" lengthAdjust="spacing" textLength="165" x="57.5" y="79.5449">click record expenses link</text><polygon fill="#181818" points="1325,109.5977,1335,113.5977,1325,117.5977" style="stroke:#181818;stroke-width:1.0;"/><line style="stroke:#181818;stroke-width:1.0;" x1="234.5" x2="1331" y1="113.5977" y2="113.5977"/><text fill="#000000" font-family="sans-serif" font-size="13" lengthAdjust="spacing" textLength="187" x="692.25" y="108.8555">call expense record controller</text><polygon fill="#181818" points="1729,138.9082,1739,142.9082,1729,146.9082" style="stroke:#181818;stroke-width:1.0;"/><line style="stroke:#181818;stroke-width:1.0;" x1="1337" x2="1735" y1="142.9082" y2="142.9082"/><text fill="#000000" font-family="sans-serif" font-size="13" lengthAdjust="spacing" textLength="126" x="1476" y="138.166">build request object</text><polygon fill="#181818" points="3179,168.2188,3189,172.2188,3179,176.2188" style="stroke:#181818;stroke-width:1.0;"/><line style="stroke:#181818;stroke-width:1.0;" x1="1741" x2="3185" y1="172.2188" y2="172.2188"/><text fill="#000000" font-family="sans-serif" font-size="13" lengthAdjust="spacing" textLength="138" x="2397" y="167.4766">send backend request</text><path d="M10,187.2188 L72,187.2188 L72,194.5293 L62,204.5293 L10,204.5293 L10,187.2188 " fill="#EEEEEE" style="stroke:#000000;stroke-width:1.5;"/><rect fill="none" height="193.1738" style="stroke:#000000;stroke-width:1.5;" width="3261.5" x="10" y="187.2188"/><text fill="#000000" font-family="sans-serif" font-size="13" font-weight="bold" lengthAdjust="spacing" textLength="17" x="25" y="200.7871">alt</text><text fill="#000000" font-family="sans-serif" font-size="11" font-weight="bold" lengthAdjust="spacing" textLength="161" x="87" y="199.8535">[Failed to fetch juror details]</text><polygon fill="#181818" points="1752,221.8398,1742,225.8398,1752,229.8398" style="stroke:#181818;stroke-width:1.0;"/><line style="stroke:#181818;stroke-width:1.0;stroke-dasharray:2.0,2.0;" x1="1746" x2="3190" y1="225.8398" y2="225.8398"/><text fill="#000000" font-family="sans-serif" font-size="13" lengthAdjust="spacing" textLength="91" x="2420.5" y="221.0977">Error response</text><polygon fill="#181818" points="1348,251.1504,1338,255.1504,1348,259.1504" style="stroke:#181818;stroke-width:1.0;"/><line style="stroke:#181818;stroke-width:1.0;stroke-dasharray:2.0,2.0;" x1="1342" x2="1740" y1="255.1504" y2="255.1504"/><text fill="#000000" font-family="sans-serif" font-size="13" lengthAdjust="spacing" textLength="127" x="1475.5" y="250.4082">reject requestObject</text><polygon fill="#181818" points="2810,280.4609,2820,284.4609,2810,288.4609" style="stroke:#181818;stroke-width:1.0;"/><line style="stroke:#181818;stroke-width:1.0;" x1="1337" x2="2816" y1="284.4609" y2="284.4609"/><text fill="#000000" font-family="sans-serif" font-size="13" lengthAdjust="spacing" textLength="169" x="1995" y="279.7188">request and build template</text><polygon fill="#181818" points="1348,309.7715,1338,313.7715,1348,317.7715" style="stroke:#181818;stroke-width:1.0;"/><line style="stroke:#181818;stroke-width:1.0;" x1="1342" x2="2821" y1="313.7715" y2="313.7715"/><text fill="#000000" font-family="sans-serif" font-size="13" lengthAdjust="spacing" textLength="78" x="2040.5" y="309.0293">return HTML</text><polygon fill="#181818" points="1158.5,339.082,1148.5,343.082,1158.5,347.082" style="stroke:#181818;stroke-width:1.0;"/><line style="stroke:#181818;stroke-width:1.0;" x1="1152.5" x2="1336" y1="343.082" y2="343.082"/><text fill="#000000" font-family="sans-serif" font-size="13" lengthAdjust="spacing" textLength="78" x="1203.25" y="338.3398">return HTML</text><polygon fill="#181818" points="56.5,368.3926,46.5,372.3926,56.5,376.3926" style="stroke:#181818;stroke-width:1.0;"/><line style="stroke:#181818;stroke-width:1.0;" x1="50.5" x2="1146.5" y1="372.3926" y2="372.3926"/><text fill="#000000" font-family="sans-serif" font-size="13" lengthAdjust="spacing" textLength="108" x="542.5" y="367.6504">render error page</text><polygon fill="#181818" points="1752,404.7031,1742,408.7031,1752,412.7031" style="stroke:#181818;stroke-width:1.0;"/><line style="stroke:#181818;stroke-width:1.0;" x1="1746" x2="3190" y1="408.7031" y2="408.7031"/><text fill="#000000" font-family="sans-serif" font-size="13" lengthAdjust="spacing" textLength="77" x="2427.5" y="403.9609">ok response</text><polygon fill="#181818" points="1348,434.0137,1338,438.0137,1348,442.0137" style="stroke:#181818;stroke-width:1.0;"/><line style="stroke:#181818;stroke-width:1.0;" x1="1342" x2="1740" y1="438.0137" y2="438.0137"/><text fill="#000000" font-family="sans-serif" font-size="13" lengthAdjust="spacing" textLength="96" x="1491" y="433.2715">resolve request</text><polygon fill="#181818" points="1535.5,463.3242,1545.5,467.3242,1535.5,471.3242" style="stroke:#181818;stroke-width:1.0;"/><line style="stroke:#181818;stroke-width:1.0;" x1="1337" x2="1541.5" y1="467.3242" y2="467.3242"/><text fill="#000000" font-family="sans-serif" font-size="13" lengthAdjust="spacing" textLength="177" x="1353.75" y="462.582">call draft expense controller</text><polygon fill="#181818" points="1942.5,492.6348,1952.5,496.6348,1942.5,500.6348" style="stroke:#181818;stroke-width:1.0;"/><line style="stroke:#181818;stroke-width:1.0;" x1="1547.5" x2="1948.5" y1="496.6348" y2="496.6348"/><text fill="#000000" font-family="sans-serif" font-size="13" lengthAdjust="spacing" textLength="126" x="1688" y="491.8926">build request object</text><polygon fill="#181818" points="3179,521.9453,3189,525.9453,3179,529.9453" style="stroke:#181818;stroke-width:1.0;"/><line style="stroke:#181818;stroke-width:1.0;" x1="1954.5" x2="3185" y1="525.9453" y2="525.9453"/><text fill="#000000" font-family="sans-serif" font-size="13" lengthAdjust="spacing" textLength="138" x="2503.75" y="521.2031">send backend request</text><path d="M10,540.9453 L72,540.9453 L72,548.2559 L62,558.2559 L10,558.2559 L10,540.9453 " fill="#EEEEEE" style="stroke:#000000;stroke-width:1.5;"/><rect fill="none" height="193.1738" style="stroke:#000000;stroke-width:1.5;" width="3261.5" x="10" y="540.9453"/><text fill="#000000" font-family="sans-serif" font-size="13" font-weight="bold" lengthAdjust="spacing" textLength="17" x="25" y="554.5137">alt</text><text fill="#000000" font-family="sans-serif" font-size="11" font-weight="bold" lengthAdjust="spacing" textLength="194" x="87" y="553.5801">[Failed to fetch draft expense data]</text><polygon fill="#181818" points="1965.5,575.5664,1955.5,579.5664,1965.5,583.5664" style="stroke:#181818;stroke-width:1.0;"/><line style="stroke:#181818;stroke-width:1.0;stroke-dasharray:2.0,2.0;" x1="1959.5" x2="3190" y1="579.5664" y2="579.5664"/><text fill="#000000" font-family="sans-serif" font-size="13" lengthAdjust="spacing" textLength="91" x="2527.25" y="574.8242">Error response</text><polygon fill="#181818" points="1558.5,604.877,1548.5,608.877,1558.5,612.877" style="stroke:#181818;stroke-width:1.0;"/><line style="stroke:#181818;stroke-width:1.0;stroke-dasharray:2.0,2.0;" x1="1552.5" x2="1953.5" y1="608.877" y2="608.877"/><text fill="#000000" font-family="sans-serif" font-size="13" lengthAdjust="spacing" textLength="127" x="1687.5" y="604.1348">reject requestObject</text><polygon fill="#181818" points="2810,634.1875,2820,638.1875,2810,642.1875" style="stroke:#181818;stroke-width:1.0;"/><line style="stroke:#181818;stroke-width:1.0;" x1="1547.5" x2="2816" y1="638.1875" y2="638.1875"/><text fill="#000000" font-family="sans-serif" font-size="13" lengthAdjust="spacing" textLength="169" x="2100.25" y="633.4453">request and build template</text><polygon fill="#181818" points="1558.5,663.498,1548.5,667.498,1558.5,671.498" style="stroke:#181818;stroke-width:1.0;"/><line style="stroke:#181818;stroke-width:1.0;" x1="1552.5" x2="2821" y1="667.498" y2="667.498"/><text fill="#000000" font-family="sans-serif" font-size="13" lengthAdjust="spacing" textLength="78" x="2145.75" y="662.7559">return HTML</text><polygon fill="#181818" points="1158.5,692.8086,1148.5,696.8086,1158.5,700.8086" style="stroke:#181818;stroke-width:1.0;"/><line style="stroke:#181818;stroke-width:1.0;" x1="1152.5" x2="1546.5" y1="696.8086" y2="696.8086"/><text fill="#000000" font-family="sans-serif" font-size="13" lengthAdjust="spacing" textLength="78" x="1308.5" y="692.0664">return HTML</text><polygon fill="#181818" points="56.5,722.1191,46.5,726.1191,56.5,730.1191" style="stroke:#181818;stroke-width:1.0;"/><line style="stroke:#181818;stroke-width:1.0;" x1="50.5" x2="1146.5" y1="726.1191" y2="726.1191"/><text fill="#000000" font-family="sans-serif" font-size="13" lengthAdjust="spacing" textLength="108" x="542.5" y="721.377">render error page</text><polygon fill="#181818" points="1965.5,758.4297,1955.5,762.4297,1965.5,766.4297" style="stroke:#181818;stroke-width:1.0;"/><line style="stroke:#181818;stroke-width:1.0;" x1="1959.5" x2="3190" y1="762.4297" y2="762.4297"/><text fill="#000000" font-family="sans-serif" font-size="13" lengthAdjust="spacing" textLength="77" x="2534.25" y="757.6875">ok response</text><polygon fill="#181818" points="1558.5,787.7402,1548.5,791.7402,1558.5,795.7402" style="stroke:#181818;stroke-width:1.0;"/><line style="stroke:#181818;stroke-width:1.0;" x1="1552.5" x2="1953.5" y1="791.7402" y2="791.7402"/><text fill="#000000" font-family="sans-serif" font-size="13" lengthAdjust="spacing" textLength="96" x="1703" y="786.998">resolve request</text><polygon fill="#181818" points="2507,817.0508,2517,821.0508,2507,825.0508" style="stroke:#181818;stroke-width:1.0;"/><line style="stroke:#181818;stroke-width:1.0;" x1="1337" x2="2513" y1="821.0508" y2="821.0508"/><text fill="#000000" font-family="sans-serif" font-size="13" lengthAdjust="spacing" textLength="169" x="1843.5" y="816.3086">request and build template</text><polygon fill="#181818" points="1348,846.3613,1338,850.3613,1348,854.3613" style="stroke:#181818;stroke-width:1.0;"/><line style="stroke:#181818;stroke-width:1.0;" x1="1342" x2="2518" y1="850.3613" y2="850.3613"/><text fill="#000000" font-family="sans-serif" font-size="13" lengthAdjust="spacing" textLength="78" x="1889" y="845.6191">return HTML</text><polygon fill="#181818" points="745,875.6719,735,879.6719,745,883.6719" style="stroke:#181818;stroke-width:1.0;"/><line style="stroke:#181818;stroke-width:1.0;" x1="739" x2="1336" y1="879.6719" y2="879.6719"/><text fill="#000000" font-family="sans-serif" font-size="13" lengthAdjust="spacing" textLength="78" x="996.5" y="874.9297">return HTML</text><polygon fill="#181818" points="56.5,904.9824,46.5,908.9824,56.5,912.9824" style="stroke:#181818;stroke-width:1.0;"/><line style="stroke:#181818;stroke-width:1.0;" x1="50.5" x2="733" y1="908.9824" y2="908.9824"/><text fill="#000000" font-family="sans-serif" font-size="13" lengthAdjust="spacing" textLength="80" x="349.75" y="904.2402">render HTML</text><polygon fill="#181818" points="722,934.293,732,938.293,722,942.293" style="stroke:#181818;stroke-width:1.0;"/><line style="stroke:#181818;stroke-width:1.0;" x1="45.5" x2="728" y1="938.293" y2="938.293"/><text fill="#000000" font-family="sans-serif" font-size="13" lengthAdjust="spacing" textLength="262" x="258.75" y="933.5508">selects expense and clicks submit button</text><polygon fill="#181818" points="1325,963.6035,1335,967.6035,1325,971.6035" style="stroke:#181818;stroke-width:1.0;"/><line style="stroke:#181818;stroke-width:1.0;" x1="234.5" x2="1331" y1="967.6035" y2="967.6035"/><text fill="#000000" font-family="sans-serif" font-size="13" lengthAdjust="spacing" textLength="187" x="692.25" y="962.8613">call expense record controller</text><polygon fill="#181818" points="3000.5,992.9141,3010.5,996.9141,3000.5,1000.9141" style="stroke:#181818;stroke-width:1.0;"/><line style="stroke:#181818;stroke-width:1.0;" x1="1337" x2="3006.5" y1="996.9141" y2="996.9141"/><text fill="#000000" font-family="sans-serif" font-size="13" lengthAdjust="spacing" textLength="95" x="2127.25" y="992.1719">validate details</text><path d="M10,1011.9141 L72,1011.9141 L72,1019.2246 L62,1029.2246 L10,1029.2246 L10,1011.9141 " fill="#EEEEEE" style="stroke:#000000;stroke-width:1.5;"/><rect fill="none" height="163.8633" style="stroke:#000000;stroke-width:1.5;" width="3110.5" x="10" y="1011.9141"/><text fill="#000000" font-family="sans-serif" font-size="13" font-weight="bold" lengthAdjust="spacing" textLength="17" x="25" y="1025.4824">alt</text><text fill="#000000" font-family="sans-serif" font-size="11" font-weight="bold" lengthAdjust="spacing" textLength="126" x="87" y="1024.5488">[No expenses selected]</text><polygon fill="#181818" points="1348,1046.5352,1338,1050.5352,1348,1054.5352" style="stroke:#181818;stroke-width:1.0;"/><line style="stroke:#181818;stroke-width:1.0;" x1="1342" x2="3011.5" y1="1050.5352" y2="1050.5352"/><text fill="#000000" font-family="sans-serif" font-size="13" lengthAdjust="spacing" textLength="137" x="2106.25" y="1045.793">No expenses selected</text><polygon fill="#181818" points="2507,1075.8457,2517,1079.8457,2507,1083.8457" style="stroke:#181818;stroke-width:1.0;"/><line style="stroke:#181818;stroke-width:1.0;" x1="1337" x2="2513" y1="1079.8457" y2="1079.8457"/><text fill="#000000" font-family="sans-serif" font-size="13" lengthAdjust="spacing" textLength="169" x="1843.5" y="1075.1035">request and build template</text><polygon fill="#181818" points="1348,1105.1563,1338,1109.1563,1348,1113.1563" style="stroke:#181818;stroke-width:1.0;"/><line style="stroke:#181818;stroke-width:1.0;" x1="1342" x2="2518" y1="1109.1563" y2="1109.1563"/><text fill="#000000" font-family="sans-serif" font-size="13" lengthAdjust="spacing" textLength="78" x="1889" y="1104.4141">return HTML</text><polygon fill="#181818" points="745,1134.4668,735,1138.4668,745,1142.4668" style="stroke:#181818;stroke-width:1.0;"/><line style="stroke:#181818;stroke-width:1.0;" x1="739" x2="1336" y1="1138.4668" y2="1138.4668"/><text fill="#000000" font-family="sans-serif" font-size="13" lengthAdjust="spacing" textLength="112" x="979.5" y="1133.7246">return error HTML</text><polygon fill="#181818" points="56.5,1163.7773,46.5,1167.7773,56.5,1171.7773" style="stroke:#181818;stroke-width:1.0;"/><line style="stroke:#181818;stroke-width:1.0;" x1="50.5" x2="733" y1="1167.7773" y2="1167.7773"/><text fill="#000000" font-family="sans-serif" font-size="13" lengthAdjust="spacing" textLength="133" x="323.25" y="1163.0352">render error message</text><polygon fill="#181818" points="1348,1200.0879,1338,1204.0879,1348,1208.0879" style="stroke:#181818;stroke-width:1.0;"/><line style="stroke:#181818;stroke-width:1.0;" x1="1342" x2="3011.5" y1="1204.0879" y2="1204.0879"/><text fill="#000000" font-family="sans-serif" font-size="13" lengthAdjust="spacing" textLength="127" x="2111.25" y="1199.3457">valid details entered</text><polygon fill="#181818" points="1535.5,1229.3984,1545.5,1233.3984,1535.5,1237.3984" style="stroke:#181818;stroke-width:1.0;"/><line style="stroke:#181818;stroke-width:1.0;" x1="1337" x2="1541.5" y1="1233.3984" y2="1233.3984"/><text fill="#000000" font-family="sans-serif" font-size="13" lengthAdjust="spacing" textLength="177" x="1353.75" y="1228.6563">call draft expense controller</text><polygon fill="#181818" points="1942.5,1258.709,1952.5,1262.709,1942.5,1266.709" style="stroke:#181818;stroke-width:1.0;"/><line style="stroke:#181818;stroke-width:1.0;" x1="1547.5" x2="1948.5" y1="1262.709" y2="1262.709"/><text fill="#000000" font-family="sans-serif" font-size="13" lengthAdjust="spacing" textLength="126" x="1688" y="1257.9668">build request object</text><polygon fill="#181818" points="3179,1288.0195,3189,1292.0195,3179,1296.0195" style="stroke:#181818;stroke-width:1.0;"/><line style="stroke:#181818;stroke-width:1.0;" x1="1954.5" x2="3185" y1="1292.0195" y2="1292.0195"/><text fill="#000000" font-family="sans-serif" font-size="13" lengthAdjust="spacing" textLength="138" x="2503.75" y="1287.2773">send backend request</text><path d="M10,1307.0195 L72,1307.0195 L72,1314.3301 L62,1324.3301 L10,1324.3301 L10,1307.0195 " fill="#EEEEEE" style="stroke:#000000;stroke-width:1.5;"/><rect fill="none" height="193.1738" style="stroke:#000000;stroke-width:1.5;" width="3261.5" x="10" y="1307.0195"/><text fill="#000000" font-family="sans-serif" font-size="13" font-weight="bold" lengthAdjust="spacing" textLength="17" x="25" y="1320.5879">alt</text><text fill="#000000" font-family="sans-serif" font-size="11" font-weight="bold" lengthAdjust="spacing" textLength="419" x="87" y="1319.6543">[Failed to compare etags for when submitting draft expenses for approval]</text><polygon fill="#181818" points="1965.5,1341.6406,1955.5,1345.6406,1965.5,1349.6406" style="stroke:#181818;stroke-width:1.0;"/><line style="stroke:#181818;stroke-width:1.0;stroke-dasharray:2.0,2.0;" x1="1959.5" x2="3190" y1="1345.6406" y2="1345.6406"/><text fill="#000000" font-family="sans-serif" font-size="13" lengthAdjust="spacing" textLength="91" x="2527.25" y="1340.8984">Error response</text><polygon fill="#181818" points="1558.5,1370.9512,1548.5,1374.9512,1558.5,1378.9512" style="stroke:#181818;stroke-width:1.0;"/><line style="stroke:#181818;stroke-width:1.0;stroke-dasharray:2.0,2.0;" x1="1552.5" x2="1953.5" y1="1374.9512" y2="1374.9512"/><text fill="#000000" font-family="sans-serif" font-size="13" lengthAdjust="spacing" textLength="127" x="1687.5" y="1370.209">reject requestObject</text><polygon fill="#181818" points="2810,1400.2617,2820,1404.2617,2810,1408.2617" style="stroke:#181818;stroke-width:1.0;"/><line style="stroke:#181818;stroke-width:1.0;" x1="1547.5" x2="2816" y1="1404.2617" y2="1404.2617"/><text fill="#000000" font-family="sans-serif" font-size="13" lengthAdjust="spacing" textLength="169" x="2100.25" y="1399.5195">request and build template</text><polygon fill="#181818" points="1558.5,1429.5723,1548.5,1433.5723,1558.5,1437.5723" style="stroke:#181818;stroke-width:1.0;"/><line style="stroke:#181818;stroke-width:1.0;" x1="1552.5" x2="2821" y1="1433.5723" y2="1433.5723"/><text fill="#000000" font-family="sans-serif" font-size="13" lengthAdjust="spacing" textLength="78" x="2145.75" y="1428.8301">return HTML</text><polygon fill="#181818" points="1158.5,1458.8828,1148.5,1462.8828,1158.5,1466.8828" style="stroke:#181818;stroke-width:1.0;"/><line style="stroke:#181818;stroke-width:1.0;" x1="1152.5" x2="1546.5" y1="1462.8828" y2="1462.8828"/><text fill="#000000" font-family="sans-serif" font-size="13" lengthAdjust="spacing" textLength="78" x="1308.5" y="1458.1406">return HTML</text><polygon fill="#181818" points="56.5,1488.1934,46.5,1492.1934,56.5,1496.1934" style="stroke:#181818;stroke-width:1.0;"/><line style="stroke:#181818;stroke-width:1.0;" x1="50.5" x2="1146.5" y1="1492.1934" y2="1492.1934"/><text fill="#000000" font-family="sans-serif" font-size="13" lengthAdjust="spacing" textLength="108" x="542.5" y="1487.4512">render error page</text><path d="M10,1514.1934 L72,1514.1934 L72,1521.5039 L62,1531.5039 L10,1531.5039 L10,1514.1934 " fill="#EEEEEE" style="stroke:#000000;stroke-width:1.5;"/><rect fill="none" height="134.5527" style="stroke:#000000;stroke-width:1.5;" width="2729.5" x="10" y="1514.1934"/><text fill="#000000" font-family="sans-serif" font-size="13" font-weight="bold" lengthAdjust="spacing" textLength="17" x="25" y="1527.7617">alt</text><text fill="#000000" font-family="sans-serif" font-size="11" font-weight="bold" lengthAdjust="spacing" textLength="269" x="87" y="1526.8281">[Draft expenses added/updated by another user]</text><polygon fill="#181818" points="2507,1548.8145,2517,1552.8145,2507,1556.8145" style="stroke:#181818;stroke-width:1.0;"/><line style="stroke:#181818;stroke-width:1.0;" x1="1547.5" x2="2513" y1="1552.8145" y2="1552.8145"/><text fill="#000000" font-family="sans-serif" font-size="13" lengthAdjust="spacing" textLength="169" x="1948.75" y="1548.0723">request and build template</text><polygon fill="#181818" points="1558.5,1578.125,1548.5,1582.125,1558.5,1586.125" style="stroke:#181818;stroke-width:1.0;"/><line style="stroke:#181818;stroke-width:1.0;" x1="1552.5" x2="2518" y1="1582.125" y2="1582.125"/><text fill="#000000" font-family="sans-serif" font-size="13" lengthAdjust="spacing" textLength="78" x="1994.25" y="1577.3828">return HTML</text><polygon fill="#181818" points="745,1607.4355,735,1611.4355,745,1615.4355" style="stroke:#181818;stroke-width:1.0;"/><line style="stroke:#181818;stroke-width:1.0;" x1="739" x2="1546.5" y1="1611.4355" y2="1611.4355"/><text fill="#000000" font-family="sans-serif" font-size="13" lengthAdjust="spacing" textLength="112" x="1084.75" y="1606.6934">return error HTML</text><polygon fill="#181818" points="56.5,1636.7461,46.5,1640.7461,56.5,1644.7461" style="stroke:#181818;stroke-width:1.0;"/><line style="stroke:#181818;stroke-width:1.0;" x1="50.5" x2="733" y1="1640.7461" y2="1640.7461"/><text fill="#000000" font-family="sans-serif" font-size="13" lengthAdjust="spacing" textLength="133" x="323.25" y="1636.0039">render error message</text><polygon fill="#181818" points="1965.5,1673.0566,1955.5,1677.0566,1965.5,1681.0566" style="stroke:#181818;stroke-width:1.0;"/><line style="stroke:#181818;stroke-width:1.0;" x1="1959.5" x2="3190" y1="1677.0566" y2="1677.0566"/><text fill="#000000" font-family="sans-serif" font-size="13" lengthAdjust="spacing" textLength="202" x="2471.75" y="1672.3145">ok response - no other changes</text><polygon fill="#181818" points="1558.5,1702.3672,1548.5,1706.3672,1558.5,1710.3672" style="stroke:#181818;stroke-width:1.0;"/><line style="stroke:#181818;stroke-width:1.0;" x1="1552.5" x2="1953.5" y1="1706.3672" y2="1706.3672"/><text fill="#000000" font-family="sans-serif" font-size="13" lengthAdjust="spacing" textLength="96" x="1703" y="1701.625">resolve request</text><polygon fill="#181818" points="2173.5,1731.6777,2183.5,1735.6777,2173.5,1739.6777" style="stroke:#181818;stroke-width:1.0;"/><line style="stroke:#181818;stroke-width:1.0;" x1="1547.5" x2="2179.5" y1="1735.6777" y2="1735.6777"/><text fill="#000000" font-family="sans-serif" font-size="13" lengthAdjust="spacing" textLength="126" x="1803.5" y="1730.9355">build request object</text><polygon fill="#181818" points="3179,1760.9883,3189,1764.9883,3179,1768.9883" style="stroke:#181818;stroke-width:1.0;"/><line style="stroke:#181818;stroke-width:1.0;" x1="2185.5" x2="3185" y1="1764.9883" y2="1764.9883"/><text fill="#000000" font-family="sans-serif" font-size="13" lengthAdjust="spacing" textLength="138" x="2619.25" y="1760.2461">send backend request</text><path d="M10,1779.9883 L72,1779.9883 L72,1787.2988 L62,1797.2988 L10,1797.2988 L10,1779.9883 " fill="#EEEEEE" style="stroke:#000000;stroke-width:1.5;"/><rect fill="none" height="193.1738" style="stroke:#000000;stroke-width:1.5;" width="3261.5" x="10" y="1779.9883"/><text fill="#000000" font-family="sans-serif" font-size="13" font-weight="bold" lengthAdjust="spacing" textLength="17" x="25" y="1793.5566">alt</text><text fill="#000000" font-family="sans-serif" font-size="11" font-weight="bold" lengthAdjust="spacing" textLength="258" x="87" y="1792.623">[Failed to submit draft expenses for approval]</text><polygon fill="#181818" points="2196.5,1814.6094,2186.5,1818.6094,2196.5,1822.6094" style="stroke:#181818;stroke-width:1.0;"/><line style="stroke:#181818;stroke-width:1.0;stroke-dasharray:2.0,2.0;" x1="2190.5" x2="3190" y1="1818.6094" y2="1818.6094"/><text fill="#000000" font-family="sans-serif" font-size="13" lengthAdjust="spacing" textLength="91" x="2642.75" y="1813.8672">Error response</text><polygon fill="#181818" points="1558.5,1843.9199,1548.5,1847.9199,1558.5,1851.9199" style="stroke:#181818;stroke-width:1.0;"/><line style="stroke:#181818;stroke-width:1.0;stroke-dasharray:2.0,2.0;" x1="1552.5" x2="2184.5" y1="1847.9199" y2="1847.9199"/><text fill="#000000" font-family="sans-serif" font-size="13" lengthAdjust="spacing" textLength="127" x="1803" y="1843.1777">reject requestObject</text><polygon fill="#181818" points="2810,1873.2305,2820,1877.2305,2810,1881.2305" style="stroke:#181818;stroke-width:1.0;"/><line style="stroke:#181818;stroke-width:1.0;" x1="1547.5" x2="2816" y1="1877.2305" y2="1877.2305"/><text fill="#000000" font-family="sans-serif" font-size="13" lengthAdjust="spacing" textLength="169" x="2100.25" y="1872.4883">request and build template</text><polygon fill="#181818" points="1558.5,1902.541,1548.5,1906.541,1558.5,1910.541" style="stroke:#181818;stroke-width:1.0;"/><line style="stroke:#181818;stroke-width:1.0;" x1="1552.5" x2="2821" y1="1906.541" y2="1906.541"/><text fill="#000000" font-family="sans-serif" font-size="13" lengthAdjust="spacing" textLength="78" x="2145.75" y="1901.7988">return HTML</text><polygon fill="#181818" points="1158.5,1931.8516,1148.5,1935.8516,1158.5,1939.8516" style="stroke:#181818;stroke-width:1.0;"/><line style="stroke:#181818;stroke-width:1.0;" x1="1152.5" x2="1546.5" y1="1935.8516" y2="1935.8516"/><text fill="#000000" font-family="sans-serif" font-size="13" lengthAdjust="spacing" textLength="78" x="1308.5" y="1931.1094">return HTML</text><polygon fill="#181818" points="56.5,1961.1621,46.5,1965.1621,56.5,1969.1621" style="stroke:#181818;stroke-width:1.0;"/><line style="stroke:#181818;stroke-width:1.0;" x1="50.5" x2="1146.5" y1="1965.1621" y2="1965.1621"/><text fill="#000000" font-family="sans-serif" font-size="13" lengthAdjust="spacing" textLength="108" x="542.5" y="1960.4199">render error page</text><polygon fill="#181818" points="2196.5,1997.4727,2186.5,2001.4727,2196.5,2005.4727" style="stroke:#181818;stroke-width:1.0;"/><line style="stroke:#181818;stroke-width:1.0;" x1="2190.5" x2="3190" y1="2001.4727" y2="2001.4727"/><text fill="#000000" font-family="sans-serif" font-size="13" lengthAdjust="spacing" textLength="77" x="2649.75" y="1996.7305">ok response</text><polygon fill="#181818" points="1558.5,2026.7832,1548.5,2030.7832,1558.5,2034.7832" style="stroke:#181818;stroke-width:1.0;"/><line style="stroke:#181818;stroke-width:1.0;" x1="1552.5" x2="2184.5" y1="2030.7832" y2="2030.7832"/><text fill="#000000" font-family="sans-serif" font-size="13" lengthAdjust="spacing" textLength="96" x="1818.5" y="2026.041">resolve request</text><polygon fill="#181818" points="1942.5,2056.0938,1952.5,2060.0938,1942.5,2064.0938" style="stroke:#181818;stroke-width:1.0;"/><line style="stroke:#181818;stroke-width:1.0;" x1="1547.5" x2="1948.5" y1="2060.0938" y2="2060.0938"/><text fill="#000000" font-family="sans-serif" font-size="13" lengthAdjust="spacing" textLength="126" x="1688" y="2055.3516">build request object</text><polygon fill="#181818" points="3179,2085.4043,3189,2089.4043,3179,2093.4043" style="stroke:#181818;stroke-width:1.0;"/><line style="stroke:#181818;stroke-width:1.0;" x1="1954.5" x2="3185" y1="2089.4043" y2="2089.4043"/><text fill="#000000" font-family="sans-serif" font-size="13" lengthAdjust="spacing" textLength="138" x="2503.75" y="2084.6621">send backend request</text><path d="M10,2104.4043 L72,2104.4043 L72,2111.7148 L62,2121.7148 L10,2121.7148 L10,2104.4043 " fill="#EEEEEE" style="stroke:#000000;stroke-width:1.5;"/><rect fill="none" height="193.1738" style="stroke:#000000;stroke-width:1.5;" width="3261.5" x="10" y="2104.4043"/><text fill="#000000" font-family="sans-serif" font-size="13" font-weight="bold" lengthAdjust="spacing" textLength="17" x="25" y="2117.9727">alt</text><text fill="#000000" font-family="sans-serif" font-size="11" font-weight="bold" lengthAdjust="spacing" textLength="194" x="87" y="2117.0391">[Failed to fetch draft expense data]</text><polygon fill="#181818" points="1965.5,2139.0254,1955.5,2143.0254,1965.5,2147.0254" style="stroke:#181818;stroke-width:1.0;"/><line style="stroke:#181818;stroke-width:1.0;stroke-dasharray:2.0,2.0;" x1="1959.5" x2="3190" y1="2143.0254" y2="2143.0254"/><text fill="#000000" font-family="sans-serif" font-size="13" lengthAdjust="spacing" textLength="91" x="2527.25" y="2138.2832">Error response</text><polygon fill="#181818" points="1558.5,2168.3359,1548.5,2172.3359,1558.5,2176.3359" style="stroke:#181818;stroke-width:1.0;"/><line style="stroke:#181818;stroke-width:1.0;stroke-dasharray:2.0,2.0;" x1="1552.5" x2="1953.5" y1="2172.3359" y2="2172.3359"/><text fill="#000000" font-family="sans-serif" font-size="13" lengthAdjust="spacing" textLength="127" x="1687.5" y="2167.5938">reject requestObject</text><polygon fill="#181818" points="2810,2197.6465,2820,2201.6465,2810,2205.6465" style="stroke:#181818;stroke-width:1.0;"/><line style="stroke:#181818;stroke-width:1.0;" x1="1547.5" x2="2816" y1="2201.6465" y2="2201.6465"/><text fill="#000000" font-family="sans-serif" font-size="13" lengthAdjust="spacing" textLength="169" x="2100.25" y="2196.9043">request and build template</text><polygon fill="#181818" points="1558.5,2226.957,1548.5,2230.957,1558.5,2234.957" style="stroke:#181818;stroke-width:1.0;"/><line style="stroke:#181818;stroke-width:1.0;" x1="1552.5" x2="2821" y1="2230.957" y2="2230.957"/><text fill="#000000" font-family="sans-serif" font-size="13" lengthAdjust="spacing" textLength="78" x="2145.75" y="2226.2148">return HTML</text><polygon fill="#181818" points="1158.5,2256.2676,1148.5,2260.2676,1158.5,2264.2676" style="stroke:#181818;stroke-width:1.0;"/><line style="stroke:#181818;stroke-width:1.0;" x1="1152.5" x2="1546.5" y1="2260.2676" y2="2260.2676"/><text fill="#000000" font-family="sans-serif" font-size="13" lengthAdjust="spacing" textLength="78" x="1308.5" y="2255.5254">return HTML</text><polygon fill="#181818" points="56.5,2285.5781,46.5,2289.5781,56.5,2293.5781" style="stroke:#181818;stroke-width:1.0;"/><line style="stroke:#181818;stroke-width:1.0;" x1="50.5" x2="1146.5" y1="2289.5781" y2="2289.5781"/><text fill="#000000" font-family="sans-serif" font-size="13" lengthAdjust="spacing" textLength="108" x="542.5" y="2284.8359">render error page</text><polygon fill="#181818" points="1965.5,2321.8887,1955.5,2325.8887,1965.5,2329.8887" style="stroke:#181818;stroke-width:1.0;"/><line style="stroke:#181818;stroke-width:1.0;" x1="1959.5" x2="3190" y1="2325.8887" y2="2325.8887"/><text fill="#000000" font-family="sans-serif" font-size="13" lengthAdjust="spacing" textLength="77" x="2534.25" y="2321.1465">ok response</text><polygon fill="#181818" points="1558.5,2351.1992,1548.5,2355.1992,1558.5,2359.1992" style="stroke:#181818;stroke-width:1.0;"/><line style="stroke:#181818;stroke-width:1.0;" x1="1552.5" x2="1953.5" y1="2355.1992" y2="2355.1992"/><text fill="#000000" font-family="sans-serif" font-size="13" lengthAdjust="spacing" textLength="96" x="1703" y="2350.457">resolve request</text><polygon fill="#181818" points="2507,2380.5098,2517,2384.5098,2507,2388.5098" style="stroke:#181818;stroke-width:1.0;"/><line style="stroke:#181818;stroke-width:1.0;" x1="1337" x2="2513" y1="2384.5098" y2="2384.5098"/><text fill="#000000" font-family="sans-serif" font-size="13" lengthAdjust="spacing" textLength="169" x="1843.5" y="2379.7676">request and build template</text><polygon fill="#181818" points="1348,2409.8203,1338,2413.8203,1348,2417.8203" style="stroke:#181818;stroke-width:1.0;"/><line style="stroke:#181818;stroke-width:1.0;" x1="1342" x2="2518" y1="2413.8203" y2="2413.8203"/><text fill="#000000" font-family="sans-serif" font-size="13" lengthAdjust="spacing" textLength="78" x="1889" y="2409.0781">return HTML</text><polygon fill="#181818" points="745,2439.1309,735,2443.1309,745,2447.1309" style="stroke:#181818;stroke-width:1.0;"/><line style="stroke:#181818;stroke-width:1.0;" x1="739" x2="1336" y1="2443.1309" y2="2443.1309"/><text fill="#000000" font-family="sans-serif" font-size="13" lengthAdjust="spacing" textLength="78" x="996.5" y="2438.3887">return HTML</text><polygon fill="#181818" points="56.5,2468.4414,46.5,2472.4414,56.5,2476.4414" style="stroke:#181818;stroke-width:1.0;"/><line style="stroke:#181818;stroke-width:1.0;" x1="50.5" x2="733" y1="2472.4414" y2="2472.4414"/><text fill="#000000" font-family="sans-serif" font-size="13" lengthAdjust="spacing" textLength="80" x="349.75" y="2467.6992">render HTML</text><!--SRC=[tLLDKzim4BtxLsnfPw0p-RXd66PCC4ne6jF4jDDJHv6NH8aikPOSoh_lMdP2J6p8eLnwOOYq-xIxxxtrKiG8kP92hJ7sFWZ5PKud2rIO2TwTIytNffTAfcoUICypQw5Ibh44PlP98XXBOSKLx5_XxnmLnwze35kWByL29QWiSFg3cUTHc1LSf8GAFhUQZavFJs4S3lqnJCFxQ3IvgGNT4xA8VMjHnOoGxmWMpi_xgppJMJTXYduNB_Hp5zXbkyYBYnfGy2T5PN2AN6VnyIXzBFEwcKli3rpA94_ccFK7gTPo-x-npERcnQitvJY3Z9AsZsBnW-9SvyDm4at3yJYOWZ-vWcdmxJwOHH1UtWR3QDRUmL0hcsafCIF8UeqzlhlhhQWW-4WqBEqJIgaVQuXN6Nkm5MmDC2ukZiUvBMOIRZ3R27mCvolaba1M-wTNVjXRe3tx_1hE3ThzaWmb4SxYyFHjg5a-JqGzRrUOERphfSpovI6auoWAljwD_IXuXOu84xAAnMtR-vfweQ0NPAdLsZtADgGuiaYRUlPU-EKKPFgLLmyWND7Net4KJ6TELT_zyUZAZy9fOmSpb3GNeTLt9aNCTgQyz8TV0if-bcWj-vBnDRtth9iowpQydqw2dt0z3dzupkBGlMYsyG2u57mDvIIW6eo1OYTvZHc4rEO20cDIRa6sc7olka_LlFoxqP12prgGEaroxZHoqO6JQoOanc0rF20f21px4AEbStFosVFQwgLMMknNTU8ykEldjKQQSJfDTZgwZ_hhf0fMDFCfSmhRvaMwOALza8qMwHokOaBUAULmJm_0E8MQNJbCnQLq39HUXdbkhLRl8PfDQGeSgJItRxPwwANZfq0iJFIp2ygcCQQvluE6Ml88iMa93sZ0GiOq8Fg-6mlQcS9h2YM4WytWA2JEvkN55eQcIn9sIlIb_SSovZgXROL0JbmOU21nFIvHLNgnGYtgmob3M9fccXWljCvazO5y3c5nZ74_JmizK3TF94HjbzHVRcYc09KzN56XkjPPqjhKyTOWIAznqkVTnadhOg6QL1UCTq5fA4laIwOMQDg89x1cuWbBomtkSNRazcdz0Xz1NkNgDnZw3_VWNm00]--></g></svg>