<?xml version="1.0" encoding="us-ascii" standalone="no"?><svg xmlns="http://www.w3.org/2000/svg" xmlns:xlink="http://www.w3.org/1999/xlink" contentStyleType="text/css" height="1995px" preserveAspectRatio="none" style="width:3585px;height:1995px;background:#FFFFFF;" version="1.1" viewBox="0 0 3585 1995" width="3585px" zoomAndPan="magnify"><defs/><g><rect fill="none" height="193.1738" style="stroke:#000000;stroke-width:1.5;" width="3569" x="10" y="245.8398"/><rect fill="none" height="193.1738" style="stroke:#000000;stroke-width:1.5;" width="3569" x="10" y="570.2559"/><rect fill="none" height="163.8633" style="stroke:#000000;stroke-width:1.5;" width="3418" x="10" y="982.6035"/><rect fill="none" height="193.1738" style="stroke:#000000;stroke-width:1.5;" width="3569" x="10" y="1307.0195"/><rect fill="none" height="193.1738" style="stroke:#000000;stroke-width:1.5;" width="3569" x="10" y="1660.7461"/><line style="stroke:#181818;stroke-width:0.5;stroke-dasharray:5.0,5.0;" x1="45" x2="45" y1="52.9766" y2="1988.1621"/><line style="stroke:#181818;stroke-width:0.5;stroke-dasharray:5.0,5.0;" x1="301" x2="301" y1="52.9766" y2="1988.1621"/><line style="stroke:#181818;stroke-width:0.5;stroke-dasharray:5.0,5.0;" x1="654" x2="654" y1="52.9766" y2="1988.1621"/><line style="stroke:#181818;stroke-width:0.5;stroke-dasharray:5.0,5.0;" x1="886" x2="886" y1="52.9766" y2="1988.1621"/><line style="stroke:#181818;stroke-width:0.5;stroke-dasharray:5.0,5.0;" x1="1064" x2="1064" y1="52.9766" y2="1988.1621"/><line style="stroke:#181818;stroke-width:0.5;stroke-dasharray:5.0,5.0;" x1="1228" x2="1228" y1="52.9766" y2="1988.1621"/><line style="stroke:#181818;stroke-width:0.5;stroke-dasharray:5.0,5.0;" x1="1445" x2="1445" y1="52.9766" y2="1988.1621"/><line style="stroke:#181818;stroke-width:0.5;stroke-dasharray:5.0,5.0;" x1="1669" x2="1669" y1="52.9766" y2="1988.1621"/><line style="stroke:#181818;stroke-width:0.5;stroke-dasharray:5.0,5.0;" x1="1850" x2="1850" y1="52.9766" y2="1988.1621"/><line style="stroke:#181818;stroke-width:0.5;stroke-dasharray:5.0,5.0;" x1="2031" x2="2031" y1="52.9766" y2="1988.1621"/><line style="stroke:#181818;stroke-width:0.5;stroke-dasharray:5.0,5.0;" x1="2226" x2="2226" y1="52.9766" y2="1988.1621"/><line style="stroke:#181818;stroke-width:0.5;stroke-dasharray:5.0,5.0;" x1="2456" x2="2456" y1="52.9766" y2="1988.1621"/><line style="stroke:#181818;stroke-width:0.5;stroke-dasharray:5.0,5.0;" x1="2726" x2="2726" y1="52.9766" y2="1988.1621"/><line style="stroke:#181818;stroke-width:0.5;stroke-dasharray:5.0,5.0;" x1="2976" x2="2976" y1="52.9766" y2="1988.1621"/><line style="stroke:#181818;stroke-width:0.5;stroke-dasharray:5.0,5.0;" x1="3176" x2="3176" y1="52.9766" y2="1988.1621"/><line style="stroke:#181818;stroke-width:0.5;stroke-dasharray:5.0,5.0;" x1="3342" x2="3342" y1="52.9766" y2="1988.1621"/><line style="stroke:#181818;stroke-width:0.5;stroke-dasharray:5.0,5.0;" x1="3498" x2="3498" y1="52.9766" y2="1988.1621"/><rect fill="#E2E2F0" height="30.4883" rx="2.5" ry="2.5" style="stroke:#181818;stroke-width:0.5;" width="51" x="20" y="21.4883"/><text fill="#000000" font-family="sans-serif" font-size="14" lengthAdjust="spacing" textLength="37" x="27" y="42.0234">Actor</text><rect fill="#E2E2F0" height="46.9766" rx="2.5" ry="2.5" style="stroke:#181818;stroke-width:0.5;" width="441" x="81" y="5"/><text fill="#000000" font-family="sans-serif" font-size="14" font-style="italic" lengthAdjust="spacing" textLength="427" x="88" y="25.5352">&#171;/trial-management/trials/:trialNumber/:locationCode/detail&#187;</text><text fill="#000000" font-family="sans-serif" font-size="14" lengthAdjust="spacing" textLength="103" x="250" y="42.0234">TrialDetailPage</text><rect fill="#E2E2F0" height="46.9766" rx="2.5" ry="2.5" style="stroke:#181818;stroke-width:0.5;" width="244" x="532" y="5"/><text fill="#000000" font-family="sans-serif" font-size="14" font-style="italic" lengthAdjust="spacing" textLength="230" x="539" y="25.5352">&#171;/trial-management/create-trial&#187;</text><text fill="#000000" font-family="sans-serif" font-size="14" lengthAdjust="spacing" textLength="109" x="599.5" y="42.0234">CreateTrialPage</text><rect fill="#E2E2F0" height="46.9766" rx="2.5" ry="2.5" style="stroke:#181818;stroke-width:0.5;" width="201" x="786" y="5"/><text fill="#000000" font-family="sans-serif" font-size="14" font-style="italic" lengthAdjust="spacing" textLength="187" x="793" y="25.5352">&#171;/trial-management/trials&#187;</text><text fill="#000000" font-family="sans-serif" font-size="14" lengthAdjust="spacing" textLength="125" x="824" y="42.0234">ManageTrialsPage</text><rect fill="#E2E2F0" height="46.9766" rx="2.5" ry="2.5" style="stroke:#181818;stroke-width:0.5;" width="134" x="997" y="5"/><text fill="#000000" font-family="sans-serif" font-size="14" font-style="italic" lengthAdjust="spacing" textLength="56" x="1036" y="25.5352">&#171;/error&#187;</text><text fill="#000000" font-family="sans-serif" font-size="14" lengthAdjust="spacing" textLength="120" x="1004" y="42.0234">GenericErrorPage</text><rect fill="#FFFFE0" height="46.9766" rx="2.5" ry="2.5" style="stroke:#181818;stroke-width:0.5;" width="175" x="1141" y="5"/><text fill="#000000" font-family="sans-serif" font-size="14" font-style="italic" lengthAdjust="spacing" textLength="161" x="1148" y="25.5352">&#171;edit-trial.controller.js&#187;</text><text fill="#000000" font-family="sans-serif" font-size="14" lengthAdjust="spacing" textLength="127" x="1165" y="42.0234">EditTrialController</text><rect fill="#FFFFE0" height="46.9766" rx="2.5" ry="2.5" style="stroke:#181818;stroke-width:0.5;" width="239" x="1326" y="5"/><text fill="#000000" font-family="sans-serif" font-size="14" font-style="italic" lengthAdjust="spacing" textLength="225" x="1333" y="25.5352">&#171;trial-management.controller.js&#187;</text><text fill="#000000" font-family="sans-serif" font-size="14" lengthAdjust="spacing" textLength="190" x="1350.5" y="42.0234">TrialManagementController</text><rect fill="#FFFFE0" height="46.9766" rx="2.5" ry="2.5" style="stroke:#181818;stroke-width:0.5;" width="188" x="1575" y="5"/><text fill="#000000" font-family="sans-serif" font-size="14" font-style="italic" lengthAdjust="spacing" textLength="174" x="1582" y="25.5352">&#171;courtroomsObject.get()&#187;</text><text fill="#000000" font-family="sans-serif" font-size="14" lengthAdjust="spacing" textLength="127" x="1605.5" y="42.0234">CourtroomsObject</text><rect fill="#FFFFE0" height="46.9766" rx="2.5" ry="2.5" style="stroke:#181818;stroke-width:0.5;" width="154" x="1773" y="5"/><text fill="#000000" font-family="sans-serif" font-size="14" font-style="italic" lengthAdjust="spacing" textLength="140" x="1780" y="25.5352">&#171;judgesObject.get()&#187;</text><text fill="#000000" font-family="sans-serif" font-size="14" lengthAdjust="spacing" textLength="90" x="1805" y="42.0234">JudgesObject</text><rect fill="#FFFFE0" height="46.9766" rx="2.5" ry="2.5" style="stroke:#181818;stroke-width:0.5;" width="189" x="1937" y="5"/><text fill="#000000" font-family="sans-serif" font-size="14" font-style="italic" lengthAdjust="spacing" textLength="175" x="1944" y="25.5352">&#171;createTrialObject.post()&#187;</text><text fill="#000000" font-family="sans-serif" font-size="14" lengthAdjust="spacing" textLength="120" x="1971.5" y="42.0234">CreateTrialObject</text><rect fill="#FFFFE0" height="46.9766" rx="2.5" ry="2.5" style="stroke:#181818;stroke-width:0.5;" width="181" x="2136" y="5"/><text fill="#000000" font-family="sans-serif" font-size="14" font-style="italic" lengthAdjust="spacing" textLength="167" x="2143" y="25.5352">&#171;trialDetailsObject.get()&#187;</text><text fill="#000000" font-family="sans-serif" font-size="14" lengthAdjust="spacing" textLength="121" x="2166" y="42.0234">TrialDetailsObject</text><rect fill="#E6E6FA" height="46.9766" rx="2.5" ry="2.5" style="stroke:#181818;stroke-width:0.5;" width="258" x="2327" y="5"/><text fill="#000000" font-family="sans-serif" font-size="14" font-style="italic" lengthAdjust="spacing" textLength="244" x="2334" y="25.5352">&#171;trial-management/trial-detail.njk&#187;</text><text fill="#000000" font-family="sans-serif" font-size="14" lengthAdjust="spacing" textLength="134" x="2389" y="42.0234">TrialDetailTemplate</text><rect fill="#E6E6FA" height="46.9766" rx="2.5" ry="2.5" style="stroke:#181818;stroke-width:0.5;" width="262" x="2595" y="5"/><text fill="#000000" font-family="sans-serif" font-size="14" font-style="italic" lengthAdjust="spacing" textLength="248" x="2602" y="25.5352">&#171;trial-management/create-trial.njk&#187;</text><text fill="#000000" font-family="sans-serif" font-size="14" lengthAdjust="spacing" textLength="140" x="2656" y="42.0234">CreateTrialTemplate</text><rect fill="#E6E6FA" height="46.9766" rx="2.5" ry="2.5" style="stroke:#181818;stroke-width:0.5;" width="219" x="2867" y="5"/><text fill="#000000" font-family="sans-serif" font-size="14" font-style="italic" lengthAdjust="spacing" textLength="205" x="2874" y="25.5352">&#171;trial-management/trials.njk&#187;</text><text fill="#000000" font-family="sans-serif" font-size="14" lengthAdjust="spacing" textLength="102" x="2925.5" y="42.0234">TrialsTemplate</text><rect fill="#E6E6FA" height="46.9766" rx="2.5" ry="2.5" style="stroke:#181818;stroke-width:0.5;" width="160" x="3096" y="5"/><text fill="#000000" font-family="sans-serif" font-size="14" font-style="italic" lengthAdjust="spacing" textLength="146" x="3103" y="25.5352">&#171;_errors/generic.njk&#187;</text><text fill="#000000" font-family="sans-serif" font-size="14" lengthAdjust="spacing" textLength="99" x="3126.5" y="42.0234">ErrorTemplate</text><rect fill="#E2E2F0" height="30.4883" rx="2.5" ry="2.5" style="stroke:#181818;stroke-width:0.5;" width="152" x="3266" y="21.4883"/><text fill="#000000" font-family="sans-serif" font-size="14" lengthAdjust="spacing" textLength="138" x="3273" y="42.0234">CreateTrialValidator</text><rect fill="#E2E2F0" height="30.4883" rx="2.5" ry="2.5" style="stroke:#181818;stroke-width:0.5;" width="141" x="3428" y="21.4883"/><text fill="#000000" font-family="sans-serif" font-size="14" lengthAdjust="spacing" textLength="127" x="3435" y="42.0234">BackendController</text><polygon fill="#181818" points="289.5,80.2871,299.5,84.2871,289.5,88.2871" style="stroke:#181818;stroke-width:1.0;"/><line style="stroke:#181818;stroke-width:1.0;" x1="45.5" x2="295.5" y1="84.2871" y2="84.2871"/><text fill="#000000" font-family="sans-serif" font-size="13" lengthAdjust="spacing" textLength="141" x="103" y="79.5449">Click 'Edit trial button'</text><polygon fill="#181818" points="1216.5,109.5977,1226.5,113.5977,1216.5,117.5977" style="stroke:#181818;stroke-width:1.0;"/><line style="stroke:#181818;stroke-width:1.0;" x1="301.5" x2="1222.5" y1="113.5977" y2="113.5977"/><text fill="#000000" font-family="sans-serif" font-size="13" lengthAdjust="spacing" textLength="121" x="704.5" y="108.8555">call page controller</text><polygon fill="#181818" points="1657,138.9082,1667,142.9082,1657,146.9082" style="stroke:#181818;stroke-width:1.0;"/><line style="stroke:#181818;stroke-width:1.0;" x1="1228.5" x2="1663" y1="142.9082" y2="142.9082"/><text fill="#000000" font-family="sans-serif" font-size="13" lengthAdjust="spacing" textLength="126" x="1385.75" y="138.166">build request object</text><polygon fill="#181818" points="3486.5,168.2188,3496.5,172.2188,3486.5,176.2188" style="stroke:#181818;stroke-width:1.0;"/><line style="stroke:#181818;stroke-width:1.0;" x1="1669" x2="3492.5" y1="172.2188" y2="172.2188"/><text fill="#000000" font-family="sans-serif" font-size="13" lengthAdjust="spacing" textLength="138" x="2514.75" y="167.4766">send backend request</text><polygon fill="#181818" points="1680,197.5293,1670,201.5293,1680,205.5293" style="stroke:#181818;stroke-width:1.0;"/><line style="stroke:#181818;stroke-width:1.0;" x1="1674" x2="3497.5" y1="201.5293" y2="201.5293"/><text fill="#000000" font-family="sans-serif" font-size="13" lengthAdjust="spacing" textLength="77" x="2545.25" y="196.7871">ok response</text><polygon fill="#181818" points="1239.5,226.8398,1229.5,230.8398,1239.5,234.8398" style="stroke:#181818;stroke-width:1.0;"/><line style="stroke:#181818;stroke-width:1.0;" x1="1233.5" x2="1668" y1="230.8398" y2="230.8398"/><text fill="#000000" font-family="sans-serif" font-size="13" lengthAdjust="spacing" textLength="96" x="1400.75" y="226.0977">resolve request</text><path d="M10,245.8398 L72,245.8398 L72,253.1504 L62,263.1504 L10,263.1504 L10,245.8398 " fill="#EEEEEE" style="stroke:#000000;stroke-width:1.5;"/><rect fill="none" height="193.1738" style="stroke:#000000;stroke-width:1.5;" width="3569" x="10" y="245.8398"/><text fill="#000000" font-family="sans-serif" font-size="13" font-weight="bold" lengthAdjust="spacing" textLength="17" x="25" y="259.4082">alt</text><text fill="#000000" font-family="sans-serif" font-size="11" font-weight="bold" lengthAdjust="spacing" textLength="157" x="87" y="258.4746">[Failed to fetch courtrooms]</text><polygon fill="#181818" points="1680,280.4609,1670,284.4609,1680,288.4609" style="stroke:#181818;stroke-width:1.0;"/><line style="stroke:#181818;stroke-width:1.0;stroke-dasharray:2.0,2.0;" x1="1674" x2="3497.5" y1="284.4609" y2="284.4609"/><text fill="#000000" font-family="sans-serif" font-size="13" lengthAdjust="spacing" textLength="91" x="2538.25" y="279.7188">error response</text><polygon fill="#181818" points="1239.5,309.7715,1229.5,313.7715,1239.5,317.7715" style="stroke:#181818;stroke-width:1.0;"/><line style="stroke:#181818;stroke-width:1.0;stroke-dasharray:2.0,2.0;" x1="1233.5" x2="1668" y1="313.7715" y2="313.7715"/><text fill="#000000" font-family="sans-serif" font-size="13" lengthAdjust="spacing" textLength="127" x="1385.25" y="309.0293">reject requestObject</text><polygon fill="#181818" points="3164,339.082,3174,343.082,3164,347.082" style="stroke:#181818;stroke-width:1.0;"/><line style="stroke:#181818;stroke-width:1.0;" x1="1228.5" x2="3170" y1="343.082" y2="343.082"/><text fill="#000000" font-family="sans-serif" font-size="13" lengthAdjust="spacing" textLength="169" x="2117.75" y="338.3398">request and build template</text><polygon fill="#181818" points="1239.5,368.3926,1229.5,372.3926,1239.5,376.3926" style="stroke:#181818;stroke-width:1.0;"/><line style="stroke:#181818;stroke-width:1.0;" x1="1233.5" x2="3175" y1="372.3926" y2="372.3926"/><text fill="#000000" font-family="sans-serif" font-size="13" lengthAdjust="spacing" textLength="78" x="2163.25" y="367.6504">return HTML</text><polygon fill="#181818" points="1075,397.7031,1065,401.7031,1075,405.7031" style="stroke:#181818;stroke-width:1.0;"/><line style="stroke:#181818;stroke-width:1.0;" x1="1069" x2="1227.5" y1="401.7031" y2="401.7031"/><text fill="#000000" font-family="sans-serif" font-size="13" lengthAdjust="spacing" textLength="78" x="1107.25" y="396.9609">return HTML</text><polygon fill="#181818" points="56.5,427.0137,46.5,431.0137,56.5,435.0137" style="stroke:#181818;stroke-width:1.0;"/><line style="stroke:#181818;stroke-width:1.0;" x1="50.5" x2="1063" y1="431.0137" y2="431.0137"/><text fill="#000000" font-family="sans-serif" font-size="13" lengthAdjust="spacing" textLength="108" x="500.75" y="426.2715">render error page</text><polygon fill="#181818" points="1838,463.3242,1848,467.3242,1838,471.3242" style="stroke:#181818;stroke-width:1.0;"/><line style="stroke:#181818;stroke-width:1.0;" x1="1228.5" x2="1844" y1="467.3242" y2="467.3242"/><text fill="#000000" font-family="sans-serif" font-size="13" lengthAdjust="spacing" textLength="126" x="1476.25" y="462.582">build request object</text><polygon fill="#181818" points="3486.5,492.6348,3496.5,496.6348,3486.5,500.6348" style="stroke:#181818;stroke-width:1.0;"/><line style="stroke:#181818;stroke-width:1.0;" x1="1850" x2="3492.5" y1="496.6348" y2="496.6348"/><text fill="#000000" font-family="sans-serif" font-size="13" lengthAdjust="spacing" textLength="138" x="2605.25" y="491.8926">send backend request</text><polygon fill="#181818" points="1861,521.9453,1851,525.9453,1861,529.9453" style="stroke:#181818;stroke-width:1.0;"/><line style="stroke:#181818;stroke-width:1.0;" x1="1855" x2="3497.5" y1="525.9453" y2="525.9453"/><text fill="#000000" font-family="sans-serif" font-size="13" lengthAdjust="spacing" textLength="77" x="2635.75" y="521.2031">ok response</text><polygon fill="#181818" points="1239.5,551.2559,1229.5,555.2559,1239.5,559.2559" style="stroke:#181818;stroke-width:1.0;"/><line style="stroke:#181818;stroke-width:1.0;" x1="1233.5" x2="1849" y1="555.2559" y2="555.2559"/><text fill="#000000" font-family="sans-serif" font-size="13" lengthAdjust="spacing" textLength="96" x="1491.25" y="550.5137">resolve request</text><path d="M10,570.2559 L72,570.2559 L72,577.5664 L62,587.5664 L10,587.5664 L10,570.2559 " fill="#EEEEEE" style="stroke:#000000;stroke-width:1.5;"/><rect fill="none" height="193.1738" style="stroke:#000000;stroke-width:1.5;" width="3569" x="10" y="570.2559"/><text fill="#000000" font-family="sans-serif" font-size="13" font-weight="bold" lengthAdjust="spacing" textLength="17" x="25" y="583.8242">alt</text><text fill="#000000" font-family="sans-serif" font-size="11" font-weight="bold" lengthAdjust="spacing" textLength="129" x="87" y="582.8906">[Failed to fetch judges]</text><polygon fill="#181818" points="1861,604.877,1851,608.877,1861,612.877" style="stroke:#181818;stroke-width:1.0;"/><line style="stroke:#181818;stroke-width:1.0;stroke-dasharray:2.0,2.0;" x1="1855" x2="3497.5" y1="608.877" y2="608.877"/><text fill="#000000" font-family="sans-serif" font-size="13" lengthAdjust="spacing" textLength="91" x="2628.75" y="604.1348">error response</text><polygon fill="#181818" points="1239.5,634.1875,1229.5,638.1875,1239.5,642.1875" style="stroke:#181818;stroke-width:1.0;"/><line style="stroke:#181818;stroke-width:1.0;stroke-dasharray:2.0,2.0;" x1="1233.5" x2="1849" y1="638.1875" y2="638.1875"/><text fill="#000000" font-family="sans-serif" font-size="13" lengthAdjust="spacing" textLength="127" x="1475.75" y="633.4453">reject requestObject</text><polygon fill="#181818" points="3164,663.498,3174,667.498,3164,671.498" style="stroke:#181818;stroke-width:1.0;"/><line style="stroke:#181818;stroke-width:1.0;" x1="1228.5" x2="3170" y1="667.498" y2="667.498"/><text fill="#000000" font-family="sans-serif" font-size="13" lengthAdjust="spacing" textLength="169" x="2117.75" y="662.7559">request and build template</text><polygon fill="#181818" points="1239.5,692.8086,1229.5,696.8086,1239.5,700.8086" style="stroke:#181818;stroke-width:1.0;"/><line style="stroke:#181818;stroke-width:1.0;" x1="1233.5" x2="3175" y1="696.8086" y2="696.8086"/><text fill="#000000" font-family="sans-serif" font-size="13" lengthAdjust="spacing" textLength="78" x="2163.25" y="692.0664">return HTML</text><polygon fill="#181818" points="1075,722.1191,1065,726.1191,1075,730.1191" style="stroke:#181818;stroke-width:1.0;"/><line style="stroke:#181818;stroke-width:1.0;" x1="1069" x2="1227.5" y1="726.1191" y2="726.1191"/><text fill="#000000" font-family="sans-serif" font-size="13" lengthAdjust="spacing" textLength="78" x="1107.25" y="721.377">return HTML</text><polygon fill="#181818" points="56.5,751.4297,46.5,755.4297,56.5,759.4297" style="stroke:#181818;stroke-width:1.0;"/><line style="stroke:#181818;stroke-width:1.0;" x1="50.5" x2="1063" y1="755.4297" y2="755.4297"/><text fill="#000000" font-family="sans-serif" font-size="13" lengthAdjust="spacing" textLength="108" x="500.75" y="750.6875">render error page</text><polygon fill="#181818" points="2714,787.7402,2724,791.7402,2714,795.7402" style="stroke:#181818;stroke-width:1.0;"/><line style="stroke:#181818;stroke-width:1.0;" x1="1228.5" x2="2720" y1="791.7402" y2="791.7402"/><text fill="#000000" font-family="sans-serif" font-size="13" lengthAdjust="spacing" textLength="169" x="1892.75" y="786.998">request and build template</text><polygon fill="#181818" points="1239.5,817.0508,1229.5,821.0508,1239.5,825.0508" style="stroke:#181818;stroke-width:1.0;"/><line style="stroke:#181818;stroke-width:1.0;" x1="1233.5" x2="2725" y1="821.0508" y2="821.0508"/><text fill="#000000" font-family="sans-serif" font-size="13" lengthAdjust="spacing" textLength="78" x="1938.25" y="816.3086">return HTML</text><polygon fill="#181818" points="665,846.3613,655,850.3613,665,854.3613" style="stroke:#181818;stroke-width:1.0;"/><line style="stroke:#181818;stroke-width:1.0;" x1="659" x2="1227.5" y1="850.3613" y2="850.3613"/><text fill="#000000" font-family="sans-serif" font-size="13" lengthAdjust="spacing" textLength="78" x="902.25" y="845.6191">return HTML</text><polygon fill="#181818" points="56.5,875.6719,46.5,879.6719,56.5,883.6719" style="stroke:#181818;stroke-width:1.0;"/><line style="stroke:#181818;stroke-width:1.0;" x1="50.5" x2="653" y1="879.6719" y2="879.6719"/><text fill="#000000" font-family="sans-serif" font-size="13" lengthAdjust="spacing" textLength="80" x="309.75" y="874.9297">render HTML</text><polygon fill="#181818" points="642,904.9824,652,908.9824,642,912.9824" style="stroke:#181818;stroke-width:1.0;"/><line style="stroke:#181818;stroke-width:1.0;" x1="45.5" x2="648" y1="908.9824" y2="908.9824"/><text fill="#000000" font-family="sans-serif" font-size="13" lengthAdjust="spacing" textLength="293" x="203.25" y="904.2402">Update trial details in form and click 'Edit trial'</text><polygon fill="#181818" points="1216.5,934.293,1226.5,938.293,1216.5,942.293" style="stroke:#181818;stroke-width:1.0;"/><line style="stroke:#181818;stroke-width:1.0;" x1="654" x2="1222.5" y1="938.293" y2="938.293"/><text fill="#000000" font-family="sans-serif" font-size="13" lengthAdjust="spacing" textLength="107" x="887.75" y="933.5508">POST trial details</text><polygon fill="#181818" points="3330,963.6035,3340,967.6035,3330,971.6035" style="stroke:#181818;stroke-width:1.0;"/><line style="stroke:#181818;stroke-width:1.0;" x1="1228.5" x2="3336" y1="967.6035" y2="967.6035"/><text fill="#000000" font-family="sans-serif" font-size="13" lengthAdjust="spacing" textLength="124" x="2223.25" y="962.8613">validate trial details</text><path d="M10,982.6035 L72,982.6035 L72,989.9141 L62,999.9141 L10,999.9141 L10,982.6035 " fill="#EEEEEE" style="stroke:#000000;stroke-width:1.5;"/><rect fill="none" height="163.8633" style="stroke:#000000;stroke-width:1.5;" width="3418" x="10" y="982.6035"/><text fill="#000000" font-family="sans-serif" font-size="13" font-weight="bold" lengthAdjust="spacing" textLength="17" x="25" y="996.1719">alt</text><text fill="#000000" font-family="sans-serif" font-size="11" font-weight="bold" lengthAdjust="spacing" textLength="160" x="87" y="995.2383">[invalid trial details entered]</text><polygon fill="#181818" points="1239.5,1017.2246,1229.5,1021.2246,1239.5,1025.2246" style="stroke:#181818;stroke-width:1.0;"/><line style="stroke:#181818;stroke-width:1.0;" x1="1233.5" x2="3341" y1="1021.2246" y2="1021.2246"/><text fill="#000000" font-family="sans-serif" font-size="13" lengthAdjust="spacing" textLength="88" x="2241.25" y="1016.4824">invalid details</text><polygon fill="#181818" points="2714,1046.5352,2724,1050.5352,2714,1054.5352" style="stroke:#181818;stroke-width:1.0;"/><line style="stroke:#181818;stroke-width:1.0;" x1="1228.5" x2="2720" y1="1050.5352" y2="1050.5352"/><text fill="#000000" font-family="sans-serif" font-size="13" lengthAdjust="spacing" textLength="169" x="1892.75" y="1045.793">request and build template</text><polygon fill="#181818" points="1239.5,1075.8457,1229.5,1079.8457,1239.5,1083.8457" style="stroke:#181818;stroke-width:1.0;"/><line style="stroke:#181818;stroke-width:1.0;" x1="1233.5" x2="2725" y1="1079.8457" y2="1079.8457"/><text fill="#000000" font-family="sans-serif" font-size="13" lengthAdjust="spacing" textLength="78" x="1938.25" y="1075.1035">return HTML</text><polygon fill="#181818" points="665,1105.1563,655,1109.1563,665,1113.1563" style="stroke:#181818;stroke-width:1.0;"/><line style="stroke:#181818;stroke-width:1.0;" x1="659" x2="1227.5" y1="1109.1563" y2="1109.1563"/><text fill="#000000" font-family="sans-serif" font-size="13" lengthAdjust="spacing" textLength="112" x="885.25" y="1104.4141">return error HTML</text><polygon fill="#181818" points="56.5,1134.4668,46.5,1138.4668,56.5,1142.4668" style="stroke:#181818;stroke-width:1.0;"/><line style="stroke:#181818;stroke-width:1.0;" x1="50.5" x2="653" y1="1138.4668" y2="1138.4668"/><text fill="#000000" font-family="sans-serif" font-size="13" lengthAdjust="spacing" textLength="133" x="283.25" y="1133.7246">render error message</text><polygon fill="#181818" points="1239.5,1170.7773,1229.5,1174.7773,1239.5,1178.7773" style="stroke:#181818;stroke-width:1.0;"/><line style="stroke:#181818;stroke-width:1.0;" x1="1233.5" x2="3341" y1="1174.7773" y2="1174.7773"/><text fill="#000000" font-family="sans-serif" font-size="13" lengthAdjust="spacing" textLength="127" x="2221.75" y="1170.0352">valid details entered</text><polygon fill="#181818" points="2019.5,1200.0879,2029.5,1204.0879,2019.5,1208.0879" style="stroke:#181818;stroke-width:1.0;"/><line style="stroke:#181818;stroke-width:1.0;" x1="1228.5" x2="2025.5" y1="1204.0879" y2="1204.0879"/><text fill="#000000" font-family="sans-serif" font-size="13" lengthAdjust="spacing" textLength="126" x="1567" y="1199.3457">build request object</text><polygon fill="#181818" points="3486.5,1229.3984,3496.5,1233.3984,3486.5,1237.3984" style="stroke:#181818;stroke-width:1.0;"/><line style="stroke:#181818;stroke-width:1.0;" x1="2031.5" x2="3492.5" y1="1233.3984" y2="1233.3984"/><text fill="#000000" font-family="sans-serif" font-size="13" lengthAdjust="spacing" textLength="138" x="2696" y="1228.6563">send backend request</text><polygon fill="#181818" points="2042.5,1258.709,2032.5,1262.709,2042.5,1266.709" style="stroke:#181818;stroke-width:1.0;"/><line style="stroke:#181818;stroke-width:1.0;" x1="2036.5" x2="3497.5" y1="1262.709" y2="1262.709"/><text fill="#000000" font-family="sans-serif" font-size="13" lengthAdjust="spacing" textLength="77" x="2726.5" y="1257.9668">ok response</text><polygon fill="#181818" points="1239.5,1288.0195,1229.5,1292.0195,1239.5,1296.0195" style="stroke:#181818;stroke-width:1.0;"/><line style="stroke:#181818;stroke-width:1.0;" x1="1233.5" x2="2030.5" y1="1292.0195" y2="1292.0195"/><text fill="#000000" font-family="sans-serif" font-size="13" lengthAdjust="spacing" textLength="96" x="1582" y="1287.2773">resolve request</text><path d="M10,1307.0195 L72,1307.0195 L72,1314.3301 L62,1324.3301 L10,1324.3301 L10,1307.0195 " fill="#EEEEEE" style="stroke:#000000;stroke-width:1.5;"/><rect fill="none" height="193.1738" style="stroke:#000000;stroke-width:1.5;" width="3569" x="10" y="1307.0195"/><text fill="#000000" font-family="sans-serif" font-size="13" font-weight="bold" lengthAdjust="spacing" textLength="17" x="25" y="1320.5879">alt</text><text fill="#000000" font-family="sans-serif" font-size="11" font-weight="bold" lengthAdjust="spacing" textLength="153" x="87" y="1319.6543">[Trial could not be created]</text><polygon fill="#181818" points="2042.5,1341.6406,2032.5,1345.6406,2042.5,1349.6406" style="stroke:#181818;stroke-width:1.0;"/><line style="stroke:#181818;stroke-width:1.0;stroke-dasharray:2.0,2.0;" x1="2036.5" x2="3497.5" y1="1345.6406" y2="1345.6406"/><text fill="#000000" font-family="sans-serif" font-size="13" lengthAdjust="spacing" textLength="91" x="2719.5" y="1340.8984">error response</text><polygon fill="#181818" points="1239.5,1370.9512,1229.5,1374.9512,1239.5,1378.9512" style="stroke:#181818;stroke-width:1.0;"/><line style="stroke:#181818;stroke-width:1.0;stroke-dasharray:2.0,2.0;" x1="1233.5" x2="2030.5" y1="1374.9512" y2="1374.9512"/><text fill="#000000" font-family="sans-serif" font-size="13" lengthAdjust="spacing" textLength="127" x="1566.5" y="1370.209">reject requestObject</text><polygon fill="#181818" points="3164,1400.2617,3174,1404.2617,3164,1408.2617" style="stroke:#181818;stroke-width:1.0;"/><line style="stroke:#181818;stroke-width:1.0;" x1="1228.5" x2="3170" y1="1404.2617" y2="1404.2617"/><text fill="#000000" font-family="sans-serif" font-size="13" lengthAdjust="spacing" textLength="169" x="2117.75" y="1399.5195">request and build template</text><polygon fill="#181818" points="1239.5,1429.5723,1229.5,1433.5723,1239.5,1437.5723" style="stroke:#181818;stroke-width:1.0;"/><line style="stroke:#181818;stroke-width:1.0;" x1="1233.5" x2="3175" y1="1433.5723" y2="1433.5723"/><text fill="#000000" font-family="sans-serif" font-size="13" lengthAdjust="spacing" textLength="78" x="2163.25" y="1428.8301">return HTML</text><polygon fill="#181818" points="1075,1458.8828,1065,1462.8828,1075,1466.8828" style="stroke:#181818;stroke-width:1.0;"/><line style="stroke:#181818;stroke-width:1.0;" x1="1069" x2="1227.5" y1="1462.8828" y2="1462.8828"/><text fill="#000000" font-family="sans-serif" font-size="13" lengthAdjust="spacing" textLength="78" x="1107.25" y="1458.1406">return HTML</text><polygon fill="#181818" points="56.5,1488.1934,46.5,1492.1934,56.5,1496.1934" style="stroke:#181818;stroke-width:1.0;"/><line style="stroke:#181818;stroke-width:1.0;" x1="50.5" x2="1063" y1="1492.1934" y2="1492.1934"/><text fill="#000000" font-family="sans-serif" font-size="13" lengthAdjust="spacing" textLength="108" x="500.75" y="1487.4512">render error page</text><polygon fill="#181818" points="1433.5,1524.5039,1443.5,1528.5039,1433.5,1532.5039" style="stroke:#181818;stroke-width:1.0;"/><line style="stroke:#181818;stroke-width:1.0;" x1="1228.5" x2="1439.5" y1="1528.5039" y2="1528.5039"/><text fill="#000000" font-family="sans-serif" font-size="13" lengthAdjust="spacing" textLength="121" x="1276.5" y="1523.7617">call page controller</text><polygon fill="#181818" points="2214.5,1553.8145,2224.5,1557.8145,2214.5,1561.8145" style="stroke:#181818;stroke-width:1.0;"/><line style="stroke:#181818;stroke-width:1.0;" x1="1445.5" x2="2220.5" y1="1557.8145" y2="1557.8145"/><text fill="#000000" font-family="sans-serif" font-size="13" lengthAdjust="spacing" textLength="126" x="1773" y="1553.0723">build request object</text><polygon fill="#181818" points="3486.5,1583.125,3496.5,1587.125,3486.5,1591.125" style="stroke:#181818;stroke-width:1.0;"/><line style="stroke:#181818;stroke-width:1.0;" x1="2226.5" x2="3492.5" y1="1587.125" y2="1587.125"/><text fill="#000000" font-family="sans-serif" font-size="13" lengthAdjust="spacing" textLength="138" x="2793.5" y="1582.3828">send backend request</text><polygon fill="#181818" points="2237.5,1612.4355,2227.5,1616.4355,2237.5,1620.4355" style="stroke:#181818;stroke-width:1.0;"/><line style="stroke:#181818;stroke-width:1.0;" x1="2231.5" x2="3497.5" y1="1616.4355" y2="1616.4355"/><text fill="#000000" font-family="sans-serif" font-size="13" lengthAdjust="spacing" textLength="77" x="2824" y="1611.6934">ok response</text><polygon fill="#181818" points="1456.5,1641.7461,1446.5,1645.7461,1456.5,1649.7461" style="stroke:#181818;stroke-width:1.0;"/><line style="stroke:#181818;stroke-width:1.0;" x1="1450.5" x2="2225.5" y1="1645.7461" y2="1645.7461"/><text fill="#000000" font-family="sans-serif" font-size="13" lengthAdjust="spacing" textLength="96" x="1788" y="1641.0039">resolve request</text><path d="M10,1660.7461 L72,1660.7461 L72,1668.0566 L62,1678.0566 L10,1678.0566 L10,1660.7461 " fill="#EEEEEE" style="stroke:#000000;stroke-width:1.5;"/><rect fill="none" height="193.1738" style="stroke:#000000;stroke-width:1.5;" width="3569" x="10" y="1660.7461"/><text fill="#000000" font-family="sans-serif" font-size="13" font-weight="bold" lengthAdjust="spacing" textLength="17" x="25" y="1674.3145">alt</text><text fill="#000000" font-family="sans-serif" font-size="11" font-weight="bold" lengthAdjust="spacing" textLength="156" x="87" y="1673.3809">[Failed to fetch trial details]</text><polygon fill="#181818" points="2237.5,1695.3672,2227.5,1699.3672,2237.5,1703.3672" style="stroke:#181818;stroke-width:1.0;"/><line style="stroke:#181818;stroke-width:1.0;stroke-dasharray:2.0,2.0;" x1="2231.5" x2="3497.5" y1="1699.3672" y2="1699.3672"/><text fill="#000000" font-family="sans-serif" font-size="13" lengthAdjust="spacing" textLength="91" x="2817" y="1694.625">error response</text><polygon fill="#181818" points="1456.5,1724.6777,1446.5,1728.6777,1456.5,1732.6777" style="stroke:#181818;stroke-width:1.0;"/><line style="stroke:#181818;stroke-width:1.0;stroke-dasharray:2.0,2.0;" x1="1450.5" x2="2225.5" y1="1728.6777" y2="1728.6777"/><text fill="#000000" font-family="sans-serif" font-size="13" lengthAdjust="spacing" textLength="127" x="1772.5" y="1723.9355">reject requestObject</text><polygon fill="#181818" points="2964.5,1753.9883,2974.5,1757.9883,2964.5,1761.9883" style="stroke:#181818;stroke-width:1.0;"/><line style="stroke:#181818;stroke-width:1.0;" x1="1445.5" x2="2970.5" y1="1757.9883" y2="1757.9883"/><text fill="#000000" font-family="sans-serif" font-size="13" lengthAdjust="spacing" textLength="169" x="2126.5" y="1753.2461">request and build template</text><polygon fill="#181818" points="1456.5,1783.2988,1446.5,1787.2988,1456.5,1791.2988" style="stroke:#181818;stroke-width:1.0;"/><line style="stroke:#181818;stroke-width:1.0;" x1="1450.5" x2="2975.5" y1="1787.2988" y2="1787.2988"/><text fill="#000000" font-family="sans-serif" font-size="13" lengthAdjust="spacing" textLength="78" x="2172" y="1782.5566">return HTML</text><polygon fill="#181818" points="312.5,1812.6094,302.5,1816.6094,312.5,1820.6094" style="stroke:#181818;stroke-width:1.0;"/><line style="stroke:#181818;stroke-width:1.0;" x1="306.5" x2="1444.5" y1="1816.6094" y2="1816.6094"/><text fill="#000000" font-family="sans-serif" font-size="13" lengthAdjust="spacing" textLength="78" x="834.5" y="1811.8672">return HTML</text><polygon fill="#181818" points="56.5,1841.9199,46.5,1845.9199,56.5,1849.9199" style="stroke:#181818;stroke-width:1.0;"/><line style="stroke:#181818;stroke-width:1.0;" x1="50.5" x2="300.5" y1="1845.9199" y2="1845.9199"/><text fill="#000000" font-family="sans-serif" font-size="13" lengthAdjust="spacing" textLength="80" x="133.5" y="1841.1777">render HTML</text><polygon fill="#181818" points="2444,1878.2305,2454,1882.2305,2444,1886.2305" style="stroke:#181818;stroke-width:1.0;"/><line style="stroke:#181818;stroke-width:1.0;" x1="1445.5" x2="2450" y1="1882.2305" y2="1882.2305"/><text fill="#000000" font-family="sans-serif" font-size="13" lengthAdjust="spacing" textLength="169" x="1866.25" y="1877.4883">request and build template</text><polygon fill="#181818" points="1456.5,1907.541,1446.5,1911.541,1456.5,1915.541" style="stroke:#181818;stroke-width:1.0;"/><line style="stroke:#181818;stroke-width:1.0;" x1="1450.5" x2="2455" y1="1911.541" y2="1911.541"/><text fill="#000000" font-family="sans-serif" font-size="13" lengthAdjust="spacing" textLength="78" x="1911.75" y="1906.7988">return HTML</text><polygon fill="#181818" points="312.5,1936.8516,302.5,1940.8516,312.5,1944.8516" style="stroke:#181818;stroke-width:1.0;"/><line style="stroke:#181818;stroke-width:1.0;" x1="306.5" x2="1444.5" y1="1940.8516" y2="1940.8516"/><text fill="#000000" font-family="sans-serif" font-size="13" lengthAdjust="spacing" textLength="78" x="834.5" y="1936.1094">return HTML</text><polygon fill="#181818" points="56.5,1966.1621,46.5,1970.1621,56.5,1974.1621" style="stroke:#181818;stroke-width:1.0;"/><line style="stroke:#181818;stroke-width:1.0;" x1="50.5" x2="300.5" y1="1970.1621" y2="1970.1621"/><text fill="#000000" font-family="sans-serif" font-size="13" lengthAdjust="spacing" textLength="80" x="133.5" y="1965.4199">render HTML</text><!--SRC=[xLXDKzim4BtxL-nC3saFJkuPXXbZ38KwX2Q6QyUnHN0YMwcbqE7VToqd_fBaED1ZEK2otdrwktfQhU7R9Dk5UPZ2KhnJ0bpaIIJsAGMBru_8xpt98Z8Zd8Thuj1adQKa4n3XBv9R5hg994fs8TgSI30qZKOZyEUkuyDY_XJSFTosd88y2Uar4M527n4HBYuceZ3PQPZXzmAyDF39LFvzsAShaa-cb4MXI5ZcifXCOWbmUTc2TdCI2Y8NC497qiUMzaxuJ7h9S7w2MYVobcG4Y-VbESkFaQJuWdwo7Exy8LZCVTzRWFDm3GllvvEt361-TU-vmRA5vSM9a1nSbecSKKfoX2DeBKcFeye-tY0H-89xyYhU2QNiZrhfMKMzXTVDQpYgo_OvUhAKprSR4Wa4YpgcyPg8hz_wGExtyPhK09l6rzF1ZMskANHjuntZ9t0QIgof2CMe9oItDV1cZxuJU4iJRa3I7KLYceeVf5KAUPnjjdA5y8raCPuhGxvzU4rbz-AL2Zz9ZVU2IAqtC7v9lVF9kZmAIgoirysT7tYBfJm3puv_T-q4yyNIbEnpI9Cuh5hAbUF-y32mFakjmAimsk9IjSejI_OZi2-LdZC5boRH5aR5OGEPBQpsGh1iP5bTPupNdSafH26bi2jSeiQYEb-4K8xD55TCQ0nvqM6v02RDbkA7iKfg6CpH0AlomH533RwmjS5iYo5ynp9Ej7mnJCCNGnXz8zLgLaW5t62PI0o2mGiHqIlKlS02JQ-mzOIaU6fEeE-2je6M_71WLPeD2CLMjdGxhSeV5kMK6o8E3uqiD1XYdsVmFPZv6AHU1hP1GEsuKgteh00KdiKXEfIfa9o51gFMMjtLeBEMppaQQxVk3-khmt6Gjifh0alLuV19JIbK_kkfqxiq5r1lfgQUOi2fMIiJt91KgqIxqLMUqgs-3bI_frrSa2blWl9Avf1ayCBoL2OOTUyBl2YwCCQBud6EiruBUq2bgziF0TxApns2vI59ClcqmrrEvoGsQywmqX7jk8HHzsThOWWJunauLnUbiBi7mQYFqZqjtt7CHy5SjbRHgk8FsEKJmu3YUDOqeCx97ny7D9IrFLkw55C0PfCn0IkSZcHitDx6VpOGQ8dzx-3j7CslWgOnrXpHdgTFZ1aQptCah7j5EwtXdXTVMyzzqFZHRhw0Frfw0mKDVU_djf6dLjbzMCVjuaCbtazC1zRKBAZ_uB5xvTSDhqIllhGrRtEfzg4Y7PRwKDaOSlz4tWDpjlu2]--></g></svg>