<?xml version="1.0" encoding="us-ascii" standalone="no"?><svg xmlns="http://www.w3.org/2000/svg" xmlns:xlink="http://www.w3.org/1999/xlink" contentStyleType="text/css" height="2350px" preserveAspectRatio="none" style="width:4960px;height:2350px;background:#FFFFFF;" version="1.1" viewBox="0 0 4960 2350" width="4960px" zoomAndPan="magnify"><defs/><g><rect fill="none" height="46.6211" style="stroke:#000000;stroke-width:1.5;" width="2331" x="71" y="128.5977"/><rect fill="none" height="193.1738" style="stroke:#000000;stroke-width:1.5;" width="4944" x="10" y="247.8398"/><rect fill="none" height="46.6211" style="stroke:#000000;stroke-width:1.5;" width="2331" x="71" y="513.6348"/><rect fill="none" height="163.8633" style="stroke:#000000;stroke-width:1.5;" width="3818" x="10" y="955.293"/><rect fill="none" height="163.8633" style="stroke:#000000;stroke-width:1.5;" width="4209" x="10" y="1367.6406"/><rect fill="none" height="193.1738" style="stroke:#000000;stroke-width:1.5;" width="4944" x="10" y="1809.2988"/><rect fill="none" height="193.1738" style="stroke:#000000;stroke-width:1.5;" width="4944" x="10" y="2075.0938"/><line style="stroke:#181818;stroke-width:0.5;stroke-dasharray:5.0,5.0;" x1="45" x2="45" y1="52.9766" y2="2343.8887"/><line style="stroke:#181818;stroke-width:0.5;stroke-dasharray:5.0,5.0;" x1="170" x2="170" y1="52.9766" y2="2343.8887"/><line style="stroke:#181818;stroke-width:0.5;stroke-dasharray:5.0,5.0;" x1="404" x2="404" y1="52.9766" y2="2343.8887"/><line style="stroke:#181818;stroke-width:0.5;stroke-dasharray:5.0,5.0;" x1="674" x2="674" y1="52.9766" y2="2343.8887"/><line style="stroke:#181818;stroke-width:0.5;stroke-dasharray:5.0,5.0;" x1="991" x2="991" y1="52.9766" y2="2343.8887"/><line style="stroke:#181818;stroke-width:0.5;stroke-dasharray:5.0,5.0;" x1="1385" x2="1385" y1="52.9766" y2="2343.8887"/><line style="stroke:#181818;stroke-width:0.5;stroke-dasharray:5.0,5.0;" x1="1828" x2="1828" y1="52.9766" y2="2343.8887"/><line style="stroke:#181818;stroke-width:0.5;stroke-dasharray:5.0,5.0;" x1="2137" x2="2137" y1="52.9766" y2="2343.8887"/><line style="stroke:#181818;stroke-width:0.5;stroke-dasharray:5.0,5.0;" x1="2303" x2="2303" y1="52.9766" y2="2343.8887"/><line style="stroke:#181818;stroke-width:0.5;stroke-dasharray:5.0,5.0;" x1="2502" x2="2502" y1="52.9766" y2="2343.8887"/><line style="stroke:#181818;stroke-width:0.5;stroke-dasharray:5.0,5.0;" x1="2699" x2="2699" y1="52.9766" y2="2343.8887"/><line style="stroke:#181818;stroke-width:0.5;stroke-dasharray:5.0,5.0;" x1="2883" x2="2883" y1="52.9766" y2="2343.8887"/><line style="stroke:#181818;stroke-width:0.5;stroke-dasharray:5.0,5.0;" x1="3059" x2="3059" y1="52.9766" y2="2343.8887"/><line style="stroke:#181818;stroke-width:0.5;stroke-dasharray:5.0,5.0;" x1="3296" x2="3296" y1="52.9766" y2="2343.8887"/><line style="stroke:#181818;stroke-width:0.5;stroke-dasharray:5.0,5.0;" x1="3635" x2="3635" y1="52.9766" y2="2343.8887"/><line style="stroke:#181818;stroke-width:0.5;stroke-dasharray:5.0,5.0;" x1="4018" x2="4018" y1="52.9766" y2="2343.8887"/><line style="stroke:#181818;stroke-width:0.5;stroke-dasharray:5.0,5.0;" x1="4421" x2="4421" y1="52.9766" y2="2343.8887"/><line style="stroke:#181818;stroke-width:0.5;stroke-dasharray:5.0,5.0;" x1="4713" x2="4713" y1="52.9766" y2="2343.8887"/><line style="stroke:#181818;stroke-width:0.5;stroke-dasharray:5.0,5.0;" x1="4873" x2="4873" y1="52.9766" y2="2343.8887"/><rect fill="#E2E2F0" height="30.4883" rx="2.5" ry="2.5" style="stroke:#181818;stroke-width:0.5;" width="51" x="20" y="21.4883"/><text fill="#000000" font-family="sans-serif" font-size="14" lengthAdjust="spacing" textLength="37" x="27" y="42.0234">Actor</text><rect fill="#E2E2F0" height="46.9766" rx="2.5" ry="2.5" style="stroke:#181818;stroke-width:0.5;" width="179" x="81" y="5"/><text fill="#000000" font-family="sans-serif" font-size="14" font-style="italic" lengthAdjust="spacing" textLength="165" x="88" y="25.5352">&#171;/administration/users&#187;</text><text fill="#000000" font-family="sans-serif" font-size="14" lengthAdjust="spacing" textLength="71" x="135" y="42.0234">UsersPage</text><rect fill="#E2E2F0" height="46.9766" rx="2.5" ry="2.5" style="stroke:#181818;stroke-width:0.5;" width="269" x="270" y="5"/><text fill="#000000" font-family="sans-serif" font-size="14" font-style="italic" lengthAdjust="spacing" textLength="255" x="277" y="25.5352">&#171;/administration/users/user-record&#187;</text><text fill="#000000" font-family="sans-serif" font-size="14" lengthAdjust="spacing" textLength="112" x="348.5" y="42.0234">UserRecordPage</text><rect fill="#E2E2F0" height="46.9766" rx="2.5" ry="2.5" style="stroke:#181818;stroke-width:0.5;" width="250" x="549" y="5"/><text fill="#000000" font-family="sans-serif" font-size="14" font-style="italic" lengthAdjust="spacing" textLength="236" x="556" y="25.5352">&#171;/administration/users/edit-user&#187;</text><text fill="#000000" font-family="sans-serif" font-size="14" lengthAdjust="spacing" textLength="90" x="629" y="42.0234">EditUserPage</text><rect fill="#E2E2F0" height="46.9766" rx="2.5" ry="2.5" style="stroke:#181818;stroke-width:0.5;" width="365" x="809" y="5"/><text fill="#000000" font-family="sans-serif" font-size="14" font-style="italic" lengthAdjust="spacing" textLength="351" x="816" y="25.5352">&#171;/administration/users/edit-user/:username/type&#187;</text><text fill="#000000" font-family="sans-serif" font-size="14" lengthAdjust="spacing" textLength="123" x="930" y="42.0234">EditUserTypePage</text><rect fill="#E2E2F0" height="46.9766" rx="2.5" ry="2.5" style="stroke:#181818;stroke-width:0.5;" width="403" x="1184" y="5"/><text fill="#000000" font-family="sans-serif" font-size="14" font-style="italic" lengthAdjust="spacing" textLength="389" x="1191" y="25.5352">&#171;/administration/users/edit-user/:username/:userType&#187;</text><text fill="#000000" font-family="sans-serif" font-size="14" lengthAdjust="spacing" textLength="169" x="1301" y="42.0234">EditUserTypeDetailsPage</text><rect fill="#E2E2F0" height="46.9766" rx="2.5" ry="2.5" style="stroke:#181818;stroke-width:0.5;" width="463" x="1597" y="5"/><text fill="#000000" font-family="sans-serif" font-size="14" font-style="italic" lengthAdjust="spacing" textLength="449" x="1604" y="25.5352">&#171;/administration/users/edit-user/:username/:userType/confirm&#187;</text><text fill="#000000" font-family="sans-serif" font-size="14" lengthAdjust="spacing" textLength="179" x="1739" y="42.0234">EditUserTypeConfirmPage</text><rect fill="#E2E2F0" height="46.9766" rx="2.5" ry="2.5" style="stroke:#181818;stroke-width:0.5;" width="134" x="2070" y="5"/><text fill="#000000" font-family="sans-serif" font-size="14" font-style="italic" lengthAdjust="spacing" textLength="56" x="2109" y="25.5352">&#171;/error&#187;</text><text fill="#000000" font-family="sans-serif" font-size="14" lengthAdjust="spacing" textLength="120" x="2077" y="42.0234">GenericErrorPage</text><rect fill="#FFFFE0" height="46.9766" rx="2.5" ry="2.5" style="stroke:#181818;stroke-width:0.5;" width="178" x="2214" y="5"/><text fill="#000000" font-family="sans-serif" font-size="14" font-style="italic" lengthAdjust="spacing" textLength="164" x="2221" y="25.5352">&#171;edit-user.controller.js&#187;</text><text fill="#000000" font-family="sans-serif" font-size="14" lengthAdjust="spacing" textLength="134" x="2236" y="42.0234">EditUsersController</text><rect fill="#FFFFE0" height="46.9766" rx="2.5" ry="2.5" style="stroke:#181818;stroke-width:0.5;" width="201" x="2402" y="5"/><text fill="#000000" font-family="sans-serif" font-size="14" font-style="italic" lengthAdjust="spacing" textLength="187" x="2409" y="25.5352">&#171;create-users.controller.js&#187;</text><text fill="#000000" font-family="sans-serif" font-size="14" lengthAdjust="spacing" textLength="153" x="2426" y="42.0234">CreateUsersController</text><rect fill="#FFFFE0" height="46.9766" rx="2.5" ry="2.5" style="stroke:#181818;stroke-width:0.5;" width="173" x="2613" y="5"/><text fill="#000000" font-family="sans-serif" font-size="14" font-style="italic" lengthAdjust="spacing" textLength="159" x="2620" y="25.5352">&#171;userRecordDAO.get()&#187;</text><text fill="#000000" font-family="sans-serif" font-size="14" lengthAdjust="spacing" textLength="123" x="2638" y="42.0234">UserRecordObject</text><rect fill="#FFFFE0" height="46.9766" rx="2.5" ry="2.5" style="stroke:#181818;stroke-width:0.5;" width="174" x="2796" y="5"/><text fill="#000000" font-family="sans-serif" font-size="14" font-style="italic" lengthAdjust="spacing" textLength="160" x="2803" y="25.5352">&#171;userRecordDAO.put()&#187;</text><text fill="#000000" font-family="sans-serif" font-size="14" lengthAdjust="spacing" textLength="101" x="2832.5" y="42.0234">EditUserObject</text><rect fill="#FFD700" height="30.4883" rx="2.5" ry="2.5" style="stroke:#181818;stroke-width:0.5;" width="159" x="2980" y="21.4883"/><text fill="#000000" font-family="sans-serif" font-size="14" lengthAdjust="spacing" textLength="145" x="2987" y="42.0234">CreateUsersValidator</text><rect fill="#E2E2F0" height="46.9766" rx="2.5" ry="2.5" style="stroke:#181818;stroke-width:0.5;" width="294" x="3149" y="5"/><text fill="#000000" font-family="sans-serif" font-size="14" font-style="italic" lengthAdjust="spacing" textLength="280" x="3156" y="25.5352">&#171;/administration/users/user-record.njk&#187;</text><text fill="#000000" font-family="sans-serif" font-size="14" lengthAdjust="spacing" textLength="121" x="3235.5" y="42.0234">EditUserTemplate</text><rect fill="#E2E2F0" height="46.9766" rx="2.5" ry="2.5" style="stroke:#181818;stroke-width:0.5;" width="365" x="3453" y="5"/><text fill="#000000" font-family="sans-serif" font-size="14" font-style="italic" lengthAdjust="spacing" textLength="351" x="3460" y="25.5352">&#171;administration/users/create-users/user-type.njk&#187;</text><text fill="#000000" font-family="sans-serif" font-size="14" lengthAdjust="spacing" textLength="154" x="3558.5" y="42.0234">EditUserTypeTemplate</text><rect fill="#E2E2F0" height="46.9766" rx="2.5" ry="2.5" style="stroke:#181818;stroke-width:0.5;" width="381" x="3828" y="5"/><text fill="#000000" font-family="sans-serif" font-size="14" font-style="italic" lengthAdjust="spacing" textLength="367" x="3835" y="25.5352">&#171;administration/users/create-users/user-details.njk&#187;</text><text fill="#000000" font-family="sans-serif" font-size="14" lengthAdjust="spacing" textLength="200" x="3918.5" y="42.0234">EditUserTypeDetailsTemplate</text><rect fill="#E2E2F0" height="46.9766" rx="2.5" ry="2.5" style="stroke:#181818;stroke-width:0.5;" width="404" x="4219" y="5"/><text fill="#000000" font-family="sans-serif" font-size="14" font-style="italic" lengthAdjust="spacing" textLength="390" x="4226" y="25.5352">&#171;administration/users/create-users/confirm-details.njk&#187;</text><text fill="#000000" font-family="sans-serif" font-size="14" lengthAdjust="spacing" textLength="210" x="4316" y="42.0234">EditUserTypeConfirmTemplate</text><rect fill="#E6E6FA" height="46.9766" rx="2.5" ry="2.5" style="stroke:#181818;stroke-width:0.5;" width="160" x="4633" y="5"/><text fill="#000000" font-family="sans-serif" font-size="14" font-style="italic" lengthAdjust="spacing" textLength="146" x="4640" y="25.5352">&#171;_errors/generic.njk&#187;</text><text fill="#000000" font-family="sans-serif" font-size="14" lengthAdjust="spacing" textLength="99" x="4663.5" y="42.0234">ErrorTemplate</text><rect fill="#E2E2F0" height="30.4883" rx="2.5" ry="2.5" style="stroke:#181818;stroke-width:0.5;" width="141" x="4803" y="21.4883"/><text fill="#000000" font-family="sans-serif" font-size="14" lengthAdjust="spacing" textLength="127" x="4810" y="42.0234">BackendController</text><polygon fill="#181818" points="392.5,80.2871,402.5,84.2871,392.5,88.2871" style="stroke:#181818;stroke-width:1.0;"/><line style="stroke:#181818;stroke-width:1.0;" x1="45.5" x2="398.5" y1="84.2871" y2="84.2871"/><text fill="#000000" font-family="sans-serif" font-size="13" lengthAdjust="spacing" textLength="89" x="180.5" y="79.5449">click edit user</text><polygon fill="#181818" points="2291,109.5977,2301,113.5977,2291,117.5977" style="stroke:#181818;stroke-width:1.0;"/><line style="stroke:#181818;stroke-width:1.0;" x1="404.5" x2="2297" y1="113.5977" y2="113.5977"/><text fill="#000000" font-family="sans-serif" font-size="13" lengthAdjust="spacing" textLength="153" x="1277.25" y="108.8555">call edit users controller</text><path d="M71,128.5977 L133,128.5977 L133,135.9082 L123,145.9082 L71,145.9082 L71,128.5977 " fill="#EEEEEE" style="stroke:#000000;stroke-width:1.5;"/><rect fill="none" height="46.6211" style="stroke:#000000;stroke-width:1.5;" width="2331" x="71" y="128.5977"/><text fill="#000000" font-family="sans-serif" font-size="13" font-weight="bold" lengthAdjust="spacing" textLength="17" x="86" y="142.166">alt</text><text fill="#000000" font-family="sans-serif" font-size="11" font-weight="bold" lengthAdjust="spacing" textLength="166" x="148" y="141.2324">[SJO user tries to edit details]</text><polygon fill="#181818" points="181.5,163.2188,171.5,167.2188,181.5,171.2188" style="stroke:#181818;stroke-width:1.0;"/><line style="stroke:#181818;stroke-width:1.0;" x1="175.5" x2="2302" y1="167.2188" y2="167.2188"/><text fill="#000000" font-family="sans-serif" font-size="13" lengthAdjust="spacing" textLength="137" x="1168.25" y="162.4766">redirect to users page</text><polygon fill="#181818" points="2687.5,199.5293,2697.5,203.5293,2687.5,207.5293" style="stroke:#181818;stroke-width:1.0;"/><line style="stroke:#181818;stroke-width:1.0;" x1="2303" x2="2693.5" y1="203.5293" y2="203.5293"/><text fill="#000000" font-family="sans-serif" font-size="13" lengthAdjust="spacing" textLength="126" x="2438.25" y="198.7871">build request object</text><polygon fill="#181818" points="4861.5,228.8398,4871.5,232.8398,4861.5,236.8398" style="stroke:#181818;stroke-width:1.0;"/><line style="stroke:#181818;stroke-width:1.0;" x1="2699.5" x2="4867.5" y1="232.8398" y2="232.8398"/><text fill="#000000" font-family="sans-serif" font-size="13" lengthAdjust="spacing" textLength="138" x="3717.5" y="228.0977">send backend request</text><path d="M10,247.8398 L72,247.8398 L72,255.1504 L62,265.1504 L10,265.1504 L10,247.8398 " fill="#EEEEEE" style="stroke:#000000;stroke-width:1.5;"/><rect fill="none" height="193.1738" style="stroke:#000000;stroke-width:1.5;" width="4944" x="10" y="247.8398"/><text fill="#000000" font-family="sans-serif" font-size="13" font-weight="bold" lengthAdjust="spacing" textLength="17" x="25" y="261.4082">alt</text><text fill="#000000" font-family="sans-serif" font-size="11" font-weight="bold" lengthAdjust="spacing" textLength="157" x="87" y="260.4746">[Failed to fetch user details]</text><polygon fill="#181818" points="2710.5,282.4609,2700.5,286.4609,2710.5,290.4609" style="stroke:#181818;stroke-width:1.0;"/><line style="stroke:#181818;stroke-width:1.0;stroke-dasharray:2.0,2.0;" x1="2704.5" x2="4872.5" y1="286.4609" y2="286.4609"/><text fill="#000000" font-family="sans-serif" font-size="13" lengthAdjust="spacing" textLength="91" x="3741" y="281.7188">Error response</text><polygon fill="#181818" points="2314,311.7715,2304,315.7715,2314,319.7715" style="stroke:#181818;stroke-width:1.0;"/><line style="stroke:#181818;stroke-width:1.0;stroke-dasharray:2.0,2.0;" x1="2308" x2="2698.5" y1="315.7715" y2="315.7715"/><text fill="#000000" font-family="sans-serif" font-size="13" lengthAdjust="spacing" textLength="127" x="2437.75" y="311.0293">reject requestObject</text><polygon fill="#181818" points="4701,341.082,4711,345.082,4701,349.082" style="stroke:#181818;stroke-width:1.0;"/><line style="stroke:#181818;stroke-width:1.0;" x1="2303" x2="4707" y1="345.082" y2="345.082"/><text fill="#000000" font-family="sans-serif" font-size="13" lengthAdjust="spacing" textLength="169" x="3423.5" y="340.3398">request and build template</text><polygon fill="#181818" points="2314,370.3926,2304,374.3926,2314,378.3926" style="stroke:#181818;stroke-width:1.0;"/><line style="stroke:#181818;stroke-width:1.0;" x1="2308" x2="4712" y1="374.3926" y2="374.3926"/><text fill="#000000" font-family="sans-serif" font-size="13" lengthAdjust="spacing" textLength="78" x="3469" y="369.6504">return HTML</text><polygon fill="#181818" points="2148,399.7031,2138,403.7031,2148,407.7031" style="stroke:#181818;stroke-width:1.0;"/><line style="stroke:#181818;stroke-width:1.0;" x1="2142" x2="2302" y1="403.7031" y2="403.7031"/><text fill="#000000" font-family="sans-serif" font-size="13" lengthAdjust="spacing" textLength="78" x="2181" y="398.9609">return HTML</text><polygon fill="#181818" points="56.5,429.0137,46.5,433.0137,56.5,437.0137" style="stroke:#181818;stroke-width:1.0;"/><line style="stroke:#181818;stroke-width:1.0;" x1="50.5" x2="2136" y1="433.0137" y2="433.0137"/><text fill="#000000" font-family="sans-serif" font-size="13" lengthAdjust="spacing" textLength="108" x="1037.25" y="428.2715">render error page</text><polygon fill="#181818" points="2710.5,465.3242,2700.5,469.3242,2710.5,473.3242" style="stroke:#181818;stroke-width:1.0;"/><line style="stroke:#181818;stroke-width:1.0;" x1="2704.5" x2="4872.5" y1="469.3242" y2="469.3242"/><text fill="#000000" font-family="sans-serif" font-size="13" lengthAdjust="spacing" textLength="77" x="3748" y="464.582">ok response</text><polygon fill="#181818" points="2314,494.6348,2304,498.6348,2314,502.6348" style="stroke:#181818;stroke-width:1.0;"/><line style="stroke:#181818;stroke-width:1.0;" x1="2308" x2="2698.5" y1="498.6348" y2="498.6348"/><text fill="#000000" font-family="sans-serif" font-size="13" lengthAdjust="spacing" textLength="96" x="2453.25" y="493.8926">resolve request</text><path d="M71,513.6348 L133,513.6348 L133,520.9453 L123,530.9453 L71,530.9453 L71,513.6348 " fill="#EEEEEE" style="stroke:#000000;stroke-width:1.5;"/><rect fill="none" height="46.6211" style="stroke:#000000;stroke-width:1.5;" width="2331" x="71" y="513.6348"/><text fill="#000000" font-family="sans-serif" font-size="13" font-weight="bold" lengthAdjust="spacing" textLength="17" x="86" y="527.2031">alt</text><text fill="#000000" font-family="sans-serif" font-size="11" font-weight="bold" lengthAdjust="spacing" textLength="170" x="148" y="526.2695">[User tries to edit own details]</text><polygon fill="#181818" points="181.5,548.2559,171.5,552.2559,181.5,556.2559" style="stroke:#181818;stroke-width:1.0;"/><line style="stroke:#181818;stroke-width:1.0;" x1="175.5" x2="2302" y1="552.2559" y2="552.2559"/><text fill="#000000" font-family="sans-serif" font-size="13" lengthAdjust="spacing" textLength="137" x="1168.25" y="547.5137">redirect to users page</text><polygon fill="#181818" points="3284,584.5664,3294,588.5664,3284,592.5664" style="stroke:#181818;stroke-width:1.0;"/><line style="stroke:#181818;stroke-width:1.0;" x1="2303" x2="3290" y1="588.5664" y2="588.5664"/><text fill="#000000" font-family="sans-serif" font-size="13" lengthAdjust="spacing" textLength="169" x="2715" y="583.8242">request and build template</text><polygon fill="#181818" points="2314,613.877,2304,617.877,2314,621.877" style="stroke:#181818;stroke-width:1.0;"/><line style="stroke:#181818;stroke-width:1.0;" x1="2308" x2="3295" y1="617.877" y2="617.877"/><text fill="#000000" font-family="sans-serif" font-size="13" lengthAdjust="spacing" textLength="78" x="2760.5" y="613.1348">return HTML</text><polygon fill="#181818" points="685,643.1875,675,647.1875,685,651.1875" style="stroke:#181818;stroke-width:1.0;"/><line style="stroke:#181818;stroke-width:1.0;" x1="679" x2="2302" y1="647.1875" y2="647.1875"/><text fill="#000000" font-family="sans-serif" font-size="13" lengthAdjust="spacing" textLength="78" x="1449.5" y="642.4453">return HTML</text><polygon fill="#181818" points="56.5,672.498,46.5,676.498,56.5,680.498" style="stroke:#181818;stroke-width:1.0;"/><line style="stroke:#181818;stroke-width:1.0;" x1="50.5" x2="673" y1="676.498" y2="676.498"/><text fill="#000000" font-family="sans-serif" font-size="13" lengthAdjust="spacing" textLength="80" x="319.75" y="671.7559">render HTML</text><polygon fill="#181818" points="662,701.8086,672,705.8086,662,709.8086" style="stroke:#181818;stroke-width:1.0;"/><line style="stroke:#181818;stroke-width:1.0;" x1="45.5" x2="668" y1="705.8086" y2="705.8086"/><text fill="#000000" font-family="sans-serif" font-size="13" lengthAdjust="spacing" textLength="171" x="274.25" y="701.0664">Click change user type link</text><polygon fill="#181818" points="2490.5,731.1191,2500.5,735.1191,2490.5,739.1191" style="stroke:#181818;stroke-width:1.0;"/><line style="stroke:#181818;stroke-width:1.0;" x1="170.5" x2="2496.5" y1="735.1191" y2="735.1191"/><text fill="#000000" font-family="sans-serif" font-size="13" lengthAdjust="spacing" textLength="167" x="1253" y="730.377">call create users controller</text><polygon fill="#181818" points="3623.5,760.4297,3633.5,764.4297,3623.5,768.4297" style="stroke:#181818;stroke-width:1.0;"/><line style="stroke:#181818;stroke-width:1.0;" x1="2502.5" x2="3629.5" y1="764.4297" y2="764.4297"/><text fill="#000000" font-family="sans-serif" font-size="13" lengthAdjust="spacing" textLength="169" x="2984.5" y="759.6875">request and build template</text><polygon fill="#181818" points="2513.5,789.7402,2503.5,793.7402,2513.5,797.7402" style="stroke:#181818;stroke-width:1.0;"/><line style="stroke:#181818;stroke-width:1.0;" x1="2507.5" x2="3634.5" y1="793.7402" y2="793.7402"/><text fill="#000000" font-family="sans-serif" font-size="13" lengthAdjust="spacing" textLength="78" x="3030" y="788.998">return HTML</text><polygon fill="#181818" points="1002.5,819.0508,992.5,823.0508,1002.5,827.0508" style="stroke:#181818;stroke-width:1.0;"/><line style="stroke:#181818;stroke-width:1.0;" x1="996.5" x2="2501.5" y1="823.0508" y2="823.0508"/><text fill="#000000" font-family="sans-serif" font-size="13" lengthAdjust="spacing" textLength="78" x="1708" y="818.3086">return HTML</text><polygon fill="#181818" points="56.5,848.3613,46.5,852.3613,56.5,856.3613" style="stroke:#181818;stroke-width:1.0;"/><line style="stroke:#181818;stroke-width:1.0;" x1="50.5" x2="990.5" y1="852.3613" y2="852.3613"/><text fill="#000000" font-family="sans-serif" font-size="13" lengthAdjust="spacing" textLength="80" x="478.5" y="847.6191">render HTML</text><polygon fill="#181818" points="979.5,877.6719,989.5,881.6719,979.5,885.6719" style="stroke:#181818;stroke-width:1.0;"/><line style="stroke:#181818;stroke-width:1.0;" x1="45.5" x2="985.5" y1="881.6719" y2="881.6719"/><text fill="#000000" font-family="sans-serif" font-size="13" lengthAdjust="spacing" textLength="219" x="409" y="876.9297">Select user type and click continue</text><polygon fill="#181818" points="2490.5,906.9824,2500.5,910.9824,2490.5,914.9824" style="stroke:#181818;stroke-width:1.0;"/><line style="stroke:#181818;stroke-width:1.0;" x1="991.5" x2="2496.5" y1="910.9824" y2="910.9824"/><text fill="#000000" font-family="sans-serif" font-size="13" lengthAdjust="spacing" textLength="167" x="1663.5" y="906.2402">call create users controller</text><polygon fill="#181818" points="3047.5,936.293,3057.5,940.293,3047.5,944.293" style="stroke:#181818;stroke-width:1.0;"/><line style="stroke:#181818;stroke-width:1.0;" x1="2502.5" x2="3053.5" y1="940.293" y2="940.293"/><text fill="#000000" font-family="sans-serif" font-size="13" lengthAdjust="spacing" textLength="95" x="2733.5" y="935.5508">validate details</text><path d="M10,955.293 L72,955.293 L72,962.6035 L62,972.6035 L10,972.6035 L10,955.293 " fill="#EEEEEE" style="stroke:#000000;stroke-width:1.5;"/><rect fill="none" height="163.8633" style="stroke:#000000;stroke-width:1.5;" width="3818" x="10" y="955.293"/><text fill="#000000" font-family="sans-serif" font-size="13" font-weight="bold" lengthAdjust="spacing" textLength="17" x="25" y="968.8613">alt</text><text fill="#000000" font-family="sans-serif" font-size="11" font-weight="bold" lengthAdjust="spacing" textLength="127" x="87" y="967.9277">[No user type selected]</text><polygon fill="#181818" points="2513.5,989.9141,2503.5,993.9141,2513.5,997.9141" style="stroke:#181818;stroke-width:1.0;"/><line style="stroke:#181818;stroke-width:1.0;" x1="2507.5" x2="3058.5" y1="993.9141" y2="993.9141"/><text fill="#000000" font-family="sans-serif" font-size="13" lengthAdjust="spacing" textLength="136" x="2713" y="989.1719">No user type selected</text><polygon fill="#181818" points="3623.5,1019.2246,3633.5,1023.2246,3623.5,1027.2246" style="stroke:#181818;stroke-width:1.0;"/><line style="stroke:#181818;stroke-width:1.0;" x1="2502.5" x2="3629.5" y1="1023.2246" y2="1023.2246"/><text fill="#000000" font-family="sans-serif" font-size="13" lengthAdjust="spacing" textLength="169" x="2984.5" y="1018.4824">request and build template</text><polygon fill="#181818" points="2513.5,1048.5352,2503.5,1052.5352,2513.5,1056.5352" style="stroke:#181818;stroke-width:1.0;"/><line style="stroke:#181818;stroke-width:1.0;" x1="2507.5" x2="3634.5" y1="1052.5352" y2="1052.5352"/><text fill="#000000" font-family="sans-serif" font-size="13" lengthAdjust="spacing" textLength="78" x="3030" y="1047.793">return HTML</text><polygon fill="#181818" points="1002.5,1077.8457,992.5,1081.8457,1002.5,1085.8457" style="stroke:#181818;stroke-width:1.0;"/><line style="stroke:#181818;stroke-width:1.0;" x1="996.5" x2="2501.5" y1="1081.8457" y2="1081.8457"/><text fill="#000000" font-family="sans-serif" font-size="13" lengthAdjust="spacing" textLength="112" x="1691" y="1077.1035">return error HTML</text><polygon fill="#181818" points="56.5,1107.1563,46.5,1111.1563,56.5,1115.1563" style="stroke:#181818;stroke-width:1.0;"/><line style="stroke:#181818;stroke-width:1.0;" x1="50.5" x2="990.5" y1="1111.1563" y2="1111.1563"/><text fill="#000000" font-family="sans-serif" font-size="13" lengthAdjust="spacing" textLength="133" x="452" y="1106.4141">render error message</text><polygon fill="#181818" points="2513.5,1143.4668,2503.5,1147.4668,2513.5,1151.4668" style="stroke:#181818;stroke-width:1.0;"/><line style="stroke:#181818;stroke-width:1.0;" x1="2507.5" x2="3058.5" y1="1147.4668" y2="1147.4668"/><text fill="#000000" font-family="sans-serif" font-size="13" lengthAdjust="spacing" textLength="127" x="2717.5" y="1142.7246">valid details entered</text><polygon fill="#181818" points="4006.5,1172.7773,4016.5,1176.7773,4006.5,1180.7773" style="stroke:#181818;stroke-width:1.0;"/><line style="stroke:#181818;stroke-width:1.0;" x1="2502.5" x2="4012.5" y1="1176.7773" y2="1176.7773"/><text fill="#000000" font-family="sans-serif" font-size="13" lengthAdjust="spacing" textLength="169" x="3176" y="1172.0352">request and build template</text><polygon fill="#181818" points="2513.5,1202.0879,2503.5,1206.0879,2513.5,1210.0879" style="stroke:#181818;stroke-width:1.0;"/><line style="stroke:#181818;stroke-width:1.0;" x1="2507.5" x2="4017.5" y1="1206.0879" y2="1206.0879"/><text fill="#000000" font-family="sans-serif" font-size="13" lengthAdjust="spacing" textLength="78" x="3221.5" y="1201.3457">return HTML</text><polygon fill="#181818" points="1396.5,1231.3984,1386.5,1235.3984,1396.5,1239.3984" style="stroke:#181818;stroke-width:1.0;"/><line style="stroke:#181818;stroke-width:1.0;" x1="1390.5" x2="2501.5" y1="1235.3984" y2="1235.3984"/><text fill="#000000" font-family="sans-serif" font-size="13" lengthAdjust="spacing" textLength="78" x="1905" y="1230.6563">return HTML</text><polygon fill="#181818" points="56.5,1260.709,46.5,1264.709,56.5,1268.709" style="stroke:#181818;stroke-width:1.0;"/><line style="stroke:#181818;stroke-width:1.0;" x1="50.5" x2="1384.5" y1="1264.709" y2="1264.709"/><text fill="#000000" font-family="sans-serif" font-size="13" lengthAdjust="spacing" textLength="80" x="675.5" y="1259.9668">render HTML</text><polygon fill="#181818" points="1373.5,1290.0195,1383.5,1294.0195,1373.5,1298.0195" style="stroke:#181818;stroke-width:1.0;"/><line style="stroke:#181818;stroke-width:1.0;" x1="45.5" x2="1379.5" y1="1294.0195" y2="1294.0195"/><text fill="#000000" font-family="sans-serif" font-size="13" lengthAdjust="spacing" textLength="229" x="601" y="1289.2773">enter user details and click continue</text><polygon fill="#181818" points="2490.5,1319.3301,2500.5,1323.3301,2490.5,1327.3301" style="stroke:#181818;stroke-width:1.0;"/><line style="stroke:#181818;stroke-width:1.0;" x1="1385.5" x2="2496.5" y1="1323.3301" y2="1323.3301"/><text fill="#000000" font-family="sans-serif" font-size="13" lengthAdjust="spacing" textLength="167" x="1860.5" y="1318.5879">call create users controller</text><polygon fill="#181818" points="3047.5,1348.6406,3057.5,1352.6406,3047.5,1356.6406" style="stroke:#181818;stroke-width:1.0;"/><line style="stroke:#181818;stroke-width:1.0;" x1="2502.5" x2="3053.5" y1="1352.6406" y2="1352.6406"/><text fill="#000000" font-family="sans-serif" font-size="13" lengthAdjust="spacing" textLength="95" x="2733.5" y="1347.8984">validate details</text><path d="M10,1367.6406 L72,1367.6406 L72,1374.9512 L62,1384.9512 L10,1384.9512 L10,1367.6406 " fill="#EEEEEE" style="stroke:#000000;stroke-width:1.5;"/><rect fill="none" height="163.8633" style="stroke:#000000;stroke-width:1.5;" width="4209" x="10" y="1367.6406"/><text fill="#000000" font-family="sans-serif" font-size="13" font-weight="bold" lengthAdjust="spacing" textLength="17" x="25" y="1381.209">alt</text><text fill="#000000" font-family="sans-serif" font-size="11" font-weight="bold" lengthAdjust="spacing" textLength="116" x="87" y="1380.2754">[Invalid user details]</text><polygon fill="#181818" points="2513.5,1402.2617,2503.5,1406.2617,2513.5,1410.2617" style="stroke:#181818;stroke-width:1.0;"/><line style="stroke:#181818;stroke-width:1.0;" x1="2507.5" x2="3058.5" y1="1406.2617" y2="1406.2617"/><text fill="#000000" font-family="sans-serif" font-size="13" lengthAdjust="spacing" textLength="119" x="2721.5" y="1401.5195">Invalid user details</text><polygon fill="#181818" points="4006.5,1431.5723,4016.5,1435.5723,4006.5,1439.5723" style="stroke:#181818;stroke-width:1.0;"/><line style="stroke:#181818;stroke-width:1.0;" x1="2502.5" x2="4012.5" y1="1435.5723" y2="1435.5723"/><text fill="#000000" font-family="sans-serif" font-size="13" lengthAdjust="spacing" textLength="169" x="3176" y="1430.8301">request and build template</text><polygon fill="#181818" points="2513.5,1460.8828,2503.5,1464.8828,2513.5,1468.8828" style="stroke:#181818;stroke-width:1.0;"/><line style="stroke:#181818;stroke-width:1.0;" x1="2507.5" x2="4017.5" y1="1464.8828" y2="1464.8828"/><text fill="#000000" font-family="sans-serif" font-size="13" lengthAdjust="spacing" textLength="78" x="3221.5" y="1460.1406">return HTML</text><polygon fill="#181818" points="1396.5,1490.1934,1386.5,1494.1934,1396.5,1498.1934" style="stroke:#181818;stroke-width:1.0;"/><line style="stroke:#181818;stroke-width:1.0;" x1="1390.5" x2="2501.5" y1="1494.1934" y2="1494.1934"/><text fill="#000000" font-family="sans-serif" font-size="13" lengthAdjust="spacing" textLength="112" x="1888" y="1489.4512">return error HTML</text><polygon fill="#181818" points="56.5,1519.5039,46.5,1523.5039,56.5,1527.5039" style="stroke:#181818;stroke-width:1.0;"/><line style="stroke:#181818;stroke-width:1.0;" x1="50.5" x2="1384.5" y1="1523.5039" y2="1523.5039"/><text fill="#000000" font-family="sans-serif" font-size="13" lengthAdjust="spacing" textLength="133" x="649" y="1518.7617">render error message</text><polygon fill="#181818" points="2513.5,1555.8145,2503.5,1559.8145,2513.5,1563.8145" style="stroke:#181818;stroke-width:1.0;"/><line style="stroke:#181818;stroke-width:1.0;" x1="2507.5" x2="3058.5" y1="1559.8145" y2="1559.8145"/><text fill="#000000" font-family="sans-serif" font-size="13" lengthAdjust="spacing" textLength="127" x="2717.5" y="1555.0723">valid details entered</text><polygon fill="#181818" points="4409,1585.125,4419,1589.125,4409,1593.125" style="stroke:#181818;stroke-width:1.0;"/><line style="stroke:#181818;stroke-width:1.0;" x1="2502.5" x2="4415" y1="1589.125" y2="1589.125"/><text fill="#000000" font-family="sans-serif" font-size="13" lengthAdjust="spacing" textLength="169" x="3377.25" y="1584.3828">request and build template</text><polygon fill="#181818" points="2513.5,1614.4355,2503.5,1618.4355,2513.5,1622.4355" style="stroke:#181818;stroke-width:1.0;"/><line style="stroke:#181818;stroke-width:1.0;" x1="2507.5" x2="4420" y1="1618.4355" y2="1618.4355"/><text fill="#000000" font-family="sans-serif" font-size="13" lengthAdjust="spacing" textLength="78" x="3422.75" y="1613.6934">return HTML</text><polygon fill="#181818" points="1839.5,1643.7461,1829.5,1647.7461,1839.5,1651.7461" style="stroke:#181818;stroke-width:1.0;"/><line style="stroke:#181818;stroke-width:1.0;" x1="1833.5" x2="2501.5" y1="1647.7461" y2="1647.7461"/><text fill="#000000" font-family="sans-serif" font-size="13" lengthAdjust="spacing" textLength="78" x="2126.5" y="1643.0039">return HTML</text><polygon fill="#181818" points="56.5,1673.0566,46.5,1677.0566,56.5,1681.0566" style="stroke:#181818;stroke-width:1.0;"/><line style="stroke:#181818;stroke-width:1.0;" x1="50.5" x2="1827.5" y1="1677.0566" y2="1677.0566"/><text fill="#000000" font-family="sans-serif" font-size="13" lengthAdjust="spacing" textLength="80" x="897" y="1672.3145">render HTML</text><polygon fill="#181818" points="1816.5,1702.3672,1826.5,1706.3672,1816.5,1710.3672" style="stroke:#181818;stroke-width:1.0;"/><line style="stroke:#181818;stroke-width:1.0;" x1="45.5" x2="1822.5" y1="1706.3672" y2="1706.3672"/><text fill="#000000" font-family="sans-serif" font-size="13" lengthAdjust="spacing" textLength="83" x="895.5" y="1701.625">click confirm</text><polygon fill="#181818" points="2490.5,1731.6777,2500.5,1735.6777,2490.5,1739.6777" style="stroke:#181818;stroke-width:1.0;"/><line style="stroke:#181818;stroke-width:1.0;" x1="1828.5" x2="2496.5" y1="1735.6777" y2="1735.6777"/><text fill="#000000" font-family="sans-serif" font-size="13" lengthAdjust="spacing" textLength="167" x="2082" y="1730.9355">call create users controller</text><polygon fill="#181818" points="2871,1760.9883,2881,1764.9883,2871,1768.9883" style="stroke:#181818;stroke-width:1.0;"/><line style="stroke:#181818;stroke-width:1.0;" x1="2502.5" x2="2877" y1="1764.9883" y2="1764.9883"/><text fill="#000000" font-family="sans-serif" font-size="13" lengthAdjust="spacing" textLength="126" x="2629.75" y="1760.2461">build request object</text><polygon fill="#181818" points="4861.5,1790.2988,4871.5,1794.2988,4861.5,1798.2988" style="stroke:#181818;stroke-width:1.0;"/><line style="stroke:#181818;stroke-width:1.0;" x1="2883" x2="4867.5" y1="1794.2988" y2="1794.2988"/><text fill="#000000" font-family="sans-serif" font-size="13" lengthAdjust="spacing" textLength="138" x="3809.25" y="1789.5566">send backend request</text><path d="M10,1809.2988 L72,1809.2988 L72,1816.6094 L62,1826.6094 L10,1826.6094 L10,1809.2988 " fill="#EEEEEE" style="stroke:#000000;stroke-width:1.5;"/><rect fill="none" height="193.1738" style="stroke:#000000;stroke-width:1.5;" width="4944" x="10" y="1809.2988"/><text fill="#000000" font-family="sans-serif" font-size="13" font-weight="bold" lengthAdjust="spacing" textLength="17" x="25" y="1822.8672">alt</text><text fill="#000000" font-family="sans-serif" font-size="11" font-weight="bold" lengthAdjust="spacing" textLength="166" x="87" y="1821.9336">[Failed to update user details]</text><polygon fill="#181818" points="2894,1843.9199,2884,1847.9199,2894,1851.9199" style="stroke:#181818;stroke-width:1.0;"/><line style="stroke:#181818;stroke-width:1.0;stroke-dasharray:2.0,2.0;" x1="2888" x2="4872.5" y1="1847.9199" y2="1847.9199"/><text fill="#000000" font-family="sans-serif" font-size="13" lengthAdjust="spacing" textLength="91" x="3832.75" y="1843.1777">Error response</text><polygon fill="#181818" points="2513.5,1873.2305,2503.5,1877.2305,2513.5,1881.2305" style="stroke:#181818;stroke-width:1.0;"/><line style="stroke:#181818;stroke-width:1.0;stroke-dasharray:2.0,2.0;" x1="2507.5" x2="2882" y1="1877.2305" y2="1877.2305"/><text fill="#000000" font-family="sans-serif" font-size="13" lengthAdjust="spacing" textLength="127" x="2629.25" y="1872.4883">reject requestObject</text><polygon fill="#181818" points="4701,1902.541,4711,1906.541,4701,1910.541" style="stroke:#181818;stroke-width:1.0;"/><line style="stroke:#181818;stroke-width:1.0;" x1="2502.5" x2="4707" y1="1906.541" y2="1906.541"/><text fill="#000000" font-family="sans-serif" font-size="13" lengthAdjust="spacing" textLength="169" x="3523.25" y="1901.7988">request and build template</text><polygon fill="#181818" points="2513.5,1931.8516,2503.5,1935.8516,2513.5,1939.8516" style="stroke:#181818;stroke-width:1.0;"/><line style="stroke:#181818;stroke-width:1.0;" x1="2507.5" x2="4712" y1="1935.8516" y2="1935.8516"/><text fill="#000000" font-family="sans-serif" font-size="13" lengthAdjust="spacing" textLength="78" x="3568.75" y="1931.1094">return HTML</text><polygon fill="#181818" points="2148,1961.1621,2138,1965.1621,2148,1969.1621" style="stroke:#181818;stroke-width:1.0;"/><line style="stroke:#181818;stroke-width:1.0;" x1="2142" x2="2501.5" y1="1965.1621" y2="1965.1621"/><text fill="#000000" font-family="sans-serif" font-size="13" lengthAdjust="spacing" textLength="78" x="2280.75" y="1960.4199">return HTML</text><polygon fill="#181818" points="56.5,1990.4727,46.5,1994.4727,56.5,1998.4727" style="stroke:#181818;stroke-width:1.0;"/><line style="stroke:#181818;stroke-width:1.0;" x1="50.5" x2="2136" y1="1994.4727" y2="1994.4727"/><text fill="#000000" font-family="sans-serif" font-size="13" lengthAdjust="spacing" textLength="108" x="1037.25" y="1989.7305">render error page</text><polygon fill="#181818" points="2894,2026.7832,2884,2030.7832,2894,2034.7832" style="stroke:#181818;stroke-width:1.0;"/><line style="stroke:#181818;stroke-width:1.0;" x1="2888" x2="4872.5" y1="2030.7832" y2="2030.7832"/><text fill="#000000" font-family="sans-serif" font-size="13" lengthAdjust="spacing" textLength="77" x="3839.75" y="2026.041">ok response</text><polygon fill="#181818" points="2513.5,2056.0938,2503.5,2060.0938,2513.5,2064.0938" style="stroke:#181818;stroke-width:1.0;"/><line style="stroke:#181818;stroke-width:1.0;" x1="2507.5" x2="2882" y1="2060.0938" y2="2060.0938"/><text fill="#000000" font-family="sans-serif" font-size="13" lengthAdjust="spacing" textLength="96" x="2644.75" y="2055.3516">resolve request</text><path d="M10,2075.0938 L72,2075.0938 L72,2082.4043 L62,2092.4043 L10,2092.4043 L10,2075.0938 " fill="#EEEEEE" style="stroke:#000000;stroke-width:1.5;"/><rect fill="none" height="193.1738" style="stroke:#000000;stroke-width:1.5;" width="4944" x="10" y="2075.0938"/><text fill="#000000" font-family="sans-serif" font-size="13" font-weight="bold" lengthAdjust="spacing" textLength="17" x="25" y="2088.6621">alt</text><text fill="#000000" font-family="sans-serif" font-size="11" font-weight="bold" lengthAdjust="spacing" textLength="169" x="87" y="2087.7285">[Email address already in use]</text><polygon fill="#181818" points="2894,2109.7148,2884,2113.7148,2894,2117.7148" style="stroke:#181818;stroke-width:1.0;"/><line style="stroke:#181818;stroke-width:1.0;stroke-dasharray:2.0,2.0;" x1="2888" x2="4872.5" y1="2113.7148" y2="2113.7148"/><text fill="#000000" font-family="sans-serif" font-size="13" lengthAdjust="spacing" textLength="91" x="3832.75" y="2108.9727">Error response</text><polygon fill="#181818" points="2513.5,2139.0254,2503.5,2143.0254,2513.5,2147.0254" style="stroke:#181818;stroke-width:1.0;"/><line style="stroke:#181818;stroke-width:1.0;stroke-dasharray:2.0,2.0;" x1="2507.5" x2="2882" y1="2143.0254" y2="2143.0254"/><text fill="#000000" font-family="sans-serif" font-size="13" lengthAdjust="spacing" textLength="127" x="2629.25" y="2138.2832">reject requestObject</text><polygon fill="#181818" points="4409,2168.3359,4419,2172.3359,4409,2176.3359" style="stroke:#181818;stroke-width:1.0;"/><line style="stroke:#181818;stroke-width:1.0;" x1="2502.5" x2="4415" y1="2172.3359" y2="2172.3359"/><text fill="#000000" font-family="sans-serif" font-size="13" lengthAdjust="spacing" textLength="169" x="3377.25" y="2167.5938">request and build template</text><polygon fill="#181818" points="2513.5,2197.6465,2503.5,2201.6465,2513.5,2205.6465" style="stroke:#181818;stroke-width:1.0;"/><line style="stroke:#181818;stroke-width:1.0;" x1="2507.5" x2="4420" y1="2201.6465" y2="2201.6465"/><text fill="#000000" font-family="sans-serif" font-size="13" lengthAdjust="spacing" textLength="78" x="3422.75" y="2196.9043">return HTML</text><polygon fill="#181818" points="1839.5,2226.957,1829.5,2230.957,1839.5,2234.957" style="stroke:#181818;stroke-width:1.0;"/><line style="stroke:#181818;stroke-width:1.0;" x1="1833.5" x2="2501.5" y1="2230.957" y2="2230.957"/><text fill="#000000" font-family="sans-serif" font-size="13" lengthAdjust="spacing" textLength="112" x="2109.5" y="2226.2148">return error HTML</text><polygon fill="#181818" points="56.5,2256.2676,46.5,2260.2676,56.5,2264.2676" style="stroke:#181818;stroke-width:1.0;"/><line style="stroke:#181818;stroke-width:1.0;" x1="50.5" x2="1827.5" y1="2260.2676" y2="2260.2676"/><text fill="#000000" font-family="sans-serif" font-size="13" lengthAdjust="spacing" textLength="133" x="870.5" y="2255.5254">render error message</text><polygon fill="#181818" points="181.5,2292.5781,171.5,2296.5781,181.5,2300.5781" style="stroke:#181818;stroke-width:1.0;"/><line style="stroke:#181818;stroke-width:1.0;" x1="175.5" x2="2501.5" y1="2296.5781" y2="2296.5781"/><text fill="#000000" font-family="sans-serif" font-size="13" lengthAdjust="spacing" textLength="137" x="1268" y="2291.8359">redirect to users page</text><polygon fill="#181818" points="56.5,2321.8887,46.5,2325.8887,56.5,2329.8887" style="stroke:#181818;stroke-width:1.0;"/><line style="stroke:#181818;stroke-width:1.0;" x1="50.5" x2="169.5" y1="2325.8887" y2="2325.8887"/><text fill="#000000" font-family="sans-serif" font-size="13" lengthAdjust="spacing" textLength="80" x="68" y="2321.1465">render HTML</text><!--SRC=[nLTRJ-9057wVNt4MDr4IBk_4c5JekhXeNIY-RiRf4KQ6ATjEDVxxFTDMAQK5H9FbeMbdplUT-vbXBWE4H2kf5nWmzargeH9Qcg76I8hsWmh58kwi5DScMIh6ueNKAnxn9KpCgqA83OdPBIXkuTy4jS0RZ6C-GqV9cLwYDY3eWH5Z96Qaa2jY1KUOa9PEJqzXvFMT4OozgJ-ylTeGciOOnNV41UVdNHuifPQacHiPwcvYzoukjkJ7AC8es0LAd-qebIiHk84qbcGd74ceRLzhmFxh2WyZwFRiK_CbTWs1Tl0Dq72fuW_Jfc_-Rkv-g1zbj3oUkoioXfAEgwoQt2WAtmEAzeFaqiJtlLj_x8r6xXYSsm6CtTzJT-A3Ttdjzlr9fRqn6MkYK2cCYExTgevuN-uyKLN02HNVtBoYKk7B1b4_GcvmcqgawobPV3ZRkk2yXoSKXeYIzwM1utLcQCwQknZU7Al1hv83yJOFTHpSYFasIvg2UsSq73Y-DvxKHUcUAnbmQbOukGfLaC5yz-PkvFZkf2OQFYvfU9Y3Mh2ZdnPrrVb5D1IR0bKbKp7_6Qtjo3saULT-d3l8W7leyyRy47tUYhiqs1OiSFv9UpBkviC_Gr2fy6VK0UOp-jBf_tAfHzSjky5voSM2fDSTnLWwuA5zKHhAFH1AYWNOrWLhCYiDRK9KDJlXk59hM0oYe8mh0vDhBzq1Efim1XDcmdaW6D2lS9wqQxH418fi5n4-qxCYUKRECVOz3v5pD-oJCMSL3AsjaT3Q37WB6Z_87WoiWaUapioCpiriD04oTwRRheGl-alTYT84lrdcXvQgsgboGxOsJifc8Tl5zHxqqroBETTaP9OSgckm5m-sjfvWrMCvJtfMu1Lfh_QWagjLEGrQMuTsbIzlUpswuYWRpBKdN0TvGLkxf4wGRLq3ZdVlEPkzEDJs7AZngsfM7-ejLUDjM70dJlt3eD7yH71BKx5LTv6f2tL1f0VfrN6ZHVR5l7XL-k-XFpGMb8YXJdMMni4dyb0wFbfrbxwwF1H4Ukk0soLMTtqyFjwbqRh7lVsZDLa5RvesWaaAKf2ZpB5At2Mn0G-2YFxe05V44ho2r5PPu-WKR0ppkY3MZFCiVOHRarXPMpRmqxyPiNy0]--></g></svg>