<?xml version="1.0" encoding="us-ascii" standalone="no"?><svg xmlns="http://www.w3.org/2000/svg" xmlns:xlink="http://www.w3.org/1999/xlink" contentStyleType="text/css" height="2087px" preserveAspectRatio="none" style="width:4519px;height:2087px;background:#FFFFFF;" version="1.1" viewBox="0 0 4519 2087" width="4519px" zoomAndPan="magnify"><defs/><g><rect fill="none" height="149.5078" style="stroke:#000000;stroke-width:1.5;" width="2517" x="10" y="69.9766"/><rect fill="none" height="193.1738" style="stroke:#000000;stroke-width:1.5;" width="4503" x="10" y="292.1055"/><rect fill="none" height="163.8633" style="stroke:#000000;stroke-width:1.5;" width="4352" x="10" y="733.7637"/><rect fill="none" height="193.1738" style="stroke:#000000;stroke-width:1.5;" width="4503" x="10" y="999.5586"/><rect fill="none" height="193.1738" style="stroke:#000000;stroke-width:1.5;" width="4503" x="10" y="1323.9746"/><rect fill="none" height="134.5527" style="stroke:#000000;stroke-width:1.5;" width="4017" x="10" y="1531.1484"/><rect fill="none" height="325.3711" style="stroke:#000000;stroke-width:1.5;" width="3761" x="10" y="1738.3223"/><line style="stroke:#181818;stroke-width:0.5;stroke-dasharray:5.0,5.0;" x1="45" x2="45" y1="52.9766" y2="2080.6934"/><line style="stroke:#181818;stroke-width:0.5;stroke-dasharray:5.0,5.0;" x1="301" x2="301" y1="52.9766" y2="2080.6934"/><line style="stroke:#181818;stroke-width:0.5;stroke-dasharray:5.0,5.0;" x1="817" x2="817" y1="52.9766" y2="2080.6934"/><line style="stroke:#181818;stroke-width:0.5;stroke-dasharray:5.0,5.0;" x1="1403" x2="1403" y1="52.9766" y2="2080.6934"/><line style="stroke:#181818;stroke-width:0.5;stroke-dasharray:5.0,5.0;" x1="1745" x2="1745" y1="52.9766" y2="2080.6934"/><line style="stroke:#181818;stroke-width:0.5;stroke-dasharray:5.0,5.0;" x1="1922" x2="1922" y1="52.9766" y2="2080.6934"/><line style="stroke:#181818;stroke-width:0.5;stroke-dasharray:5.0,5.0;" x1="2145" x2="2145" y1="52.9766" y2="2080.6934"/><line style="stroke:#181818;stroke-width:0.5;stroke-dasharray:5.0,5.0;" x1="2399" x2="2399" y1="52.9766" y2="2080.6934"/><line style="stroke:#181818;stroke-width:0.5;stroke-dasharray:5.0,5.0;" x1="2631" x2="2631" y1="52.9766" y2="2080.6934"/><line style="stroke:#181818;stroke-width:0.5;stroke-dasharray:5.0,5.0;" x1="2857" x2="2857" y1="52.9766" y2="2080.6934"/><line style="stroke:#181818;stroke-width:0.5;stroke-dasharray:5.0,5.0;" x1="3154" x2="3154" y1="52.9766" y2="2080.6934"/><line style="stroke:#181818;stroke-width:0.5;stroke-dasharray:5.0,5.0;" x1="3550" x2="3550" y1="52.9766" y2="2080.6934"/><line style="stroke:#181818;stroke-width:0.5;stroke-dasharray:5.0,5.0;" x1="3894" x2="3894" y1="52.9766" y2="2080.6934"/><line style="stroke:#181818;stroke-width:0.5;stroke-dasharray:5.0,5.0;" x1="4107" x2="4107" y1="52.9766" y2="2080.6934"/><line style="stroke:#181818;stroke-width:0.5;stroke-dasharray:5.0,5.0;" x1="4274" x2="4274" y1="52.9766" y2="2080.6934"/><line style="stroke:#181818;stroke-width:0.5;stroke-dasharray:5.0,5.0;" x1="4432" x2="4432" y1="52.9766" y2="2080.6934"/><rect fill="#E2E2F0" height="30.4883" rx="2.5" ry="2.5" style="stroke:#181818;stroke-width:0.5;" width="51" x="20" y="21.4883"/><text fill="#000000" font-family="sans-serif" font-size="14" lengthAdjust="spacing" textLength="37" x="27" y="42.0234">Actor</text><rect fill="#E2E2F0" height="46.9766" rx="2.5" ry="2.5" style="stroke:#181818;stroke-width:0.5;" width="391" x="106" y="5"/><text fill="#000000" font-family="sans-serif" font-size="14" font-style="italic" lengthAdjust="spacing" textLength="377" x="113" y="25.5352">&#171;/juror-management/record/:jurorNumber/expenses&#187;</text><text fill="#000000" font-family="sans-serif" font-size="14" lengthAdjust="spacing" textLength="180" x="211.5" y="42.0234">JurorRecordExpensesPage</text><rect fill="#E2E2F0" height="46.9766" rx="2.5" ry="2.5" style="stroke:#181818;stroke-width:0.5;" width="621" x="507" y="5"/><text fill="#000000" font-family="sans-serif" font-size="14" font-style="italic" lengthAdjust="spacing" textLength="607" x="514" y="25.5352">&#171;/juror-management/unpaid-attendance/expense-record/:jurorNumber/:poolNumber&#187;</text><text fill="#000000" font-family="sans-serif" font-size="14" lengthAdjust="spacing" textLength="173" x="731" y="42.0234">DraftExpenseRecordPage</text><rect fill="#E2E2F0" height="46.9766" rx="2.5" ry="2.5" style="stroke:#181818;stroke-width:0.5;" width="530" x="1138" y="5"/><text fill="#000000" font-family="sans-serif" font-size="14" font-style="italic" lengthAdjust="spacing" textLength="516" x="1145" y="25.5352">&#171;/juror-management/expenses/:jurorNumber/:poolNumber/bank-details&#187;</text><text fill="#000000" font-family="sans-serif" font-size="14" lengthAdjust="spacing" textLength="112" x="1347" y="42.0234">BankDetailsPage</text><rect fill="#E2E2F0" height="46.9766" rx="2.5" ry="2.5" style="stroke:#181818;stroke-width:0.5;" width="134" x="1678" y="5"/><text fill="#000000" font-family="sans-serif" font-size="14" font-style="italic" lengthAdjust="spacing" textLength="56" x="1717" y="25.5352">&#171;/error&#187;</text><text fill="#000000" font-family="sans-serif" font-size="14" lengthAdjust="spacing" textLength="120" x="1685" y="42.0234">GenericErrorPage</text><rect fill="#FFFFE0" height="46.9766" rx="2.5" ry="2.5" style="stroke:#181818;stroke-width:0.5;" width="201" x="1822" y="5"/><text fill="#000000" font-family="sans-serif" font-size="14" font-style="italic" lengthAdjust="spacing" textLength="187" x="1829" y="25.5352">&#171;juror-record.controller.js&#187;</text><text fill="#000000" font-family="sans-serif" font-size="14" lengthAdjust="spacing" textLength="152" x="1846.5" y="42.0234">JurorRecordController</text><rect fill="#FFFFE0" height="46.9766" rx="2.5" ry="2.5" style="stroke:#181818;stroke-width:0.5;" width="225" x="2033" y="5"/><text fill="#000000" font-family="sans-serif" font-size="14" font-style="italic" lengthAdjust="spacing" textLength="211" x="2040" y="25.5352">&#171;expense-record.controller.js&#187;</text><text fill="#000000" font-family="sans-serif" font-size="14" lengthAdjust="spacing" textLength="176" x="2057.5" y="42.0234">ExpenseRecordController</text><rect fill="#FFFFE0" height="46.9766" rx="2.5" ry="2.5" style="stroke:#181818;stroke-width:0.5;" width="235" x="2282" y="5"/><text fill="#000000" font-family="sans-serif" font-size="14" font-style="italic" lengthAdjust="spacing" textLength="221" x="2289" y="25.5352">&#171;edit-bank-details.controller.js&#187;</text><text fill="#000000" font-family="sans-serif" font-size="14" lengthAdjust="spacing" textLength="175" x="2312" y="42.0234">EditBankDetailsController</text><rect fill="#FFFFE0" height="46.9766" rx="2.5" ry="2.5" style="stroke:#181818;stroke-width:0.5;" width="208" x="2527" y="5"/><text fill="#000000" font-family="sans-serif" font-size="14" font-style="italic" lengthAdjust="spacing" textLength="194" x="2534" y="25.5352">&#171;jurorBankDetailsDAO.get()&#187;</text><text fill="#000000" font-family="sans-serif" font-size="14" lengthAdjust="spacing" textLength="123" x="2569.5" y="42.0234">BankDetailsObject</text><rect fill="#FFFFE0" height="46.9766" rx="2.5" ry="2.5" style="stroke:#181818;stroke-width:0.5;" width="224" x="2745" y="5"/><text fill="#000000" font-family="sans-serif" font-size="14" font-style="italic" lengthAdjust="spacing" textLength="210" x="2752" y="25.5352">&#171;jurorBankDetailsDAO.patch()&#187;</text><text fill="#000000" font-family="sans-serif" font-size="14" lengthAdjust="spacing" textLength="144" x="2785" y="42.0234">SetBankDetailsObject</text><rect fill="#E6E6FA" height="46.9766" rx="2.5" ry="2.5" style="stroke:#181818;stroke-width:0.5;" width="351" x="2979" y="5"/><text fill="#000000" font-family="sans-serif" font-size="14" font-style="italic" lengthAdjust="spacing" textLength="337" x="2986" y="25.5352">&#171;juror-management/juror-record/expenses.njk&#187;</text><text fill="#000000" font-family="sans-serif" font-size="14" lengthAdjust="spacing" textLength="211" x="3049" y="42.0234">JurorRecordExpensesTemplate</text><rect fill="#E6E6FA" height="46.9766" rx="2.5" ry="2.5" style="stroke:#181818;stroke-width:0.5;" width="421" x="3340" y="5"/><text fill="#000000" font-family="sans-serif" font-size="14" font-style="italic" lengthAdjust="spacing" textLength="407" x="3347" y="25.5352">&#171;juror-management/expense-record/expense-record.njk&#187;</text><text fill="#000000" font-family="sans-serif" font-size="14" lengthAdjust="spacing" textLength="204" x="3448.5" y="42.0234">DraftExpenseRecordTemplate</text><rect fill="#E6E6FA" height="46.9766" rx="2.5" ry="2.5" style="stroke:#181818;stroke-width:0.5;" width="246" x="3771" y="5"/><text fill="#000000" font-family="sans-serif" font-size="14" font-style="italic" lengthAdjust="spacing" textLength="232" x="3778" y="25.5352">&#171;expenses/default-expenses.njk&#187;</text><text fill="#000000" font-family="sans-serif" font-size="14" lengthAdjust="spacing" textLength="143" x="3822.5" y="42.0234">BankDetailsTemplate</text><rect fill="#E6E6FA" height="46.9766" rx="2.5" ry="2.5" style="stroke:#181818;stroke-width:0.5;" width="160" x="4027" y="5"/><text fill="#000000" font-family="sans-serif" font-size="14" font-style="italic" lengthAdjust="spacing" textLength="146" x="4034" y="25.5352">&#171;_errors/generic.njk&#187;</text><text fill="#000000" font-family="sans-serif" font-size="14" lengthAdjust="spacing" textLength="99" x="4057.5" y="42.0234">ErrorTemplate</text><rect fill="#E2E2F0" height="30.4883" rx="2.5" ry="2.5" style="stroke:#181818;stroke-width:0.5;" width="155" x="4197" y="21.4883"/><text fill="#000000" font-family="sans-serif" font-size="14" lengthAdjust="spacing" textLength="141" x="4204" y="42.0234">BankDetailsValidator</text><rect fill="#E2E2F0" height="30.4883" rx="2.5" ry="2.5" style="stroke:#181818;stroke-width:0.5;" width="141" x="4362" y="21.4883"/><text fill="#000000" font-family="sans-serif" font-size="14" lengthAdjust="spacing" textLength="127" x="4369" y="42.0234">BackendController</text><path d="M10,69.9766 L72,69.9766 L72,77.2871 L62,87.2871 L10,87.2871 L10,69.9766 " fill="#EEEEEE" style="stroke:#000000;stroke-width:1.5;"/><rect fill="none" height="149.5078" style="stroke:#000000;stroke-width:1.5;" width="2517" x="10" y="69.9766"/><text fill="#000000" font-family="sans-serif" font-size="13" font-weight="bold" lengthAdjust="spacing" textLength="17" x="25" y="83.5449">alt</text><text fill="#000000" font-family="sans-serif" font-size="11" font-weight="bold" lengthAdjust="spacing" textLength="160" x="87" y="82.6113">[Navigate from juror record]</text><polygon fill="#181818" points="289.5,104.5977,299.5,108.5977,289.5,112.5977" style="stroke:#181818;stroke-width:1.0;"/><line style="stroke:#181818;stroke-width:1.0;" x1="45.5" x2="295.5" y1="108.5977" y2="108.5977"/><text fill="#000000" font-family="sans-serif" font-size="13" lengthAdjust="spacing" textLength="232" x="57.5" y="103.8555">click add or change bank details link</text><polygon fill="#181818" points="2387.5,133.9082,2397.5,137.9082,2387.5,141.9082" style="stroke:#181818;stroke-width:1.0;"/><line style="stroke:#181818;stroke-width:1.0;" x1="301.5" x2="2393.5" y1="137.9082" y2="137.9082"/><text fill="#000000" font-family="sans-serif" font-size="13" lengthAdjust="spacing" textLength="168" x="1266.5" y="133.166">call bank details controller</text><line style="stroke:#000000;stroke-width:1.0;stroke-dasharray:2.0,2.0;" x1="10" x2="2527" y1="146.9082" y2="146.9082"/><text fill="#000000" font-family="sans-serif" font-size="11" font-weight="bold" lengthAdjust="spacing" textLength="176" x="15" y="157.543">[Navigate from expense record]</text><polygon fill="#181818" points="805.5,178.1738,815.5,182.1738,805.5,186.1738" style="stroke:#181818;stroke-width:1.0;"/><line style="stroke:#181818;stroke-width:1.0;" x1="45.5" x2="811.5" y1="182.1738" y2="182.1738"/><text fill="#000000" font-family="sans-serif" font-size="13" lengthAdjust="spacing" textLength="232" x="315.5" y="177.4316">click add or change bank details link</text><polygon fill="#181818" points="2387.5,207.4844,2397.5,211.4844,2387.5,215.4844" style="stroke:#181818;stroke-width:1.0;"/><line style="stroke:#181818;stroke-width:1.0;" x1="817.5" x2="2393.5" y1="211.4844" y2="211.4844"/><text fill="#000000" font-family="sans-serif" font-size="13" lengthAdjust="spacing" textLength="168" x="1524.5" y="206.7422">call bank details controller</text><polygon fill="#181818" points="2619,243.7949,2629,247.7949,2619,251.7949" style="stroke:#181818;stroke-width:1.0;"/><line style="stroke:#181818;stroke-width:1.0;" x1="2399.5" x2="2625" y1="247.7949" y2="247.7949"/><text fill="#000000" font-family="sans-serif" font-size="13" lengthAdjust="spacing" textLength="126" x="2452.25" y="243.0527">build request object</text><polygon fill="#181818" points="4420.5,273.1055,4430.5,277.1055,4420.5,281.1055" style="stroke:#181818;stroke-width:1.0;"/><line style="stroke:#181818;stroke-width:1.0;" x1="2631" x2="4426.5" y1="277.1055" y2="277.1055"/><text fill="#000000" font-family="sans-serif" font-size="13" lengthAdjust="spacing" textLength="138" x="3462.75" y="272.3633">send backend request</text><path d="M10,292.1055 L72,292.1055 L72,299.416 L62,309.416 L10,309.416 L10,292.1055 " fill="#EEEEEE" style="stroke:#000000;stroke-width:1.5;"/><rect fill="none" height="193.1738" style="stroke:#000000;stroke-width:1.5;" width="4503" x="10" y="292.1055"/><text fill="#000000" font-family="sans-serif" font-size="13" font-weight="bold" lengthAdjust="spacing" textLength="17" x="25" y="305.6738">alt</text><text fill="#000000" font-family="sans-serif" font-size="11" font-weight="bold" lengthAdjust="spacing" textLength="198" x="87" y="304.7402">[Failed to fetch jurors bank details]</text><polygon fill="#181818" points="2642,326.7266,2632,330.7266,2642,334.7266" style="stroke:#181818;stroke-width:1.0;"/><line style="stroke:#181818;stroke-width:1.0;stroke-dasharray:2.0,2.0;" x1="2636" x2="4431.5" y1="330.7266" y2="330.7266"/><text fill="#000000" font-family="sans-serif" font-size="13" lengthAdjust="spacing" textLength="91" x="3486.25" y="325.9844">Error response</text><polygon fill="#181818" points="2410.5,356.0371,2400.5,360.0371,2410.5,364.0371" style="stroke:#181818;stroke-width:1.0;"/><line style="stroke:#181818;stroke-width:1.0;stroke-dasharray:2.0,2.0;" x1="2404.5" x2="2630" y1="360.0371" y2="360.0371"/><text fill="#000000" font-family="sans-serif" font-size="13" lengthAdjust="spacing" textLength="127" x="2451.75" y="355.2949">reject requestObject</text><polygon fill="#181818" points="4095,385.3477,4105,389.3477,4095,393.3477" style="stroke:#181818;stroke-width:1.0;"/><line style="stroke:#181818;stroke-width:1.0;" x1="2399.5" x2="4101" y1="389.3477" y2="389.3477"/><text fill="#000000" font-family="sans-serif" font-size="13" lengthAdjust="spacing" textLength="169" x="3168.75" y="384.6055">request and build template</text><polygon fill="#181818" points="2410.5,414.6582,2400.5,418.6582,2410.5,422.6582" style="stroke:#181818;stroke-width:1.0;"/><line style="stroke:#181818;stroke-width:1.0;" x1="2404.5" x2="4106" y1="418.6582" y2="418.6582"/><text fill="#000000" font-family="sans-serif" font-size="13" lengthAdjust="spacing" textLength="78" x="3214.25" y="413.916">return HTML</text><polygon fill="#181818" points="1756,443.9688,1746,447.9688,1756,451.9688" style="stroke:#181818;stroke-width:1.0;"/><line style="stroke:#181818;stroke-width:1.0;" x1="1750" x2="2398.5" y1="447.9688" y2="447.9688"/><text fill="#000000" font-family="sans-serif" font-size="13" lengthAdjust="spacing" textLength="78" x="2033.25" y="443.2266">return HTML</text><polygon fill="#181818" points="56.5,473.2793,46.5,477.2793,56.5,481.2793" style="stroke:#181818;stroke-width:1.0;"/><line style="stroke:#181818;stroke-width:1.0;" x1="50.5" x2="1744" y1="477.2793" y2="477.2793"/><text fill="#000000" font-family="sans-serif" font-size="13" lengthAdjust="spacing" textLength="108" x="841.25" y="472.5371">render error page</text><polygon fill="#181818" points="2642,509.5898,2632,513.5898,2642,517.5898" style="stroke:#181818;stroke-width:1.0;"/><line style="stroke:#181818;stroke-width:1.0;" x1="2636" x2="4431.5" y1="513.5898" y2="513.5898"/><text fill="#000000" font-family="sans-serif" font-size="13" lengthAdjust="spacing" textLength="77" x="3493.25" y="508.8477">ok response</text><polygon fill="#181818" points="2410.5,538.9004,2400.5,542.9004,2410.5,546.9004" style="stroke:#181818;stroke-width:1.0;"/><line style="stroke:#181818;stroke-width:1.0;" x1="2404.5" x2="2630" y1="542.9004" y2="542.9004"/><text fill="#000000" font-family="sans-serif" font-size="13" lengthAdjust="spacing" textLength="96" x="2467.25" y="538.1582">resolve request</text><polygon fill="#181818" points="3882,568.2109,3892,572.2109,3882,576.2109" style="stroke:#181818;stroke-width:1.0;"/><line style="stroke:#181818;stroke-width:1.0;" x1="2399.5" x2="3888" y1="572.2109" y2="572.2109"/><text fill="#000000" font-family="sans-serif" font-size="13" lengthAdjust="spacing" textLength="169" x="3062.25" y="567.4688">request and build template</text><polygon fill="#181818" points="2410.5,597.5215,2400.5,601.5215,2410.5,605.5215" style="stroke:#181818;stroke-width:1.0;"/><line style="stroke:#181818;stroke-width:1.0;" x1="2404.5" x2="3893" y1="601.5215" y2="601.5215"/><text fill="#000000" font-family="sans-serif" font-size="13" lengthAdjust="spacing" textLength="78" x="3107.75" y="596.7793">return HTML</text><polygon fill="#181818" points="1414,626.832,1404,630.832,1414,634.832" style="stroke:#181818;stroke-width:1.0;"/><line style="stroke:#181818;stroke-width:1.0;" x1="1408" x2="2398.5" y1="630.832" y2="630.832"/><text fill="#000000" font-family="sans-serif" font-size="13" lengthAdjust="spacing" textLength="78" x="1862.25" y="626.0898">return HTML</text><polygon fill="#181818" points="56.5,656.1426,46.5,660.1426,56.5,664.1426" style="stroke:#181818;stroke-width:1.0;"/><line style="stroke:#181818;stroke-width:1.0;" x1="50.5" x2="1402" y1="660.1426" y2="660.1426"/><text fill="#000000" font-family="sans-serif" font-size="13" lengthAdjust="spacing" textLength="80" x="684.25" y="655.4004">render HTML</text><polygon fill="#181818" points="1391,685.4531,1401,689.4531,1391,693.4531" style="stroke:#181818;stroke-width:1.0;"/><line style="stroke:#181818;stroke-width:1.0;" x1="45.5" x2="1397" y1="689.4531" y2="689.4531"/><text fill="#000000" font-family="sans-serif" font-size="13" lengthAdjust="spacing" textLength="198" x="625.25" y="684.7109">enters valid bank details values</text><polygon fill="#181818" points="4262.5,714.7637,4272.5,718.7637,4262.5,722.7637" style="stroke:#181818;stroke-width:1.0;"/><line style="stroke:#181818;stroke-width:1.0;" x1="2399.5" x2="4268.5" y1="718.7637" y2="718.7637"/><text fill="#000000" font-family="sans-serif" font-size="13" lengthAdjust="spacing" textLength="95" x="3289.5" y="714.0215">validate details</text><path d="M10,733.7637 L72,733.7637 L72,741.0742 L62,751.0742 L10,751.0742 L10,733.7637 " fill="#EEEEEE" style="stroke:#000000;stroke-width:1.5;"/><rect fill="none" height="163.8633" style="stroke:#000000;stroke-width:1.5;" width="4352" x="10" y="733.7637"/><text fill="#000000" font-family="sans-serif" font-size="13" font-weight="bold" lengthAdjust="spacing" textLength="17" x="25" y="747.332">alt</text><text fill="#000000" font-family="sans-serif" font-size="11" font-weight="bold" lengthAdjust="spacing" textLength="164" x="87" y="746.3984">[Invalid bank details entered]</text><polygon fill="#181818" points="2410.5,768.3848,2400.5,772.3848,2410.5,776.3848" style="stroke:#181818;stroke-width:1.0;"/><line style="stroke:#181818;stroke-width:1.0;" x1="2404.5" x2="4273.5" y1="772.3848" y2="772.3848"/><text fill="#000000" font-family="sans-serif" font-size="13" lengthAdjust="spacing" textLength="174" x="3250" y="767.6426">Invalid bank details entered</text><polygon fill="#181818" points="3882,797.6953,3892,801.6953,3882,805.6953" style="stroke:#181818;stroke-width:1.0;"/><line style="stroke:#181818;stroke-width:1.0;" x1="2399.5" x2="3888" y1="801.6953" y2="801.6953"/><text fill="#000000" font-family="sans-serif" font-size="13" lengthAdjust="spacing" textLength="169" x="3062.25" y="796.9531">request and build template</text><polygon fill="#181818" points="2410.5,827.0059,2400.5,831.0059,2410.5,835.0059" style="stroke:#181818;stroke-width:1.0;"/><line style="stroke:#181818;stroke-width:1.0;" x1="2404.5" x2="3893" y1="831.0059" y2="831.0059"/><text fill="#000000" font-family="sans-serif" font-size="13" lengthAdjust="spacing" textLength="78" x="3107.75" y="826.2637">return HTML</text><polygon fill="#181818" points="1414,856.3164,1404,860.3164,1414,864.3164" style="stroke:#181818;stroke-width:1.0;"/><line style="stroke:#181818;stroke-width:1.0;" x1="1408" x2="2398.5" y1="860.3164" y2="860.3164"/><text fill="#000000" font-family="sans-serif" font-size="13" lengthAdjust="spacing" textLength="112" x="1845.25" y="855.5742">return error HTML</text><polygon fill="#181818" points="56.5,885.627,46.5,889.627,56.5,893.627" style="stroke:#181818;stroke-width:1.0;"/><line style="stroke:#181818;stroke-width:1.0;" x1="50.5" x2="1402" y1="889.627" y2="889.627"/><text fill="#000000" font-family="sans-serif" font-size="13" lengthAdjust="spacing" textLength="133" x="657.75" y="884.8848">render error message</text><polygon fill="#181818" points="2410.5,921.9375,2400.5,925.9375,2410.5,929.9375" style="stroke:#181818;stroke-width:1.0;"/><line style="stroke:#181818;stroke-width:1.0;" x1="2404.5" x2="4273.5" y1="925.9375" y2="925.9375"/><text fill="#000000" font-family="sans-serif" font-size="13" lengthAdjust="spacing" textLength="127" x="3273.5" y="921.1953">valid details entered</text><polygon fill="#181818" points="2845,951.248,2855,955.248,2845,959.248" style="stroke:#181818;stroke-width:1.0;"/><line style="stroke:#181818;stroke-width:1.0;" x1="2399.5" x2="2851" y1="955.248" y2="955.248"/><text fill="#000000" font-family="sans-serif" font-size="13" lengthAdjust="spacing" textLength="126" x="2565.25" y="950.5059">build request object</text><polygon fill="#181818" points="4420.5,980.5586,4430.5,984.5586,4420.5,988.5586" style="stroke:#181818;stroke-width:1.0;"/><line style="stroke:#181818;stroke-width:1.0;" x1="2857" x2="4426.5" y1="984.5586" y2="984.5586"/><text fill="#000000" font-family="sans-serif" font-size="13" lengthAdjust="spacing" textLength="138" x="3575.75" y="979.8164">send backend request</text><path d="M10,999.5586 L72,999.5586 L72,1006.8691 L62,1016.8691 L10,1016.8691 L10,999.5586 " fill="#EEEEEE" style="stroke:#000000;stroke-width:1.5;"/><rect fill="none" height="193.1738" style="stroke:#000000;stroke-width:1.5;" width="4503" x="10" y="999.5586"/><text fill="#000000" font-family="sans-serif" font-size="13" font-weight="bold" lengthAdjust="spacing" textLength="17" x="25" y="1013.127">alt</text><text fill="#000000" font-family="sans-serif" font-size="11" font-weight="bold" lengthAdjust="spacing" textLength="186" x="87" y="1012.1934">[Failed to set jurors bank details]</text><polygon fill="#181818" points="2868,1034.1797,2858,1038.1797,2868,1042.1797" style="stroke:#181818;stroke-width:1.0;"/><line style="stroke:#181818;stroke-width:1.0;stroke-dasharray:2.0,2.0;" x1="2862" x2="4431.5" y1="1038.1797" y2="1038.1797"/><text fill="#000000" font-family="sans-serif" font-size="13" lengthAdjust="spacing" textLength="91" x="3599.25" y="1033.4375">Error response</text><polygon fill="#181818" points="2410.5,1063.4902,2400.5,1067.4902,2410.5,1071.4902" style="stroke:#181818;stroke-width:1.0;"/><line style="stroke:#181818;stroke-width:1.0;stroke-dasharray:2.0,2.0;" x1="2404.5" x2="2856" y1="1067.4902" y2="1067.4902"/><text fill="#000000" font-family="sans-serif" font-size="13" lengthAdjust="spacing" textLength="127" x="2564.75" y="1062.748">reject requestObject</text><polygon fill="#181818" points="4095,1092.8008,4105,1096.8008,4095,1100.8008" style="stroke:#181818;stroke-width:1.0;"/><line style="stroke:#181818;stroke-width:1.0;" x1="2399.5" x2="4101" y1="1096.8008" y2="1096.8008"/><text fill="#000000" font-family="sans-serif" font-size="13" lengthAdjust="spacing" textLength="169" x="3168.75" y="1092.0586">request and build template</text><polygon fill="#181818" points="2410.5,1122.1113,2400.5,1126.1113,2410.5,1130.1113" style="stroke:#181818;stroke-width:1.0;"/><line style="stroke:#181818;stroke-width:1.0;" x1="2404.5" x2="4106" y1="1126.1113" y2="1126.1113"/><text fill="#000000" font-family="sans-serif" font-size="13" lengthAdjust="spacing" textLength="78" x="3214.25" y="1121.3691">return HTML</text><polygon fill="#181818" points="1756,1151.4219,1746,1155.4219,1756,1159.4219" style="stroke:#181818;stroke-width:1.0;"/><line style="stroke:#181818;stroke-width:1.0;" x1="1750" x2="2398.5" y1="1155.4219" y2="1155.4219"/><text fill="#000000" font-family="sans-serif" font-size="13" lengthAdjust="spacing" textLength="78" x="2033.25" y="1150.6797">return HTML</text><polygon fill="#181818" points="56.5,1180.7324,46.5,1184.7324,56.5,1188.7324" style="stroke:#181818;stroke-width:1.0;"/><line style="stroke:#181818;stroke-width:1.0;" x1="50.5" x2="1744" y1="1184.7324" y2="1184.7324"/><text fill="#000000" font-family="sans-serif" font-size="13" lengthAdjust="spacing" textLength="108" x="841.25" y="1179.9902">render error page</text><polygon fill="#181818" points="2868,1217.043,2858,1221.043,2868,1225.043" style="stroke:#181818;stroke-width:1.0;"/><line style="stroke:#181818;stroke-width:1.0;" x1="2862" x2="4431.5" y1="1221.043" y2="1221.043"/><text fill="#000000" font-family="sans-serif" font-size="13" lengthAdjust="spacing" textLength="77" x="3606.25" y="1216.3008">ok response</text><polygon fill="#181818" points="2410.5,1246.3535,2400.5,1250.3535,2410.5,1254.3535" style="stroke:#181818;stroke-width:1.0;"/><line style="stroke:#181818;stroke-width:1.0;" x1="2404.5" x2="2856" y1="1250.3535" y2="1250.3535"/><text fill="#000000" font-family="sans-serif" font-size="13" lengthAdjust="spacing" textLength="96" x="2580.25" y="1245.6113">resolve request</text><polygon fill="#181818" points="2619,1275.6641,2629,1279.6641,2619,1283.6641" style="stroke:#181818;stroke-width:1.0;"/><line style="stroke:#181818;stroke-width:1.0;" x1="2399.5" x2="2625" y1="1279.6641" y2="1279.6641"/><text fill="#000000" font-family="sans-serif" font-size="13" lengthAdjust="spacing" textLength="126" x="2452.25" y="1274.9219">build request object</text><polygon fill="#181818" points="4420.5,1304.9746,4430.5,1308.9746,4420.5,1312.9746" style="stroke:#181818;stroke-width:1.0;"/><line style="stroke:#181818;stroke-width:1.0;" x1="2631" x2="4426.5" y1="1308.9746" y2="1308.9746"/><text fill="#000000" font-family="sans-serif" font-size="13" lengthAdjust="spacing" textLength="138" x="3462.75" y="1304.2324">send backend request</text><path d="M10,1323.9746 L72,1323.9746 L72,1331.2852 L62,1341.2852 L10,1341.2852 L10,1323.9746 " fill="#EEEEEE" style="stroke:#000000;stroke-width:1.5;"/><rect fill="none" height="193.1738" style="stroke:#000000;stroke-width:1.5;" width="4503" x="10" y="1323.9746"/><text fill="#000000" font-family="sans-serif" font-size="13" font-weight="bold" lengthAdjust="spacing" textLength="17" x="25" y="1337.543">alt</text><text fill="#000000" font-family="sans-serif" font-size="11" font-weight="bold" lengthAdjust="spacing" textLength="320" x="87" y="1336.6094">[Failed to compare etags for when updating bank details]</text><polygon fill="#181818" points="2642,1358.5957,2632,1362.5957,2642,1366.5957" style="stroke:#181818;stroke-width:1.0;"/><line style="stroke:#181818;stroke-width:1.0;stroke-dasharray:2.0,2.0;" x1="2636" x2="4431.5" y1="1362.5957" y2="1362.5957"/><text fill="#000000" font-family="sans-serif" font-size="13" lengthAdjust="spacing" textLength="91" x="3486.25" y="1357.8535">Error response</text><polygon fill="#181818" points="2410.5,1387.9063,2400.5,1391.9063,2410.5,1395.9063" style="stroke:#181818;stroke-width:1.0;"/><line style="stroke:#181818;stroke-width:1.0;stroke-dasharray:2.0,2.0;" x1="2404.5" x2="2630" y1="1391.9063" y2="1391.9063"/><text fill="#000000" font-family="sans-serif" font-size="13" lengthAdjust="spacing" textLength="127" x="2451.75" y="1387.1641">reject requestObject</text><polygon fill="#181818" points="4095,1417.2168,4105,1421.2168,4095,1425.2168" style="stroke:#181818;stroke-width:1.0;"/><line style="stroke:#181818;stroke-width:1.0;" x1="2399.5" x2="4101" y1="1421.2168" y2="1421.2168"/><text fill="#000000" font-family="sans-serif" font-size="13" lengthAdjust="spacing" textLength="169" x="3168.75" y="1416.4746">request and build template</text><polygon fill="#181818" points="2410.5,1446.5273,2400.5,1450.5273,2410.5,1454.5273" style="stroke:#181818;stroke-width:1.0;"/><line style="stroke:#181818;stroke-width:1.0;" x1="2404.5" x2="4106" y1="1450.5273" y2="1450.5273"/><text fill="#000000" font-family="sans-serif" font-size="13" lengthAdjust="spacing" textLength="78" x="3214.25" y="1445.7852">return HTML</text><polygon fill="#181818" points="1756,1475.8379,1746,1479.8379,1756,1483.8379" style="stroke:#181818;stroke-width:1.0;"/><line style="stroke:#181818;stroke-width:1.0;" x1="1750" x2="2398.5" y1="1479.8379" y2="1479.8379"/><text fill="#000000" font-family="sans-serif" font-size="13" lengthAdjust="spacing" textLength="78" x="2033.25" y="1475.0957">return HTML</text><polygon fill="#181818" points="56.5,1505.1484,46.5,1509.1484,56.5,1513.1484" style="stroke:#181818;stroke-width:1.0;"/><line style="stroke:#181818;stroke-width:1.0;" x1="50.5" x2="1744" y1="1509.1484" y2="1509.1484"/><text fill="#000000" font-family="sans-serif" font-size="13" lengthAdjust="spacing" textLength="108" x="841.25" y="1504.4063">render error page</text><path d="M10,1531.1484 L72,1531.1484 L72,1538.459 L62,1548.459 L10,1548.459 L10,1531.1484 " fill="#EEEEEE" style="stroke:#000000;stroke-width:1.5;"/><rect fill="none" height="134.5527" style="stroke:#000000;stroke-width:1.5;" width="4017" x="10" y="1531.1484"/><text fill="#000000" font-family="sans-serif" font-size="13" font-weight="bold" lengthAdjust="spacing" textLength="17" x="25" y="1544.7168">alt</text><text fill="#000000" font-family="sans-serif" font-size="11" font-weight="bold" lengthAdjust="spacing" textLength="215" x="87" y="1543.7832">[Bank details updated by another user]</text><polygon fill="#181818" points="3882,1565.7695,3892,1569.7695,3882,1573.7695" style="stroke:#181818;stroke-width:1.0;"/><line style="stroke:#181818;stroke-width:1.0;" x1="2399.5" x2="3888" y1="1569.7695" y2="1569.7695"/><text fill="#000000" font-family="sans-serif" font-size="13" lengthAdjust="spacing" textLength="169" x="3062.25" y="1565.0273">request and build template</text><polygon fill="#181818" points="2410.5,1595.0801,2400.5,1599.0801,2410.5,1603.0801" style="stroke:#181818;stroke-width:1.0;"/><line style="stroke:#181818;stroke-width:1.0;" x1="2404.5" x2="3893" y1="1599.0801" y2="1599.0801"/><text fill="#000000" font-family="sans-serif" font-size="13" lengthAdjust="spacing" textLength="78" x="3107.75" y="1594.3379">return HTML</text><polygon fill="#181818" points="1414,1624.3906,1404,1628.3906,1414,1632.3906" style="stroke:#181818;stroke-width:1.0;"/><line style="stroke:#181818;stroke-width:1.0;" x1="1408" x2="2398.5" y1="1628.3906" y2="1628.3906"/><text fill="#000000" font-family="sans-serif" font-size="13" lengthAdjust="spacing" textLength="112" x="1845.25" y="1623.6484">return error HTML</text><polygon fill="#181818" points="56.5,1653.7012,46.5,1657.7012,56.5,1661.7012" style="stroke:#181818;stroke-width:1.0;"/><line style="stroke:#181818;stroke-width:1.0;" x1="50.5" x2="1402" y1="1657.7012" y2="1657.7012"/><text fill="#000000" font-family="sans-serif" font-size="13" lengthAdjust="spacing" textLength="133" x="657.75" y="1652.959">render error message</text><polygon fill="#181818" points="2642,1690.0117,2632,1694.0117,2642,1698.0117" style="stroke:#181818;stroke-width:1.0;"/><line style="stroke:#181818;stroke-width:1.0;" x1="2636" x2="4431.5" y1="1694.0117" y2="1694.0117"/><text fill="#000000" font-family="sans-serif" font-size="13" lengthAdjust="spacing" textLength="202" x="3430.75" y="1689.2695">ok response - no other changes</text><polygon fill="#181818" points="2410.5,1719.3223,2400.5,1723.3223,2410.5,1727.3223" style="stroke:#181818;stroke-width:1.0;"/><line style="stroke:#181818;stroke-width:1.0;" x1="2404.5" x2="2630" y1="1723.3223" y2="1723.3223"/><text fill="#000000" font-family="sans-serif" font-size="13" lengthAdjust="spacing" textLength="96" x="2467.25" y="1718.5801">resolve request</text><path d="M10,1738.3223 L72,1738.3223 L72,1745.6328 L62,1755.6328 L10,1755.6328 L10,1738.3223 " fill="#EEEEEE" style="stroke:#000000;stroke-width:1.5;"/><rect fill="none" height="325.3711" style="stroke:#000000;stroke-width:1.5;" width="3761" x="10" y="1738.3223"/><text fill="#000000" font-family="sans-serif" font-size="13" font-weight="bold" lengthAdjust="spacing" textLength="17" x="25" y="1751.8906">alt</text><text fill="#000000" font-family="sans-serif" font-size="11" font-weight="bold" lengthAdjust="spacing" textLength="209" x="87" y="1750.957">[Initally navigated from juror record]</text><polygon fill="#181818" points="1933.5,1772.9434,1923.5,1776.9434,1933.5,1780.9434" style="stroke:#181818;stroke-width:1.0;"/><line style="stroke:#181818;stroke-width:1.0;" x1="1927.5" x2="2398.5" y1="1776.9434" y2="1776.9434"/><text fill="#000000" font-family="sans-serif" font-size="13" lengthAdjust="spacing" textLength="230" x="2046" y="1772.2012">call juror record controller controller</text><polygon fill="#181818" points="3142.5,1802.2539,3152.5,1806.2539,3142.5,1810.2539" style="stroke:#181818;stroke-width:1.0;"/><line style="stroke:#181818;stroke-width:1.0;" x1="1922.5" x2="3148.5" y1="1806.2539" y2="1806.2539"/><text fill="#000000" font-family="sans-serif" font-size="13" lengthAdjust="spacing" textLength="169" x="2454" y="1801.5117">request and build template</text><polygon fill="#181818" points="1933.5,1831.5645,1923.5,1835.5645,1933.5,1839.5645" style="stroke:#181818;stroke-width:1.0;"/><line style="stroke:#181818;stroke-width:1.0;" x1="1927.5" x2="3153.5" y1="1835.5645" y2="1835.5645"/><text fill="#000000" font-family="sans-serif" font-size="13" lengthAdjust="spacing" textLength="78" x="2499.5" y="1830.8223">return HTML</text><polygon fill="#181818" points="312.5,1860.875,302.5,1864.875,312.5,1868.875" style="stroke:#181818;stroke-width:1.0;"/><line style="stroke:#181818;stroke-width:1.0;" x1="306.5" x2="1921.5" y1="1864.875" y2="1864.875"/><text fill="#000000" font-family="sans-serif" font-size="13" lengthAdjust="spacing" textLength="78" x="1073" y="1860.1328">return HTML</text><polygon fill="#181818" points="56.5,1890.1855,46.5,1894.1855,56.5,1898.1855" style="stroke:#181818;stroke-width:1.0;"/><line style="stroke:#181818;stroke-width:1.0;" x1="50.5" x2="300.5" y1="1894.1855" y2="1894.1855"/><text fill="#000000" font-family="sans-serif" font-size="13" lengthAdjust="spacing" textLength="80" x="133.5" y="1889.4434">render HTML</text><line style="stroke:#000000;stroke-width:1.0;stroke-dasharray:2.0,2.0;" x1="10" x2="3771" y1="1903.1855" y2="1903.1855"/><text fill="#000000" font-family="sans-serif" font-size="11" font-weight="bold" lengthAdjust="spacing" textLength="225" x="15" y="1913.8203">[Initally navigated from expense record]</text><polygon fill="#181818" points="2156.5,1934.4512,2146.5,1938.4512,2156.5,1942.4512" style="stroke:#181818;stroke-width:1.0;"/><line style="stroke:#181818;stroke-width:1.0;" x1="2150.5" x2="2398.5" y1="1938.4512" y2="1938.4512"/><text fill="#000000" font-family="sans-serif" font-size="13" lengthAdjust="spacing" textLength="230" x="2157.5" y="1933.709">call juror record controller controller</text><polygon fill="#181818" points="3538.5,1963.7617,3548.5,1967.7617,3538.5,1971.7617" style="stroke:#181818;stroke-width:1.0;"/><line style="stroke:#181818;stroke-width:1.0;" x1="2145.5" x2="3544.5" y1="1967.7617" y2="1967.7617"/><text fill="#000000" font-family="sans-serif" font-size="13" lengthAdjust="spacing" textLength="169" x="2763.5" y="1963.0195">request and build template</text><polygon fill="#181818" points="2156.5,1993.0723,2146.5,1997.0723,2156.5,2001.0723" style="stroke:#181818;stroke-width:1.0;"/><line style="stroke:#181818;stroke-width:1.0;" x1="2150.5" x2="3549.5" y1="1997.0723" y2="1997.0723"/><text fill="#000000" font-family="sans-serif" font-size="13" lengthAdjust="spacing" textLength="78" x="2809" y="1992.3301">return HTML</text><polygon fill="#181818" points="828.5,2022.3828,818.5,2026.3828,828.5,2030.3828" style="stroke:#181818;stroke-width:1.0;"/><line style="stroke:#181818;stroke-width:1.0;" x1="822.5" x2="2144.5" y1="2026.3828" y2="2026.3828"/><text fill="#000000" font-family="sans-serif" font-size="13" lengthAdjust="spacing" textLength="78" x="1442.5" y="2021.6406">return HTML</text><polygon fill="#181818" points="56.5,2051.6934,46.5,2055.6934,56.5,2059.6934" style="stroke:#181818;stroke-width:1.0;"/><line style="stroke:#181818;stroke-width:1.0;" x1="50.5" x2="816.5" y1="2055.6934" y2="2055.6934"/><text fill="#000000" font-family="sans-serif" font-size="13" lengthAdjust="spacing" textLength="80" x="391.5" y="2050.9512">render HTML</text><!--SRC=[hLPTRzfA47tVNp7jhPH6ml2EgaWEE1KjnRdWzlLgiGTmMEzIxves__wErmPiO_jIvRv4OJ_Ep9mvSzQxE4B8f8Zb7YFsBfQXo6XbYnBJE7JMGeLxFJm8BasM2CRqFfO7dl84LkPL86X3n_8jg6xXpmnbYDzGQxv5LyHRcQ0q4D8VJ1cZOoOEumEXWXiQHKjtTtSmzoVk79R-zs2s-5mxz2LBLRh4KAMHz_k0KgD-9cJuz6dqacyv2PVqEmyoIksnqTXkBB9aZUa8oqiF3pNOQSetfWGiq3jHCwejZXnk3Cg8Kt4dJASjtlYWb2Z-RuHyv78_HSDZqLt1ATjEpD6QK9oeW6a4-5oqpalfvYa2vZ_ed6LvuY-2fJ-VUqjm5rDOUdz_zrO1-8zVl4cmwg9zegH9bH2O4c2HSL7uC3pl35ye6VYBshqphoY4-bL3gn5TmwjJ-GU8KMmgXDOnQS-fydGxR0NINxzWQ4ubLpQchZ_SelbutmUqGdChre6RS7UDPZiMUD-UvsxWhVvh9W9CQ5GDdbjK4LMrPsU53UNBteRaHv8rZMR_TFJXDyQXqTA-E1KcAW7EGn3XXcV2E3VbR6LVGVd7Ib-FIaExkclvVPhD0s-vikFmmvtFfcxWBrTTEVxW8exusRGUtSbNZovUngfnCTnJg8iq6MDS65ZmOxpDSzoaAW7B9XHSCIWy4Po7JjyRGoZYS0yyYe1EXZikQJLNEvHgXzpI2QeBWS2xfuVWkH1rlClq04EXiL51sPsM6ZfCzlOIEW3UK06ZZZ3seHI5-poRqE6FdMY3QqSOr9KsWFTFj8aH60KRf54kMgfh6Ro_Py0-f5Pvfvk1oekvCVObNECPkMVip7VpXHc3VNKr77FXrYcXfGmrKN4iH8qpUSZCZTcS1-6s78cZcMp9mMQ74P7p9nrfizQ-fcWq7IrXh5j6TJfB0n_3Eej5H5AdpnnjGDbbTdtGtcwCFztMj419s8qJ2DLEHTlqNM7-Doc6AY4pGg3pMmqR4iYl7Kh83jItM6wlgCYTwR7Q77kIiDQlmAKoEoeWqpH00AMERMnVFgaqURk8xLYsl9XEAuzgJ-pfWyfjnm6feCYlS1BTqrMBTzrL0bFYY9UMv6pCP6n8YgyWIxkBMXsxLqBjdr6bHLM1gYPRSQipsGtJQCKTz7qO3BhUW_l2qxkglNBttdgxFlJUNd47yg3dMsNGyNuKQliN]--></g></svg>