<?xml version="1.0" encoding="us-ascii" standalone="no"?><svg xmlns="http://www.w3.org/2000/svg" xmlns:xlink="http://www.w3.org/1999/xlink" contentStyleType="text/css" height="1586px" preserveAspectRatio="none" style="width:2301px;height:1586px;background:#FFFFFF;" version="1.1" viewBox="0 0 2301 1586" width="2301px" zoomAndPan="magnify"><defs/><g><rect fill="none" height="46.6211" style="stroke:#000000;stroke-width:1.5;" width="1070" x="71" y="128.5977"/><rect fill="none" height="193.1738" style="stroke:#000000;stroke-width:1.5;" width="2285" x="10" y="247.8398"/><rect fill="none" height="46.6211" style="stroke:#000000;stroke-width:1.5;" width="1070" x="71" y="513.6348"/><rect fill="none" height="163.8633" style="stroke:#000000;stroke-width:1.5;" width="1964" x="10" y="779.4297"/><rect fill="none" height="193.1738" style="stroke:#000000;stroke-width:1.5;" width="2285" x="10" y="1045.2246"/><rect fill="none" height="193.1738" style="stroke:#000000;stroke-width:1.5;" width="2285" x="10" y="1311.0195"/><line style="stroke:#181818;stroke-width:0.5;stroke-dasharray:5.0,5.0;" x1="45" x2="45" y1="52.9766" y2="1579.8145"/><line style="stroke:#181818;stroke-width:0.5;stroke-dasharray:5.0,5.0;" x1="170" x2="170" y1="52.9766" y2="1579.8145"/><line style="stroke:#181818;stroke-width:0.5;stroke-dasharray:5.0,5.0;" x1="404" x2="404" y1="52.9766" y2="1579.8145"/><line style="stroke:#181818;stroke-width:0.5;stroke-dasharray:5.0,5.0;" x1="674" x2="674" y1="52.9766" y2="1579.8145"/><line style="stroke:#181818;stroke-width:0.5;stroke-dasharray:5.0,5.0;" x1="876" x2="876" y1="52.9766" y2="1579.8145"/><line style="stroke:#181818;stroke-width:0.5;stroke-dasharray:5.0,5.0;" x1="1042" x2="1042" y1="52.9766" y2="1579.8145"/><line style="stroke:#181818;stroke-width:0.5;stroke-dasharray:5.0,5.0;" x1="1227" x2="1227" y1="52.9766" y2="1579.8145"/><line style="stroke:#181818;stroke-width:0.5;stroke-dasharray:5.0,5.0;" x1="1411" x2="1411" y1="52.9766" y2="1579.8145"/><line style="stroke:#181818;stroke-width:0.5;stroke-dasharray:5.0,5.0;" x1="1584" x2="1584" y1="52.9766" y2="1579.8145"/><line style="stroke:#181818;stroke-width:0.5;stroke-dasharray:5.0,5.0;" x1="1817" x2="1817" y1="52.9766" y2="1579.8145"/><line style="stroke:#181818;stroke-width:0.5;stroke-dasharray:5.0,5.0;" x1="2054" x2="2054" y1="52.9766" y2="1579.8145"/><line style="stroke:#181818;stroke-width:0.5;stroke-dasharray:5.0,5.0;" x1="2214" x2="2214" y1="52.9766" y2="1579.8145"/><rect fill="#E2E2F0" height="30.4883" rx="2.5" ry="2.5" style="stroke:#181818;stroke-width:0.5;" width="51" x="20" y="21.4883"/><text fill="#000000" font-family="sans-serif" font-size="14" lengthAdjust="spacing" textLength="37" x="27" y="42.0234">Actor</text><rect fill="#E2E2F0" height="46.9766" rx="2.5" ry="2.5" style="stroke:#181818;stroke-width:0.5;" width="179" x="81" y="5"/><text fill="#000000" font-family="sans-serif" font-size="14" font-style="italic" lengthAdjust="spacing" textLength="165" x="88" y="25.5352">&#171;/administration/users&#187;</text><text fill="#000000" font-family="sans-serif" font-size="14" lengthAdjust="spacing" textLength="71" x="135" y="42.0234">UsersPage</text><rect fill="#E2E2F0" height="46.9766" rx="2.5" ry="2.5" style="stroke:#181818;stroke-width:0.5;" width="269" x="270" y="5"/><text fill="#000000" font-family="sans-serif" font-size="14" font-style="italic" lengthAdjust="spacing" textLength="255" x="277" y="25.5352">&#171;/administration/users/user-record&#187;</text><text fill="#000000" font-family="sans-serif" font-size="14" lengthAdjust="spacing" textLength="112" x="348.5" y="42.0234">UserRecordPage</text><rect fill="#E2E2F0" height="46.9766" rx="2.5" ry="2.5" style="stroke:#181818;stroke-width:0.5;" width="250" x="549" y="5"/><text fill="#000000" font-family="sans-serif" font-size="14" font-style="italic" lengthAdjust="spacing" textLength="236" x="556" y="25.5352">&#171;/administration/users/edit-user&#187;</text><text fill="#000000" font-family="sans-serif" font-size="14" lengthAdjust="spacing" textLength="90" x="629" y="42.0234">EditUserPage</text><rect fill="#E2E2F0" height="46.9766" rx="2.5" ry="2.5" style="stroke:#181818;stroke-width:0.5;" width="134" x="809" y="5"/><text fill="#000000" font-family="sans-serif" font-size="14" font-style="italic" lengthAdjust="spacing" textLength="56" x="848" y="25.5352">&#171;/error&#187;</text><text fill="#000000" font-family="sans-serif" font-size="14" lengthAdjust="spacing" textLength="120" x="816" y="42.0234">GenericErrorPage</text><rect fill="#FFFFE0" height="46.9766" rx="2.5" ry="2.5" style="stroke:#181818;stroke-width:0.5;" width="178" x="953" y="5"/><text fill="#000000" font-family="sans-serif" font-size="14" font-style="italic" lengthAdjust="spacing" textLength="164" x="960" y="25.5352">&#171;edit-user.controller.js&#187;</text><text fill="#000000" font-family="sans-serif" font-size="14" lengthAdjust="spacing" textLength="134" x="975" y="42.0234">EditUsersController</text><rect fill="#FFFFE0" height="46.9766" rx="2.5" ry="2.5" style="stroke:#181818;stroke-width:0.5;" width="173" x="1141" y="5"/><text fill="#000000" font-family="sans-serif" font-size="14" font-style="italic" lengthAdjust="spacing" textLength="159" x="1148" y="25.5352">&#171;userRecordDAO.get()&#187;</text><text fill="#000000" font-family="sans-serif" font-size="14" lengthAdjust="spacing" textLength="123" x="1166" y="42.0234">UserRecordObject</text><rect fill="#FFFFE0" height="46.9766" rx="2.5" ry="2.5" style="stroke:#181818;stroke-width:0.5;" width="174" x="1324" y="5"/><text fill="#000000" font-family="sans-serif" font-size="14" font-style="italic" lengthAdjust="spacing" textLength="160" x="1331" y="25.5352">&#171;userRecordDAO.put()&#187;</text><text fill="#000000" font-family="sans-serif" font-size="14" lengthAdjust="spacing" textLength="101" x="1360.5" y="42.0234">EditUserObject</text><rect fill="#FFD700" height="30.4883" rx="2.5" ry="2.5" style="stroke:#181818;stroke-width:0.5;" width="152" x="1508" y="21.4883"/><text fill="#000000" font-family="sans-serif" font-size="14" lengthAdjust="spacing" textLength="138" x="1515" y="42.0234">CreateUserValidator</text><rect fill="#E2E2F0" height="46.9766" rx="2.5" ry="2.5" style="stroke:#181818;stroke-width:0.5;" width="294" x="1670" y="5"/><text fill="#000000" font-family="sans-serif" font-size="14" font-style="italic" lengthAdjust="spacing" textLength="280" x="1677" y="25.5352">&#171;/administration/users/user-record.njk&#187;</text><text fill="#000000" font-family="sans-serif" font-size="14" lengthAdjust="spacing" textLength="121" x="1756.5" y="42.0234">EditUserTemplate</text><rect fill="#E6E6FA" height="46.9766" rx="2.5" ry="2.5" style="stroke:#181818;stroke-width:0.5;" width="160" x="1974" y="5"/><text fill="#000000" font-family="sans-serif" font-size="14" font-style="italic" lengthAdjust="spacing" textLength="146" x="1981" y="25.5352">&#171;_errors/generic.njk&#187;</text><text fill="#000000" font-family="sans-serif" font-size="14" lengthAdjust="spacing" textLength="99" x="2004.5" y="42.0234">ErrorTemplate</text><rect fill="#E2E2F0" height="30.4883" rx="2.5" ry="2.5" style="stroke:#181818;stroke-width:0.5;" width="141" x="2144" y="21.4883"/><text fill="#000000" font-family="sans-serif" font-size="14" lengthAdjust="spacing" textLength="127" x="2151" y="42.0234">BackendController</text><polygon fill="#181818" points="392.5,80.2871,402.5,84.2871,392.5,88.2871" style="stroke:#181818;stroke-width:1.0;"/><line style="stroke:#181818;stroke-width:1.0;" x1="45.5" x2="398.5" y1="84.2871" y2="84.2871"/><text fill="#000000" font-family="sans-serif" font-size="13" lengthAdjust="spacing" textLength="89" x="180.5" y="79.5449">click edit user</text><polygon fill="#181818" points="1030,109.5977,1040,113.5977,1030,117.5977" style="stroke:#181818;stroke-width:1.0;"/><line style="stroke:#181818;stroke-width:1.0;" x1="404.5" x2="1036" y1="113.5977" y2="113.5977"/><text fill="#000000" font-family="sans-serif" font-size="13" lengthAdjust="spacing" textLength="153" x="646.75" y="108.8555">call edit users controller</text><path d="M71,128.5977 L133,128.5977 L133,135.9082 L123,145.9082 L71,145.9082 L71,128.5977 " fill="#EEEEEE" style="stroke:#000000;stroke-width:1.5;"/><rect fill="none" height="46.6211" style="stroke:#000000;stroke-width:1.5;" width="1070" x="71" y="128.5977"/><text fill="#000000" font-family="sans-serif" font-size="13" font-weight="bold" lengthAdjust="spacing" textLength="17" x="86" y="142.166">alt</text><text fill="#000000" font-family="sans-serif" font-size="11" font-weight="bold" lengthAdjust="spacing" textLength="166" x="148" y="141.2324">[SJO user tries to edit details]</text><polygon fill="#181818" points="181.5,163.2188,171.5,167.2188,181.5,171.2188" style="stroke:#181818;stroke-width:1.0;"/><line style="stroke:#181818;stroke-width:1.0;" x1="175.5" x2="1041" y1="167.2188" y2="167.2188"/><text fill="#000000" font-family="sans-serif" font-size="13" lengthAdjust="spacing" textLength="137" x="537.75" y="162.4766">redirect to users page</text><polygon fill="#181818" points="1215.5,199.5293,1225.5,203.5293,1215.5,207.5293" style="stroke:#181818;stroke-width:1.0;"/><line style="stroke:#181818;stroke-width:1.0;" x1="1042" x2="1221.5" y1="203.5293" y2="203.5293"/><text fill="#000000" font-family="sans-serif" font-size="13" lengthAdjust="spacing" textLength="126" x="1071.75" y="198.7871">build request object</text><polygon fill="#181818" points="2202.5,228.8398,2212.5,232.8398,2202.5,236.8398" style="stroke:#181818;stroke-width:1.0;"/><line style="stroke:#181818;stroke-width:1.0;" x1="1227.5" x2="2208.5" y1="232.8398" y2="232.8398"/><text fill="#000000" font-family="sans-serif" font-size="13" lengthAdjust="spacing" textLength="138" x="1652" y="228.0977">send backend request</text><path d="M10,247.8398 L72,247.8398 L72,255.1504 L62,265.1504 L10,265.1504 L10,247.8398 " fill="#EEEEEE" style="stroke:#000000;stroke-width:1.5;"/><rect fill="none" height="193.1738" style="stroke:#000000;stroke-width:1.5;" width="2285" x="10" y="247.8398"/><text fill="#000000" font-family="sans-serif" font-size="13" font-weight="bold" lengthAdjust="spacing" textLength="17" x="25" y="261.4082">alt</text><text fill="#000000" font-family="sans-serif" font-size="11" font-weight="bold" lengthAdjust="spacing" textLength="157" x="87" y="260.4746">[Failed to fetch user details]</text><polygon fill="#181818" points="1238.5,282.4609,1228.5,286.4609,1238.5,290.4609" style="stroke:#181818;stroke-width:1.0;"/><line style="stroke:#181818;stroke-width:1.0;stroke-dasharray:2.0,2.0;" x1="1232.5" x2="2213.5" y1="286.4609" y2="286.4609"/><text fill="#000000" font-family="sans-serif" font-size="13" lengthAdjust="spacing" textLength="91" x="1675.5" y="281.7188">Error response</text><polygon fill="#181818" points="1053,311.7715,1043,315.7715,1053,319.7715" style="stroke:#181818;stroke-width:1.0;"/><line style="stroke:#181818;stroke-width:1.0;stroke-dasharray:2.0,2.0;" x1="1047" x2="1226.5" y1="315.7715" y2="315.7715"/><text fill="#000000" font-family="sans-serif" font-size="13" lengthAdjust="spacing" textLength="127" x="1071.25" y="311.0293">reject requestObject</text><polygon fill="#181818" points="2042,341.082,2052,345.082,2042,349.082" style="stroke:#181818;stroke-width:1.0;"/><line style="stroke:#181818;stroke-width:1.0;" x1="1042" x2="2048" y1="345.082" y2="345.082"/><text fill="#000000" font-family="sans-serif" font-size="13" lengthAdjust="spacing" textLength="169" x="1463.5" y="340.3398">request and build template</text><polygon fill="#181818" points="1053,370.3926,1043,374.3926,1053,378.3926" style="stroke:#181818;stroke-width:1.0;"/><line style="stroke:#181818;stroke-width:1.0;" x1="1047" x2="2053" y1="374.3926" y2="374.3926"/><text fill="#000000" font-family="sans-serif" font-size="13" lengthAdjust="spacing" textLength="78" x="1509" y="369.6504">return HTML</text><polygon fill="#181818" points="887,399.7031,877,403.7031,887,407.7031" style="stroke:#181818;stroke-width:1.0;"/><line style="stroke:#181818;stroke-width:1.0;" x1="881" x2="1041" y1="403.7031" y2="403.7031"/><text fill="#000000" font-family="sans-serif" font-size="13" lengthAdjust="spacing" textLength="78" x="920" y="398.9609">return HTML</text><polygon fill="#181818" points="56.5,429.0137,46.5,433.0137,56.5,437.0137" style="stroke:#181818;stroke-width:1.0;"/><line style="stroke:#181818;stroke-width:1.0;" x1="50.5" x2="875" y1="433.0137" y2="433.0137"/><text fill="#000000" font-family="sans-serif" font-size="13" lengthAdjust="spacing" textLength="108" x="406.75" y="428.2715">render error page</text><polygon fill="#181818" points="1238.5,465.3242,1228.5,469.3242,1238.5,473.3242" style="stroke:#181818;stroke-width:1.0;"/><line style="stroke:#181818;stroke-width:1.0;" x1="1232.5" x2="2213.5" y1="469.3242" y2="469.3242"/><text fill="#000000" font-family="sans-serif" font-size="13" lengthAdjust="spacing" textLength="77" x="1682.5" y="464.582">ok response</text><polygon fill="#181818" points="1053,494.6348,1043,498.6348,1053,502.6348" style="stroke:#181818;stroke-width:1.0;"/><line style="stroke:#181818;stroke-width:1.0;" x1="1047" x2="1226.5" y1="498.6348" y2="498.6348"/><text fill="#000000" font-family="sans-serif" font-size="13" lengthAdjust="spacing" textLength="96" x="1086.75" y="493.8926">resolve request</text><path d="M71,513.6348 L133,513.6348 L133,520.9453 L123,530.9453 L71,530.9453 L71,513.6348 " fill="#EEEEEE" style="stroke:#000000;stroke-width:1.5;"/><rect fill="none" height="46.6211" style="stroke:#000000;stroke-width:1.5;" width="1070" x="71" y="513.6348"/><text fill="#000000" font-family="sans-serif" font-size="13" font-weight="bold" lengthAdjust="spacing" textLength="17" x="86" y="527.2031">alt</text><text fill="#000000" font-family="sans-serif" font-size="11" font-weight="bold" lengthAdjust="spacing" textLength="170" x="148" y="526.2695">[User tries to edit own details]</text><polygon fill="#181818" points="181.5,548.2559,171.5,552.2559,181.5,556.2559" style="stroke:#181818;stroke-width:1.0;"/><line style="stroke:#181818;stroke-width:1.0;" x1="175.5" x2="1041" y1="552.2559" y2="552.2559"/><text fill="#000000" font-family="sans-serif" font-size="13" lengthAdjust="spacing" textLength="137" x="537.75" y="547.5137">redirect to users page</text><polygon fill="#181818" points="1805,584.5664,1815,588.5664,1805,592.5664" style="stroke:#181818;stroke-width:1.0;"/><line style="stroke:#181818;stroke-width:1.0;" x1="1042" x2="1811" y1="588.5664" y2="588.5664"/><text fill="#000000" font-family="sans-serif" font-size="13" lengthAdjust="spacing" textLength="169" x="1345" y="583.8242">request and build template</text><polygon fill="#181818" points="1053,613.877,1043,617.877,1053,621.877" style="stroke:#181818;stroke-width:1.0;"/><line style="stroke:#181818;stroke-width:1.0;" x1="1047" x2="1816" y1="617.877" y2="617.877"/><text fill="#000000" font-family="sans-serif" font-size="13" lengthAdjust="spacing" textLength="78" x="1390.5" y="613.1348">return HTML</text><polygon fill="#181818" points="685,643.1875,675,647.1875,685,651.1875" style="stroke:#181818;stroke-width:1.0;"/><line style="stroke:#181818;stroke-width:1.0;" x1="679" x2="1041" y1="647.1875" y2="647.1875"/><text fill="#000000" font-family="sans-serif" font-size="13" lengthAdjust="spacing" textLength="78" x="819" y="642.4453">return HTML</text><polygon fill="#181818" points="56.5,672.498,46.5,676.498,56.5,680.498" style="stroke:#181818;stroke-width:1.0;"/><line style="stroke:#181818;stroke-width:1.0;" x1="50.5" x2="673" y1="676.498" y2="676.498"/><text fill="#000000" font-family="sans-serif" font-size="13" lengthAdjust="spacing" textLength="80" x="319.75" y="671.7559">render HTML</text><polygon fill="#181818" points="662,701.8086,672,705.8086,662,709.8086" style="stroke:#181818;stroke-width:1.0;"/><line style="stroke:#181818;stroke-width:1.0;" x1="45.5" x2="668" y1="705.8086" y2="705.8086"/><text fill="#000000" font-family="sans-serif" font-size="13" lengthAdjust="spacing" textLength="265" x="227.25" y="701.0664">User edits details and clicks save changes</text><polygon fill="#181818" points="1030,731.1191,1040,735.1191,1030,739.1191" style="stroke:#181818;stroke-width:1.0;"/><line style="stroke:#181818;stroke-width:1.0;" x1="674" x2="1036" y1="735.1191" y2="735.1191"/><text fill="#000000" font-family="sans-serif" font-size="13" lengthAdjust="spacing" textLength="153" x="781.5" y="730.377">call edit users controller</text><polygon fill="#181818" points="1572,760.4297,1582,764.4297,1572,768.4297" style="stroke:#181818;stroke-width:1.0;"/><line style="stroke:#181818;stroke-width:1.0;" x1="1042" x2="1578" y1="764.4297" y2="764.4297"/><text fill="#000000" font-family="sans-serif" font-size="13" lengthAdjust="spacing" textLength="95" x="1265.5" y="759.6875">validate details</text><path d="M10,779.4297 L72,779.4297 L72,786.7402 L62,796.7402 L10,796.7402 L10,779.4297 " fill="#EEEEEE" style="stroke:#000000;stroke-width:1.5;"/><rect fill="none" height="163.8633" style="stroke:#000000;stroke-width:1.5;" width="1964" x="10" y="779.4297"/><text fill="#000000" font-family="sans-serif" font-size="13" font-weight="bold" lengthAdjust="spacing" textLength="17" x="25" y="792.998">alt</text><text fill="#000000" font-family="sans-serif" font-size="11" font-weight="bold" lengthAdjust="spacing" textLength="116" x="87" y="792.0645">[Invalid user details]</text><polygon fill="#181818" points="1053,814.0508,1043,818.0508,1053,822.0508" style="stroke:#181818;stroke-width:1.0;"/><line style="stroke:#181818;stroke-width:1.0;" x1="1047" x2="1583" y1="818.0508" y2="818.0508"/><text fill="#000000" font-family="sans-serif" font-size="13" lengthAdjust="spacing" textLength="119" x="1253.5" y="813.3086">Invalid user details</text><polygon fill="#181818" points="1805,843.3613,1815,847.3613,1805,851.3613" style="stroke:#181818;stroke-width:1.0;"/><line style="stroke:#181818;stroke-width:1.0;" x1="1042" x2="1811" y1="847.3613" y2="847.3613"/><text fill="#000000" font-family="sans-serif" font-size="13" lengthAdjust="spacing" textLength="169" x="1345" y="842.6191">request and build template</text><polygon fill="#181818" points="1053,872.6719,1043,876.6719,1053,880.6719" style="stroke:#181818;stroke-width:1.0;"/><line style="stroke:#181818;stroke-width:1.0;" x1="1047" x2="1816" y1="876.6719" y2="876.6719"/><text fill="#000000" font-family="sans-serif" font-size="13" lengthAdjust="spacing" textLength="78" x="1390.5" y="871.9297">return HTML</text><polygon fill="#181818" points="685,901.9824,675,905.9824,685,909.9824" style="stroke:#181818;stroke-width:1.0;"/><line style="stroke:#181818;stroke-width:1.0;" x1="679" x2="1041" y1="905.9824" y2="905.9824"/><text fill="#000000" font-family="sans-serif" font-size="13" lengthAdjust="spacing" textLength="112" x="802" y="901.2402">return error HTML</text><polygon fill="#181818" points="56.5,931.293,46.5,935.293,56.5,939.293" style="stroke:#181818;stroke-width:1.0;"/><line style="stroke:#181818;stroke-width:1.0;" x1="50.5" x2="673" y1="935.293" y2="935.293"/><text fill="#000000" font-family="sans-serif" font-size="13" lengthAdjust="spacing" textLength="133" x="293.25" y="930.5508">render error message</text><polygon fill="#181818" points="1053,967.6035,1043,971.6035,1053,975.6035" style="stroke:#181818;stroke-width:1.0;"/><line style="stroke:#181818;stroke-width:1.0;" x1="1047" x2="1583" y1="971.6035" y2="971.6035"/><text fill="#000000" font-family="sans-serif" font-size="13" lengthAdjust="spacing" textLength="127" x="1249.5" y="966.8613">valid details entered</text><polygon fill="#181818" points="1399,996.9141,1409,1000.9141,1399,1004.9141" style="stroke:#181818;stroke-width:1.0;"/><line style="stroke:#181818;stroke-width:1.0;" x1="1042" x2="1405" y1="1000.9141" y2="1000.9141"/><text fill="#000000" font-family="sans-serif" font-size="13" lengthAdjust="spacing" textLength="126" x="1163.5" y="996.1719">build request object</text><polygon fill="#181818" points="2202.5,1026.2246,2212.5,1030.2246,2202.5,1034.2246" style="stroke:#181818;stroke-width:1.0;"/><line style="stroke:#181818;stroke-width:1.0;" x1="1411" x2="2208.5" y1="1030.2246" y2="1030.2246"/><text fill="#000000" font-family="sans-serif" font-size="13" lengthAdjust="spacing" textLength="138" x="1743.75" y="1025.4824">send backend request</text><path d="M10,1045.2246 L72,1045.2246 L72,1052.5352 L62,1062.5352 L10,1062.5352 L10,1045.2246 " fill="#EEEEEE" style="stroke:#000000;stroke-width:1.5;"/><rect fill="none" height="193.1738" style="stroke:#000000;stroke-width:1.5;" width="2285" x="10" y="1045.2246"/><text fill="#000000" font-family="sans-serif" font-size="13" font-weight="bold" lengthAdjust="spacing" textLength="17" x="25" y="1058.793">alt</text><text fill="#000000" font-family="sans-serif" font-size="11" font-weight="bold" lengthAdjust="spacing" textLength="166" x="87" y="1057.8594">[Failed to update user details]</text><polygon fill="#181818" points="1422,1079.8457,1412,1083.8457,1422,1087.8457" style="stroke:#181818;stroke-width:1.0;"/><line style="stroke:#181818;stroke-width:1.0;stroke-dasharray:2.0,2.0;" x1="1416" x2="2213.5" y1="1083.8457" y2="1083.8457"/><text fill="#000000" font-family="sans-serif" font-size="13" lengthAdjust="spacing" textLength="91" x="1767.25" y="1079.1035">Error response</text><polygon fill="#181818" points="1053,1109.1563,1043,1113.1563,1053,1117.1563" style="stroke:#181818;stroke-width:1.0;"/><line style="stroke:#181818;stroke-width:1.0;stroke-dasharray:2.0,2.0;" x1="1047" x2="1410" y1="1113.1563" y2="1113.1563"/><text fill="#000000" font-family="sans-serif" font-size="13" lengthAdjust="spacing" textLength="127" x="1163" y="1108.4141">reject requestObject</text><polygon fill="#181818" points="2042,1138.4668,2052,1142.4668,2042,1146.4668" style="stroke:#181818;stroke-width:1.0;"/><line style="stroke:#181818;stroke-width:1.0;" x1="1042" x2="2048" y1="1142.4668" y2="1142.4668"/><text fill="#000000" font-family="sans-serif" font-size="13" lengthAdjust="spacing" textLength="169" x="1463.5" y="1137.7246">request and build template</text><polygon fill="#181818" points="1053,1167.7773,1043,1171.7773,1053,1175.7773" style="stroke:#181818;stroke-width:1.0;"/><line style="stroke:#181818;stroke-width:1.0;" x1="1047" x2="2053" y1="1171.7773" y2="1171.7773"/><text fill="#000000" font-family="sans-serif" font-size="13" lengthAdjust="spacing" textLength="78" x="1509" y="1167.0352">return HTML</text><polygon fill="#181818" points="887,1197.0879,877,1201.0879,887,1205.0879" style="stroke:#181818;stroke-width:1.0;"/><line style="stroke:#181818;stroke-width:1.0;" x1="881" x2="1041" y1="1201.0879" y2="1201.0879"/><text fill="#000000" font-family="sans-serif" font-size="13" lengthAdjust="spacing" textLength="78" x="920" y="1196.3457">return HTML</text><polygon fill="#181818" points="56.5,1226.3984,46.5,1230.3984,56.5,1234.3984" style="stroke:#181818;stroke-width:1.0;"/><line style="stroke:#181818;stroke-width:1.0;" x1="50.5" x2="875" y1="1230.3984" y2="1230.3984"/><text fill="#000000" font-family="sans-serif" font-size="13" lengthAdjust="spacing" textLength="108" x="406.75" y="1225.6563">render error page</text><polygon fill="#181818" points="1422,1262.709,1412,1266.709,1422,1270.709" style="stroke:#181818;stroke-width:1.0;"/><line style="stroke:#181818;stroke-width:1.0;" x1="1416" x2="2213.5" y1="1266.709" y2="1266.709"/><text fill="#000000" font-family="sans-serif" font-size="13" lengthAdjust="spacing" textLength="77" x="1774.25" y="1261.9668">ok response</text><polygon fill="#181818" points="1053,1292.0195,1043,1296.0195,1053,1300.0195" style="stroke:#181818;stroke-width:1.0;"/><line style="stroke:#181818;stroke-width:1.0;" x1="1047" x2="1410" y1="1296.0195" y2="1296.0195"/><text fill="#000000" font-family="sans-serif" font-size="13" lengthAdjust="spacing" textLength="96" x="1178.5" y="1291.2773">resolve request</text><path d="M10,1311.0195 L72,1311.0195 L72,1318.3301 L62,1328.3301 L10,1328.3301 L10,1311.0195 " fill="#EEEEEE" style="stroke:#000000;stroke-width:1.5;"/><rect fill="none" height="193.1738" style="stroke:#000000;stroke-width:1.5;" width="2285" x="10" y="1311.0195"/><text fill="#000000" font-family="sans-serif" font-size="13" font-weight="bold" lengthAdjust="spacing" textLength="17" x="25" y="1324.5879">alt</text><text fill="#000000" font-family="sans-serif" font-size="11" font-weight="bold" lengthAdjust="spacing" textLength="169" x="87" y="1323.6543">[Email address already in use]</text><polygon fill="#181818" points="1422,1345.6406,1412,1349.6406,1422,1353.6406" style="stroke:#181818;stroke-width:1.0;"/><line style="stroke:#181818;stroke-width:1.0;stroke-dasharray:2.0,2.0;" x1="1416" x2="2213.5" y1="1349.6406" y2="1349.6406"/><text fill="#000000" font-family="sans-serif" font-size="13" lengthAdjust="spacing" textLength="91" x="1767.25" y="1344.8984">Error response</text><polygon fill="#181818" points="1053,1374.9512,1043,1378.9512,1053,1382.9512" style="stroke:#181818;stroke-width:1.0;"/><line style="stroke:#181818;stroke-width:1.0;stroke-dasharray:2.0,2.0;" x1="1047" x2="1410" y1="1378.9512" y2="1378.9512"/><text fill="#000000" font-family="sans-serif" font-size="13" lengthAdjust="spacing" textLength="127" x="1163" y="1374.209">reject requestObject</text><polygon fill="#181818" points="1805,1404.2617,1815,1408.2617,1805,1412.2617" style="stroke:#181818;stroke-width:1.0;"/><line style="stroke:#181818;stroke-width:1.0;" x1="1042" x2="1811" y1="1408.2617" y2="1408.2617"/><text fill="#000000" font-family="sans-serif" font-size="13" lengthAdjust="spacing" textLength="169" x="1345" y="1403.5195">request and build template</text><polygon fill="#181818" points="1053,1433.5723,1043,1437.5723,1053,1441.5723" style="stroke:#181818;stroke-width:1.0;"/><line style="stroke:#181818;stroke-width:1.0;" x1="1047" x2="1816" y1="1437.5723" y2="1437.5723"/><text fill="#000000" font-family="sans-serif" font-size="13" lengthAdjust="spacing" textLength="78" x="1390.5" y="1432.8301">return HTML</text><polygon fill="#181818" points="685,1462.8828,675,1466.8828,685,1470.8828" style="stroke:#181818;stroke-width:1.0;"/><line style="stroke:#181818;stroke-width:1.0;" x1="679" x2="1041" y1="1466.8828" y2="1466.8828"/><text fill="#000000" font-family="sans-serif" font-size="13" lengthAdjust="spacing" textLength="112" x="802" y="1462.1406">return error HTML</text><polygon fill="#181818" points="56.5,1492.1934,46.5,1496.1934,56.5,1500.1934" style="stroke:#181818;stroke-width:1.0;"/><line style="stroke:#181818;stroke-width:1.0;" x1="50.5" x2="673" y1="1496.1934" y2="1496.1934"/><text fill="#000000" font-family="sans-serif" font-size="13" lengthAdjust="spacing" textLength="133" x="293.25" y="1491.4512">render error message</text><polygon fill="#181818" points="415.5,1528.5039,405.5,1532.5039,415.5,1536.5039" style="stroke:#181818;stroke-width:1.0;"/><line style="stroke:#181818;stroke-width:1.0;" x1="409.5" x2="1041" y1="1532.5039" y2="1532.5039"/><text fill="#000000" font-family="sans-serif" font-size="13" lengthAdjust="spacing" textLength="174" x="636.25" y="1527.7617">redirect to user record page</text><polygon fill="#181818" points="56.5,1557.8145,46.5,1561.8145,56.5,1565.8145" style="stroke:#181818;stroke-width:1.0;"/><line style="stroke:#181818;stroke-width:1.0;" x1="50.5" x2="403.5" y1="1561.8145" y2="1561.8145"/><text fill="#000000" font-family="sans-serif" font-size="13" lengthAdjust="spacing" textLength="80" x="185" y="1557.0723">render HTML</text><!--SRC=[hLLjJzim4FxkNt43941gotU4a4B8M5aWh4tvEXddrfgwJcOxeFxxdPFIDkdBAhP-Y9hpFS-z-BdBH6O8fLPIJp5Zx8lKGfLa6gD68qNtHULYQdk5ujgLCyMOdKfTSCDdC7HpXM0TkVaZM3_2toLgWGzeBHzZeEHOpr0x4FH0mnYvEIbaGQmG29UJwVJq5E8a368O9AEq_tZNS1fPDFQ9kE3gwe9dCwabHUPEvlgYz6VNrnl-0nIvoVQ1gcVNL7ujWYYJpfFiXICvTVtV5lYkxbvaJBuaGFz2VbMXOVAO3f8uZWOGFDx28FenYeOf93VtKPWEjoPYmrmxaok5XkYMaNjYQUwzKXVWc9ezSNDKAdzl48K6kSDDAb7PAp9xEDkgmSdBAmf7HENIT1ialJ6wi_Dz31-5xS0NvO7uT5xWBWxkn6IJfRg2vo3ktmPfCXZkwD8pLpBZf4qulijLLgFIwE4f3j9ekACPASveLjn1Yklfr-aErVqhZTVQ6iVFIdpsOZ7LDO9wmjzGPxWOlfiW_1wH65VQR73US34bxvLq6Aic5xhNhMcx1A6ac8BNAFX4MMiQ2R5DrOJZIgrW5iHQCAuS3E-JwWHewQ05bzVE6JekbML0lxL5qTqHnH38UBaGlevJa3-ZuXWxMRGeUEg7bCpP5eREXlOxpOPtuEWhvOEP3_0BIO9rqeiqZyu1wd96cwNax_g_bcEg2_x8BCqzrVQYsjBhD5RW-Tfjhzilwo9yxlOZSU0wgoLWmPB4G4ou7gDbZPtwAH6SlDL3YNtjzyFMGhPCyD-genlhwugwTLC72gAvolR9eInyzfjHYBu21SfzBaGq8oxWMMRecmjSKHEoEKZjGnqTSBlj3-QXQeDw2TMQgoL2s1QRXtaTmhVq8MP_0000]--></g></svg>