<?xml version="1.0" encoding="us-ascii" standalone="no"?><svg xmlns="http://www.w3.org/2000/svg" xmlns:xlink="http://www.w3.org/1999/xlink" contentStyleType="text/css" height="1670px" preserveAspectRatio="none" style="width:3704px;height:1670px;background:#FFFFFF;" version="1.1" viewBox="0 0 3704 1670" width="3704px" zoomAndPan="magnify"><defs/><g><rect fill="none" height="163.8633" style="stroke:#000000;stroke-width:1.5;" width="3537" x="10" y="333.7715"/><rect fill="none" height="193.1738" style="stroke:#000000;stroke-width:1.5;" width="3688" x="10" y="628.877"/><rect fill="none" height="163.8633" style="stroke:#000000;stroke-width:1.5;" width="3393" x="10" y="1070.5352"/><rect fill="none" height="193.1738" style="stroke:#000000;stroke-width:1.5;" width="3688" x="10" y="1336.3301"/><line style="stroke:#181818;stroke-width:0.5;stroke-dasharray:5.0,5.0;" x1="45" x2="45" y1="52.9766" y2="1663.7461"/><line style="stroke:#181818;stroke-width:0.5;stroke-dasharray:5.0,5.0;" x1="301" x2="301" y1="52.9766" y2="1663.7461"/><line style="stroke:#181818;stroke-width:0.5;stroke-dasharray:5.0,5.0;" x1="828" x2="828" y1="52.9766" y2="1663.7461"/><line style="stroke:#181818;stroke-width:0.5;stroke-dasharray:5.0,5.0;" x1="1413" x2="1413" y1="52.9766" y2="1663.7461"/><line style="stroke:#181818;stroke-width:0.5;stroke-dasharray:5.0,5.0;" x1="1804" x2="1804" y1="52.9766" y2="1663.7461"/><line style="stroke:#181818;stroke-width:0.5;stroke-dasharray:5.0,5.0;" x1="2019" x2="2019" y1="52.9766" y2="1663.7461"/><line style="stroke:#181818;stroke-width:0.5;stroke-dasharray:5.0,5.0;" x1="2223" x2="2223" y1="52.9766" y2="1663.7461"/><line style="stroke:#181818;stroke-width:0.5;stroke-dasharray:5.0,5.0;" x1="2487" x2="2487" y1="52.9766" y2="1663.7461"/><line style="stroke:#181818;stroke-width:0.5;stroke-dasharray:5.0,5.0;" x1="2855" x2="2855" y1="52.9766" y2="1663.7461"/><line style="stroke:#181818;stroke-width:0.5;stroke-dasharray:5.0,5.0;" x1="3142" x2="3142" y1="52.9766" y2="1663.7461"/><line style="stroke:#181818;stroke-width:0.5;stroke-dasharray:5.0,5.0;" x1="3312" x2="3312" y1="52.9766" y2="1663.7461"/><line style="stroke:#181818;stroke-width:0.5;stroke-dasharray:5.0,5.0;" x1="3470" x2="3470" y1="52.9766" y2="1663.7461"/><line style="stroke:#181818;stroke-width:0.5;stroke-dasharray:5.0,5.0;" x1="3617" x2="3617" y1="52.9766" y2="1663.7461"/><rect fill="#E2E2F0" height="30.4883" rx="2.5" ry="2.5" style="stroke:#181818;stroke-width:0.5;" width="51" x="20" y="21.4883"/><text fill="#000000" font-family="sans-serif" font-size="14" lengthAdjust="spacing" textLength="37" x="27" y="42.0234">Actor</text><rect fill="#E2E2F0" height="46.9766" rx="2.5" ry="2.5" style="stroke:#181818;stroke-width:0.5;" width="441" x="81" y="5"/><text fill="#000000" font-family="sans-serif" font-size="14" font-style="italic" lengthAdjust="spacing" textLength="427" x="88" y="25.5352">&#171;/trial-management/trials/:trialNumber/:locationCode/detail&#187;</text><text fill="#000000" font-family="sans-serif" font-size="14" lengthAdjust="spacing" textLength="103" x="250" y="42.0234">TrialDetailPage</text><rect fill="#E2E2F0" height="46.9766" rx="2.5" ry="2.5" style="stroke:#181818;stroke-width:0.5;" width="593" x="532" y="5"/><text fill="#000000" font-family="sans-serif" font-size="14" font-style="italic" lengthAdjust="spacing" textLength="579" x="539" y="25.5352">&#171;/trial-management/trials/:locationCode/:trialnumber/empanel/number-of-jurors&#187;</text><text fill="#000000" font-family="sans-serif" font-size="14" lengthAdjust="spacing" textLength="125" x="766" y="42.0234">JurorQuantityPage</text><rect fill="#E2E2F0" height="46.9766" rx="2.5" ry="2.5" style="stroke:#181818;stroke-width:0.5;" width="556" x="1135" y="5"/><text fill="#000000" font-family="sans-serif" font-size="14" font-style="italic" lengthAdjust="spacing" textLength="542" x="1142" y="25.5352">&#171;/trial-management/trials/:locationCode/:trialnumber/empanel/jurors-select&#187;</text><text fill="#000000" font-family="sans-serif" font-size="14" lengthAdjust="spacing" textLength="121" x="1352.5" y="42.0234">EmpanelJuryForm</text><rect fill="#FFFFE0" height="46.9766" rx="2.5" ry="2.5" style="stroke:#181818;stroke-width:0.5;" width="207" x="1701" y="5"/><text fill="#000000" font-family="sans-serif" font-size="14" font-style="italic" lengthAdjust="spacing" textLength="193" x="1708" y="25.5352">&#171;empanel-jury.controller.js&#187;</text><text fill="#000000" font-family="sans-serif" font-size="14" lengthAdjust="spacing" textLength="155" x="1727" y="42.0234">EmpanelJuryController</text><rect fill="#FFFFE0" height="46.9766" rx="2.5" ry="2.5" style="stroke:#181818;stroke-width:0.5;" width="203" x="1918" y="5"/><text fill="#000000" font-family="sans-serif" font-size="14" font-style="italic" lengthAdjust="spacing" textLength="189" x="1925" y="25.5352">&#171;empanelJurorsDAO.post()&#187;</text><text fill="#000000" font-family="sans-serif" font-size="14" lengthAdjust="spacing" textLength="131" x="1954" y="42.0234">EmpanelJurorsDAO</text><rect fill="#FFFFE0" height="46.9766" rx="2.5" ry="2.5" style="stroke:#181818;stroke-width:0.5;" width="184" x="2131" y="5"/><text fill="#000000" font-family="sans-serif" font-size="14" font-style="italic" lengthAdjust="spacing" textLength="170" x="2138" y="25.5352">&#171;requestPanelDAO.get()&#187;</text><text fill="#000000" font-family="sans-serif" font-size="14" lengthAdjust="spacing" textLength="123" x="2161.5" y="42.0234">RequestPanelDAO</text><rect fill="#E6E6FA" height="46.9766" rx="2.5" ry="2.5" style="stroke:#181818;stroke-width:0.5;" width="324" x="2325" y="5"/><text fill="#000000" font-family="sans-serif" font-size="14" font-style="italic" lengthAdjust="spacing" textLength="310" x="2332" y="25.5352">&#171;trial-management/empanel-jury/index.njk&#187;</text><text fill="#000000" font-family="sans-serif" font-size="14" lengthAdjust="spacing" textLength="125" x="2424.5" y="42.0234">JurorQuantityPage</text><rect fill="#E6E6FA" height="46.9766" rx="2.5" ry="2.5" style="stroke:#181818;stroke-width:0.5;" width="393" x="2659" y="5"/><text fill="#000000" font-family="sans-serif" font-size="14" font-style="italic" lengthAdjust="spacing" textLength="379" x="2666" y="25.5352">&#171;trial-management/empanel-jury/empanel-jurors.njk&#187;</text><text fill="#000000" font-family="sans-serif" font-size="14" lengthAdjust="spacing" textLength="133" x="2789" y="42.0234">EmpanelJurorsPage</text><rect fill="#E6E6FA" height="46.9766" rx="2.5" ry="2.5" style="stroke:#181818;stroke-width:0.5;" width="160" x="3062" y="5"/><text fill="#000000" font-family="sans-serif" font-size="14" font-style="italic" lengthAdjust="spacing" textLength="146" x="3069" y="25.5352">&#171;_errors/generic.njk&#187;</text><text fill="#000000" font-family="sans-serif" font-size="14" lengthAdjust="spacing" textLength="99" x="3092.5" y="42.0234">ErrorTemplate</text><rect fill="#E2E2F0" height="30.4883" rx="2.5" ry="2.5" style="stroke:#181818;stroke-width:0.5;" width="161" x="3232" y="21.4883"/><text fill="#000000" font-family="sans-serif" font-size="14" lengthAdjust="spacing" textLength="147" x="3239" y="42.0234">EmpanelJuryValidator</text><rect fill="#E2E2F0" height="30.4883" rx="2.5" ry="2.5" style="stroke:#181818;stroke-width:0.5;" width="134" x="3403" y="21.4883"/><text fill="#000000" font-family="sans-serif" font-size="14" lengthAdjust="spacing" textLength="120" x="3410" y="42.0234">QuantityValidator</text><rect fill="#E2E2F0" height="30.4883" rx="2.5" ry="2.5" style="stroke:#181818;stroke-width:0.5;" width="141" x="3547" y="21.4883"/><text fill="#000000" font-family="sans-serif" font-size="14" lengthAdjust="spacing" textLength="127" x="3554" y="42.0234">BackendController</text><polygon fill="#181818" points="289.5,80.2871,299.5,84.2871,289.5,88.2871" style="stroke:#181818;stroke-width:1.0;"/><line style="stroke:#181818;stroke-width:1.0;" x1="45.5" x2="295.5" y1="84.2871" y2="84.2871"/><text fill="#000000" font-family="sans-serif" font-size="13" lengthAdjust="spacing" textLength="123" x="112" y="79.5449">Click 'Empanel Jury'</text><polygon fill="#181818" points="1792.5,109.5977,1802.5,113.5977,1792.5,117.5977" style="stroke:#181818;stroke-width:1.0;"/><line style="stroke:#181818;stroke-width:1.0;" x1="301.5" x2="1798.5" y1="113.5977" y2="113.5977"/><text fill="#000000" font-family="sans-serif" font-size="13" lengthAdjust="spacing" textLength="121" x="992.5" y="108.8555">call page controller</text><polygon fill="#181818" points="2475,138.9082,2485,142.9082,2475,146.9082" style="stroke:#181818;stroke-width:1.0;"/><line style="stroke:#181818;stroke-width:1.0;" x1="1804.5" x2="2481" y1="142.9082" y2="142.9082"/><text fill="#000000" font-family="sans-serif" font-size="13" lengthAdjust="spacing" textLength="169" x="2061.25" y="138.166">request and build template</text><polygon fill="#181818" points="1815.5,168.2188,1805.5,172.2188,1815.5,176.2188" style="stroke:#181818;stroke-width:1.0;"/><line style="stroke:#181818;stroke-width:1.0;" x1="1809.5" x2="2486" y1="172.2188" y2="172.2188"/><text fill="#000000" font-family="sans-serif" font-size="13" lengthAdjust="spacing" textLength="78" x="2106.75" y="167.4766">return HTML</text><polygon fill="#181818" points="839.5,197.5293,829.5,201.5293,839.5,205.5293" style="stroke:#181818;stroke-width:1.0;"/><line style="stroke:#181818;stroke-width:1.0;" x1="833.5" x2="1803.5" y1="201.5293" y2="201.5293"/><text fill="#000000" font-family="sans-serif" font-size="13" lengthAdjust="spacing" textLength="78" x="1277.5" y="196.7871">return HTML</text><polygon fill="#181818" points="56.5,226.8398,46.5,230.8398,56.5,234.8398" style="stroke:#181818;stroke-width:1.0;"/><line style="stroke:#181818;stroke-width:1.0;" x1="50.5" x2="827.5" y1="230.8398" y2="230.8398"/><text fill="#000000" font-family="sans-serif" font-size="13" lengthAdjust="spacing" textLength="80" x="397" y="226.0977">render HTML</text><polygon fill="#181818" points="816.5,256.1504,826.5,260.1504,816.5,264.1504" style="stroke:#181818;stroke-width:1.0;"/><line style="stroke:#181818;stroke-width:1.0;" x1="45.5" x2="822.5" y1="260.1504" y2="260.1504"/><text fill="#000000" font-family="sans-serif" font-size="13" lengthAdjust="spacing" textLength="124" x="375" y="255.4082">submit form details</text><polygon fill="#181818" points="1792.5,285.4609,1802.5,289.4609,1792.5,293.4609" style="stroke:#181818;stroke-width:1.0;"/><line style="stroke:#181818;stroke-width:1.0;" x1="828.5" x2="1798.5" y1="289.4609" y2="289.4609"/><text fill="#000000" font-family="sans-serif" font-size="13" lengthAdjust="spacing" textLength="66" x="1283.5" y="284.7188">POST form</text><polygon fill="#181818" points="3458,314.7715,3468,318.7715,3458,322.7715" style="stroke:#181818;stroke-width:1.0;"/><line style="stroke:#181818;stroke-width:1.0;" x1="1804.5" x2="3464" y1="318.7715" y2="318.7715"/><text fill="#000000" font-family="sans-serif" font-size="13" lengthAdjust="spacing" textLength="160" x="2557.25" y="314.0293">validate form submission</text><path d="M10,333.7715 L72,333.7715 L72,341.082 L62,351.082 L10,351.082 L10,333.7715 " fill="#EEEEEE" style="stroke:#000000;stroke-width:1.5;"/><rect fill="none" height="163.8633" style="stroke:#000000;stroke-width:1.5;" width="3537" x="10" y="333.7715"/><text fill="#000000" font-family="sans-serif" font-size="13" font-weight="bold" lengthAdjust="spacing" textLength="17" x="25" y="347.3398">alt</text><text fill="#000000" font-family="sans-serif" font-size="11" font-weight="bold" lengthAdjust="spacing" textLength="146" x="87" y="346.4063">[Form missing selections]</text><polygon fill="#181818" points="1815.5,368.3926,1805.5,372.3926,1815.5,376.3926" style="stroke:#181818;stroke-width:1.0;"/><line style="stroke:#181818;stroke-width:1.0;" x1="1809.5" x2="3469" y1="372.3926" y2="372.3926"/><text fill="#000000" font-family="sans-serif" font-size="13" lengthAdjust="spacing" textLength="76" x="2599.25" y="367.6504">invalid form</text><polygon fill="#181818" points="2475,397.7031,2485,401.7031,2475,405.7031" style="stroke:#181818;stroke-width:1.0;"/><line style="stroke:#181818;stroke-width:1.0;" x1="1804.5" x2="2481" y1="401.7031" y2="401.7031"/><text fill="#000000" font-family="sans-serif" font-size="13" lengthAdjust="spacing" textLength="169" x="2061.25" y="396.9609">request and build template</text><polygon fill="#181818" points="1815.5,427.0137,1805.5,431.0137,1815.5,435.0137" style="stroke:#181818;stroke-width:1.0;"/><line style="stroke:#181818;stroke-width:1.0;" x1="1809.5" x2="2486" y1="431.0137" y2="431.0137"/><text fill="#000000" font-family="sans-serif" font-size="13" lengthAdjust="spacing" textLength="78" x="2106.75" y="426.2715">return HTML</text><polygon fill="#181818" points="839.5,456.3242,829.5,460.3242,839.5,464.3242" style="stroke:#181818;stroke-width:1.0;"/><line style="stroke:#181818;stroke-width:1.0;" x1="833.5" x2="1803.5" y1="460.3242" y2="460.3242"/><text fill="#000000" font-family="sans-serif" font-size="13" lengthAdjust="spacing" textLength="112" x="1260.5" y="455.582">return error HTML</text><polygon fill="#181818" points="56.5,485.6348,46.5,489.6348,56.5,493.6348" style="stroke:#181818;stroke-width:1.0;"/><line style="stroke:#181818;stroke-width:1.0;" x1="50.5" x2="827.5" y1="489.6348" y2="489.6348"/><text fill="#000000" font-family="sans-serif" font-size="13" lengthAdjust="spacing" textLength="133" x="370.5" y="484.8926">render error message</text><polygon fill="#181818" points="1815.5,521.9453,1805.5,525.9453,1815.5,529.9453" style="stroke:#181818;stroke-width:1.0;"/><line style="stroke:#181818;stroke-width:1.0;" x1="1809.5" x2="3469" y1="525.9453" y2="525.9453"/><text fill="#000000" font-family="sans-serif" font-size="13" lengthAdjust="spacing" textLength="141" x="2566.75" y="521.2031">valid form submission</text><polygon fill="#181818" points="2211,551.2559,2221,555.2559,2211,559.2559" style="stroke:#181818;stroke-width:1.0;"/><line style="stroke:#181818;stroke-width:1.0;" x1="1804.5" x2="2217" y1="555.2559" y2="555.2559"/><text fill="#000000" font-family="sans-serif" font-size="13" lengthAdjust="spacing" textLength="126" x="1950.75" y="550.5137">build request object</text><polygon fill="#181818" points="3605.5,580.5664,3615.5,584.5664,3605.5,588.5664" style="stroke:#181818;stroke-width:1.0;"/><line style="stroke:#181818;stroke-width:1.0;" x1="2223" x2="3611.5" y1="584.5664" y2="584.5664"/><text fill="#000000" font-family="sans-serif" font-size="13" lengthAdjust="spacing" textLength="138" x="2851.25" y="579.8242">send backend request</text><polygon fill="#181818" points="2234,609.877,2224,613.877,2234,617.877" style="stroke:#181818;stroke-width:1.0;"/><line style="stroke:#181818;stroke-width:1.0;" x1="2228" x2="3616.5" y1="613.877" y2="613.877"/><text fill="#000000" font-family="sans-serif" font-size="13" lengthAdjust="spacing" textLength="77" x="2881.75" y="609.1348">ok response</text><path d="M10,628.877 L72,628.877 L72,636.1875 L62,646.1875 L10,646.1875 L10,628.877 " fill="#EEEEEE" style="stroke:#000000;stroke-width:1.5;"/><rect fill="none" height="193.1738" style="stroke:#000000;stroke-width:1.5;" width="3688" x="10" y="628.877"/><text fill="#000000" font-family="sans-serif" font-size="13" font-weight="bold" lengthAdjust="spacing" textLength="17" x="25" y="642.4453">alt</text><text fill="#000000" font-family="sans-serif" font-size="11" font-weight="bold" lengthAdjust="spacing" textLength="102" x="87" y="641.5117">[Panel API failure]</text><polygon fill="#181818" points="2234,663.498,2224,667.498,2234,671.498" style="stroke:#181818;stroke-width:1.0;"/><line style="stroke:#181818;stroke-width:1.0;stroke-dasharray:2.0,2.0;" x1="2228" x2="3616.5" y1="667.498" y2="667.498"/><text fill="#000000" font-family="sans-serif" font-size="13" lengthAdjust="spacing" textLength="91" x="2874.75" y="662.7559">error response</text><polygon fill="#181818" points="1815.5,692.8086,1805.5,696.8086,1815.5,700.8086" style="stroke:#181818;stroke-width:1.0;"/><line style="stroke:#181818;stroke-width:1.0;stroke-dasharray:2.0,2.0;" x1="1809.5" x2="2222" y1="696.8086" y2="696.8086"/><text fill="#000000" font-family="sans-serif" font-size="13" lengthAdjust="spacing" textLength="127" x="1950.25" y="692.0664">reject requestObject</text><polygon fill="#181818" points="3130,722.1191,3140,726.1191,3130,730.1191" style="stroke:#181818;stroke-width:1.0;"/><line style="stroke:#181818;stroke-width:1.0;" x1="1804.5" x2="3136" y1="726.1191" y2="726.1191"/><text fill="#000000" font-family="sans-serif" font-size="13" lengthAdjust="spacing" textLength="169" x="2388.75" y="721.377">request and build template</text><polygon fill="#181818" points="1815.5,751.4297,1805.5,755.4297,1815.5,759.4297" style="stroke:#181818;stroke-width:1.0;"/><line style="stroke:#181818;stroke-width:1.0;" x1="1809.5" x2="3141" y1="755.4297" y2="755.4297"/><text fill="#000000" font-family="sans-serif" font-size="13" lengthAdjust="spacing" textLength="78" x="2434.25" y="750.6875">return HTML</text><polygon fill="#181818" points="3130,780.7402,3140,784.7402,3130,788.7402" style="stroke:#181818;stroke-width:1.0;"/><line style="stroke:#181818;stroke-width:1.0;" x1="1804.5" x2="3136" y1="784.7402" y2="784.7402"/><text fill="#000000" font-family="sans-serif" font-size="13" lengthAdjust="spacing" textLength="78" x="2434.25" y="779.998">return HTML</text><polygon fill="#181818" points="56.5,810.0508,46.5,814.0508,56.5,818.0508" style="stroke:#181818;stroke-width:1.0;"/><line style="stroke:#181818;stroke-width:1.0;" x1="50.5" x2="3141" y1="814.0508" y2="814.0508"/><text fill="#000000" font-family="sans-serif" font-size="13" lengthAdjust="spacing" textLength="108" x="1539.75" y="809.3086">render error page</text><polygon fill="#181818" points="1815.5,846.3613,1805.5,850.3613,1815.5,854.3613" style="stroke:#181818;stroke-width:1.0;"/><line style="stroke:#181818;stroke-width:1.0;" x1="1809.5" x2="2222" y1="850.3613" y2="850.3613"/><text fill="#000000" font-family="sans-serif" font-size="13" lengthAdjust="spacing" textLength="96" x="1965.75" y="845.6191">resolve request</text><polygon fill="#181818" points="2843.5,875.6719,2853.5,879.6719,2843.5,883.6719" style="stroke:#181818;stroke-width:1.0;"/><line style="stroke:#181818;stroke-width:1.0;" x1="1804.5" x2="2849.5" y1="879.6719" y2="879.6719"/><text fill="#000000" font-family="sans-serif" font-size="13" lengthAdjust="spacing" textLength="169" x="2245.5" y="874.9297">request and build template</text><polygon fill="#181818" points="1815.5,904.9824,1805.5,908.9824,1815.5,912.9824" style="stroke:#181818;stroke-width:1.0;"/><line style="stroke:#181818;stroke-width:1.0;" x1="1809.5" x2="2854.5" y1="908.9824" y2="908.9824"/><text fill="#000000" font-family="sans-serif" font-size="13" lengthAdjust="spacing" textLength="78" x="2291" y="904.2402">return HTML</text><polygon fill="#181818" points="1424,934.293,1414,938.293,1424,942.293" style="stroke:#181818;stroke-width:1.0;"/><line style="stroke:#181818;stroke-width:1.0;" x1="1418" x2="1803.5" y1="938.293" y2="938.293"/><text fill="#000000" font-family="sans-serif" font-size="13" lengthAdjust="spacing" textLength="78" x="1569.75" y="933.5508">return HTML</text><polygon fill="#181818" points="56.5,963.6035,46.5,967.6035,56.5,971.6035" style="stroke:#181818;stroke-width:1.0;"/><line style="stroke:#181818;stroke-width:1.0;" x1="50.5" x2="1412" y1="967.6035" y2="967.6035"/><text fill="#000000" font-family="sans-serif" font-size="13" lengthAdjust="spacing" textLength="80" x="689.25" y="962.8613">render HTML</text><polygon fill="#181818" points="1401,992.9141,1411,996.9141,1401,1000.9141" style="stroke:#181818;stroke-width:1.0;"/><line style="stroke:#181818;stroke-width:1.0;" x1="45.5" x2="1407" y1="996.9141" y2="996.9141"/><text fill="#000000" font-family="sans-serif" font-size="13" lengthAdjust="spacing" textLength="124" x="667.25" y="992.1719">submit form details</text><polygon fill="#181818" points="1792.5,1022.2246,1802.5,1026.2246,1792.5,1030.2246" style="stroke:#181818;stroke-width:1.0;"/><line style="stroke:#181818;stroke-width:1.0;" x1="1413" x2="1798.5" y1="1026.2246" y2="1026.2246"/><text fill="#000000" font-family="sans-serif" font-size="13" lengthAdjust="spacing" textLength="66" x="1575.75" y="1021.4824">POST form</text><polygon fill="#181818" points="3300.5,1051.5352,3310.5,1055.5352,3300.5,1059.5352" style="stroke:#181818;stroke-width:1.0;"/><line style="stroke:#181818;stroke-width:1.0;" x1="1804.5" x2="3306.5" y1="1055.5352" y2="1055.5352"/><text fill="#000000" font-family="sans-serif" font-size="13" lengthAdjust="spacing" textLength="160" x="2478.5" y="1050.793">validate form submission</text><path d="M10,1070.5352 L72,1070.5352 L72,1077.8457 L62,1087.8457 L10,1087.8457 L10,1070.5352 " fill="#EEEEEE" style="stroke:#000000;stroke-width:1.5;"/><rect fill="none" height="163.8633" style="stroke:#000000;stroke-width:1.5;" width="3393" x="10" y="1070.5352"/><text fill="#000000" font-family="sans-serif" font-size="13" font-weight="bold" lengthAdjust="spacing" textLength="17" x="25" y="1084.1035">alt</text><text fill="#000000" font-family="sans-serif" font-size="11" font-weight="bold" lengthAdjust="spacing" textLength="146" x="87" y="1083.1699">[Form missing selections]</text><polygon fill="#181818" points="1815.5,1105.1563,1805.5,1109.1563,1815.5,1113.1563" style="stroke:#181818;stroke-width:1.0;"/><line style="stroke:#181818;stroke-width:1.0;" x1="1809.5" x2="3311.5" y1="1109.1563" y2="1109.1563"/><text fill="#000000" font-family="sans-serif" font-size="13" lengthAdjust="spacing" textLength="76" x="2520.5" y="1104.4141">invalid form</text><polygon fill="#181818" points="2843.5,1134.4668,2853.5,1138.4668,2843.5,1142.4668" style="stroke:#181818;stroke-width:1.0;"/><line style="stroke:#181818;stroke-width:1.0;" x1="1804.5" x2="2849.5" y1="1138.4668" y2="1138.4668"/><text fill="#000000" font-family="sans-serif" font-size="13" lengthAdjust="spacing" textLength="169" x="2245.5" y="1133.7246">request and build template</text><polygon fill="#181818" points="1815.5,1163.7773,1805.5,1167.7773,1815.5,1171.7773" style="stroke:#181818;stroke-width:1.0;"/><line style="stroke:#181818;stroke-width:1.0;" x1="1809.5" x2="2854.5" y1="1167.7773" y2="1167.7773"/><text fill="#000000" font-family="sans-serif" font-size="13" lengthAdjust="spacing" textLength="78" x="2291" y="1163.0352">return HTML</text><polygon fill="#181818" points="1424,1193.0879,1414,1197.0879,1424,1201.0879" style="stroke:#181818;stroke-width:1.0;"/><line style="stroke:#181818;stroke-width:1.0;" x1="1418" x2="1803.5" y1="1197.0879" y2="1197.0879"/><text fill="#000000" font-family="sans-serif" font-size="13" lengthAdjust="spacing" textLength="112" x="1552.75" y="1192.3457">return error HTML</text><polygon fill="#181818" points="56.5,1222.3984,46.5,1226.3984,56.5,1230.3984" style="stroke:#181818;stroke-width:1.0;"/><line style="stroke:#181818;stroke-width:1.0;" x1="50.5" x2="1412" y1="1226.3984" y2="1226.3984"/><text fill="#000000" font-family="sans-serif" font-size="13" lengthAdjust="spacing" textLength="133" x="662.75" y="1221.6563">render error message</text><polygon fill="#181818" points="1815.5,1258.709,1805.5,1262.709,1815.5,1266.709" style="stroke:#181818;stroke-width:1.0;"/><line style="stroke:#181818;stroke-width:1.0;" x1="1809.5" x2="3311.5" y1="1262.709" y2="1262.709"/><text fill="#000000" font-family="sans-serif" font-size="13" lengthAdjust="spacing" textLength="141" x="2488" y="1257.9668">valid form submission</text><polygon fill="#181818" points="2007.5,1288.0195,2017.5,1292.0195,2007.5,1296.0195" style="stroke:#181818;stroke-width:1.0;"/><line style="stroke:#181818;stroke-width:1.0;" x1="1804.5" x2="2013.5" y1="1292.0195" y2="1292.0195"/><text fill="#000000" font-family="sans-serif" font-size="13" lengthAdjust="spacing" textLength="126" x="1849" y="1287.2773">build request object</text><polygon fill="#181818" points="3605.5,1317.3301,3615.5,1321.3301,3605.5,1325.3301" style="stroke:#181818;stroke-width:1.0;"/><line style="stroke:#181818;stroke-width:1.0;" x1="2019.5" x2="3611.5" y1="1321.3301" y2="1321.3301"/><text fill="#000000" font-family="sans-serif" font-size="13" lengthAdjust="spacing" textLength="138" x="2749.5" y="1316.5879">send backend request</text><path d="M10,1336.3301 L72,1336.3301 L72,1343.6406 L62,1353.6406 L10,1353.6406 L10,1336.3301 " fill="#EEEEEE" style="stroke:#000000;stroke-width:1.5;"/><rect fill="none" height="193.1738" style="stroke:#000000;stroke-width:1.5;" width="3688" x="10" y="1336.3301"/><text fill="#000000" font-family="sans-serif" font-size="13" font-weight="bold" lengthAdjust="spacing" textLength="17" x="25" y="1349.8984">alt</text><text fill="#000000" font-family="sans-serif" font-size="11" font-weight="bold" lengthAdjust="spacing" textLength="102" x="87" y="1348.9648">[Panel API failure]</text><polygon fill="#181818" points="2030.5,1370.9512,2020.5,1374.9512,2030.5,1378.9512" style="stroke:#181818;stroke-width:1.0;"/><line style="stroke:#181818;stroke-width:1.0;stroke-dasharray:2.0,2.0;" x1="2024.5" x2="3616.5" y1="1374.9512" y2="1374.9512"/><text fill="#000000" font-family="sans-serif" font-size="13" lengthAdjust="spacing" textLength="91" x="2773" y="1370.209">error response</text><polygon fill="#181818" points="1815.5,1400.2617,1805.5,1404.2617,1815.5,1408.2617" style="stroke:#181818;stroke-width:1.0;"/><line style="stroke:#181818;stroke-width:1.0;stroke-dasharray:2.0,2.0;" x1="1809.5" x2="2018.5" y1="1404.2617" y2="1404.2617"/><text fill="#000000" font-family="sans-serif" font-size="13" lengthAdjust="spacing" textLength="127" x="1848.5" y="1399.5195">reject requestObject</text><polygon fill="#181818" points="3130,1429.5723,3140,1433.5723,3130,1437.5723" style="stroke:#181818;stroke-width:1.0;"/><line style="stroke:#181818;stroke-width:1.0;" x1="1804.5" x2="3136" y1="1433.5723" y2="1433.5723"/><text fill="#000000" font-family="sans-serif" font-size="13" lengthAdjust="spacing" textLength="169" x="2388.75" y="1428.8301">request and build template</text><polygon fill="#181818" points="1815.5,1458.8828,1805.5,1462.8828,1815.5,1466.8828" style="stroke:#181818;stroke-width:1.0;"/><line style="stroke:#181818;stroke-width:1.0;" x1="1809.5" x2="3141" y1="1462.8828" y2="1462.8828"/><text fill="#000000" font-family="sans-serif" font-size="13" lengthAdjust="spacing" textLength="78" x="2434.25" y="1458.1406">return HTML</text><polygon fill="#181818" points="3130,1488.1934,3140,1492.1934,3130,1496.1934" style="stroke:#181818;stroke-width:1.0;"/><line style="stroke:#181818;stroke-width:1.0;" x1="1804.5" x2="3136" y1="1492.1934" y2="1492.1934"/><text fill="#000000" font-family="sans-serif" font-size="13" lengthAdjust="spacing" textLength="78" x="2434.25" y="1487.4512">return HTML</text><polygon fill="#181818" points="56.5,1517.5039,46.5,1521.5039,56.5,1525.5039" style="stroke:#181818;stroke-width:1.0;"/><line style="stroke:#181818;stroke-width:1.0;" x1="50.5" x2="3141" y1="1521.5039" y2="1521.5039"/><text fill="#000000" font-family="sans-serif" font-size="13" lengthAdjust="spacing" textLength="108" x="1539.75" y="1516.7617">render error page</text><polygon fill="#181818" points="2030.5,1553.8145,2020.5,1557.8145,2030.5,1561.8145" style="stroke:#181818;stroke-width:1.0;"/><line style="stroke:#181818;stroke-width:1.0;" x1="2024.5" x2="3616.5" y1="1557.8145" y2="1557.8145"/><text fill="#000000" font-family="sans-serif" font-size="13" lengthAdjust="spacing" textLength="77" x="2780" y="1553.0723">ok response</text><polygon fill="#181818" points="1815.5,1583.125,1805.5,1587.125,1815.5,1591.125" style="stroke:#181818;stroke-width:1.0;"/><line style="stroke:#181818;stroke-width:1.0;" x1="1809.5" x2="2018.5" y1="1587.125" y2="1587.125"/><text fill="#000000" font-family="sans-serif" font-size="13" lengthAdjust="spacing" textLength="96" x="1864" y="1582.3828">resolve request</text><polygon fill="#181818" points="312.5,1612.4355,302.5,1616.4355,312.5,1620.4355" style="stroke:#181818;stroke-width:1.0;"/><line style="stroke:#181818;stroke-width:1.0;" x1="306.5" x2="1803.5" y1="1616.4355" y2="1616.4355"/><text fill="#000000" font-family="sans-serif" font-size="13" lengthAdjust="spacing" textLength="140" x="983" y="1611.6934">redirect to trial details</text><polygon fill="#181818" points="56.5,1641.7461,46.5,1645.7461,56.5,1649.7461" style="stroke:#181818;stroke-width:1.0;"/><line style="stroke:#181818;stroke-width:1.0;" x1="50.5" x2="300.5" y1="1645.7461" y2="1645.7461"/><text fill="#000000" font-family="sans-serif" font-size="13" lengthAdjust="spacing" textLength="80" x="133.5" y="1641.0039">render HTML</text><!--SRC=[xLTBS-8u4BxhLtJL7aWEG9BDREsugDGQS3B9cC20awezRGcZC4w4pSeok_pxQKd63y04QdBPMb_0KhVwQ_NZipj-2y8b5NG14xdc368f0byc2muapaNixuI5FXkmEAPpPlDW7YvOAC777oO8GJKP-C6IufxjomYt6eq6kCEUxS9u-EJTFzwLb3mHKDvdaWPyX1Q1ncOBEfssL0_D1GrHe53CHjoszFzZifWoqRPuv5CPH64lch7sJ5kwkIbXF2GY4jyIV0paUeEoMHy4AjasiA61PGiqpNZRB9lHI_DLeSHRq8vHGm_Mjv5OA63z_tEW1gePCyvyYOWwnhtXepSUkgup1lkn3sFdsvCpyM3OVN1wtgJAgruKIX5npeJohR3gT58qTR5royyahLUy9FpY1lFlya_6UVHFXMrqiMyFbLdrbzdB9Arb5CkpyqF6nghUOZbIvr9RsNEd8yhIrfpjCQTZupc3aMjxpkJukl3GNKubGvoTJ1KZqmx26Vkt5Rw-AMHELmpNeZea6vnqysYOmWAj7COJg98PLbXg0n7-OkeXRizPoB2xTupeMDtUkvupdkWYUhRT-xxj3SULzVDCUJ2ZsEWA9rkKj3SHpQKQfsltlZg8aTTjwLIN-c_eLLwHX13DAD2yIId2WXuF_3TefFweXAuRX1WfgXNAsGAVSWvB5Vsybab10_LtScz1McD0mnbCau3FGAR2ujbES_zPcOWGldW3b-HqqooxLLGozoiOqtAL6YFF0r1GY9Ff8f3mecZ5q5-Sesq7OJH4Ib2g5JVFqsd1oZmpOrh3n37o4Y6KIqDZUYUSWs4YbCK4O7zSYfQ3KDisZfGEd9o4AhYAD02ybmZT8Xlb0manUWlp8YIuHyZx5y-lNOfdEG0PmrdfPJVNZwQl66MIoL5tfqjKGJ0L9YFOdCqFeMVx3aLlg1elCOFCv5SV07jq3ozOKebGeIuOsM_512Kpj9MSPl5gWgdBRFmRcgjjru8XhfCA83zIp7hAW0Twhv3it4GXqykAD9Uk54TynRAOR-Lrc_5F89TzHtFNpHV5CRoYDQiu9HNkunCjEfPBFfv3ZkQEaqAyKpa7WmnmACpxMQCSxdSPusIcE40If_93PS__JBl_rplzIBuikxMV2zAXPiUjMI1KS6G4-lClwxYyPpVVEiMc_KExLnpCFdPcgoUqZvxG_hVZLprm7HguFdIggiUdUdognwTwVAh7ftfygiUdUdognwU3uzE8unlcQU32YWbL7d3PkhgukcxzUkPzJ-2MJU7o4rn-jgulh8jFS3VmG8dFoTdTo5rTGHmbmcSm2zJKDKrKwvsJ1xgYC4xmpRLW5gZLcJSuXucpsGGdN0KYqXCOUNWU62Nu4id9Cf9Q-RVhPXSPPC84EWRF0z9dBpJ1-d92FvfXhrlmvDqsVoSk3US9HXihASGe8e1OMt3N_G40]--></g></svg>