<?xml version="1.0" encoding="us-ascii" standalone="no"?><svg xmlns="http://www.w3.org/2000/svg" xmlns:xlink="http://www.w3.org/1999/xlink" contentStyleType="text/css" height="1612px" preserveAspectRatio="none" style="width:3322px;height:1612px;background:#FFFFFF;" version="1.1" viewBox="0 0 3322 1612" width="3322px" zoomAndPan="magnify"><defs/><g><rect fill="none" height="193.1738" style="stroke:#000000;stroke-width:1.5;" width="3306.5" x="10" y="187.2188"/><rect fill="none" height="193.1738" style="stroke:#000000;stroke-width:1.5;" width="3306.5" x="10" y="540.9453"/><rect fill="none" height="193.1738" style="stroke:#000000;stroke-width:1.5;" width="3306.5" x="10" y="865.3613"/><rect fill="none" height="163.8633" style="stroke:#000000;stroke-width:1.5;" width="3155.5" x="10" y="1365.6406"/><line style="stroke:#181818;stroke-width:0.5;stroke-dasharray:5.0,5.0;" x1="45" x2="45" y1="52.9766" y2="1605.125"/><line style="stroke:#181818;stroke-width:0.5;stroke-dasharray:5.0,5.0;" x1="234.5" x2="234.5" y1="52.9766" y2="1605.125"/><line style="stroke:#181818;stroke-width:0.5;stroke-dasharray:5.0,5.0;" x1="733.5" x2="733.5" y1="52.9766" y2="1605.125"/><line style="stroke:#181818;stroke-width:0.5;stroke-dasharray:5.0,5.0;" x1="1147.5" x2="1147.5" y1="52.9766" y2="1605.125"/><line style="stroke:#181818;stroke-width:0.5;stroke-dasharray:5.0,5.0;" x1="1336.5" x2="1336.5" y1="52.9766" y2="1605.125"/><line style="stroke:#181818;stroke-width:0.5;stroke-dasharray:5.0,5.0;" x1="1560.5" x2="1560.5" y1="52.9766" y2="1605.125"/><line style="stroke:#181818;stroke-width:0.5;stroke-dasharray:5.0,5.0;" x1="1766.5" x2="1766.5" y1="52.9766" y2="1605.125"/><line style="stroke:#181818;stroke-width:0.5;stroke-dasharray:5.0,5.0;" x1="1987.5" x2="1987.5" y1="52.9766" y2="1605.125"/><line style="stroke:#181818;stroke-width:0.5;stroke-dasharray:5.0,5.0;" x1="2227.5" x2="2227.5" y1="52.9766" y2="1605.125"/><line style="stroke:#181818;stroke-width:0.5;stroke-dasharray:5.0,5.0;" x1="2563.5" x2="2563.5" y1="52.9766" y2="1605.125"/><line style="stroke:#181818;stroke-width:0.5;stroke-dasharray:5.0,5.0;" x1="2866.5" x2="2866.5" y1="52.9766" y2="1605.125"/><line style="stroke:#181818;stroke-width:0.5;stroke-dasharray:5.0,5.0;" x1="3057.5" x2="3057.5" y1="52.9766" y2="1605.125"/><line style="stroke:#181818;stroke-width:0.5;stroke-dasharray:5.0,5.0;" x1="3235.5" x2="3235.5" y1="52.9766" y2="1605.125"/><rect fill="#E2E2F0" height="30.4883" rx="2.5" ry="2.5" style="stroke:#181818;stroke-width:0.5;" width="51" x="20" y="21.4883"/><text fill="#000000" font-family="sans-serif" font-size="14" lengthAdjust="spacing" textLength="37" x="27" y="42.0234">Actor</text><rect fill="#E2E2F0" height="46.9766" rx="2.5" ry="2.5" style="stroke:#181818;stroke-width:0.5;" width="306" x="81.5" y="5"/><text fill="#000000" font-family="sans-serif" font-size="14" font-style="italic" lengthAdjust="spacing" textLength="292" x="88.5" y="25.5352">&#171;/juror-management/unpaid-attendance&#187;</text><text fill="#000000" font-family="sans-serif" font-size="14" lengthAdjust="spacing" textLength="160" x="154.5" y="42.0234">UnpaidAttendancePage</text><rect fill="#E2E2F0" height="46.9766" rx="2.5" ry="2.5" style="stroke:#181818;stroke-width:0.5;" width="673" x="397.5" y="5"/><text fill="#000000" font-family="sans-serif" font-size="14" font-style="italic" lengthAdjust="spacing" textLength="659" x="404.5" y="25.5352">&#171;/juror-management/unpaid-attendance/expense-record/:jurorNumber/:poolNumber/:status&#187;</text><text fill="#000000" font-family="sans-serif" font-size="14" lengthAdjust="spacing" textLength="139" x="664.5" y="42.0234">ExpenseRecordPage</text><rect fill="#E2E2F0" height="46.9766" rx="2.5" ry="2.5" style="stroke:#181818;stroke-width:0.5;" width="134" x="1080.5" y="5"/><text fill="#000000" font-family="sans-serif" font-size="14" font-style="italic" lengthAdjust="spacing" textLength="56" x="1119.5" y="25.5352">&#171;/error&#187;</text><text fill="#000000" font-family="sans-serif" font-size="14" lengthAdjust="spacing" textLength="120" x="1087.5" y="42.0234">GenericErrorPage</text><rect fill="#FFFFE0" height="46.9766" rx="2.5" ry="2.5" style="stroke:#181818;stroke-width:0.5;" width="225" x="1224.5" y="5"/><text fill="#000000" font-family="sans-serif" font-size="14" font-style="italic" lengthAdjust="spacing" textLength="211" x="1231.5" y="25.5352">&#171;expense-record.controller.js&#187;</text><text fill="#000000" font-family="sans-serif" font-size="14" lengthAdjust="spacing" textLength="176" x="1249" y="42.0234">ExpenseRecordController</text><rect fill="#FFFFE0" height="46.9766" rx="2.5" ry="2.5" style="stroke:#181818;stroke-width:0.5;" width="202" x="1459.5" y="5"/><text fill="#000000" font-family="sans-serif" font-size="14" font-style="italic" lengthAdjust="spacing" textLength="188" x="1466.5" y="25.5352">&#171;for-approval.controller.js&#187;</text><text fill="#000000" font-family="sans-serif" font-size="14" lengthAdjust="spacing" textLength="155" x="1483" y="42.0234">ForApprovalController</text><rect fill="#FFFFE0" height="46.9766" rx="2.5" ry="2.5" style="stroke:#181818;stroke-width:0.5;" width="191" x="1671.5" y="5"/><text fill="#000000" font-family="sans-serif" font-size="14" font-style="italic" lengthAdjust="spacing" textLength="177" x="1678.5" y="25.5352">&#171;jurorOverviewDAO.get()&#187;</text><text fill="#000000" font-family="sans-serif" font-size="14" lengthAdjust="spacing" textLength="140" x="1697" y="42.0234">JurorOverviewObject</text><rect fill="#FFFFE0" height="46.9766" rx="2.5" ry="2.5" style="stroke:#181818;stroke-width:0.5;" width="230" x="1872.5" y="5"/><text fill="#000000" font-family="sans-serif" font-size="14" font-style="italic" lengthAdjust="spacing" textLength="216" x="1879.5" y="25.5352">&#171;getExpenseRecordsDAO.get()&#187;</text><text fill="#000000" font-family="sans-serif" font-size="14" lengthAdjust="spacing" textLength="167" x="1904" y="42.0234">GetExpenseRecordsDAO</text><rect fill="#FFFFE0" height="46.9766" rx="2.5" ry="2.5" style="stroke:#181818;stroke-width:0.5;" width="231" x="2112.5" y="5"/><text fill="#000000" font-family="sans-serif" font-size="14" font-style="italic" lengthAdjust="spacing" textLength="217" x="2119.5" y="25.5352">&#171;jurorRecordDetailsDAO.post()&#187;</text><text fill="#000000" font-family="sans-serif" font-size="14" lengthAdjust="spacing" textLength="159" x="2148.5" y="42.0234">JurorRecordDetailsDAO</text><rect fill="#E6E6FA" height="46.9766" rx="2.5" ry="2.5" style="stroke:#181818;stroke-width:0.5;" width="421" x="2353.5" y="5"/><text fill="#000000" font-family="sans-serif" font-size="14" font-style="italic" lengthAdjust="spacing" textLength="407" x="2360.5" y="25.5352">&#171;juror-management/expense-record/expense-record.njk&#187;</text><text fill="#000000" font-family="sans-serif" font-size="14" lengthAdjust="spacing" textLength="170" x="2479" y="42.0234">ExpenseRecordTemplate</text><rect fill="#E6E6FA" height="46.9766" rx="2.5" ry="2.5" style="stroke:#181818;stroke-width:0.5;" width="165" x="2784.5" y="5"/><text fill="#000000" font-family="sans-serif" font-size="14" font-style="italic" lengthAdjust="spacing" textLength="146" x="2794" y="25.5352">&#171;_errors/generic.njk&#187;</text><text fill="#000000" font-family="sans-serif" font-size="14" lengthAdjust="spacing" textLength="151" x="2791.5" y="42.0234">GenericErrorTemplate</text><rect fill="#E2E2F0" height="30.4883" rx="2.5" ry="2.5" style="stroke:#181818;stroke-width:0.5;" width="196" x="2959.5" y="21.4883"/><text fill="#000000" font-family="sans-serif" font-size="14" lengthAdjust="spacing" textLength="182" x="2966.5" y="42.0234">ExpenseSelectionValidator</text><rect fill="#E2E2F0" height="30.4883" rx="2.5" ry="2.5" style="stroke:#181818;stroke-width:0.5;" width="141" x="3165.5" y="21.4883"/><text fill="#000000" font-family="sans-serif" font-size="14" lengthAdjust="spacing" textLength="127" x="3172.5" y="42.0234">BackendController</text><polygon fill="#181818" points="222.5,80.2871,232.5,84.2871,222.5,88.2871" style="stroke:#181818;stroke-width:1.0;"/><line style="stroke:#181818;stroke-width:1.0;" x1="45.5" x2="228.5" y1="84.2871" y2="84.2871"/><text fill="#000000" font-family="sans-serif" font-size="13" lengthAdjust="spacing" textLength="165" x="57.5" y="79.5449">click record expenses link</text><polygon fill="#181818" points="1325,109.5977,1335,113.5977,1325,117.5977" style="stroke:#181818;stroke-width:1.0;"/><line style="stroke:#181818;stroke-width:1.0;" x1="234.5" x2="1331" y1="113.5977" y2="113.5977"/><text fill="#000000" font-family="sans-serif" font-size="13" lengthAdjust="spacing" textLength="187" x="692.25" y="108.8555">call expense record controller</text><polygon fill="#181818" points="1755,138.9082,1765,142.9082,1755,146.9082" style="stroke:#181818;stroke-width:1.0;"/><line style="stroke:#181818;stroke-width:1.0;" x1="1337" x2="1761" y1="142.9082" y2="142.9082"/><text fill="#000000" font-family="sans-serif" font-size="13" lengthAdjust="spacing" textLength="126" x="1489" y="138.166">build request object</text><polygon fill="#181818" points="3224,168.2188,3234,172.2188,3224,176.2188" style="stroke:#181818;stroke-width:1.0;"/><line style="stroke:#181818;stroke-width:1.0;" x1="1767" x2="3230" y1="172.2188" y2="172.2188"/><text fill="#000000" font-family="sans-serif" font-size="13" lengthAdjust="spacing" textLength="138" x="2432.5" y="167.4766">send backend request</text><path d="M10,187.2188 L72,187.2188 L72,194.5293 L62,204.5293 L10,204.5293 L10,187.2188 " fill="#EEEEEE" style="stroke:#000000;stroke-width:1.5;"/><rect fill="none" height="193.1738" style="stroke:#000000;stroke-width:1.5;" width="3306.5" x="10" y="187.2188"/><text fill="#000000" font-family="sans-serif" font-size="13" font-weight="bold" lengthAdjust="spacing" textLength="17" x="25" y="200.7871">alt</text><text fill="#000000" font-family="sans-serif" font-size="11" font-weight="bold" lengthAdjust="spacing" textLength="161" x="87" y="199.8535">[Failed to fetch juror details]</text><polygon fill="#181818" points="1778,221.8398,1768,225.8398,1778,229.8398" style="stroke:#181818;stroke-width:1.0;"/><line style="stroke:#181818;stroke-width:1.0;stroke-dasharray:2.0,2.0;" x1="1772" x2="3235" y1="225.8398" y2="225.8398"/><text fill="#000000" font-family="sans-serif" font-size="13" lengthAdjust="spacing" textLength="91" x="2456" y="221.0977">Error response</text><polygon fill="#181818" points="1348,251.1504,1338,255.1504,1348,259.1504" style="stroke:#181818;stroke-width:1.0;"/><line style="stroke:#181818;stroke-width:1.0;stroke-dasharray:2.0,2.0;" x1="1342" x2="1766" y1="255.1504" y2="255.1504"/><text fill="#000000" font-family="sans-serif" font-size="13" lengthAdjust="spacing" textLength="127" x="1488.5" y="250.4082">reject requestObject</text><polygon fill="#181818" points="2855,280.4609,2865,284.4609,2855,288.4609" style="stroke:#181818;stroke-width:1.0;"/><line style="stroke:#181818;stroke-width:1.0;" x1="1337" x2="2861" y1="284.4609" y2="284.4609"/><text fill="#000000" font-family="sans-serif" font-size="13" lengthAdjust="spacing" textLength="169" x="2017.5" y="279.7188">request and build template</text><polygon fill="#181818" points="1348,309.7715,1338,313.7715,1348,317.7715" style="stroke:#181818;stroke-width:1.0;"/><line style="stroke:#181818;stroke-width:1.0;" x1="1342" x2="2866" y1="313.7715" y2="313.7715"/><text fill="#000000" font-family="sans-serif" font-size="13" lengthAdjust="spacing" textLength="78" x="2063" y="309.0293">return HTML</text><polygon fill="#181818" points="1158.5,339.082,1148.5,343.082,1158.5,347.082" style="stroke:#181818;stroke-width:1.0;"/><line style="stroke:#181818;stroke-width:1.0;" x1="1152.5" x2="1336" y1="343.082" y2="343.082"/><text fill="#000000" font-family="sans-serif" font-size="13" lengthAdjust="spacing" textLength="78" x="1203.25" y="338.3398">return HTML</text><polygon fill="#181818" points="56.5,368.3926,46.5,372.3926,56.5,376.3926" style="stroke:#181818;stroke-width:1.0;"/><line style="stroke:#181818;stroke-width:1.0;" x1="50.5" x2="1146.5" y1="372.3926" y2="372.3926"/><text fill="#000000" font-family="sans-serif" font-size="13" lengthAdjust="spacing" textLength="108" x="542.5" y="367.6504">render error page</text><polygon fill="#181818" points="1778,404.7031,1768,408.7031,1778,412.7031" style="stroke:#181818;stroke-width:1.0;"/><line style="stroke:#181818;stroke-width:1.0;" x1="1772" x2="3235" y1="408.7031" y2="408.7031"/><text fill="#000000" font-family="sans-serif" font-size="13" lengthAdjust="spacing" textLength="77" x="2463" y="403.9609">ok response</text><polygon fill="#181818" points="1348,434.0137,1338,438.0137,1348,442.0137" style="stroke:#181818;stroke-width:1.0;"/><line style="stroke:#181818;stroke-width:1.0;" x1="1342" x2="1766" y1="438.0137" y2="438.0137"/><text fill="#000000" font-family="sans-serif" font-size="13" lengthAdjust="spacing" textLength="96" x="1504" y="433.2715">resolve request</text><polygon fill="#181818" points="1548.5,463.3242,1558.5,467.3242,1548.5,471.3242" style="stroke:#181818;stroke-width:1.0;"/><line style="stroke:#181818;stroke-width:1.0;" x1="1337" x2="1554.5" y1="467.3242" y2="467.3242"/><text fill="#000000" font-family="sans-serif" font-size="13" lengthAdjust="spacing" textLength="167" x="1365.25" y="462.582">call for approval controller</text><polygon fill="#181818" points="1975.5,492.6348,1985.5,496.6348,1975.5,500.6348" style="stroke:#181818;stroke-width:1.0;"/><line style="stroke:#181818;stroke-width:1.0;" x1="1560.5" x2="1981.5" y1="496.6348" y2="496.6348"/><text fill="#000000" font-family="sans-serif" font-size="13" lengthAdjust="spacing" textLength="126" x="1711" y="491.8926">build request object</text><polygon fill="#181818" points="3224,521.9453,3234,525.9453,3224,529.9453" style="stroke:#181818;stroke-width:1.0;"/><line style="stroke:#181818;stroke-width:1.0;" x1="1987.5" x2="3230" y1="525.9453" y2="525.9453"/><text fill="#000000" font-family="sans-serif" font-size="13" lengthAdjust="spacing" textLength="138" x="2542.75" y="521.2031">send backend request</text><path d="M10,540.9453 L72,540.9453 L72,548.2559 L62,558.2559 L10,558.2559 L10,540.9453 " fill="#EEEEEE" style="stroke:#000000;stroke-width:1.5;"/><rect fill="none" height="193.1738" style="stroke:#000000;stroke-width:1.5;" width="3306.5" x="10" y="540.9453"/><text fill="#000000" font-family="sans-serif" font-size="13" font-weight="bold" lengthAdjust="spacing" textLength="17" x="25" y="554.5137">alt</text><text fill="#000000" font-family="sans-serif" font-size="11" font-weight="bold" lengthAdjust="spacing" textLength="145" x="87" y="553.5801">[Unable to view expenses]</text><polygon fill="#181818" points="1998.5,575.5664,1988.5,579.5664,1998.5,583.5664" style="stroke:#181818;stroke-width:1.0;"/><line style="stroke:#181818;stroke-width:1.0;stroke-dasharray:2.0,2.0;" x1="1992.5" x2="3235" y1="579.5664" y2="579.5664"/><text fill="#000000" font-family="sans-serif" font-size="13" lengthAdjust="spacing" textLength="91" x="2566.25" y="574.8242">Error response</text><polygon fill="#181818" points="1571.5,604.877,1561.5,608.877,1571.5,612.877" style="stroke:#181818;stroke-width:1.0;"/><line style="stroke:#181818;stroke-width:1.0;stroke-dasharray:2.0,2.0;" x1="1565.5" x2="1986.5" y1="608.877" y2="608.877"/><text fill="#000000" font-family="sans-serif" font-size="13" lengthAdjust="spacing" textLength="127" x="1710.5" y="604.1348">reject requestObject</text><polygon fill="#181818" points="2855,634.1875,2865,638.1875,2855,642.1875" style="stroke:#181818;stroke-width:1.0;"/><line style="stroke:#181818;stroke-width:1.0;" x1="1560.5" x2="2861" y1="638.1875" y2="638.1875"/><text fill="#000000" font-family="sans-serif" font-size="13" lengthAdjust="spacing" textLength="169" x="2129.25" y="633.4453">request and build template</text><polygon fill="#181818" points="1571.5,663.498,1561.5,667.498,1571.5,671.498" style="stroke:#181818;stroke-width:1.0;"/><line style="stroke:#181818;stroke-width:1.0;" x1="1565.5" x2="2866" y1="667.498" y2="667.498"/><text fill="#000000" font-family="sans-serif" font-size="13" lengthAdjust="spacing" textLength="78" x="2174.75" y="662.7559">return HTML</text><polygon fill="#181818" points="1158.5,692.8086,1148.5,696.8086,1158.5,700.8086" style="stroke:#181818;stroke-width:1.0;"/><line style="stroke:#181818;stroke-width:1.0;" x1="1152.5" x2="1559.5" y1="696.8086" y2="696.8086"/><text fill="#000000" font-family="sans-serif" font-size="13" lengthAdjust="spacing" textLength="78" x="1315" y="692.0664">return HTML</text><polygon fill="#181818" points="56.5,722.1191,46.5,726.1191,56.5,730.1191" style="stroke:#181818;stroke-width:1.0;"/><line style="stroke:#181818;stroke-width:1.0;" x1="50.5" x2="1146.5" y1="726.1191" y2="726.1191"/><text fill="#000000" font-family="sans-serif" font-size="13" lengthAdjust="spacing" textLength="108" x="542.5" y="721.377">render error page</text><polygon fill="#181818" points="1998.5,758.4297,1988.5,762.4297,1998.5,766.4297" style="stroke:#181818;stroke-width:1.0;"/><line style="stroke:#181818;stroke-width:1.0;" x1="1992.5" x2="3235" y1="762.4297" y2="762.4297"/><text fill="#000000" font-family="sans-serif" font-size="13" lengthAdjust="spacing" textLength="77" x="2573.25" y="757.6875">ok response</text><polygon fill="#181818" points="1571.5,787.7402,1561.5,791.7402,1571.5,795.7402" style="stroke:#181818;stroke-width:1.0;"/><line style="stroke:#181818;stroke-width:1.0;" x1="1565.5" x2="1986.5" y1="791.7402" y2="791.7402"/><text fill="#000000" font-family="sans-serif" font-size="13" lengthAdjust="spacing" textLength="96" x="1726" y="786.998">resolve request</text><polygon fill="#181818" points="2216,817.0508,2226,821.0508,2216,825.0508" style="stroke:#181818;stroke-width:1.0;"/><line style="stroke:#181818;stroke-width:1.0;" x1="1560.5" x2="2222" y1="821.0508" y2="821.0508"/><text fill="#000000" font-family="sans-serif" font-size="13" lengthAdjust="spacing" textLength="126" x="1831.25" y="816.3086">build request object</text><polygon fill="#181818" points="3224,846.3613,3234,850.3613,3224,854.3613" style="stroke:#181818;stroke-width:1.0;"/><line style="stroke:#181818;stroke-width:1.0;" x1="2228" x2="3230" y1="850.3613" y2="850.3613"/><text fill="#000000" font-family="sans-serif" font-size="13" lengthAdjust="spacing" textLength="138" x="2663" y="845.6191">send backend request</text><path d="M10,865.3613 L72,865.3613 L72,872.6719 L62,882.6719 L10,882.6719 L10,865.3613 " fill="#EEEEEE" style="stroke:#000000;stroke-width:1.5;"/><rect fill="none" height="193.1738" style="stroke:#000000;stroke-width:1.5;" width="3306.5" x="10" y="865.3613"/><text fill="#000000" font-family="sans-serif" font-size="13" font-weight="bold" lengthAdjust="spacing" textLength="17" x="25" y="878.9297">alt</text><text fill="#000000" font-family="sans-serif" font-size="11" font-weight="bold" lengthAdjust="spacing" textLength="145" x="87" y="877.9961">[Unable to view expenses]</text><polygon fill="#181818" points="2239,899.9824,2229,903.9824,2239,907.9824" style="stroke:#181818;stroke-width:1.0;"/><line style="stroke:#181818;stroke-width:1.0;stroke-dasharray:2.0,2.0;" x1="2233" x2="3235" y1="903.9824" y2="903.9824"/><text fill="#000000" font-family="sans-serif" font-size="13" lengthAdjust="spacing" textLength="91" x="2686.5" y="899.2402">Error response</text><polygon fill="#181818" points="1571.5,929.293,1561.5,933.293,1571.5,937.293" style="stroke:#181818;stroke-width:1.0;"/><line style="stroke:#181818;stroke-width:1.0;stroke-dasharray:2.0,2.0;" x1="1565.5" x2="2227" y1="933.293" y2="933.293"/><text fill="#000000" font-family="sans-serif" font-size="13" lengthAdjust="spacing" textLength="127" x="1830.75" y="928.5508">reject requestObject</text><polygon fill="#181818" points="2855,958.6035,2865,962.6035,2855,966.6035" style="stroke:#181818;stroke-width:1.0;"/><line style="stroke:#181818;stroke-width:1.0;" x1="1560.5" x2="2861" y1="962.6035" y2="962.6035"/><text fill="#000000" font-family="sans-serif" font-size="13" lengthAdjust="spacing" textLength="169" x="2129.25" y="957.8613">request and build template</text><polygon fill="#181818" points="1571.5,987.9141,1561.5,991.9141,1571.5,995.9141" style="stroke:#181818;stroke-width:1.0;"/><line style="stroke:#181818;stroke-width:1.0;" x1="1565.5" x2="2866" y1="991.9141" y2="991.9141"/><text fill="#000000" font-family="sans-serif" font-size="13" lengthAdjust="spacing" textLength="78" x="2174.75" y="987.1719">return HTML</text><polygon fill="#181818" points="1158.5,1017.2246,1148.5,1021.2246,1158.5,1025.2246" style="stroke:#181818;stroke-width:1.0;"/><line style="stroke:#181818;stroke-width:1.0;" x1="1152.5" x2="1559.5" y1="1021.2246" y2="1021.2246"/><text fill="#000000" font-family="sans-serif" font-size="13" lengthAdjust="spacing" textLength="78" x="1315" y="1016.4824">return HTML</text><polygon fill="#181818" points="56.5,1046.5352,46.5,1050.5352,56.5,1054.5352" style="stroke:#181818;stroke-width:1.0;"/><line style="stroke:#181818;stroke-width:1.0;" x1="50.5" x2="1146.5" y1="1050.5352" y2="1050.5352"/><text fill="#000000" font-family="sans-serif" font-size="13" lengthAdjust="spacing" textLength="108" x="542.5" y="1045.793">render error page</text><polygon fill="#181818" points="2239,1082.8457,2229,1086.8457,2239,1090.8457" style="stroke:#181818;stroke-width:1.0;"/><line style="stroke:#181818;stroke-width:1.0;" x1="2233" x2="3235" y1="1086.8457" y2="1086.8457"/><text fill="#000000" font-family="sans-serif" font-size="13" lengthAdjust="spacing" textLength="77" x="2693.5" y="1082.1035">ok response</text><polygon fill="#181818" points="1571.5,1112.1563,1561.5,1116.1563,1571.5,1120.1563" style="stroke:#181818;stroke-width:1.0;"/><line style="stroke:#181818;stroke-width:1.0;" x1="1565.5" x2="2227" y1="1116.1563" y2="1116.1563"/><text fill="#000000" font-family="sans-serif" font-size="13" lengthAdjust="spacing" textLength="96" x="1846.25" y="1111.4141">resolve request</text><polygon fill="#181818" points="2552,1141.4668,2562,1145.4668,2552,1149.4668" style="stroke:#181818;stroke-width:1.0;"/><line style="stroke:#181818;stroke-width:1.0;" x1="1337" x2="2558" y1="1145.4668" y2="1145.4668"/><text fill="#000000" font-family="sans-serif" font-size="13" lengthAdjust="spacing" textLength="169" x="1866" y="1140.7246">request and build template</text><polygon fill="#181818" points="1348,1170.7773,1338,1174.7773,1348,1178.7773" style="stroke:#181818;stroke-width:1.0;"/><line style="stroke:#181818;stroke-width:1.0;" x1="1342" x2="2563" y1="1174.7773" y2="1174.7773"/><text fill="#000000" font-family="sans-serif" font-size="13" lengthAdjust="spacing" textLength="78" x="1911.5" y="1170.0352">return HTML</text><polygon fill="#181818" points="745,1200.0879,735,1204.0879,745,1208.0879" style="stroke:#181818;stroke-width:1.0;"/><line style="stroke:#181818;stroke-width:1.0;" x1="739" x2="1336" y1="1204.0879" y2="1204.0879"/><text fill="#000000" font-family="sans-serif" font-size="13" lengthAdjust="spacing" textLength="78" x="996.5" y="1199.3457">return HTML</text><polygon fill="#181818" points="56.5,1229.3984,46.5,1233.3984,56.5,1237.3984" style="stroke:#181818;stroke-width:1.0;"/><line style="stroke:#181818;stroke-width:1.0;" x1="50.5" x2="733" y1="1233.3984" y2="1233.3984"/><text fill="#000000" font-family="sans-serif" font-size="13" lengthAdjust="spacing" textLength="80" x="349.75" y="1228.6563">render HTML</text><polygon fill="#181818" points="722,1258.709,732,1262.709,722,1266.709" style="stroke:#181818;stroke-width:1.0;"/><line style="stroke:#181818;stroke-width:1.0;" x1="45.5" x2="728" y1="1262.709" y2="1262.709"/><text fill="#000000" font-family="sans-serif" font-size="13" lengthAdjust="spacing" textLength="249" x="265.25" y="1257.9668">selects expenses and clicks edit button</text><polygon fill="#181818" points="1325,1288.0195,1335,1292.0195,1325,1296.0195" style="stroke:#181818;stroke-width:1.0;"/><line style="stroke:#181818;stroke-width:1.0;" x1="234.5" x2="1331" y1="1292.0195" y2="1292.0195"/><text fill="#000000" font-family="sans-serif" font-size="13" lengthAdjust="spacing" textLength="187" x="692.25" y="1287.2773">call expense record controller</text><polygon fill="#181818" points="1548.5,1317.3301,1558.5,1321.3301,1548.5,1325.3301" style="stroke:#181818;stroke-width:1.0;"/><line style="stroke:#181818;stroke-width:1.0;" x1="1337" x2="1554.5" y1="1321.3301" y2="1321.3301"/><text fill="#000000" font-family="sans-serif" font-size="13" lengthAdjust="spacing" textLength="167" x="1365.25" y="1316.5879">call for approval controller</text><polygon fill="#181818" points="3045.5,1346.6406,3055.5,1350.6406,3045.5,1354.6406" style="stroke:#181818;stroke-width:1.0;"/><line style="stroke:#181818;stroke-width:1.0;" x1="1560.5" x2="3051.5" y1="1350.6406" y2="1350.6406"/><text fill="#000000" font-family="sans-serif" font-size="13" lengthAdjust="spacing" textLength="95" x="2261.5" y="1345.8984">validate details</text><path d="M10,1365.6406 L72,1365.6406 L72,1372.9512 L62,1382.9512 L10,1382.9512 L10,1365.6406 " fill="#EEEEEE" style="stroke:#000000;stroke-width:1.5;"/><rect fill="none" height="163.8633" style="stroke:#000000;stroke-width:1.5;" width="3155.5" x="10" y="1365.6406"/><text fill="#000000" font-family="sans-serif" font-size="13" font-weight="bold" lengthAdjust="spacing" textLength="17" x="25" y="1379.209">alt</text><text fill="#000000" font-family="sans-serif" font-size="11" font-weight="bold" lengthAdjust="spacing" textLength="126" x="87" y="1378.2754">[No expenses selected]</text><polygon fill="#181818" points="1571.5,1400.2617,1561.5,1404.2617,1571.5,1408.2617" style="stroke:#181818;stroke-width:1.0;"/><line style="stroke:#181818;stroke-width:1.0;" x1="1565.5" x2="3056.5" y1="1404.2617" y2="1404.2617"/><text fill="#000000" font-family="sans-serif" font-size="13" lengthAdjust="spacing" textLength="137" x="2240.5" y="1399.5195">No expenses selected</text><polygon fill="#181818" points="2552,1429.5723,2562,1433.5723,2552,1437.5723" style="stroke:#181818;stroke-width:1.0;"/><line style="stroke:#181818;stroke-width:1.0;" x1="1560.5" x2="2558" y1="1433.5723" y2="1433.5723"/><text fill="#000000" font-family="sans-serif" font-size="13" lengthAdjust="spacing" textLength="169" x="1977.75" y="1428.8301">request and build template</text><polygon fill="#181818" points="1571.5,1458.8828,1561.5,1462.8828,1571.5,1466.8828" style="stroke:#181818;stroke-width:1.0;"/><line style="stroke:#181818;stroke-width:1.0;" x1="1565.5" x2="2563" y1="1462.8828" y2="1462.8828"/><text fill="#000000" font-family="sans-serif" font-size="13" lengthAdjust="spacing" textLength="78" x="2023.25" y="1458.1406">return HTML</text><polygon fill="#181818" points="745,1488.1934,735,1492.1934,745,1496.1934" style="stroke:#181818;stroke-width:1.0;"/><line style="stroke:#181818;stroke-width:1.0;" x1="739" x2="1559.5" y1="1492.1934" y2="1492.1934"/><text fill="#000000" font-family="sans-serif" font-size="13" lengthAdjust="spacing" textLength="112" x="1091.25" y="1487.4512">return error HTML</text><polygon fill="#181818" points="56.5,1517.5039,46.5,1521.5039,56.5,1525.5039" style="stroke:#181818;stroke-width:1.0;"/><line style="stroke:#181818;stroke-width:1.0;" x1="50.5" x2="733" y1="1521.5039" y2="1521.5039"/><text fill="#000000" font-family="sans-serif" font-size="13" lengthAdjust="spacing" textLength="133" x="323.25" y="1516.7617">render error message</text><polygon fill="#181818" points="1571.5,1553.8145,1561.5,1557.8145,1571.5,1561.8145" style="stroke:#181818;stroke-width:1.0;"/><line style="stroke:#181818;stroke-width:1.0;" x1="1565.5" x2="3056.5" y1="1557.8145" y2="1557.8145"/><text fill="#000000" font-family="sans-serif" font-size="13" lengthAdjust="spacing" textLength="127" x="2245.5" y="1553.0723">valid details entered</text><polygon fill="#181818" points="56.5,1583.125,46.5,1587.125,56.5,1591.125" style="stroke:#181818;stroke-width:1.0;"/><line style="stroke:#181818;stroke-width:1.0;" x1="50.5" x2="1559.5" y1="1587.125" y2="1587.125"/><text fill="#000000" font-family="sans-serif" font-size="13" lengthAdjust="spacing" textLength="252" x="677" y="1582.3828">Redirect to edit approved expenses flow</text><!--SRC=[hLLRJzim57xFh_0O4Y3rybwXIg5DKLbeM9eoxMbodKDnwzgPxPJnxtVYz1P8M3Nn4YN7vtpdzdtECq-1v59mkOBK-y8b4pbQ5Y11SzQU2yLMffC9Acs-5fvdLbncLDCrcTfN0SHOT2kEoF4H_Cv1ChW7O-W2VC4NSWtI4eOFq9w7RfOpdY4gyPbLQBguk21XDF134aUpP3ovhJZD49cdlhKWKuh83mXBhg-xormhtLvJYTz5Xcxk7DjqxzdlLu22Fnb80p4mfTFJKRfGnhMr2-psNCWaNyz1TtkPKcBtRYorkNcJzROSPw0nQ9SKYW_qSvqFeaaIHs4OnCIV34aSV9y5quH4DtV189asTp1Gqceb16Y4hDROOVkppX8B8bzn3S_s5OHGBnN4aT9-bccreQA2zuH3eTk3qz7kYib46z0R3Y_HV0dC8jRos3hqeyu2xENLHpYtO2kj6en2e4MD-TzWhgWoO0YMSh55MzRPEvaoDNXkKKbm_n3wIV31JX9OeruixE2FYVM6Hcys9fShbvHka7QeaoOA7MNuvMXakbl1leDmHO_6OHB4KqUjHpyS3_qaYcixc8B0VN4b7wdWATqhyyOVV0im-i3JIlGDPIlCTs1F6NKNpU99y9ECmkY7vtHEslrwBVS84vojI3a9iXsC8SN5vDL685AJ512C2h43sM6oe-hEj_Fo7yO3TBriG6hLiRbLkuiMEHiXVo0bLf4diEoPkEsJjEJLsPNdDTMBhTHhSDi82f7iXFXX6xKehLefDNOnatIE5pjsKRIytmJMVsAsMgtzHphlN3iExvmJLUozULMr8cozl_4HUS_5zx-37Z5E0-R0GIhJafreIxabyznQ9J-VbPzFZqsfOXZBBBTD-sgK_kaZnJrEr65WvGGXFTkF-hhTs4ACCzN5Jm8fuCPRjW97by2Jktx_0W00]--></g></svg>