<?xml version="1.0" encoding="us-ascii" standalone="no"?><svg xmlns="http://www.w3.org/2000/svg" xmlns:xlink="http://www.w3.org/1999/xlink" contentStyleType="text/css" height="1656px" preserveAspectRatio="none" style="width:3875px;height:1656px;background:#FFFFFF;" version="1.1" viewBox="0 0 3875 1656" width="3875px" zoomAndPan="magnify"><defs/><g><rect fill="none" height="163.8633" style="stroke:#000000;stroke-width:1.5;" width="3465" x="20" y="333.7715"/><rect fill="none" height="1062.1348" style="stroke:#000000;stroke-width:1.5;" width="3858" x="10" y="540.9453"/><rect fill="none" height="193.1738" style="stroke:#000000;stroke-width:1.5;" width="3838" x="20" y="814.6953"/><rect fill="none" height="163.8633" style="stroke:#000000;stroke-width:1.5;" width="3687" x="20" y="1256.3535"/><line style="stroke:#181818;stroke-width:0.5;stroke-dasharray:5.0,5.0;" x1="55" x2="55" y1="52.9766" y2="1649.3906"/><line style="stroke:#181818;stroke-width:0.5;stroke-dasharray:5.0,5.0;" x1="311" x2="311" y1="52.9766" y2="1649.3906"/><line style="stroke:#181818;stroke-width:0.5;stroke-dasharray:5.0,5.0;" x1="796" x2="796" y1="52.9766" y2="1649.3906"/><line style="stroke:#181818;stroke-width:0.5;stroke-dasharray:5.0,5.0;" x1="1361" x2="1361" y1="52.9766" y2="1649.3906"/><line style="stroke:#181818;stroke-width:0.5;stroke-dasharray:5.0,5.0;" x1="1782" x2="1782" y1="52.9766" y2="1649.3906"/><line style="stroke:#181818;stroke-width:0.5;stroke-dasharray:5.0,5.0;" x1="2003" x2="2003" y1="52.9766" y2="1649.3906"/><line style="stroke:#181818;stroke-width:0.5;stroke-dasharray:5.0,5.0;" x1="2212" x2="2212" y1="52.9766" y2="1649.3906"/><line style="stroke:#181818;stroke-width:0.5;stroke-dasharray:5.0,5.0;" x1="2523" x2="2523" y1="52.9766" y2="1649.3906"/><line style="stroke:#181818;stroke-width:0.5;stroke-dasharray:5.0,5.0;" x1="2928" x2="2928" y1="52.9766" y2="1649.3906"/><line style="stroke:#181818;stroke-width:0.5;stroke-dasharray:5.0,5.0;" x1="3210" x2="3210" y1="52.9766" y2="1649.3906"/><line style="stroke:#181818;stroke-width:0.5;stroke-dasharray:5.0,5.0;" x1="3387" x2="3387" y1="52.9766" y2="1649.3906"/><line style="stroke:#181818;stroke-width:0.5;stroke-dasharray:5.0,5.0;" x1="3591" x2="3591" y1="52.9766" y2="1649.3906"/><line style="stroke:#181818;stroke-width:0.5;stroke-dasharray:5.0,5.0;" x1="3777" x2="3777" y1="52.9766" y2="1649.3906"/><rect fill="#E2E2F0" height="30.4883" rx="2.5" ry="2.5" style="stroke:#181818;stroke-width:0.5;" width="51" x="30" y="21.4883"/><text fill="#000000" font-family="sans-serif" font-size="14" lengthAdjust="spacing" textLength="37" x="37" y="42.0234">Actor</text><rect fill="#E2E2F0" height="46.9766" rx="2.5" ry="2.5" style="stroke:#181818;stroke-width:0.5;" width="441" x="91" y="5"/><text fill="#000000" font-family="sans-serif" font-size="14" font-style="italic" lengthAdjust="spacing" textLength="427" x="98" y="25.5352">&#171;/trial-management/trials/:trialNumber/:locationCode/detail&#187;</text><text fill="#000000" font-family="sans-serif" font-size="14" lengthAdjust="spacing" textLength="103" x="260" y="42.0234">TrialDetailPage</text><rect fill="#E2E2F0" height="46.9766" rx="2.5" ry="2.5" style="stroke:#181818;stroke-width:0.5;" width="509" x="542" y="5"/><text fill="#000000" font-family="sans-serif" font-size="14" font-style="italic" lengthAdjust="spacing" textLength="495" x="549" y="25.5352">&#171;/trial-management/trials/:locationCode/:trialnumber/generate-panel&#187;</text><text fill="#000000" font-family="sans-serif" font-size="14" lengthAdjust="spacing" textLength="132" x="730.5" y="42.0234">GeneratePanelPage</text><rect fill="#E2E2F0" height="46.9766" rx="2.5" ry="2.5" style="stroke:#181818;stroke-width:0.5;" width="601" x="1061" y="5"/><text fill="#000000" font-family="sans-serif" font-size="14" font-style="italic" lengthAdjust="spacing" textLength="587" x="1068" y="25.5352">&#171;/trial-management/trials/:locationCode/:trialnumber/generate-panel/select-pools&#187;</text><text fill="#000000" font-family="sans-serif" font-size="14" lengthAdjust="spacing" textLength="110" x="1306.5" y="42.0234">SelectPoolsPage</text><rect fill="#FFFFE0" height="46.9766" rx="2.5" ry="2.5" style="stroke:#181818;stroke-width:0.5;" width="221" x="1672" y="5"/><text fill="#000000" font-family="sans-serif" font-size="14" font-style="italic" lengthAdjust="spacing" textLength="207" x="1679" y="25.5352">&#171;generate-panel.controller.js&#187;</text><text fill="#000000" font-family="sans-serif" font-size="14" lengthAdjust="spacing" textLength="169" x="1698" y="42.0234">GeneratePanelController</text><rect fill="#FFFFE0" height="46.9766" rx="2.5" ry="2.5" style="stroke:#181818;stroke-width:0.5;" width="201" x="1903" y="5"/><text fill="#000000" font-family="sans-serif" font-size="14" font-style="italic" lengthAdjust="spacing" textLength="187" x="1910" y="25.5352">&#171;generatePanelDAO.post()&#187;</text><text fill="#000000" font-family="sans-serif" font-size="14" lengthAdjust="spacing" textLength="130" x="1938.5" y="42.0234">GeneratePanelDAO</text><rect fill="#FFFFE0" height="46.9766" rx="2.5" ry="2.5" style="stroke:#181818;stroke-width:0.5;" width="196" x="2114" y="5"/><text fill="#000000" font-family="sans-serif" font-size="14" font-style="italic" lengthAdjust="spacing" textLength="182" x="2121" y="25.5352">&#171;avialableJurorsDAO.get()&#187;</text><text fill="#000000" font-family="sans-serif" font-size="14" lengthAdjust="spacing" textLength="134" x="2145" y="42.0234">AvailableJurorsDAO</text><rect fill="#E6E6FA" height="46.9766" rx="2.5" ry="2.5" style="stroke:#181818;stroke-width:0.5;" width="406" x="2320" y="5"/><text fill="#000000" font-family="sans-serif" font-size="14" font-style="italic" lengthAdjust="spacing" textLength="392" x="2327" y="25.5352">&#171;trial-management/generate-panel/generate-panel.njk&#187;</text><text fill="#000000" font-family="sans-serif" font-size="14" lengthAdjust="spacing" textLength="101" x="2472.5" y="42.0234">PanelTemplate</text><rect fill="#E6E6FA" height="46.9766" rx="2.5" ry="2.5" style="stroke:#181818;stroke-width:0.5;" width="384" x="2736" y="5"/><text fill="#000000" font-family="sans-serif" font-size="14" font-style="italic" lengthAdjust="spacing" textLength="370" x="2743" y="25.5352">&#171;trial-management/generate-panel/select-pools.njk&#187;</text><text fill="#000000" font-family="sans-serif" font-size="14" lengthAdjust="spacing" textLength="141" x="2857.5" y="42.0234">SelectPoolsTemplate</text><rect fill="#E6E6FA" height="46.9766" rx="2.5" ry="2.5" style="stroke:#181818;stroke-width:0.5;" width="160" x="3130" y="5"/><text fill="#000000" font-family="sans-serif" font-size="14" font-style="italic" lengthAdjust="spacing" textLength="146" x="3137" y="25.5352">&#171;_errors/generic.njk&#187;</text><text fill="#000000" font-family="sans-serif" font-size="14" lengthAdjust="spacing" textLength="99" x="3160.5" y="42.0234">ErrorTemplate</text><rect fill="#E2E2F0" height="30.4883" rx="2.5" ry="2.5" style="stroke:#181818;stroke-width:0.5;" width="175" x="3300" y="21.4883"/><text fill="#000000" font-family="sans-serif" font-size="14" lengthAdjust="spacing" textLength="161" x="3307" y="42.0234">GeneratePanelValidator</text><rect fill="#E2E2F0" height="30.4883" rx="2.5" ry="2.5" style="stroke:#181818;stroke-width:0.5;" width="212" x="3485" y="21.4883"/><text fill="#000000" font-family="sans-serif" font-size="14" lengthAdjust="spacing" textLength="198" x="3492" y="42.0234">GeneratePanelPoolsValidator</text><rect fill="#E2E2F0" height="30.4883" rx="2.5" ry="2.5" style="stroke:#181818;stroke-width:0.5;" width="141" x="3707" y="21.4883"/><text fill="#000000" font-family="sans-serif" font-size="14" lengthAdjust="spacing" textLength="127" x="3714" y="42.0234">BackendController</text><polygon fill="#181818" points="299.5,80.2871,309.5,84.2871,299.5,88.2871" style="stroke:#181818;stroke-width:1.0;"/><line style="stroke:#181818;stroke-width:1.0;" x1="55.5" x2="305.5" y1="84.2871" y2="84.2871"/><text fill="#000000" font-family="sans-serif" font-size="13" lengthAdjust="spacing" textLength="145" x="111" y="79.5449">Click 'Generate a Panel'</text><polygon fill="#181818" points="1770.5,109.5977,1780.5,113.5977,1770.5,117.5977" style="stroke:#181818;stroke-width:1.0;"/><line style="stroke:#181818;stroke-width:1.0;" x1="311.5" x2="1776.5" y1="113.5977" y2="113.5977"/><text fill="#000000" font-family="sans-serif" font-size="13" lengthAdjust="spacing" textLength="121" x="986.5" y="108.8555">call page controller</text><polygon fill="#181818" points="2511,138.9082,2521,142.9082,2511,146.9082" style="stroke:#181818;stroke-width:1.0;"/><line style="stroke:#181818;stroke-width:1.0;" x1="1782.5" x2="2517" y1="142.9082" y2="142.9082"/><text fill="#000000" font-family="sans-serif" font-size="13" lengthAdjust="spacing" textLength="169" x="2068.25" y="138.166">request and build template</text><polygon fill="#181818" points="1793.5,168.2188,1783.5,172.2188,1793.5,176.2188" style="stroke:#181818;stroke-width:1.0;"/><line style="stroke:#181818;stroke-width:1.0;" x1="1787.5" x2="2522" y1="172.2188" y2="172.2188"/><text fill="#000000" font-family="sans-serif" font-size="13" lengthAdjust="spacing" textLength="78" x="2113.75" y="167.4766">return HTML</text><polygon fill="#181818" points="807.5,197.5293,797.5,201.5293,807.5,205.5293" style="stroke:#181818;stroke-width:1.0;"/><line style="stroke:#181818;stroke-width:1.0;" x1="801.5" x2="1781.5" y1="201.5293" y2="201.5293"/><text fill="#000000" font-family="sans-serif" font-size="13" lengthAdjust="spacing" textLength="78" x="1250.5" y="196.7871">return HTML</text><polygon fill="#181818" points="66.5,226.8398,56.5,230.8398,66.5,234.8398" style="stroke:#181818;stroke-width:1.0;"/><line style="stroke:#181818;stroke-width:1.0;" x1="60.5" x2="310.5" y1="230.8398" y2="230.8398"/><text fill="#000000" font-family="sans-serif" font-size="13" lengthAdjust="spacing" textLength="80" x="143.5" y="226.0977">render HTML</text><polygon fill="#181818" points="784.5,256.1504,794.5,260.1504,784.5,264.1504" style="stroke:#181818;stroke-width:1.0;"/><line style="stroke:#181818;stroke-width:1.0;" x1="55.5" x2="790.5" y1="260.1504" y2="260.1504"/><text fill="#000000" font-family="sans-serif" font-size="13" lengthAdjust="spacing" textLength="124" x="364" y="255.4082">submit form details</text><polygon fill="#181818" points="1770.5,285.4609,1780.5,289.4609,1770.5,293.4609" style="stroke:#181818;stroke-width:1.0;"/><line style="stroke:#181818;stroke-width:1.0;" x1="796.5" x2="1776.5" y1="289.4609" y2="289.4609"/><text fill="#000000" font-family="sans-serif" font-size="13" lengthAdjust="spacing" textLength="66" x="1256.5" y="284.7188">POST form</text><polygon fill="#181818" points="3375.5,314.7715,3385.5,318.7715,3375.5,322.7715" style="stroke:#181818;stroke-width:1.0;"/><line style="stroke:#181818;stroke-width:1.0;" x1="1782.5" x2="3381.5" y1="318.7715" y2="318.7715"/><text fill="#000000" font-family="sans-serif" font-size="13" lengthAdjust="spacing" textLength="160" x="2505" y="314.0293">validate form submission</text><path d="M20,333.7715 L82,333.7715 L82,341.082 L72,351.082 L20,351.082 L20,333.7715 " fill="#EEEEEE" style="stroke:#000000;stroke-width:1.5;"/><rect fill="none" height="163.8633" style="stroke:#000000;stroke-width:1.5;" width="3465" x="20" y="333.7715"/><text fill="#000000" font-family="sans-serif" font-size="13" font-weight="bold" lengthAdjust="spacing" textLength="17" x="35" y="347.3398">alt</text><text fill="#000000" font-family="sans-serif" font-size="11" font-weight="bold" lengthAdjust="spacing" textLength="146" x="97" y="346.4063">[Form missing selections]</text><polygon fill="#181818" points="1793.5,368.3926,1783.5,372.3926,1793.5,376.3926" style="stroke:#181818;stroke-width:1.0;"/><line style="stroke:#181818;stroke-width:1.0;" x1="1787.5" x2="3386.5" y1="372.3926" y2="372.3926"/><text fill="#000000" font-family="sans-serif" font-size="13" lengthAdjust="spacing" textLength="76" x="2547" y="367.6504">invalid form</text><polygon fill="#181818" points="2511,397.7031,2521,401.7031,2511,405.7031" style="stroke:#181818;stroke-width:1.0;"/><line style="stroke:#181818;stroke-width:1.0;" x1="1782.5" x2="2517" y1="401.7031" y2="401.7031"/><text fill="#000000" font-family="sans-serif" font-size="13" lengthAdjust="spacing" textLength="169" x="2068.25" y="396.9609">request and build template</text><polygon fill="#181818" points="1793.5,427.0137,1783.5,431.0137,1793.5,435.0137" style="stroke:#181818;stroke-width:1.0;"/><line style="stroke:#181818;stroke-width:1.0;" x1="1787.5" x2="2522" y1="431.0137" y2="431.0137"/><text fill="#000000" font-family="sans-serif" font-size="13" lengthAdjust="spacing" textLength="78" x="2113.75" y="426.2715">return HTML</text><polygon fill="#181818" points="807.5,456.3242,797.5,460.3242,807.5,464.3242" style="stroke:#181818;stroke-width:1.0;"/><line style="stroke:#181818;stroke-width:1.0;" x1="801.5" x2="1781.5" y1="460.3242" y2="460.3242"/><text fill="#000000" font-family="sans-serif" font-size="13" lengthAdjust="spacing" textLength="112" x="1233.5" y="455.582">return error HTML</text><polygon fill="#181818" points="66.5,485.6348,56.5,489.6348,66.5,493.6348" style="stroke:#181818;stroke-width:1.0;"/><line style="stroke:#181818;stroke-width:1.0;" x1="60.5" x2="795.5" y1="489.6348" y2="489.6348"/><text fill="#000000" font-family="sans-serif" font-size="13" lengthAdjust="spacing" textLength="133" x="359.5" y="484.8926">render error message</text><polygon fill="#181818" points="1793.5,521.9453,1783.5,525.9453,1793.5,529.9453" style="stroke:#181818;stroke-width:1.0;"/><line style="stroke:#181818;stroke-width:1.0;" x1="1787.5" x2="3386.5" y1="525.9453" y2="525.9453"/><text fill="#000000" font-family="sans-serif" font-size="13" lengthAdjust="spacing" textLength="141" x="2514.5" y="521.2031">valid form submission</text><path d="M10,540.9453 L72,540.9453 L72,548.2559 L62,558.2559 L10,558.2559 L10,540.9453 " fill="#EEEEEE" style="stroke:#000000;stroke-width:1.5;"/><rect fill="none" height="1062.1348" style="stroke:#000000;stroke-width:1.5;" width="3858" x="10" y="540.9453"/><text fill="#000000" font-family="sans-serif" font-size="13" font-weight="bold" lengthAdjust="spacing" textLength="17" x="25" y="554.5137">alt</text><text fill="#000000" font-family="sans-serif" font-size="11" font-weight="bold" lengthAdjust="spacing" textLength="113" x="87" y="553.5801">[All available pools]</text><polygon fill="#181818" points="1991.5,575.5664,2001.5,579.5664,1991.5,583.5664" style="stroke:#181818;stroke-width:1.0;"/><line style="stroke:#181818;stroke-width:1.0;" x1="1782.5" x2="1997.5" y1="579.5664" y2="579.5664"/><text fill="#000000" font-family="sans-serif" font-size="13" lengthAdjust="spacing" textLength="126" x="1830" y="574.8242">build request object</text><polygon fill="#181818" points="3765.5,604.877,3775.5,608.877,3765.5,612.877" style="stroke:#181818;stroke-width:1.0;"/><line style="stroke:#181818;stroke-width:1.0;" x1="2003.5" x2="3771.5" y1="608.877" y2="608.877"/><text fill="#000000" font-family="sans-serif" font-size="13" lengthAdjust="spacing" textLength="138" x="2821.5" y="604.1348">send backend request</text><polygon fill="#181818" points="2014.5,634.1875,2004.5,638.1875,2014.5,642.1875" style="stroke:#181818;stroke-width:1.0;"/><line style="stroke:#181818;stroke-width:1.0;" x1="2008.5" x2="3776.5" y1="638.1875" y2="638.1875"/><text fill="#000000" font-family="sans-serif" font-size="13" lengthAdjust="spacing" textLength="77" x="2852" y="633.4453">ok response</text><polygon fill="#181818" points="1793.5,663.498,1783.5,667.498,1793.5,671.498" style="stroke:#181818;stroke-width:1.0;"/><line style="stroke:#181818;stroke-width:1.0;" x1="1787.5" x2="2002.5" y1="667.498" y2="667.498"/><text fill="#000000" font-family="sans-serif" font-size="13" lengthAdjust="spacing" textLength="96" x="1845" y="662.7559">resolve request</text><polygon fill="#181818" points="322.5,692.8086,312.5,696.8086,322.5,700.8086" style="stroke:#181818;stroke-width:1.0;"/><line style="stroke:#181818;stroke-width:1.0;" x1="316.5" x2="1781.5" y1="696.8086" y2="696.8086"/><text fill="#000000" font-family="sans-serif" font-size="13" lengthAdjust="spacing" textLength="140" x="977" y="692.0664">redirect to trial details</text><line style="stroke:#000000;stroke-width:1.0;stroke-dasharray:2.0,2.0;" x1="10" x2="3868" y1="705.8086" y2="705.8086"/><text fill="#000000" font-family="sans-serif" font-size="11" font-weight="bold" lengthAdjust="spacing" textLength="231" x="15" y="716.4434">[Jurors from one or more specific pools]</text><polygon fill="#181818" points="2200,737.0742,2210,741.0742,2200,745.0742" style="stroke:#181818;stroke-width:1.0;"/><line style="stroke:#181818;stroke-width:1.0;" x1="1782.5" x2="2206" y1="741.0742" y2="741.0742"/><text fill="#000000" font-family="sans-serif" font-size="13" lengthAdjust="spacing" textLength="126" x="1934.25" y="736.332">build request object</text><polygon fill="#181818" points="3765.5,766.3848,3775.5,770.3848,3765.5,774.3848" style="stroke:#181818;stroke-width:1.0;"/><line style="stroke:#181818;stroke-width:1.0;" x1="2212" x2="3771.5" y1="770.3848" y2="770.3848"/><text fill="#000000" font-family="sans-serif" font-size="13" lengthAdjust="spacing" textLength="138" x="2925.75" y="765.6426">send backend request</text><polygon fill="#181818" points="2223,795.6953,2213,799.6953,2223,803.6953" style="stroke:#181818;stroke-width:1.0;"/><line style="stroke:#181818;stroke-width:1.0;" x1="2217" x2="3776.5" y1="799.6953" y2="799.6953"/><text fill="#000000" font-family="sans-serif" font-size="13" lengthAdjust="spacing" textLength="77" x="2956.25" y="794.9531">ok response</text><path d="M20,814.6953 L82,814.6953 L82,822.0059 L72,832.0059 L20,832.0059 L20,814.6953 " fill="#EEEEEE" style="stroke:#000000;stroke-width:1.5;"/><rect fill="none" height="193.1738" style="stroke:#000000;stroke-width:1.5;" width="3838" x="20" y="814.6953"/><text fill="#000000" font-family="sans-serif" font-size="13" font-weight="bold" lengthAdjust="spacing" textLength="17" x="35" y="828.2637">alt</text><text fill="#000000" font-family="sans-serif" font-size="11" font-weight="bold" lengthAdjust="spacing" textLength="162" x="97" y="827.3301">[Available jurors API failure]</text><polygon fill="#181818" points="2223,849.3164,2213,853.3164,2223,857.3164" style="stroke:#181818;stroke-width:1.0;"/><line style="stroke:#181818;stroke-width:1.0;stroke-dasharray:2.0,2.0;" x1="2217" x2="3776.5" y1="853.3164" y2="853.3164"/><text fill="#000000" font-family="sans-serif" font-size="13" lengthAdjust="spacing" textLength="91" x="2949.25" y="848.5742">error response</text><polygon fill="#181818" points="1793.5,878.627,1783.5,882.627,1793.5,886.627" style="stroke:#181818;stroke-width:1.0;"/><line style="stroke:#181818;stroke-width:1.0;stroke-dasharray:2.0,2.0;" x1="1787.5" x2="2211" y1="882.627" y2="882.627"/><text fill="#000000" font-family="sans-serif" font-size="13" lengthAdjust="spacing" textLength="127" x="1933.75" y="877.8848">reject requestObject</text><polygon fill="#181818" points="3198,907.9375,3208,911.9375,3198,915.9375" style="stroke:#181818;stroke-width:1.0;"/><line style="stroke:#181818;stroke-width:1.0;" x1="1782.5" x2="3204" y1="911.9375" y2="911.9375"/><text fill="#000000" font-family="sans-serif" font-size="13" lengthAdjust="spacing" textLength="169" x="2411.75" y="907.1953">request and build template</text><polygon fill="#181818" points="1793.5,937.248,1783.5,941.248,1793.5,945.248" style="stroke:#181818;stroke-width:1.0;"/><line style="stroke:#181818;stroke-width:1.0;" x1="1787.5" x2="3209" y1="941.248" y2="941.248"/><text fill="#000000" font-family="sans-serif" font-size="13" lengthAdjust="spacing" textLength="78" x="2457.25" y="936.5059">return HTML</text><polygon fill="#181818" points="3198,966.5586,3208,970.5586,3198,974.5586" style="stroke:#181818;stroke-width:1.0;"/><line style="stroke:#181818;stroke-width:1.0;" x1="1782.5" x2="3204" y1="970.5586" y2="970.5586"/><text fill="#000000" font-family="sans-serif" font-size="13" lengthAdjust="spacing" textLength="78" x="2457.25" y="965.8164">return HTML</text><polygon fill="#181818" points="66.5,995.8691,56.5,999.8691,66.5,1003.8691" style="stroke:#181818;stroke-width:1.0;"/><line style="stroke:#181818;stroke-width:1.0;" x1="60.5" x2="3209" y1="999.8691" y2="999.8691"/><text fill="#000000" font-family="sans-serif" font-size="13" lengthAdjust="spacing" textLength="108" x="1578.75" y="995.127">render error page</text><polygon fill="#181818" points="1793.5,1032.1797,1783.5,1036.1797,1793.5,1040.1797" style="stroke:#181818;stroke-width:1.0;"/><line style="stroke:#181818;stroke-width:1.0;" x1="1787.5" x2="2211" y1="1036.1797" y2="1036.1797"/><text fill="#000000" font-family="sans-serif" font-size="13" lengthAdjust="spacing" textLength="96" x="1949.25" y="1031.4375">resolve request</text><polygon fill="#181818" points="2916,1061.4902,2926,1065.4902,2916,1069.4902" style="stroke:#181818;stroke-width:1.0;"/><line style="stroke:#181818;stroke-width:1.0;" x1="1782.5" x2="2922" y1="1065.4902" y2="1065.4902"/><text fill="#000000" font-family="sans-serif" font-size="13" lengthAdjust="spacing" textLength="169" x="2270.75" y="1060.748">request and build template</text><polygon fill="#181818" points="1793.5,1090.8008,1783.5,1094.8008,1793.5,1098.8008" style="stroke:#181818;stroke-width:1.0;"/><line style="stroke:#181818;stroke-width:1.0;" x1="1787.5" x2="2927" y1="1094.8008" y2="1094.8008"/><text fill="#000000" font-family="sans-serif" font-size="13" lengthAdjust="spacing" textLength="78" x="2316.25" y="1090.0586">return HTML</text><polygon fill="#181818" points="1372.5,1120.1113,1362.5,1124.1113,1372.5,1128.1113" style="stroke:#181818;stroke-width:1.0;"/><line style="stroke:#181818;stroke-width:1.0;" x1="1366.5" x2="1781.5" y1="1124.1113" y2="1124.1113"/><text fill="#000000" font-family="sans-serif" font-size="13" lengthAdjust="spacing" textLength="78" x="1533" y="1119.3691">return HTML</text><polygon fill="#181818" points="66.5,1149.4219,56.5,1153.4219,66.5,1157.4219" style="stroke:#181818;stroke-width:1.0;"/><line style="stroke:#181818;stroke-width:1.0;" x1="60.5" x2="1360.5" y1="1153.4219" y2="1153.4219"/><text fill="#000000" font-family="sans-serif" font-size="13" lengthAdjust="spacing" textLength="80" x="668.5" y="1148.6797">render HTML</text><polygon fill="#181818" points="1349.5,1178.7324,1359.5,1182.7324,1349.5,1186.7324" style="stroke:#181818;stroke-width:1.0;"/><line style="stroke:#181818;stroke-width:1.0;" x1="55.5" x2="1355.5" y1="1182.7324" y2="1182.7324"/><text fill="#000000" font-family="sans-serif" font-size="13" lengthAdjust="spacing" textLength="124" x="646.5" y="1177.9902">submit form details</text><polygon fill="#181818" points="1770.5,1208.043,1780.5,1212.043,1770.5,1216.043" style="stroke:#181818;stroke-width:1.0;"/><line style="stroke:#181818;stroke-width:1.0;" x1="1361.5" x2="1776.5" y1="1212.043" y2="1212.043"/><text fill="#000000" font-family="sans-serif" font-size="13" lengthAdjust="spacing" textLength="66" x="1539" y="1207.3008">POST form</text><polygon fill="#181818" points="3579,1237.3535,3589,1241.3535,3579,1245.3535" style="stroke:#181818;stroke-width:1.0;"/><line style="stroke:#181818;stroke-width:1.0;" x1="1782.5" x2="3585" y1="1241.3535" y2="1241.3535"/><text fill="#000000" font-family="sans-serif" font-size="13" lengthAdjust="spacing" textLength="160" x="2606.75" y="1236.6113">validate form submission</text><path d="M20,1256.3535 L82,1256.3535 L82,1263.6641 L72,1273.6641 L20,1273.6641 L20,1256.3535 " fill="#EEEEEE" style="stroke:#000000;stroke-width:1.5;"/><rect fill="none" height="163.8633" style="stroke:#000000;stroke-width:1.5;" width="3687" x="20" y="1256.3535"/><text fill="#000000" font-family="sans-serif" font-size="13" font-weight="bold" lengthAdjust="spacing" textLength="17" x="35" y="1269.9219">alt</text><text fill="#000000" font-family="sans-serif" font-size="11" font-weight="bold" lengthAdjust="spacing" textLength="146" x="97" y="1268.9883">[Form missing selections]</text><polygon fill="#181818" points="1793.5,1290.9746,1783.5,1294.9746,1793.5,1298.9746" style="stroke:#181818;stroke-width:1.0;"/><line style="stroke:#181818;stroke-width:1.0;" x1="1787.5" x2="3590" y1="1294.9746" y2="1294.9746"/><text fill="#000000" font-family="sans-serif" font-size="13" lengthAdjust="spacing" textLength="76" x="2648.75" y="1290.2324">invalid form</text><polygon fill="#181818" points="2511,1320.2852,2521,1324.2852,2511,1328.2852" style="stroke:#181818;stroke-width:1.0;"/><line style="stroke:#181818;stroke-width:1.0;" x1="1782.5" x2="2517" y1="1324.2852" y2="1324.2852"/><text fill="#000000" font-family="sans-serif" font-size="13" lengthAdjust="spacing" textLength="169" x="2068.25" y="1319.543">request and build template</text><polygon fill="#181818" points="1793.5,1349.5957,1783.5,1353.5957,1793.5,1357.5957" style="stroke:#181818;stroke-width:1.0;"/><line style="stroke:#181818;stroke-width:1.0;" x1="1787.5" x2="2522" y1="1353.5957" y2="1353.5957"/><text fill="#000000" font-family="sans-serif" font-size="13" lengthAdjust="spacing" textLength="78" x="2113.75" y="1348.8535">return HTML</text><polygon fill="#181818" points="1372.5,1378.9063,1362.5,1382.9063,1372.5,1386.9063" style="stroke:#181818;stroke-width:1.0;"/><line style="stroke:#181818;stroke-width:1.0;" x1="1366.5" x2="1781.5" y1="1382.9063" y2="1382.9063"/><text fill="#000000" font-family="sans-serif" font-size="13" lengthAdjust="spacing" textLength="112" x="1516" y="1378.1641">return error HTML</text><polygon fill="#181818" points="66.5,1408.2168,56.5,1412.2168,66.5,1416.2168" style="stroke:#181818;stroke-width:1.0;"/><line style="stroke:#181818;stroke-width:1.0;" x1="60.5" x2="1360.5" y1="1412.2168" y2="1412.2168"/><text fill="#000000" font-family="sans-serif" font-size="13" lengthAdjust="spacing" textLength="133" x="642" y="1407.4746">render error message</text><polygon fill="#181818" points="1793.5,1444.5273,1783.5,1448.5273,1793.5,1452.5273" style="stroke:#181818;stroke-width:1.0;"/><line style="stroke:#181818;stroke-width:1.0;" x1="1787.5" x2="3590" y1="1448.5273" y2="1448.5273"/><text fill="#000000" font-family="sans-serif" font-size="13" lengthAdjust="spacing" textLength="141" x="2616.25" y="1443.7852">valid form submission</text><polygon fill="#181818" points="1991.5,1473.8379,2001.5,1477.8379,1991.5,1481.8379" style="stroke:#181818;stroke-width:1.0;"/><line style="stroke:#181818;stroke-width:1.0;" x1="1782.5" x2="1997.5" y1="1477.8379" y2="1477.8379"/><text fill="#000000" font-family="sans-serif" font-size="13" lengthAdjust="spacing" textLength="126" x="1830" y="1473.0957">build request object</text><polygon fill="#181818" points="3765.5,1503.1484,3775.5,1507.1484,3765.5,1511.1484" style="stroke:#181818;stroke-width:1.0;"/><line style="stroke:#181818;stroke-width:1.0;" x1="2003.5" x2="3771.5" y1="1507.1484" y2="1507.1484"/><text fill="#000000" font-family="sans-serif" font-size="13" lengthAdjust="spacing" textLength="138" x="2821.5" y="1502.4063">send backend request</text><polygon fill="#181818" points="2014.5,1532.459,2004.5,1536.459,2014.5,1540.459" style="stroke:#181818;stroke-width:1.0;"/><line style="stroke:#181818;stroke-width:1.0;" x1="2008.5" x2="3776.5" y1="1536.459" y2="1536.459"/><text fill="#000000" font-family="sans-serif" font-size="13" lengthAdjust="spacing" textLength="77" x="2852" y="1531.7168">ok response</text><polygon fill="#181818" points="1793.5,1561.7695,1783.5,1565.7695,1793.5,1569.7695" style="stroke:#181818;stroke-width:1.0;"/><line style="stroke:#181818;stroke-width:1.0;" x1="1787.5" x2="2002.5" y1="1565.7695" y2="1565.7695"/><text fill="#000000" font-family="sans-serif" font-size="13" lengthAdjust="spacing" textLength="96" x="1845" y="1561.0273">resolve request</text><polygon fill="#181818" points="322.5,1591.0801,312.5,1595.0801,322.5,1599.0801" style="stroke:#181818;stroke-width:1.0;"/><line style="stroke:#181818;stroke-width:1.0;" x1="316.5" x2="1781.5" y1="1595.0801" y2="1595.0801"/><text fill="#000000" font-family="sans-serif" font-size="13" lengthAdjust="spacing" textLength="140" x="977" y="1590.3379">redirect to trial details</text><polygon fill="#181818" points="66.5,1627.3906,56.5,1631.3906,66.5,1635.3906" style="stroke:#181818;stroke-width:1.0;"/><line style="stroke:#181818;stroke-width:1.0;" x1="60.5" x2="310.5" y1="1631.3906" y2="1631.3906"/><text fill="#000000" font-family="sans-serif" font-size="13" lengthAdjust="spacing" textLength="80" x="143.5" y="1626.6484">render HTML</text><!--SRC=[xLTDR-Cs4BthLmpGWvE3dOzcYrOmWYgEaarMZbrR2T1JGSkCLmb5kXJbOlzzXwHaIxBaRD2W1Ge1GIoHmtcSDyD7JVeQypMH986v-iOef4h6aSeI1awwcw9_PfH7T4pJbAoen-8LJoXN4E4_AXq7pLGSnMk2Orwa10xrUZq89YClWDdaCRnxkAqOXJ8cx9eg4hCfUWIIsY4O3a-KVkWdXEE4Hh43wObhVX-oP47bYSj4H5Gi-4WiwSdIUBgyh63SKaubKNHAEDsYt0YP70If-BMGt4AkSd_zjNPO0vjJHYCr5OAb1PHv-H2iazHuxw-rHmGsv8uc3-5i4WJ-3Bo7QvZvlptwyn0cL_V-A9otCp4IN4d169LwawMtuR2AEeYsSuCNX8KVWdZrLVrE6HD_jVk_zYRQiVxPUInc1ckHggFZGywy3QQIB1YzpwIGQUwkDegkoGRfgjWDLhJ1jo4hzCVJm0lzAYzcLo5DrWotQ59M6HWEzp9NoqkDCFxogj4PsL2-n7FHKY0LnCh0suZbIZY8vqjafOna1X3X3weVKkiuZlQS6BvkxeBGdyrDPJrvmTsr5qvc1uhgYR1uIV3WQwJjou7ZgFTVMLGTiRkuyaPVVDp1hjGh7gz8z8fxtfMmupX6VQ1_cSk92oCMHw_GAz21s2Jt7CTQe6df3BWG4SPWhO_mhloTaWNQLwl41QdbCLL0-18MMSoMeFB9yi9Xls6XoYI7p-4uSAmmzQkRAHlOoD2YY4oQVDd9NTp6ZmjfjaXY1S_wpQfZQY7gyKudA1hQh1RaBZakREmpjUwCwpH5tN8SmfH5D2Dy1RO-SIvr0AhHbpt6tFYqm1N3z_5RnpZ4CC0XZisfA0otNETivbHRcyJUWWwEEKvxYBi0znZpiCH88MXWpl8U2Lhtt3pSWW2nU45oqLHFeitU0T29fvebEr4ip5VW1fjMY5UqIzUOidq-xIvmMh0DBRdBB-izAfUnn1s24c24R5jwbAKKSkb-bY81mIbeBeN4RuurZUBdE6fXeYxzhQpK3T_7qDuDypriuPz9w3QPBtQnDxs3PnpBfBPgSjxitLPO2Q2Ma7u36vBg-8j89WKRTHgj_hznckhvtoqgdoCeBfC3ScMYBexHpatf76cHHJDpZEguJL5MQt1VDIetwVjKOszfEOxyE-vWhDj8hN5Dd8lvOfSj-bn0jKjqOypVfzIsKDkrkf6J0vBzZqJxVRBzHWegojsUYgfujzHTCw5DRFwlrLfJS_1xurTZKcuHFxPxx7h53-iLkqQmQ0Ixrk-jrkzVxE-wHgvhvBf6hclakaQkQ-IwHgvhvBf6xZzivAOCFyCUnm5igDIymDdW_FJyOl3ZKVWrWnkwWBDFSFQBUt7gddw2st48UlhOERgT1fjpI4Kc8mhBMFT_YqnNuh5pZnSZp3AkueIweD-Eml4npFrY47o-YQKmlQ1p_pIsHl1PgFbQA6FyqqN_AjOVq18t1azZvve-ampBt-UHM6Bfk_0OtlH_TWB2LncM0melnwiS0UGt5swl_WO0]--></g></svg>