<?xml version="1.0" encoding="us-ascii" standalone="no"?><svg xmlns="http://www.w3.org/2000/svg" xmlns:xlink="http://www.w3.org/1999/xlink" contentStyleType="text/css" height="2823px" preserveAspectRatio="none" style="width:3908px;height:2823px;background:#FFFFFF;" version="1.1" viewBox="0 0 3908 2823" width="3908px" zoomAndPan="magnify"><defs/><g><rect fill="none" height="193.1738" style="stroke:#000000;stroke-width:1.5;" width="3872" x="20" y="187.2188"/><rect fill="none" height="812.6953" style="stroke:#000000;stroke-width:1.5;" width="3892" x="10" y="570.2559"/><rect fill="none" height="163.8633" style="stroke:#000000;stroke-width:1.5;" width="2929" x="20" y="858.3613"/><rect fill="none" height="193.1738" style="stroke:#000000;stroke-width:1.5;" width="3872" x="20" y="1124.1563"/><rect fill="none" height="812.6953" style="stroke:#000000;stroke-width:1.5;" width="3892" x="10" y="1396.9512"/><rect fill="none" height="163.8633" style="stroke:#000000;stroke-width:1.5;" width="3232" x="20" y="1685.0566"/><rect fill="none" height="193.1738" style="stroke:#000000;stroke-width:1.5;" width="3872" x="20" y="1950.8516"/><rect fill="none" height="576.2109" style="stroke:#000000;stroke-width:1.5;" width="3892" x="10" y="2223.6465"/><rect fill="none" height="193.1738" style="stroke:#000000;stroke-width:1.5;" width="3872" x="20" y="2541.0625"/><line style="stroke:#181818;stroke-width:0.5;stroke-dasharray:5.0,5.0;" x1="55" x2="55" y1="52.9766" y2="2816.8574"/><line style="stroke:#181818;stroke-width:0.5;stroke-dasharray:5.0,5.0;" x1="241" x2="241" y1="52.9766" y2="2816.8574"/><line style="stroke:#181818;stroke-width:0.5;stroke-dasharray:5.0,5.0;" x1="506" x2="506" y1="52.9766" y2="2816.8574"/><line style="stroke:#181818;stroke-width:0.5;stroke-dasharray:5.0,5.0;" x1="784" x2="784" y1="52.9766" y2="2816.8574"/><line style="stroke:#181818;stroke-width:0.5;stroke-dasharray:5.0,5.0;" x1="1070" x2="1070" y1="52.9766" y2="2816.8574"/><line style="stroke:#181818;stroke-width:0.5;stroke-dasharray:5.0,5.0;" x1="1289" x2="1289" y1="52.9766" y2="2816.8574"/><line style="stroke:#181818;stroke-width:0.5;stroke-dasharray:5.0,5.0;" x1="1446" x2="1446" y1="52.9766" y2="2816.8574"/><line style="stroke:#181818;stroke-width:0.5;stroke-dasharray:5.0,5.0;" x1="1629" x2="1629" y1="52.9766" y2="2816.8574"/><line style="stroke:#181818;stroke-width:0.5;stroke-dasharray:5.0,5.0;" x1="1806" x2="1806" y1="52.9766" y2="2816.8574"/><line style="stroke:#181818;stroke-width:0.5;stroke-dasharray:5.0,5.0;" x1="1969" x2="1969" y1="52.9766" y2="2816.8574"/><line style="stroke:#181818;stroke-width:0.5;stroke-dasharray:5.0,5.0;" x1="2134" x2="2134" y1="52.9766" y2="2816.8574"/><line style="stroke:#181818;stroke-width:0.5;stroke-dasharray:5.0,5.0;" x1="2289" x2="2289" y1="52.9766" y2="2816.8574"/><line style="stroke:#181818;stroke-width:0.5;stroke-dasharray:5.0,5.0;" x1="2503" x2="2503" y1="52.9766" y2="2816.8574"/><line style="stroke:#181818;stroke-width:0.5;stroke-dasharray:5.0,5.0;" x1="2792" x2="2792" y1="52.9766" y2="2816.8574"/><line style="stroke:#181818;stroke-width:0.5;stroke-dasharray:5.0,5.0;" x1="3095" x2="3095" y1="52.9766" y2="2816.8574"/><line style="stroke:#181818;stroke-width:0.5;stroke-dasharray:5.0,5.0;" x1="3406" x2="3406" y1="52.9766" y2="2816.8574"/><line style="stroke:#181818;stroke-width:0.5;stroke-dasharray:5.0,5.0;" x1="3651" x2="3651" y1="52.9766" y2="2816.8574"/><line style="stroke:#181818;stroke-width:0.5;stroke-dasharray:5.0,5.0;" x1="3811" x2="3811" y1="52.9766" y2="2816.8574"/><rect fill="#E2E2F0" height="30.4883" rx="2.5" ry="2.5" style="stroke:#181818;stroke-width:0.5;" width="51" x="30" y="21.4883"/><text fill="#000000" font-family="sans-serif" font-size="14" lengthAdjust="spacing" textLength="37" x="37" y="42.0234">Actor</text><rect fill="#E2E2F0" height="46.9766" rx="2.5" ry="2.5" style="stroke:#181818;stroke-width:0.5;" width="241" x="121" y="5"/><text fill="#000000" font-family="sans-serif" font-size="14" font-style="italic" lengthAdjust="spacing" textLength="227" x="128" y="25.5352">&#171;/administration/judges/judges&#187;</text><text fill="#000000" font-family="sans-serif" font-size="14" lengthAdjust="spacing" textLength="102" x="190.5" y="42.0234">JudgesListPage</text><rect fill="#E2E2F0" height="46.9766" rx="2.5" ry="2.5" style="stroke:#181818;stroke-width:0.5;" width="268" x="372" y="5"/><text fill="#000000" font-family="sans-serif" font-size="14" font-style="italic" lengthAdjust="spacing" textLength="254" x="379" y="25.5352">&#171;/administration/judges/add-judge&#187;</text><text fill="#000000" font-family="sans-serif" font-size="14" lengthAdjust="spacing" textLength="100" x="456" y="42.0234">AddJudgePage</text><rect fill="#E2E2F0" height="46.9766" rx="2.5" ry="2.5" style="stroke:#181818;stroke-width:0.5;" width="268" x="650" y="5"/><text fill="#000000" font-family="sans-serif" font-size="14" font-style="italic" lengthAdjust="spacing" textLength="254" x="657" y="25.5352">&#171;/administration/judges/edit-judge&#187;</text><text fill="#000000" font-family="sans-serif" font-size="14" lengthAdjust="spacing" textLength="98" x="735" y="42.0234">EditJudgePage</text><rect fill="#E2E2F0" height="46.9766" rx="2.5" ry="2.5" style="stroke:#181818;stroke-width:0.5;" width="284" x="928" y="5"/><text fill="#000000" font-family="sans-serif" font-size="14" font-style="italic" lengthAdjust="spacing" textLength="270" x="935" y="25.5352">&#171;/administration/judges/delete-judge&#187;</text><text fill="#000000" font-family="sans-serif" font-size="14" lengthAdjust="spacing" textLength="115" x="1012.5" y="42.0234">DeleteJudgePage</text><rect fill="#E2E2F0" height="46.9766" rx="2.5" ry="2.5" style="stroke:#181818;stroke-width:0.5;" width="134" x="1222" y="5"/><text fill="#000000" font-family="sans-serif" font-size="14" font-style="italic" lengthAdjust="spacing" textLength="56" x="1261" y="25.5352">&#171;/error&#187;</text><text fill="#000000" font-family="sans-serif" font-size="14" lengthAdjust="spacing" textLength="120" x="1229" y="42.0234">GenericErrorPage</text><rect fill="#FFFFE0" height="46.9766" rx="2.5" ry="2.5" style="stroke:#181818;stroke-width:0.5;" width="160" x="1366" y="5"/><text fill="#000000" font-family="sans-serif" font-size="14" font-style="italic" lengthAdjust="spacing" textLength="146" x="1373" y="25.5352">&#171;judges.controller.js&#187;</text><text fill="#000000" font-family="sans-serif" font-size="14" lengthAdjust="spacing" textLength="116" x="1388" y="42.0234">JudgesController</text><rect fill="#FFFFE0" height="46.9766" rx="2.5" ry="2.5" style="stroke:#181818;stroke-width:0.5;" width="187" x="1536" y="5"/><text fill="#000000" font-family="sans-serif" font-size="14" font-style="italic" lengthAdjust="spacing" textLength="173" x="1543" y="25.5352">&#171;judgesDAO.getJudges()&#187;</text><text fill="#000000" font-family="sans-serif" font-size="14" lengthAdjust="spacing" textLength="113" x="1573" y="42.0234">JudgesListObject</text><rect fill="#FFFFE0" height="46.9766" rx="2.5" ry="2.5" style="stroke:#181818;stroke-width:0.5;" width="146" x="1733" y="5"/><text fill="#000000" font-family="sans-serif" font-size="14" font-style="italic" lengthAdjust="spacing" textLength="128" x="1742" y="25.5352">&#171;judgesDAO.put()&#187;</text><text fill="#000000" font-family="sans-serif" font-size="14" lengthAdjust="spacing" textLength="132" x="1740" y="42.0234">UpdateJudgeObject</text><rect fill="#FFFFE0" height="46.9766" rx="2.5" ry="2.5" style="stroke:#181818;stroke-width:0.5;" width="161" x="1889" y="5"/><text fill="#000000" font-family="sans-serif" font-size="14" font-style="italic" lengthAdjust="spacing" textLength="147" x="1896" y="25.5352">&#171;judgesDAO.delete()&#187;</text><text fill="#000000" font-family="sans-serif" font-size="14" lengthAdjust="spacing" textLength="126" x="1906.5" y="42.0234">DeleteJudgeObject</text><rect fill="#FFFFE0" height="46.9766" rx="2.5" ry="2.5" style="stroke:#181818;stroke-width:0.5;" width="149" x="2060" y="5"/><text fill="#000000" font-family="sans-serif" font-size="14" font-style="italic" lengthAdjust="spacing" textLength="135" x="2067" y="25.5352">&#171;judgesDAO.post()&#187;</text><text fill="#000000" font-family="sans-serif" font-size="14" lengthAdjust="spacing" textLength="111" x="2079" y="42.0234">AddJudgeObject</text><rect fill="#FFD700" height="30.4883" rx="2.5" ry="2.5" style="stroke:#181818;stroke-width:0.5;" width="141" x="2219" y="21.4883"/><text fill="#000000" font-family="sans-serif" font-size="14" lengthAdjust="spacing" textLength="127" x="2226" y="42.0234">EditJudgeValidator</text><rect fill="#E2E2F0" height="46.9766" rx="2.5" ry="2.5" style="stroke:#181818;stroke-width:0.5;" width="266" x="2370" y="5"/><text fill="#000000" font-family="sans-serif" font-size="14" font-style="italic" lengthAdjust="spacing" textLength="252" x="2377" y="25.5352">&#171;/administration/judges/judges.njk&#187;</text><text fill="#000000" font-family="sans-serif" font-size="14" lengthAdjust="spacing" textLength="133" x="2436.5" y="42.0234">JudgesListTemplate</text><rect fill="#E2E2F0" height="46.9766" rx="2.5" ry="2.5" style="stroke:#181818;stroke-width:0.5;" width="293" x="2646" y="5"/><text fill="#000000" font-family="sans-serif" font-size="14" font-style="italic" lengthAdjust="spacing" textLength="279" x="2653" y="25.5352">&#171;/administration/judges/add-judge.njk&#187;</text><text fill="#000000" font-family="sans-serif" font-size="14" lengthAdjust="spacing" textLength="131" x="2727" y="42.0234">AddJudgeTemplate</text><rect fill="#E2E2F0" height="46.9766" rx="2.5" ry="2.5" style="stroke:#181818;stroke-width:0.5;" width="293" x="2949" y="5"/><text fill="#000000" font-family="sans-serif" font-size="14" font-style="italic" lengthAdjust="spacing" textLength="279" x="2956" y="25.5352">&#171;/administration/judges/edit-judge.njk&#187;</text><text fill="#000000" font-family="sans-serif" font-size="14" lengthAdjust="spacing" textLength="129" x="3031" y="42.0234">EditJudgeTemplate</text><rect fill="#E2E2F0" height="46.9766" rx="2.5" ry="2.5" style="stroke:#181818;stroke-width:0.5;" width="309" x="3252" y="5"/><text fill="#000000" font-family="sans-serif" font-size="14" font-style="italic" lengthAdjust="spacing" textLength="295" x="3259" y="25.5352">&#171;/administration/judges/delete-judge.njk&#187;</text><text fill="#000000" font-family="sans-serif" font-size="14" lengthAdjust="spacing" textLength="146" x="3333.5" y="42.0234">DeleteJudgeTemplate</text><rect fill="#E6E6FA" height="46.9766" rx="2.5" ry="2.5" style="stroke:#181818;stroke-width:0.5;" width="160" x="3571" y="5"/><text fill="#000000" font-family="sans-serif" font-size="14" font-style="italic" lengthAdjust="spacing" textLength="146" x="3578" y="25.5352">&#171;_errors/generic.njk&#187;</text><text fill="#000000" font-family="sans-serif" font-size="14" lengthAdjust="spacing" textLength="99" x="3601.5" y="42.0234">ErrorTemplate</text><rect fill="#E2E2F0" height="30.4883" rx="2.5" ry="2.5" style="stroke:#181818;stroke-width:0.5;" width="141" x="3741" y="21.4883"/><text fill="#000000" font-family="sans-serif" font-size="14" lengthAdjust="spacing" textLength="127" x="3748" y="42.0234">BackendController</text><polygon fill="#181818" points="229.5,80.2871,239.5,84.2871,229.5,88.2871" style="stroke:#181818;stroke-width:1.0;"/><line style="stroke:#181818;stroke-width:1.0;" x1="55.5" x2="235.5" y1="84.2871" y2="84.2871"/><text fill="#000000" font-family="sans-serif" font-size="13" lengthAdjust="spacing" textLength="100" x="98.5" y="79.5449">click judges tab</text><polygon fill="#181818" points="1434,109.5977,1444,113.5977,1434,117.5977" style="stroke:#181818;stroke-width:1.0;"/><line style="stroke:#181818;stroke-width:1.0;" x1="241.5" x2="1440" y1="113.5977" y2="113.5977"/><text fill="#000000" font-family="sans-serif" font-size="13" lengthAdjust="spacing" textLength="133" x="777.25" y="108.8555">call judges controller</text><polygon fill="#181818" points="1617.5,138.9082,1627.5,142.9082,1617.5,146.9082" style="stroke:#181818;stroke-width:1.0;"/><line style="stroke:#181818;stroke-width:1.0;" x1="1446" x2="1623.5" y1="142.9082" y2="142.9082"/><text fill="#000000" font-family="sans-serif" font-size="13" lengthAdjust="spacing" textLength="126" x="1474.75" y="138.166">build request object</text><polygon fill="#181818" points="3799.5,168.2188,3809.5,172.2188,3799.5,176.2188" style="stroke:#181818;stroke-width:1.0;"/><line style="stroke:#181818;stroke-width:1.0;" x1="1629.5" x2="3805.5" y1="172.2188" y2="172.2188"/><text fill="#000000" font-family="sans-serif" font-size="13" lengthAdjust="spacing" textLength="138" x="2651.5" y="167.4766">send backend request</text><path d="M20,187.2188 L82,187.2188 L82,194.5293 L72,204.5293 L20,204.5293 L20,187.2188 " fill="#EEEEEE" style="stroke:#000000;stroke-width:1.5;"/><rect fill="none" height="193.1738" style="stroke:#000000;stroke-width:1.5;" width="3872" x="20" y="187.2188"/><text fill="#000000" font-family="sans-serif" font-size="13" font-weight="bold" lengthAdjust="spacing" textLength="17" x="35" y="200.7871">alt</text><text fill="#000000" font-family="sans-serif" font-size="11" font-weight="bold" lengthAdjust="spacing" textLength="129" x="97" y="199.8535">[Failed to fetch judges]</text><polygon fill="#181818" points="1640.5,221.8398,1630.5,225.8398,1640.5,229.8398" style="stroke:#181818;stroke-width:1.0;"/><line style="stroke:#181818;stroke-width:1.0;stroke-dasharray:2.0,2.0;" x1="1634.5" x2="3810.5" y1="225.8398" y2="225.8398"/><text fill="#000000" font-family="sans-serif" font-size="13" lengthAdjust="spacing" textLength="91" x="2675" y="221.0977">Error response</text><polygon fill="#181818" points="1457,251.1504,1447,255.1504,1457,259.1504" style="stroke:#181818;stroke-width:1.0;"/><line style="stroke:#181818;stroke-width:1.0;stroke-dasharray:2.0,2.0;" x1="1451" x2="1628.5" y1="255.1504" y2="255.1504"/><text fill="#000000" font-family="sans-serif" font-size="13" lengthAdjust="spacing" textLength="127" x="1474.25" y="250.4082">reject requestObject</text><polygon fill="#181818" points="3639,280.4609,3649,284.4609,3639,288.4609" style="stroke:#181818;stroke-width:1.0;"/><line style="stroke:#181818;stroke-width:1.0;" x1="1446" x2="3645" y1="284.4609" y2="284.4609"/><text fill="#000000" font-family="sans-serif" font-size="13" lengthAdjust="spacing" textLength="169" x="2464" y="279.7188">request and build template</text><polygon fill="#181818" points="1457,309.7715,1447,313.7715,1457,317.7715" style="stroke:#181818;stroke-width:1.0;"/><line style="stroke:#181818;stroke-width:1.0;" x1="1451" x2="3650" y1="313.7715" y2="313.7715"/><text fill="#000000" font-family="sans-serif" font-size="13" lengthAdjust="spacing" textLength="78" x="2509.5" y="309.0293">return HTML</text><polygon fill="#181818" points="1300,339.082,1290,343.082,1300,347.082" style="stroke:#181818;stroke-width:1.0;"/><line style="stroke:#181818;stroke-width:1.0;" x1="1294" x2="1445" y1="343.082" y2="343.082"/><text fill="#000000" font-family="sans-serif" font-size="13" lengthAdjust="spacing" textLength="78" x="1328.5" y="338.3398">return HTML</text><polygon fill="#181818" points="66.5,368.3926,56.5,372.3926,66.5,376.3926" style="stroke:#181818;stroke-width:1.0;"/><line style="stroke:#181818;stroke-width:1.0;" x1="60.5" x2="1288" y1="372.3926" y2="372.3926"/><text fill="#000000" font-family="sans-serif" font-size="13" lengthAdjust="spacing" textLength="108" x="618.25" y="367.6504">render error page</text><polygon fill="#181818" points="1640.5,404.7031,1630.5,408.7031,1640.5,412.7031" style="stroke:#181818;stroke-width:1.0;"/><line style="stroke:#181818;stroke-width:1.0;" x1="1634.5" x2="3810.5" y1="408.7031" y2="408.7031"/><text fill="#000000" font-family="sans-serif" font-size="13" lengthAdjust="spacing" textLength="77" x="2682" y="403.9609">ok response</text><polygon fill="#181818" points="1457,434.0137,1447,438.0137,1457,442.0137" style="stroke:#181818;stroke-width:1.0;"/><line style="stroke:#181818;stroke-width:1.0;" x1="1451" x2="1628.5" y1="438.0137" y2="438.0137"/><text fill="#000000" font-family="sans-serif" font-size="13" lengthAdjust="spacing" textLength="96" x="1489.75" y="433.2715">resolve request</text><polygon fill="#181818" points="2491,463.3242,2501,467.3242,2491,471.3242" style="stroke:#181818;stroke-width:1.0;"/><line style="stroke:#181818;stroke-width:1.0;" x1="1446" x2="2497" y1="467.3242" y2="467.3242"/><text fill="#000000" font-family="sans-serif" font-size="13" lengthAdjust="spacing" textLength="169" x="1890" y="462.582">request and build template</text><polygon fill="#181818" points="1457,492.6348,1447,496.6348,1457,500.6348" style="stroke:#181818;stroke-width:1.0;"/><line style="stroke:#181818;stroke-width:1.0;" x1="1451" x2="2502" y1="496.6348" y2="496.6348"/><text fill="#000000" font-family="sans-serif" font-size="13" lengthAdjust="spacing" textLength="78" x="1935.5" y="491.8926">return HTML</text><polygon fill="#181818" points="252.5,521.9453,242.5,525.9453,252.5,529.9453" style="stroke:#181818;stroke-width:1.0;"/><line style="stroke:#181818;stroke-width:1.0;" x1="246.5" x2="1445" y1="525.9453" y2="525.9453"/><text fill="#000000" font-family="sans-serif" font-size="13" lengthAdjust="spacing" textLength="78" x="804.75" y="521.2031">return HTML</text><polygon fill="#181818" points="66.5,551.2559,56.5,555.2559,66.5,559.2559" style="stroke:#181818;stroke-width:1.0;"/><line style="stroke:#181818;stroke-width:1.0;" x1="60.5" x2="240.5" y1="555.2559" y2="555.2559"/><text fill="#000000" font-family="sans-serif" font-size="13" lengthAdjust="spacing" textLength="80" x="108.5" y="550.5137">render HTML</text><path d="M10,570.2559 L72,570.2559 L72,577.5664 L62,587.5664 L10,587.5664 L10,570.2559 " fill="#EEEEEE" style="stroke:#000000;stroke-width:1.5;"/><rect fill="none" height="812.6953" style="stroke:#000000;stroke-width:1.5;" width="3892" x="10" y="570.2559"/><text fill="#000000" font-family="sans-serif" font-size="13" font-weight="bold" lengthAdjust="spacing" textLength="17" x="25" y="583.8242">alt</text><text fill="#000000" font-family="sans-serif" font-size="11" font-weight="bold" lengthAdjust="spacing" textLength="75" x="87" y="582.8906">[Add a judge]</text><polygon fill="#181818" points="229.5,604.877,239.5,608.877,229.5,612.877" style="stroke:#181818;stroke-width:1.0;"/><line style="stroke:#181818;stroke-width:1.0;" x1="55.5" x2="235.5" y1="608.877" y2="608.877"/><text fill="#000000" font-family="sans-serif" font-size="13" lengthAdjust="spacing" textLength="125" x="86" y="604.1348">click add new judge</text><polygon fill="#181818" points="1434,634.1875,1444,638.1875,1434,642.1875" style="stroke:#181818;stroke-width:1.0;"/><line style="stroke:#181818;stroke-width:1.0;" x1="241.5" x2="1440" y1="638.1875" y2="638.1875"/><text fill="#000000" font-family="sans-serif" font-size="13" lengthAdjust="spacing" textLength="133" x="777.25" y="633.4453">call judges controller</text><polygon fill="#181818" points="2780.5,663.498,2790.5,667.498,2780.5,671.498" style="stroke:#181818;stroke-width:1.0;"/><line style="stroke:#181818;stroke-width:1.0;" x1="1446" x2="2786.5" y1="667.498" y2="667.498"/><text fill="#000000" font-family="sans-serif" font-size="13" lengthAdjust="spacing" textLength="169" x="2034.75" y="662.7559">request and build template</text><polygon fill="#181818" points="1457,692.8086,1447,696.8086,1457,700.8086" style="stroke:#181818;stroke-width:1.0;"/><line style="stroke:#181818;stroke-width:1.0;" x1="1451" x2="2791.5" y1="696.8086" y2="696.8086"/><text fill="#000000" font-family="sans-serif" font-size="13" lengthAdjust="spacing" textLength="78" x="2080.25" y="692.0664">return HTML</text><polygon fill="#181818" points="517,722.1191,507,726.1191,517,730.1191" style="stroke:#181818;stroke-width:1.0;"/><line style="stroke:#181818;stroke-width:1.0;" x1="511" x2="1445" y1="726.1191" y2="726.1191"/><text fill="#000000" font-family="sans-serif" font-size="13" lengthAdjust="spacing" textLength="78" x="937" y="721.377">return HTML</text><polygon fill="#181818" points="66.5,751.4297,56.5,755.4297,66.5,759.4297" style="stroke:#181818;stroke-width:1.0;"/><line style="stroke:#181818;stroke-width:1.0;" x1="60.5" x2="505" y1="755.4297" y2="755.4297"/><text fill="#000000" font-family="sans-serif" font-size="13" lengthAdjust="spacing" textLength="80" x="240.75" y="750.6875">render HTML</text><polygon fill="#181818" points="494,780.7402,504,784.7402,494,788.7402" style="stroke:#181818;stroke-width:1.0;"/><line style="stroke:#181818;stroke-width:1.0;" x1="55.5" x2="500" y1="784.7402" y2="784.7402"/><text fill="#000000" font-family="sans-serif" font-size="13" lengthAdjust="spacing" textLength="178" x="191.75" y="779.998">add details and click submit</text><polygon fill="#181818" points="1434,810.0508,1444,814.0508,1434,818.0508" style="stroke:#181818;stroke-width:1.0;"/><line style="stroke:#181818;stroke-width:1.0;" x1="506" x2="1440" y1="814.0508" y2="814.0508"/><text fill="#000000" font-family="sans-serif" font-size="13" lengthAdjust="spacing" textLength="133" x="909.5" y="809.3086">call judges controller</text><polygon fill="#181818" points="2277.5,839.3613,2287.5,843.3613,2277.5,847.3613" style="stroke:#181818;stroke-width:1.0;"/><line style="stroke:#181818;stroke-width:1.0;" x1="1446" x2="2283.5" y1="843.3613" y2="843.3613"/><text fill="#000000" font-family="sans-serif" font-size="13" lengthAdjust="spacing" textLength="95" x="1820.25" y="838.6191">validate details</text><path d="M20,858.3613 L82,858.3613 L82,865.6719 L72,875.6719 L20,875.6719 L20,858.3613 " fill="#EEEEEE" style="stroke:#000000;stroke-width:1.5;"/><rect fill="none" height="163.8633" style="stroke:#000000;stroke-width:1.5;" width="2929" x="20" y="858.3613"/><text fill="#000000" font-family="sans-serif" font-size="13" font-weight="bold" lengthAdjust="spacing" textLength="17" x="35" y="871.9297">alt</text><text fill="#000000" font-family="sans-serif" font-size="11" font-weight="bold" lengthAdjust="spacing" textLength="80" x="97" y="870.9961">[Invalid input]</text><polygon fill="#181818" points="1457,892.9824,1447,896.9824,1457,900.9824" style="stroke:#181818;stroke-width:1.0;"/><line style="stroke:#181818;stroke-width:1.0;" x1="1451" x2="2288.5" y1="896.9824" y2="896.9824"/><text fill="#000000" font-family="sans-serif" font-size="13" lengthAdjust="spacing" textLength="79" x="1828.25" y="892.2402">Invalid input</text><polygon fill="#181818" points="2780.5,922.293,2790.5,926.293,2780.5,930.293" style="stroke:#181818;stroke-width:1.0;"/><line style="stroke:#181818;stroke-width:1.0;" x1="1446" x2="2786.5" y1="926.293" y2="926.293"/><text fill="#000000" font-family="sans-serif" font-size="13" lengthAdjust="spacing" textLength="169" x="2034.75" y="921.5508">request and build template</text><polygon fill="#181818" points="1457,951.6035,1447,955.6035,1457,959.6035" style="stroke:#181818;stroke-width:1.0;"/><line style="stroke:#181818;stroke-width:1.0;" x1="1451" x2="2791.5" y1="955.6035" y2="955.6035"/><text fill="#000000" font-family="sans-serif" font-size="13" lengthAdjust="spacing" textLength="78" x="2080.25" y="950.8613">return HTML</text><polygon fill="#181818" points="517,980.9141,507,984.9141,517,988.9141" style="stroke:#181818;stroke-width:1.0;"/><line style="stroke:#181818;stroke-width:1.0;" x1="511" x2="1445" y1="984.9141" y2="984.9141"/><text fill="#000000" font-family="sans-serif" font-size="13" lengthAdjust="spacing" textLength="112" x="920" y="980.1719">return error HTML</text><polygon fill="#181818" points="66.5,1010.2246,56.5,1014.2246,66.5,1018.2246" style="stroke:#181818;stroke-width:1.0;"/><line style="stroke:#181818;stroke-width:1.0;" x1="60.5" x2="505" y1="1014.2246" y2="1014.2246"/><text fill="#000000" font-family="sans-serif" font-size="13" lengthAdjust="spacing" textLength="133" x="214.25" y="1009.4824">render error message</text><polygon fill="#181818" points="1457,1046.5352,1447,1050.5352,1457,1054.5352" style="stroke:#181818;stroke-width:1.0;"/><line style="stroke:#181818;stroke-width:1.0;" x1="1451" x2="2288.5" y1="1050.5352" y2="1050.5352"/><text fill="#000000" font-family="sans-serif" font-size="13" lengthAdjust="spacing" textLength="127" x="1804.25" y="1045.793">valid details entered</text><polygon fill="#181818" points="2122.5,1075.8457,2132.5,1079.8457,2122.5,1083.8457" style="stroke:#181818;stroke-width:1.0;"/><line style="stroke:#181818;stroke-width:1.0;" x1="1446" x2="2128.5" y1="1079.8457" y2="1079.8457"/><text fill="#000000" font-family="sans-serif" font-size="13" lengthAdjust="spacing" textLength="126" x="1727.25" y="1075.1035">build request object</text><polygon fill="#181818" points="3799.5,1105.1563,3809.5,1109.1563,3799.5,1113.1563" style="stroke:#181818;stroke-width:1.0;"/><line style="stroke:#181818;stroke-width:1.0;" x1="2134.5" x2="3805.5" y1="1109.1563" y2="1109.1563"/><text fill="#000000" font-family="sans-serif" font-size="13" lengthAdjust="spacing" textLength="138" x="2904" y="1104.4141">send backend request</text><path d="M20,1124.1563 L82,1124.1563 L82,1131.4668 L72,1141.4668 L20,1141.4668 L20,1124.1563 " fill="#EEEEEE" style="stroke:#000000;stroke-width:1.5;"/><rect fill="none" height="193.1738" style="stroke:#000000;stroke-width:1.5;" width="3872" x="20" y="1124.1563"/><text fill="#000000" font-family="sans-serif" font-size="13" font-weight="bold" lengthAdjust="spacing" textLength="17" x="35" y="1137.7246">alt</text><text fill="#000000" font-family="sans-serif" font-size="11" font-weight="bold" lengthAdjust="spacing" textLength="151" x="97" y="1136.791">[Failed to add a new judge]</text><polygon fill="#181818" points="2145.5,1158.7773,2135.5,1162.7773,2145.5,1166.7773" style="stroke:#181818;stroke-width:1.0;"/><line style="stroke:#181818;stroke-width:1.0;stroke-dasharray:2.0,2.0;" x1="2139.5" x2="3810.5" y1="1162.7773" y2="1162.7773"/><text fill="#000000" font-family="sans-serif" font-size="13" lengthAdjust="spacing" textLength="91" x="2927.5" y="1158.0352">Error response</text><polygon fill="#181818" points="1457,1188.0879,1447,1192.0879,1457,1196.0879" style="stroke:#181818;stroke-width:1.0;"/><line style="stroke:#181818;stroke-width:1.0;stroke-dasharray:2.0,2.0;" x1="1451" x2="2133.5" y1="1192.0879" y2="1192.0879"/><text fill="#000000" font-family="sans-serif" font-size="13" lengthAdjust="spacing" textLength="127" x="1726.75" y="1187.3457">reject requestObject</text><polygon fill="#181818" points="3639,1217.3984,3649,1221.3984,3639,1225.3984" style="stroke:#181818;stroke-width:1.0;"/><line style="stroke:#181818;stroke-width:1.0;" x1="1446" x2="3645" y1="1221.3984" y2="1221.3984"/><text fill="#000000" font-family="sans-serif" font-size="13" lengthAdjust="spacing" textLength="169" x="2464" y="1216.6563">request and build template</text><polygon fill="#181818" points="1457,1246.709,1447,1250.709,1457,1254.709" style="stroke:#181818;stroke-width:1.0;"/><line style="stroke:#181818;stroke-width:1.0;" x1="1451" x2="3650" y1="1250.709" y2="1250.709"/><text fill="#000000" font-family="sans-serif" font-size="13" lengthAdjust="spacing" textLength="78" x="2509.5" y="1245.9668">return HTML</text><polygon fill="#181818" points="1300,1276.0195,1290,1280.0195,1300,1284.0195" style="stroke:#181818;stroke-width:1.0;"/><line style="stroke:#181818;stroke-width:1.0;" x1="1294" x2="1445" y1="1280.0195" y2="1280.0195"/><text fill="#000000" font-family="sans-serif" font-size="13" lengthAdjust="spacing" textLength="78" x="1328.5" y="1275.2773">return HTML</text><polygon fill="#181818" points="66.5,1305.3301,56.5,1309.3301,66.5,1313.3301" style="stroke:#181818;stroke-width:1.0;"/><line style="stroke:#181818;stroke-width:1.0;" x1="60.5" x2="1288" y1="1309.3301" y2="1309.3301"/><text fill="#000000" font-family="sans-serif" font-size="13" lengthAdjust="spacing" textLength="108" x="618.25" y="1304.5879">render error page</text><polygon fill="#181818" points="2145.5,1341.6406,2135.5,1345.6406,2145.5,1349.6406" style="stroke:#181818;stroke-width:1.0;"/><line style="stroke:#181818;stroke-width:1.0;" x1="2139.5" x2="3810.5" y1="1345.6406" y2="1345.6406"/><text fill="#000000" font-family="sans-serif" font-size="13" lengthAdjust="spacing" textLength="77" x="2934.5" y="1340.8984">ok response</text><polygon fill="#181818" points="1457,1370.9512,1447,1374.9512,1457,1378.9512" style="stroke:#181818;stroke-width:1.0;"/><line style="stroke:#181818;stroke-width:1.0;" x1="1451" x2="2133.5" y1="1374.9512" y2="1374.9512"/><text fill="#000000" font-family="sans-serif" font-size="13" lengthAdjust="spacing" textLength="96" x="1742.25" y="1370.209">resolve request</text><path d="M10,1396.9512 L72,1396.9512 L72,1404.2617 L62,1414.2617 L10,1414.2617 L10,1396.9512 " fill="#EEEEEE" style="stroke:#000000;stroke-width:1.5;"/><rect fill="none" height="812.6953" style="stroke:#000000;stroke-width:1.5;" width="3892" x="10" y="1396.9512"/><text fill="#000000" font-family="sans-serif" font-size="13" font-weight="bold" lengthAdjust="spacing" textLength="17" x="25" y="1410.5195">alt</text><text fill="#000000" font-family="sans-serif" font-size="11" font-weight="bold" lengthAdjust="spacing" textLength="128" x="87" y="1409.5859">[Update judges details]</text><polygon fill="#181818" points="229.5,1431.5723,239.5,1435.5723,229.5,1439.5723" style="stroke:#181818;stroke-width:1.0;"/><line style="stroke:#181818;stroke-width:1.0;" x1="55.5" x2="235.5" y1="1435.5723" y2="1435.5723"/><text fill="#000000" font-family="sans-serif" font-size="13" lengthAdjust="spacing" textLength="162" x="67.5" y="1430.8301">click update judge details</text><polygon fill="#181818" points="1434,1460.8828,1444,1464.8828,1434,1468.8828" style="stroke:#181818;stroke-width:1.0;"/><line style="stroke:#181818;stroke-width:1.0;" x1="241.5" x2="1440" y1="1464.8828" y2="1464.8828"/><text fill="#000000" font-family="sans-serif" font-size="13" lengthAdjust="spacing" textLength="133" x="777.25" y="1460.1406">call judges controller</text><polygon fill="#181818" points="3083.5,1490.1934,3093.5,1494.1934,3083.5,1498.1934" style="stroke:#181818;stroke-width:1.0;"/><line style="stroke:#181818;stroke-width:1.0;" x1="1446" x2="3089.5" y1="1494.1934" y2="1494.1934"/><text fill="#000000" font-family="sans-serif" font-size="13" lengthAdjust="spacing" textLength="169" x="2186.25" y="1489.4512">request and build template</text><polygon fill="#181818" points="1457,1519.5039,1447,1523.5039,1457,1527.5039" style="stroke:#181818;stroke-width:1.0;"/><line style="stroke:#181818;stroke-width:1.0;" x1="1451" x2="3094.5" y1="1523.5039" y2="1523.5039"/><text fill="#000000" font-family="sans-serif" font-size="13" lengthAdjust="spacing" textLength="78" x="2231.75" y="1518.7617">return HTML</text><polygon fill="#181818" points="795,1548.8145,785,1552.8145,795,1556.8145" style="stroke:#181818;stroke-width:1.0;"/><line style="stroke:#181818;stroke-width:1.0;" x1="789" x2="1445" y1="1552.8145" y2="1552.8145"/><text fill="#000000" font-family="sans-serif" font-size="13" lengthAdjust="spacing" textLength="78" x="1076" y="1548.0723">return HTML</text><polygon fill="#181818" points="66.5,1578.125,56.5,1582.125,66.5,1586.125" style="stroke:#181818;stroke-width:1.0;"/><line style="stroke:#181818;stroke-width:1.0;" x1="60.5" x2="783" y1="1582.125" y2="1582.125"/><text fill="#000000" font-family="sans-serif" font-size="13" lengthAdjust="spacing" textLength="80" x="379.75" y="1577.3828">render HTML</text><polygon fill="#181818" points="772,1607.4355,782,1611.4355,772,1615.4355" style="stroke:#181818;stroke-width:1.0;"/><line style="stroke:#181818;stroke-width:1.0;" x1="55.5" x2="778" y1="1611.4355" y2="1611.4355"/><text fill="#000000" font-family="sans-serif" font-size="13" lengthAdjust="spacing" textLength="78" x="380.75" y="1606.6934">click submit</text><polygon fill="#181818" points="1434,1636.7461,1444,1640.7461,1434,1644.7461" style="stroke:#181818;stroke-width:1.0;"/><line style="stroke:#181818;stroke-width:1.0;" x1="784" x2="1440" y1="1640.7461" y2="1640.7461"/><text fill="#000000" font-family="sans-serif" font-size="13" lengthAdjust="spacing" textLength="133" x="1048.5" y="1636.0039">call judges controller</text><polygon fill="#181818" points="2277.5,1666.0566,2287.5,1670.0566,2277.5,1674.0566" style="stroke:#181818;stroke-width:1.0;"/><line style="stroke:#181818;stroke-width:1.0;" x1="1446" x2="2283.5" y1="1670.0566" y2="1670.0566"/><text fill="#000000" font-family="sans-serif" font-size="13" lengthAdjust="spacing" textLength="95" x="1820.25" y="1665.3145">validate details</text><path d="M20,1685.0566 L82,1685.0566 L82,1692.3672 L72,1702.3672 L20,1702.3672 L20,1685.0566 " fill="#EEEEEE" style="stroke:#000000;stroke-width:1.5;"/><rect fill="none" height="163.8633" style="stroke:#000000;stroke-width:1.5;" width="3232" x="20" y="1685.0566"/><text fill="#000000" font-family="sans-serif" font-size="13" font-weight="bold" lengthAdjust="spacing" textLength="17" x="35" y="1698.625">alt</text><text fill="#000000" font-family="sans-serif" font-size="11" font-weight="bold" lengthAdjust="spacing" textLength="80" x="97" y="1697.6914">[Invalid input]</text><polygon fill="#181818" points="1457,1719.6777,1447,1723.6777,1457,1727.6777" style="stroke:#181818;stroke-width:1.0;"/><line style="stroke:#181818;stroke-width:1.0;" x1="1451" x2="2288.5" y1="1723.6777" y2="1723.6777"/><text fill="#000000" font-family="sans-serif" font-size="13" lengthAdjust="spacing" textLength="79" x="1828.25" y="1718.9355">Invalid input</text><polygon fill="#181818" points="3083.5,1748.9883,3093.5,1752.9883,3083.5,1756.9883" style="stroke:#181818;stroke-width:1.0;"/><line style="stroke:#181818;stroke-width:1.0;" x1="1446" x2="3089.5" y1="1752.9883" y2="1752.9883"/><text fill="#000000" font-family="sans-serif" font-size="13" lengthAdjust="spacing" textLength="169" x="2186.25" y="1748.2461">request and build template</text><polygon fill="#181818" points="1457,1778.2988,1447,1782.2988,1457,1786.2988" style="stroke:#181818;stroke-width:1.0;"/><line style="stroke:#181818;stroke-width:1.0;" x1="1451" x2="3094.5" y1="1782.2988" y2="1782.2988"/><text fill="#000000" font-family="sans-serif" font-size="13" lengthAdjust="spacing" textLength="78" x="2231.75" y="1777.5566">return HTML</text><polygon fill="#181818" points="795,1807.6094,785,1811.6094,795,1815.6094" style="stroke:#181818;stroke-width:1.0;"/><line style="stroke:#181818;stroke-width:1.0;" x1="789" x2="1445" y1="1811.6094" y2="1811.6094"/><text fill="#000000" font-family="sans-serif" font-size="13" lengthAdjust="spacing" textLength="112" x="1059" y="1806.8672">return error HTML</text><polygon fill="#181818" points="66.5,1836.9199,56.5,1840.9199,66.5,1844.9199" style="stroke:#181818;stroke-width:1.0;"/><line style="stroke:#181818;stroke-width:1.0;" x1="60.5" x2="783" y1="1840.9199" y2="1840.9199"/><text fill="#000000" font-family="sans-serif" font-size="13" lengthAdjust="spacing" textLength="133" x="353.25" y="1836.1777">render error message</text><polygon fill="#181818" points="1457,1873.2305,1447,1877.2305,1457,1881.2305" style="stroke:#181818;stroke-width:1.0;"/><line style="stroke:#181818;stroke-width:1.0;" x1="1451" x2="2288.5" y1="1877.2305" y2="1877.2305"/><text fill="#000000" font-family="sans-serif" font-size="13" lengthAdjust="spacing" textLength="127" x="1804.25" y="1872.4883">valid details entered</text><polygon fill="#181818" points="1794,1902.541,1804,1906.541,1794,1910.541" style="stroke:#181818;stroke-width:1.0;"/><line style="stroke:#181818;stroke-width:1.0;" x1="1446" x2="1800" y1="1906.541" y2="1906.541"/><text fill="#000000" font-family="sans-serif" font-size="13" lengthAdjust="spacing" textLength="126" x="1563" y="1901.7988">build request object</text><polygon fill="#181818" points="3799.5,1931.8516,3809.5,1935.8516,3799.5,1939.8516" style="stroke:#181818;stroke-width:1.0;"/><line style="stroke:#181818;stroke-width:1.0;" x1="1806" x2="3805.5" y1="1935.8516" y2="1935.8516"/><text fill="#000000" font-family="sans-serif" font-size="13" lengthAdjust="spacing" textLength="138" x="2739.75" y="1931.1094">send backend request</text><path d="M20,1950.8516 L82,1950.8516 L82,1958.1621 L72,1968.1621 L20,1968.1621 L20,1950.8516 " fill="#EEEEEE" style="stroke:#000000;stroke-width:1.5;"/><rect fill="none" height="193.1738" style="stroke:#000000;stroke-width:1.5;" width="3872" x="20" y="1950.8516"/><text fill="#000000" font-family="sans-serif" font-size="13" font-weight="bold" lengthAdjust="spacing" textLength="17" x="35" y="1964.4199">alt</text><text fill="#000000" font-family="sans-serif" font-size="11" font-weight="bold" lengthAdjust="spacing" textLength="182" x="97" y="1963.4863">[Failed to update judge's details]</text><polygon fill="#181818" points="1817,1985.4727,1807,1989.4727,1817,1993.4727" style="stroke:#181818;stroke-width:1.0;"/><line style="stroke:#181818;stroke-width:1.0;stroke-dasharray:2.0,2.0;" x1="1811" x2="3810.5" y1="1989.4727" y2="1989.4727"/><text fill="#000000" font-family="sans-serif" font-size="13" lengthAdjust="spacing" textLength="91" x="2763.25" y="1984.7305">Error response</text><polygon fill="#181818" points="1457,2014.7832,1447,2018.7832,1457,2022.7832" style="stroke:#181818;stroke-width:1.0;"/><line style="stroke:#181818;stroke-width:1.0;stroke-dasharray:2.0,2.0;" x1="1451" x2="1805" y1="2018.7832" y2="2018.7832"/><text fill="#000000" font-family="sans-serif" font-size="13" lengthAdjust="spacing" textLength="127" x="1562.5" y="2014.041">reject requestObject</text><polygon fill="#181818" points="3639,2044.0938,3649,2048.0938,3639,2052.0938" style="stroke:#181818;stroke-width:1.0;"/><line style="stroke:#181818;stroke-width:1.0;" x1="1446" x2="3645" y1="2048.0938" y2="2048.0938"/><text fill="#000000" font-family="sans-serif" font-size="13" lengthAdjust="spacing" textLength="169" x="2464" y="2043.3516">request and build template</text><polygon fill="#181818" points="1457,2073.4043,1447,2077.4043,1457,2081.4043" style="stroke:#181818;stroke-width:1.0;"/><line style="stroke:#181818;stroke-width:1.0;" x1="1451" x2="3650" y1="2077.4043" y2="2077.4043"/><text fill="#000000" font-family="sans-serif" font-size="13" lengthAdjust="spacing" textLength="78" x="2509.5" y="2072.6621">return HTML</text><polygon fill="#181818" points="1300,2102.7148,1290,2106.7148,1300,2110.7148" style="stroke:#181818;stroke-width:1.0;"/><line style="stroke:#181818;stroke-width:1.0;" x1="1294" x2="1445" y1="2106.7148" y2="2106.7148"/><text fill="#000000" font-family="sans-serif" font-size="13" lengthAdjust="spacing" textLength="78" x="1328.5" y="2101.9727">return HTML</text><polygon fill="#181818" points="66.5,2132.0254,56.5,2136.0254,66.5,2140.0254" style="stroke:#181818;stroke-width:1.0;"/><line style="stroke:#181818;stroke-width:1.0;" x1="60.5" x2="1288" y1="2136.0254" y2="2136.0254"/><text fill="#000000" font-family="sans-serif" font-size="13" lengthAdjust="spacing" textLength="108" x="618.25" y="2131.2832">render error page</text><polygon fill="#181818" points="1817,2168.3359,1807,2172.3359,1817,2176.3359" style="stroke:#181818;stroke-width:1.0;"/><line style="stroke:#181818;stroke-width:1.0;" x1="1811" x2="3810.5" y1="2172.3359" y2="2172.3359"/><text fill="#000000" font-family="sans-serif" font-size="13" lengthAdjust="spacing" textLength="77" x="2770.25" y="2167.5938">ok response</text><polygon fill="#181818" points="1457,2197.6465,1447,2201.6465,1457,2205.6465" style="stroke:#181818;stroke-width:1.0;"/><line style="stroke:#181818;stroke-width:1.0;" x1="1451" x2="1805" y1="2201.6465" y2="2201.6465"/><text fill="#000000" font-family="sans-serif" font-size="13" lengthAdjust="spacing" textLength="96" x="1578" y="2196.9043">resolve request</text><path d="M10,2223.6465 L72,2223.6465 L72,2230.957 L62,2240.957 L10,2240.957 L10,2223.6465 " fill="#EEEEEE" style="stroke:#000000;stroke-width:1.5;"/><rect fill="none" height="576.2109" style="stroke:#000000;stroke-width:1.5;" width="3892" x="10" y="2223.6465"/><text fill="#000000" font-family="sans-serif" font-size="13" font-weight="bold" lengthAdjust="spacing" textLength="17" x="25" y="2237.2148">alt</text><text fill="#000000" font-family="sans-serif" font-size="11" font-weight="bold" lengthAdjust="spacing" textLength="86" x="87" y="2236.2813">[delete a judge]</text><polygon fill="#181818" points="229.5,2258.2676,239.5,2262.2676,229.5,2266.2676" style="stroke:#181818;stroke-width:1.0;"/><line style="stroke:#181818;stroke-width:1.0;" x1="55.5" x2="235.5" y1="2262.2676" y2="2262.2676"/><text fill="#000000" font-family="sans-serif" font-size="13" lengthAdjust="spacing" textLength="111" x="93" y="2257.5254">click delete judge</text><polygon fill="#181818" points="1434,2287.5781,1444,2291.5781,1434,2295.5781" style="stroke:#181818;stroke-width:1.0;"/><line style="stroke:#181818;stroke-width:1.0;" x1="241.5" x2="1440" y1="2291.5781" y2="2291.5781"/><text fill="#000000" font-family="sans-serif" font-size="13" lengthAdjust="spacing" textLength="133" x="777.25" y="2286.8359">call judges controller</text><polygon fill="#181818" points="3394.5,2316.8887,3404.5,2320.8887,3394.5,2324.8887" style="stroke:#181818;stroke-width:1.0;"/><line style="stroke:#181818;stroke-width:1.0;" x1="1446" x2="3400.5" y1="2320.8887" y2="2320.8887"/><text fill="#000000" font-family="sans-serif" font-size="13" lengthAdjust="spacing" textLength="169" x="2341.75" y="2316.1465">request and build template</text><polygon fill="#181818" points="1457,2346.1992,1447,2350.1992,1457,2354.1992" style="stroke:#181818;stroke-width:1.0;"/><line style="stroke:#181818;stroke-width:1.0;" x1="1451" x2="3405.5" y1="2350.1992" y2="2350.1992"/><text fill="#000000" font-family="sans-serif" font-size="13" lengthAdjust="spacing" textLength="78" x="2387.25" y="2345.457">return HTML</text><polygon fill="#181818" points="1081,2375.5098,1071,2379.5098,1081,2383.5098" style="stroke:#181818;stroke-width:1.0;"/><line style="stroke:#181818;stroke-width:1.0;" x1="1075" x2="1445" y1="2379.5098" y2="2379.5098"/><text fill="#000000" font-family="sans-serif" font-size="13" lengthAdjust="spacing" textLength="78" x="1219" y="2374.7676">return HTML</text><polygon fill="#181818" points="66.5,2404.8203,56.5,2408.8203,66.5,2412.8203" style="stroke:#181818;stroke-width:1.0;"/><line style="stroke:#181818;stroke-width:1.0;" x1="60.5" x2="1069" y1="2408.8203" y2="2408.8203"/><text fill="#000000" font-family="sans-serif" font-size="13" lengthAdjust="spacing" textLength="80" x="522.75" y="2404.0781">render HTML</text><polygon fill="#181818" points="1058,2434.1309,1068,2438.1309,1058,2442.1309" style="stroke:#181818;stroke-width:1.0;"/><line style="stroke:#181818;stroke-width:1.0;" x1="55.5" x2="1064" y1="2438.1309" y2="2438.1309"/><text fill="#000000" font-family="sans-serif" font-size="13" lengthAdjust="spacing" textLength="72" x="526.75" y="2433.3887">click delete</text><polygon fill="#181818" points="1434,2463.4414,1444,2467.4414,1434,2471.4414" style="stroke:#181818;stroke-width:1.0;"/><line style="stroke:#181818;stroke-width:1.0;" x1="1070" x2="1440" y1="2467.4414" y2="2467.4414"/><text fill="#000000" font-family="sans-serif" font-size="13" lengthAdjust="spacing" textLength="133" x="1191.5" y="2462.6992">call judges controller</text><polygon fill="#181818" points="1957.5,2492.752,1967.5,2496.752,1957.5,2500.752" style="stroke:#181818;stroke-width:1.0;"/><line style="stroke:#181818;stroke-width:1.0;" x1="1446" x2="1963.5" y1="2496.752" y2="2496.752"/><text fill="#000000" font-family="sans-serif" font-size="13" lengthAdjust="spacing" textLength="126" x="1644.75" y="2492.0098">build request object</text><polygon fill="#181818" points="3799.5,2522.0625,3809.5,2526.0625,3799.5,2530.0625" style="stroke:#181818;stroke-width:1.0;"/><line style="stroke:#181818;stroke-width:1.0;" x1="1969.5" x2="3805.5" y1="2526.0625" y2="2526.0625"/><text fill="#000000" font-family="sans-serif" font-size="13" lengthAdjust="spacing" textLength="138" x="2821.5" y="2521.3203">send backend request</text><path d="M20,2541.0625 L82,2541.0625 L82,2548.373 L72,2558.373 L20,2558.373 L20,2541.0625 " fill="#EEEEEE" style="stroke:#000000;stroke-width:1.5;"/><rect fill="none" height="193.1738" style="stroke:#000000;stroke-width:1.5;" width="3872" x="20" y="2541.0625"/><text fill="#000000" font-family="sans-serif" font-size="13" font-weight="bold" lengthAdjust="spacing" textLength="17" x="35" y="2554.6309">alt</text><text fill="#000000" font-family="sans-serif" font-size="11" font-weight="bold" lengthAdjust="spacing" textLength="138" x="97" y="2553.6973">[Failed to delete a judge]</text><polygon fill="#181818" points="1980.5,2575.6836,1970.5,2579.6836,1980.5,2583.6836" style="stroke:#181818;stroke-width:1.0;"/><line style="stroke:#181818;stroke-width:1.0;stroke-dasharray:2.0,2.0;" x1="1974.5" x2="3810.5" y1="2579.6836" y2="2579.6836"/><text fill="#000000" font-family="sans-serif" font-size="13" lengthAdjust="spacing" textLength="91" x="2845" y="2574.9414">Error response</text><polygon fill="#181818" points="1457,2604.9941,1447,2608.9941,1457,2612.9941" style="stroke:#181818;stroke-width:1.0;"/><line style="stroke:#181818;stroke-width:1.0;stroke-dasharray:2.0,2.0;" x1="1451" x2="1968.5" y1="2608.9941" y2="2608.9941"/><text fill="#000000" font-family="sans-serif" font-size="13" lengthAdjust="spacing" textLength="127" x="1644.25" y="2604.252">reject requestObject</text><polygon fill="#181818" points="3639,2634.3047,3649,2638.3047,3639,2642.3047" style="stroke:#181818;stroke-width:1.0;"/><line style="stroke:#181818;stroke-width:1.0;" x1="1446" x2="3645" y1="2638.3047" y2="2638.3047"/><text fill="#000000" font-family="sans-serif" font-size="13" lengthAdjust="spacing" textLength="169" x="2464" y="2633.5625">request and build template</text><polygon fill="#181818" points="1457,2663.6152,1447,2667.6152,1457,2671.6152" style="stroke:#181818;stroke-width:1.0;"/><line style="stroke:#181818;stroke-width:1.0;" x1="1451" x2="3650" y1="2667.6152" y2="2667.6152"/><text fill="#000000" font-family="sans-serif" font-size="13" lengthAdjust="spacing" textLength="78" x="2509.5" y="2662.873">return HTML</text><polygon fill="#181818" points="1300,2692.9258,1290,2696.9258,1300,2700.9258" style="stroke:#181818;stroke-width:1.0;"/><line style="stroke:#181818;stroke-width:1.0;" x1="1294" x2="1445" y1="2696.9258" y2="2696.9258"/><text fill="#000000" font-family="sans-serif" font-size="13" lengthAdjust="spacing" textLength="78" x="1328.5" y="2692.1836">return HTML</text><polygon fill="#181818" points="66.5,2722.2363,56.5,2726.2363,66.5,2730.2363" style="stroke:#181818;stroke-width:1.0;"/><line style="stroke:#181818;stroke-width:1.0;" x1="60.5" x2="1288" y1="2726.2363" y2="2726.2363"/><text fill="#000000" font-family="sans-serif" font-size="13" lengthAdjust="spacing" textLength="108" x="618.25" y="2721.4941">render error page</text><polygon fill="#181818" points="1980.5,2758.5469,1970.5,2762.5469,1980.5,2766.5469" style="stroke:#181818;stroke-width:1.0;"/><line style="stroke:#181818;stroke-width:1.0;" x1="1974.5" x2="3810.5" y1="2762.5469" y2="2762.5469"/><text fill="#000000" font-family="sans-serif" font-size="13" lengthAdjust="spacing" textLength="77" x="2852" y="2757.8047">ok response</text><polygon fill="#181818" points="1457,2787.8574,1447,2791.8574,1457,2795.8574" style="stroke:#181818;stroke-width:1.0;"/><line style="stroke:#181818;stroke-width:1.0;" x1="1451" x2="1968.5" y1="2791.8574" y2="2791.8574"/><text fill="#000000" font-family="sans-serif" font-size="13" lengthAdjust="spacing" textLength="96" x="1659.75" y="2787.1152">resolve request</text><!--SRC=[lLPTJ-Cm47pFhzW3f89KoZj2IA7DeNA1G1juFRdnNd7hEht40V7lRvkagPs6fEWaNleHxupNExFhl0gEa2afr1AvyqEeI6RqP8uA4n6TpsGSBTF1MZAbivLqd7Gfr9ebR0LJ_I4HKarXcoKmb_1lXYh2UqnJDaTNYhbQeT8GqGScZaDXMaHYJQpWHZgcHxrU3_nWwFem2Px3ySEj5NINyJcclaZr8n72rTK5uokXw7_2j8ZLnI8FAB-kh-qTEC_nxL36-Nd-iuRskD07m9726l4ZbAZn00QU1pPot1PoU4aI9riItFoXkBnom-0Xd0I-xqt0VHZ1n7jwzgOX13TttZ2SDfHo62kTn59YGbn50eEeUZPOK0tXc7HxrHyePVp-YHh1R86HhYX6RZ2OOr6kzFIiZUDvpLbPbWQITQRRuKPL6-15ATiPjgvesZrE6xRF2_tY-kEH6mQJQRD9NfWKTB0uWUDvB7a12htxHzyDlUadLGnnHHscEtqzK8lb9zxkfgZytS1IfTzDi_Dv0u-XIZUJwVUcd3R-DbX-vuPFByhHL2188VQ6YcCvGMxSuI-F6c3N3nRd3OkM5Bqpl-FaumVEhsiZvX8YAQ8b5Bc2PZEdDeCgYD5AX69IRa6HiSr9cRRxE1vIo6aTsjzhghvTWJuS_MH28WSTmn_KqMkvpT6PSvBa9TY6Xl4cmTOjTgpsgSuSXydSLS0AVWUWeqHaB53uNeN_Jvq03ZrBtVXzQypJEOoypPNBF5-EcegP0bEyF4MQpLP2Rr3cRV7LvD-AziUnsaom_QptvqJtIOYsqppsC6kp3ikbhVGYzr2z2zMBaRmzM5cYRlqp0sQWliS6UvEhRr_OjX6ifSkwylPD_ntITsT_YFXxLscR_gPQlKfbqmR5N3wy_yluxst_XfkcNt_LihMlBThPKs3zFUshYNVAjFVAqYQJBK8fppy0]--></g></svg>