<?xml version="1.0" encoding="us-ascii" standalone="no"?><svg xmlns="http://www.w3.org/2000/svg" xmlns:xlink="http://www.w3.org/1999/xlink" contentStyleType="text/css" height="2317px" preserveAspectRatio="none" style="width:2817px;height:2317px;background:#FFFFFF;" version="1.1" viewBox="0 0 2817 2317" width="2817px" zoomAndPan="magnify"><defs/><g><rect fill="none" height="193.1738" style="stroke:#000000;stroke-width:1.5;" width="2801.5" x="10" y="187.2188"/><rect fill="none" height="193.1738" style="stroke:#000000;stroke-width:1.5;" width="2801.5" x="10" y="687.498"/><rect fill="none" height="163.8633" style="stroke:#000000;stroke-width:1.5;" width="2212.5" x="10" y="1158.4668"/><rect fill="none" height="193.1738" style="stroke:#000000;stroke-width:1.5;" width="2801.5" x="10" y="1424.2617"/><rect fill="none" height="193.1738" style="stroke:#000000;stroke-width:1.5;" width="2801.5" x="10" y="1924.541"/><line style="stroke:#181818;stroke-width:0.5;stroke-dasharray:5.0,5.0;" x1="45" x2="45" y1="52.9766" y2="2310.5781"/><line style="stroke:#181818;stroke-width:0.5;stroke-dasharray:5.0,5.0;" x1="345.5" x2="345.5" y1="52.9766" y2="2310.5781"/><line style="stroke:#181818;stroke-width:0.5;stroke-dasharray:5.0,5.0;" x1="509.5" x2="509.5" y1="52.9766" y2="2310.5781"/><line style="stroke:#181818;stroke-width:0.5;stroke-dasharray:5.0,5.0;" x1="840.5" x2="840.5" y1="52.9766" y2="2310.5781"/><line style="stroke:#181818;stroke-width:0.5;stroke-dasharray:5.0,5.0;" x1="1138.5" x2="1138.5" y1="52.9766" y2="2310.5781"/><line style="stroke:#181818;stroke-width:0.5;stroke-dasharray:5.0,5.0;" x1="1334.5" x2="1334.5" y1="52.9766" y2="2310.5781"/><line style="stroke:#181818;stroke-width:0.5;stroke-dasharray:5.0,5.0;" x1="1546.5" x2="1546.5" y1="52.9766" y2="2310.5781"/><line style="stroke:#181818;stroke-width:0.5;stroke-dasharray:5.0,5.0;" x1="1729.5" x2="1729.5" y1="52.9766" y2="2310.5781"/><line style="stroke:#181818;stroke-width:0.5;stroke-dasharray:5.0,5.0;" x1="1906.5" x2="1906.5" y1="52.9766" y2="2310.5781"/><line style="stroke:#181818;stroke-width:0.5;stroke-dasharray:5.0,5.0;" x1="2102.5" x2="2102.5" y1="52.9766" y2="2310.5781"/><line style="stroke:#181818;stroke-width:0.5;stroke-dasharray:5.0,5.0;" x1="2351.5" x2="2351.5" y1="52.9766" y2="2310.5781"/><line style="stroke:#181818;stroke-width:0.5;stroke-dasharray:5.0,5.0;" x1="2570.5" x2="2570.5" y1="52.9766" y2="2310.5781"/><line style="stroke:#181818;stroke-width:0.5;stroke-dasharray:5.0,5.0;" x1="2730.5" x2="2730.5" y1="52.9766" y2="2310.5781"/><rect fill="#E2E2F0" height="30.4883" rx="2.5" ry="2.5" style="stroke:#181818;stroke-width:0.5;" width="51" x="20" y="21.4883"/><text fill="#000000" font-family="sans-serif" font-size="14" lengthAdjust="spacing" textLength="37" x="27" y="42.0234">Actor</text><rect fill="#E2E2F0" height="46.9766" rx="2.5" ry="2.5" style="stroke:#181818;stroke-width:0.5;" width="108" x="291.5" y="5"/><text fill="#000000" font-family="sans-serif" font-size="14" font-style="italic" lengthAdjust="spacing" textLength="94" x="298.5" y="25.5352">&#171;/homepgae&#187;</text><text fill="#000000" font-family="sans-serif" font-size="14" lengthAdjust="spacing" textLength="73" x="309" y="42.0234">HomePage</text><rect fill="#E2E2F0" height="46.9766" rx="2.5" ry="2.5" style="stroke:#181818;stroke-width:0.5;" width="201" x="409.5" y="5"/><text fill="#000000" font-family="sans-serif" font-size="14" font-style="italic" lengthAdjust="spacing" textLength="187" x="416.5" y="25.5352">&#171;/trial-management/trials&#187;</text><text fill="#000000" font-family="sans-serif" font-size="14" lengthAdjust="spacing" textLength="125" x="447.5" y="42.0234">ManageTrialsPage</text><rect fill="#E2E2F0" height="46.9766" rx="2.5" ry="2.5" style="stroke:#181818;stroke-width:0.5;" width="441" x="620.5" y="5"/><text fill="#000000" font-family="sans-serif" font-size="14" font-style="italic" lengthAdjust="spacing" textLength="427" x="627.5" y="25.5352">&#171;/trial-management/trials/:trialNumber/:locationCode/detail&#187;</text><text fill="#000000" font-family="sans-serif" font-size="14" lengthAdjust="spacing" textLength="103" x="789.5" y="42.0234">TrialDetailPage</text><rect fill="#E2E2F0" height="46.9766" rx="2.5" ry="2.5" style="stroke:#181818;stroke-width:0.5;" width="134" x="1071.5" y="5"/><text fill="#000000" font-family="sans-serif" font-size="14" font-style="italic" lengthAdjust="spacing" textLength="56" x="1110.5" y="25.5352">&#171;/error&#187;</text><text fill="#000000" font-family="sans-serif" font-size="14" lengthAdjust="spacing" textLength="120" x="1078.5" y="42.0234">GenericErrorPage</text><rect fill="#FFFFE0" height="46.9766" rx="2.5" ry="2.5" style="stroke:#181818;stroke-width:0.5;" width="239" x="1215.5" y="5"/><text fill="#000000" font-family="sans-serif" font-size="14" font-style="italic" lengthAdjust="spacing" textLength="225" x="1222.5" y="25.5352">&#171;trial-management.controller.js&#187;</text><text fill="#000000" font-family="sans-serif" font-size="14" lengthAdjust="spacing" textLength="190" x="1240" y="42.0234">TrialManagementController</text><rect fill="#FFFFE0" height="46.9766" rx="2.5" ry="2.5" style="stroke:#181818;stroke-width:0.5;" width="165" x="1464.5" y="5"/><text fill="#000000" font-family="sans-serif" font-size="14" font-style="italic" lengthAdjust="spacing" textLength="151" x="1471.5" y="25.5352">&#171;trialsListObject.get()&#187;</text><text fill="#000000" font-family="sans-serif" font-size="14" lengthAdjust="spacing" textLength="105" x="1494.5" y="42.0234">TrialsListObject</text><rect fill="#FFFFE0" height="46.9766" rx="2.5" ry="2.5" style="stroke:#181818;stroke-width:0.5;" width="181" x="1639.5" y="5"/><text fill="#000000" font-family="sans-serif" font-size="14" font-style="italic" lengthAdjust="spacing" textLength="167" x="1646.5" y="25.5352">&#171;trialDetailsObject.get()&#187;</text><text fill="#000000" font-family="sans-serif" font-size="14" lengthAdjust="spacing" textLength="121" x="1669.5" y="42.0234">TrialDetailsObject</text><rect fill="#FFD700" height="30.4883" rx="2.5" ry="2.5" style="stroke:#181818;stroke-width:0.5;" width="153" x="1830.5" y="21.4883"/><text fill="#000000" font-family="sans-serif" font-size="14" lengthAdjust="spacing" textLength="139" x="1837.5" y="42.0234">TrialSearchValidator</text><rect fill="#E6E6FA" height="46.9766" rx="2.5" ry="2.5" style="stroke:#181818;stroke-width:0.5;" width="219" x="1993.5" y="5"/><text fill="#000000" font-family="sans-serif" font-size="14" font-style="italic" lengthAdjust="spacing" textLength="205" x="2000.5" y="25.5352">&#171;trial-management/trials.njk&#187;</text><text fill="#000000" font-family="sans-serif" font-size="14" lengthAdjust="spacing" textLength="102" x="2052" y="42.0234">TrialsTemplate</text><rect fill="#E6E6FA" height="46.9766" rx="2.5" ry="2.5" style="stroke:#181818;stroke-width:0.5;" width="258" x="2222.5" y="5"/><text fill="#000000" font-family="sans-serif" font-size="14" font-style="italic" lengthAdjust="spacing" textLength="244" x="2229.5" y="25.5352">&#171;trial-management/trial-detail.njk&#187;</text><text fill="#000000" font-family="sans-serif" font-size="14" lengthAdjust="spacing" textLength="134" x="2284.5" y="42.0234">TrialDetailTemplate</text><rect fill="#E6E6FA" height="46.9766" rx="2.5" ry="2.5" style="stroke:#181818;stroke-width:0.5;" width="160" x="2490.5" y="5"/><text fill="#000000" font-family="sans-serif" font-size="14" font-style="italic" lengthAdjust="spacing" textLength="146" x="2497.5" y="25.5352">&#171;_errors/generic.njk&#187;</text><text fill="#000000" font-family="sans-serif" font-size="14" lengthAdjust="spacing" textLength="99" x="2521" y="42.0234">ErrorTemplate</text><rect fill="#E2E2F0" height="30.4883" rx="2.5" ry="2.5" style="stroke:#181818;stroke-width:0.5;" width="141" x="2660.5" y="21.4883"/><text fill="#000000" font-family="sans-serif" font-size="14" lengthAdjust="spacing" textLength="127" x="2667.5" y="42.0234">BackendController</text><polygon fill="#181818" points="333.5,80.2871,343.5,84.2871,333.5,88.2871" style="stroke:#181818;stroke-width:1.0;"/><line style="stroke:#181818;stroke-width:1.0;" x1="45.5" x2="339.5" y1="84.2871" y2="84.2871"/><text fill="#000000" font-family="sans-serif" font-size="13" lengthAdjust="spacing" textLength="276" x="57.5" y="79.5449">Open apps tray and click 'trial management'</text><polygon fill="#181818" points="1323,109.5977,1333,113.5977,1323,117.5977" style="stroke:#181818;stroke-width:1.0;"/><line style="stroke:#181818;stroke-width:1.0;" x1="345.5" x2="1329" y1="113.5977" y2="113.5977"/><text fill="#000000" font-family="sans-serif" font-size="13" lengthAdjust="spacing" textLength="121" x="779.75" y="108.8555">call page controller</text><polygon fill="#181818" points="1535,138.9082,1545,142.9082,1535,146.9082" style="stroke:#181818;stroke-width:1.0;"/><line style="stroke:#181818;stroke-width:1.0;" x1="1335" x2="1541" y1="142.9082" y2="142.9082"/><text fill="#000000" font-family="sans-serif" font-size="13" lengthAdjust="spacing" textLength="126" x="1378" y="138.166">build request object</text><polygon fill="#181818" points="2719,168.2188,2729,172.2188,2719,176.2188" style="stroke:#181818;stroke-width:1.0;"/><line style="stroke:#181818;stroke-width:1.0;" x1="1547" x2="2725" y1="172.2188" y2="172.2188"/><text fill="#000000" font-family="sans-serif" font-size="13" lengthAdjust="spacing" textLength="138" x="2070" y="167.4766">send backend request</text><path d="M10,187.2188 L72,187.2188 L72,194.5293 L62,204.5293 L10,204.5293 L10,187.2188 " fill="#EEEEEE" style="stroke:#000000;stroke-width:1.5;"/><rect fill="none" height="193.1738" style="stroke:#000000;stroke-width:1.5;" width="2801.5" x="10" y="187.2188"/><text fill="#000000" font-family="sans-serif" font-size="13" font-weight="bold" lengthAdjust="spacing" textLength="17" x="25" y="200.7871">alt</text><text fill="#000000" font-family="sans-serif" font-size="11" font-weight="bold" lengthAdjust="spacing" textLength="121" x="87" y="199.8535">[Failed to fetch trials]</text><polygon fill="#181818" points="1558,221.8398,1548,225.8398,1558,229.8398" style="stroke:#181818;stroke-width:1.0;"/><line style="stroke:#181818;stroke-width:1.0;stroke-dasharray:2.0,2.0;" x1="1552" x2="2730" y1="225.8398" y2="225.8398"/><text fill="#000000" font-family="sans-serif" font-size="13" lengthAdjust="spacing" textLength="91" x="2093.5" y="221.0977">Error response</text><polygon fill="#181818" points="1346,251.1504,1336,255.1504,1346,259.1504" style="stroke:#181818;stroke-width:1.0;"/><line style="stroke:#181818;stroke-width:1.0;stroke-dasharray:2.0,2.0;" x1="1340" x2="1546" y1="255.1504" y2="255.1504"/><text fill="#000000" font-family="sans-serif" font-size="13" lengthAdjust="spacing" textLength="127" x="1377.5" y="250.4082">reject requestObject</text><polygon fill="#181818" points="2558.5,280.4609,2568.5,284.4609,2558.5,288.4609" style="stroke:#181818;stroke-width:1.0;"/><line style="stroke:#181818;stroke-width:1.0;" x1="1335" x2="2564.5" y1="284.4609" y2="284.4609"/><text fill="#000000" font-family="sans-serif" font-size="13" lengthAdjust="spacing" textLength="169" x="1868.25" y="279.7188">request and build template</text><polygon fill="#181818" points="1346,309.7715,1336,313.7715,1346,317.7715" style="stroke:#181818;stroke-width:1.0;"/><line style="stroke:#181818;stroke-width:1.0;" x1="1340" x2="2569.5" y1="313.7715" y2="313.7715"/><text fill="#000000" font-family="sans-serif" font-size="13" lengthAdjust="spacing" textLength="78" x="1913.75" y="309.0293">return HTML</text><polygon fill="#181818" points="1149.5,339.082,1139.5,343.082,1149.5,347.082" style="stroke:#181818;stroke-width:1.0;"/><line style="stroke:#181818;stroke-width:1.0;" x1="1143.5" x2="1334" y1="343.082" y2="343.082"/><text fill="#000000" font-family="sans-serif" font-size="13" lengthAdjust="spacing" textLength="78" x="1197.75" y="338.3398">return HTML</text><polygon fill="#181818" points="56.5,368.3926,46.5,372.3926,56.5,376.3926" style="stroke:#181818;stroke-width:1.0;"/><line style="stroke:#181818;stroke-width:1.0;" x1="50.5" x2="1137.5" y1="372.3926" y2="372.3926"/><text fill="#000000" font-family="sans-serif" font-size="13" lengthAdjust="spacing" textLength="108" x="538" y="367.6504">render error page</text><polygon fill="#181818" points="1558,404.7031,1548,408.7031,1558,412.7031" style="stroke:#181818;stroke-width:1.0;"/><line style="stroke:#181818;stroke-width:1.0;" x1="1552" x2="2730" y1="408.7031" y2="408.7031"/><text fill="#000000" font-family="sans-serif" font-size="13" lengthAdjust="spacing" textLength="77" x="2100.5" y="403.9609">ok response</text><polygon fill="#181818" points="1346,434.0137,1336,438.0137,1346,442.0137" style="stroke:#181818;stroke-width:1.0;"/><line style="stroke:#181818;stroke-width:1.0;" x1="1340" x2="1546" y1="438.0137" y2="438.0137"/><text fill="#000000" font-family="sans-serif" font-size="13" lengthAdjust="spacing" textLength="96" x="1393" y="433.2715">resolve request</text><polygon fill="#181818" points="2091,463.3242,2101,467.3242,2091,471.3242" style="stroke:#181818;stroke-width:1.0;"/><line style="stroke:#181818;stroke-width:1.0;" x1="1335" x2="2097" y1="467.3242" y2="467.3242"/><text fill="#000000" font-family="sans-serif" font-size="13" lengthAdjust="spacing" textLength="169" x="1634.5" y="462.582">request and build template</text><polygon fill="#181818" points="1346,492.6348,1336,496.6348,1346,500.6348" style="stroke:#181818;stroke-width:1.0;"/><line style="stroke:#181818;stroke-width:1.0;" x1="1340" x2="2102" y1="496.6348" y2="496.6348"/><text fill="#000000" font-family="sans-serif" font-size="13" lengthAdjust="spacing" textLength="78" x="1680" y="491.8926">return HTML</text><polygon fill="#181818" points="521,521.9453,511,525.9453,521,529.9453" style="stroke:#181818;stroke-width:1.0;"/><line style="stroke:#181818;stroke-width:1.0;" x1="515" x2="1334" y1="525.9453" y2="525.9453"/><text fill="#000000" font-family="sans-serif" font-size="13" lengthAdjust="spacing" textLength="78" x="883.5" y="521.2031">return HTML</text><polygon fill="#181818" points="56.5,551.2559,46.5,555.2559,56.5,559.2559" style="stroke:#181818;stroke-width:1.0;"/><line style="stroke:#181818;stroke-width:1.0;" x1="50.5" x2="509" y1="555.2559" y2="555.2559"/><text fill="#000000" font-family="sans-serif" font-size="13" lengthAdjust="spacing" textLength="80" x="237.75" y="550.5137">render HTML</text><polygon fill="#181818" points="498,580.5664,508,584.5664,498,588.5664" style="stroke:#181818;stroke-width:1.0;"/><line style="stroke:#181818;stroke-width:1.0;" x1="45.5" x2="504" y1="584.5664" y2="584.5664"/><text fill="#000000" font-family="sans-serif" font-size="13" lengthAdjust="spacing" textLength="374" x="90.75" y="579.8242">click on any sortable table header or active/all radio button</text><polygon fill="#181818" points="1323,609.877,1333,613.877,1323,617.877" style="stroke:#181818;stroke-width:1.0;"/><line style="stroke:#181818;stroke-width:1.0;" x1="510" x2="1329" y1="613.877" y2="613.877"/><text fill="#000000" font-family="sans-serif" font-size="13" lengthAdjust="spacing" textLength="121" x="862" y="609.1348">call page controller</text><polygon fill="#181818" points="1535,639.1875,1545,643.1875,1535,647.1875" style="stroke:#181818;stroke-width:1.0;"/><line style="stroke:#181818;stroke-width:1.0;" x1="1335" x2="1541" y1="643.1875" y2="643.1875"/><text fill="#000000" font-family="sans-serif" font-size="13" lengthAdjust="spacing" textLength="126" x="1378" y="638.4453">build request object</text><polygon fill="#181818" points="2719,668.498,2729,672.498,2719,676.498" style="stroke:#181818;stroke-width:1.0;"/><line style="stroke:#181818;stroke-width:1.0;" x1="1547" x2="2725" y1="672.498" y2="672.498"/><text fill="#000000" font-family="sans-serif" font-size="13" lengthAdjust="spacing" textLength="138" x="2070" y="667.7559">send backend request</text><path d="M10,687.498 L72,687.498 L72,694.8086 L62,704.8086 L10,704.8086 L10,687.498 " fill="#EEEEEE" style="stroke:#000000;stroke-width:1.5;"/><rect fill="none" height="193.1738" style="stroke:#000000;stroke-width:1.5;" width="2801.5" x="10" y="687.498"/><text fill="#000000" font-family="sans-serif" font-size="13" font-weight="bold" lengthAdjust="spacing" textLength="17" x="25" y="701.0664">alt</text><text fill="#000000" font-family="sans-serif" font-size="11" font-weight="bold" lengthAdjust="spacing" textLength="121" x="87" y="700.1328">[Failed to fetch trials]</text><polygon fill="#181818" points="1558,722.1191,1548,726.1191,1558,730.1191" style="stroke:#181818;stroke-width:1.0;"/><line style="stroke:#181818;stroke-width:1.0;stroke-dasharray:2.0,2.0;" x1="1552" x2="2730" y1="726.1191" y2="726.1191"/><text fill="#000000" font-family="sans-serif" font-size="13" lengthAdjust="spacing" textLength="91" x="2093.5" y="721.377">Error response</text><polygon fill="#181818" points="1346,751.4297,1336,755.4297,1346,759.4297" style="stroke:#181818;stroke-width:1.0;"/><line style="stroke:#181818;stroke-width:1.0;stroke-dasharray:2.0,2.0;" x1="1340" x2="1546" y1="755.4297" y2="755.4297"/><text fill="#000000" font-family="sans-serif" font-size="13" lengthAdjust="spacing" textLength="127" x="1377.5" y="750.6875">reject requestObject</text><polygon fill="#181818" points="2558.5,780.7402,2568.5,784.7402,2558.5,788.7402" style="stroke:#181818;stroke-width:1.0;"/><line style="stroke:#181818;stroke-width:1.0;" x1="1335" x2="2564.5" y1="784.7402" y2="784.7402"/><text fill="#000000" font-family="sans-serif" font-size="13" lengthAdjust="spacing" textLength="169" x="1868.25" y="779.998">request and build template</text><polygon fill="#181818" points="1346,810.0508,1336,814.0508,1346,818.0508" style="stroke:#181818;stroke-width:1.0;"/><line style="stroke:#181818;stroke-width:1.0;" x1="1340" x2="2569.5" y1="814.0508" y2="814.0508"/><text fill="#000000" font-family="sans-serif" font-size="13" lengthAdjust="spacing" textLength="78" x="1913.75" y="809.3086">return HTML</text><polygon fill="#181818" points="1149.5,839.3613,1139.5,843.3613,1149.5,847.3613" style="stroke:#181818;stroke-width:1.0;"/><line style="stroke:#181818;stroke-width:1.0;" x1="1143.5" x2="1334" y1="843.3613" y2="843.3613"/><text fill="#000000" font-family="sans-serif" font-size="13" lengthAdjust="spacing" textLength="78" x="1197.75" y="838.6191">return HTML</text><polygon fill="#181818" points="56.5,868.6719,46.5,872.6719,56.5,876.6719" style="stroke:#181818;stroke-width:1.0;"/><line style="stroke:#181818;stroke-width:1.0;" x1="50.5" x2="1137.5" y1="872.6719" y2="872.6719"/><text fill="#000000" font-family="sans-serif" font-size="13" lengthAdjust="spacing" textLength="108" x="538" y="867.9297">render error page</text><polygon fill="#181818" points="1558,904.9824,1548,908.9824,1558,912.9824" style="stroke:#181818;stroke-width:1.0;"/><line style="stroke:#181818;stroke-width:1.0;" x1="1552" x2="2730" y1="908.9824" y2="908.9824"/><text fill="#000000" font-family="sans-serif" font-size="13" lengthAdjust="spacing" textLength="77" x="2100.5" y="904.2402">ok response</text><polygon fill="#181818" points="1346,934.293,1336,938.293,1346,942.293" style="stroke:#181818;stroke-width:1.0;"/><line style="stroke:#181818;stroke-width:1.0;" x1="1340" x2="1546" y1="938.293" y2="938.293"/><text fill="#000000" font-family="sans-serif" font-size="13" lengthAdjust="spacing" textLength="96" x="1393" y="933.5508">resolve request</text><polygon fill="#181818" points="2091,963.6035,2101,967.6035,2091,971.6035" style="stroke:#181818;stroke-width:1.0;"/><line style="stroke:#181818;stroke-width:1.0;" x1="1335" x2="2097" y1="967.6035" y2="967.6035"/><text fill="#000000" font-family="sans-serif" font-size="13" lengthAdjust="spacing" textLength="169" x="1634.5" y="962.8613">request and build template</text><polygon fill="#181818" points="1346,992.9141,1336,996.9141,1346,1000.9141" style="stroke:#181818;stroke-width:1.0;"/><line style="stroke:#181818;stroke-width:1.0;" x1="1340" x2="2102" y1="996.9141" y2="996.9141"/><text fill="#000000" font-family="sans-serif" font-size="13" lengthAdjust="spacing" textLength="78" x="1680" y="992.1719">return HTML</text><polygon fill="#181818" points="521,1022.2246,511,1026.2246,521,1030.2246" style="stroke:#181818;stroke-width:1.0;"/><line style="stroke:#181818;stroke-width:1.0;" x1="515" x2="1334" y1="1026.2246" y2="1026.2246"/><text fill="#000000" font-family="sans-serif" font-size="13" lengthAdjust="spacing" textLength="78" x="883.5" y="1021.4824">return HTML</text><polygon fill="#181818" points="56.5,1051.5352,46.5,1055.5352,56.5,1059.5352" style="stroke:#181818;stroke-width:1.0;"/><line style="stroke:#181818;stroke-width:1.0;" x1="50.5" x2="509" y1="1055.5352" y2="1055.5352"/><text fill="#000000" font-family="sans-serif" font-size="13" lengthAdjust="spacing" textLength="80" x="237.75" y="1050.793">render HTML</text><polygon fill="#181818" points="498,1080.8457,508,1084.8457,498,1088.8457" style="stroke:#181818;stroke-width:1.0;"/><line style="stroke:#181818;stroke-width:1.0;" x1="45.5" x2="504" y1="1084.8457" y2="1084.8457"/><text fill="#000000" font-family="sans-serif" font-size="13" lengthAdjust="spacing" textLength="287" x="134.25" y="1080.1035">search for a trial number using the input field</text><polygon fill="#181818" points="1323,1110.1563,1333,1114.1563,1323,1118.1563" style="stroke:#181818;stroke-width:1.0;"/><line style="stroke:#181818;stroke-width:1.0;" x1="510" x2="1329" y1="1114.1563" y2="1114.1563"/><text fill="#000000" font-family="sans-serif" font-size="13" lengthAdjust="spacing" textLength="121" x="862" y="1109.4141">call page controller</text><polygon fill="#181818" points="1895,1139.4668,1905,1143.4668,1895,1147.4668" style="stroke:#181818;stroke-width:1.0;"/><line style="stroke:#181818;stroke-width:1.0;" x1="1335" x2="1901" y1="1143.4668" y2="1143.4668"/><text fill="#000000" font-family="sans-serif" font-size="13" lengthAdjust="spacing" textLength="95" x="1573.5" y="1138.7246">validate details</text><path d="M10,1158.4668 L72,1158.4668 L72,1165.7773 L62,1175.7773 L10,1175.7773 L10,1158.4668 " fill="#EEEEEE" style="stroke:#000000;stroke-width:1.5;"/><rect fill="none" height="163.8633" style="stroke:#000000;stroke-width:1.5;" width="2212.5" x="10" y="1158.4668"/><text fill="#000000" font-family="sans-serif" font-size="13" font-weight="bold" lengthAdjust="spacing" textLength="17" x="25" y="1172.0352">alt</text><text fill="#000000" font-family="sans-serif" font-size="11" font-weight="bold" lengthAdjust="spacing" textLength="121" x="87" y="1171.1016">[Invalid trial number]</text><polygon fill="#181818" points="1346,1193.0879,1336,1197.0879,1346,1201.0879" style="stroke:#181818;stroke-width:1.0;"/><line style="stroke:#181818;stroke-width:1.0;" x1="1340" x2="1906" y1="1197.0879" y2="1197.0879"/><text fill="#000000" font-family="sans-serif" font-size="13" lengthAdjust="spacing" textLength="123" x="1559.5" y="1192.3457">Invalid trial number</text><polygon fill="#181818" points="2091,1222.3984,2101,1226.3984,2091,1230.3984" style="stroke:#181818;stroke-width:1.0;"/><line style="stroke:#181818;stroke-width:1.0;" x1="1335" x2="2097" y1="1226.3984" y2="1226.3984"/><text fill="#000000" font-family="sans-serif" font-size="13" lengthAdjust="spacing" textLength="169" x="1634.5" y="1221.6563">request and build template</text><polygon fill="#181818" points="1346,1251.709,1336,1255.709,1346,1259.709" style="stroke:#181818;stroke-width:1.0;"/><line style="stroke:#181818;stroke-width:1.0;" x1="1340" x2="2102" y1="1255.709" y2="1255.709"/><text fill="#000000" font-family="sans-serif" font-size="13" lengthAdjust="spacing" textLength="78" x="1680" y="1250.9668">return HTML</text><polygon fill="#181818" points="521,1281.0195,511,1285.0195,521,1289.0195" style="stroke:#181818;stroke-width:1.0;"/><line style="stroke:#181818;stroke-width:1.0;" x1="515" x2="1334" y1="1285.0195" y2="1285.0195"/><text fill="#000000" font-family="sans-serif" font-size="13" lengthAdjust="spacing" textLength="112" x="866.5" y="1280.2773">return error HTML</text><polygon fill="#181818" points="56.5,1310.3301,46.5,1314.3301,56.5,1318.3301" style="stroke:#181818;stroke-width:1.0;"/><line style="stroke:#181818;stroke-width:1.0;" x1="50.5" x2="509" y1="1314.3301" y2="1314.3301"/><text fill="#000000" font-family="sans-serif" font-size="13" lengthAdjust="spacing" textLength="133" x="211.25" y="1309.5879">render error message</text><polygon fill="#181818" points="1346,1346.6406,1336,1350.6406,1346,1354.6406" style="stroke:#181818;stroke-width:1.0;"/><line style="stroke:#181818;stroke-width:1.0;" x1="1340" x2="1906" y1="1350.6406" y2="1350.6406"/><text fill="#000000" font-family="sans-serif" font-size="13" lengthAdjust="spacing" textLength="127" x="1557.5" y="1345.8984">valid details entered</text><polygon fill="#181818" points="1535,1375.9512,1545,1379.9512,1535,1383.9512" style="stroke:#181818;stroke-width:1.0;"/><line style="stroke:#181818;stroke-width:1.0;" x1="1335" x2="1541" y1="1379.9512" y2="1379.9512"/><text fill="#000000" font-family="sans-serif" font-size="13" lengthAdjust="spacing" textLength="126" x="1378" y="1375.209">build request object</text><polygon fill="#181818" points="2719,1405.2617,2729,1409.2617,2719,1413.2617" style="stroke:#181818;stroke-width:1.0;"/><line style="stroke:#181818;stroke-width:1.0;" x1="1547" x2="2725" y1="1409.2617" y2="1409.2617"/><text fill="#000000" font-family="sans-serif" font-size="13" lengthAdjust="spacing" textLength="138" x="2070" y="1404.5195">send backend request</text><path d="M10,1424.2617 L72,1424.2617 L72,1431.5723 L62,1441.5723 L10,1441.5723 L10,1424.2617 " fill="#EEEEEE" style="stroke:#000000;stroke-width:1.5;"/><rect fill="none" height="193.1738" style="stroke:#000000;stroke-width:1.5;" width="2801.5" x="10" y="1424.2617"/><text fill="#000000" font-family="sans-serif" font-size="13" font-weight="bold" lengthAdjust="spacing" textLength="17" x="25" y="1437.8301">alt</text><text fill="#000000" font-family="sans-serif" font-size="11" font-weight="bold" lengthAdjust="spacing" textLength="121" x="87" y="1436.8965">[Failed to fetch trials]</text><polygon fill="#181818" points="1558,1458.8828,1548,1462.8828,1558,1466.8828" style="stroke:#181818;stroke-width:1.0;"/><line style="stroke:#181818;stroke-width:1.0;stroke-dasharray:2.0,2.0;" x1="1552" x2="2730" y1="1462.8828" y2="1462.8828"/><text fill="#000000" font-family="sans-serif" font-size="13" lengthAdjust="spacing" textLength="91" x="2093.5" y="1458.1406">Error response</text><polygon fill="#181818" points="1346,1488.1934,1336,1492.1934,1346,1496.1934" style="stroke:#181818;stroke-width:1.0;"/><line style="stroke:#181818;stroke-width:1.0;stroke-dasharray:2.0,2.0;" x1="1340" x2="1546" y1="1492.1934" y2="1492.1934"/><text fill="#000000" font-family="sans-serif" font-size="13" lengthAdjust="spacing" textLength="127" x="1377.5" y="1487.4512">reject requestObject</text><polygon fill="#181818" points="2558.5,1517.5039,2568.5,1521.5039,2558.5,1525.5039" style="stroke:#181818;stroke-width:1.0;"/><line style="stroke:#181818;stroke-width:1.0;" x1="1335" x2="2564.5" y1="1521.5039" y2="1521.5039"/><text fill="#000000" font-family="sans-serif" font-size="13" lengthAdjust="spacing" textLength="169" x="1868.25" y="1516.7617">request and build template</text><polygon fill="#181818" points="1346,1546.8145,1336,1550.8145,1346,1554.8145" style="stroke:#181818;stroke-width:1.0;"/><line style="stroke:#181818;stroke-width:1.0;" x1="1340" x2="2569.5" y1="1550.8145" y2="1550.8145"/><text fill="#000000" font-family="sans-serif" font-size="13" lengthAdjust="spacing" textLength="78" x="1913.75" y="1546.0723">return HTML</text><polygon fill="#181818" points="1149.5,1576.125,1139.5,1580.125,1149.5,1584.125" style="stroke:#181818;stroke-width:1.0;"/><line style="stroke:#181818;stroke-width:1.0;" x1="1143.5" x2="1334" y1="1580.125" y2="1580.125"/><text fill="#000000" font-family="sans-serif" font-size="13" lengthAdjust="spacing" textLength="78" x="1197.75" y="1575.3828">return HTML</text><polygon fill="#181818" points="56.5,1605.4355,46.5,1609.4355,56.5,1613.4355" style="stroke:#181818;stroke-width:1.0;"/><line style="stroke:#181818;stroke-width:1.0;" x1="50.5" x2="1137.5" y1="1609.4355" y2="1609.4355"/><text fill="#000000" font-family="sans-serif" font-size="13" lengthAdjust="spacing" textLength="108" x="538" y="1604.6934">render error page</text><polygon fill="#181818" points="1558,1641.7461,1548,1645.7461,1558,1649.7461" style="stroke:#181818;stroke-width:1.0;"/><line style="stroke:#181818;stroke-width:1.0;" x1="1552" x2="2730" y1="1645.7461" y2="1645.7461"/><text fill="#000000" font-family="sans-serif" font-size="13" lengthAdjust="spacing" textLength="77" x="2100.5" y="1641.0039">ok response</text><polygon fill="#181818" points="1346,1671.0566,1336,1675.0566,1346,1679.0566" style="stroke:#181818;stroke-width:1.0;"/><line style="stroke:#181818;stroke-width:1.0;" x1="1340" x2="1546" y1="1675.0566" y2="1675.0566"/><text fill="#000000" font-family="sans-serif" font-size="13" lengthAdjust="spacing" textLength="96" x="1393" y="1670.3145">resolve request</text><polygon fill="#181818" points="2091,1700.3672,2101,1704.3672,2091,1708.3672" style="stroke:#181818;stroke-width:1.0;"/><line style="stroke:#181818;stroke-width:1.0;" x1="1335" x2="2097" y1="1704.3672" y2="1704.3672"/><text fill="#000000" font-family="sans-serif" font-size="13" lengthAdjust="spacing" textLength="169" x="1634.5" y="1699.625">request and build template</text><polygon fill="#181818" points="1346,1729.6777,1336,1733.6777,1346,1737.6777" style="stroke:#181818;stroke-width:1.0;"/><line style="stroke:#181818;stroke-width:1.0;" x1="1340" x2="2102" y1="1733.6777" y2="1733.6777"/><text fill="#000000" font-family="sans-serif" font-size="13" lengthAdjust="spacing" textLength="78" x="1680" y="1728.9355">return HTML</text><polygon fill="#181818" points="521,1758.9883,511,1762.9883,521,1766.9883" style="stroke:#181818;stroke-width:1.0;"/><line style="stroke:#181818;stroke-width:1.0;" x1="515" x2="1334" y1="1762.9883" y2="1762.9883"/><text fill="#000000" font-family="sans-serif" font-size="13" lengthAdjust="spacing" textLength="78" x="883.5" y="1758.2461">return HTML</text><polygon fill="#181818" points="56.5,1788.2988,46.5,1792.2988,56.5,1796.2988" style="stroke:#181818;stroke-width:1.0;"/><line style="stroke:#181818;stroke-width:1.0;" x1="50.5" x2="509" y1="1792.2988" y2="1792.2988"/><text fill="#000000" font-family="sans-serif" font-size="13" lengthAdjust="spacing" textLength="80" x="237.75" y="1787.5566">render HTML</text><polygon fill="#181818" points="498,1817.6094,508,1821.6094,498,1825.6094" style="stroke:#181818;stroke-width:1.0;"/><line style="stroke:#181818;stroke-width:1.0;" x1="45.5" x2="504" y1="1821.6094" y2="1821.6094"/><text fill="#000000" font-family="sans-serif" font-size="13" lengthAdjust="spacing" textLength="185" x="185.25" y="1816.8672">click on any trial number link</text><polygon fill="#181818" points="1323,1846.9199,1333,1850.9199,1323,1854.9199" style="stroke:#181818;stroke-width:1.0;"/><line style="stroke:#181818;stroke-width:1.0;" x1="510" x2="1329" y1="1850.9199" y2="1850.9199"/><text fill="#000000" font-family="sans-serif" font-size="13" lengthAdjust="spacing" textLength="121" x="862" y="1846.1777">call page controller</text><polygon fill="#181818" points="1718,1876.2305,1728,1880.2305,1718,1884.2305" style="stroke:#181818;stroke-width:1.0;"/><line style="stroke:#181818;stroke-width:1.0;" x1="1335" x2="1724" y1="1880.2305" y2="1880.2305"/><text fill="#000000" font-family="sans-serif" font-size="13" lengthAdjust="spacing" textLength="126" x="1469.5" y="1875.4883">build request object</text><polygon fill="#181818" points="2719,1905.541,2729,1909.541,2719,1913.541" style="stroke:#181818;stroke-width:1.0;"/><line style="stroke:#181818;stroke-width:1.0;" x1="1730" x2="2725" y1="1909.541" y2="1909.541"/><text fill="#000000" font-family="sans-serif" font-size="13" lengthAdjust="spacing" textLength="138" x="2161.5" y="1904.7988">send backend request</text><path d="M10,1924.541 L72,1924.541 L72,1931.8516 L62,1941.8516 L10,1941.8516 L10,1924.541 " fill="#EEEEEE" style="stroke:#000000;stroke-width:1.5;"/><rect fill="none" height="193.1738" style="stroke:#000000;stroke-width:1.5;" width="2801.5" x="10" y="1924.541"/><text fill="#000000" font-family="sans-serif" font-size="13" font-weight="bold" lengthAdjust="spacing" textLength="17" x="25" y="1938.1094">alt</text><text fill="#000000" font-family="sans-serif" font-size="11" font-weight="bold" lengthAdjust="spacing" textLength="156" x="87" y="1937.1758">[Failed to fetch trial details]</text><polygon fill="#181818" points="1741,1959.1621,1731,1963.1621,1741,1967.1621" style="stroke:#181818;stroke-width:1.0;"/><line style="stroke:#181818;stroke-width:1.0;stroke-dasharray:2.0,2.0;" x1="1735" x2="2730" y1="1963.1621" y2="1963.1621"/><text fill="#000000" font-family="sans-serif" font-size="13" lengthAdjust="spacing" textLength="91" x="2185" y="1958.4199">Error response</text><polygon fill="#181818" points="1346,1988.4727,1336,1992.4727,1346,1996.4727" style="stroke:#181818;stroke-width:1.0;"/><line style="stroke:#181818;stroke-width:1.0;stroke-dasharray:2.0,2.0;" x1="1340" x2="1729" y1="1992.4727" y2="1992.4727"/><text fill="#000000" font-family="sans-serif" font-size="13" lengthAdjust="spacing" textLength="127" x="1469" y="1987.7305">reject requestObject</text><polygon fill="#181818" points="2558.5,2017.7832,2568.5,2021.7832,2558.5,2025.7832" style="stroke:#181818;stroke-width:1.0;"/><line style="stroke:#181818;stroke-width:1.0;" x1="1335" x2="2564.5" y1="2021.7832" y2="2021.7832"/><text fill="#000000" font-family="sans-serif" font-size="13" lengthAdjust="spacing" textLength="169" x="1868.25" y="2017.041">request and build template</text><polygon fill="#181818" points="1346,2047.0938,1336,2051.0938,1346,2055.0938" style="stroke:#181818;stroke-width:1.0;"/><line style="stroke:#181818;stroke-width:1.0;" x1="1340" x2="2569.5" y1="2051.0938" y2="2051.0938"/><text fill="#000000" font-family="sans-serif" font-size="13" lengthAdjust="spacing" textLength="78" x="1913.75" y="2046.3516">return HTML</text><polygon fill="#181818" points="1149.5,2076.4043,1139.5,2080.4043,1149.5,2084.4043" style="stroke:#181818;stroke-width:1.0;"/><line style="stroke:#181818;stroke-width:1.0;" x1="1143.5" x2="1334" y1="2080.4043" y2="2080.4043"/><text fill="#000000" font-family="sans-serif" font-size="13" lengthAdjust="spacing" textLength="78" x="1197.75" y="2075.6621">return HTML</text><polygon fill="#181818" points="56.5,2105.7148,46.5,2109.7148,56.5,2113.7148" style="stroke:#181818;stroke-width:1.0;"/><line style="stroke:#181818;stroke-width:1.0;" x1="50.5" x2="1137.5" y1="2109.7148" y2="2109.7148"/><text fill="#000000" font-family="sans-serif" font-size="13" lengthAdjust="spacing" textLength="108" x="538" y="2104.9727">render error page</text><polygon fill="#181818" points="1741,2142.0254,1731,2146.0254,1741,2150.0254" style="stroke:#181818;stroke-width:1.0;"/><line style="stroke:#181818;stroke-width:1.0;" x1="1735" x2="2730" y1="2146.0254" y2="2146.0254"/><text fill="#000000" font-family="sans-serif" font-size="13" lengthAdjust="spacing" textLength="77" x="2192" y="2141.2832">ok response</text><polygon fill="#181818" points="1346,2171.3359,1336,2175.3359,1346,2179.3359" style="stroke:#181818;stroke-width:1.0;"/><line style="stroke:#181818;stroke-width:1.0;" x1="1340" x2="1729" y1="2175.3359" y2="2175.3359"/><text fill="#000000" font-family="sans-serif" font-size="13" lengthAdjust="spacing" textLength="96" x="1484.5" y="2170.5938">resolve request</text><polygon fill="#181818" points="2339.5,2200.6465,2349.5,2204.6465,2339.5,2208.6465" style="stroke:#181818;stroke-width:1.0;"/><line style="stroke:#181818;stroke-width:1.0;" x1="1335" x2="2345.5" y1="2204.6465" y2="2204.6465"/><text fill="#000000" font-family="sans-serif" font-size="13" lengthAdjust="spacing" textLength="169" x="1758.75" y="2199.9043">request and build template</text><polygon fill="#181818" points="1346,2229.957,1336,2233.957,1346,2237.957" style="stroke:#181818;stroke-width:1.0;"/><line style="stroke:#181818;stroke-width:1.0;" x1="1340" x2="2350.5" y1="2233.957" y2="2233.957"/><text fill="#000000" font-family="sans-serif" font-size="13" lengthAdjust="spacing" textLength="78" x="1804.25" y="2229.2148">return HTML</text><polygon fill="#181818" points="852,2259.2676,842,2263.2676,852,2267.2676" style="stroke:#181818;stroke-width:1.0;"/><line style="stroke:#181818;stroke-width:1.0;" x1="846" x2="1334" y1="2263.2676" y2="2263.2676"/><text fill="#000000" font-family="sans-serif" font-size="13" lengthAdjust="spacing" textLength="78" x="1049" y="2258.5254">return HTML</text><polygon fill="#181818" points="56.5,2288.5781,46.5,2292.5781,56.5,2296.5781" style="stroke:#181818;stroke-width:1.0;"/><line style="stroke:#181818;stroke-width:1.0;" x1="50.5" x2="840" y1="2292.5781" y2="2292.5781"/><text fill="#000000" font-family="sans-serif" font-size="13" lengthAdjust="spacing" textLength="80" x="403.25" y="2287.8359">render HTML</text><!--SRC=[xLRVRzem47xFNt5h9r4aVhoZgb9AiuuD28EqhvDnhi75s9djTEA_tyM1Ge2EIPkqX-qbaFDtd-y-tvsp42b2eQHGIqo3u9rGN1Paob2X4RmzbvelRIUNJBbY9OF0BeNAcM4hcBcrHB2EOEKIx2_Xjm8Lnn5Qop8CfSZK2fK3JWyqGK0m9xZ8YHL2xZIP6eq63ED-E8Hf_90CnlSrq4UzmWbHmVLrTq7_yupXpKqDCcAA08aHJDejr9LlxPLVAGEe3FR0q_lSeMD2dd7izlplk5ZDqNHx90vpGgk-Jh6RUe83wljAnyWORRRSMBuGpgVSZyV9D1uEeoc4upkOHbyUeba2yUsdg9_CZiCSlORKryePBIKQ8ZsCjyDVLplFb2zSqXait1gbrD-FMUrGM1VFdv6xBTcUgPEXksgU9QaKj7MQcl4qaTVXCHmExi8adfx8UORCyCKZao9bL2jmcMcPLcv9D9eCmoGwuMKJN57TEZmXp-OuE-fvwQDXBwXIAimtSZhBrAuE_wTylWRscBxwEh3TJQiT-VhyRiF-vuZgObScDSvRnfU4tfL24FXsWlRDhcLw4EUeWEMv1MVO6fXAWKl1bz3mqSCkdKRmwaOKRrTS3pYJ4l8IoFTsVx_99fmC-WIuUfEXTLHuhRf2BMXy84an1QVX2HrVG7LeZIPjOxn6MsoYouZFRxRZFXmMpJtXZWP9RwEM9X7L6gmsZirfzbNF1J8A1SYNSITUi5iAOrWgDCmBvxGAZWZ_IxkJrlhcXgTIloeCK7wyGc65oi0j4EXUAHmy2QIs_qDYlbJJ10SbzTdq3YRG-QHRS35GVezQJXVDVwD5QkTOVbpyfHwetJw_g1vKi_mtHAnV6gt3xujcy0C0]--></g></svg>