<?xml version="1.0" encoding="us-ascii" standalone="no"?><svg xmlns="http://www.w3.org/2000/svg" xmlns:xlink="http://www.w3.org/1999/xlink" contentStyleType="text/css" height="2177px" preserveAspectRatio="none" style="width:4964px;height:2177px;background:#FFFFFF;" version="1.1" viewBox="0 0 4964 2177" width="4964px" zoomAndPan="magnify"><defs/><g><text fill="#000000" font-family="sans-serif" font-size="14" font-weight="bold" lengthAdjust="spacing" textLength="201" x="2383" y="28.5352">Monthly Utilisation Reports</text><rect fill="none" height="163.8633" style="stroke:#000000;stroke-width:1.5;" width="3865" x="10" y="371.2598"/><rect fill="none" height="193.1738" style="stroke:#000000;stroke-width:1.5;" width="4948" x="10" y="842.2285"/><rect fill="none" height="163.8633" style="stroke:#000000;stroke-width:1.5;" width="3865" x="10" y="1489.0605"/><rect fill="none" height="193.1738" style="stroke:#000000;stroke-width:1.5;" width="4948" x="10" y="1784.166"/><line style="stroke:#181818;stroke-width:0.5;stroke-dasharray:5.0,5.0;" x1="45" x2="45" y1="90.4648" y2="2170.2031"/><line style="stroke:#181818;stroke-width:0.5;stroke-dasharray:5.0,5.0;" x1="431" x2="431" y1="90.4648" y2="2170.2031"/><line style="stroke:#181818;stroke-width:0.5;stroke-dasharray:5.0,5.0;" x1="668" x2="668" y1="90.4648" y2="2170.2031"/><line style="stroke:#181818;stroke-width:0.5;stroke-dasharray:5.0,5.0;" x1="1028" x2="1028" y1="90.4648" y2="2170.2031"/><line style="stroke:#181818;stroke-width:0.5;stroke-dasharray:5.0,5.0;" x1="1440" x2="1440" y1="90.4648" y2="2170.2031"/><line style="stroke:#181818;stroke-width:0.5;stroke-dasharray:5.0,5.0;" x1="1771" x2="1771" y1="90.4648" y2="2170.2031"/><line style="stroke:#181818;stroke-width:0.5;stroke-dasharray:5.0,5.0;" x1="2009" x2="2009" y1="90.4648" y2="2170.2031"/><line style="stroke:#181818;stroke-width:0.5;stroke-dasharray:5.0,5.0;" x1="2194" x2="2194" y1="90.4648" y2="2170.2031"/><line style="stroke:#181818;stroke-width:0.5;stroke-dasharray:5.0,5.0;" x1="2394" x2="2394" y1="90.4648" y2="2170.2031"/><line style="stroke:#181818;stroke-width:0.5;stroke-dasharray:5.0,5.0;" x1="2640" x2="2640" y1="90.4648" y2="2170.2031"/><line style="stroke:#181818;stroke-width:0.5;stroke-dasharray:5.0,5.0;" x1="2903" x2="2903" y1="90.4648" y2="2170.2031"/><line style="stroke:#181818;stroke-width:0.5;stroke-dasharray:5.0,5.0;" x1="3177" x2="3177" y1="90.4648" y2="2170.2031"/><line style="stroke:#181818;stroke-width:0.5;stroke-dasharray:5.0,5.0;" x1="3412" x2="3412" y1="90.4648" y2="2170.2031"/><line style="stroke:#181818;stroke-width:0.5;stroke-dasharray:5.0,5.0;" x1="3693" x2="3693" y1="90.4648" y2="2170.2031"/><line style="stroke:#181818;stroke-width:0.5;stroke-dasharray:5.0,5.0;" x1="4064" x2="4064" y1="90.4648" y2="2170.2031"/><line style="stroke:#181818;stroke-width:0.5;stroke-dasharray:5.0,5.0;" x1="4445" x2="4445" y1="90.4648" y2="2170.2031"/><line style="stroke:#181818;stroke-width:0.5;stroke-dasharray:5.0,5.0;" x1="4717" x2="4717" y1="90.4648" y2="2170.2031"/><line style="stroke:#181818;stroke-width:0.5;stroke-dasharray:5.0,5.0;" x1="4877" x2="4877" y1="90.4648" y2="2170.2031"/><rect fill="#E2E2F0" height="30.4883" rx="2.5" ry="2.5" style="stroke:#181818;stroke-width:0.5;" width="51" x="20" y="58.9766"/><text fill="#000000" font-family="sans-serif" font-size="14" lengthAdjust="spacing" textLength="37" x="27" y="79.5117">Actor</text><rect fill="#E2E2F0" height="46.9766" rx="2.5" ry="2.5" style="stroke:#181818;stroke-width:0.5;" width="153" x="355" y="42.4883"/><text fill="#000000" font-family="sans-serif" font-size="14" font-style="italic" lengthAdjust="spacing" textLength="80" x="391.5" y="63.0234">&#171;/statistics&#187;</text><text fill="#000000" font-family="sans-serif" font-size="14" lengthAdjust="spacing" textLength="139" x="362" y="79.5117">ReportStatisticsPage</text><rect fill="#E2E2F0" height="46.9766" rx="2.5" ry="2.5" style="stroke:#181818;stroke-width:0.5;" width="300" x="518" y="42.4883"/><text fill="#000000" font-family="sans-serif" font-size="14" font-style="italic" lengthAdjust="spacing" textLength="286" x="525" y="63.0234">&#171;/reporting/monthly-utilisation/prepare&#187;</text><text fill="#000000" font-family="sans-serif" font-size="14" lengthAdjust="spacing" textLength="246" x="545" y="79.5117">PrepareMonthlyUtilisationFormPage</text><rect fill="#E2E2F0" height="46.9766" rx="2.5" ry="2.5" style="stroke:#181818;stroke-width:0.5;" width="401" x="828" y="42.4883"/><text fill="#000000" font-family="sans-serif" font-size="14" font-style="italic" lengthAdjust="spacing" textLength="387" x="835" y="63.0234">&#171;/reporting/monthly-utilisation/prepare/confirm/:date&#187;</text><text fill="#000000" font-family="sans-serif" font-size="14" lengthAdjust="spacing" textLength="142" x="957.5" y="79.5117">ConfirmPreparePage</text><rect fill="#E2E2F0" height="46.9766" rx="2.5" ry="2.5" style="stroke:#181818;stroke-width:0.5;" width="403" x="1239" y="42.4883"/><text fill="#000000" font-family="sans-serif" font-size="14" font-style="italic" lengthAdjust="spacing" textLength="389" x="1246" y="63.0234">&#171;/reporting/prepare-monthly-utilisation/report/:date&gt;&#187;</text><text fill="#000000" font-family="sans-serif" font-size="14" lengthAdjust="spacing" textLength="223" x="1329" y="79.5117">PrepareMonthlyUtilisationReport</text><rect fill="#E2E2F0" height="46.9766" rx="2.5" ry="2.5" style="stroke:#181818;stroke-width:0.5;" width="239" x="1652" y="42.4883"/><text fill="#000000" font-family="sans-serif" font-size="14" font-style="italic" lengthAdjust="spacing" textLength="225" x="1659" y="63.0234">&#171;/reporting/monthly-utilisation&#187;</text><text fill="#000000" font-family="sans-serif" font-size="14" lengthAdjust="spacing" textLength="225" x="1659" y="79.5117">ViewMonthlyUtilisationFormPage</text><rect fill="#E2E2F0" height="30.4883" rx="2.5" ry="2.5" style="stroke:#181818;stroke-width:0.5;" width="216" x="1901" y="58.9766"/><text fill="#000000" font-family="sans-serif" font-size="14" lengthAdjust="spacing" textLength="202" x="1908" y="79.5117">ViewMonthlyUtilisationReport</text><rect fill="#E2E2F0" height="46.9766" rx="2.5" ry="2.5" style="stroke:#181818;stroke-width:0.5;" width="134" x="2127" y="42.4883"/><text fill="#000000" font-family="sans-serif" font-size="14" font-style="italic" lengthAdjust="spacing" textLength="56" x="2166" y="63.0234">&#171;/error&#187;</text><text fill="#000000" font-family="sans-serif" font-size="14" lengthAdjust="spacing" textLength="120" x="2134" y="79.5117">GenericErrorPage</text><rect fill="#FFFFE0" height="46.9766" rx="2.5" ry="2.5" style="stroke:#181818;stroke-width:0.5;" width="246" x="2271" y="42.4883"/><text fill="#000000" font-family="sans-serif" font-size="14" font-style="italic" lengthAdjust="spacing" textLength="232" x="2278" y="63.0234">&#171;monthly-utilisation.controller.js&#187;</text><text fill="#000000" font-family="sans-serif" font-size="14" lengthAdjust="spacing" textLength="194" x="2297" y="79.5117">MonthlyUtilisationController</text><rect fill="#FFFFE0" height="46.9766" rx="2.5" ry="2.5" style="stroke:#181818;stroke-width:0.5;" width="226" x="2527" y="42.4883"/><text fill="#000000" font-family="sans-serif" font-size="14" font-style="italic" lengthAdjust="spacing" textLength="212" x="2534" y="63.0234">&#171;standard-report.controller.js&#187;</text><text fill="#000000" font-family="sans-serif" font-size="14" lengthAdjust="spacing" textLength="178" x="2551" y="79.5117">StandardReportController</text><rect fill="#FFFFE0" height="46.9766" rx="2.5" ry="2.5" style="stroke:#181818;stroke-width:0.5;" width="280" x="2763" y="42.4883"/><text fill="#000000" font-family="sans-serif" font-size="14" font-style="italic" lengthAdjust="spacing" textLength="266" x="2770" y="63.0234">&#171;generateMonthlyUtilisationDAO.get()&#187;</text><text fill="#000000" font-family="sans-serif" font-size="14" lengthAdjust="spacing" textLength="230" x="2788" y="79.5117">GenerateMonthlyUtilisationObject</text><rect fill="#FFFFE0" height="46.9766" rx="2.5" ry="2.5" style="stroke:#181818;stroke-width:0.5;" width="249" x="3053" y="42.4883"/><text fill="#000000" font-family="sans-serif" font-size="14" font-style="italic" lengthAdjust="spacing" textLength="235" x="3060" y="63.0234">&#171;viewMonthlyUtilisationDAO.get()&#187;</text><text fill="#000000" font-family="sans-serif" font-size="14" lengthAdjust="spacing" textLength="200" x="3077.5" y="79.5117">ViewMonthlyUtilisationObject</text><rect fill="#FFD700" height="30.4883" rx="2.5" ry="2.5" style="stroke:#181818;stroke-width:0.5;" width="200" x="3312" y="58.9766"/><text fill="#000000" font-family="sans-serif" font-size="14" lengthAdjust="spacing" textLength="186" x="3319" y="79.5117">MonthlyUtilisationValidator</text><rect fill="#E2E2F0" height="46.9766" rx="2.5" ry="2.5" style="stroke:#181818;stroke-width:0.5;" width="343" x="3522" y="42.4883"/><text fill="#000000" font-family="sans-serif" font-size="14" font-style="italic" lengthAdjust="spacing" textLength="329" x="3529" y="63.0234">&#171;reporting/standard-reports/month-select.njk&#187;</text><text fill="#000000" font-family="sans-serif" font-size="14" lengthAdjust="spacing" textLength="148" x="3619.5" y="79.5117">MonthSelectTemplate</text><rect fill="#E2E2F0" height="46.9766" rx="2.5" ry="2.5" style="stroke:#181818;stroke-width:0.5;" width="379" x="3875" y="42.4883"/><text fill="#000000" font-family="sans-serif" font-size="14" font-style="italic" lengthAdjust="spacing" textLength="365" x="3882" y="63.0234">&#171;reporting/monthly-utilisation/confirm-prepare.njk&#187;</text><text fill="#000000" font-family="sans-serif" font-size="14" lengthAdjust="spacing" textLength="173" x="3978" y="79.5117">ConfirmPrepareTemplate</text><rect fill="#E2E2F0" height="46.9766" rx="2.5" ry="2.5" style="stroke:#181818;stroke-width:0.5;" width="363" x="4264" y="42.4883"/><text fill="#000000" font-family="sans-serif" font-size="14" font-style="italic" lengthAdjust="spacing" textLength="349" x="4271" y="63.0234">&#171;reporting/standard-reports/standard-report.njk&#187;</text><text fill="#000000" font-family="sans-serif" font-size="14" lengthAdjust="spacing" textLength="172" x="4359.5" y="79.5117">StandardReportTemplate</text><rect fill="#E6E6FA" height="46.9766" rx="2.5" ry="2.5" style="stroke:#181818;stroke-width:0.5;" width="160" x="4637" y="42.4883"/><text fill="#000000" font-family="sans-serif" font-size="14" font-style="italic" lengthAdjust="spacing" textLength="146" x="4644" y="63.0234">&#171;_errors/generic.njk&#187;</text><text fill="#000000" font-family="sans-serif" font-size="14" lengthAdjust="spacing" textLength="99" x="4667.5" y="79.5117">ErrorTemplate</text><rect fill="#E2E2F0" height="30.4883" rx="2.5" ry="2.5" style="stroke:#181818;stroke-width:0.5;" width="141" x="4807" y="58.9766"/><text fill="#000000" font-family="sans-serif" font-size="14" lengthAdjust="spacing" textLength="127" x="4814" y="79.5117">BackendController</text><polygon fill="#181818" points="419.5,117.7754,429.5,121.7754,419.5,125.7754" style="stroke:#181818;stroke-width:1.0;"/><line style="stroke:#181818;stroke-width:1.0;" x1="45.5" x2="425.5" y1="121.7754" y2="121.7754"/><text fill="#000000" font-family="sans-serif" font-size="13" lengthAdjust="spacing" textLength="362" x="57.5" y="117.0332">click 'Prepare monthly wastage and utilisation report' link</text><polygon fill="#181818" points="2382,147.0859,2392,151.0859,2382,155.0859" style="stroke:#181818;stroke-width:1.0;"/><line style="stroke:#181818;stroke-width:1.0;" x1="431.5" x2="2388" y1="151.0859" y2="151.0859"/><text fill="#000000" font-family="sans-serif" font-size="13" lengthAdjust="spacing" textLength="121" x="1352.25" y="146.3438">call page controller</text><polygon fill="#181818" points="3681.5,176.3965,3691.5,180.3965,3681.5,184.3965" style="stroke:#181818;stroke-width:1.0;"/><line style="stroke:#181818;stroke-width:1.0;" x1="2394" x2="3687.5" y1="180.3965" y2="180.3965"/><text fill="#000000" font-family="sans-serif" font-size="13" lengthAdjust="spacing" textLength="169" x="2959.25" y="175.6543">request and build template</text><polygon fill="#181818" points="2405,205.707,2395,209.707,2405,213.707" style="stroke:#181818;stroke-width:1.0;"/><line style="stroke:#181818;stroke-width:1.0;" x1="2399" x2="3692.5" y1="209.707" y2="209.707"/><text fill="#000000" font-family="sans-serif" font-size="13" lengthAdjust="spacing" textLength="78" x="3004.75" y="204.9648">return HTML</text><polygon fill="#181818" points="679,235.0176,669,239.0176,679,243.0176" style="stroke:#181818;stroke-width:1.0;"/><line style="stroke:#181818;stroke-width:1.0;" x1="673" x2="2393" y1="239.0176" y2="239.0176"/><text fill="#000000" font-family="sans-serif" font-size="13" lengthAdjust="spacing" textLength="78" x="1492" y="234.2754">return HTML</text><polygon fill="#181818" points="56.5,264.3281,46.5,268.3281,56.5,272.3281" style="stroke:#181818;stroke-width:1.0;"/><line style="stroke:#181818;stroke-width:1.0;" x1="50.5" x2="667" y1="268.3281" y2="268.3281"/><text fill="#000000" font-family="sans-serif" font-size="13" lengthAdjust="spacing" textLength="80" x="316.75" y="263.5859">render HTML</text><polygon fill="#181818" points="656,293.6387,666,297.6387,656,301.6387" style="stroke:#181818;stroke-width:1.0;"/><line style="stroke:#181818;stroke-width:1.0;" x1="45.5" x2="662" y1="297.6387" y2="297.6387"/><text fill="#000000" font-family="sans-serif" font-size="13" lengthAdjust="spacing" textLength="256" x="228.75" y="292.8965">select month and click 'Continue' button</text><polygon fill="#181818" points="2382,322.9492,2392,326.9492,2382,330.9492" style="stroke:#181818;stroke-width:1.0;"/><line style="stroke:#181818;stroke-width:1.0;" x1="668" x2="2388" y1="326.9492" y2="326.9492"/><text fill="#000000" font-family="sans-serif" font-size="13" lengthAdjust="spacing" textLength="121" x="1470.5" y="322.207">call page controller</text><polygon fill="#181818" points="3400,352.2598,3410,356.2598,3400,360.2598" style="stroke:#181818;stroke-width:1.0;"/><line style="stroke:#181818;stroke-width:1.0;" x1="2394" x2="3406" y1="356.2598" y2="356.2598"/><text fill="#000000" font-family="sans-serif" font-size="13" lengthAdjust="spacing" textLength="95" x="2855.5" y="351.5176">validate details</text><path d="M10,371.2598 L72,371.2598 L72,378.5703 L62,388.5703 L10,388.5703 L10,371.2598 " fill="#EEEEEE" style="stroke:#000000;stroke-width:1.5;"/><rect fill="none" height="163.8633" style="stroke:#000000;stroke-width:1.5;" width="3865" x="10" y="371.2598"/><text fill="#000000" font-family="sans-serif" font-size="13" font-weight="bold" lengthAdjust="spacing" textLength="17" x="25" y="384.8281">alt</text><text fill="#000000" font-family="sans-serif" font-size="11" font-weight="bold" lengthAdjust="spacing" textLength="80" x="87" y="383.8945">[Invalid input]</text><polygon fill="#181818" points="2405,405.8809,2395,409.8809,2405,413.8809" style="stroke:#181818;stroke-width:1.0;"/><line style="stroke:#181818;stroke-width:1.0;" x1="2399" x2="3411" y1="409.8809" y2="409.8809"/><text fill="#000000" font-family="sans-serif" font-size="13" lengthAdjust="spacing" textLength="79" x="2863.5" y="405.1387">Invalid input</text><polygon fill="#181818" points="3681.5,435.1914,3691.5,439.1914,3681.5,443.1914" style="stroke:#181818;stroke-width:1.0;"/><line style="stroke:#181818;stroke-width:1.0;" x1="2394" x2="3687.5" y1="439.1914" y2="439.1914"/><text fill="#000000" font-family="sans-serif" font-size="13" lengthAdjust="spacing" textLength="169" x="2959.25" y="434.4492">request and build template</text><polygon fill="#181818" points="2405,464.502,2395,468.502,2405,472.502" style="stroke:#181818;stroke-width:1.0;"/><line style="stroke:#181818;stroke-width:1.0;" x1="2399" x2="3692.5" y1="468.502" y2="468.502"/><text fill="#000000" font-family="sans-serif" font-size="13" lengthAdjust="spacing" textLength="78" x="3004.75" y="463.7598">return HTML</text><polygon fill="#181818" points="679,493.8125,669,497.8125,679,501.8125" style="stroke:#181818;stroke-width:1.0;"/><line style="stroke:#181818;stroke-width:1.0;" x1="673" x2="2393" y1="497.8125" y2="497.8125"/><text fill="#000000" font-family="sans-serif" font-size="13" lengthAdjust="spacing" textLength="112" x="1475" y="493.0703">return error HTML</text><polygon fill="#181818" points="56.5,523.123,46.5,527.123,56.5,531.123" style="stroke:#181818;stroke-width:1.0;"/><line style="stroke:#181818;stroke-width:1.0;" x1="50.5" x2="667" y1="527.123" y2="527.123"/><text fill="#000000" font-family="sans-serif" font-size="13" lengthAdjust="spacing" textLength="133" x="290.25" y="522.3809">render error message</text><polygon fill="#181818" points="2405,559.4336,2395,563.4336,2405,567.4336" style="stroke:#181818;stroke-width:1.0;"/><line style="stroke:#181818;stroke-width:1.0;" x1="2399" x2="3411" y1="563.4336" y2="563.4336"/><text fill="#000000" font-family="sans-serif" font-size="13" lengthAdjust="spacing" textLength="127" x="2839.5" y="558.6914">valid details entered</text><polygon fill="#181818" points="4052.5,588.7441,4062.5,592.7441,4052.5,596.7441" style="stroke:#181818;stroke-width:1.0;"/><line style="stroke:#181818;stroke-width:1.0;" x1="2394" x2="4058.5" y1="592.7441" y2="592.7441"/><text fill="#000000" font-family="sans-serif" font-size="13" lengthAdjust="spacing" textLength="169" x="3144.75" y="588.002">request and build template</text><polygon fill="#181818" points="2405,618.0547,2395,622.0547,2405,626.0547" style="stroke:#181818;stroke-width:1.0;"/><line style="stroke:#181818;stroke-width:1.0;" x1="2399" x2="4063.5" y1="622.0547" y2="622.0547"/><text fill="#000000" font-family="sans-serif" font-size="13" lengthAdjust="spacing" textLength="78" x="3190.25" y="617.3125">return HTML</text><polygon fill="#181818" points="1039.5,647.3652,1029.5,651.3652,1039.5,655.3652" style="stroke:#181818;stroke-width:1.0;"/><line style="stroke:#181818;stroke-width:1.0;" x1="1033.5" x2="2393" y1="651.3652" y2="651.3652"/><text fill="#000000" font-family="sans-serif" font-size="13" lengthAdjust="spacing" textLength="78" x="1672.25" y="646.623">return HTML</text><polygon fill="#181818" points="56.5,676.6758,46.5,680.6758,56.5,684.6758" style="stroke:#181818;stroke-width:1.0;"/><line style="stroke:#181818;stroke-width:1.0;" x1="50.5" x2="1027.5" y1="680.6758" y2="680.6758"/><text fill="#000000" font-family="sans-serif" font-size="13" lengthAdjust="spacing" textLength="80" x="497" y="675.9336">render HTML</text><polygon fill="#181818" points="1016.5,705.9863,1026.5,709.9863,1016.5,713.9863" style="stroke:#181818;stroke-width:1.0;"/><line style="stroke:#181818;stroke-width:1.0;" x1="45.5" x2="1022.5" y1="709.9863" y2="709.9863"/><text fill="#000000" font-family="sans-serif" font-size="13" lengthAdjust="spacing" textLength="171" x="451.5" y="705.2441">click 'Yes - prepare' button</text><polygon fill="#181818" points="2382,735.2969,2392,739.2969,2382,743.2969" style="stroke:#181818;stroke-width:1.0;"/><line style="stroke:#181818;stroke-width:1.0;" x1="1028.5" x2="2388" y1="739.2969" y2="739.2969"/><text fill="#000000" font-family="sans-serif" font-size="13" lengthAdjust="spacing" textLength="121" x="1650.75" y="734.5547">call page controller</text><polygon fill="#181818" points="2628,764.6074,2638,768.6074,2628,772.6074" style="stroke:#181818;stroke-width:1.0;"/><line style="stroke:#181818;stroke-width:1.0;" x1="2394" x2="2634" y1="768.6074" y2="768.6074"/><text fill="#000000" font-family="sans-serif" font-size="13" lengthAdjust="spacing" textLength="188" x="2423" y="763.8652">call standard report controller</text><polygon fill="#181818" points="2891,793.918,2901,797.918,2891,801.918" style="stroke:#181818;stroke-width:1.0;"/><line style="stroke:#181818;stroke-width:1.0;" x1="2640" x2="2897" y1="797.918" y2="797.918"/><text fill="#000000" font-family="sans-serif" font-size="13" lengthAdjust="spacing" textLength="126" x="2708.5" y="793.1758">build request object</text><polygon fill="#181818" points="4865.5,823.2285,4875.5,827.2285,4865.5,831.2285" style="stroke:#181818;stroke-width:1.0;"/><line style="stroke:#181818;stroke-width:1.0;" x1="2903" x2="4871.5" y1="827.2285" y2="827.2285"/><text fill="#000000" font-family="sans-serif" font-size="13" lengthAdjust="spacing" textLength="138" x="3821.25" y="822.4863">send backend request</text><path d="M10,842.2285 L72,842.2285 L72,849.5391 L62,859.5391 L10,859.5391 L10,842.2285 " fill="#EEEEEE" style="stroke:#000000;stroke-width:1.5;"/><rect fill="none" height="193.1738" style="stroke:#000000;stroke-width:1.5;" width="4948" x="10" y="842.2285"/><text fill="#000000" font-family="sans-serif" font-size="13" font-weight="bold" lengthAdjust="spacing" textLength="17" x="25" y="855.7969">alt</text><text fill="#000000" font-family="sans-serif" font-size="11" font-weight="bold" lengthAdjust="spacing" textLength="205" x="87" y="854.8633">[Failed to fetch standard report data]</text><polygon fill="#181818" points="2914,876.8496,2904,880.8496,2914,884.8496" style="stroke:#181818;stroke-width:1.0;"/><line style="stroke:#181818;stroke-width:1.0;stroke-dasharray:2.0,2.0;" x1="2908" x2="4876.5" y1="880.8496" y2="880.8496"/><text fill="#000000" font-family="sans-serif" font-size="13" lengthAdjust="spacing" textLength="91" x="3844.75" y="876.1074">Error response</text><polygon fill="#181818" points="2651,906.1602,2641,910.1602,2651,914.1602" style="stroke:#181818;stroke-width:1.0;"/><line style="stroke:#181818;stroke-width:1.0;stroke-dasharray:2.0,2.0;" x1="2645" x2="2902" y1="910.1602" y2="910.1602"/><text fill="#000000" font-family="sans-serif" font-size="13" lengthAdjust="spacing" textLength="127" x="2708" y="905.418">reject requestObject</text><polygon fill="#181818" points="4705,935.4707,4715,939.4707,4705,943.4707" style="stroke:#181818;stroke-width:1.0;"/><line style="stroke:#181818;stroke-width:1.0;" x1="2640" x2="4711" y1="939.4707" y2="939.4707"/><text fill="#000000" font-family="sans-serif" font-size="13" lengthAdjust="spacing" textLength="169" x="3594" y="934.7285">request and build template</text><polygon fill="#181818" points="2651,964.7813,2641,968.7813,2651,972.7813" style="stroke:#181818;stroke-width:1.0;"/><line style="stroke:#181818;stroke-width:1.0;" x1="2645" x2="4716" y1="968.7813" y2="968.7813"/><text fill="#000000" font-family="sans-serif" font-size="13" lengthAdjust="spacing" textLength="78" x="3639.5" y="964.0391">return HTML</text><polygon fill="#181818" points="2205,994.0918,2195,998.0918,2205,1002.0918" style="stroke:#181818;stroke-width:1.0;"/><line style="stroke:#181818;stroke-width:1.0;" x1="2199" x2="2639" y1="998.0918" y2="998.0918"/><text fill="#000000" font-family="sans-serif" font-size="13" lengthAdjust="spacing" textLength="78" x="2378" y="993.3496">return HTML</text><polygon fill="#181818" points="56.5,1023.4023,46.5,1027.4023,56.5,1031.4023" style="stroke:#181818;stroke-width:1.0;"/><line style="stroke:#181818;stroke-width:1.0;" x1="50.5" x2="2193" y1="1027.4023" y2="1027.4023"/><text fill="#000000" font-family="sans-serif" font-size="13" lengthAdjust="spacing" textLength="108" x="1065.75" y="1022.6602">render error page</text><polygon fill="#181818" points="2914,1059.7129,2904,1063.7129,2914,1067.7129" style="stroke:#181818;stroke-width:1.0;"/><line style="stroke:#181818;stroke-width:1.0;" x1="2908" x2="4876.5" y1="1063.7129" y2="1063.7129"/><text fill="#000000" font-family="sans-serif" font-size="13" lengthAdjust="spacing" textLength="77" x="3851.75" y="1058.9707">ok response</text><polygon fill="#181818" points="2651,1089.0234,2641,1093.0234,2651,1097.0234" style="stroke:#181818;stroke-width:1.0;"/><line style="stroke:#181818;stroke-width:1.0;" x1="2645" x2="2902" y1="1093.0234" y2="1093.0234"/><text fill="#000000" font-family="sans-serif" font-size="13" lengthAdjust="spacing" textLength="96" x="2723.5" y="1088.2813">resolve request</text><polygon fill="#181818" points="4433.5,1118.334,4443.5,1122.334,4433.5,1126.334" style="stroke:#181818;stroke-width:1.0;"/><line style="stroke:#181818;stroke-width:1.0;" x1="2640" x2="4439.5" y1="1122.334" y2="1122.334"/><text fill="#000000" font-family="sans-serif" font-size="13" lengthAdjust="spacing" textLength="169" x="3458.25" y="1117.5918">request and build template</text><polygon fill="#181818" points="2651,1147.6445,2641,1151.6445,2651,1155.6445" style="stroke:#181818;stroke-width:1.0;"/><line style="stroke:#181818;stroke-width:1.0;" x1="2645" x2="4444.5" y1="1151.6445" y2="1151.6445"/><text fill="#000000" font-family="sans-serif" font-size="13" lengthAdjust="spacing" textLength="78" x="3503.75" y="1146.9023">return HTML</text><polygon fill="#181818" points="1451.5,1176.9551,1441.5,1180.9551,1451.5,1184.9551" style="stroke:#181818;stroke-width:1.0;"/><line style="stroke:#181818;stroke-width:1.0;" x1="1445.5" x2="2639" y1="1180.9551" y2="1180.9551"/><text fill="#000000" font-family="sans-serif" font-size="13" lengthAdjust="spacing" textLength="78" x="2001.25" y="1176.2129">return HTML</text><polygon fill="#181818" points="56.5,1206.2656,46.5,1210.2656,56.5,1214.2656" style="stroke:#181818;stroke-width:1.0;"/><line style="stroke:#181818;stroke-width:1.0;" x1="50.5" x2="1439.5" y1="1210.2656" y2="1210.2656"/><text fill="#000000" font-family="sans-serif" font-size="13" lengthAdjust="spacing" textLength="80" x="703" y="1205.5234">render HTML</text><polygon fill="#181818" points="419.5,1235.5762,429.5,1239.5762,419.5,1243.5762" style="stroke:#181818;stroke-width:1.0;"/><line style="stroke:#181818;stroke-width:1.0;" x1="45.5" x2="425.5" y1="1239.5762" y2="1239.5762"/><text fill="#000000" font-family="sans-serif" font-size="13" lengthAdjust="spacing" textLength="345" x="66" y="1234.834">click 'View monthly wastage and utilisation report' link</text><polygon fill="#181818" points="2382,1264.8867,2392,1268.8867,2382,1272.8867" style="stroke:#181818;stroke-width:1.0;"/><line style="stroke:#181818;stroke-width:1.0;" x1="431.5" x2="2388" y1="1268.8867" y2="1268.8867"/><text fill="#000000" font-family="sans-serif" font-size="13" lengthAdjust="spacing" textLength="121" x="1352.25" y="1264.1445">call page controller</text><polygon fill="#181818" points="3681.5,1294.1973,3691.5,1298.1973,3681.5,1302.1973" style="stroke:#181818;stroke-width:1.0;"/><line style="stroke:#181818;stroke-width:1.0;" x1="2394" x2="3687.5" y1="1298.1973" y2="1298.1973"/><text fill="#000000" font-family="sans-serif" font-size="13" lengthAdjust="spacing" textLength="169" x="2959.25" y="1293.4551">request and build template</text><polygon fill="#181818" points="2405,1323.5078,2395,1327.5078,2405,1331.5078" style="stroke:#181818;stroke-width:1.0;"/><line style="stroke:#181818;stroke-width:1.0;" x1="2399" x2="3692.5" y1="1327.5078" y2="1327.5078"/><text fill="#000000" font-family="sans-serif" font-size="13" lengthAdjust="spacing" textLength="78" x="3004.75" y="1322.7656">return HTML</text><polygon fill="#181818" points="1782.5,1352.8184,1772.5,1356.8184,1782.5,1360.8184" style="stroke:#181818;stroke-width:1.0;"/><line style="stroke:#181818;stroke-width:1.0;" x1="1776.5" x2="2393" y1="1356.8184" y2="1356.8184"/><text fill="#000000" font-family="sans-serif" font-size="13" lengthAdjust="spacing" textLength="78" x="2043.75" y="1352.0762">return HTML</text><polygon fill="#181818" points="56.5,1382.1289,46.5,1386.1289,56.5,1390.1289" style="stroke:#181818;stroke-width:1.0;"/><line style="stroke:#181818;stroke-width:1.0;" x1="50.5" x2="1770.5" y1="1386.1289" y2="1386.1289"/><text fill="#000000" font-family="sans-serif" font-size="13" lengthAdjust="spacing" textLength="80" x="868.5" y="1381.3867">render HTML</text><polygon fill="#181818" points="1759.5,1411.4395,1769.5,1415.4395,1759.5,1419.4395" style="stroke:#181818;stroke-width:1.0;"/><line style="stroke:#181818;stroke-width:1.0;" x1="45.5" x2="1765.5" y1="1415.4395" y2="1415.4395"/><text fill="#000000" font-family="sans-serif" font-size="13" lengthAdjust="spacing" textLength="256" x="780.5" y="1410.6973">select month and click 'Continue' button</text><polygon fill="#181818" points="2382,1440.75,2392,1444.75,2382,1448.75" style="stroke:#181818;stroke-width:1.0;"/><line style="stroke:#181818;stroke-width:1.0;" x1="1771.5" x2="2388" y1="1444.75" y2="1444.75"/><text fill="#000000" font-family="sans-serif" font-size="13" lengthAdjust="spacing" textLength="121" x="2022.25" y="1440.0078">call page controller</text><polygon fill="#181818" points="3400,1470.0605,3410,1474.0605,3400,1478.0605" style="stroke:#181818;stroke-width:1.0;"/><line style="stroke:#181818;stroke-width:1.0;" x1="2394" x2="3406" y1="1474.0605" y2="1474.0605"/><text fill="#000000" font-family="sans-serif" font-size="13" lengthAdjust="spacing" textLength="95" x="2855.5" y="1469.3184">validate details</text><path d="M10,1489.0605 L72,1489.0605 L72,1496.3711 L62,1506.3711 L10,1506.3711 L10,1489.0605 " fill="#EEEEEE" style="stroke:#000000;stroke-width:1.5;"/><rect fill="none" height="163.8633" style="stroke:#000000;stroke-width:1.5;" width="3865" x="10" y="1489.0605"/><text fill="#000000" font-family="sans-serif" font-size="13" font-weight="bold" lengthAdjust="spacing" textLength="17" x="25" y="1502.6289">alt</text><text fill="#000000" font-family="sans-serif" font-size="11" font-weight="bold" lengthAdjust="spacing" textLength="80" x="87" y="1501.6953">[Invalid input]</text><polygon fill="#181818" points="2405,1523.6816,2395,1527.6816,2405,1531.6816" style="stroke:#181818;stroke-width:1.0;"/><line style="stroke:#181818;stroke-width:1.0;" x1="2399" x2="3411" y1="1527.6816" y2="1527.6816"/><text fill="#000000" font-family="sans-serif" font-size="13" lengthAdjust="spacing" textLength="79" x="2863.5" y="1522.9395">Invalid input</text><polygon fill="#181818" points="3681.5,1552.9922,3691.5,1556.9922,3681.5,1560.9922" style="stroke:#181818;stroke-width:1.0;"/><line style="stroke:#181818;stroke-width:1.0;" x1="2394" x2="3687.5" y1="1556.9922" y2="1556.9922"/><text fill="#000000" font-family="sans-serif" font-size="13" lengthAdjust="spacing" textLength="169" x="2959.25" y="1552.25">request and build template</text><polygon fill="#181818" points="2405,1582.3027,2395,1586.3027,2405,1590.3027" style="stroke:#181818;stroke-width:1.0;"/><line style="stroke:#181818;stroke-width:1.0;" x1="2399" x2="3692.5" y1="1586.3027" y2="1586.3027"/><text fill="#000000" font-family="sans-serif" font-size="13" lengthAdjust="spacing" textLength="78" x="3004.75" y="1581.5605">return HTML</text><polygon fill="#181818" points="1782.5,1611.6133,1772.5,1615.6133,1782.5,1619.6133" style="stroke:#181818;stroke-width:1.0;"/><line style="stroke:#181818;stroke-width:1.0;" x1="1776.5" x2="2393" y1="1615.6133" y2="1615.6133"/><text fill="#000000" font-family="sans-serif" font-size="13" lengthAdjust="spacing" textLength="112" x="2026.75" y="1610.8711">return error HTML</text><polygon fill="#181818" points="56.5,1640.9238,46.5,1644.9238,56.5,1648.9238" style="stroke:#181818;stroke-width:1.0;"/><line style="stroke:#181818;stroke-width:1.0;" x1="50.5" x2="1770.5" y1="1644.9238" y2="1644.9238"/><text fill="#000000" font-family="sans-serif" font-size="13" lengthAdjust="spacing" textLength="133" x="842" y="1640.1816">render error message</text><polygon fill="#181818" points="2405,1677.2344,2395,1681.2344,2405,1685.2344" style="stroke:#181818;stroke-width:1.0;"/><line style="stroke:#181818;stroke-width:1.0;" x1="2399" x2="3411" y1="1681.2344" y2="1681.2344"/><text fill="#000000" font-family="sans-serif" font-size="13" lengthAdjust="spacing" textLength="127" x="2839.5" y="1676.4922">valid details entered</text><polygon fill="#181818" points="2628,1706.5449,2638,1710.5449,2628,1714.5449" style="stroke:#181818;stroke-width:1.0;"/><line style="stroke:#181818;stroke-width:1.0;" x1="2394" x2="2634" y1="1710.5449" y2="1710.5449"/><text fill="#000000" font-family="sans-serif" font-size="13" lengthAdjust="spacing" textLength="188" x="2423" y="1705.8027">call standard report controller</text><polygon fill="#181818" points="3165.5,1735.8555,3175.5,1739.8555,3165.5,1743.8555" style="stroke:#181818;stroke-width:1.0;"/><line style="stroke:#181818;stroke-width:1.0;" x1="2640" x2="3171.5" y1="1739.8555" y2="1739.8555"/><text fill="#000000" font-family="sans-serif" font-size="13" lengthAdjust="spacing" textLength="126" x="2845.75" y="1735.1133">build request object</text><polygon fill="#181818" points="4865.5,1765.166,4875.5,1769.166,4865.5,1773.166" style="stroke:#181818;stroke-width:1.0;"/><line style="stroke:#181818;stroke-width:1.0;" x1="3177.5" x2="4871.5" y1="1769.166" y2="1769.166"/><text fill="#000000" font-family="sans-serif" font-size="13" lengthAdjust="spacing" textLength="138" x="3958.5" y="1764.4238">send backend request</text><path d="M10,1784.166 L72,1784.166 L72,1791.4766 L62,1801.4766 L10,1801.4766 L10,1784.166 " fill="#EEEEEE" style="stroke:#000000;stroke-width:1.5;"/><rect fill="none" height="193.1738" style="stroke:#000000;stroke-width:1.5;" width="4948" x="10" y="1784.166"/><text fill="#000000" font-family="sans-serif" font-size="13" font-weight="bold" lengthAdjust="spacing" textLength="17" x="25" y="1797.7344">alt</text><text fill="#000000" font-family="sans-serif" font-size="11" font-weight="bold" lengthAdjust="spacing" textLength="205" x="87" y="1796.8008">[Failed to fetch standard report data]</text><polygon fill="#181818" points="3188.5,1818.7871,3178.5,1822.7871,3188.5,1826.7871" style="stroke:#181818;stroke-width:1.0;"/><line style="stroke:#181818;stroke-width:1.0;stroke-dasharray:2.0,2.0;" x1="3182.5" x2="4876.5" y1="1822.7871" y2="1822.7871"/><text fill="#000000" font-family="sans-serif" font-size="13" lengthAdjust="spacing" textLength="91" x="3982" y="1818.0449">Error response</text><polygon fill="#181818" points="2651,1848.0977,2641,1852.0977,2651,1856.0977" style="stroke:#181818;stroke-width:1.0;"/><line style="stroke:#181818;stroke-width:1.0;stroke-dasharray:2.0,2.0;" x1="2645" x2="3176.5" y1="1852.0977" y2="1852.0977"/><text fill="#000000" font-family="sans-serif" font-size="13" lengthAdjust="spacing" textLength="127" x="2845.25" y="1847.3555">reject requestObject</text><polygon fill="#181818" points="4705,1877.4082,4715,1881.4082,4705,1885.4082" style="stroke:#181818;stroke-width:1.0;"/><line style="stroke:#181818;stroke-width:1.0;" x1="2640" x2="4711" y1="1881.4082" y2="1881.4082"/><text fill="#000000" font-family="sans-serif" font-size="13" lengthAdjust="spacing" textLength="169" x="3594" y="1876.666">request and build template</text><polygon fill="#181818" points="2651,1906.7188,2641,1910.7188,2651,1914.7188" style="stroke:#181818;stroke-width:1.0;"/><line style="stroke:#181818;stroke-width:1.0;" x1="2645" x2="4716" y1="1910.7188" y2="1910.7188"/><text fill="#000000" font-family="sans-serif" font-size="13" lengthAdjust="spacing" textLength="78" x="3639.5" y="1905.9766">return HTML</text><polygon fill="#181818" points="2205,1936.0293,2195,1940.0293,2205,1944.0293" style="stroke:#181818;stroke-width:1.0;"/><line style="stroke:#181818;stroke-width:1.0;" x1="2199" x2="2639" y1="1940.0293" y2="1940.0293"/><text fill="#000000" font-family="sans-serif" font-size="13" lengthAdjust="spacing" textLength="78" x="2378" y="1935.2871">return HTML</text><polygon fill="#181818" points="56.5,1965.3398,46.5,1969.3398,56.5,1973.3398" style="stroke:#181818;stroke-width:1.0;"/><line style="stroke:#181818;stroke-width:1.0;" x1="50.5" x2="2193" y1="1969.3398" y2="1969.3398"/><text fill="#000000" font-family="sans-serif" font-size="13" lengthAdjust="spacing" textLength="108" x="1065.75" y="1964.5977">render error page</text><polygon fill="#181818" points="3188.5,2001.6504,3178.5,2005.6504,3188.5,2009.6504" style="stroke:#181818;stroke-width:1.0;"/><line style="stroke:#181818;stroke-width:1.0;" x1="3182.5" x2="4876.5" y1="2005.6504" y2="2005.6504"/><text fill="#000000" font-family="sans-serif" font-size="13" lengthAdjust="spacing" textLength="77" x="3989" y="2000.9082">ok response</text><polygon fill="#181818" points="2651,2030.9609,2641,2034.9609,2651,2038.9609" style="stroke:#181818;stroke-width:1.0;"/><line style="stroke:#181818;stroke-width:1.0;" x1="2645" x2="3176.5" y1="2034.9609" y2="2034.9609"/><text fill="#000000" font-family="sans-serif" font-size="13" lengthAdjust="spacing" textLength="96" x="2860.75" y="2030.2188">resolve request</text><polygon fill="#181818" points="4433.5,2060.2715,4443.5,2064.2715,4433.5,2068.2715" style="stroke:#181818;stroke-width:1.0;"/><line style="stroke:#181818;stroke-width:1.0;" x1="2640" x2="4439.5" y1="2064.2715" y2="2064.2715"/><text fill="#000000" font-family="sans-serif" font-size="13" lengthAdjust="spacing" textLength="169" x="3458.25" y="2059.5293">request and build template</text><polygon fill="#181818" points="2651,2089.582,2641,2093.582,2651,2097.582" style="stroke:#181818;stroke-width:1.0;"/><line style="stroke:#181818;stroke-width:1.0;" x1="2645" x2="4444.5" y1="2093.582" y2="2093.582"/><text fill="#000000" font-family="sans-serif" font-size="13" lengthAdjust="spacing" textLength="78" x="3503.75" y="2088.8398">return HTML</text><polygon fill="#181818" points="2020,2118.8926,2010,2122.8926,2020,2126.8926" style="stroke:#181818;stroke-width:1.0;"/><line style="stroke:#181818;stroke-width:1.0;" x1="2014" x2="2639" y1="2122.8926" y2="2122.8926"/><text fill="#000000" font-family="sans-serif" font-size="13" lengthAdjust="spacing" textLength="78" x="2285.5" y="2118.1504">return HTML</text><polygon fill="#181818" points="56.5,2148.2031,46.5,2152.2031,56.5,2156.2031" style="stroke:#181818;stroke-width:1.0;"/><line style="stroke:#181818;stroke-width:1.0;" x1="50.5" x2="2008" y1="2152.2031" y2="2152.2031"/><text fill="#000000" font-family="sans-serif" font-size="13" lengthAdjust="spacing" textLength="80" x="987.25" y="2147.4609">render HTML</text><!--SRC=[tLRRRjf047ttLqoJI2GIXlUeGdA84z6IE0KdKfygnqnWmxActZLH_hvZhxaOrfVGLghwWeHtvipicJapEsCJX4Hm9kOuiQnFJ8GyeKzJ51Ypq7xcKJYNdIKFX4eMtBBad8bb40SB6AjtZY0LcQL7i7k4FnCK8TwXbC4K7SwcOe52GKW_65kMOefyxoAXPlmT7XNZJ0QAHG96k8nY9IsBa1GBsP82WnEgYBnQhHOClRupX97tw0_kRmj6sdEi24VIH_b0aU7pvwxSVEdr2WuFCT9VpBFOIU8cYXThxpX3PMBQNMWxEzaQTfSQOW-u7uaNHX3wy4D8tL3xTYydWSAc2Ukh5uFaWBOfcBPQn-WLoNvY-FORdEpbR4RR95n0Mv5jWtoBwTxgJdNZE8hN2MBw9pLCEwRltViZRpXqH-3SNyF8_VReZdtmhhwuVNzSm3fCb4gfueXpZ0dNa5edt1XqNgd1u9HwVQRUaVFehO1DZIacGJpHLo_Wolp8rlTiZfdTdJWvpDjxViKm9NXQQdBjU9qfglEBgWXbfPER08ioYqRuvlROWA-CnwN8kk0tWw7lZiPPjP-SuU3QyRrHNQ6V0iwelQ8OJcyZFj58ldltC7Hyr-0yHauf-hYWqQZIfjksyLuvfLQ9BJEFZdYTLuuB8wH95Fcai7EX6u2BBTSir_rUF4JDbBO3zYDJc-pcAqDxK5s25Oe9vcFxokb_TQaUMp4MCA-2S4xMMrLOLZRpmUuPv_ebX9o5SsZbf45E4Bm5T04Q0dG9s24Bz6rQa2uwoxWfA5AL_2bYm3aiKzDm9yspEBlbcWy_Ii7Egv3QfWPgrs-ZYoqbjRQNeBjDyvAnaHEMvi54WYruJfIAX6NLhy7Zg3bRQKdXG2mJrOGIio2Fv-keufZLs3OizPs271vkElGxIh0X5-cMTSCRuJYQAtSMGPRjdHnkhVTS8SNUpYNjF0pwP7jU1jMkNKJjujHemybDm3XEG4NmWYgS7UH1fGzEIajOdebvvhNhtauKgU74IJVMVp1kgbzvEwrTRVY1GLFphlmdXqmTItzHVSt5L_M6EbfuVqftLU__2-iN]--></g></svg>