<?xml version="1.0" encoding="us-ascii" standalone="no"?><svg xmlns="http://www.w3.org/2000/svg" xmlns:xlink="http://www.w3.org/1999/xlink" contentStyleType="text/css" height="1967px" preserveAspectRatio="none" style="width:3487px;height:1967px;background:#FFFFFF;" version="1.1" viewBox="0 0 3487 1967" width="3487px" zoomAndPan="magnify"><defs/><g><rect fill="none" height="193.1738" style="stroke:#000000;stroke-width:1.5;" width="3367" x="20" y="187.2188"/><rect fill="none" height="812.6953" style="stroke:#000000;stroke-width:1.5;" width="3471" x="10" y="570.2559"/><rect fill="none" height="163.8633" style="stroke:#000000;stroke-width:1.5;" width="3451" x="20" y="858.3613"/><rect fill="none" height="193.1738" style="stroke:#000000;stroke-width:1.5;" width="3367" x="20" y="1124.1563"/><rect fill="none" height="546.9004" style="stroke:#000000;stroke-width:1.5;" width="3387" x="10" y="1396.9512"/><rect fill="none" height="193.1738" style="stroke:#000000;stroke-width:1.5;" width="3367" x="20" y="1685.0566"/><line style="stroke:#181818;stroke-width:0.5;stroke-dasharray:5.0,5.0;" x1="55" x2="55" y1="52.9766" y2="1960.8516"/><line style="stroke:#181818;stroke-width:0.5;stroke-dasharray:5.0,5.0;" x1="322" x2="322" y1="52.9766" y2="1960.8516"/><line style="stroke:#181818;stroke-width:0.5;stroke-dasharray:5.0,5.0;" x1="608" x2="608" y1="52.9766" y2="1960.8516"/><line style="stroke:#181818;stroke-width:0.5;stroke-dasharray:5.0,5.0;" x1="919" x2="919" y1="52.9766" y2="1960.8516"/><line style="stroke:#181818;stroke-width:0.5;stroke-dasharray:5.0,5.0;" x1="1151" x2="1151" y1="52.9766" y2="1960.8516"/><line style="stroke:#181818;stroke-width:0.5;stroke-dasharray:5.0,5.0;" x1="1343" x2="1343" y1="52.9766" y2="1960.8516"/><line style="stroke:#181818;stroke-width:0.5;stroke-dasharray:5.0,5.0;" x1="1564" x2="1564" y1="52.9766" y2="1960.8516"/><line style="stroke:#181818;stroke-width:0.5;stroke-dasharray:5.0,5.0;" x1="1769" x2="1769" y1="52.9766" y2="1960.8516"/><line style="stroke:#181818;stroke-width:0.5;stroke-dasharray:5.0,5.0;" x1="1984" x2="1984" y1="52.9766" y2="1960.8516"/><line style="stroke:#181818;stroke-width:0.5;stroke-dasharray:5.0,5.0;" x1="2242" x2="2242" y1="52.9766" y2="1960.8516"/><line style="stroke:#181818;stroke-width:0.5;stroke-dasharray:5.0,5.0;" x1="2553" x2="2553" y1="52.9766" y2="1960.8516"/><line style="stroke:#181818;stroke-width:0.5;stroke-dasharray:5.0,5.0;" x1="2889" x2="2889" y1="52.9766" y2="1960.8516"/><line style="stroke:#181818;stroke-width:0.5;stroke-dasharray:5.0,5.0;" x1="3146" x2="3146" y1="52.9766" y2="1960.8516"/><line style="stroke:#181818;stroke-width:0.5;stroke-dasharray:5.0,5.0;" x1="3306" x2="3306" y1="52.9766" y2="1960.8516"/><line style="stroke:#181818;stroke-width:0.5;stroke-dasharray:5.0,5.0;" x1="3424" x2="3424" y1="52.9766" y2="1960.8516"/><rect fill="#E2E2F0" height="30.4883" rx="2.5" ry="2.5" style="stroke:#181818;stroke-width:0.5;" width="51" x="30" y="21.4883"/><text fill="#000000" font-family="sans-serif" font-size="14" lengthAdjust="spacing" textLength="37" x="37" y="42.0234">Actor</text><rect fill="#E2E2F0" height="46.9766" rx="2.5" ry="2.5" style="stroke:#181818;stroke-width:0.5;" width="259" x="193" y="5"/><text fill="#000000" font-family="sans-serif" font-size="14" font-style="italic" lengthAdjust="spacing" textLength="245" x="200" y="25.5352">&#171;/administration/non-sitting-days&#187;</text><text fill="#000000" font-family="sans-serif" font-size="14" lengthAdjust="spacing" textLength="136" x="254.5" y="42.0234">NonsittingDaysPage</text><rect fill="#E2E2F0" height="46.9766" rx="2.5" ry="2.5" style="stroke:#181818;stroke-width:0.5;" width="293" x="462" y="5"/><text fill="#000000" font-family="sans-serif" font-size="14" font-style="italic" lengthAdjust="spacing" textLength="279" x="469" y="25.5352">&#171;/administration/add-non-sitting-days&#187;</text><text fill="#000000" font-family="sans-serif" font-size="14" lengthAdjust="spacing" textLength="164" x="526.5" y="42.0234">AddNonsittingDaysPage</text><rect fill="#E2E2F0" height="46.9766" rx="2.5" ry="2.5" style="stroke:#181818;stroke-width:0.5;" width="309" x="765" y="5"/><text fill="#000000" font-family="sans-serif" font-size="14" font-style="italic" lengthAdjust="spacing" textLength="295" x="772" y="25.5352">&#171;/administration/delete-non-sitting-days&#187;</text><text fill="#000000" font-family="sans-serif" font-size="14" lengthAdjust="spacing" textLength="179" x="830" y="42.0234">DeleteNonsittingDaysPage</text><rect fill="#E2E2F0" height="46.9766" rx="2.5" ry="2.5" style="stroke:#181818;stroke-width:0.5;" width="134" x="1084" y="5"/><text fill="#000000" font-family="sans-serif" font-size="14" font-style="italic" lengthAdjust="spacing" textLength="56" x="1123" y="25.5352">&#171;/error&#187;</text><text fill="#000000" font-family="sans-serif" font-size="14" lengthAdjust="spacing" textLength="120" x="1091" y="42.0234">GenericErrorPage</text><rect fill="#FFFFE0" height="46.9766" rx="2.5" ry="2.5" style="stroke:#181818;stroke-width:0.5;" width="231" x="1228" y="5"/><text fill="#000000" font-family="sans-serif" font-size="14" font-style="italic" lengthAdjust="spacing" textLength="217" x="1235" y="25.5352">&#171;non-sitting-days.controller.js&#187;</text><text fill="#000000" font-family="sans-serif" font-size="14" lengthAdjust="spacing" textLength="173" x="1257" y="42.0234">NonsittingDaysController</text><rect fill="#FFFFE0" height="46.9766" rx="2.5" ry="2.5" style="stroke:#181818;stroke-width:0.5;" width="191" x="1469" y="5"/><text fill="#000000" font-family="sans-serif" font-size="14" font-style="italic" lengthAdjust="spacing" textLength="177" x="1476" y="25.5352">&#171;nonSittingDayDAO.get()&#187;</text><text fill="#000000" font-family="sans-serif" font-size="14" lengthAdjust="spacing" textLength="148" x="1490.5" y="42.0234">NonSittingDaysObject</text><rect fill="#FFFFE0" height="46.9766" rx="2.5" ry="2.5" style="stroke:#181818;stroke-width:0.5;" width="199" x="1670" y="5"/><text fill="#000000" font-family="sans-serif" font-size="14" font-style="italic" lengthAdjust="spacing" textLength="185" x="1677" y="25.5352">&#171;nonSittingDayDAO.post()&#187;</text><text fill="#000000" font-family="sans-serif" font-size="14" lengthAdjust="spacing" textLength="176" x="1681.5" y="42.0234">AddNonSittingDaysObject</text><rect fill="#FFFFE0" height="46.9766" rx="2.5" ry="2.5" style="stroke:#181818;stroke-width:0.5;" width="211" x="1879" y="5"/><text fill="#000000" font-family="sans-serif" font-size="14" font-style="italic" lengthAdjust="spacing" textLength="197" x="1886" y="25.5352">&#171;nonSittingDayDAO.delete()&#187;</text><text fill="#000000" font-family="sans-serif" font-size="14" lengthAdjust="spacing" textLength="191" x="1889" y="42.0234">DeleteNonSittingDaysObject</text><rect fill="#E2E2F0" height="46.9766" rx="2.5" ry="2.5" style="stroke:#181818;stroke-width:0.5;" width="284" x="2100" y="5"/><text fill="#000000" font-family="sans-serif" font-size="14" font-style="italic" lengthAdjust="spacing" textLength="270" x="2107" y="25.5352">&#171;/administration/non-sitting-days.njk&#187;</text><text fill="#000000" font-family="sans-serif" font-size="14" lengthAdjust="spacing" textLength="167" x="2158.5" y="42.0234">NonsittingDaysTemplate</text><rect fill="#E2E2F0" height="46.9766" rx="2.5" ry="2.5" style="stroke:#181818;stroke-width:0.5;" width="318" x="2394" y="5"/><text fill="#000000" font-family="sans-serif" font-size="14" font-style="italic" lengthAdjust="spacing" textLength="304" x="2401" y="25.5352">&#171;/administration/add-non-sitting-days.njk&#187;</text><text fill="#000000" font-family="sans-serif" font-size="14" lengthAdjust="spacing" textLength="195" x="2455.5" y="42.0234">AddNonsittingDaysTemplate</text><rect fill="#E2E2F0" height="46.9766" rx="2.5" ry="2.5" style="stroke:#181818;stroke-width:0.5;" width="334" x="2722" y="5"/><text fill="#000000" font-family="sans-serif" font-size="14" font-style="italic" lengthAdjust="spacing" textLength="320" x="2729" y="25.5352">&#171;/administration/delete-non-sitting-days.njk&#187;</text><text fill="#000000" font-family="sans-serif" font-size="14" lengthAdjust="spacing" textLength="210" x="2784" y="42.0234">DeleteNonsittingDaysTemplate</text><rect fill="#E6E6FA" height="46.9766" rx="2.5" ry="2.5" style="stroke:#181818;stroke-width:0.5;" width="160" x="3066" y="5"/><text fill="#000000" font-family="sans-serif" font-size="14" font-style="italic" lengthAdjust="spacing" textLength="146" x="3073" y="25.5352">&#171;_errors/generic.njk&#187;</text><text fill="#000000" font-family="sans-serif" font-size="14" lengthAdjust="spacing" textLength="99" x="3096.5" y="42.0234">ErrorTemplate</text><rect fill="#E2E2F0" height="30.4883" rx="2.5" ry="2.5" style="stroke:#181818;stroke-width:0.5;" width="141" x="3236" y="21.4883"/><text fill="#000000" font-family="sans-serif" font-size="14" lengthAdjust="spacing" textLength="127" x="3243" y="42.0234">BackendController</text><rect fill="#E2E2F0" height="30.4883" rx="2.5" ry="2.5" style="stroke:#181818;stroke-width:0.5;" width="74" x="3387" y="21.4883"/><text fill="#000000" font-family="sans-serif" font-size="14" lengthAdjust="spacing" textLength="60" x="3394" y="42.0234">validator</text><polygon fill="#181818" points="310.5,80.2871,320.5,84.2871,310.5,88.2871" style="stroke:#181818;stroke-width:1.0;"/><line style="stroke:#181818;stroke-width:1.0;" x1="55.5" x2="316.5" y1="84.2871" y2="84.2871"/><text fill="#000000" font-family="sans-serif" font-size="13" lengthAdjust="spacing" textLength="160" x="109" y="79.5449">click non sitting days tab</text><polygon fill="#181818" points="1331.5,109.5977,1341.5,113.5977,1331.5,117.5977" style="stroke:#181818;stroke-width:1.0;"/><line style="stroke:#181818;stroke-width:1.0;" x1="322.5" x2="1337.5" y1="113.5977" y2="113.5977"/><text fill="#000000" font-family="sans-serif" font-size="13" lengthAdjust="spacing" textLength="193" x="736.5" y="108.8555">call non sitting days controller</text><polygon fill="#181818" points="1552.5,138.9082,1562.5,142.9082,1552.5,146.9082" style="stroke:#181818;stroke-width:1.0;"/><line style="stroke:#181818;stroke-width:1.0;" x1="1343.5" x2="1558.5" y1="142.9082" y2="142.9082"/><text fill="#000000" font-family="sans-serif" font-size="13" lengthAdjust="spacing" textLength="126" x="1391" y="138.166">build request object</text><polygon fill="#181818" points="3294.5,168.2188,3304.5,172.2188,3294.5,176.2188" style="stroke:#181818;stroke-width:1.0;"/><line style="stroke:#181818;stroke-width:1.0;" x1="1564.5" x2="3300.5" y1="172.2188" y2="172.2188"/><text fill="#000000" font-family="sans-serif" font-size="13" lengthAdjust="spacing" textLength="138" x="2366.5" y="167.4766">send backend request</text><path d="M20,187.2188 L82,187.2188 L82,194.5293 L72,204.5293 L20,204.5293 L20,187.2188 " fill="#EEEEEE" style="stroke:#000000;stroke-width:1.5;"/><rect fill="none" height="193.1738" style="stroke:#000000;stroke-width:1.5;" width="3367" x="20" y="187.2188"/><text fill="#000000" font-family="sans-serif" font-size="13" font-weight="bold" lengthAdjust="spacing" textLength="17" x="35" y="200.7871">alt</text><text fill="#000000" font-family="sans-serif" font-size="11" font-weight="bold" lengthAdjust="spacing" textLength="295" x="97" y="199.8535">[Failed to fetch list of holidays and non sitting days]</text><polygon fill="#181818" points="1575.5,221.8398,1565.5,225.8398,1575.5,229.8398" style="stroke:#181818;stroke-width:1.0;"/><line style="stroke:#181818;stroke-width:1.0;stroke-dasharray:2.0,2.0;" x1="1569.5" x2="3305.5" y1="225.8398" y2="225.8398"/><text fill="#000000" font-family="sans-serif" font-size="13" lengthAdjust="spacing" textLength="91" x="2390" y="221.0977">Error response</text><polygon fill="#181818" points="1354.5,251.1504,1344.5,255.1504,1354.5,259.1504" style="stroke:#181818;stroke-width:1.0;"/><line style="stroke:#181818;stroke-width:1.0;stroke-dasharray:2.0,2.0;" x1="1348.5" x2="1563.5" y1="255.1504" y2="255.1504"/><text fill="#000000" font-family="sans-serif" font-size="13" lengthAdjust="spacing" textLength="127" x="1390.5" y="250.4082">reject requestObject</text><polygon fill="#181818" points="3134,280.4609,3144,284.4609,3134,288.4609" style="stroke:#181818;stroke-width:1.0;"/><line style="stroke:#181818;stroke-width:1.0;" x1="1343.5" x2="3140" y1="284.4609" y2="284.4609"/><text fill="#000000" font-family="sans-serif" font-size="13" lengthAdjust="spacing" textLength="169" x="2160.25" y="279.7188">request and build template</text><polygon fill="#181818" points="1354.5,309.7715,1344.5,313.7715,1354.5,317.7715" style="stroke:#181818;stroke-width:1.0;"/><line style="stroke:#181818;stroke-width:1.0;" x1="1348.5" x2="3145" y1="313.7715" y2="313.7715"/><text fill="#000000" font-family="sans-serif" font-size="13" lengthAdjust="spacing" textLength="78" x="2205.75" y="309.0293">return HTML</text><polygon fill="#181818" points="1162,339.082,1152,343.082,1162,347.082" style="stroke:#181818;stroke-width:1.0;"/><line style="stroke:#181818;stroke-width:1.0;" x1="1156" x2="1342.5" y1="343.082" y2="343.082"/><text fill="#000000" font-family="sans-serif" font-size="13" lengthAdjust="spacing" textLength="78" x="1208.25" y="338.3398">return HTML</text><polygon fill="#181818" points="66.5,368.3926,56.5,372.3926,66.5,376.3926" style="stroke:#181818;stroke-width:1.0;"/><line style="stroke:#181818;stroke-width:1.0;" x1="60.5" x2="1150" y1="372.3926" y2="372.3926"/><text fill="#000000" font-family="sans-serif" font-size="13" lengthAdjust="spacing" textLength="108" x="549.25" y="367.6504">render error page</text><polygon fill="#181818" points="1575.5,404.7031,1565.5,408.7031,1575.5,412.7031" style="stroke:#181818;stroke-width:1.0;"/><line style="stroke:#181818;stroke-width:1.0;" x1="1569.5" x2="3305.5" y1="408.7031" y2="408.7031"/><text fill="#000000" font-family="sans-serif" font-size="13" lengthAdjust="spacing" textLength="77" x="2397" y="403.9609">ok response</text><polygon fill="#181818" points="1354.5,434.0137,1344.5,438.0137,1354.5,442.0137" style="stroke:#181818;stroke-width:1.0;"/><line style="stroke:#181818;stroke-width:1.0;" x1="1348.5" x2="1563.5" y1="438.0137" y2="438.0137"/><text fill="#000000" font-family="sans-serif" font-size="13" lengthAdjust="spacing" textLength="96" x="1406" y="433.2715">resolve request</text><polygon fill="#181818" points="2230,463.3242,2240,467.3242,2230,471.3242" style="stroke:#181818;stroke-width:1.0;"/><line style="stroke:#181818;stroke-width:1.0;" x1="1343.5" x2="2236" y1="467.3242" y2="467.3242"/><text fill="#000000" font-family="sans-serif" font-size="13" lengthAdjust="spacing" textLength="169" x="1708.25" y="462.582">request and build template</text><polygon fill="#181818" points="1354.5,492.6348,1344.5,496.6348,1354.5,500.6348" style="stroke:#181818;stroke-width:1.0;"/><line style="stroke:#181818;stroke-width:1.0;" x1="1348.5" x2="2241" y1="496.6348" y2="496.6348"/><text fill="#000000" font-family="sans-serif" font-size="13" lengthAdjust="spacing" textLength="78" x="1753.75" y="491.8926">return HTML</text><polygon fill="#181818" points="333.5,521.9453,323.5,525.9453,333.5,529.9453" style="stroke:#181818;stroke-width:1.0;"/><line style="stroke:#181818;stroke-width:1.0;" x1="327.5" x2="1342.5" y1="525.9453" y2="525.9453"/><text fill="#000000" font-family="sans-serif" font-size="13" lengthAdjust="spacing" textLength="78" x="794" y="521.2031">return HTML</text><polygon fill="#181818" points="66.5,551.2559,56.5,555.2559,66.5,559.2559" style="stroke:#181818;stroke-width:1.0;"/><line style="stroke:#181818;stroke-width:1.0;" x1="60.5" x2="321.5" y1="555.2559" y2="555.2559"/><text fill="#000000" font-family="sans-serif" font-size="13" lengthAdjust="spacing" textLength="80" x="149" y="550.5137">render HTML</text><path d="M10,570.2559 L72,570.2559 L72,577.5664 L62,587.5664 L10,587.5664 L10,570.2559 " fill="#EEEEEE" style="stroke:#000000;stroke-width:1.5;"/><rect fill="none" height="812.6953" style="stroke:#000000;stroke-width:1.5;" width="3471" x="10" y="570.2559"/><text fill="#000000" font-family="sans-serif" font-size="13" font-weight="bold" lengthAdjust="spacing" textLength="17" x="25" y="583.8242">alt</text><text fill="#000000" font-family="sans-serif" font-size="11" font-weight="bold" lengthAdjust="spacing" textLength="128" x="87" y="582.8906">[Add a non sitting day]</text><polygon fill="#181818" points="310.5,604.877,320.5,608.877,310.5,612.877" style="stroke:#181818;stroke-width:1.0;"/><line style="stroke:#181818;stroke-width:1.0;" x1="55.5" x2="316.5" y1="608.877" y2="608.877"/><text fill="#000000" font-family="sans-serif" font-size="13" lengthAdjust="spacing" textLength="163" x="107.5" y="604.1348">click add non sitting days</text><polygon fill="#181818" points="1331.5,634.1875,1341.5,638.1875,1331.5,642.1875" style="stroke:#181818;stroke-width:1.0;"/><line style="stroke:#181818;stroke-width:1.0;" x1="322.5" x2="1337.5" y1="638.1875" y2="638.1875"/><text fill="#000000" font-family="sans-serif" font-size="13" lengthAdjust="spacing" textLength="193" x="736.5" y="633.4453">call non sitting days controller</text><polygon fill="#181818" points="2541,663.498,2551,667.498,2541,671.498" style="stroke:#181818;stroke-width:1.0;"/><line style="stroke:#181818;stroke-width:1.0;" x1="1343.5" x2="2547" y1="667.498" y2="667.498"/><text fill="#000000" font-family="sans-serif" font-size="13" lengthAdjust="spacing" textLength="169" x="1863.75" y="662.7559">request and build template</text><polygon fill="#181818" points="1354.5,692.8086,1344.5,696.8086,1354.5,700.8086" style="stroke:#181818;stroke-width:1.0;"/><line style="stroke:#181818;stroke-width:1.0;" x1="1348.5" x2="2552" y1="696.8086" y2="696.8086"/><text fill="#000000" font-family="sans-serif" font-size="13" lengthAdjust="spacing" textLength="78" x="1909.25" y="692.0664">return HTML</text><polygon fill="#181818" points="619.5,722.1191,609.5,726.1191,619.5,730.1191" style="stroke:#181818;stroke-width:1.0;"/><line style="stroke:#181818;stroke-width:1.0;" x1="613.5" x2="1342.5" y1="726.1191" y2="726.1191"/><text fill="#000000" font-family="sans-serif" font-size="13" lengthAdjust="spacing" textLength="78" x="937" y="721.377">return HTML</text><polygon fill="#181818" points="66.5,751.4297,56.5,755.4297,66.5,759.4297" style="stroke:#181818;stroke-width:1.0;"/><line style="stroke:#181818;stroke-width:1.0;" x1="60.5" x2="607.5" y1="755.4297" y2="755.4297"/><text fill="#000000" font-family="sans-serif" font-size="13" lengthAdjust="spacing" textLength="80" x="292" y="750.6875">render HTML</text><polygon fill="#181818" points="596.5,780.7402,606.5,784.7402,596.5,788.7402" style="stroke:#181818;stroke-width:1.0;"/><line style="stroke:#181818;stroke-width:1.0;" x1="55.5" x2="602.5" y1="784.7402" y2="784.7402"/><text fill="#000000" font-family="sans-serif" font-size="13" lengthAdjust="spacing" textLength="78" x="293" y="779.998">click submit</text><polygon fill="#181818" points="1331.5,810.0508,1341.5,814.0508,1331.5,818.0508" style="stroke:#181818;stroke-width:1.0;"/><line style="stroke:#181818;stroke-width:1.0;" x1="608.5" x2="1337.5" y1="814.0508" y2="814.0508"/><text fill="#000000" font-family="sans-serif" font-size="13" lengthAdjust="spacing" textLength="193" x="879.5" y="809.3086">call non sitting days controller</text><polygon fill="#181818" points="3412,839.3613,3422,843.3613,3412,847.3613" style="stroke:#181818;stroke-width:1.0;"/><line style="stroke:#181818;stroke-width:1.0;" x1="1343.5" x2="3418" y1="843.3613" y2="843.3613"/><text fill="#000000" font-family="sans-serif" font-size="13" lengthAdjust="spacing" textLength="95" x="2336.25" y="838.6191">validate details</text><path d="M20,858.3613 L82,858.3613 L82,865.6719 L72,875.6719 L20,875.6719 L20,858.3613 " fill="#EEEEEE" style="stroke:#000000;stroke-width:1.5;"/><rect fill="none" height="163.8633" style="stroke:#000000;stroke-width:1.5;" width="3451" x="20" y="858.3613"/><text fill="#000000" font-family="sans-serif" font-size="13" font-weight="bold" lengthAdjust="spacing" textLength="17" x="35" y="871.9297">alt</text><text fill="#000000" font-family="sans-serif" font-size="11" font-weight="bold" lengthAdjust="spacing" textLength="179" x="97" y="870.9961">[Invalid non-sitting day details]</text><polygon fill="#181818" points="1354.5,892.9824,1344.5,896.9824,1354.5,900.9824" style="stroke:#181818;stroke-width:1.0;"/><line style="stroke:#181818;stroke-width:1.0;" x1="1348.5" x2="3423" y1="896.9824" y2="896.9824"/><text fill="#000000" font-family="sans-serif" font-size="13" lengthAdjust="spacing" textLength="191" x="2288.25" y="892.2402">Invalid non-sitting day details</text><polygon fill="#181818" points="2541,922.293,2551,926.293,2541,930.293" style="stroke:#181818;stroke-width:1.0;"/><line style="stroke:#181818;stroke-width:1.0;" x1="1343.5" x2="2547" y1="926.293" y2="926.293"/><text fill="#000000" font-family="sans-serif" font-size="13" lengthAdjust="spacing" textLength="169" x="1863.75" y="921.5508">request and build template</text><polygon fill="#181818" points="1354.5,951.6035,1344.5,955.6035,1354.5,959.6035" style="stroke:#181818;stroke-width:1.0;"/><line style="stroke:#181818;stroke-width:1.0;" x1="1348.5" x2="2552" y1="955.6035" y2="955.6035"/><text fill="#000000" font-family="sans-serif" font-size="13" lengthAdjust="spacing" textLength="78" x="1909.25" y="950.8613">return HTML</text><polygon fill="#181818" points="619.5,980.9141,609.5,984.9141,619.5,988.9141" style="stroke:#181818;stroke-width:1.0;"/><line style="stroke:#181818;stroke-width:1.0;" x1="613.5" x2="1342.5" y1="984.9141" y2="984.9141"/><text fill="#000000" font-family="sans-serif" font-size="13" lengthAdjust="spacing" textLength="112" x="920" y="980.1719">return error HTML</text><polygon fill="#181818" points="66.5,1010.2246,56.5,1014.2246,66.5,1018.2246" style="stroke:#181818;stroke-width:1.0;"/><line style="stroke:#181818;stroke-width:1.0;" x1="60.5" x2="607.5" y1="1014.2246" y2="1014.2246"/><text fill="#000000" font-family="sans-serif" font-size="13" lengthAdjust="spacing" textLength="133" x="265.5" y="1009.4824">render error message</text><polygon fill="#181818" points="1354.5,1046.5352,1344.5,1050.5352,1354.5,1054.5352" style="stroke:#181818;stroke-width:1.0;"/><line style="stroke:#181818;stroke-width:1.0;" x1="1348.5" x2="3423" y1="1050.5352" y2="1050.5352"/><text fill="#000000" font-family="sans-serif" font-size="13" lengthAdjust="spacing" textLength="127" x="2320.25" y="1045.793">valid details entered</text><polygon fill="#181818" points="1757.5,1075.8457,1767.5,1079.8457,1757.5,1083.8457" style="stroke:#181818;stroke-width:1.0;"/><line style="stroke:#181818;stroke-width:1.0;" x1="1343.5" x2="1763.5" y1="1079.8457" y2="1079.8457"/><text fill="#000000" font-family="sans-serif" font-size="13" lengthAdjust="spacing" textLength="126" x="1493.5" y="1075.1035">build request object</text><polygon fill="#181818" points="3294.5,1105.1563,3304.5,1109.1563,3294.5,1113.1563" style="stroke:#181818;stroke-width:1.0;"/><line style="stroke:#181818;stroke-width:1.0;" x1="1769.5" x2="3300.5" y1="1109.1563" y2="1109.1563"/><text fill="#000000" font-family="sans-serif" font-size="13" lengthAdjust="spacing" textLength="138" x="2469" y="1104.4141">send backend request</text><path d="M20,1124.1563 L82,1124.1563 L82,1131.4668 L72,1141.4668 L20,1141.4668 L20,1124.1563 " fill="#EEEEEE" style="stroke:#000000;stroke-width:1.5;"/><rect fill="none" height="193.1738" style="stroke:#000000;stroke-width:1.5;" width="3367" x="20" y="1124.1563"/><text fill="#000000" font-family="sans-serif" font-size="13" font-weight="bold" lengthAdjust="spacing" textLength="17" x="35" y="1137.7246">alt</text><text fill="#000000" font-family="sans-serif" font-size="11" font-weight="bold" lengthAdjust="spacing" textLength="189" x="97" y="1136.791">[Failed to add the non sitting day]</text><polygon fill="#181818" points="1780.5,1158.7773,1770.5,1162.7773,1780.5,1166.7773" style="stroke:#181818;stroke-width:1.0;"/><line style="stroke:#181818;stroke-width:1.0;stroke-dasharray:2.0,2.0;" x1="1774.5" x2="3305.5" y1="1162.7773" y2="1162.7773"/><text fill="#000000" font-family="sans-serif" font-size="13" lengthAdjust="spacing" textLength="91" x="2492.5" y="1158.0352">Error response</text><polygon fill="#181818" points="1354.5,1188.0879,1344.5,1192.0879,1354.5,1196.0879" style="stroke:#181818;stroke-width:1.0;"/><line style="stroke:#181818;stroke-width:1.0;stroke-dasharray:2.0,2.0;" x1="1348.5" x2="1768.5" y1="1192.0879" y2="1192.0879"/><text fill="#000000" font-family="sans-serif" font-size="13" lengthAdjust="spacing" textLength="127" x="1493" y="1187.3457">reject requestObject</text><polygon fill="#181818" points="3134,1217.3984,3144,1221.3984,3134,1225.3984" style="stroke:#181818;stroke-width:1.0;"/><line style="stroke:#181818;stroke-width:1.0;" x1="1343.5" x2="3140" y1="1221.3984" y2="1221.3984"/><text fill="#000000" font-family="sans-serif" font-size="13" lengthAdjust="spacing" textLength="169" x="2160.25" y="1216.6563">request and build template</text><polygon fill="#181818" points="1354.5,1246.709,1344.5,1250.709,1354.5,1254.709" style="stroke:#181818;stroke-width:1.0;"/><line style="stroke:#181818;stroke-width:1.0;" x1="1348.5" x2="3145" y1="1250.709" y2="1250.709"/><text fill="#000000" font-family="sans-serif" font-size="13" lengthAdjust="spacing" textLength="78" x="2205.75" y="1245.9668">return HTML</text><polygon fill="#181818" points="1162,1276.0195,1152,1280.0195,1162,1284.0195" style="stroke:#181818;stroke-width:1.0;"/><line style="stroke:#181818;stroke-width:1.0;" x1="1156" x2="1342.5" y1="1280.0195" y2="1280.0195"/><text fill="#000000" font-family="sans-serif" font-size="13" lengthAdjust="spacing" textLength="78" x="1208.25" y="1275.2773">return HTML</text><polygon fill="#181818" points="66.5,1305.3301,56.5,1309.3301,66.5,1313.3301" style="stroke:#181818;stroke-width:1.0;"/><line style="stroke:#181818;stroke-width:1.0;" x1="60.5" x2="1150" y1="1309.3301" y2="1309.3301"/><text fill="#000000" font-family="sans-serif" font-size="13" lengthAdjust="spacing" textLength="108" x="549.25" y="1304.5879">render error page</text><polygon fill="#181818" points="1780.5,1341.6406,1770.5,1345.6406,1780.5,1349.6406" style="stroke:#181818;stroke-width:1.0;"/><line style="stroke:#181818;stroke-width:1.0;" x1="1774.5" x2="3305.5" y1="1345.6406" y2="1345.6406"/><text fill="#000000" font-family="sans-serif" font-size="13" lengthAdjust="spacing" textLength="77" x="2499.5" y="1340.8984">ok response</text><polygon fill="#181818" points="1354.5,1370.9512,1344.5,1374.9512,1354.5,1378.9512" style="stroke:#181818;stroke-width:1.0;"/><line style="stroke:#181818;stroke-width:1.0;" x1="1348.5" x2="1768.5" y1="1374.9512" y2="1374.9512"/><text fill="#000000" font-family="sans-serif" font-size="13" lengthAdjust="spacing" textLength="96" x="1508.5" y="1370.209">resolve request</text><path d="M10,1396.9512 L72,1396.9512 L72,1404.2617 L62,1414.2617 L10,1414.2617 L10,1396.9512 " fill="#EEEEEE" style="stroke:#000000;stroke-width:1.5;"/><rect fill="none" height="546.9004" style="stroke:#000000;stroke-width:1.5;" width="3387" x="10" y="1396.9512"/><text fill="#000000" font-family="sans-serif" font-size="13" font-weight="bold" lengthAdjust="spacing" textLength="17" x="25" y="1410.5195">alt</text><text fill="#000000" font-family="sans-serif" font-size="11" font-weight="bold" lengthAdjust="spacing" textLength="139" x="87" y="1409.5859">[delete a non sitting day]</text><polygon fill="#181818" points="310.5,1431.5723,320.5,1435.5723,310.5,1439.5723" style="stroke:#181818;stroke-width:1.0;"/><line style="stroke:#181818;stroke-width:1.0;" x1="55.5" x2="316.5" y1="1435.5723" y2="1435.5723"/><text fill="#000000" font-family="sans-serif" font-size="13" lengthAdjust="spacing" textLength="243" x="67.5" y="1430.8301">click delete non sitting days controller</text><polygon fill="#181818" points="1331.5,1460.8828,1341.5,1464.8828,1331.5,1468.8828" style="stroke:#181818;stroke-width:1.0;"/><line style="stroke:#181818;stroke-width:1.0;" x1="322.5" x2="1337.5" y1="1464.8828" y2="1464.8828"/><text fill="#000000" font-family="sans-serif" font-size="13" lengthAdjust="spacing" textLength="193" x="736.5" y="1460.1406">call non sitting days controller</text><polygon fill="#181818" points="2877,1490.1934,2887,1494.1934,2877,1498.1934" style="stroke:#181818;stroke-width:1.0;"/><line style="stroke:#181818;stroke-width:1.0;" x1="1343.5" x2="2883" y1="1494.1934" y2="1494.1934"/><text fill="#000000" font-family="sans-serif" font-size="13" lengthAdjust="spacing" textLength="169" x="2031.75" y="1489.4512">request and build template</text><polygon fill="#181818" points="1354.5,1519.5039,1344.5,1523.5039,1354.5,1527.5039" style="stroke:#181818;stroke-width:1.0;"/><line style="stroke:#181818;stroke-width:1.0;" x1="1348.5" x2="2888" y1="1523.5039" y2="1523.5039"/><text fill="#000000" font-family="sans-serif" font-size="13" lengthAdjust="spacing" textLength="78" x="2077.25" y="1518.7617">return HTML</text><polygon fill="#181818" points="930.5,1548.8145,920.5,1552.8145,930.5,1556.8145" style="stroke:#181818;stroke-width:1.0;"/><line style="stroke:#181818;stroke-width:1.0;" x1="924.5" x2="1342.5" y1="1552.8145" y2="1552.8145"/><text fill="#000000" font-family="sans-serif" font-size="13" lengthAdjust="spacing" textLength="78" x="1092.5" y="1548.0723">return HTML</text><polygon fill="#181818" points="66.5,1578.125,56.5,1582.125,66.5,1586.125" style="stroke:#181818;stroke-width:1.0;"/><line style="stroke:#181818;stroke-width:1.0;" x1="60.5" x2="918.5" y1="1582.125" y2="1582.125"/><text fill="#000000" font-family="sans-serif" font-size="13" lengthAdjust="spacing" textLength="80" x="447.5" y="1577.3828">render HTML</text><polygon fill="#181818" points="907.5,1607.4355,917.5,1611.4355,907.5,1615.4355" style="stroke:#181818;stroke-width:1.0;"/><line style="stroke:#181818;stroke-width:1.0;" x1="55.5" x2="913.5" y1="1611.4355" y2="1611.4355"/><text fill="#000000" font-family="sans-serif" font-size="13" lengthAdjust="spacing" textLength="72" x="451.5" y="1606.6934">click delete</text><polygon fill="#181818" points="1972.5,1636.7461,1982.5,1640.7461,1972.5,1644.7461" style="stroke:#181818;stroke-width:1.0;"/><line style="stroke:#181818;stroke-width:1.0;" x1="1343.5" x2="1978.5" y1="1640.7461" y2="1640.7461"/><text fill="#000000" font-family="sans-serif" font-size="13" lengthAdjust="spacing" textLength="126" x="1601" y="1636.0039">build request object</text><polygon fill="#181818" points="3294.5,1666.0566,3304.5,1670.0566,3294.5,1674.0566" style="stroke:#181818;stroke-width:1.0;"/><line style="stroke:#181818;stroke-width:1.0;" x1="1984.5" x2="3300.5" y1="1670.0566" y2="1670.0566"/><text fill="#000000" font-family="sans-serif" font-size="13" lengthAdjust="spacing" textLength="138" x="2576.5" y="1665.3145">send backend request</text><path d="M20,1685.0566 L82,1685.0566 L82,1692.3672 L72,1702.3672 L20,1702.3672 L20,1685.0566 " fill="#EEEEEE" style="stroke:#000000;stroke-width:1.5;"/><rect fill="none" height="193.1738" style="stroke:#000000;stroke-width:1.5;" width="3367" x="20" y="1685.0566"/><text fill="#000000" font-family="sans-serif" font-size="13" font-weight="bold" lengthAdjust="spacing" textLength="17" x="35" y="1698.625">alt</text><text fill="#000000" font-family="sans-serif" font-size="11" font-weight="bold" lengthAdjust="spacing" textLength="181" x="97" y="1697.6914">[Failed to delete non sitting day]</text><polygon fill="#181818" points="1995.5,1719.6777,1985.5,1723.6777,1995.5,1727.6777" style="stroke:#181818;stroke-width:1.0;"/><line style="stroke:#181818;stroke-width:1.0;stroke-dasharray:2.0,2.0;" x1="1989.5" x2="3305.5" y1="1723.6777" y2="1723.6777"/><text fill="#000000" font-family="sans-serif" font-size="13" lengthAdjust="spacing" textLength="91" x="2600" y="1718.9355">Error response</text><polygon fill="#181818" points="1354.5,1748.9883,1344.5,1752.9883,1354.5,1756.9883" style="stroke:#181818;stroke-width:1.0;"/><line style="stroke:#181818;stroke-width:1.0;stroke-dasharray:2.0,2.0;" x1="1348.5" x2="1983.5" y1="1752.9883" y2="1752.9883"/><text fill="#000000" font-family="sans-serif" font-size="13" lengthAdjust="spacing" textLength="127" x="1600.5" y="1748.2461">reject requestObject</text><polygon fill="#181818" points="3134,1778.2988,3144,1782.2988,3134,1786.2988" style="stroke:#181818;stroke-width:1.0;"/><line style="stroke:#181818;stroke-width:1.0;" x1="1343.5" x2="3140" y1="1782.2988" y2="1782.2988"/><text fill="#000000" font-family="sans-serif" font-size="13" lengthAdjust="spacing" textLength="169" x="2160.25" y="1777.5566">request and build template</text><polygon fill="#181818" points="1354.5,1807.6094,1344.5,1811.6094,1354.5,1815.6094" style="stroke:#181818;stroke-width:1.0;"/><line style="stroke:#181818;stroke-width:1.0;" x1="1348.5" x2="3145" y1="1811.6094" y2="1811.6094"/><text fill="#000000" font-family="sans-serif" font-size="13" lengthAdjust="spacing" textLength="78" x="2205.75" y="1806.8672">return HTML</text><polygon fill="#181818" points="1162,1836.9199,1152,1840.9199,1162,1844.9199" style="stroke:#181818;stroke-width:1.0;"/><line style="stroke:#181818;stroke-width:1.0;" x1="1156" x2="1342.5" y1="1840.9199" y2="1840.9199"/><text fill="#000000" font-family="sans-serif" font-size="13" lengthAdjust="spacing" textLength="78" x="1208.25" y="1836.1777">return HTML</text><polygon fill="#181818" points="66.5,1866.2305,56.5,1870.2305,66.5,1874.2305" style="stroke:#181818;stroke-width:1.0;"/><line style="stroke:#181818;stroke-width:1.0;" x1="60.5" x2="1150" y1="1870.2305" y2="1870.2305"/><text fill="#000000" font-family="sans-serif" font-size="13" lengthAdjust="spacing" textLength="108" x="549.25" y="1865.4883">render error page</text><polygon fill="#181818" points="1995.5,1902.541,1985.5,1906.541,1995.5,1910.541" style="stroke:#181818;stroke-width:1.0;"/><line style="stroke:#181818;stroke-width:1.0;" x1="1989.5" x2="3305.5" y1="1906.541" y2="1906.541"/><text fill="#000000" font-family="sans-serif" font-size="13" lengthAdjust="spacing" textLength="77" x="2607" y="1901.7988">ok response</text><polygon fill="#181818" points="1354.5,1931.8516,1344.5,1935.8516,1354.5,1939.8516" style="stroke:#181818;stroke-width:1.0;"/><line style="stroke:#181818;stroke-width:1.0;" x1="1348.5" x2="1983.5" y1="1935.8516" y2="1935.8516"/><text fill="#000000" font-family="sans-serif" font-size="13" lengthAdjust="spacing" textLength="96" x="1616" y="1931.1094">resolve request</text><!--SRC=[pPRRSjem48Rl_HJRD3C9CnpkEnbc3BWPMe9JSAuxGjg0G4ZK5kdaxRi-44woST9Uz8OPhDMdtN__bRsG0c6hbTGh5DudgRdQqfCvQembRysKuQkalL5Cs-rQULwoadh3OhQ6gNrL28cbi7G93fVmrnOrnmTC4ZP7NycvNgEsmEa7Oy-ZC2kvt10LV6uDFRgvkO5HsFT7C0cVek7u_YXeR7GYhPLwFc2loID1uUwkmyHQQaafC2kDxcYZMqLKIr1Ojtjya12rC4o8rWNK01LQh4KJMUWbu7skTn379jw1CFr3SPaq_N0SJSBHA9Y0Fnx09FZn54mZ27lVWduqhT2gRxIDZL8O4_CqYpP_MsqlAIVuJArQs5TKolm-XKxtq72sH6vpuFxnm0_RSxItZIfGteLQh8r9Bi3U-b2BbxVYd9W970KFZoC_2ggqZ71Das3hUA-jbwjB_gl0kJpeGBfyM44jyQ83d1dnWFGpCsFIAUw5V0Ufo5vG2op6j-VtlmTaphrNZvWznbSKlJUavsMp3wskOxw_05UIhu2IXM89qcJ1ifddcBmpo87nYSMKEaVnWrIkYzByns6VWc_BO4tdA3IF5Ml2rLSc5Ggm1fxHyWKeQWEOPrWO9RF3cHPd6LqrlEiuKtH7YanQNNKsZkOt7OesF8-fp8R0Ja_s06hqWbnvbZBj_FVT07Yl3AN3rNJV-oJ6GSdEa5tLoNQsbZODTxv0_hxK5vPQmk9GRxQseiOYpdoWN3BaK6VxuM3wqsH0e2MhfjQZL6eFGSarNZK7gNli0a_Le8EfrRatymlge_OiTbUh_J-OjUhQRfP-N1nRjYpgM8ntzRJyRLhLLhVgHLV_0000]--></g></svg>