<?xml version="1.0" encoding="us-ascii" standalone="no"?><svg xmlns="http://www.w3.org/2000/svg" xmlns:xlink="http://www.w3.org/1999/xlink" contentStyleType="text/css" height="2619px" preserveAspectRatio="none" style="width:3789px;height:2619px;background:#FFFFFF;" version="1.1" viewBox="0 0 3789 2619" width="3789px" zoomAndPan="magnify"><defs/><g><rect fill="none" height="548.9004" style="stroke:#000000;stroke-width:1.5;" width="3773.5" x="10" y="128.5977"/><rect fill="none" height="75.9316" style="stroke:#000000;stroke-width:1.5;" width="1041" x="449.5" y="152.9082"/><rect fill="none" height="193.1738" style="stroke:#000000;stroke-width:1.5;" width="3753.5" x="20" y="301.4609"/><rect fill="none" height="193.1738" style="stroke:#000000;stroke-width:1.5;" width="3753.5" x="20" y="750.1191"/><rect fill="none" height="193.1738" style="stroke:#000000;stroke-width:1.5;" width="3753.5" x="20" y="1074.5352"/><rect fill="none" height="266.75" style="stroke:#000000;stroke-width:1.5;" width="3243.5" x="20" y="1340.3301"/><rect fill="none" height="193.1738" style="stroke:#000000;stroke-width:1.5;" width="3753.5" x="20" y="1738.3223"/><rect fill="none" height="193.1738" style="stroke:#000000;stroke-width:1.5;" width="3753.5" x="20" y="2062.7383"/><rect fill="none" height="266.75" style="stroke:#000000;stroke-width:1.5;" width="3243.5" x="20" y="2328.5332"/><line style="stroke:#181818;stroke-width:0.5;stroke-dasharray:5.0,5.0;" x1="55" x2="55" y1="52.9766" y2="2612.2832"/><line style="stroke:#181818;stroke-width:0.5;stroke-dasharray:5.0,5.0;" x1="542.5" x2="542.5" y1="52.9766" y2="2612.2832"/><line style="stroke:#181818;stroke-width:0.5;stroke-dasharray:5.0,5.0;" x1="818.5" x2="818.5" y1="52.9766" y2="2612.2832"/><line style="stroke:#181818;stroke-width:0.5;stroke-dasharray:5.0,5.0;" x1="1133.5" x2="1133.5" y1="52.9766" y2="2612.2832"/><line style="stroke:#181818;stroke-width:0.5;stroke-dasharray:5.0,5.0;" x1="1373.5" x2="1373.5" y1="52.9766" y2="2612.2832"/><line style="stroke:#181818;stroke-width:0.5;stroke-dasharray:5.0,5.0;" x1="1598.5" x2="1598.5" y1="52.9766" y2="2612.2832"/><line style="stroke:#181818;stroke-width:0.5;stroke-dasharray:5.0,5.0;" x1="1807.5" x2="1807.5" y1="52.9766" y2="2612.2832"/><line style="stroke:#181818;stroke-width:0.5;stroke-dasharray:5.0,5.0;" x1="2007.5" x2="2007.5" y1="52.9766" y2="2612.2832"/><line style="stroke:#181818;stroke-width:0.5;stroke-dasharray:5.0,5.0;" x1="2230.5" x2="2230.5" y1="52.9766" y2="2612.2832"/><line style="stroke:#181818;stroke-width:0.5;stroke-dasharray:5.0,5.0;" x1="2579.5" x2="2579.5" y1="52.9766" y2="2612.2832"/><line style="stroke:#181818;stroke-width:0.5;stroke-dasharray:5.0,5.0;" x1="3034.5" x2="3034.5" y1="52.9766" y2="2612.2832"/><line style="stroke:#181818;stroke-width:0.5;stroke-dasharray:5.0,5.0;" x1="3437.5" x2="3437.5" y1="52.9766" y2="2612.2832"/><line style="stroke:#181818;stroke-width:0.5;stroke-dasharray:5.0,5.0;" x1="3692.5" x2="3692.5" y1="52.9766" y2="2612.2832"/><rect fill="#E2E2F0" height="30.4883" rx="2.5" ry="2.5" style="stroke:#181818;stroke-width:0.5;" width="51" x="30" y="21.4883"/><text fill="#000000" font-family="sans-serif" font-size="14" lengthAdjust="spacing" textLength="37" x="37" y="42.0234">Actor</text><rect fill="#E2E2F0" height="46.9766" rx="2.5" ry="2.5" style="stroke:#181818;stroke-width:0.5;" width="166" x="459.5" y="5"/><text fill="#000000" font-family="sans-serif" font-size="14" font-style="italic" lengthAdjust="spacing" textLength="143" x="471" y="25.5352">&#171;pool-management&#187;</text><text fill="#000000" font-family="sans-serif" font-size="14" lengthAdjust="spacing" textLength="152" x="466.5" y="42.0234">PoolManagementPage</text><rect fill="#E2E2F0" height="46.9766" rx="2.5" ry="2.5" style="stroke:#181818;stroke-width:0.5;" width="367" x="635.5" y="5"/><text fill="#000000" font-family="sans-serif" font-size="14" font-style="italic" lengthAdjust="spacing" textLength="353" x="642.5" y="25.5352">&#171;/pool-management/pool-overview/:poolNumber&#187;</text><text fill="#000000" font-family="sans-serif" font-size="14" lengthAdjust="spacing" textLength="125" x="756.5" y="42.0234">PoolOverviewPage</text><rect fill="#E2E2F0" height="46.9766" rx="2.5" ry="2.5" style="stroke:#181818;stroke-width:0.5;" width="243" x="1012.5" y="5"/><text fill="#000000" font-family="sans-serif" font-size="14" font-style="italic" lengthAdjust="spacing" textLength="229" x="1019.5" y="25.5352">&#171;pool-management.controller.js&#187;</text><text fill="#000000" font-family="sans-serif" font-size="14" lengthAdjust="spacing" textLength="189" x="1039.5" y="42.0234">PoolManagementController</text><rect fill="#E2E2F0" height="46.9766" rx="2.5" ry="2.5" style="stroke:#181818;stroke-width:0.5;" width="213" x="1267.5" y="5"/><text fill="#000000" font-family="sans-serif" font-size="14" font-style="italic" lengthAdjust="spacing" textLength="199" x="1274.5" y="25.5352">&#171;pool-overview.controller.js&#187;</text><text fill="#000000" font-family="sans-serif" font-size="14" lengthAdjust="spacing" textLength="162" x="1293" y="42.0234">PoolOverviewController</text><rect fill="#E2E2F0" height="46.9766" rx="2.5" ry="2.5" style="stroke:#181818;stroke-width:0.5;" width="216" x="1490.5" y="5"/><text fill="#000000" font-family="sans-serif" font-size="14" font-style="italic" lengthAdjust="spacing" textLength="202" x="1497.5" y="25.5352">&#171;fetchCoronerPoolDAO.get()&#187;</text><text fill="#000000" font-family="sans-serif" font-size="14" lengthAdjust="spacing" textLength="168" x="1514.5" y="42.0234">FetchCoronerPoolObject</text><rect fill="#E2E2F0" height="46.9766" rx="2.5" ry="2.5" style="stroke:#181818;stroke-width:0.5;" width="183" x="1716.5" y="5"/><text fill="#000000" font-family="sans-serif" font-size="14" font-style="italic" lengthAdjust="spacing" textLength="169" x="1723.5" y="25.5352">&#171;poolSummaryObj.get()&#187;</text><text fill="#000000" font-family="sans-serif" font-size="14" lengthAdjust="spacing" textLength="138" x="1739" y="42.0234">PoolSummaryObject</text><rect fill="#E2E2F0" height="46.9766" rx="2.5" ry="2.5" style="stroke:#181818;stroke-width:0.5;" width="197" x="1909.5" y="5"/><text fill="#000000" font-family="sans-serif" font-size="14" font-style="italic" lengthAdjust="spacing" textLength="183" x="1916.5" y="25.5352">&#171;poolMembersDAO.post()&#187;</text><text fill="#000000" font-family="sans-serif" font-size="14" lengthAdjust="spacing" textLength="137" x="1939.5" y="42.0234">PoolMembersObject</text><rect fill="#E2E2F0" height="46.9766" rx="2.5" ry="2.5" style="stroke:#181818;stroke-width:0.5;" width="228" x="2116.5" y="5"/><text fill="#000000" font-family="sans-serif" font-size="14" font-style="italic" lengthAdjust="spacing" textLength="214" x="2123.5" y="25.5352">&#171;pool-management/index.njk&#187;</text><text fill="#000000" font-family="sans-serif" font-size="14" lengthAdjust="spacing" textLength="183" x="2139" y="42.0234">PoolManagementTemplate</text><rect fill="#E2E2F0" height="46.9766" rx="2.5" ry="2.5" style="stroke:#181818;stroke-width:0.5;" width="451" x="2354.5" y="5"/><text fill="#000000" font-family="sans-serif" font-size="14" font-style="italic" lengthAdjust="spacing" textLength="437" x="2361.5" y="25.5352">&#171;pool-management/pool-overview/bureau-pool-overview.njk&#187;</text><text fill="#000000" font-family="sans-serif" font-size="14" lengthAdjust="spacing" textLength="204" x="2478" y="42.0234">BureauPoolOverviewTemplate</text><rect fill="#E2E2F0" height="46.9766" rx="2.5" ry="2.5" style="stroke:#181818;stroke-width:0.5;" width="438" x="2815.5" y="5"/><text fill="#000000" font-family="sans-serif" font-size="14" font-style="italic" lengthAdjust="spacing" textLength="424" x="2822.5" y="25.5352">&#171;pool-management/pool-overview/court-pool-overview.njk&#187;</text><text fill="#000000" font-family="sans-serif" font-size="14" lengthAdjust="spacing" textLength="195" x="2937" y="42.0234">CourtPoolOverviewTemplate</text><rect fill="#E2E2F0" height="46.9766" rx="2.5" ry="2.5" style="stroke:#181818;stroke-width:0.5;" width="349" x="3263.5" y="5"/><text fill="#000000" font-family="sans-serif" font-size="14" font-style="italic" lengthAdjust="spacing" textLength="335" x="3270.5" y="25.5352">&#171;pool-management/pool-overview/coroner.njk&#187;</text><text fill="#000000" font-family="sans-serif" font-size="14" lengthAdjust="spacing" textLength="213" x="3331.5" y="42.0234">CoronerPoolOverviewTemplate</text><rect fill="#E2E2F0" height="30.4883" rx="2.5" ry="2.5" style="stroke:#181818;stroke-width:0.5;" width="141" x="3622.5" y="21.4883"/><text fill="#000000" font-family="sans-serif" font-size="14" lengthAdjust="spacing" textLength="127" x="3629.5" y="42.0234">BackendController</text><polygon fill="#181818" points="530.5,80.2871,540.5,84.2871,530.5,88.2871" style="stroke:#181818;stroke-width:1.0;"/><line style="stroke:#181818;stroke-width:1.0;" x1="55.5" x2="536.5" y1="84.2871" y2="84.2871"/><text fill="#000000" font-family="sans-serif" font-size="13" lengthAdjust="spacing" textLength="463" x="67.5" y="79.5449">Select a pool from this list of requested/active pools, or search for a pool</text><polygon fill="#181818" points="1362,109.5977,1372,113.5977,1362,117.5977" style="stroke:#181818;stroke-width:1.0;"/><line style="stroke:#181818;stroke-width:1.0;" x1="542.5" x2="1368" y1="113.5977" y2="113.5977"/><text fill="#000000" font-family="sans-serif" font-size="13" lengthAdjust="spacing" textLength="121" x="897.75" y="108.8555">call page controller</text><path d="M10,128.5977 L72,128.5977 L72,135.9082 L62,145.9082 L10,145.9082 L10,128.5977 " fill="#EEEEEE" style="stroke:#000000;stroke-width:1.5;"/><rect fill="none" height="548.9004" style="stroke:#000000;stroke-width:1.5;" width="3773.5" x="10" y="128.5977"/><text fill="#000000" font-family="sans-serif" font-size="13" font-weight="bold" lengthAdjust="spacing" textLength="17" x="25" y="142.166">alt</text><text fill="#000000" font-family="sans-serif" font-size="11" font-weight="bold" lengthAdjust="spacing" textLength="82" x="87" y="141.2324">[Coroner pool]</text><path d="M449.5,152.9082 L511.5,152.9082 L511.5,160.2188 L501.5,170.2188 L449.5,170.2188 L449.5,152.9082 " fill="#EEEEEE" style="stroke:#000000;stroke-width:1.5;"/><rect fill="none" height="75.9316" style="stroke:#000000;stroke-width:1.5;" width="1041" x="449.5" y="152.9082"/><text fill="#000000" font-family="sans-serif" font-size="13" font-weight="bold" lengthAdjust="spacing" textLength="17" x="464.5" y="166.4766">alt</text><text fill="#000000" font-family="sans-serif" font-size="11" font-weight="bold" lengthAdjust="spacing" textLength="79" x="526.5" y="165.543">[is court user]</text><polygon fill="#181818" points="1145,187.5293,1135,191.5293,1145,195.5293" style="stroke:#181818;stroke-width:1.0;"/><line style="stroke:#181818;stroke-width:1.0;" x1="1139" x2="1373" y1="191.5293" y2="191.5293"/><text fill="#000000" font-family="sans-serif" font-size="13" lengthAdjust="spacing" textLength="216" x="1146" y="186.7871">redirect to pool management page</text><polygon fill="#181818" points="553.5,216.8398,543.5,220.8398,553.5,224.8398" style="stroke:#181818;stroke-width:1.0;"/><line style="stroke:#181818;stroke-width:1.0;" x1="547.5" x2="1133" y1="220.8398" y2="220.8398"/><text fill="#000000" font-family="sans-serif" font-size="13" lengthAdjust="spacing" textLength="216" x="730.25" y="216.0977">redirect to pool management page</text><polygon fill="#181818" points="1586.5,253.1504,1596.5,257.1504,1586.5,261.1504" style="stroke:#181818;stroke-width:1.0;"/><line style="stroke:#181818;stroke-width:1.0;" x1="1374" x2="1592.5" y1="257.1504" y2="257.1504"/><text fill="#000000" font-family="sans-serif" font-size="13" lengthAdjust="spacing" textLength="126" x="1423.25" y="252.4082">build request object</text><polygon fill="#181818" points="3681,282.4609,3691,286.4609,3681,290.4609" style="stroke:#181818;stroke-width:1.0;"/><line style="stroke:#181818;stroke-width:1.0;" x1="1598.5" x2="3687" y1="286.4609" y2="286.4609"/><text fill="#000000" font-family="sans-serif" font-size="13" lengthAdjust="spacing" textLength="138" x="2576.75" y="281.7188">send backend request</text><path d="M20,301.4609 L82,301.4609 L82,308.7715 L72,318.7715 L20,318.7715 L20,301.4609 " fill="#EEEEEE" style="stroke:#000000;stroke-width:1.5;"/><rect fill="none" height="193.1738" style="stroke:#000000;stroke-width:1.5;" width="3753.5" x="20" y="301.4609"/><text fill="#000000" font-family="sans-serif" font-size="13" font-weight="bold" lengthAdjust="spacing" textLength="17" x="35" y="315.0293">alt</text><text fill="#000000" font-family="sans-serif" font-size="11" font-weight="bold" lengthAdjust="spacing" textLength="164" x="97" y="314.0957">[Failed to fetch coroner pool]</text><polygon fill="#181818" points="1609.5,336.082,1599.5,340.082,1609.5,344.082" style="stroke:#181818;stroke-width:1.0;"/><line style="stroke:#181818;stroke-width:1.0;stroke-dasharray:2.0,2.0;" x1="1603.5" x2="3692" y1="340.082" y2="340.082"/><text fill="#000000" font-family="sans-serif" font-size="13" lengthAdjust="spacing" textLength="91" x="2600.25" y="335.3398">Error response</text><polygon fill="#181818" points="1385,365.3926,1375,369.3926,1385,373.3926" style="stroke:#181818;stroke-width:1.0;"/><line style="stroke:#181818;stroke-width:1.0;stroke-dasharray:2.0,2.0;" x1="1379" x2="1597.5" y1="369.3926" y2="369.3926"/><text fill="#000000" font-family="sans-serif" font-size="13" lengthAdjust="spacing" textLength="127" x="1422.75" y="364.6504">reject requestObject</text><polygon fill="#181818" points="2218.5,394.7031,2228.5,398.7031,2218.5,402.7031" style="stroke:#181818;stroke-width:1.0;"/><line style="stroke:#181818;stroke-width:1.0;" x1="1374" x2="2224.5" y1="398.7031" y2="398.7031"/><text fill="#000000" font-family="sans-serif" font-size="13" lengthAdjust="spacing" textLength="169" x="1717.75" y="393.9609">request and build template</text><polygon fill="#181818" points="1385,424.0137,1375,428.0137,1385,432.0137" style="stroke:#181818;stroke-width:1.0;"/><line style="stroke:#181818;stroke-width:1.0;" x1="1379" x2="2229.5" y1="428.0137" y2="428.0137"/><text fill="#000000" font-family="sans-serif" font-size="13" lengthAdjust="spacing" textLength="78" x="1763.25" y="423.2715">return HTML</text><polygon fill="#181818" points="553.5,453.3242,543.5,457.3242,553.5,461.3242" style="stroke:#181818;stroke-width:1.0;"/><line style="stroke:#181818;stroke-width:1.0;" x1="547.5" x2="1373" y1="457.3242" y2="457.3242"/><text fill="#000000" font-family="sans-serif" font-size="13" lengthAdjust="spacing" textLength="112" x="902.25" y="452.582">return error HTML</text><polygon fill="#181818" points="66.5,482.6348,56.5,486.6348,66.5,490.6348" style="stroke:#181818;stroke-width:1.0;"/><line style="stroke:#181818;stroke-width:1.0;" x1="60.5" x2="541.5" y1="486.6348" y2="486.6348"/><text fill="#000000" font-family="sans-serif" font-size="13" lengthAdjust="spacing" textLength="133" x="232.5" y="481.8926">render error message</text><polygon fill="#181818" points="1609.5,518.9453,1599.5,522.9453,1609.5,526.9453" style="stroke:#181818;stroke-width:1.0;"/><line style="stroke:#181818;stroke-width:1.0;" x1="1603.5" x2="3692" y1="522.9453" y2="522.9453"/><text fill="#000000" font-family="sans-serif" font-size="13" lengthAdjust="spacing" textLength="77" x="2607.25" y="518.2031">ok response</text><polygon fill="#181818" points="1385,548.2559,1375,552.2559,1385,556.2559" style="stroke:#181818;stroke-width:1.0;"/><line style="stroke:#181818;stroke-width:1.0;" x1="1379" x2="1597.5" y1="552.2559" y2="552.2559"/><text fill="#000000" font-family="sans-serif" font-size="13" lengthAdjust="spacing" textLength="96" x="1438.25" y="547.5137">resolve request</text><polygon fill="#181818" points="3426,577.5664,3436,581.5664,3426,585.5664" style="stroke:#181818;stroke-width:1.0;"/><line style="stroke:#181818;stroke-width:1.0;" x1="1374" x2="3432" y1="581.5664" y2="581.5664"/><text fill="#000000" font-family="sans-serif" font-size="13" lengthAdjust="spacing" textLength="169" x="2321.5" y="576.8242">request and build template</text><polygon fill="#181818" points="1385,606.877,1375,610.877,1385,614.877" style="stroke:#181818;stroke-width:1.0;"/><line style="stroke:#181818;stroke-width:1.0;" x1="1379" x2="3437" y1="610.877" y2="610.877"/><text fill="#000000" font-family="sans-serif" font-size="13" lengthAdjust="spacing" textLength="78" x="2367" y="606.1348">return HTML</text><polygon fill="#181818" points="830,636.1875,820,640.1875,830,644.1875" style="stroke:#181818;stroke-width:1.0;"/><line style="stroke:#181818;stroke-width:1.0;" x1="824" x2="1373" y1="640.1875" y2="640.1875"/><text fill="#000000" font-family="sans-serif" font-size="13" lengthAdjust="spacing" textLength="78" x="1057.5" y="635.4453">return HTML</text><polygon fill="#181818" points="66.5,665.498,56.5,669.498,66.5,673.498" style="stroke:#181818;stroke-width:1.0;"/><line style="stroke:#181818;stroke-width:1.0;" x1="60.5" x2="818" y1="669.498" y2="669.498"/><text fill="#000000" font-family="sans-serif" font-size="13" lengthAdjust="spacing" textLength="80" x="397.25" y="664.7559">render HTML</text><polygon fill="#181818" points="1796,701.8086,1806,705.8086,1796,709.8086" style="stroke:#181818;stroke-width:1.0;"/><line style="stroke:#181818;stroke-width:1.0;" x1="1374" x2="1802" y1="705.8086" y2="705.8086"/><text fill="#000000" font-family="sans-serif" font-size="13" lengthAdjust="spacing" textLength="126" x="1528" y="701.0664">build request object</text><polygon fill="#181818" points="3681,731.1191,3691,735.1191,3681,739.1191" style="stroke:#181818;stroke-width:1.0;"/><line style="stroke:#181818;stroke-width:1.0;" x1="1808" x2="3687" y1="735.1191" y2="735.1191"/><text fill="#000000" font-family="sans-serif" font-size="13" lengthAdjust="spacing" textLength="138" x="2681.5" y="730.377">send backend request</text><path d="M20,750.1191 L82,750.1191 L82,757.4297 L72,767.4297 L20,767.4297 L20,750.1191 " fill="#EEEEEE" style="stroke:#000000;stroke-width:1.5;"/><rect fill="none" height="193.1738" style="stroke:#000000;stroke-width:1.5;" width="3753.5" x="20" y="750.1191"/><text fill="#000000" font-family="sans-serif" font-size="13" font-weight="bold" lengthAdjust="spacing" textLength="17" x="35" y="763.6875">alt</text><text fill="#000000" font-family="sans-serif" font-size="11" font-weight="bold" lengthAdjust="spacing" textLength="299" x="97" y="762.7539">[Failed to fetch pool summary for court/bureau user]</text><polygon fill="#181818" points="1819,784.7402,1809,788.7402,1819,792.7402" style="stroke:#181818;stroke-width:1.0;"/><line style="stroke:#181818;stroke-width:1.0;stroke-dasharray:2.0,2.0;" x1="1813" x2="3692" y1="788.7402" y2="788.7402"/><text fill="#000000" font-family="sans-serif" font-size="13" lengthAdjust="spacing" textLength="91" x="2705" y="783.998">Error response</text><polygon fill="#181818" points="1385,814.0508,1375,818.0508,1385,822.0508" style="stroke:#181818;stroke-width:1.0;"/><line style="stroke:#181818;stroke-width:1.0;stroke-dasharray:2.0,2.0;" x1="1379" x2="1807" y1="818.0508" y2="818.0508"/><text fill="#000000" font-family="sans-serif" font-size="13" lengthAdjust="spacing" textLength="127" x="1527.5" y="813.3086">reject requestObject</text><polygon fill="#181818" points="2218.5,843.3613,2228.5,847.3613,2218.5,851.3613" style="stroke:#181818;stroke-width:1.0;"/><line style="stroke:#181818;stroke-width:1.0;" x1="1374" x2="2224.5" y1="847.3613" y2="847.3613"/><text fill="#000000" font-family="sans-serif" font-size="13" lengthAdjust="spacing" textLength="169" x="1717.75" y="842.6191">request and build template</text><polygon fill="#181818" points="1385,872.6719,1375,876.6719,1385,880.6719" style="stroke:#181818;stroke-width:1.0;"/><line style="stroke:#181818;stroke-width:1.0;" x1="1379" x2="2229.5" y1="876.6719" y2="876.6719"/><text fill="#000000" font-family="sans-serif" font-size="13" lengthAdjust="spacing" textLength="78" x="1763.25" y="871.9297">return HTML</text><polygon fill="#181818" points="553.5,901.9824,543.5,905.9824,553.5,909.9824" style="stroke:#181818;stroke-width:1.0;"/><line style="stroke:#181818;stroke-width:1.0;" x1="547.5" x2="1373" y1="905.9824" y2="905.9824"/><text fill="#000000" font-family="sans-serif" font-size="13" lengthAdjust="spacing" textLength="112" x="902.25" y="901.2402">return error HTML</text><polygon fill="#181818" points="66.5,931.293,56.5,935.293,66.5,939.293" style="stroke:#181818;stroke-width:1.0;"/><line style="stroke:#181818;stroke-width:1.0;" x1="60.5" x2="541.5" y1="935.293" y2="935.293"/><text fill="#000000" font-family="sans-serif" font-size="13" lengthAdjust="spacing" textLength="133" x="232.5" y="930.5508">render error message</text><polygon fill="#181818" points="1819,967.6035,1809,971.6035,1819,975.6035" style="stroke:#181818;stroke-width:1.0;"/><line style="stroke:#181818;stroke-width:1.0;" x1="1813" x2="3692" y1="971.6035" y2="971.6035"/><text fill="#000000" font-family="sans-serif" font-size="13" lengthAdjust="spacing" textLength="77" x="2712" y="966.8613">ok response</text><polygon fill="#181818" points="1385,996.9141,1375,1000.9141,1385,1004.9141" style="stroke:#181818;stroke-width:1.0;"/><line style="stroke:#181818;stroke-width:1.0;" x1="1379" x2="1807" y1="1000.9141" y2="1000.9141"/><text fill="#000000" font-family="sans-serif" font-size="13" lengthAdjust="spacing" textLength="96" x="1543" y="996.1719">resolve request</text><polygon fill="#181818" points="1996,1026.2246,2006,1030.2246,1996,1034.2246" style="stroke:#181818;stroke-width:1.0;"/><line style="stroke:#181818;stroke-width:1.0;" x1="1374" x2="2002" y1="1030.2246" y2="1030.2246"/><text fill="#000000" font-family="sans-serif" font-size="13" lengthAdjust="spacing" textLength="126" x="1628" y="1025.4824">build request object</text><polygon fill="#181818" points="3681,1055.5352,3691,1059.5352,3681,1063.5352" style="stroke:#181818;stroke-width:1.0;"/><line style="stroke:#181818;stroke-width:1.0;" x1="2008" x2="3687" y1="1059.5352" y2="1059.5352"/><text fill="#000000" font-family="sans-serif" font-size="13" lengthAdjust="spacing" textLength="138" x="2781.5" y="1054.793">send backend request</text><path d="M20,1074.5352 L82,1074.5352 L82,1081.8457 L72,1091.8457 L20,1091.8457 L20,1074.5352 " fill="#EEEEEE" style="stroke:#000000;stroke-width:1.5;"/><rect fill="none" height="193.1738" style="stroke:#000000;stroke-width:1.5;" width="3753.5" x="20" y="1074.5352"/><text fill="#000000" font-family="sans-serif" font-size="13" font-weight="bold" lengthAdjust="spacing" textLength="17" x="35" y="1088.1035">alt</text><text fill="#000000" font-family="sans-serif" font-size="11" font-weight="bold" lengthAdjust="spacing" textLength="299" x="97" y="1087.1699">[Failed to fetch pool members for court/bureau user]</text><polygon fill="#181818" points="2019,1109.1563,2009,1113.1563,2019,1117.1563" style="stroke:#181818;stroke-width:1.0;"/><line style="stroke:#181818;stroke-width:1.0;stroke-dasharray:2.0,2.0;" x1="2013" x2="3692" y1="1113.1563" y2="1113.1563"/><text fill="#000000" font-family="sans-serif" font-size="13" lengthAdjust="spacing" textLength="91" x="2805" y="1108.4141">Error response</text><polygon fill="#181818" points="1385,1138.4668,1375,1142.4668,1385,1146.4668" style="stroke:#181818;stroke-width:1.0;"/><line style="stroke:#181818;stroke-width:1.0;stroke-dasharray:2.0,2.0;" x1="1379" x2="2007" y1="1142.4668" y2="1142.4668"/><text fill="#000000" font-family="sans-serif" font-size="13" lengthAdjust="spacing" textLength="127" x="1627.5" y="1137.7246">reject requestObject</text><polygon fill="#181818" points="2218.5,1167.7773,2228.5,1171.7773,2218.5,1175.7773" style="stroke:#181818;stroke-width:1.0;"/><line style="stroke:#181818;stroke-width:1.0;" x1="1374" x2="2224.5" y1="1171.7773" y2="1171.7773"/><text fill="#000000" font-family="sans-serif" font-size="13" lengthAdjust="spacing" textLength="169" x="1717.75" y="1167.0352">request and build template</text><polygon fill="#181818" points="1385,1197.0879,1375,1201.0879,1385,1205.0879" style="stroke:#181818;stroke-width:1.0;"/><line style="stroke:#181818;stroke-width:1.0;" x1="1379" x2="2229.5" y1="1201.0879" y2="1201.0879"/><text fill="#000000" font-family="sans-serif" font-size="13" lengthAdjust="spacing" textLength="78" x="1763.25" y="1196.3457">return HTML</text><polygon fill="#181818" points="553.5,1226.3984,543.5,1230.3984,553.5,1234.3984" style="stroke:#181818;stroke-width:1.0;"/><line style="stroke:#181818;stroke-width:1.0;" x1="547.5" x2="1373" y1="1230.3984" y2="1230.3984"/><text fill="#000000" font-family="sans-serif" font-size="13" lengthAdjust="spacing" textLength="112" x="902.25" y="1225.6563">return error HTML</text><polygon fill="#181818" points="66.5,1255.709,56.5,1259.709,66.5,1263.709" style="stroke:#181818;stroke-width:1.0;"/><line style="stroke:#181818;stroke-width:1.0;" x1="60.5" x2="541.5" y1="1259.709" y2="1259.709"/><text fill="#000000" font-family="sans-serif" font-size="13" lengthAdjust="spacing" textLength="133" x="232.5" y="1254.9668">render error message</text><polygon fill="#181818" points="2019,1292.0195,2009,1296.0195,2019,1300.0195" style="stroke:#181818;stroke-width:1.0;"/><line style="stroke:#181818;stroke-width:1.0;" x1="2013" x2="3692" y1="1296.0195" y2="1296.0195"/><text fill="#000000" font-family="sans-serif" font-size="13" lengthAdjust="spacing" textLength="77" x="2812" y="1291.2773">ok response</text><polygon fill="#181818" points="1385,1321.3301,1375,1325.3301,1385,1329.3301" style="stroke:#181818;stroke-width:1.0;"/><line style="stroke:#181818;stroke-width:1.0;" x1="1379" x2="2007" y1="1325.3301" y2="1325.3301"/><text fill="#000000" font-family="sans-serif" font-size="13" lengthAdjust="spacing" textLength="96" x="1643" y="1320.5879">resolve request</text><path d="M20,1340.3301 L82,1340.3301 L82,1347.6406 L72,1357.6406 L20,1357.6406 L20,1340.3301 " fill="#EEEEEE" style="stroke:#000000;stroke-width:1.5;"/><rect fill="none" height="266.75" style="stroke:#000000;stroke-width:1.5;" width="3243.5" x="20" y="1340.3301"/><text fill="#000000" font-family="sans-serif" font-size="13" font-weight="bold" lengthAdjust="spacing" textLength="17" x="35" y="1353.8984">alt</text><text fill="#000000" font-family="sans-serif" font-size="11" font-weight="bold" lengthAdjust="spacing" textLength="79" x="97" y="1352.9648">[is court user]</text><polygon fill="#181818" points="3022.5,1374.9512,3032.5,1378.9512,3022.5,1382.9512" style="stroke:#181818;stroke-width:1.0;"/><line style="stroke:#181818;stroke-width:1.0;" x1="1374" x2="3028.5" y1="1378.9512" y2="1378.9512"/><text fill="#000000" font-family="sans-serif" font-size="13" lengthAdjust="spacing" textLength="169" x="2119.75" y="1374.209">request and build template</text><polygon fill="#181818" points="1385,1404.2617,1375,1408.2617,1385,1412.2617" style="stroke:#181818;stroke-width:1.0;"/><line style="stroke:#181818;stroke-width:1.0;" x1="1379" x2="3033.5" y1="1408.2617" y2="1408.2617"/><text fill="#000000" font-family="sans-serif" font-size="13" lengthAdjust="spacing" textLength="78" x="2165.25" y="1403.5195">return HTML</text><polygon fill="#181818" points="830,1433.5723,820,1437.5723,830,1441.5723" style="stroke:#181818;stroke-width:1.0;"/><line style="stroke:#181818;stroke-width:1.0;" x1="824" x2="1373" y1="1437.5723" y2="1437.5723"/><text fill="#000000" font-family="sans-serif" font-size="13" lengthAdjust="spacing" textLength="78" x="1057.5" y="1432.8301">return HTML</text><polygon fill="#181818" points="66.5,1462.8828,56.5,1466.8828,66.5,1470.8828" style="stroke:#181818;stroke-width:1.0;"/><line style="stroke:#181818;stroke-width:1.0;" x1="60.5" x2="818" y1="1466.8828" y2="1466.8828"/><text fill="#000000" font-family="sans-serif" font-size="13" lengthAdjust="spacing" textLength="80" x="397.25" y="1462.1406">render HTML</text><line style="stroke:#000000;stroke-width:1.0;stroke-dasharray:2.0,2.0;" x1="20" x2="3263.5" y1="1475.8828" y2="1475.8828"/><text fill="#000000" font-family="sans-serif" font-size="11" font-weight="bold" lengthAdjust="spacing" textLength="88" x="25" y="1486.5176">[is bureau user]</text><polygon fill="#181818" points="2568,1507.1484,2578,1511.1484,2568,1515.1484" style="stroke:#181818;stroke-width:1.0;"/><line style="stroke:#181818;stroke-width:1.0;" x1="1374" x2="2574" y1="1511.1484" y2="1511.1484"/><text fill="#000000" font-family="sans-serif" font-size="13" lengthAdjust="spacing" textLength="169" x="1892.5" y="1506.4063">request and build template</text><polygon fill="#181818" points="1385,1536.459,1375,1540.459,1385,1544.459" style="stroke:#181818;stroke-width:1.0;"/><line style="stroke:#181818;stroke-width:1.0;" x1="1379" x2="2579" y1="1540.459" y2="1540.459"/><text fill="#000000" font-family="sans-serif" font-size="13" lengthAdjust="spacing" textLength="78" x="1938" y="1535.7168">return HTML</text><polygon fill="#181818" points="830,1565.7695,820,1569.7695,830,1573.7695" style="stroke:#181818;stroke-width:1.0;"/><line style="stroke:#181818;stroke-width:1.0;" x1="824" x2="1373" y1="1569.7695" y2="1569.7695"/><text fill="#000000" font-family="sans-serif" font-size="13" lengthAdjust="spacing" textLength="78" x="1057.5" y="1565.0273">return HTML</text><polygon fill="#181818" points="66.5,1595.0801,56.5,1599.0801,66.5,1603.0801" style="stroke:#181818;stroke-width:1.0;"/><line style="stroke:#181818;stroke-width:1.0;" x1="60.5" x2="818" y1="1599.0801" y2="1599.0801"/><text fill="#000000" font-family="sans-serif" font-size="13" lengthAdjust="spacing" textLength="80" x="397.25" y="1594.3379">render HTML</text><polygon fill="#181818" points="807,1631.3906,817,1635.3906,807,1639.3906" style="stroke:#181818;stroke-width:1.0;"/><line style="stroke:#181818;stroke-width:1.0;" x1="55.5" x2="813" y1="1635.3906" y2="1635.3906"/><text fill="#000000" font-family="sans-serif" font-size="13" lengthAdjust="spacing" textLength="290" x="292.25" y="1630.6484">Filter jurors using radio buttons or filter panel</text><polygon fill="#181818" points="1362,1660.7012,1372,1664.7012,1362,1668.7012" style="stroke:#181818;stroke-width:1.0;"/><line style="stroke:#181818;stroke-width:1.0;" x1="819" x2="1368" y1="1664.7012" y2="1664.7012"/><text fill="#000000" font-family="sans-serif" font-size="13" lengthAdjust="spacing" textLength="322" x="935.5" y="1659.959">call page controller with filters in query parameters</text><polygon fill="#181818" points="1796,1690.0117,1806,1694.0117,1796,1698.0117" style="stroke:#181818;stroke-width:1.0;"/><line style="stroke:#181818;stroke-width:1.0;" x1="1374" x2="1802" y1="1694.0117" y2="1694.0117"/><text fill="#000000" font-family="sans-serif" font-size="13" lengthAdjust="spacing" textLength="126" x="1528" y="1689.2695">build request object</text><polygon fill="#181818" points="3681,1719.3223,3691,1723.3223,3681,1727.3223" style="stroke:#181818;stroke-width:1.0;"/><line style="stroke:#181818;stroke-width:1.0;" x1="1808" x2="3687" y1="1723.3223" y2="1723.3223"/><text fill="#000000" font-family="sans-serif" font-size="13" lengthAdjust="spacing" textLength="138" x="2681.5" y="1718.5801">send backend request</text><path d="M20,1738.3223 L82,1738.3223 L82,1745.6328 L72,1755.6328 L20,1755.6328 L20,1738.3223 " fill="#EEEEEE" style="stroke:#000000;stroke-width:1.5;"/><rect fill="none" height="193.1738" style="stroke:#000000;stroke-width:1.5;" width="3753.5" x="20" y="1738.3223"/><text fill="#000000" font-family="sans-serif" font-size="13" font-weight="bold" lengthAdjust="spacing" textLength="17" x="35" y="1751.8906">alt</text><text fill="#000000" font-family="sans-serif" font-size="11" font-weight="bold" lengthAdjust="spacing" textLength="299" x="97" y="1750.957">[Failed to fetch pool summary for court/bureau user]</text><polygon fill="#181818" points="1819,1772.9434,1809,1776.9434,1819,1780.9434" style="stroke:#181818;stroke-width:1.0;"/><line style="stroke:#181818;stroke-width:1.0;stroke-dasharray:2.0,2.0;" x1="1813" x2="3692" y1="1776.9434" y2="1776.9434"/><text fill="#000000" font-family="sans-serif" font-size="13" lengthAdjust="spacing" textLength="91" x="2705" y="1772.2012">Error response</text><polygon fill="#181818" points="1385,1802.2539,1375,1806.2539,1385,1810.2539" style="stroke:#181818;stroke-width:1.0;"/><line style="stroke:#181818;stroke-width:1.0;stroke-dasharray:2.0,2.0;" x1="1379" x2="1807" y1="1806.2539" y2="1806.2539"/><text fill="#000000" font-family="sans-serif" font-size="13" lengthAdjust="spacing" textLength="127" x="1527.5" y="1801.5117">reject requestObject</text><polygon fill="#181818" points="2218.5,1831.5645,2228.5,1835.5645,2218.5,1839.5645" style="stroke:#181818;stroke-width:1.0;"/><line style="stroke:#181818;stroke-width:1.0;" x1="1374" x2="2224.5" y1="1835.5645" y2="1835.5645"/><text fill="#000000" font-family="sans-serif" font-size="13" lengthAdjust="spacing" textLength="169" x="1717.75" y="1830.8223">request and build template</text><polygon fill="#181818" points="1385,1860.875,1375,1864.875,1385,1868.875" style="stroke:#181818;stroke-width:1.0;"/><line style="stroke:#181818;stroke-width:1.0;" x1="1379" x2="2229.5" y1="1864.875" y2="1864.875"/><text fill="#000000" font-family="sans-serif" font-size="13" lengthAdjust="spacing" textLength="78" x="1763.25" y="1860.1328">return HTML</text><polygon fill="#181818" points="553.5,1890.1855,543.5,1894.1855,553.5,1898.1855" style="stroke:#181818;stroke-width:1.0;"/><line style="stroke:#181818;stroke-width:1.0;" x1="547.5" x2="1373" y1="1894.1855" y2="1894.1855"/><text fill="#000000" font-family="sans-serif" font-size="13" lengthAdjust="spacing" textLength="112" x="902.25" y="1889.4434">return error HTML</text><polygon fill="#181818" points="66.5,1919.4961,56.5,1923.4961,66.5,1927.4961" style="stroke:#181818;stroke-width:1.0;"/><line style="stroke:#181818;stroke-width:1.0;" x1="60.5" x2="541.5" y1="1923.4961" y2="1923.4961"/><text fill="#000000" font-family="sans-serif" font-size="13" lengthAdjust="spacing" textLength="133" x="232.5" y="1918.7539">render error message</text><polygon fill="#181818" points="1819,1955.8066,1809,1959.8066,1819,1963.8066" style="stroke:#181818;stroke-width:1.0;"/><line style="stroke:#181818;stroke-width:1.0;" x1="1813" x2="3692" y1="1959.8066" y2="1959.8066"/><text fill="#000000" font-family="sans-serif" font-size="13" lengthAdjust="spacing" textLength="77" x="2712" y="1955.0645">ok response</text><polygon fill="#181818" points="1385,1985.1172,1375,1989.1172,1385,1993.1172" style="stroke:#181818;stroke-width:1.0;"/><line style="stroke:#181818;stroke-width:1.0;" x1="1379" x2="1807" y1="1989.1172" y2="1989.1172"/><text fill="#000000" font-family="sans-serif" font-size="13" lengthAdjust="spacing" textLength="96" x="1543" y="1984.375">resolve request</text><polygon fill="#181818" points="1996,2014.4277,2006,2018.4277,1996,2022.4277" style="stroke:#181818;stroke-width:1.0;"/><line style="stroke:#181818;stroke-width:1.0;" x1="1374" x2="2002" y1="2018.4277" y2="2018.4277"/><text fill="#000000" font-family="sans-serif" font-size="13" lengthAdjust="spacing" textLength="126" x="1628" y="2013.6855">build request object</text><polygon fill="#181818" points="3681,2043.7383,3691,2047.7383,3681,2051.7383" style="stroke:#181818;stroke-width:1.0;"/><line style="stroke:#181818;stroke-width:1.0;" x1="2008" x2="3687" y1="2047.7383" y2="2047.7383"/><text fill="#000000" font-family="sans-serif" font-size="13" lengthAdjust="spacing" textLength="138" x="2781.5" y="2042.9961">send backend request</text><path d="M20,2062.7383 L82,2062.7383 L82,2070.0488 L72,2080.0488 L20,2080.0488 L20,2062.7383 " fill="#EEEEEE" style="stroke:#000000;stroke-width:1.5;"/><rect fill="none" height="193.1738" style="stroke:#000000;stroke-width:1.5;" width="3753.5" x="20" y="2062.7383"/><text fill="#000000" font-family="sans-serif" font-size="13" font-weight="bold" lengthAdjust="spacing" textLength="17" x="35" y="2076.3066">alt</text><text fill="#000000" font-family="sans-serif" font-size="11" font-weight="bold" lengthAdjust="spacing" textLength="299" x="97" y="2075.373">[Failed to fetch pool members for court/bureau user]</text><polygon fill="#181818" points="2019,2097.3594,2009,2101.3594,2019,2105.3594" style="stroke:#181818;stroke-width:1.0;"/><line style="stroke:#181818;stroke-width:1.0;stroke-dasharray:2.0,2.0;" x1="2013" x2="3692" y1="2101.3594" y2="2101.3594"/><text fill="#000000" font-family="sans-serif" font-size="13" lengthAdjust="spacing" textLength="91" x="2805" y="2096.6172">Error response</text><polygon fill="#181818" points="1385,2126.6699,1375,2130.6699,1385,2134.6699" style="stroke:#181818;stroke-width:1.0;"/><line style="stroke:#181818;stroke-width:1.0;stroke-dasharray:2.0,2.0;" x1="1379" x2="2007" y1="2130.6699" y2="2130.6699"/><text fill="#000000" font-family="sans-serif" font-size="13" lengthAdjust="spacing" textLength="127" x="1627.5" y="2125.9277">reject requestObject</text><polygon fill="#181818" points="2218.5,2155.9805,2228.5,2159.9805,2218.5,2163.9805" style="stroke:#181818;stroke-width:1.0;"/><line style="stroke:#181818;stroke-width:1.0;" x1="1374" x2="2224.5" y1="2159.9805" y2="2159.9805"/><text fill="#000000" font-family="sans-serif" font-size="13" lengthAdjust="spacing" textLength="169" x="1717.75" y="2155.2383">request and build template</text><polygon fill="#181818" points="1385,2185.291,1375,2189.291,1385,2193.291" style="stroke:#181818;stroke-width:1.0;"/><line style="stroke:#181818;stroke-width:1.0;" x1="1379" x2="2229.5" y1="2189.291" y2="2189.291"/><text fill="#000000" font-family="sans-serif" font-size="13" lengthAdjust="spacing" textLength="78" x="1763.25" y="2184.5488">return HTML</text><polygon fill="#181818" points="553.5,2214.6016,543.5,2218.6016,553.5,2222.6016" style="stroke:#181818;stroke-width:1.0;"/><line style="stroke:#181818;stroke-width:1.0;" x1="547.5" x2="1373" y1="2218.6016" y2="2218.6016"/><text fill="#000000" font-family="sans-serif" font-size="13" lengthAdjust="spacing" textLength="112" x="902.25" y="2213.8594">return error HTML</text><polygon fill="#181818" points="66.5,2243.9121,56.5,2247.9121,66.5,2251.9121" style="stroke:#181818;stroke-width:1.0;"/><line style="stroke:#181818;stroke-width:1.0;" x1="60.5" x2="541.5" y1="2247.9121" y2="2247.9121"/><text fill="#000000" font-family="sans-serif" font-size="13" lengthAdjust="spacing" textLength="133" x="232.5" y="2243.1699">render error message</text><polygon fill="#181818" points="2019,2280.2227,2009,2284.2227,2019,2288.2227" style="stroke:#181818;stroke-width:1.0;"/><line style="stroke:#181818;stroke-width:1.0;" x1="2013" x2="3692" y1="2284.2227" y2="2284.2227"/><text fill="#000000" font-family="sans-serif" font-size="13" lengthAdjust="spacing" textLength="77" x="2812" y="2279.4805">ok response</text><polygon fill="#181818" points="1385,2309.5332,1375,2313.5332,1385,2317.5332" style="stroke:#181818;stroke-width:1.0;"/><line style="stroke:#181818;stroke-width:1.0;" x1="1379" x2="2007" y1="2313.5332" y2="2313.5332"/><text fill="#000000" font-family="sans-serif" font-size="13" lengthAdjust="spacing" textLength="96" x="1643" y="2308.791">resolve request</text><path d="M20,2328.5332 L82,2328.5332 L82,2335.8438 L72,2345.8438 L20,2345.8438 L20,2328.5332 " fill="#EEEEEE" style="stroke:#000000;stroke-width:1.5;"/><rect fill="none" height="266.75" style="stroke:#000000;stroke-width:1.5;" width="3243.5" x="20" y="2328.5332"/><text fill="#000000" font-family="sans-serif" font-size="13" font-weight="bold" lengthAdjust="spacing" textLength="17" x="35" y="2342.1016">alt</text><text fill="#000000" font-family="sans-serif" font-size="11" font-weight="bold" lengthAdjust="spacing" textLength="79" x="97" y="2341.168">[is court user]</text><polygon fill="#181818" points="3022.5,2363.1543,3032.5,2367.1543,3022.5,2371.1543" style="stroke:#181818;stroke-width:1.0;"/><line style="stroke:#181818;stroke-width:1.0;" x1="1374" x2="3028.5" y1="2367.1543" y2="2367.1543"/><text fill="#000000" font-family="sans-serif" font-size="13" lengthAdjust="spacing" textLength="169" x="2119.75" y="2362.4121">request and build template</text><polygon fill="#181818" points="1385,2392.4648,1375,2396.4648,1385,2400.4648" style="stroke:#181818;stroke-width:1.0;"/><line style="stroke:#181818;stroke-width:1.0;" x1="1379" x2="3033.5" y1="2396.4648" y2="2396.4648"/><text fill="#000000" font-family="sans-serif" font-size="13" lengthAdjust="spacing" textLength="78" x="2165.25" y="2391.7227">return HTML</text><polygon fill="#181818" points="830,2421.7754,820,2425.7754,830,2429.7754" style="stroke:#181818;stroke-width:1.0;"/><line style="stroke:#181818;stroke-width:1.0;" x1="824" x2="1373" y1="2425.7754" y2="2425.7754"/><text fill="#000000" font-family="sans-serif" font-size="13" lengthAdjust="spacing" textLength="78" x="1057.5" y="2421.0332">return HTML</text><polygon fill="#181818" points="66.5,2451.0859,56.5,2455.0859,66.5,2459.0859" style="stroke:#181818;stroke-width:1.0;"/><line style="stroke:#181818;stroke-width:1.0;" x1="60.5" x2="818" y1="2455.0859" y2="2455.0859"/><text fill="#000000" font-family="sans-serif" font-size="13" lengthAdjust="spacing" textLength="80" x="397.25" y="2450.3438">render HTML</text><line style="stroke:#000000;stroke-width:1.0;stroke-dasharray:2.0,2.0;" x1="20" x2="3263.5" y1="2464.0859" y2="2464.0859"/><text fill="#000000" font-family="sans-serif" font-size="11" font-weight="bold" lengthAdjust="spacing" textLength="88" x="25" y="2474.7207">[is bureau user]</text><polygon fill="#181818" points="2568,2495.3516,2578,2499.3516,2568,2503.3516" style="stroke:#181818;stroke-width:1.0;"/><line style="stroke:#181818;stroke-width:1.0;" x1="1374" x2="2574" y1="2499.3516" y2="2499.3516"/><text fill="#000000" font-family="sans-serif" font-size="13" lengthAdjust="spacing" textLength="169" x="1892.5" y="2494.6094">request and build template</text><polygon fill="#181818" points="1385,2524.6621,1375,2528.6621,1385,2532.6621" style="stroke:#181818;stroke-width:1.0;"/><line style="stroke:#181818;stroke-width:1.0;" x1="1379" x2="2579" y1="2528.6621" y2="2528.6621"/><text fill="#000000" font-family="sans-serif" font-size="13" lengthAdjust="spacing" textLength="78" x="1938" y="2523.9199">return HTML</text><polygon fill="#181818" points="830,2553.9727,820,2557.9727,830,2561.9727" style="stroke:#181818;stroke-width:1.0;"/><line style="stroke:#181818;stroke-width:1.0;" x1="824" x2="1373" y1="2557.9727" y2="2557.9727"/><text fill="#000000" font-family="sans-serif" font-size="13" lengthAdjust="spacing" textLength="78" x="1057.5" y="2553.2305">return HTML</text><polygon fill="#181818" points="66.5,2583.2832,56.5,2587.2832,66.5,2591.2832" style="stroke:#181818;stroke-width:1.0;"/><line style="stroke:#181818;stroke-width:1.0;" x1="60.5" x2="818" y1="2587.2832" y2="2587.2832"/><text fill="#000000" font-family="sans-serif" font-size="13" lengthAdjust="spacing" textLength="80" x="397.25" y="2582.541">render HTML</text><!--SRC=[hLPTJzim57tFhxYWIO3KZtU4a499KLbfM1isxMbAtTlMrB4xsu7nxtVjXDBGf8DgVKYRwtlF_V3ngPTyXf1BmUKAPy4HbqpaP5cWHCrPUoeKMvdEMgJIvfa80hFYSftgD8E9VH48nfARMuBj9VoTesHuXyQa2mm5NyWCfGL63zH1G6wMCxucL0YPLMGwEJc1OTmBXp2E7vB1wARYTA-Kk4ibWJcSU_g6Yuir6TlPndfvkHCIFw5-ulXS1dJVHHJlgdJgdhlNKPvDKHDM1Uocc4UajTAlOEXUdAChlHUFad4y74PZ24VNC8w-FKIJ1EAhswYNJFRqqbFIQYK4wjsEEcops7aqU_hR1NbjQYz47orRzfHMr9o7cpuYimGnVxTm7SQT1ThJiveQ9dcMfVfb4xkks1h3xj3DsLJ2IflBjbQcY2l6cqHtzyCmYVPDCi6CU6fhcD7bSeP_El9nzQwGgrnZcczFSWz8bInJ7zgk3ditGq_bsXwKWBd83-2_xTxdC_ZO6bJFyosSNvxhfblAGXdXTwO_62RHUE9P_pqS3gx391vFYhMhiFSr8llRuQXEFsKhbBCtyfQRVHi_Z4VHJ-WFun-1bmTeNzP9m3afZN3qIS5r1dEjCh1BRa1mOq7DGJibCXPdtPHP_eJUpxI080sccYrXJZ-ByA0cGvctvfoT0qk5WBNpObiTf6ApAGKgW3DHJNv38JVa1VHfbe5sSqwDCwvTnrOLBRzjhY-b1hcGgtPplW-XqZxHyulhERmVZEaLjMT9BFjAPwVr5RSQ9APLPLWBZlif5pXp1NZj0ROrmkDMmqblrRHwvihKlhvNjqIvXSOIznoXriw_o5dW9X4S6Kj4DlaKYbJRRWVDQKT9_pqYlrEcYF4qzWGhXSdpx9E3ExZmYfP_iF2iYFbVXTUViSyIeK6hwsX0Hq8OT3ctwZuWQVDVK4DMejyHFOXxGLKSAvUTS-XpGNSjUCoTSbDrN2v0fpEkg61hbJHE1EU54yan5lfN0Vci-i4pjyiIqm2NGE9BtFINGdIspGMpuUG4Vm40]--></g></svg>