<?xml version="1.0" encoding="us-ascii" standalone="no"?><svg xmlns="http://www.w3.org/2000/svg" xmlns:xlink="http://www.w3.org/1999/xlink" contentStyleType="text/css" height="670px" preserveAspectRatio="none" style="width:2059px;height:670px;background:#FFFFFF;" version="1.1" viewBox="0 0 2059 670" width="2059px" zoomAndPan="magnify"><defs/><g><rect fill="none" height="75.9316" style="stroke:#000000;stroke-width:1.5;" width="844" x="10" y="128.5977"/><rect fill="none" height="193.1738" style="stroke:#000000;stroke-width:1.5;" width="2043" x="10" y="453.0137"/><line style="stroke:#181818;stroke-width:0.5;stroke-dasharray:5.0,5.0;" x1="45" x2="45" y1="52.9766" y2="663.1875"/><line style="stroke:#181818;stroke-width:0.5;stroke-dasharray:5.0,5.0;" x1="336" x2="336" y1="52.9766" y2="663.1875"/><line style="stroke:#181818;stroke-width:0.5;stroke-dasharray:5.0,5.0;" x1="620" x2="620" y1="52.9766" y2="663.1875"/><line style="stroke:#181818;stroke-width:0.5;stroke-dasharray:5.0,5.0;" x1="770" x2="770" y1="52.9766" y2="663.1875"/><line style="stroke:#181818;stroke-width:0.5;stroke-dasharray:5.0,5.0;" x1="949" x2="949" y1="52.9766" y2="663.1875"/><line style="stroke:#181818;stroke-width:0.5;stroke-dasharray:5.0,5.0;" x1="1164" x2="1164" y1="52.9766" y2="663.1875"/><line style="stroke:#181818;stroke-width:0.5;stroke-dasharray:5.0,5.0;" x1="1503" x2="1503" y1="52.9766" y2="663.1875"/><line style="stroke:#181818;stroke-width:0.5;stroke-dasharray:5.0,5.0;" x1="1812" x2="1812" y1="52.9766" y2="663.1875"/><line style="stroke:#181818;stroke-width:0.5;stroke-dasharray:5.0,5.0;" x1="1972" x2="1972" y1="52.9766" y2="663.1875"/><rect fill="#E2E2F0" height="30.4883" rx="2.5" ry="2.5" style="stroke:#181818;stroke-width:0.5;" width="51" x="20" y="21.4883"/><text fill="#000000" font-family="sans-serif" font-size="14" lengthAdjust="spacing" textLength="37" x="27" y="42.0234">Actor</text><rect fill="#E2E2F0" height="46.9766" rx="2.5" ry="2.5" style="stroke:#181818;stroke-width:0.5;" width="413" x="130" y="5"/><text fill="#000000" font-family="sans-serif" font-size="14" font-style="italic" lengthAdjust="spacing" textLength="399" x="137" y="25.5352">&#171;/juror-bureau/client/documents/_common/${template}&#187;</text><text fill="#000000" font-family="sans-serif" font-size="14" lengthAdjust="spacing" textLength="178" x="247.5" y="42.0234">GenericDocumentListPage</text><rect fill="#E2E2F0" height="46.9766" rx="2.5" ry="2.5" style="stroke:#181818;stroke-width:0.5;" width="134" x="553" y="5"/><text fill="#000000" font-family="sans-serif" font-size="14" font-style="italic" lengthAdjust="spacing" textLength="56" x="592" y="25.5352">&#171;/error&#187;</text><text fill="#000000" font-family="sans-serif" font-size="14" lengthAdjust="spacing" textLength="120" x="560" y="42.0234">GenericErrorPage</text><rect fill="#FFFFE0" height="46.9766" rx="2.5" ry="2.5" style="stroke:#181818;stroke-width:0.5;" width="147" x="697" y="5"/><text fill="#000000" font-family="sans-serif" font-size="14" font-style="italic" lengthAdjust="spacing" textLength="133" x="704" y="25.5352">&#171;print.controller.js&#187;</text><text fill="#000000" font-family="sans-serif" font-size="14" lengthAdjust="spacing" textLength="103" x="719" y="42.0234">printController</text><rect fill="#FFFFE0" height="46.9766" rx="2.5" ry="2.5" style="stroke:#181818;stroke-width:0.5;" width="191" x="854" y="5"/><text fill="#000000" font-family="sans-serif" font-size="14" font-style="italic" lengthAdjust="spacing" textLength="177" x="861" y="25.5352">&#171;reissueLetterDAO.post()&#187;</text><text fill="#000000" font-family="sans-serif" font-size="14" lengthAdjust="spacing" textLength="119" x="890" y="42.0234">reissueLetterDAO</text><rect fill="#E2E2F0" height="46.9766" rx="2.5" ry="2.5" style="stroke:#181818;stroke-width:0.5;" width="219" x="1055" y="5"/><text fill="#000000" font-family="sans-serif" font-size="14" font-style="italic" lengthAdjust="spacing" textLength="205" x="1062" y="25.5352">&#171;/juror-management/record&#187;</text><text fill="#000000" font-family="sans-serif" font-size="14" lengthAdjust="spacing" textLength="115" x="1107" y="42.0234">JurorRecordPage</text><rect fill="#E2E2F0" height="46.9766" rx="2.5" ry="2.5" style="stroke:#181818;stroke-width:0.5;" width="438" x="1284" y="5"/><text fill="#000000" font-family="sans-serif" font-size="14" font-style="italic" lengthAdjust="spacing" textLength="424" x="1291" y="25.5352">&#171;/juror-bureau/client/documents/_common/${template}.njk&#187;</text><text fill="#000000" font-family="sans-serif" font-size="14" lengthAdjust="spacing" textLength="209" x="1398.5" y="42.0234">GenericDocumentListTemplate</text><rect fill="#E6E6FA" height="46.9766" rx="2.5" ry="2.5" style="stroke:#181818;stroke-width:0.5;" width="160" x="1732" y="5"/><text fill="#000000" font-family="sans-serif" font-size="14" font-style="italic" lengthAdjust="spacing" textLength="146" x="1739" y="25.5352">&#171;_errors/generic.njk&#187;</text><text fill="#000000" font-family="sans-serif" font-size="14" lengthAdjust="spacing" textLength="99" x="1762.5" y="42.0234">ErrorTemplate</text><rect fill="#E2E2F0" height="30.4883" rx="2.5" ry="2.5" style="stroke:#181818;stroke-width:0.5;" width="141" x="1902" y="21.4883"/><text fill="#000000" font-family="sans-serif" font-size="14" lengthAdjust="spacing" textLength="127" x="1909" y="42.0234">BackendController</text><polygon fill="#181818" points="324.5,80.2871,334.5,84.2871,324.5,88.2871" style="stroke:#181818;stroke-width:1.0;"/><line style="stroke:#181818;stroke-width:1.0;" x1="45.5" x2="330.5" y1="84.2871" y2="84.2871"/><text fill="#000000" font-family="sans-serif" font-size="13" lengthAdjust="spacing" textLength="267" x="57.5" y="79.5449">select document type from documents list</text><polygon fill="#181818" points="758.5,109.5977,768.5,113.5977,758.5,117.5977" style="stroke:#181818;stroke-width:1.0;"/><line style="stroke:#181818;stroke-width:1.0;" x1="336.5" x2="764.5" y1="113.5977" y2="113.5977"/><text fill="#000000" font-family="sans-serif" font-size="13" lengthAdjust="spacing" textLength="87" x="510" y="108.8555">call controller</text><path d="M10,128.5977 L72,128.5977 L72,135.9082 L62,145.9082 L10,145.9082 L10,128.5977 " fill="#EEEEEE" style="stroke:#000000;stroke-width:1.5;"/><rect fill="none" height="75.9316" style="stroke:#000000;stroke-width:1.5;" width="844" x="10" y="128.5977"/><text fill="#000000" font-family="sans-serif" font-size="13" font-weight="bold" lengthAdjust="spacing" textLength="17" x="25" y="142.166">alt</text><text fill="#000000" font-family="sans-serif" font-size="11" font-weight="bold" lengthAdjust="spacing" textLength="367" x="87" y="141.2324">[print when processing a summons RectangleStereotypeFontStyle]</text><polygon fill="#181818" points="324.5,163.2188,334.5,167.2188,324.5,171.2188" style="stroke:#181818;stroke-width:1.0;"/><line style="stroke:#181818;stroke-width:1.0;" x1="45.5" x2="330.5" y1="167.2188" y2="167.2188"/><text fill="#000000" font-family="sans-serif" font-size="13" lengthAdjust="spacing" textLength="267" x="57.5" y="162.4766">select document type from documents list</text><polygon fill="#181818" points="758.5,192.5293,768.5,196.5293,758.5,200.5293" style="stroke:#181818;stroke-width:1.0;"/><line style="stroke:#181818;stroke-width:1.0;" x1="336.5" x2="764.5" y1="196.5293" y2="196.5293"/><text fill="#000000" font-family="sans-serif" font-size="13" lengthAdjust="spacing" textLength="87" x="510" y="191.7871">call controller</text><polygon fill="#181818" points="937.5,228.8398,947.5,232.8398,937.5,236.8398" style="stroke:#181818;stroke-width:1.0;"/><line style="stroke:#181818;stroke-width:1.0;" x1="770.5" x2="943.5" y1="232.8398" y2="232.8398"/><text fill="#000000" font-family="sans-serif" font-size="13" lengthAdjust="spacing" textLength="126" x="797" y="228.0977">build request object</text><polygon fill="#181818" points="1960.5,258.1504,1970.5,262.1504,1960.5,266.1504" style="stroke:#181818;stroke-width:1.0;"/><line style="stroke:#181818;stroke-width:1.0;" x1="949.5" x2="1966.5" y1="262.1504" y2="262.1504"/><text fill="#000000" font-family="sans-serif" font-size="13" lengthAdjust="spacing" textLength="138" x="1392" y="257.4082">send backend request</text><polygon fill="#181818" points="960.5,287.4609,950.5,291.4609,960.5,295.4609" style="stroke:#181818;stroke-width:1.0;"/><line style="stroke:#181818;stroke-width:1.0;" x1="954.5" x2="1971.5" y1="291.4609" y2="291.4609"/><text fill="#000000" font-family="sans-serif" font-size="13" lengthAdjust="spacing" textLength="77" x="1422.5" y="286.7188">ok response</text><polygon fill="#181818" points="781.5,316.7715,771.5,320.7715,781.5,324.7715" style="stroke:#181818;stroke-width:1.0;"/><line style="stroke:#181818;stroke-width:1.0;" x1="775.5" x2="948.5" y1="320.7715" y2="320.7715"/><text fill="#000000" font-family="sans-serif" font-size="13" lengthAdjust="spacing" textLength="96" x="812" y="316.0293">resolve request</text><polygon fill="#181818" points="1491,346.082,1501,350.082,1491,354.082" style="stroke:#181818;stroke-width:1.0;"/><line style="stroke:#181818;stroke-width:1.0;" x1="770.5" x2="1497" y1="350.082" y2="350.082"/><text fill="#000000" font-family="sans-serif" font-size="13" lengthAdjust="spacing" textLength="169" x="1052.25" y="345.3398">request and build template</text><polygon fill="#181818" points="781.5,375.3926,771.5,379.3926,781.5,383.3926" style="stroke:#181818;stroke-width:1.0;"/><line style="stroke:#181818;stroke-width:1.0;" x1="775.5" x2="1502" y1="379.3926" y2="379.3926"/><text fill="#000000" font-family="sans-serif" font-size="13" lengthAdjust="spacing" textLength="78" x="1097.75" y="374.6504">return HTML</text><polygon fill="#181818" points="347.5,404.7031,337.5,408.7031,347.5,412.7031" style="stroke:#181818;stroke-width:1.0;"/><line style="stroke:#181818;stroke-width:1.0;" x1="341.5" x2="769.5" y1="408.7031" y2="408.7031"/><text fill="#000000" font-family="sans-serif" font-size="13" lengthAdjust="spacing" textLength="78" x="514.5" y="403.9609">return HTML</text><polygon fill="#181818" points="56.5,434.0137,46.5,438.0137,56.5,442.0137" style="stroke:#181818;stroke-width:1.0;"/><line style="stroke:#181818;stroke-width:1.0;" x1="50.5" x2="335.5" y1="438.0137" y2="438.0137"/><text fill="#000000" font-family="sans-serif" font-size="13" lengthAdjust="spacing" textLength="80" x="151" y="433.2715">render HTML</text><path d="M10,453.0137 L72,453.0137 L72,460.3242 L62,470.3242 L10,470.3242 L10,453.0137 " fill="#EEEEEE" style="stroke:#000000;stroke-width:1.5;"/><rect fill="none" height="193.1738" style="stroke:#000000;stroke-width:1.5;" width="2043" x="10" y="453.0137"/><text fill="#000000" font-family="sans-serif" font-size="13" font-weight="bold" lengthAdjust="spacing" textLength="17" x="25" y="466.582">alt</text><text fill="#000000" font-family="sans-serif" font-size="11" font-weight="bold" lengthAdjust="spacing" textLength="254" x="87" y="465.6484">[Unable to generate and print selected jurors]</text><polygon fill="#181818" points="960.5,487.6348,950.5,491.6348,960.5,495.6348" style="stroke:#181818;stroke-width:1.0;"/><line style="stroke:#181818;stroke-width:1.0;stroke-dasharray:2.0,2.0;" x1="954.5" x2="1971.5" y1="491.6348" y2="491.6348"/><text fill="#000000" font-family="sans-serif" font-size="13" lengthAdjust="spacing" textLength="91" x="1415.5" y="486.8926">error response</text><polygon fill="#181818" points="781.5,516.9453,771.5,520.9453,781.5,524.9453" style="stroke:#181818;stroke-width:1.0;"/><line style="stroke:#181818;stroke-width:1.0;stroke-dasharray:2.0,2.0;" x1="775.5" x2="948.5" y1="520.9453" y2="520.9453"/><text fill="#000000" font-family="sans-serif" font-size="13" lengthAdjust="spacing" textLength="127" x="796.5" y="516.2031">reject requestObject</text><polygon fill="#181818" points="1800,546.2559,1810,550.2559,1800,554.2559" style="stroke:#181818;stroke-width:1.0;"/><line style="stroke:#181818;stroke-width:1.0;" x1="770.5" x2="1806" y1="550.2559" y2="550.2559"/><text fill="#000000" font-family="sans-serif" font-size="13" lengthAdjust="spacing" textLength="169" x="1206.75" y="545.5137">request and build template</text><polygon fill="#181818" points="781.5,575.5664,771.5,579.5664,781.5,583.5664" style="stroke:#181818;stroke-width:1.0;"/><line style="stroke:#181818;stroke-width:1.0;" x1="775.5" x2="1811" y1="579.5664" y2="579.5664"/><text fill="#000000" font-family="sans-serif" font-size="13" lengthAdjust="spacing" textLength="78" x="1252.25" y="574.8242">return HTML</text><polygon fill="#181818" points="631,604.877,621,608.877,631,612.877" style="stroke:#181818;stroke-width:1.0;"/><line style="stroke:#181818;stroke-width:1.0;" x1="625" x2="769.5" y1="608.877" y2="608.877"/><text fill="#000000" font-family="sans-serif" font-size="13" lengthAdjust="spacing" textLength="78" x="656.25" y="604.1348">return HTML</text><polygon fill="#181818" points="56.5,634.1875,46.5,638.1875,56.5,642.1875" style="stroke:#181818;stroke-width:1.0;"/><line style="stroke:#181818;stroke-width:1.0;" x1="50.5" x2="619" y1="638.1875" y2="638.1875"/><text fill="#000000" font-family="sans-serif" font-size="13" lengthAdjust="spacing" textLength="108" x="278.75" y="633.4453">render error page</text><!--SRC=[xLLHJzim47xFhpXfau27ji3Oj4MeMbj26KifQrDU9zSzIi2nCzlfXARzzvqTsj8sW8GqYKtmW9hptUUx-xxpcPjKvaop38RsLY0OgrDkYqn0O9P7-AD0oR67nh0fjaGwbHbA2vp-eGu2ShCfJtD6jXQtYap1rjOMnFrEAuP1VvHyEUkkU9qMMka1SgKdvmG9XuUDQsUgPKpIjqDlQ7_SRAu4Tb4YfNYaUE6SujJOLO1neP4L3IvIXp6vypEDxrnbcPADjxyiPhbW5dzNGqUQOEQOw3x8pvVJwPybWtuSHmDedHt18FesYeO9zDkdKISPhc3bEfMsewJLIWZK1EKjTRumrQzDimblg9TNzXQ5K3zN03IcnXGOewKE7xNwXB1kgkVAsEsTTHIVQXBrpkDM4WsVsVMwlBvvklF9NIUVrVsAAtphxu5-z-qtZMbvTHb1rR8PoeaJdYkrtUfyZOYE9Jihc6t6RyXxoKKGU8b2hVcWc48mA91Rc1S0zZP7kDGgMvWC278F7e8Wz7KDXC2P4C3lPSB4dLJWvnLA-gaupLWgfy305AvZ1eWlo-HKu91eH-KoEIO8FwylfnHgCRq3QsuKkQ7Z4CP5AYPqG8-AiQ36rvHUiE57iHlK-Mha1CRbmHnZC_YmLXciRYZ4vDHLtCYLGYfo9NSbPhYugQh4nmOZNDJ9NDw-yla4LANm59Ojj8IJf1S_o1Q1RB9rFx2KJFLTTvBHVhnATw_HaMHZsWvMWHz5bushfvHkAJ2SW7y2J03qLy58DIL-mfUikDZDjZn0ZHFElB_zKaPLyKJHwiFoA2dL6LGWB3lgGZQNnrCykAXrBfRX2nBA1kLaAsVCnmMVoz_chwtlVtfPlvHD_5_ltjSb-xfaNvViwvBztvVikQ0NRjIBOORQf4h2Ndr_T_-W_cuxkIhW6CUmznxsFeK7k-7kU-Zs4d37Ey5szpoUxODHXUO8azJjvd5X2M4dE6Kp1eD2sZJ34DpNTjBRWM4qDq8aPwbMVay7fnUzqWbEb1tcodhd3mUrTcffksjA32vwmH5Uie9q54ck9lIyXJ1AZciVWvWUje9A8nt8eAFe0dqRGhVz1m00]--></g></svg>