<?xml version="1.0" encoding="us-ascii" standalone="no"?><svg xmlns="http://www.w3.org/2000/svg" xmlns:xlink="http://www.w3.org/1999/xlink" contentStyleType="text/css" height="2851px" preserveAspectRatio="none" style="width:5811px;height:2851px;background:#FFFFFF;" version="1.1" viewBox="0 0 5811 2851" width="5811px" zoomAndPan="magnify"><defs/><g><rect fill="none" height="163.8633" style="stroke:#000000;stroke-width:1.5;" width="4300" x="10" y="157.9082"/><rect fill="none" height="193.1738" style="stroke:#000000;stroke-width:1.5;" width="5795" x="10" y="423.7031"/><rect fill="none" height="193.1738" style="stroke:#000000;stroke-width:1.5;" width="4669" x="10" y="689.498"/><rect fill="none" height="193.1738" style="stroke:#000000;stroke-width:1.5;" width="5795" x="10" y="955.293"/><rect fill="none" height="163.8633" style="stroke:#000000;stroke-width:1.5;" width="5049" x="10" y="1426.2617"/><rect fill="none" height="193.1738" style="stroke:#000000;stroke-width:1.5;" width="5795" x="10" y="1692.0566"/><rect fill="none" height="193.1738" style="stroke:#000000;stroke-width:1.5;" width="5795" x="10" y="2016.4727"/><rect fill="none" height="193.1738" style="stroke:#000000;stroke-width:1.5;" width="5795" x="10" y="2516.752"/><line style="stroke:#181818;stroke-width:0.5;stroke-dasharray:5.0,5.0;" x1="45" x2="45" y1="52.9766" y2="2844.168"/><line style="stroke:#181818;stroke-width:0.5;stroke-dasharray:5.0,5.0;" x1="437" x2="437" y1="52.9766" y2="2844.168"/><line style="stroke:#181818;stroke-width:0.5;stroke-dasharray:5.0,5.0;" x1="949" x2="949" y1="52.9766" y2="2844.168"/><line style="stroke:#181818;stroke-width:0.5;stroke-dasharray:5.0,5.0;" x1="1511" x2="1511" y1="52.9766" y2="2844.168"/><line style="stroke:#181818;stroke-width:0.5;stroke-dasharray:5.0,5.0;" x1="2181" x2="2181" y1="52.9766" y2="2844.168"/><line style="stroke:#181818;stroke-width:0.5;stroke-dasharray:5.0,5.0;" x1="2648" x2="2648" y1="52.9766" y2="2844.168"/><line style="stroke:#181818;stroke-width:0.5;stroke-dasharray:5.0,5.0;" x1="2834" x2="2834" y1="52.9766" y2="2844.168"/><line style="stroke:#181818;stroke-width:0.5;stroke-dasharray:5.0,5.0;" x1="3031" x2="3031" y1="52.9766" y2="2844.168"/><line style="stroke:#181818;stroke-width:0.5;stroke-dasharray:5.0,5.0;" x1="3209" x2="3209" y1="52.9766" y2="2844.168"/><line style="stroke:#181818;stroke-width:0.5;stroke-dasharray:5.0,5.0;" x1="3396" x2="3396" y1="52.9766" y2="2844.168"/><line style="stroke:#181818;stroke-width:0.5;stroke-dasharray:5.0,5.0;" x1="3592" x2="3592" y1="52.9766" y2="2844.168"/><line style="stroke:#181818;stroke-width:0.5;stroke-dasharray:5.0,5.0;" x1="3788" x2="3788" y1="52.9766" y2="2844.168"/><line style="stroke:#181818;stroke-width:0.5;stroke-dasharray:5.0,5.0;" x1="3958" x2="3958" y1="52.9766" y2="2844.168"/><line style="stroke:#181818;stroke-width:0.5;stroke-dasharray:5.0,5.0;" x1="4171" x2="4171" y1="52.9766" y2="2844.168"/><line style="stroke:#181818;stroke-width:0.5;stroke-dasharray:5.0,5.0;" x1="4489" x2="4489" y1="52.9766" y2="2844.168"/><line style="stroke:#181818;stroke-width:0.5;stroke-dasharray:5.0,5.0;" x1="4864" x2="4864" y1="52.9766" y2="2844.168"/><line style="stroke:#181818;stroke-width:0.5;stroke-dasharray:5.0,5.0;" x1="5266" x2="5266" y1="52.9766" y2="2844.168"/><line style="stroke:#181818;stroke-width:0.5;stroke-dasharray:5.0,5.0;" x1="5564" x2="5564" y1="52.9766" y2="2844.168"/><line style="stroke:#181818;stroke-width:0.5;stroke-dasharray:5.0,5.0;" x1="5724" x2="5724" y1="52.9766" y2="2844.168"/><rect fill="#E2E2F0" height="30.4883" rx="2.5" ry="2.5" style="stroke:#181818;stroke-width:0.5;" width="51" x="20" y="21.4883"/><text fill="#000000" font-family="sans-serif" font-size="14" lengthAdjust="spacing" textLength="37" x="27" y="42.0234">Actor</text><rect fill="#E2E2F0" height="46.9766" rx="2.5" ry="2.5" style="stroke:#181818;stroke-width:0.5;" width="441" x="217" y="5"/><text fill="#000000" font-family="sans-serif" font-size="14" font-style="italic" lengthAdjust="spacing" textLength="427" x="224" y="25.5352">&#171;/trial-management/trials/:trialNumber/:locationCode/detail&#187;</text><text fill="#000000" font-family="sans-serif" font-size="14" lengthAdjust="spacing" textLength="110" x="382.5" y="42.0234">TrialDetailsPage</text><rect fill="#E2E2F0" height="46.9766" rx="2.5" ry="2.5" style="stroke:#181818;stroke-width:0.5;" width="562" x="668" y="5"/><text fill="#000000" font-family="sans-serif" font-size="14" font-style="italic" lengthAdjust="spacing" textLength="548" x="675" y="25.5352">&#171;/trial-management/trials/:trialNumber/:locationCode/reassign/invalid-jurors&#187;</text><text fill="#000000" font-family="sans-serif" font-size="14" lengthAdjust="spacing" textLength="184" x="857" y="42.0234">ValidateReassignmentPage</text><rect fill="#E2E2F0" height="46.9766" rx="2.5" ry="2.5" style="stroke:#181818;stroke-width:0.5;" width="542" x="1240" y="5"/><text fill="#000000" font-family="sans-serif" font-size="14" font-style="italic" lengthAdjust="spacing" textLength="528" x="1247" y="25.5352">&#171;/trial-management/trials/:trialNumber/:locationCode/reassign/select-trial&#187;</text><text fill="#000000" font-family="sans-serif" font-size="14" lengthAdjust="spacing" textLength="104" x="1459" y="42.0234">SelectTrialPage</text><rect fill="#E2E2F0" height="46.9766" rx="2.5" ry="2.5" style="stroke:#181818;stroke-width:0.5;" width="779" x="1792" y="5"/><text fill="#000000" font-family="sans-serif" font-size="14" font-style="italic" lengthAdjust="spacing" textLength="765" x="1799" y="25.5352">&#171;/trial-management/trials/:trialNumber/:locationCode/reassign/confirm/:newTrialNumber/:newLocationCode&#187;</text><text fill="#000000" font-family="sans-serif" font-size="14" lengthAdjust="spacing" textLength="185" x="2089" y="42.0234">ReassignConfirmationPage</text><rect fill="#E2E2F0" height="46.9766" rx="2.5" ry="2.5" style="stroke:#181818;stroke-width:0.5;" width="134" x="2581" y="5"/><text fill="#000000" font-family="sans-serif" font-size="14" font-style="italic" lengthAdjust="spacing" textLength="56" x="2620" y="25.5352">&#171;/error&#187;</text><text fill="#000000" font-family="sans-serif" font-size="14" lengthAdjust="spacing" textLength="120" x="2588" y="42.0234">GenericErrorPage</text><rect fill="#FFFFE0" height="46.9766" rx="2.5" ry="2.5" style="stroke:#181818;stroke-width:0.5;" width="218" x="2725" y="5"/><text fill="#000000" font-family="sans-serif" font-size="14" font-style="italic" lengthAdjust="spacing" textLength="204" x="2732" y="25.5352">&#171;reassign-panel.controller.js&#187;</text><text fill="#000000" font-family="sans-serif" font-size="14" lengthAdjust="spacing" textLength="168" x="2750" y="42.0234">ReassignPanelController</text><rect fill="#FFFFE0" height="46.9766" rx="2.5" ry="2.5" style="stroke:#181818;stroke-width:0.5;" width="156" x="2953" y="5"/><text fill="#000000" font-family="sans-serif" font-size="14" font-style="italic" lengthAdjust="spacing" textLength="142" x="2960" y="25.5352">&#171;panelListDAO.get()&#187;</text><text fill="#000000" font-family="sans-serif" font-size="14" lengthAdjust="spacing" textLength="104" x="2979" y="42.0234">PanelListObject</text><rect fill="#FFFFE0" height="46.9766" rx="2.5" ry="2.5" style="stroke:#181818;stroke-width:0.5;" width="181" x="3119" y="5"/><text fill="#000000" font-family="sans-serif" font-size="14" font-style="italic" lengthAdjust="spacing" textLength="167" x="3126" y="25.5352">&#171;trialDetailsObject.get()&#187;</text><text fill="#000000" font-family="sans-serif" font-size="14" lengthAdjust="spacing" textLength="121" x="3149" y="42.0234">TrialDetailsObject</text><rect fill="#FFFFE0" height="46.9766" rx="2.5" ry="2.5" style="stroke:#181818;stroke-width:0.5;" width="173" x="3310" y="5"/><text fill="#000000" font-family="sans-serif" font-size="14" font-style="italic" lengthAdjust="spacing" textLength="159" x="3317" y="25.5352">&#171;trialsListObject.post()&#187;</text><text fill="#000000" font-family="sans-serif" font-size="14" lengthAdjust="spacing" textLength="105" x="3344" y="42.0234">TrialsListObject</text><rect fill="#FFFFE0" height="46.9766" rx="2.5" ry="2.5" style="stroke:#181818;stroke-width:0.5;" width="198" x="3493" y="5"/><text fill="#000000" font-family="sans-serif" font-size="14" font-style="italic" lengthAdjust="spacing" textLength="184" x="3500" y="25.5352">&#171;reassignPanelDAO.post()&#187;</text><text fill="#000000" font-family="sans-serif" font-size="14" lengthAdjust="spacing" textLength="142" x="3521" y="42.0234">ReassignPanelObject</text><rect fill="#FFD700" height="30.4883" rx="2.5" ry="2.5" style="stroke:#181818;stroke-width:0.5;" width="174" x="3701" y="21.4883"/><text fill="#000000" font-family="sans-serif" font-size="14" lengthAdjust="spacing" textLength="160" x="3708" y="42.0234">ReassignPanelValidator</text><rect fill="#FFD700" height="30.4883" rx="2.5" ry="2.5" style="stroke:#181818;stroke-width:0.5;" width="147" x="3885" y="21.4883"/><text fill="#000000" font-family="sans-serif" font-size="14" lengthAdjust="spacing" textLength="133" x="3892" y="42.0234">TrialSelectValidator</text><rect fill="#E6E6FA" height="46.9766" rx="2.5" ry="2.5" style="stroke:#181818;stroke-width:0.5;" width="258" x="4042" y="5"/><text fill="#000000" font-family="sans-serif" font-size="14" font-style="italic" lengthAdjust="spacing" textLength="244" x="4049" y="25.5352">&#171;trial-management/trial-detail.njk&#187;</text><text fill="#000000" font-family="sans-serif" font-size="14" lengthAdjust="spacing" textLength="141" x="4100.5" y="42.0234">TrialDetailsTemplate</text><rect fill="#E6E6FA" height="46.9766" rx="2.5" ry="2.5" style="stroke:#181818;stroke-width:0.5;" width="359" x="4310" y="5"/><text fill="#000000" font-family="sans-serif" font-size="14" font-style="italic" lengthAdjust="spacing" textLength="345" x="4317" y="25.5352">&#171;pool-management/movement/bulk-validate.njk&#187;</text><text fill="#000000" font-family="sans-serif" font-size="14" lengthAdjust="spacing" textLength="215" x="4382" y="42.0234">ValidateReassignmentTemplate</text><rect fill="#E6E6FA" height="46.9766" rx="2.5" ry="2.5" style="stroke:#181818;stroke-width:0.5;" width="370" x="4679" y="5"/><text fill="#000000" font-family="sans-serif" font-size="14" font-style="italic" lengthAdjust="spacing" textLength="356" x="4686" y="25.5352">&#171;trial-management/reassign-panel/select-trial.njk&#187;</text><text fill="#000000" font-family="sans-serif" font-size="14" lengthAdjust="spacing" textLength="135" x="4796.5" y="42.0234">SelectTrialTemplate</text><rect fill="#E6E6FA" height="46.9766" rx="2.5" ry="2.5" style="stroke:#181818;stroke-width:0.5;" width="415" x="5059" y="5"/><text fill="#000000" font-family="sans-serif" font-size="14" font-style="italic" lengthAdjust="spacing" textLength="401" x="5066" y="25.5352">&#171;trial-management/reassign-panel/confirm-reassign.njk&#187;</text><text fill="#000000" font-family="sans-serif" font-size="14" lengthAdjust="spacing" textLength="216" x="5158.5" y="42.0234">ReassignConfirmationTemplate</text><rect fill="#E6E6FA" height="46.9766" rx="2.5" ry="2.5" style="stroke:#181818;stroke-width:0.5;" width="160" x="5484" y="5"/><text fill="#000000" font-family="sans-serif" font-size="14" font-style="italic" lengthAdjust="spacing" textLength="146" x="5491" y="25.5352">&#171;_errors/generic.njk&#187;</text><text fill="#000000" font-family="sans-serif" font-size="14" lengthAdjust="spacing" textLength="99" x="5514.5" y="42.0234">ErrorTemplate</text><rect fill="#E2E2F0" height="30.4883" rx="2.5" ry="2.5" style="stroke:#181818;stroke-width:0.5;" width="141" x="5654" y="21.4883"/><text fill="#000000" font-family="sans-serif" font-size="14" lengthAdjust="spacing" textLength="127" x="5661" y="42.0234">BackendController</text><polygon fill="#181818" points="425.5,80.2871,435.5,84.2871,425.5,88.2871" style="stroke:#181818;stroke-width:1.0;"/><line style="stroke:#181818;stroke-width:1.0;" x1="45.5" x2="431.5" y1="84.2871" y2="84.2871"/><text fill="#000000" font-family="sans-serif" font-size="13" lengthAdjust="spacing" textLength="368" x="57.5" y="79.5449">Select panel members and click "Reassign panel members"</text><polygon fill="#181818" points="2822,109.5977,2832,113.5977,2822,117.5977" style="stroke:#181818;stroke-width:1.0;"/><line style="stroke:#181818;stroke-width:1.0;" x1="437.5" x2="2828" y1="113.5977" y2="113.5977"/><text fill="#000000" font-family="sans-serif" font-size="13" lengthAdjust="spacing" textLength="121" x="1575.25" y="108.8555">call page controller</text><polygon fill="#181818" points="3776,138.9082,3786,142.9082,3776,146.9082" style="stroke:#181818;stroke-width:1.0;"/><line style="stroke:#181818;stroke-width:1.0;" x1="2834" x2="3782" y1="142.9082" y2="142.9082"/><text fill="#000000" font-family="sans-serif" font-size="13" lengthAdjust="spacing" textLength="95" x="3263.5" y="138.166">validate details</text><path d="M10,157.9082 L72,157.9082 L72,165.2188 L62,175.2188 L10,175.2188 L10,157.9082 " fill="#EEEEEE" style="stroke:#000000;stroke-width:1.5;"/><rect fill="none" height="163.8633" style="stroke:#000000;stroke-width:1.5;" width="4300" x="10" y="157.9082"/><text fill="#000000" font-family="sans-serif" font-size="13" font-weight="bold" lengthAdjust="spacing" textLength="17" x="25" y="171.4766">alt</text><text fill="#000000" font-family="sans-serif" font-size="11" font-weight="bold" lengthAdjust="spacing" textLength="162" x="87" y="170.543">[No panel members selected]</text><polygon fill="#181818" points="2845,192.5293,2835,196.5293,2845,200.5293" style="stroke:#181818;stroke-width:1.0;"/><line style="stroke:#181818;stroke-width:1.0;" x1="2839" x2="3787" y1="196.5293" y2="196.5293"/><text fill="#000000" font-family="sans-serif" font-size="13" lengthAdjust="spacing" textLength="174" x="3224" y="191.7871">No panel members selected</text><polygon fill="#181818" points="4159,221.8398,4169,225.8398,4159,229.8398" style="stroke:#181818;stroke-width:1.0;"/><line style="stroke:#181818;stroke-width:1.0;" x1="2834" x2="4165" y1="225.8398" y2="225.8398"/><text fill="#000000" font-family="sans-serif" font-size="13" lengthAdjust="spacing" textLength="169" x="3418" y="221.0977">request and build template</text><polygon fill="#181818" points="2845,251.1504,2835,255.1504,2845,259.1504" style="stroke:#181818;stroke-width:1.0;"/><line style="stroke:#181818;stroke-width:1.0;" x1="2839" x2="4170" y1="255.1504" y2="255.1504"/><text fill="#000000" font-family="sans-serif" font-size="13" lengthAdjust="spacing" textLength="78" x="3463.5" y="250.4082">return HTML</text><polygon fill="#181818" points="448.5,280.4609,438.5,284.4609,448.5,288.4609" style="stroke:#181818;stroke-width:1.0;"/><line style="stroke:#181818;stroke-width:1.0;" x1="442.5" x2="2833" y1="284.4609" y2="284.4609"/><text fill="#000000" font-family="sans-serif" font-size="13" lengthAdjust="spacing" textLength="112" x="1579.75" y="279.7188">return error HTML</text><polygon fill="#181818" points="56.5,309.7715,46.5,313.7715,56.5,317.7715" style="stroke:#181818;stroke-width:1.0;"/><line style="stroke:#181818;stroke-width:1.0;" x1="50.5" x2="436.5" y1="313.7715" y2="313.7715"/><text fill="#000000" font-family="sans-serif" font-size="13" lengthAdjust="spacing" textLength="133" x="175" y="309.0293">render error message</text><polygon fill="#181818" points="2845,346.082,2835,350.082,2845,354.082" style="stroke:#181818;stroke-width:1.0;"/><line style="stroke:#181818;stroke-width:1.0;" x1="2839" x2="3787" y1="350.082" y2="350.082"/><text fill="#000000" font-family="sans-serif" font-size="13" lengthAdjust="spacing" textLength="127" x="3247.5" y="345.3398">valid details entered</text><polygon fill="#181818" points="3019,375.3926,3029,379.3926,3019,383.3926" style="stroke:#181818;stroke-width:1.0;"/><line style="stroke:#181818;stroke-width:1.0;" x1="2834" x2="3025" y1="379.3926" y2="379.3926"/><text fill="#000000" font-family="sans-serif" font-size="13" lengthAdjust="spacing" textLength="126" x="2869.5" y="374.6504">build request object</text><polygon fill="#181818" points="5712.5,404.7031,5722.5,408.7031,5712.5,412.7031" style="stroke:#181818;stroke-width:1.0;"/><line style="stroke:#181818;stroke-width:1.0;" x1="3031" x2="5718.5" y1="408.7031" y2="408.7031"/><text fill="#000000" font-family="sans-serif" font-size="13" lengthAdjust="spacing" textLength="138" x="4308.75" y="403.9609">send backend request</text><path d="M10,423.7031 L72,423.7031 L72,431.0137 L62,441.0137 L10,441.0137 L10,423.7031 " fill="#EEEEEE" style="stroke:#000000;stroke-width:1.5;"/><rect fill="none" height="193.1738" style="stroke:#000000;stroke-width:1.5;" width="5795" x="10" y="423.7031"/><text fill="#000000" font-family="sans-serif" font-size="13" font-weight="bold" lengthAdjust="spacing" textLength="17" x="25" y="437.2715">alt</text><text fill="#000000" font-family="sans-serif" font-size="11" font-weight="bold" lengthAdjust="spacing" textLength="149" x="87" y="436.3379">[Failed to fetch panel data]</text><polygon fill="#181818" points="3042,458.3242,3032,462.3242,3042,466.3242" style="stroke:#181818;stroke-width:1.0;"/><line style="stroke:#181818;stroke-width:1.0;stroke-dasharray:2.0,2.0;" x1="3036" x2="5723.5" y1="462.3242" y2="462.3242"/><text fill="#000000" font-family="sans-serif" font-size="13" lengthAdjust="spacing" textLength="91" x="4332.25" y="457.582">Error response</text><polygon fill="#181818" points="2845,487.6348,2835,491.6348,2845,495.6348" style="stroke:#181818;stroke-width:1.0;"/><line style="stroke:#181818;stroke-width:1.0;stroke-dasharray:2.0,2.0;" x1="2839" x2="3030" y1="491.6348" y2="491.6348"/><text fill="#000000" font-family="sans-serif" font-size="13" lengthAdjust="spacing" textLength="127" x="2869" y="486.8926">reject requestObject</text><polygon fill="#181818" points="5552,516.9453,5562,520.9453,5552,524.9453" style="stroke:#181818;stroke-width:1.0;"/><line style="stroke:#181818;stroke-width:1.0;" x1="2834" x2="5558" y1="520.9453" y2="520.9453"/><text fill="#000000" font-family="sans-serif" font-size="13" lengthAdjust="spacing" textLength="169" x="4114.5" y="516.2031">request and build template</text><polygon fill="#181818" points="2845,546.2559,2835,550.2559,2845,554.2559" style="stroke:#181818;stroke-width:1.0;"/><line style="stroke:#181818;stroke-width:1.0;" x1="2839" x2="5563" y1="550.2559" y2="550.2559"/><text fill="#000000" font-family="sans-serif" font-size="13" lengthAdjust="spacing" textLength="78" x="4160" y="545.5137">return HTML</text><polygon fill="#181818" points="2659,575.5664,2649,579.5664,2659,583.5664" style="stroke:#181818;stroke-width:1.0;"/><line style="stroke:#181818;stroke-width:1.0;" x1="2653" x2="2833" y1="579.5664" y2="579.5664"/><text fill="#000000" font-family="sans-serif" font-size="13" lengthAdjust="spacing" textLength="78" x="2702" y="574.8242">return HTML</text><polygon fill="#181818" points="56.5,604.877,46.5,608.877,56.5,612.877" style="stroke:#181818;stroke-width:1.0;"/><line style="stroke:#181818;stroke-width:1.0;" x1="50.5" x2="2647" y1="608.877" y2="608.877"/><text fill="#000000" font-family="sans-serif" font-size="13" lengthAdjust="spacing" textLength="108" x="1292.75" y="604.1348">render error page</text><polygon fill="#181818" points="3042,641.1875,3032,645.1875,3042,649.1875" style="stroke:#181818;stroke-width:1.0;"/><line style="stroke:#181818;stroke-width:1.0;" x1="3036" x2="5723.5" y1="645.1875" y2="645.1875"/><text fill="#000000" font-family="sans-serif" font-size="13" lengthAdjust="spacing" textLength="77" x="4339.25" y="640.4453">ok response</text><polygon fill="#181818" points="2845,670.498,2835,674.498,2845,678.498" style="stroke:#181818;stroke-width:1.0;"/><line style="stroke:#181818;stroke-width:1.0;" x1="2839" x2="3030" y1="674.498" y2="674.498"/><text fill="#000000" font-family="sans-serif" font-size="13" lengthAdjust="spacing" textLength="96" x="2884.5" y="669.7559">resolve request</text><path d="M10,689.498 L72,689.498 L72,696.8086 L62,706.8086 L10,706.8086 L10,689.498 " fill="#EEEEEE" style="stroke:#000000;stroke-width:1.5;"/><rect fill="none" height="193.1738" style="stroke:#000000;stroke-width:1.5;" width="4669" x="10" y="689.498"/><text fill="#000000" font-family="sans-serif" font-size="13" font-weight="bold" lengthAdjust="spacing" textLength="17" x="25" y="703.0664">alt</text><text fill="#000000" font-family="sans-serif" font-size="11" font-weight="bold" lengthAdjust="spacing" textLength="269" x="87" y="702.1328">[some selected members are in an invalid state]</text><polygon fill="#181818" points="4477.5,724.1191,4487.5,728.1191,4477.5,732.1191" style="stroke:#181818;stroke-width:1.0;"/><line style="stroke:#181818;stroke-width:1.0;" x1="2834" x2="4483.5" y1="728.1191" y2="728.1191"/><text fill="#000000" font-family="sans-serif" font-size="13" lengthAdjust="spacing" textLength="169" x="3577.25" y="723.377">request and build template</text><polygon fill="#181818" points="2845,753.4297,2835,757.4297,2845,761.4297" style="stroke:#181818;stroke-width:1.0;"/><line style="stroke:#181818;stroke-width:1.0;" x1="2839" x2="4488.5" y1="757.4297" y2="757.4297"/><text fill="#000000" font-family="sans-serif" font-size="13" lengthAdjust="spacing" textLength="78" x="3622.75" y="752.6875">return HTML</text><polygon fill="#181818" points="960,782.7402,950,786.7402,960,790.7402" style="stroke:#181818;stroke-width:1.0;"/><line style="stroke:#181818;stroke-width:1.0;" x1="954" x2="2833" y1="786.7402" y2="786.7402"/><text fill="#000000" font-family="sans-serif" font-size="13" lengthAdjust="spacing" textLength="78" x="1852.5" y="781.998">return HTML</text><polygon fill="#181818" points="56.5,812.0508,46.5,816.0508,56.5,820.0508" style="stroke:#181818;stroke-width:1.0;"/><line style="stroke:#181818;stroke-width:1.0;" x1="50.5" x2="948" y1="816.0508" y2="816.0508"/><text fill="#000000" font-family="sans-serif" font-size="13" lengthAdjust="spacing" textLength="80" x="457.25" y="811.3086">render HTML</text><polygon fill="#181818" points="937,841.3613,947,845.3613,937,849.3613" style="stroke:#181818;stroke-width:1.0;"/><line style="stroke:#181818;stroke-width:1.0;" x1="45.5" x2="943" y1="845.3613" y2="845.3613"/><text fill="#000000" font-family="sans-serif" font-size="13" lengthAdjust="spacing" textLength="222" x="386.25" y="840.6191">Continue with valid panel members</text><polygon fill="#181818" points="2822,870.6719,2832,874.6719,2822,878.6719" style="stroke:#181818;stroke-width:1.0;"/><line style="stroke:#181818;stroke-width:1.0;" x1="949" x2="2828" y1="874.6719" y2="874.6719"/><text fill="#000000" font-family="sans-serif" font-size="13" lengthAdjust="spacing" textLength="121" x="1831" y="869.9297">call page controller</text><polygon fill="#181818" points="3384.5,906.9824,3394.5,910.9824,3384.5,914.9824" style="stroke:#181818;stroke-width:1.0;"/><line style="stroke:#181818;stroke-width:1.0;" x1="2834" x2="3390.5" y1="910.9824" y2="910.9824"/><text fill="#000000" font-family="sans-serif" font-size="13" lengthAdjust="spacing" textLength="126" x="3052.25" y="906.2402">build request object</text><polygon fill="#181818" points="5712.5,936.293,5722.5,940.293,5712.5,944.293" style="stroke:#181818;stroke-width:1.0;"/><line style="stroke:#181818;stroke-width:1.0;" x1="3396.5" x2="5718.5" y1="940.293" y2="940.293"/><text fill="#000000" font-family="sans-serif" font-size="13" lengthAdjust="spacing" textLength="138" x="4491.5" y="935.5508">send backend request</text><path d="M10,955.293 L72,955.293 L72,962.6035 L62,972.6035 L10,972.6035 L10,955.293 " fill="#EEEEEE" style="stroke:#000000;stroke-width:1.5;"/><rect fill="none" height="193.1738" style="stroke:#000000;stroke-width:1.5;" width="5795" x="10" y="955.293"/><text fill="#000000" font-family="sans-serif" font-size="13" font-weight="bold" lengthAdjust="spacing" textLength="17" x="25" y="968.8613">alt</text><text fill="#000000" font-family="sans-serif" font-size="11" font-weight="bold" lengthAdjust="spacing" textLength="245" x="87" y="967.9277">[Failed to fetch trials for reassigning panel]</text><polygon fill="#181818" points="3407.5,989.9141,3397.5,993.9141,3407.5,997.9141" style="stroke:#181818;stroke-width:1.0;"/><line style="stroke:#181818;stroke-width:1.0;stroke-dasharray:2.0,2.0;" x1="3401.5" x2="5723.5" y1="993.9141" y2="993.9141"/><text fill="#000000" font-family="sans-serif" font-size="13" lengthAdjust="spacing" textLength="91" x="4515" y="989.1719">Error response</text><polygon fill="#181818" points="2845,1019.2246,2835,1023.2246,2845,1027.2246" style="stroke:#181818;stroke-width:1.0;"/><line style="stroke:#181818;stroke-width:1.0;stroke-dasharray:2.0,2.0;" x1="2839" x2="3395.5" y1="1023.2246" y2="1023.2246"/><text fill="#000000" font-family="sans-serif" font-size="13" lengthAdjust="spacing" textLength="127" x="3051.75" y="1018.4824">reject requestObject</text><polygon fill="#181818" points="5552,1048.5352,5562,1052.5352,5552,1056.5352" style="stroke:#181818;stroke-width:1.0;"/><line style="stroke:#181818;stroke-width:1.0;" x1="2834" x2="5558" y1="1052.5352" y2="1052.5352"/><text fill="#000000" font-family="sans-serif" font-size="13" lengthAdjust="spacing" textLength="169" x="4114.5" y="1047.793">request and build template</text><polygon fill="#181818" points="2845,1077.8457,2835,1081.8457,2845,1085.8457" style="stroke:#181818;stroke-width:1.0;"/><line style="stroke:#181818;stroke-width:1.0;" x1="2839" x2="5563" y1="1081.8457" y2="1081.8457"/><text fill="#000000" font-family="sans-serif" font-size="13" lengthAdjust="spacing" textLength="78" x="4160" y="1077.1035">return HTML</text><polygon fill="#181818" points="2659,1107.1563,2649,1111.1563,2659,1115.1563" style="stroke:#181818;stroke-width:1.0;"/><line style="stroke:#181818;stroke-width:1.0;" x1="2653" x2="2833" y1="1111.1563" y2="1111.1563"/><text fill="#000000" font-family="sans-serif" font-size="13" lengthAdjust="spacing" textLength="78" x="2702" y="1106.4141">return HTML</text><polygon fill="#181818" points="56.5,1136.4668,46.5,1140.4668,56.5,1144.4668" style="stroke:#181818;stroke-width:1.0;"/><line style="stroke:#181818;stroke-width:1.0;" x1="50.5" x2="2647" y1="1140.4668" y2="1140.4668"/><text fill="#000000" font-family="sans-serif" font-size="13" lengthAdjust="spacing" textLength="108" x="1292.75" y="1135.7246">render error page</text><polygon fill="#181818" points="3407.5,1172.7773,3397.5,1176.7773,3407.5,1180.7773" style="stroke:#181818;stroke-width:1.0;"/><line style="stroke:#181818;stroke-width:1.0;" x1="3401.5" x2="5723.5" y1="1176.7773" y2="1176.7773"/><text fill="#000000" font-family="sans-serif" font-size="13" lengthAdjust="spacing" textLength="77" x="4522" y="1172.0352">ok response</text><polygon fill="#181818" points="2845,1202.0879,2835,1206.0879,2845,1210.0879" style="stroke:#181818;stroke-width:1.0;"/><line style="stroke:#181818;stroke-width:1.0;" x1="2839" x2="3395.5" y1="1206.0879" y2="1206.0879"/><text fill="#000000" font-family="sans-serif" font-size="13" lengthAdjust="spacing" textLength="96" x="3067.25" y="1201.3457">resolve request</text><polygon fill="#181818" points="4852,1231.3984,4862,1235.3984,4852,1239.3984" style="stroke:#181818;stroke-width:1.0;"/><line style="stroke:#181818;stroke-width:1.0;" x1="2834" x2="4858" y1="1235.3984" y2="1235.3984"/><text fill="#000000" font-family="sans-serif" font-size="13" lengthAdjust="spacing" textLength="169" x="3764.5" y="1230.6563">request and build template</text><polygon fill="#181818" points="2845,1260.709,2835,1264.709,2845,1268.709" style="stroke:#181818;stroke-width:1.0;"/><line style="stroke:#181818;stroke-width:1.0;" x1="2839" x2="4863" y1="1264.709" y2="1264.709"/><text fill="#000000" font-family="sans-serif" font-size="13" lengthAdjust="spacing" textLength="78" x="3810" y="1259.9668">return HTML</text><polygon fill="#181818" points="1522,1290.0195,1512,1294.0195,1522,1298.0195" style="stroke:#181818;stroke-width:1.0;"/><line style="stroke:#181818;stroke-width:1.0;" x1="1516" x2="2833" y1="1294.0195" y2="1294.0195"/><text fill="#000000" font-family="sans-serif" font-size="13" lengthAdjust="spacing" textLength="78" x="2133.5" y="1289.2773">return HTML</text><polygon fill="#181818" points="56.5,1319.3301,46.5,1323.3301,56.5,1327.3301" style="stroke:#181818;stroke-width:1.0;"/><line style="stroke:#181818;stroke-width:1.0;" x1="50.5" x2="1510" y1="1323.3301" y2="1323.3301"/><text fill="#000000" font-family="sans-serif" font-size="13" lengthAdjust="spacing" textLength="80" x="738.25" y="1318.5879">render HTML</text><polygon fill="#181818" points="1499,1348.6406,1509,1352.6406,1499,1356.6406" style="stroke:#181818;stroke-width:1.0;"/><line style="stroke:#181818;stroke-width:1.0;" x1="45.5" x2="1505" y1="1352.6406" y2="1352.6406"/><text fill="#000000" font-family="sans-serif" font-size="13" lengthAdjust="spacing" textLength="198" x="679.25" y="1347.8984">Select trial and click "Continue"</text><polygon fill="#181818" points="2822,1377.9512,2832,1381.9512,2822,1385.9512" style="stroke:#181818;stroke-width:1.0;"/><line style="stroke:#181818;stroke-width:1.0;" x1="1511" x2="2828" y1="1381.9512" y2="1381.9512"/><text fill="#000000" font-family="sans-serif" font-size="13" lengthAdjust="spacing" textLength="121" x="2112" y="1377.209">call page controller</text><polygon fill="#181818" points="3946.5,1407.2617,3956.5,1411.2617,3946.5,1415.2617" style="stroke:#181818;stroke-width:1.0;"/><line style="stroke:#181818;stroke-width:1.0;" x1="2834" x2="3952.5" y1="1411.2617" y2="1411.2617"/><text fill="#000000" font-family="sans-serif" font-size="13" lengthAdjust="spacing" textLength="95" x="3348.75" y="1406.5195">validate details</text><path d="M10,1426.2617 L72,1426.2617 L72,1433.5723 L62,1443.5723 L10,1443.5723 L10,1426.2617 " fill="#EEEEEE" style="stroke:#000000;stroke-width:1.5;"/><rect fill="none" height="163.8633" style="stroke:#000000;stroke-width:1.5;" width="5049" x="10" y="1426.2617"/><text fill="#000000" font-family="sans-serif" font-size="13" font-weight="bold" lengthAdjust="spacing" textLength="17" x="25" y="1439.8301">alt</text><text fill="#000000" font-family="sans-serif" font-size="11" font-weight="bold" lengthAdjust="spacing" textLength="99" x="87" y="1438.8965">[No trial selected]</text><polygon fill="#181818" points="2845,1460.8828,2835,1464.8828,2845,1468.8828" style="stroke:#181818;stroke-width:1.0;"/><line style="stroke:#181818;stroke-width:1.0;" x1="2839" x2="3957.5" y1="1464.8828" y2="1464.8828"/><text fill="#000000" font-family="sans-serif" font-size="13" lengthAdjust="spacing" textLength="103" x="3344.75" y="1460.1406">No trial selected</text><polygon fill="#181818" points="4852,1490.1934,4862,1494.1934,4852,1498.1934" style="stroke:#181818;stroke-width:1.0;"/><line style="stroke:#181818;stroke-width:1.0;" x1="2834" x2="4858" y1="1494.1934" y2="1494.1934"/><text fill="#000000" font-family="sans-serif" font-size="13" lengthAdjust="spacing" textLength="169" x="3764.5" y="1489.4512">request and build template</text><polygon fill="#181818" points="2845,1519.5039,2835,1523.5039,2845,1527.5039" style="stroke:#181818;stroke-width:1.0;"/><line style="stroke:#181818;stroke-width:1.0;" x1="2839" x2="4863" y1="1523.5039" y2="1523.5039"/><text fill="#000000" font-family="sans-serif" font-size="13" lengthAdjust="spacing" textLength="78" x="3810" y="1518.7617">return HTML</text><polygon fill="#181818" points="1522,1548.8145,1512,1552.8145,1522,1556.8145" style="stroke:#181818;stroke-width:1.0;"/><line style="stroke:#181818;stroke-width:1.0;" x1="1516" x2="2833" y1="1552.8145" y2="1552.8145"/><text fill="#000000" font-family="sans-serif" font-size="13" lengthAdjust="spacing" textLength="112" x="2116.5" y="1548.0723">return error HTML</text><polygon fill="#181818" points="56.5,1578.125,46.5,1582.125,56.5,1586.125" style="stroke:#181818;stroke-width:1.0;"/><line style="stroke:#181818;stroke-width:1.0;" x1="50.5" x2="1510" y1="1582.125" y2="1582.125"/><text fill="#000000" font-family="sans-serif" font-size="13" lengthAdjust="spacing" textLength="133" x="711.75" y="1577.3828">render error message</text><polygon fill="#181818" points="2845,1614.4355,2835,1618.4355,2845,1622.4355" style="stroke:#181818;stroke-width:1.0;"/><line style="stroke:#181818;stroke-width:1.0;" x1="2839" x2="3957.5" y1="1618.4355" y2="1618.4355"/><text fill="#000000" font-family="sans-serif" font-size="13" lengthAdjust="spacing" textLength="127" x="3332.75" y="1613.6934">valid details entered</text><polygon fill="#181818" points="3197.5,1643.7461,3207.5,1647.7461,3197.5,1651.7461" style="stroke:#181818;stroke-width:1.0;"/><line style="stroke:#181818;stroke-width:1.0;" x1="2834" x2="3203.5" y1="1647.7461" y2="1647.7461"/><text fill="#000000" font-family="sans-serif" font-size="13" lengthAdjust="spacing" textLength="126" x="2958.75" y="1643.0039">build request object</text><polygon fill="#181818" points="5712.5,1673.0566,5722.5,1677.0566,5712.5,1681.0566" style="stroke:#181818;stroke-width:1.0;"/><line style="stroke:#181818;stroke-width:1.0;" x1="3209.5" x2="5718.5" y1="1677.0566" y2="1677.0566"/><text fill="#000000" font-family="sans-serif" font-size="13" lengthAdjust="spacing" textLength="138" x="4398" y="1672.3145">send backend request</text><path d="M10,1692.0566 L72,1692.0566 L72,1699.3672 L62,1709.3672 L10,1709.3672 L10,1692.0566 " fill="#EEEEEE" style="stroke:#000000;stroke-width:1.5;"/><rect fill="none" height="193.1738" style="stroke:#000000;stroke-width:1.5;" width="5795" x="10" y="1692.0566"/><text fill="#000000" font-family="sans-serif" font-size="13" font-weight="bold" lengthAdjust="spacing" textLength="17" x="25" y="1705.625">alt</text><text fill="#000000" font-family="sans-serif" font-size="11" font-weight="bold" lengthAdjust="spacing" textLength="273" x="87" y="1704.6914">[Failed to fetch trial details for reassiging panel]</text><polygon fill="#181818" points="3220.5,1726.6777,3210.5,1730.6777,3220.5,1734.6777" style="stroke:#181818;stroke-width:1.0;"/><line style="stroke:#181818;stroke-width:1.0;stroke-dasharray:2.0,2.0;" x1="3214.5" x2="5723.5" y1="1730.6777" y2="1730.6777"/><text fill="#000000" font-family="sans-serif" font-size="13" lengthAdjust="spacing" textLength="91" x="4421.5" y="1725.9355">Error response</text><polygon fill="#181818" points="2845,1755.9883,2835,1759.9883,2845,1763.9883" style="stroke:#181818;stroke-width:1.0;"/><line style="stroke:#181818;stroke-width:1.0;stroke-dasharray:2.0,2.0;" x1="2839" x2="3208.5" y1="1759.9883" y2="1759.9883"/><text fill="#000000" font-family="sans-serif" font-size="13" lengthAdjust="spacing" textLength="127" x="2958.25" y="1755.2461">reject requestObject</text><polygon fill="#181818" points="5552,1785.2988,5562,1789.2988,5552,1793.2988" style="stroke:#181818;stroke-width:1.0;"/><line style="stroke:#181818;stroke-width:1.0;" x1="2834" x2="5558" y1="1789.2988" y2="1789.2988"/><text fill="#000000" font-family="sans-serif" font-size="13" lengthAdjust="spacing" textLength="169" x="4114.5" y="1784.5566">request and build template</text><polygon fill="#181818" points="2845,1814.6094,2835,1818.6094,2845,1822.6094" style="stroke:#181818;stroke-width:1.0;"/><line style="stroke:#181818;stroke-width:1.0;" x1="2839" x2="5563" y1="1818.6094" y2="1818.6094"/><text fill="#000000" font-family="sans-serif" font-size="13" lengthAdjust="spacing" textLength="78" x="4160" y="1813.8672">return HTML</text><polygon fill="#181818" points="2659,1843.9199,2649,1847.9199,2659,1851.9199" style="stroke:#181818;stroke-width:1.0;"/><line style="stroke:#181818;stroke-width:1.0;" x1="2653" x2="2833" y1="1847.9199" y2="1847.9199"/><text fill="#000000" font-family="sans-serif" font-size="13" lengthAdjust="spacing" textLength="78" x="2702" y="1843.1777">return HTML</text><polygon fill="#181818" points="56.5,1873.2305,46.5,1877.2305,56.5,1881.2305" style="stroke:#181818;stroke-width:1.0;"/><line style="stroke:#181818;stroke-width:1.0;" x1="50.5" x2="2647" y1="1877.2305" y2="1877.2305"/><text fill="#000000" font-family="sans-serif" font-size="13" lengthAdjust="spacing" textLength="108" x="1292.75" y="1872.4883">render error page</text><polygon fill="#181818" points="3220.5,1909.541,3210.5,1913.541,3220.5,1917.541" style="stroke:#181818;stroke-width:1.0;"/><line style="stroke:#181818;stroke-width:1.0;" x1="3214.5" x2="5723.5" y1="1913.541" y2="1913.541"/><text fill="#000000" font-family="sans-serif" font-size="13" lengthAdjust="spacing" textLength="77" x="4428.5" y="1908.7988">ok response</text><polygon fill="#181818" points="2845,1938.8516,2835,1942.8516,2845,1946.8516" style="stroke:#181818;stroke-width:1.0;"/><line style="stroke:#181818;stroke-width:1.0;" x1="2839" x2="3208.5" y1="1942.8516" y2="1942.8516"/><text fill="#000000" font-family="sans-serif" font-size="13" lengthAdjust="spacing" textLength="96" x="2973.75" y="1938.1094">resolve request</text><polygon fill="#181818" points="3019,1968.1621,3029,1972.1621,3019,1976.1621" style="stroke:#181818;stroke-width:1.0;"/><line style="stroke:#181818;stroke-width:1.0;" x1="2834" x2="3025" y1="1972.1621" y2="1972.1621"/><text fill="#000000" font-family="sans-serif" font-size="13" lengthAdjust="spacing" textLength="126" x="2869.5" y="1967.4199">build request object</text><polygon fill="#181818" points="5712.5,1997.4727,5722.5,2001.4727,5712.5,2005.4727" style="stroke:#181818;stroke-width:1.0;"/><line style="stroke:#181818;stroke-width:1.0;" x1="3031" x2="5718.5" y1="2001.4727" y2="2001.4727"/><text fill="#000000" font-family="sans-serif" font-size="13" lengthAdjust="spacing" textLength="138" x="4308.75" y="1996.7305">send backend request</text><path d="M10,2016.4727 L72,2016.4727 L72,2023.7832 L62,2033.7832 L10,2033.7832 L10,2016.4727 " fill="#EEEEEE" style="stroke:#000000;stroke-width:1.5;"/><rect fill="none" height="193.1738" style="stroke:#000000;stroke-width:1.5;" width="5795" x="10" y="2016.4727"/><text fill="#000000" font-family="sans-serif" font-size="13" font-weight="bold" lengthAdjust="spacing" textLength="17" x="25" y="2030.041">alt</text><text fill="#000000" font-family="sans-serif" font-size="11" font-weight="bold" lengthAdjust="spacing" textLength="295" x="87" y="2029.1074">[Failed to fetch panel members for reassiging panel]</text><polygon fill="#181818" points="3042,2051.0938,3032,2055.0938,3042,2059.0938" style="stroke:#181818;stroke-width:1.0;"/><line style="stroke:#181818;stroke-width:1.0;stroke-dasharray:2.0,2.0;" x1="3036" x2="5723.5" y1="2055.0938" y2="2055.0938"/><text fill="#000000" font-family="sans-serif" font-size="13" lengthAdjust="spacing" textLength="91" x="4332.25" y="2050.3516">Error response</text><polygon fill="#181818" points="2845,2080.4043,2835,2084.4043,2845,2088.4043" style="stroke:#181818;stroke-width:1.0;"/><line style="stroke:#181818;stroke-width:1.0;stroke-dasharray:2.0,2.0;" x1="2839" x2="3030" y1="2084.4043" y2="2084.4043"/><text fill="#000000" font-family="sans-serif" font-size="13" lengthAdjust="spacing" textLength="127" x="2869" y="2079.6621">reject requestObject</text><polygon fill="#181818" points="5552,2109.7148,5562,2113.7148,5552,2117.7148" style="stroke:#181818;stroke-width:1.0;"/><line style="stroke:#181818;stroke-width:1.0;" x1="2834" x2="5558" y1="2113.7148" y2="2113.7148"/><text fill="#000000" font-family="sans-serif" font-size="13" lengthAdjust="spacing" textLength="169" x="4114.5" y="2108.9727">request and build template</text><polygon fill="#181818" points="2845,2139.0254,2835,2143.0254,2845,2147.0254" style="stroke:#181818;stroke-width:1.0;"/><line style="stroke:#181818;stroke-width:1.0;" x1="2839" x2="5563" y1="2143.0254" y2="2143.0254"/><text fill="#000000" font-family="sans-serif" font-size="13" lengthAdjust="spacing" textLength="78" x="4160" y="2138.2832">return HTML</text><polygon fill="#181818" points="2659,2168.3359,2649,2172.3359,2659,2176.3359" style="stroke:#181818;stroke-width:1.0;"/><line style="stroke:#181818;stroke-width:1.0;" x1="2653" x2="2833" y1="2172.3359" y2="2172.3359"/><text fill="#000000" font-family="sans-serif" font-size="13" lengthAdjust="spacing" textLength="78" x="2702" y="2167.5938">return HTML</text><polygon fill="#181818" points="56.5,2197.6465,46.5,2201.6465,56.5,2205.6465" style="stroke:#181818;stroke-width:1.0;"/><line style="stroke:#181818;stroke-width:1.0;" x1="50.5" x2="2647" y1="2201.6465" y2="2201.6465"/><text fill="#000000" font-family="sans-serif" font-size="13" lengthAdjust="spacing" textLength="108" x="1292.75" y="2196.9043">render error page</text><polygon fill="#181818" points="3042,2233.957,3032,2237.957,3042,2241.957" style="stroke:#181818;stroke-width:1.0;"/><line style="stroke:#181818;stroke-width:1.0;" x1="3036" x2="5723.5" y1="2237.957" y2="2237.957"/><text fill="#000000" font-family="sans-serif" font-size="13" lengthAdjust="spacing" textLength="77" x="4339.25" y="2233.2148">ok response</text><polygon fill="#181818" points="2845,2263.2676,2835,2267.2676,2845,2271.2676" style="stroke:#181818;stroke-width:1.0;"/><line style="stroke:#181818;stroke-width:1.0;" x1="2839" x2="3030" y1="2267.2676" y2="2267.2676"/><text fill="#000000" font-family="sans-serif" font-size="13" lengthAdjust="spacing" textLength="96" x="2884.5" y="2262.5254">resolve request</text><polygon fill="#181818" points="5254.5,2292.5781,5264.5,2296.5781,5254.5,2300.5781" style="stroke:#181818;stroke-width:1.0;"/><line style="stroke:#181818;stroke-width:1.0;" x1="2834" x2="5260.5" y1="2296.5781" y2="2296.5781"/><text fill="#000000" font-family="sans-serif" font-size="13" lengthAdjust="spacing" textLength="169" x="3965.75" y="2291.8359">request and build template</text><polygon fill="#181818" points="2845,2321.8887,2835,2325.8887,2845,2329.8887" style="stroke:#181818;stroke-width:1.0;"/><line style="stroke:#181818;stroke-width:1.0;" x1="2839" x2="5265.5" y1="2325.8887" y2="2325.8887"/><text fill="#000000" font-family="sans-serif" font-size="13" lengthAdjust="spacing" textLength="78" x="4011.25" y="2321.1465">return HTML</text><polygon fill="#181818" points="2192.5,2351.1992,2182.5,2355.1992,2192.5,2359.1992" style="stroke:#181818;stroke-width:1.0;"/><line style="stroke:#181818;stroke-width:1.0;" x1="2186.5" x2="2833" y1="2355.1992" y2="2355.1992"/><text fill="#000000" font-family="sans-serif" font-size="13" lengthAdjust="spacing" textLength="78" x="2468.75" y="2350.457">return HTML</text><polygon fill="#181818" points="56.5,2380.5098,46.5,2384.5098,56.5,2388.5098" style="stroke:#181818;stroke-width:1.0;"/><line style="stroke:#181818;stroke-width:1.0;" x1="50.5" x2="2180.5" y1="2384.5098" y2="2384.5098"/><text fill="#000000" font-family="sans-serif" font-size="13" lengthAdjust="spacing" textLength="80" x="1073.5" y="2379.7676">render HTML</text><polygon fill="#181818" points="2169.5,2409.8203,2179.5,2413.8203,2169.5,2417.8203" style="stroke:#181818;stroke-width:1.0;"/><line style="stroke:#181818;stroke-width:1.0;" x1="45.5" x2="2175.5" y1="2413.8203" y2="2413.8203"/><text fill="#000000" font-family="sans-serif" font-size="13" lengthAdjust="spacing" textLength="140" x="1043.5" y="2409.0781">Confirm reassignment</text><polygon fill="#181818" points="2822,2439.1309,2832,2443.1309,2822,2447.1309" style="stroke:#181818;stroke-width:1.0;"/><line style="stroke:#181818;stroke-width:1.0;" x1="2181.5" x2="2828" y1="2443.1309" y2="2443.1309"/><text fill="#000000" font-family="sans-serif" font-size="13" lengthAdjust="spacing" textLength="121" x="2447.25" y="2438.3887">call page controller</text><polygon fill="#181818" points="3580,2468.4414,3590,2472.4414,3580,2476.4414" style="stroke:#181818;stroke-width:1.0;"/><line style="stroke:#181818;stroke-width:1.0;" x1="2834" x2="3586" y1="2472.4414" y2="2472.4414"/><text fill="#000000" font-family="sans-serif" font-size="13" lengthAdjust="spacing" textLength="126" x="3150" y="2467.6992">build request object</text><polygon fill="#181818" points="5712.5,2497.752,5722.5,2501.752,5712.5,2505.752" style="stroke:#181818;stroke-width:1.0;"/><line style="stroke:#181818;stroke-width:1.0;" x1="3592" x2="5718.5" y1="2501.752" y2="2501.752"/><text fill="#000000" font-family="sans-serif" font-size="13" lengthAdjust="spacing" textLength="138" x="4589.25" y="2497.0098">send backend request</text><path d="M10,2516.752 L72,2516.752 L72,2524.0625 L62,2534.0625 L10,2534.0625 L10,2516.752 " fill="#EEEEEE" style="stroke:#000000;stroke-width:1.5;"/><rect fill="none" height="193.1738" style="stroke:#000000;stroke-width:1.5;" width="5795" x="10" y="2516.752"/><text fill="#000000" font-family="sans-serif" font-size="13" font-weight="bold" lengthAdjust="spacing" textLength="17" x="25" y="2530.3203">alt</text><text fill="#000000" font-family="sans-serif" font-size="11" font-weight="bold" lengthAdjust="spacing" textLength="197" x="87" y="2529.3867">[Failed to reassign panel members]</text><polygon fill="#181818" points="3603,2551.373,3593,2555.373,3603,2559.373" style="stroke:#181818;stroke-width:1.0;"/><line style="stroke:#181818;stroke-width:1.0;stroke-dasharray:2.0,2.0;" x1="3597" x2="5723.5" y1="2555.373" y2="2555.373"/><text fill="#000000" font-family="sans-serif" font-size="13" lengthAdjust="spacing" textLength="91" x="4612.75" y="2550.6309">Error response</text><polygon fill="#181818" points="2845,2580.6836,2835,2584.6836,2845,2588.6836" style="stroke:#181818;stroke-width:1.0;"/><line style="stroke:#181818;stroke-width:1.0;stroke-dasharray:2.0,2.0;" x1="2839" x2="3591" y1="2584.6836" y2="2584.6836"/><text fill="#000000" font-family="sans-serif" font-size="13" lengthAdjust="spacing" textLength="127" x="3149.5" y="2579.9414">reject requestObject</text><polygon fill="#181818" points="5254.5,2609.9941,5264.5,2613.9941,5254.5,2617.9941" style="stroke:#181818;stroke-width:1.0;"/><line style="stroke:#181818;stroke-width:1.0;" x1="2834" x2="5260.5" y1="2613.9941" y2="2613.9941"/><text fill="#000000" font-family="sans-serif" font-size="13" lengthAdjust="spacing" textLength="169" x="3965.75" y="2609.252">request and build template</text><polygon fill="#181818" points="2845,2639.3047,2835,2643.3047,2845,2647.3047" style="stroke:#181818;stroke-width:1.0;"/><line style="stroke:#181818;stroke-width:1.0;" x1="2839" x2="5265.5" y1="2643.3047" y2="2643.3047"/><text fill="#000000" font-family="sans-serif" font-size="13" lengthAdjust="spacing" textLength="78" x="4011.25" y="2638.5625">return HTML</text><polygon fill="#181818" points="2192.5,2668.6152,2182.5,2672.6152,2192.5,2676.6152" style="stroke:#181818;stroke-width:1.0;"/><line style="stroke:#181818;stroke-width:1.0;" x1="2186.5" x2="2833" y1="2672.6152" y2="2672.6152"/><text fill="#000000" font-family="sans-serif" font-size="13" lengthAdjust="spacing" textLength="112" x="2451.75" y="2667.873">return error HTML</text><polygon fill="#181818" points="56.5,2697.9258,46.5,2701.9258,56.5,2705.9258" style="stroke:#181818;stroke-width:1.0;"/><line style="stroke:#181818;stroke-width:1.0;" x1="50.5" x2="2180.5" y1="2701.9258" y2="2701.9258"/><text fill="#000000" font-family="sans-serif" font-size="13" lengthAdjust="spacing" textLength="133" x="1047" y="2697.1836">render error message</text><polygon fill="#181818" points="3603,2734.2363,3593,2738.2363,3603,2742.2363" style="stroke:#181818;stroke-width:1.0;"/><line style="stroke:#181818;stroke-width:1.0;" x1="3597" x2="5723.5" y1="2738.2363" y2="2738.2363"/><text fill="#000000" font-family="sans-serif" font-size="13" lengthAdjust="spacing" textLength="77" x="4619.75" y="2733.4941">ok response</text><polygon fill="#181818" points="2845,2763.5469,2835,2767.5469,2845,2771.5469" style="stroke:#181818;stroke-width:1.0;"/><line style="stroke:#181818;stroke-width:1.0;" x1="2839" x2="3591" y1="2767.5469" y2="2767.5469"/><text fill="#000000" font-family="sans-serif" font-size="13" lengthAdjust="spacing" textLength="96" x="3165" y="2762.8047">resolve request</text><polygon fill="#181818" points="448.5,2792.8574,438.5,2796.8574,448.5,2800.8574" style="stroke:#181818;stroke-width:1.0;"/><line style="stroke:#181818;stroke-width:1.0;" x1="442.5" x2="2833" y1="2796.8574" y2="2796.8574"/><text fill="#000000" font-family="sans-serif" font-size="13" lengthAdjust="spacing" textLength="195" x="1538.25" y="2792.1152">redirect to updated trial details</text><polygon fill="#181818" points="56.5,2822.168,46.5,2826.168,56.5,2830.168" style="stroke:#181818;stroke-width:1.0;"/><line style="stroke:#181818;stroke-width:1.0;" x1="50.5" x2="436.5" y1="2826.168" y2="2826.168"/><text fill="#000000" font-family="sans-serif" font-size="13" lengthAdjust="spacing" textLength="158" x="162.5" y="2821.4258">view updated trial details</text><!--SRC=[jLTRRzfA47xthvZIIcaa3E-eYkGGMgM7GWfkNojZJyY6zQxFxfge_xxZjKryJ-Zb1V1uvflhjxCyi0WX5Po90qQEyuQ9aASasgD0nK9tnsLuq9E41yAaCNSSVM0Y2LGGmzRyv0ZQa5hs2gglyFyKHOXVKEjWZnvdUn6ZC13I1oh78JN3GfOGAdYXaIIwkBY0vNhkBM6p_kRVhZxLb7p50dw39c1Stn4aVFWmDPdCZGD1pnbwBj3JcVrUfV4ErNH62GI6IJ6N4KuZYt1rLSF-7d0M1GOt66XTHFe7FbG1CsNYc26xZwcIIZUSRf5ZQ6nQVyENjd2krMnuAjEQIt7FL6oD_uRBCCURpWG- -LLrUbvMB1hXVCedQw6eA6KOc3sGdXs2-NhbRzRBvM83tke6DekltnPR7zRNdnTpVzkPsbqWa5D-HadEKH5a6QMRPAycuUdTv94w0Mzf8X_CJ-HSFjKGBTAIQRFUFL912Iaf9JVUUh97y_vooBuwfoS8qnA-4aZN8Z4DqIIH-WMKMe5EGAegpTBg1hBT-EujRsyyVxqPg7n18AdWxLxog9r7FknDDOllBxxSBJr_iUqjeuyn7Jy6omgqnjNDMJqHZmURGd144T4fynB7Ay29b3NSM1xp7xkK7znZOJpeeKBeeOZhWrdZxI1y5ulFy5EGrIt5WxuiDolWFom_zRHO2YrRsyXhR_xVWlZwJDyQvdKG7aZxcQIEuzYJ7zohzka-Aye9Ddg8CJjPD0GYWf2py02ZiXvrZP7JWYBulcDY1c70EI6GMbW9x5tPy5kHfEPzZ_cuXmJZpkaTjv8SmsWb6mdcuu3Hw9AYAChjtTtEASp-C1fdrhZUFtBpaLnY14R2FPhmeV19mGQPdu0Rq3B6a_FdSYi49gZgKAmoslQ4w02yKxRpfGzVPWdrHpZ4ld7l_hqaHwSHwLtICyWyCP4YF37p07cWjR8IJg_v-UD1cP_HdEOv_d9tycCUxYdlagrCxFECx5oSL_kESsdSl7rSLhZOl9YSg6ZZgbAmhFl8QThyGyvrxPFN9PdpBS_YjtZMtkslR2Ra2whMqsfB_pNJIpxtk3zteePMqRZtkbcTiTuhgILp9ZgDVaPKfrV_DmQjJxy9LToMPh1B6Oye7lfBemr8AtQwL0cXjUN8NfC0TlcB4ePgJisstVFuQpVCoqrNtKln3rhMUO5qE_EK1_Al4oaqzXQPJBkBJ9QI7_6vFkq_VEv0gnL6JDb3IaAQPCT8LATUCNi4qd7NE39ywZ7x1G00]--></g></svg>