<?xml version="1.0" encoding="us-ascii" standalone="no"?><svg xmlns="http://www.w3.org/2000/svg" xmlns:xlink="http://www.w3.org/1999/xlink" contentStyleType="text/css" height="1258px" preserveAspectRatio="none" style="width:2720px;height:1258px;background:#FFFFFF;" version="1.1" viewBox="0 0 2720 1258" width="2720px" zoomAndPan="magnify"><defs/><g><rect fill="none" height="193.1738" style="stroke:#000000;stroke-width:1.5;" width="2704" x="10" y="187.2188"/><rect fill="none" height="163.8633" style="stroke:#000000;stroke-width:1.5;" width="2383" x="10" y="658.1875"/><rect fill="none" height="193.1738" style="stroke:#000000;stroke-width:1.5;" width="2704" x="10" y="923.9824"/><line style="stroke:#181818;stroke-width:0.5;stroke-dasharray:5.0,5.0;" x1="45" x2="45" y1="52.9766" y2="1251.3984"/><line style="stroke:#181818;stroke-width:0.5;stroke-dasharray:5.0,5.0;" x1="301" x2="301" y1="52.9766" y2="1251.3984"/><line style="stroke:#181818;stroke-width:0.5;stroke-dasharray:5.0,5.0;" x1="780" x2="780" y1="52.9766" y2="1251.3984"/><line style="stroke:#181818;stroke-width:0.5;stroke-dasharray:5.0,5.0;" x1="1106" x2="1106" y1="52.9766" y2="1251.3984"/><line style="stroke:#181818;stroke-width:0.5;stroke-dasharray:5.0,5.0;" x1="1287" x2="1287" y1="52.9766" y2="1251.3984"/><line style="stroke:#181818;stroke-width:0.5;stroke-dasharray:5.0,5.0;" x1="1496" x2="1496" y1="52.9766" y2="1251.3984"/><line style="stroke:#181818;stroke-width:0.5;stroke-dasharray:5.0,5.0;" x1="1687" x2="1687" y1="52.9766" y2="1251.3984"/><line style="stroke:#181818;stroke-width:0.5;stroke-dasharray:5.0,5.0;" x1="1866" x2="1866" y1="52.9766" y2="1251.3984"/><line style="stroke:#181818;stroke-width:0.5;stroke-dasharray:5.0,5.0;" x1="2171" x2="2171" y1="52.9766" y2="1251.3984"/><line style="stroke:#181818;stroke-width:0.5;stroke-dasharray:5.0,5.0;" x1="2473" x2="2473" y1="52.9766" y2="1251.3984"/><line style="stroke:#181818;stroke-width:0.5;stroke-dasharray:5.0,5.0;" x1="2633" x2="2633" y1="52.9766" y2="1251.3984"/><rect fill="#E2E2F0" height="30.4883" rx="2.5" ry="2.5" style="stroke:#181818;stroke-width:0.5;" width="51" x="20" y="21.4883"/><text fill="#000000" font-family="sans-serif" font-size="14" lengthAdjust="spacing" textLength="37" x="27" y="42.0234">Actor</text><rect fill="#E2E2F0" height="46.9766" rx="2.5" ry="2.5" style="stroke:#181818;stroke-width:0.5;" width="441" x="81" y="5"/><text fill="#000000" font-family="sans-serif" font-size="14" font-style="italic" lengthAdjust="spacing" textLength="427" x="88" y="25.5352">&#171;/trial-management/trials/:trialNumber/:locationCode/detail&#187;</text><text fill="#000000" font-family="sans-serif" font-size="14" lengthAdjust="spacing" textLength="110" x="246.5" y="42.0234">TrialDetailsPage</text><rect fill="#E2E2F0" height="46.9766" rx="2.5" ry="2.5" style="stroke:#181818;stroke-width:0.5;" width="497" x="532" y="5"/><text fill="#000000" font-family="sans-serif" font-size="14" font-style="italic" lengthAdjust="spacing" textLength="483" x="539" y="25.5352">&#171;/trial-management/trials/:trialNumber/:locationCode/reinstate-jury&#187;</text><text fill="#000000" font-family="sans-serif" font-size="14" lengthAdjust="spacing" textLength="122" x="719.5" y="42.0234">ReinstateJuryPage</text><rect fill="#E2E2F0" height="46.9766" rx="2.5" ry="2.5" style="stroke:#181818;stroke-width:0.5;" width="134" x="1039" y="5"/><text fill="#000000" font-family="sans-serif" font-size="14" font-style="italic" lengthAdjust="spacing" textLength="56" x="1078" y="25.5352">&#171;/error&#187;</text><text fill="#000000" font-family="sans-serif" font-size="14" lengthAdjust="spacing" textLength="120" x="1046" y="42.0234">GenericErrorPage</text><rect fill="#FFFFE0" height="46.9766" rx="2.5" ry="2.5" style="stroke:#181818;stroke-width:0.5;" width="208" x="1183" y="5"/><text fill="#000000" font-family="sans-serif" font-size="14" font-style="italic" lengthAdjust="spacing" textLength="194" x="1190" y="25.5352">&#171;reinstate-jury.controller.js&#187;</text><text fill="#000000" font-family="sans-serif" font-size="14" lengthAdjust="spacing" textLength="159" x="1207.5" y="42.0234">ReinstateJuryController</text><rect fill="#FFFFE0" height="46.9766" rx="2.5" ry="2.5" style="stroke:#181818;stroke-width:0.5;" width="190" x="1401" y="5"/><text fill="#000000" font-family="sans-serif" font-size="14" font-style="italic" lengthAdjust="spacing" textLength="176" x="1408" y="25.5352">&#171;getReturnedJurors.get()&#187;</text><text fill="#000000" font-family="sans-serif" font-size="14" lengthAdjust="spacing" textLength="148" x="1422" y="42.0234">ReturnedJurorsObject</text><rect fill="#FFFFE0" height="46.9766" rx="2.5" ry="2.5" style="stroke:#181818;stroke-width:0.5;" width="173" x="1601" y="5"/><text fill="#000000" font-family="sans-serif" font-size="14" font-style="italic" lengthAdjust="spacing" textLength="159" x="1608" y="25.5352">&#171;reinstateJurors.post()&#187;</text><text fill="#000000" font-family="sans-serif" font-size="14" lengthAdjust="spacing" textLength="148" x="1613.5" y="42.0234">ReinstateJurorsObject</text><rect fill="#FFD700" height="30.4883" rx="2.5" ry="2.5" style="stroke:#181818;stroke-width:0.5;" width="165" x="1784" y="21.4883"/><text fill="#000000" font-family="sans-serif" font-size="14" lengthAdjust="spacing" textLength="151" x="1791" y="42.0234">ReinstateJuryValidator</text><rect fill="#E6E6FA" height="46.9766" rx="2.5" ry="2.5" style="stroke:#181818;stroke-width:0.5;" width="424" x="1959" y="5"/><text fill="#000000" font-family="sans-serif" font-size="14" font-style="italic" lengthAdjust="spacing" textLength="410" x="1966" y="25.5352">&#171;trial-management/reinstate-jury/reinstate-jury-selection&#187;</text><text fill="#000000" font-family="sans-serif" font-size="14" lengthAdjust="spacing" textLength="153" x="2094.5" y="42.0234">ReinstateJuryTemplate</text><rect fill="#E6E6FA" height="46.9766" rx="2.5" ry="2.5" style="stroke:#181818;stroke-width:0.5;" width="160" x="2393" y="5"/><text fill="#000000" font-family="sans-serif" font-size="14" font-style="italic" lengthAdjust="spacing" textLength="146" x="2400" y="25.5352">&#171;_errors/generic.njk&#187;</text><text fill="#000000" font-family="sans-serif" font-size="14" lengthAdjust="spacing" textLength="99" x="2423.5" y="42.0234">ErrorTemplate</text><rect fill="#E2E2F0" height="30.4883" rx="2.5" ry="2.5" style="stroke:#181818;stroke-width:0.5;" width="141" x="2563" y="21.4883"/><text fill="#000000" font-family="sans-serif" font-size="14" lengthAdjust="spacing" textLength="127" x="2570" y="42.0234">BackendController</text><polygon fill="#181818" points="289.5,80.2871,299.5,84.2871,289.5,88.2871" style="stroke:#181818;stroke-width:1.0;"/><line style="stroke:#181818;stroke-width:1.0;" x1="45.5" x2="295.5" y1="84.2871" y2="84.2871"/><text fill="#000000" font-family="sans-serif" font-size="13" lengthAdjust="spacing" textLength="145" x="101" y="79.5449">Click "Reinstate jurors"</text><polygon fill="#181818" points="1275,109.5977,1285,113.5977,1275,117.5977" style="stroke:#181818;stroke-width:1.0;"/><line style="stroke:#181818;stroke-width:1.0;" x1="301.5" x2="1281" y1="113.5977" y2="113.5977"/><text fill="#000000" font-family="sans-serif" font-size="13" lengthAdjust="spacing" textLength="121" x="733.75" y="108.8555">call page controller</text><polygon fill="#181818" points="1484,138.9082,1494,142.9082,1484,146.9082" style="stroke:#181818;stroke-width:1.0;"/><line style="stroke:#181818;stroke-width:1.0;" x1="1287" x2="1490" y1="142.9082" y2="142.9082"/><text fill="#000000" font-family="sans-serif" font-size="13" lengthAdjust="spacing" textLength="126" x="1328.5" y="138.166">build request object</text><polygon fill="#181818" points="2621.5,168.2188,2631.5,172.2188,2621.5,176.2188" style="stroke:#181818;stroke-width:1.0;"/><line style="stroke:#181818;stroke-width:1.0;" x1="1496" x2="2627.5" y1="172.2188" y2="172.2188"/><text fill="#000000" font-family="sans-serif" font-size="13" lengthAdjust="spacing" textLength="138" x="1995.75" y="167.4766">send backend request</text><path d="M10,187.2188 L72,187.2188 L72,194.5293 L62,204.5293 L10,204.5293 L10,187.2188 " fill="#EEEEEE" style="stroke:#000000;stroke-width:1.5;"/><rect fill="none" height="193.1738" style="stroke:#000000;stroke-width:1.5;" width="2704" x="10" y="187.2188"/><text fill="#000000" font-family="sans-serif" font-size="13" font-weight="bold" lengthAdjust="spacing" textLength="17" x="25" y="200.7871">alt</text><text fill="#000000" font-family="sans-serif" font-size="11" font-weight="bold" lengthAdjust="spacing" textLength="166" x="87" y="199.8535">[Failed to get returned jurors]</text><polygon fill="#181818" points="1507,221.8398,1497,225.8398,1507,229.8398" style="stroke:#181818;stroke-width:1.0;"/><line style="stroke:#181818;stroke-width:1.0;stroke-dasharray:2.0,2.0;" x1="1501" x2="2632.5" y1="225.8398" y2="225.8398"/><text fill="#000000" font-family="sans-serif" font-size="13" lengthAdjust="spacing" textLength="91" x="2019.25" y="221.0977">Error response</text><polygon fill="#181818" points="1298,251.1504,1288,255.1504,1298,259.1504" style="stroke:#181818;stroke-width:1.0;"/><line style="stroke:#181818;stroke-width:1.0;stroke-dasharray:2.0,2.0;" x1="1292" x2="1495" y1="255.1504" y2="255.1504"/><text fill="#000000" font-family="sans-serif" font-size="13" lengthAdjust="spacing" textLength="127" x="1328" y="250.4082">reject requestObject</text><polygon fill="#181818" points="2461,280.4609,2471,284.4609,2461,288.4609" style="stroke:#181818;stroke-width:1.0;"/><line style="stroke:#181818;stroke-width:1.0;" x1="1287" x2="2467" y1="284.4609" y2="284.4609"/><text fill="#000000" font-family="sans-serif" font-size="13" lengthAdjust="spacing" textLength="169" x="1795.5" y="279.7188">request and build template</text><polygon fill="#181818" points="1298,309.7715,1288,313.7715,1298,317.7715" style="stroke:#181818;stroke-width:1.0;"/><line style="stroke:#181818;stroke-width:1.0;" x1="1292" x2="2472" y1="313.7715" y2="313.7715"/><text fill="#000000" font-family="sans-serif" font-size="13" lengthAdjust="spacing" textLength="78" x="1841" y="309.0293">return HTML</text><polygon fill="#181818" points="1117,339.082,1107,343.082,1117,347.082" style="stroke:#181818;stroke-width:1.0;"/><line style="stroke:#181818;stroke-width:1.0;" x1="1111" x2="1286" y1="343.082" y2="343.082"/><text fill="#000000" font-family="sans-serif" font-size="13" lengthAdjust="spacing" textLength="78" x="1157.5" y="338.3398">return HTML</text><polygon fill="#181818" points="56.5,368.3926,46.5,372.3926,56.5,376.3926" style="stroke:#181818;stroke-width:1.0;"/><line style="stroke:#181818;stroke-width:1.0;" x1="50.5" x2="1105" y1="372.3926" y2="372.3926"/><text fill="#000000" font-family="sans-serif" font-size="13" lengthAdjust="spacing" textLength="108" x="521.75" y="367.6504">render error page</text><polygon fill="#181818" points="1507,404.7031,1497,408.7031,1507,412.7031" style="stroke:#181818;stroke-width:1.0;"/><line style="stroke:#181818;stroke-width:1.0;" x1="1501" x2="2632.5" y1="408.7031" y2="408.7031"/><text fill="#000000" font-family="sans-serif" font-size="13" lengthAdjust="spacing" textLength="77" x="2026.25" y="403.9609">ok response</text><polygon fill="#181818" points="1298,434.0137,1288,438.0137,1298,442.0137" style="stroke:#181818;stroke-width:1.0;"/><line style="stroke:#181818;stroke-width:1.0;" x1="1292" x2="1495" y1="438.0137" y2="438.0137"/><text fill="#000000" font-family="sans-serif" font-size="13" lengthAdjust="spacing" textLength="96" x="1343.5" y="433.2715">resolve request</text><polygon fill="#181818" points="2159,463.3242,2169,467.3242,2159,471.3242" style="stroke:#181818;stroke-width:1.0;"/><line style="stroke:#181818;stroke-width:1.0;" x1="1287" x2="2165" y1="467.3242" y2="467.3242"/><text fill="#000000" font-family="sans-serif" font-size="13" lengthAdjust="spacing" textLength="169" x="1644.5" y="462.582">request and build template</text><polygon fill="#181818" points="1298,492.6348,1288,496.6348,1298,500.6348" style="stroke:#181818;stroke-width:1.0;"/><line style="stroke:#181818;stroke-width:1.0;" x1="1292" x2="2170" y1="496.6348" y2="496.6348"/><text fill="#000000" font-family="sans-serif" font-size="13" lengthAdjust="spacing" textLength="78" x="1690" y="491.8926">return HTML</text><polygon fill="#181818" points="791.5,521.9453,781.5,525.9453,791.5,529.9453" style="stroke:#181818;stroke-width:1.0;"/><line style="stroke:#181818;stroke-width:1.0;" x1="785.5" x2="1286" y1="525.9453" y2="525.9453"/><text fill="#000000" font-family="sans-serif" font-size="13" lengthAdjust="spacing" textLength="78" x="994.75" y="521.2031">return HTML</text><polygon fill="#181818" points="56.5,551.2559,46.5,555.2559,56.5,559.2559" style="stroke:#181818;stroke-width:1.0;"/><line style="stroke:#181818;stroke-width:1.0;" x1="50.5" x2="779.5" y1="555.2559" y2="555.2559"/><text fill="#000000" font-family="sans-serif" font-size="13" lengthAdjust="spacing" textLength="80" x="373" y="550.5137">render HTML</text><polygon fill="#181818" points="768.5,580.5664,778.5,584.5664,768.5,588.5664" style="stroke:#181818;stroke-width:1.0;"/><line style="stroke:#181818;stroke-width:1.0;" x1="45.5" x2="774.5" y1="584.5664" y2="584.5664"/><text fill="#000000" font-family="sans-serif" font-size="13" lengthAdjust="spacing" textLength="210" x="308" y="579.8242">Select jurors and click "Continue"</text><polygon fill="#181818" points="1275,609.877,1285,613.877,1275,617.877" style="stroke:#181818;stroke-width:1.0;"/><line style="stroke:#181818;stroke-width:1.0;" x1="780.5" x2="1281" y1="613.877" y2="613.877"/><text fill="#000000" font-family="sans-serif" font-size="13" lengthAdjust="spacing" textLength="121" x="973.25" y="609.1348">call page controller</text><polygon fill="#181818" points="1854.5,639.1875,1864.5,643.1875,1854.5,647.1875" style="stroke:#181818;stroke-width:1.0;"/><line style="stroke:#181818;stroke-width:1.0;" x1="1287" x2="1860.5" y1="643.1875" y2="643.1875"/><text fill="#000000" font-family="sans-serif" font-size="13" lengthAdjust="spacing" textLength="95" x="1529.25" y="638.4453">validate details</text><path d="M10,658.1875 L72,658.1875 L72,665.498 L62,675.498 L10,675.498 L10,658.1875 " fill="#EEEEEE" style="stroke:#000000;stroke-width:1.5;"/><rect fill="none" height="163.8633" style="stroke:#000000;stroke-width:1.5;" width="2383" x="10" y="658.1875"/><text fill="#000000" font-family="sans-serif" font-size="13" font-weight="bold" lengthAdjust="spacing" textLength="17" x="25" y="671.7559">alt</text><text fill="#000000" font-family="sans-serif" font-size="11" font-weight="bold" lengthAdjust="spacing" textLength="172" x="87" y="670.8223">[No/Too many jurors selected]</text><polygon fill="#181818" points="1298,692.8086,1288,696.8086,1298,700.8086" style="stroke:#181818;stroke-width:1.0;"/><line style="stroke:#181818;stroke-width:1.0;" x1="1292" x2="1865.5" y1="696.8086" y2="696.8086"/><text fill="#000000" font-family="sans-serif" font-size="13" lengthAdjust="spacing" textLength="184" x="1484.75" y="692.0664">No/Too many jurors selected</text><polygon fill="#181818" points="2159,722.1191,2169,726.1191,2159,730.1191" style="stroke:#181818;stroke-width:1.0;"/><line style="stroke:#181818;stroke-width:1.0;" x1="1287" x2="2165" y1="726.1191" y2="726.1191"/><text fill="#000000" font-family="sans-serif" font-size="13" lengthAdjust="spacing" textLength="169" x="1644.5" y="721.377">request and build template</text><polygon fill="#181818" points="1298,751.4297,1288,755.4297,1298,759.4297" style="stroke:#181818;stroke-width:1.0;"/><line style="stroke:#181818;stroke-width:1.0;" x1="1292" x2="2170" y1="755.4297" y2="755.4297"/><text fill="#000000" font-family="sans-serif" font-size="13" lengthAdjust="spacing" textLength="78" x="1690" y="750.6875">return HTML</text><polygon fill="#181818" points="791.5,780.7402,781.5,784.7402,791.5,788.7402" style="stroke:#181818;stroke-width:1.0;"/><line style="stroke:#181818;stroke-width:1.0;" x1="785.5" x2="1286" y1="784.7402" y2="784.7402"/><text fill="#000000" font-family="sans-serif" font-size="13" lengthAdjust="spacing" textLength="112" x="977.75" y="779.998">return error HTML</text><polygon fill="#181818" points="56.5,810.0508,46.5,814.0508,56.5,818.0508" style="stroke:#181818;stroke-width:1.0;"/><line style="stroke:#181818;stroke-width:1.0;" x1="50.5" x2="779.5" y1="814.0508" y2="814.0508"/><text fill="#000000" font-family="sans-serif" font-size="13" lengthAdjust="spacing" textLength="133" x="346.5" y="809.3086">render error message</text><polygon fill="#181818" points="1298,846.3613,1288,850.3613,1298,854.3613" style="stroke:#181818;stroke-width:1.0;"/><line style="stroke:#181818;stroke-width:1.0;" x1="1292" x2="1865.5" y1="850.3613" y2="850.3613"/><text fill="#000000" font-family="sans-serif" font-size="13" lengthAdjust="spacing" textLength="127" x="1513.25" y="845.6191">valid details entered</text><polygon fill="#181818" points="1675.5,875.6719,1685.5,879.6719,1675.5,883.6719" style="stroke:#181818;stroke-width:1.0;"/><line style="stroke:#181818;stroke-width:1.0;" x1="1287" x2="1681.5" y1="879.6719" y2="879.6719"/><text fill="#000000" font-family="sans-serif" font-size="13" lengthAdjust="spacing" textLength="126" x="1424.25" y="874.9297">build request object</text><polygon fill="#181818" points="2621.5,904.9824,2631.5,908.9824,2621.5,912.9824" style="stroke:#181818;stroke-width:1.0;"/><line style="stroke:#181818;stroke-width:1.0;" x1="1687.5" x2="2627.5" y1="908.9824" y2="908.9824"/><text fill="#000000" font-family="sans-serif" font-size="13" lengthAdjust="spacing" textLength="138" x="2091.5" y="904.2402">send backend request</text><path d="M10,923.9824 L72,923.9824 L72,931.293 L62,941.293 L10,941.293 L10,923.9824 " fill="#EEEEEE" style="stroke:#000000;stroke-width:1.5;"/><rect fill="none" height="193.1738" style="stroke:#000000;stroke-width:1.5;" width="2704" x="10" y="923.9824"/><text fill="#000000" font-family="sans-serif" font-size="13" font-weight="bold" lengthAdjust="spacing" textLength="17" x="25" y="937.5508">alt</text><text fill="#000000" font-family="sans-serif" font-size="11" font-weight="bold" lengthAdjust="spacing" textLength="146" x="87" y="936.6172">[Failed to reinstate jurors]</text><polygon fill="#181818" points="1698.5,958.6035,1688.5,962.6035,1698.5,966.6035" style="stroke:#181818;stroke-width:1.0;"/><line style="stroke:#181818;stroke-width:1.0;stroke-dasharray:2.0,2.0;" x1="1692.5" x2="2632.5" y1="962.6035" y2="962.6035"/><text fill="#000000" font-family="sans-serif" font-size="13" lengthAdjust="spacing" textLength="91" x="2115" y="957.8613">Error response</text><polygon fill="#181818" points="1298,987.9141,1288,991.9141,1298,995.9141" style="stroke:#181818;stroke-width:1.0;"/><line style="stroke:#181818;stroke-width:1.0;stroke-dasharray:2.0,2.0;" x1="1292" x2="1686.5" y1="991.9141" y2="991.9141"/><text fill="#000000" font-family="sans-serif" font-size="13" lengthAdjust="spacing" textLength="127" x="1423.75" y="987.1719">reject requestObject</text><polygon fill="#181818" points="2461,1017.2246,2471,1021.2246,2461,1025.2246" style="stroke:#181818;stroke-width:1.0;"/><line style="stroke:#181818;stroke-width:1.0;" x1="1287" x2="2467" y1="1021.2246" y2="1021.2246"/><text fill="#000000" font-family="sans-serif" font-size="13" lengthAdjust="spacing" textLength="169" x="1795.5" y="1016.4824">request and build template</text><polygon fill="#181818" points="1298,1046.5352,1288,1050.5352,1298,1054.5352" style="stroke:#181818;stroke-width:1.0;"/><line style="stroke:#181818;stroke-width:1.0;" x1="1292" x2="2472" y1="1050.5352" y2="1050.5352"/><text fill="#000000" font-family="sans-serif" font-size="13" lengthAdjust="spacing" textLength="78" x="1841" y="1045.793">return HTML</text><polygon fill="#181818" points="1117,1075.8457,1107,1079.8457,1117,1083.8457" style="stroke:#181818;stroke-width:1.0;"/><line style="stroke:#181818;stroke-width:1.0;" x1="1111" x2="1286" y1="1079.8457" y2="1079.8457"/><text fill="#000000" font-family="sans-serif" font-size="13" lengthAdjust="spacing" textLength="78" x="1157.5" y="1075.1035">return HTML</text><polygon fill="#181818" points="56.5,1105.1563,46.5,1109.1563,56.5,1113.1563" style="stroke:#181818;stroke-width:1.0;"/><line style="stroke:#181818;stroke-width:1.0;" x1="50.5" x2="1105" y1="1109.1563" y2="1109.1563"/><text fill="#000000" font-family="sans-serif" font-size="13" lengthAdjust="spacing" textLength="108" x="521.75" y="1104.4141">render error page</text><polygon fill="#181818" points="1698.5,1141.4668,1688.5,1145.4668,1698.5,1149.4668" style="stroke:#181818;stroke-width:1.0;"/><line style="stroke:#181818;stroke-width:1.0;" x1="1692.5" x2="2632.5" y1="1145.4668" y2="1145.4668"/><text fill="#000000" font-family="sans-serif" font-size="13" lengthAdjust="spacing" textLength="77" x="2122" y="1140.7246">ok response</text><polygon fill="#181818" points="1298,1170.7773,1288,1174.7773,1298,1178.7773" style="stroke:#181818;stroke-width:1.0;"/><line style="stroke:#181818;stroke-width:1.0;" x1="1292" x2="1686.5" y1="1174.7773" y2="1174.7773"/><text fill="#000000" font-family="sans-serif" font-size="13" lengthAdjust="spacing" textLength="96" x="1439.25" y="1170.0352">resolve request</text><polygon fill="#181818" points="312.5,1200.0879,302.5,1204.0879,312.5,1208.0879" style="stroke:#181818;stroke-width:1.0;"/><line style="stroke:#181818;stroke-width:1.0;" x1="306.5" x2="1286" y1="1204.0879" y2="1204.0879"/><text fill="#000000" font-family="sans-serif" font-size="13" lengthAdjust="spacing" textLength="195" x="696.75" y="1199.3457">redirect to updated trial details</text><polygon fill="#181818" points="56.5,1229.3984,46.5,1233.3984,56.5,1237.3984" style="stroke:#181818;stroke-width:1.0;"/><line style="stroke:#181818;stroke-width:1.0;" x1="50.5" x2="300.5" y1="1233.3984" y2="1233.3984"/><text fill="#000000" font-family="sans-serif" font-size="13" lengthAdjust="spacing" textLength="158" x="94.5" y="1228.6563">view updated trial details</text><!--SRC=[fLLHR-8m37xlh_2napOa2kzeGkgwtiIEqHrqUprbgSK28UabwIR-_RajC4efGdSle3ZsP_lpv_HTf0YvaaAjCFMyRq9ncPDfWGgDuFwRr7nb-vbaokLhwNbs9LJ635l3t6qaWdNaLbp1uHN-oL5nV49hsG83AHPgZSe1fnyqdaTkJd2H4Ie4t6aoNLzVmoGEWmdCufTaF7seEIL6C7cFZWbfdmaIRcy7hh3vQwReNA1N1ZiObl_JVFs6PZ2a1fWJMeKwnK5Q8en6DUmP2cKTS_YOcyr_W9iTZhyaeACa3nMXaJ7Qx79WSI2_ilSmdYQpU3A9PX1Cxs4M_Ng9vWd4TuzHcCpR2mwrSaPBYOOWwoNq-VwklxIZ4LpH8DxT1gNKdqU8BZSAKmBKniPlI-IEu1RewZTzijnqpoDzrNO8PUhsVgRj2QIIYTTWChuFadXsfkjN9aNAI3XmjT0ohGAJwEbv4YJHl5Kw2Qv9ogvW__I0_KeXVRLSbRMn3rGfARQra7E8zMaS7NsBagWXyRGcAiLoaE1tAHWxs2vdeyYIXBiW_1cHWBxqLCEyOtn5tb-gyJolt43mHyqj6q8e1Lz1PzypBClvTRo6ByMt2NC8d4a9MU763p9_ttOIF8z3ShXfYU-Tr6UlpayFEZ-e5ap1QNg-79XjpAxYBkKp9L6xa4GNXP_BUcBGlUPxqJsWiFcO3EavB2QzhGEOIe5Nh1R9XCgnupN3_eNEZsehSAoot5tOrtwJBk-Ng9xgGQ8raDWtkxugFMDQ4dtvO4yy5-ScQuw5IDcQ7mV_37S6Ks6AUH1QdXLq4N210DNks-qm2UJ4Fdm8_6m9-mi0]--></g></svg>