<?xml version="1.0" encoding="us-ascii" standalone="no"?><svg xmlns="http://www.w3.org/2000/svg" xmlns:xlink="http://www.w3.org/1999/xlink" contentStyleType="text/css" height="617px" preserveAspectRatio="none" style="width:1509px;height:617px;background:#FFFFFF;" version="1.1" viewBox="0 0 1509 617" width="1509px" zoomAndPan="magnify"><defs/><g><text fill="#000000" font-family="sans-serif" font-size="14" font-weight="bold" lengthAdjust="spacing" textLength="156" x="678" y="28.5352">View Room Locations</text><rect fill="none" height="193.1738" style="stroke:#000000;stroke-width:1.5;" width="1493" x="10" y="224.707"/><line style="stroke:#181818;stroke-width:0.5;stroke-dasharray:5.0,5.0;" x1="45" x2="45" y1="90.4648" y2="610.7441"/><line style="stroke:#181818;stroke-width:0.5;stroke-dasharray:5.0,5.0;" x1="231" x2="231" y1="90.4648" y2="610.7441"/><line style="stroke:#181818;stroke-width:0.5;stroke-dasharray:5.0,5.0;" x1="458" x2="458" y1="90.4648" y2="610.7441"/><line style="stroke:#181818;stroke-width:0.5;stroke-dasharray:5.0,5.0;" x1="650" x2="650" y1="90.4648" y2="610.7441"/><line style="stroke:#181818;stroke-width:0.5;stroke-dasharray:5.0,5.0;" x1="863" x2="863" y1="90.4648" y2="610.7441"/><line style="stroke:#181818;stroke-width:0.5;stroke-dasharray:5.0,5.0;" x1="1066" x2="1066" y1="90.4648" y2="610.7441"/><line style="stroke:#181818;stroke-width:0.5;stroke-dasharray:5.0,5.0;" x1="1262" x2="1262" y1="90.4648" y2="610.7441"/><line style="stroke:#181818;stroke-width:0.5;stroke-dasharray:5.0,5.0;" x1="1422" x2="1422" y1="90.4648" y2="610.7441"/><rect fill="#E2E2F0" height="30.4883" rx="2.5" ry="2.5" style="stroke:#181818;stroke-width:0.5;" width="51" x="20" y="58.9766"/><text fill="#000000" font-family="sans-serif" font-size="14" lengthAdjust="spacing" textLength="37" x="27" y="79.5117">Actor</text><rect fill="#E2E2F0" height="46.9766" rx="2.5" ry="2.5" style="stroke:#181818;stroke-width:0.5;" width="300" x="81" y="42.4883"/><text fill="#000000" font-family="sans-serif" font-size="14" font-style="italic" lengthAdjust="spacing" textLength="286" x="88" y="63.0234">&#171;/administration/room-locations/rooms&#187;</text><text fill="#000000" font-family="sans-serif" font-size="14" lengthAdjust="spacing" textLength="80" x="191" y="79.5117">RoomsPage</text><rect fill="#E2E2F0" height="46.9766" rx="2.5" ry="2.5" style="stroke:#181818;stroke-width:0.5;" width="134" x="391" y="42.4883"/><text fill="#000000" font-family="sans-serif" font-size="14" font-style="italic" lengthAdjust="spacing" textLength="56" x="430" y="63.0234">&#171;/error&#187;</text><text fill="#000000" font-family="sans-serif" font-size="14" lengthAdjust="spacing" textLength="120" x="398" y="79.5117">GenericErrorPage</text><rect fill="#FFFFE0" height="46.9766" rx="2.5" ry="2.5" style="stroke:#181818;stroke-width:0.5;" width="231" x="535" y="42.4883"/><text fill="#000000" font-family="sans-serif" font-size="14" font-style="italic" lengthAdjust="spacing" textLength="217" x="542" y="63.0234">&#171;non-sitting-days.controller.js&#187;</text><text fill="#000000" font-family="sans-serif" font-size="14" lengthAdjust="spacing" textLength="175" x="563" y="79.5117">RoomLocationsController</text><rect fill="#FFFFE0" height="46.9766" rx="2.5" ry="2.5" style="stroke:#181818;stroke-width:0.5;" width="175" x="776" y="42.4883"/><text fill="#000000" font-family="sans-serif" font-size="14" font-style="italic" lengthAdjust="spacing" textLength="161" x="783" y="63.0234">&#171;courtroomsDAO.get()&#187;</text><text fill="#000000" font-family="sans-serif" font-size="14" lengthAdjust="spacing" textLength="149" x="789" y="79.5117">RoomLocationsObject</text><rect fill="#E2E2F0" height="46.9766" rx="2.5" ry="2.5" style="stroke:#181818;stroke-width:0.5;" width="211" x="961" y="42.4883"/><text fill="#000000" font-family="sans-serif" font-size="14" font-style="italic" lengthAdjust="spacing" textLength="197" x="968" y="63.0234">&#171;/administration/rooms.njk&#187;</text><text fill="#000000" font-family="sans-serif" font-size="14" lengthAdjust="spacing" textLength="111" x="1011" y="79.5117">RoomsTemplate</text><rect fill="#E6E6FA" height="46.9766" rx="2.5" ry="2.5" style="stroke:#181818;stroke-width:0.5;" width="160" x="1182" y="42.4883"/><text fill="#000000" font-family="sans-serif" font-size="14" font-style="italic" lengthAdjust="spacing" textLength="146" x="1189" y="63.0234">&#171;_errors/generic.njk&#187;</text><text fill="#000000" font-family="sans-serif" font-size="14" lengthAdjust="spacing" textLength="99" x="1212.5" y="79.5117">ErrorTemplate</text><rect fill="#E2E2F0" height="30.4883" rx="2.5" ry="2.5" style="stroke:#181818;stroke-width:0.5;" width="141" x="1352" y="58.9766"/><text fill="#000000" font-family="sans-serif" font-size="14" lengthAdjust="spacing" textLength="127" x="1359" y="79.5117">BackendController</text><polygon fill="#181818" points="219,117.7754,229,121.7754,219,125.7754" style="stroke:#181818;stroke-width:1.0;"/><line style="stroke:#181818;stroke-width:1.0;" x1="45.5" x2="225" y1="121.7754" y2="121.7754"/><text fill="#000000" font-family="sans-serif" font-size="13" lengthAdjust="spacing" textLength="98" x="89.25" y="117.0332">click rooms tab</text><polygon fill="#181818" points="638.5,147.0859,648.5,151.0859,638.5,155.0859" style="stroke:#181818;stroke-width:1.0;"/><line style="stroke:#181818;stroke-width:1.0;" x1="231" x2="644.5" y1="151.0859" y2="151.0859"/><text fill="#000000" font-family="sans-serif" font-size="13" lengthAdjust="spacing" textLength="131" x="375.25" y="146.3438">call rooms controller</text><polygon fill="#181818" points="851.5,176.3965,861.5,180.3965,851.5,184.3965" style="stroke:#181818;stroke-width:1.0;"/><line style="stroke:#181818;stroke-width:1.0;" x1="650.5" x2="857.5" y1="180.3965" y2="180.3965"/><text fill="#000000" font-family="sans-serif" font-size="13" lengthAdjust="spacing" textLength="126" x="694" y="175.6543">build request object</text><polygon fill="#181818" points="1410.5,205.707,1420.5,209.707,1410.5,213.707" style="stroke:#181818;stroke-width:1.0;"/><line style="stroke:#181818;stroke-width:1.0;" x1="863.5" x2="1416.5" y1="209.707" y2="209.707"/><text fill="#000000" font-family="sans-serif" font-size="13" lengthAdjust="spacing" textLength="138" x="1074" y="204.9648">send backend request</text><path d="M10,224.707 L72,224.707 L72,232.0176 L62,242.0176 L10,242.0176 L10,224.707 " fill="#EEEEEE" style="stroke:#000000;stroke-width:1.5;"/><rect fill="none" height="193.1738" style="stroke:#000000;stroke-width:1.5;" width="1493" x="10" y="224.707"/><text fill="#000000" font-family="sans-serif" font-size="13" font-weight="bold" lengthAdjust="spacing" textLength="17" x="25" y="238.2754">alt</text><text fill="#000000" font-family="sans-serif" font-size="11" font-weight="bold" lengthAdjust="spacing" textLength="152" x="87" y="237.3418">[Failed to fetch courtooms]</text><polygon fill="#181818" points="874.5,259.3281,864.5,263.3281,874.5,267.3281" style="stroke:#181818;stroke-width:1.0;"/><line style="stroke:#181818;stroke-width:1.0;stroke-dasharray:2.0,2.0;" x1="868.5" x2="1421.5" y1="263.3281" y2="263.3281"/><text fill="#000000" font-family="sans-serif" font-size="13" lengthAdjust="spacing" textLength="91" x="1097.5" y="258.5859">error response</text><polygon fill="#181818" points="661.5,288.6387,651.5,292.6387,661.5,296.6387" style="stroke:#181818;stroke-width:1.0;"/><line style="stroke:#181818;stroke-width:1.0;stroke-dasharray:2.0,2.0;" x1="655.5" x2="862.5" y1="292.6387" y2="292.6387"/><text fill="#000000" font-family="sans-serif" font-size="13" lengthAdjust="spacing" textLength="127" x="693.5" y="287.8965">reject requestObject</text><polygon fill="#181818" points="1250,317.9492,1260,321.9492,1250,325.9492" style="stroke:#181818;stroke-width:1.0;"/><line style="stroke:#181818;stroke-width:1.0;" x1="650.5" x2="1256" y1="321.9492" y2="321.9492"/><text fill="#000000" font-family="sans-serif" font-size="13" lengthAdjust="spacing" textLength="169" x="871.75" y="317.207">request and build template</text><polygon fill="#181818" points="661.5,347.2598,651.5,351.2598,661.5,355.2598" style="stroke:#181818;stroke-width:1.0;"/><line style="stroke:#181818;stroke-width:1.0;" x1="655.5" x2="1261" y1="351.2598" y2="351.2598"/><text fill="#000000" font-family="sans-serif" font-size="13" lengthAdjust="spacing" textLength="78" x="917.25" y="346.5176">return HTML</text><polygon fill="#181818" points="469,376.5703,459,380.5703,469,384.5703" style="stroke:#181818;stroke-width:1.0;"/><line style="stroke:#181818;stroke-width:1.0;" x1="463" x2="649.5" y1="380.5703" y2="380.5703"/><text fill="#000000" font-family="sans-serif" font-size="13" lengthAdjust="spacing" textLength="78" x="515.25" y="375.8281">return HTML</text><polygon fill="#181818" points="56.5,405.8809,46.5,409.8809,56.5,413.8809" style="stroke:#181818;stroke-width:1.0;"/><line style="stroke:#181818;stroke-width:1.0;" x1="50.5" x2="457" y1="409.8809" y2="409.8809"/><text fill="#000000" font-family="sans-serif" font-size="13" lengthAdjust="spacing" textLength="108" x="197.75" y="405.1387">render error page</text><polygon fill="#181818" points="874.5,442.1914,864.5,446.1914,874.5,450.1914" style="stroke:#181818;stroke-width:1.0;"/><line style="stroke:#181818;stroke-width:1.0;" x1="868.5" x2="1421.5" y1="446.1914" y2="446.1914"/><text fill="#000000" font-family="sans-serif" font-size="13" lengthAdjust="spacing" textLength="77" x="1104.5" y="441.4492">ok response</text><polygon fill="#181818" points="661.5,471.502,651.5,475.502,661.5,479.502" style="stroke:#181818;stroke-width:1.0;"/><line style="stroke:#181818;stroke-width:1.0;" x1="655.5" x2="862.5" y1="475.502" y2="475.502"/><text fill="#000000" font-family="sans-serif" font-size="13" lengthAdjust="spacing" textLength="96" x="709" y="470.7598">resolve request</text><polygon fill="#181818" points="1054.5,500.8125,1064.5,504.8125,1054.5,508.8125" style="stroke:#181818;stroke-width:1.0;"/><line style="stroke:#181818;stroke-width:1.0;" x1="650.5" x2="1060.5" y1="504.8125" y2="504.8125"/><text fill="#000000" font-family="sans-serif" font-size="13" lengthAdjust="spacing" textLength="169" x="774" y="500.0703">request and build template</text><polygon fill="#181818" points="661.5,530.123,651.5,534.123,661.5,538.123" style="stroke:#181818;stroke-width:1.0;"/><line style="stroke:#181818;stroke-width:1.0;" x1="655.5" x2="1065.5" y1="534.123" y2="534.123"/><text fill="#000000" font-family="sans-serif" font-size="13" lengthAdjust="spacing" textLength="78" x="819.5" y="529.3809">return HTML</text><polygon fill="#181818" points="242,559.4336,232,563.4336,242,567.4336" style="stroke:#181818;stroke-width:1.0;"/><line style="stroke:#181818;stroke-width:1.0;" x1="236" x2="649.5" y1="563.4336" y2="563.4336"/><text fill="#000000" font-family="sans-serif" font-size="13" lengthAdjust="spacing" textLength="78" x="401.75" y="558.6914">return HTML</text><polygon fill="#181818" points="56.5,588.7441,46.5,592.7441,56.5,596.7441" style="stroke:#181818;stroke-width:1.0;"/><line style="stroke:#181818;stroke-width:1.0;" x1="50.5" x2="230" y1="592.7441" y2="592.7441"/><text fill="#000000" font-family="sans-serif" font-size="13" lengthAdjust="spacing" textLength="80" x="98.25" y="588.002">render HTML</text><!--SRC=[XPDjJzim4CVV-rCSsYH0Mihx2Y65ah67G5WRzdPotLinTUtEle3uzhiuQPkKHkH55EVkVlU_1vzegqorG5YYHQzLCZTEhS9eOwIbQcs422jjDzBBDSpepI04OhVQ15qJ_glGAhp34EGIKwENTesMGF4BlH2aYMD_Qto5gNDho9sIf9qDGZ21jD8RJWYf8iVUfwUda1UJD8TfyLX-lx_jETM0yC1fuFBoGYxMsceM5N4Ndcs9sSBZCLnTzS9lcqepxvtVKh0-i5_CF2dkoscHvzaKqliRc6Q_7hDP2SNrZsnIpjv9sPKoSPQyCmOz8wspIT14sYwJXNmB8xMpZfvP4dpY7ZtH6nhZNeUPnVmP5J5FkSfJBEScBKPBfBFpGqYZlipk7lAqpDuB3IMkUQuqrBSmii-hWsR5BdNY_iHEXOjsNPe8bY5Vq2wm7TrrElcPSUVsZUmnhwLQiVU-NKB4kKDojP_j69JHQWLH692SYvD030dL77pCDTbrfFONqDcB5dHiCioLnhHOrP40Wo67j7OcOvXNsYnO3Uz-873nzo6dTMR6kxAP4FW7p1l35bHBaORWgzG65q0E_YAf9uWRKCjcU_qStPCaEPedJeqJX0txuZ50TtaPShnWZ_6Z5Lfi2wwVpyrG3Y_NsK2IB_tDEcSAnminLDRHgjogMz9mEOFL16TUiDlt3rPWVuF6kx7BUe9n4QWrVgobpw7AM_XMtkMz7JwKtQky7zJSdYqxHe_RIzAudF0tNnpn7m00]--></g></svg>