<?xml version="1.0" encoding="us-ascii" standalone="no"?><svg xmlns="http://www.w3.org/2000/svg" xmlns:xlink="http://www.w3.org/1999/xlink" contentStyleType="text/css" height="1348px" preserveAspectRatio="none" style="width:2365px;height:1348px;background:#FFFFFF;" version="1.1" viewBox="0 0 2365 1348" width="2365px" zoomAndPan="magnify"><defs/><g><rect fill="none" height="193.1738" style="stroke:#000000;stroke-width:1.5;" width="2329" x="20" y="187.2188"/><rect fill="none" height="754.0742" style="stroke:#000000;stroke-width:1.5;" width="2349" x="10" y="570.2559"/><rect fill="none" height="163.8633" style="stroke:#000000;stroke-width:1.5;" width="2003" x="20" y="682.498"/><rect fill="none" height="193.1738" style="stroke:#000000;stroke-width:1.5;" width="2329" x="20" y="948.293"/><line style="stroke:#181818;stroke-width:0.5;stroke-dasharray:5.0,5.0;" x1="55" x2="55" y1="52.9766" y2="1341.3301"/><line style="stroke:#181818;stroke-width:0.5;stroke-dasharray:5.0,5.0;" x1="252" x2="252" y1="52.9766" y2="1341.3301"/><line style="stroke:#181818;stroke-width:0.5;stroke-dasharray:5.0,5.0;" x1="605" x2="605" y1="52.9766" y2="1341.3301"/><line style="stroke:#181818;stroke-width:0.5;stroke-dasharray:5.0,5.0;" x1="864" x2="864" y1="52.9766" y2="1341.3301"/><line style="stroke:#181818;stroke-width:0.5;stroke-dasharray:5.0,5.0;" x1="1064" x2="1064" y1="52.9766" y2="1341.3301"/><line style="stroke:#181818;stroke-width:0.5;stroke-dasharray:5.0,5.0;" x1="1307" x2="1307" y1="52.9766" y2="1341.3301"/><line style="stroke:#181818;stroke-width:0.5;stroke-dasharray:5.0,5.0;" x1="1549" x2="1549" y1="52.9766" y2="1341.3301"/><line style="stroke:#181818;stroke-width:0.5;stroke-dasharray:5.0,5.0;" x1="1847" x2="1847" y1="52.9766" y2="1341.3301"/><line style="stroke:#181818;stroke-width:0.5;stroke-dasharray:5.0,5.0;" x1="2105" x2="2105" y1="52.9766" y2="1341.3301"/><line style="stroke:#181818;stroke-width:0.5;stroke-dasharray:5.0,5.0;" x1="2268" x2="2268" y1="52.9766" y2="1341.3301"/><rect fill="#E2E2F0" height="30.4883" rx="2.5" ry="2.5" style="stroke:#181818;stroke-width:0.5;" width="51" x="30" y="21.4883"/><text fill="#000000" font-family="sans-serif" font-size="14" lengthAdjust="spacing" textLength="37" x="37" y="42.0234">Actor</text><rect fill="#E2E2F0" height="46.9766" rx="2.5" ry="2.5" style="stroke:#181818;stroke-width:0.5;" width="323" x="91" y="5"/><text fill="#000000" font-family="sans-serif" font-size="14" font-style="italic" lengthAdjust="spacing" textLength="309" x="98" y="25.5352">&#171;/juror-management/manage-jurors/pools&#187;</text><text fill="#000000" font-family="sans-serif" font-size="14" lengthAdjust="spacing" textLength="128" x="188.5" y="42.0234">ManageJurorsPage</text><rect fill="#E2E2F0" height="46.9766" rx="2.5" ry="2.5" style="stroke:#181818;stroke-width:0.5;" width="363" x="424" y="5"/><text fill="#000000" font-family="sans-serif" font-size="14" font-style="italic" lengthAdjust="spacing" textLength="349" x="431" y="25.5352">&#171;/administration/users/create-users/user-details&#187;</text><text fill="#000000" font-family="sans-serif" font-size="14" lengthAdjust="spacing" textLength="160" x="525.5" y="42.0234">UnpaidAttendancePage</text><rect fill="#E2E2F0" height="46.9766" rx="2.5" ry="2.5" style="stroke:#181818;stroke-width:0.5;" width="134" x="797" y="5"/><text fill="#000000" font-family="sans-serif" font-size="14" font-style="italic" lengthAdjust="spacing" textLength="56" x="836" y="25.5352">&#171;/error&#187;</text><text fill="#000000" font-family="sans-serif" font-size="14" lengthAdjust="spacing" textLength="120" x="804" y="42.0234">GenericErrorPage</text><rect fill="#FFFFE0" height="46.9766" rx="2.5" ry="2.5" style="stroke:#181818;stroke-width:0.5;" width="246" x="941" y="5"/><text fill="#000000" font-family="sans-serif" font-size="14" font-style="italic" lengthAdjust="spacing" textLength="232" x="948" y="25.5352">&#171;unpaid-attendance.controller.js&#187;</text><text fill="#000000" font-family="sans-serif" font-size="14" lengthAdjust="spacing" textLength="197" x="965.5" y="42.0234">UnpaidAttendanceController</text><rect fill="#FFFFE0" height="46.9766" rx="2.5" ry="2.5" style="stroke:#181818;stroke-width:0.5;" width="220" x="1197" y="5"/><text fill="#000000" font-family="sans-serif" font-size="14" font-style="italic" lengthAdjust="spacing" textLength="206" x="1204" y="25.5352">&#171;fetchUnpaidExpenses.post()&#187;</text><text fill="#000000" font-family="sans-serif" font-size="14" lengthAdjust="spacing" textLength="195" x="1209.5" y="42.0234">FetchUnpaidExpensesObject</text><rect fill="#FFD700" height="30.4883" rx="2.5" ry="2.5" style="stroke:#181818;stroke-width:0.5;" width="245" x="1427" y="21.4883"/><text fill="#000000" font-family="sans-serif" font-size="14" lengthAdjust="spacing" textLength="231" x="1434" y="42.0234">UnpaidAttendanceFilterValidation</text><rect fill="#E2E2F0" height="46.9766" rx="2.5" ry="2.5" style="stroke:#181818;stroke-width:0.5;" width="331" x="1682" y="5"/><text fill="#000000" font-family="sans-serif" font-size="14" font-style="italic" lengthAdjust="spacing" textLength="317" x="1689" y="25.5352">&#171;/juror-management/unpaid-attendance.njk&#187;</text><text fill="#000000" font-family="sans-serif" font-size="14" lengthAdjust="spacing" textLength="191" x="1752" y="42.0234">UnpaidAttendanceTemplate</text><rect fill="#E6E6FA" height="46.9766" rx="2.5" ry="2.5" style="stroke:#181818;stroke-width:0.5;" width="165" x="2023" y="5"/><text fill="#000000" font-family="sans-serif" font-size="14" font-style="italic" lengthAdjust="spacing" textLength="146" x="2032.5" y="25.5352">&#171;_errors/generic.njk&#187;</text><text fill="#000000" font-family="sans-serif" font-size="14" lengthAdjust="spacing" textLength="151" x="2030" y="42.0234">GenericErrorTemplate</text><rect fill="#E2E2F0" height="30.4883" rx="2.5" ry="2.5" style="stroke:#181818;stroke-width:0.5;" width="141" x="2198" y="21.4883"/><text fill="#000000" font-family="sans-serif" font-size="14" lengthAdjust="spacing" textLength="127" x="2205" y="42.0234">BackendController</text><polygon fill="#181818" points="240.5,80.2871,250.5,84.2871,240.5,88.2871" style="stroke:#181818;stroke-width:1.0;"/><line style="stroke:#181818;stroke-width:1.0;" x1="55.5" x2="246.5" y1="84.2871" y2="84.2871"/><text fill="#000000" font-family="sans-serif" font-size="13" lengthAdjust="spacing" textLength="165" x="71.5" y="79.5449">Click "Unpaid Attendance"</text><polygon fill="#181818" points="1052,109.5977,1062,113.5977,1052,117.5977" style="stroke:#181818;stroke-width:1.0;"/><line style="stroke:#181818;stroke-width:1.0;" x1="252.5" x2="1058" y1="113.5977" y2="113.5977"/><text fill="#000000" font-family="sans-serif" font-size="13" lengthAdjust="spacing" textLength="121" x="597.75" y="108.8555">call page controller</text><polygon fill="#181818" points="1295,138.9082,1305,142.9082,1295,146.9082" style="stroke:#181818;stroke-width:1.0;"/><line style="stroke:#181818;stroke-width:1.0;" x1="1064" x2="1301" y1="142.9082" y2="142.9082"/><text fill="#000000" font-family="sans-serif" font-size="13" lengthAdjust="spacing" textLength="126" x="1122.5" y="138.166">build request object</text><polygon fill="#181818" points="2256.5,168.2188,2266.5,172.2188,2256.5,176.2188" style="stroke:#181818;stroke-width:1.0;"/><line style="stroke:#181818;stroke-width:1.0;" x1="1307" x2="2262.5" y1="172.2188" y2="172.2188"/><text fill="#000000" font-family="sans-serif" font-size="13" lengthAdjust="spacing" textLength="138" x="1718.75" y="167.4766">send backend request</text><path d="M20,187.2188 L82,187.2188 L82,194.5293 L72,204.5293 L20,204.5293 L20,187.2188 " fill="#EEEEEE" style="stroke:#000000;stroke-width:1.5;"/><rect fill="none" height="193.1738" style="stroke:#000000;stroke-width:1.5;" width="2329" x="20" y="187.2188"/><text fill="#000000" font-family="sans-serif" font-size="13" font-weight="bold" lengthAdjust="spacing" textLength="17" x="35" y="200.7871">alt</text><text fill="#000000" font-family="sans-serif" font-size="11" font-weight="bold" lengthAdjust="spacing" textLength="184" x="97" y="199.8535">[Failed to fetch unpaid expenses]</text><polygon fill="#181818" points="1318,221.8398,1308,225.8398,1318,229.8398" style="stroke:#181818;stroke-width:1.0;"/><line style="stroke:#181818;stroke-width:1.0;stroke-dasharray:2.0,2.0;" x1="1312" x2="2267.5" y1="225.8398" y2="225.8398"/><text fill="#000000" font-family="sans-serif" font-size="13" lengthAdjust="spacing" textLength="91" x="1742.25" y="221.0977">Error response</text><polygon fill="#181818" points="1075,251.1504,1065,255.1504,1075,259.1504" style="stroke:#181818;stroke-width:1.0;"/><line style="stroke:#181818;stroke-width:1.0;stroke-dasharray:2.0,2.0;" x1="1069" x2="1306" y1="255.1504" y2="255.1504"/><text fill="#000000" font-family="sans-serif" font-size="13" lengthAdjust="spacing" textLength="127" x="1122" y="250.4082">reject requestObject</text><polygon fill="#181818" points="2093.5,280.4609,2103.5,284.4609,2093.5,288.4609" style="stroke:#181818;stroke-width:1.0;"/><line style="stroke:#181818;stroke-width:1.0;" x1="1064" x2="2099.5" y1="284.4609" y2="284.4609"/><text fill="#000000" font-family="sans-serif" font-size="13" lengthAdjust="spacing" textLength="169" x="1500.25" y="279.7188">request and build template</text><polygon fill="#181818" points="1075,309.7715,1065,313.7715,1075,317.7715" style="stroke:#181818;stroke-width:1.0;"/><line style="stroke:#181818;stroke-width:1.0;" x1="1069" x2="2104.5" y1="313.7715" y2="313.7715"/><text fill="#000000" font-family="sans-serif" font-size="13" lengthAdjust="spacing" textLength="78" x="1545.75" y="309.0293">return HTML</text><polygon fill="#181818" points="875,339.082,865,343.082,875,347.082" style="stroke:#181818;stroke-width:1.0;"/><line style="stroke:#181818;stroke-width:1.0;" x1="869" x2="1063" y1="343.082" y2="343.082"/><text fill="#000000" font-family="sans-serif" font-size="13" lengthAdjust="spacing" textLength="78" x="925" y="338.3398">return HTML</text><polygon fill="#181818" points="66.5,368.3926,56.5,372.3926,66.5,376.3926" style="stroke:#181818;stroke-width:1.0;"/><line style="stroke:#181818;stroke-width:1.0;" x1="60.5" x2="863" y1="372.3926" y2="372.3926"/><text fill="#000000" font-family="sans-serif" font-size="13" lengthAdjust="spacing" textLength="108" x="405.75" y="367.6504">render error page</text><polygon fill="#181818" points="1318,404.7031,1308,408.7031,1318,412.7031" style="stroke:#181818;stroke-width:1.0;"/><line style="stroke:#181818;stroke-width:1.0;" x1="1312" x2="2267.5" y1="408.7031" y2="408.7031"/><text fill="#000000" font-family="sans-serif" font-size="13" lengthAdjust="spacing" textLength="77" x="1749.25" y="403.9609">ok response</text><polygon fill="#181818" points="1075,434.0137,1065,438.0137,1075,442.0137" style="stroke:#181818;stroke-width:1.0;"/><line style="stroke:#181818;stroke-width:1.0;" x1="1069" x2="1306" y1="438.0137" y2="438.0137"/><text fill="#000000" font-family="sans-serif" font-size="13" lengthAdjust="spacing" textLength="96" x="1137.5" y="433.2715">resolve request</text><polygon fill="#181818" points="1835.5,463.3242,1845.5,467.3242,1835.5,471.3242" style="stroke:#181818;stroke-width:1.0;"/><line style="stroke:#181818;stroke-width:1.0;" x1="1064" x2="1841.5" y1="467.3242" y2="467.3242"/><text fill="#000000" font-family="sans-serif" font-size="13" lengthAdjust="spacing" textLength="169" x="1371.25" y="462.582">request and build template</text><polygon fill="#181818" points="1075,492.6348,1065,496.6348,1075,500.6348" style="stroke:#181818;stroke-width:1.0;"/><line style="stroke:#181818;stroke-width:1.0;" x1="1069" x2="1846.5" y1="496.6348" y2="496.6348"/><text fill="#000000" font-family="sans-serif" font-size="13" lengthAdjust="spacing" textLength="78" x="1416.75" y="491.8926">return HTML</text><polygon fill="#181818" points="616.5,521.9453,606.5,525.9453,616.5,529.9453" style="stroke:#181818;stroke-width:1.0;"/><line style="stroke:#181818;stroke-width:1.0;" x1="610.5" x2="1063" y1="525.9453" y2="525.9453"/><text fill="#000000" font-family="sans-serif" font-size="13" lengthAdjust="spacing" textLength="78" x="795.75" y="521.2031">return HTML</text><polygon fill="#181818" points="66.5,551.2559,56.5,555.2559,66.5,559.2559" style="stroke:#181818;stroke-width:1.0;"/><line style="stroke:#181818;stroke-width:1.0;" x1="60.5" x2="604.5" y1="555.2559" y2="555.2559"/><text fill="#000000" font-family="sans-serif" font-size="13" lengthAdjust="spacing" textLength="80" x="290.5" y="550.5137">render HTML</text><path d="M10,570.2559 L72,570.2559 L72,577.5664 L62,587.5664 L10,587.5664 L10,570.2559 " fill="#EEEEEE" style="stroke:#000000;stroke-width:1.5;"/><rect fill="none" height="754.0742" style="stroke:#000000;stroke-width:1.5;" width="2349" x="10" y="570.2559"/><text fill="#000000" font-family="sans-serif" font-size="13" font-weight="bold" lengthAdjust="spacing" textLength="17" x="25" y="583.8242">alt</text><text fill="#000000" font-family="sans-serif" font-size="11" font-weight="bold" lengthAdjust="spacing" textLength="160" x="87" y="582.8906">[User applies filter on dates]</text><polygon fill="#181818" points="593.5,604.877,603.5,608.877,593.5,612.877" style="stroke:#181818;stroke-width:1.0;"/><line style="stroke:#181818;stroke-width:1.0;" x1="55.5" x2="599.5" y1="608.877" y2="608.877"/><text fill="#000000" font-family="sans-serif" font-size="13" lengthAdjust="spacing" textLength="248" x="206.5" y="604.1348">enter dates to filter unpaid attendances</text><polygon fill="#181818" points="1052,634.1875,1062,638.1875,1052,642.1875" style="stroke:#181818;stroke-width:1.0;"/><line style="stroke:#181818;stroke-width:1.0;" x1="605.5" x2="1058" y1="638.1875" y2="638.1875"/><text fill="#000000" font-family="sans-serif" font-size="13" lengthAdjust="spacing" textLength="121" x="774.25" y="633.4453">call page controller</text><polygon fill="#181818" points="1537.5,663.498,1547.5,667.498,1537.5,671.498" style="stroke:#181818;stroke-width:1.0;"/><line style="stroke:#181818;stroke-width:1.0;" x1="1064" x2="1543.5" y1="667.498" y2="667.498"/><text fill="#000000" font-family="sans-serif" font-size="13" lengthAdjust="spacing" textLength="95" x="1259.25" y="662.7559">validate details</text><path d="M20,682.498 L82,682.498 L82,689.8086 L72,699.8086 L20,699.8086 L20,682.498 " fill="#EEEEEE" style="stroke:#000000;stroke-width:1.5;"/><rect fill="none" height="163.8633" style="stroke:#000000;stroke-width:1.5;" width="2003" x="20" y="682.498"/><text fill="#000000" font-family="sans-serif" font-size="13" font-weight="bold" lengthAdjust="spacing" textLength="17" x="35" y="696.0664">alt</text><text fill="#000000" font-family="sans-serif" font-size="11" font-weight="bold" lengthAdjust="spacing" textLength="125" x="97" y="695.1328">[Invalid dates entered]</text><polygon fill="#181818" points="1075,717.1191,1065,721.1191,1075,725.1191" style="stroke:#181818;stroke-width:1.0;"/><line style="stroke:#181818;stroke-width:1.0;" x1="1069" x2="1548.5" y1="721.1191" y2="721.1191"/><text fill="#000000" font-family="sans-serif" font-size="13" lengthAdjust="spacing" textLength="131" x="1241.25" y="716.377">Invalid dates entered</text><polygon fill="#181818" points="1835.5,746.4297,1845.5,750.4297,1835.5,754.4297" style="stroke:#181818;stroke-width:1.0;"/><line style="stroke:#181818;stroke-width:1.0;" x1="1064" x2="1841.5" y1="750.4297" y2="750.4297"/><text fill="#000000" font-family="sans-serif" font-size="13" lengthAdjust="spacing" textLength="169" x="1371.25" y="745.6875">request and build template</text><polygon fill="#181818" points="1075,775.7402,1065,779.7402,1075,783.7402" style="stroke:#181818;stroke-width:1.0;"/><line style="stroke:#181818;stroke-width:1.0;" x1="1069" x2="1846.5" y1="779.7402" y2="779.7402"/><text fill="#000000" font-family="sans-serif" font-size="13" lengthAdjust="spacing" textLength="78" x="1416.75" y="774.998">return HTML</text><polygon fill="#181818" points="616.5,805.0508,606.5,809.0508,616.5,813.0508" style="stroke:#181818;stroke-width:1.0;"/><line style="stroke:#181818;stroke-width:1.0;" x1="610.5" x2="1063" y1="809.0508" y2="809.0508"/><text fill="#000000" font-family="sans-serif" font-size="13" lengthAdjust="spacing" textLength="112" x="778.75" y="804.3086">return error HTML</text><polygon fill="#181818" points="66.5,834.3613,56.5,838.3613,66.5,842.3613" style="stroke:#181818;stroke-width:1.0;"/><line style="stroke:#181818;stroke-width:1.0;" x1="60.5" x2="604.5" y1="838.3613" y2="838.3613"/><text fill="#000000" font-family="sans-serif" font-size="13" lengthAdjust="spacing" textLength="133" x="264" y="833.6191">render error message</text><polygon fill="#181818" points="1075,870.6719,1065,874.6719,1075,878.6719" style="stroke:#181818;stroke-width:1.0;"/><line style="stroke:#181818;stroke-width:1.0;" x1="1069" x2="1548.5" y1="874.6719" y2="874.6719"/><text fill="#000000" font-family="sans-serif" font-size="13" lengthAdjust="spacing" textLength="127" x="1243.25" y="869.9297">valid details entered</text><polygon fill="#181818" points="1295,899.9824,1305,903.9824,1295,907.9824" style="stroke:#181818;stroke-width:1.0;"/><line style="stroke:#181818;stroke-width:1.0;" x1="1064" x2="1301" y1="903.9824" y2="903.9824"/><text fill="#000000" font-family="sans-serif" font-size="13" lengthAdjust="spacing" textLength="126" x="1122.5" y="899.2402">build request object</text><polygon fill="#181818" points="2256.5,929.293,2266.5,933.293,2256.5,937.293" style="stroke:#181818;stroke-width:1.0;"/><line style="stroke:#181818;stroke-width:1.0;" x1="1307" x2="2262.5" y1="933.293" y2="933.293"/><text fill="#000000" font-family="sans-serif" font-size="13" lengthAdjust="spacing" textLength="138" x="1718.75" y="928.5508">send backend request</text><path d="M20,948.293 L82,948.293 L82,955.6035 L72,965.6035 L20,965.6035 L20,948.293 " fill="#EEEEEE" style="stroke:#000000;stroke-width:1.5;"/><rect fill="none" height="193.1738" style="stroke:#000000;stroke-width:1.5;" width="2329" x="20" y="948.293"/><text fill="#000000" font-family="sans-serif" font-size="13" font-weight="bold" lengthAdjust="spacing" textLength="17" x="35" y="961.8613">alt</text><text fill="#000000" font-family="sans-serif" font-size="11" font-weight="bold" lengthAdjust="spacing" textLength="184" x="97" y="960.9277">[Failed to fetch unpaid expenses]</text><polygon fill="#181818" points="1318,982.9141,1308,986.9141,1318,990.9141" style="stroke:#181818;stroke-width:1.0;"/><line style="stroke:#181818;stroke-width:1.0;stroke-dasharray:2.0,2.0;" x1="1312" x2="2267.5" y1="986.9141" y2="986.9141"/><text fill="#000000" font-family="sans-serif" font-size="13" lengthAdjust="spacing" textLength="91" x="1742.25" y="982.1719">Error response</text><polygon fill="#181818" points="1075,1012.2246,1065,1016.2246,1075,1020.2246" style="stroke:#181818;stroke-width:1.0;"/><line style="stroke:#181818;stroke-width:1.0;stroke-dasharray:2.0,2.0;" x1="1069" x2="1306" y1="1016.2246" y2="1016.2246"/><text fill="#000000" font-family="sans-serif" font-size="13" lengthAdjust="spacing" textLength="127" x="1122" y="1011.4824">reject requestObject</text><polygon fill="#181818" points="2093.5,1041.5352,2103.5,1045.5352,2093.5,1049.5352" style="stroke:#181818;stroke-width:1.0;"/><line style="stroke:#181818;stroke-width:1.0;" x1="1064" x2="2099.5" y1="1045.5352" y2="1045.5352"/><text fill="#000000" font-family="sans-serif" font-size="13" lengthAdjust="spacing" textLength="169" x="1500.25" y="1040.793">request and build template</text><polygon fill="#181818" points="1075,1070.8457,1065,1074.8457,1075,1078.8457" style="stroke:#181818;stroke-width:1.0;"/><line style="stroke:#181818;stroke-width:1.0;" x1="1069" x2="2104.5" y1="1074.8457" y2="1074.8457"/><text fill="#000000" font-family="sans-serif" font-size="13" lengthAdjust="spacing" textLength="78" x="1545.75" y="1070.1035">return HTML</text><polygon fill="#181818" points="875,1100.1563,865,1104.1563,875,1108.1563" style="stroke:#181818;stroke-width:1.0;"/><line style="stroke:#181818;stroke-width:1.0;" x1="869" x2="1063" y1="1104.1563" y2="1104.1563"/><text fill="#000000" font-family="sans-serif" font-size="13" lengthAdjust="spacing" textLength="78" x="925" y="1099.4141">return HTML</text><polygon fill="#181818" points="66.5,1129.4668,56.5,1133.4668,66.5,1137.4668" style="stroke:#181818;stroke-width:1.0;"/><line style="stroke:#181818;stroke-width:1.0;" x1="60.5" x2="863" y1="1133.4668" y2="1133.4668"/><text fill="#000000" font-family="sans-serif" font-size="13" lengthAdjust="spacing" textLength="108" x="405.75" y="1128.7246">render error page</text><polygon fill="#181818" points="1318,1165.7773,1308,1169.7773,1318,1173.7773" style="stroke:#181818;stroke-width:1.0;"/><line style="stroke:#181818;stroke-width:1.0;" x1="1312" x2="2267.5" y1="1169.7773" y2="1169.7773"/><text fill="#000000" font-family="sans-serif" font-size="13" lengthAdjust="spacing" textLength="77" x="1749.25" y="1165.0352">ok response</text><polygon fill="#181818" points="1075,1195.0879,1065,1199.0879,1075,1203.0879" style="stroke:#181818;stroke-width:1.0;"/><line style="stroke:#181818;stroke-width:1.0;" x1="1069" x2="1306" y1="1199.0879" y2="1199.0879"/><text fill="#000000" font-family="sans-serif" font-size="13" lengthAdjust="spacing" textLength="96" x="1137.5" y="1194.3457">resolve request</text><polygon fill="#181818" points="1835.5,1224.3984,1845.5,1228.3984,1835.5,1232.3984" style="stroke:#181818;stroke-width:1.0;"/><line style="stroke:#181818;stroke-width:1.0;" x1="1064" x2="1841.5" y1="1228.3984" y2="1228.3984"/><text fill="#000000" font-family="sans-serif" font-size="13" lengthAdjust="spacing" textLength="169" x="1371.25" y="1223.6563">request and build template</text><polygon fill="#181818" points="1075,1253.709,1065,1257.709,1075,1261.709" style="stroke:#181818;stroke-width:1.0;"/><line style="stroke:#181818;stroke-width:1.0;" x1="1069" x2="1846.5" y1="1257.709" y2="1257.709"/><text fill="#000000" font-family="sans-serif" font-size="13" lengthAdjust="spacing" textLength="78" x="1416.75" y="1252.9668">return HTML</text><polygon fill="#181818" points="616.5,1283.0195,606.5,1287.0195,616.5,1291.0195" style="stroke:#181818;stroke-width:1.0;"/><line style="stroke:#181818;stroke-width:1.0;" x1="610.5" x2="1063" y1="1287.0195" y2="1287.0195"/><text fill="#000000" font-family="sans-serif" font-size="13" lengthAdjust="spacing" textLength="78" x="795.75" y="1282.2773">return HTML</text><polygon fill="#181818" points="66.5,1312.3301,56.5,1316.3301,66.5,1320.3301" style="stroke:#181818;stroke-width:1.0;"/><line style="stroke:#181818;stroke-width:1.0;" x1="60.5" x2="604.5" y1="1316.3301" y2="1316.3301"/><text fill="#000000" font-family="sans-serif" font-size="13" lengthAdjust="spacing" textLength="80" x="290.5" y="1311.5879">render HTML</text><!--SRC=[nPHHJzim4CVVyobk1QaWDUrxXIgb8LHbRTELbDV9E0UuSUqiTjZuzboSG2ajaPWqxIMAS-UVx-x_Tnv5Yb0gALI6gUTz4uhBaZuzeC92SFzEQfwPVYwPikLMUfx9XCfPmRPmOvybWh6KLeNWVGX_bQWupj4Oze2150zgYye2fmSMdaTfLd2H4nK2RZLzwdQxC8l3O0QhU9rC5vEzf3bJ1Bek2rsO9Rt1nSLWKwtyhOjKz47zwhllPf1hBSrej8TPKu4Y3Qn5bJ8gy1N5qgrGWdfXLcWrA0qIW1V8BFhredhwALec3g2JUbPHGSU-0h5QK9vhAumNoIgUpQ8L18jBM4K_rj5D0l7uEWgJczO2GwrieQN4WgYb2_hiBThdR-7-Xig24vhqetr6AVNlFUuLMlvOmwC_EIg39hxR8BU4lJ-CzNDjxDdvHwBhvZQOJI-395wrLtub94bzowH8tL3XPA9bMYEIQBwS1KdKJaXmIxwpnxK-d8NQP2t2l8FzTEAOGUFnUYCrofu8XOqLnq7uFIAnTjhjeSUCPvIzayVpd8_17nruTGYX53o3JjqWx3hiU0U-flqj7XW2Pr92NcNoTsUVDhq4osb82MUV8tgVMw5tT60zw5oHwJ45gy5P1UhP0pQxE-TKGE5czxefqLKphMLyfdRlw2Mb8vWaYz0j19RdKg21U-Sm86kHmz1u06yI7BtdGt1_dphRTLC3cdPsLgfGHmb_9Gx0wLDz2t2gyj9-QIeVRz5NvqRgJPKxlcdRZG1Jqepg-i-keGh-kMreuRq0]--></g></svg>