<?xml version="1.0" encoding="us-ascii" standalone="no"?><svg xmlns="http://www.w3.org/2000/svg" xmlns:xlink="http://www.w3.org/1999/xlink" contentStyleType="text/css" height="2210px" preserveAspectRatio="none" style="width:2816px;height:2210px;background:#FFFFFF;" version="1.1" viewBox="0 0 2816 2210" width="2816px" zoomAndPan="magnify"><defs/><g><text fill="#000000" font-family="sans-serif" font-size="14" font-weight="bold" lengthAdjust="spacing" textLength="219" x="1300" y="28.5352">Update Room Location Details</text><rect fill="none" height="193.1738" style="stroke:#000000;stroke-width:1.5;" width="2800" x="10" y="224.707"/><rect fill="none" height="163.8633" style="stroke:#000000;stroke-width:1.5;" width="2479" x="10" y="724.9863"/><rect fill="none" height="193.1738" style="stroke:#000000;stroke-width:1.5;" width="2800" x="10" y="990.7813"/><rect fill="none" height="134.5527" style="stroke:#000000;stroke-width:1.5;" width="2479" x="10" y="1256.5762"/><rect fill="none" height="193.1738" style="stroke:#000000;stroke-width:1.5;" width="2800" x="10" y="1463.75"/><rect fill="none" height="193.1738" style="stroke:#000000;stroke-width:1.5;" width="2800" x="10" y="1817.4766"/><line style="stroke:#181818;stroke-width:0.5;stroke-dasharray:5.0,5.0;" x1="45" x2="45" y1="90.4648" y2="2203.5137"/><line style="stroke:#181818;stroke-width:0.5;stroke-dasharray:5.0,5.0;" x1="231" x2="231" y1="90.4648" y2="2203.5137"/><line style="stroke:#181818;stroke-width:0.5;stroke-dasharray:5.0,5.0;" x1="571" x2="571" y1="90.4648" y2="2203.5137"/><line style="stroke:#181818;stroke-width:0.5;stroke-dasharray:5.0,5.0;" x1="829" x2="829" y1="90.4648" y2="2203.5137"/><line style="stroke:#181818;stroke-width:0.5;stroke-dasharray:5.0,5.0;" x1="1021" x2="1021" y1="90.4648" y2="2203.5137"/><line style="stroke:#181818;stroke-width:0.5;stroke-dasharray:5.0,5.0;" x1="1234" x2="1234" y1="90.4648" y2="2203.5137"/><line style="stroke:#181818;stroke-width:0.5;stroke-dasharray:5.0,5.0;" x1="1439" x2="1439" y1="90.4648" y2="2203.5137"/><line style="stroke:#181818;stroke-width:0.5;stroke-dasharray:5.0,5.0;" x1="1662" x2="1662" y1="90.4648" y2="2203.5137"/><line style="stroke:#181818;stroke-width:0.5;stroke-dasharray:5.0,5.0;" x1="1877" x2="1877" y1="90.4648" y2="2203.5137"/><line style="stroke:#181818;stroke-width:0.5;stroke-dasharray:5.0,5.0;" x1="2091" x2="2091" y1="90.4648" y2="2203.5137"/><line style="stroke:#181818;stroke-width:0.5;stroke-dasharray:5.0,5.0;" x1="2343" x2="2343" y1="90.4648" y2="2203.5137"/><line style="stroke:#181818;stroke-width:0.5;stroke-dasharray:5.0,5.0;" x1="2569" x2="2569" y1="90.4648" y2="2203.5137"/><line style="stroke:#181818;stroke-width:0.5;stroke-dasharray:5.0,5.0;" x1="2729" x2="2729" y1="90.4648" y2="2203.5137"/><rect fill="#E2E2F0" height="30.4883" rx="2.5" ry="2.5" style="stroke:#181818;stroke-width:0.5;" width="51" x="20" y="58.9766"/><text fill="#000000" font-family="sans-serif" font-size="14" lengthAdjust="spacing" textLength="37" x="27" y="79.5117">Actor</text><rect fill="#E2E2F0" height="46.9766" rx="2.5" ry="2.5" style="stroke:#181818;stroke-width:0.5;" width="300" x="81" y="42.4883"/><text fill="#000000" font-family="sans-serif" font-size="14" font-style="italic" lengthAdjust="spacing" textLength="286" x="88" y="63.0234">&#171;/administration/room-locations/rooms&#187;</text><text fill="#000000" font-family="sans-serif" font-size="14" lengthAdjust="spacing" textLength="80" x="191" y="79.5117">RoomsPage</text><rect fill="#E2E2F0" height="46.9766" rx="2.5" ry="2.5" style="stroke:#181818;stroke-width:0.5;" width="361" x="391" y="42.4883"/><text fill="#000000" font-family="sans-serif" font-size="14" font-style="italic" lengthAdjust="spacing" textLength="347" x="398" y="63.0234">&#171;/administration/room-locations/add-edit-room&#187;</text><text fill="#000000" font-family="sans-serif" font-size="14" lengthAdjust="spacing" textLength="108" x="517.5" y="79.5117">AddRoomsPage</text><rect fill="#E2E2F0" height="46.9766" rx="2.5" ry="2.5" style="stroke:#181818;stroke-width:0.5;" width="134" x="762" y="42.4883"/><text fill="#000000" font-family="sans-serif" font-size="14" font-style="italic" lengthAdjust="spacing" textLength="56" x="801" y="63.0234">&#171;/error&#187;</text><text fill="#000000" font-family="sans-serif" font-size="14" lengthAdjust="spacing" textLength="120" x="769" y="79.5117">GenericErrorPage</text><rect fill="#FFFFE0" height="46.9766" rx="2.5" ry="2.5" style="stroke:#181818;stroke-width:0.5;" width="231" x="906" y="42.4883"/><text fill="#000000" font-family="sans-serif" font-size="14" font-style="italic" lengthAdjust="spacing" textLength="217" x="913" y="63.0234">&#171;non-sitting-days.controller.js&#187;</text><text fill="#000000" font-family="sans-serif" font-size="14" lengthAdjust="spacing" textLength="175" x="934" y="79.5117">RoomLocationsController</text><rect fill="#FFFFE0" height="46.9766" rx="2.5" ry="2.5" style="stroke:#181818;stroke-width:0.5;" width="175" x="1147" y="42.4883"/><text fill="#000000" font-family="sans-serif" font-size="14" font-style="italic" lengthAdjust="spacing" textLength="161" x="1154" y="63.0234">&#171;courtroomsDAO.get()&#187;</text><text fill="#000000" font-family="sans-serif" font-size="14" lengthAdjust="spacing" textLength="149" x="1160" y="79.5117">RoomLocationsObject</text><rect fill="#FFFFE0" height="46.9766" rx="2.5" ry="2.5" style="stroke:#181818;stroke-width:0.5;" width="214" x="1332" y="42.4883"/><text fill="#000000" font-family="sans-serif" font-size="14" font-style="italic" lengthAdjust="spacing" textLength="200" x="1339" y="63.0234">&#171;courtroomDetailsDAO.get()&#187;</text><text fill="#000000" font-family="sans-serif" font-size="14" lengthAdjust="spacing" textLength="166" x="1356" y="79.5117">CourtroomDetailsObject</text><rect fill="#FFFFE0" height="46.9766" rx="2.5" ry="2.5" style="stroke:#181818;stroke-width:0.5;" width="212" x="1556" y="42.4883"/><text fill="#000000" font-family="sans-serif" font-size="14" font-style="italic" lengthAdjust="spacing" textLength="162" x="1581" y="63.0234">&#171;courtroomsDAO.put()&#187;</text><text fill="#000000" font-family="sans-serif" font-size="14" lengthAdjust="spacing" textLength="198" x="1563" y="79.5117">UpdateRoomLocationsObject</text><rect fill="#FFD700" height="30.4883" rx="2.5" ry="2.5" style="stroke:#181818;stroke-width:0.5;" width="198" x="1778" y="58.9766"/><text fill="#000000" font-family="sans-serif" font-size="14" lengthAdjust="spacing" textLength="184" x="1785" y="79.5117">CourtroomDetailsValidator</text><rect fill="#E2E2F0" height="46.9766" rx="2.5" ry="2.5" style="stroke:#181818;stroke-width:0.5;" width="211" x="1986" y="42.4883"/><text fill="#000000" font-family="sans-serif" font-size="14" font-style="italic" lengthAdjust="spacing" textLength="197" x="1993" y="63.0234">&#171;/administration/rooms.njk&#187;</text><text fill="#000000" font-family="sans-serif" font-size="14" lengthAdjust="spacing" textLength="111" x="2036" y="79.5117">RoomsTemplate</text><rect fill="#E2E2F0" height="46.9766" rx="2.5" ry="2.5" style="stroke:#181818;stroke-width:0.5;" width="272" x="2207" y="42.4883"/><text fill="#000000" font-family="sans-serif" font-size="14" font-style="italic" lengthAdjust="spacing" textLength="258" x="2214" y="63.0234">&#171;/administration/add-edit-room.njk&#187;</text><text fill="#000000" font-family="sans-serif" font-size="14" lengthAdjust="spacing" textLength="165" x="2260.5" y="79.5117">AddEditRoomsTemplate</text><rect fill="#E6E6FA" height="46.9766" rx="2.5" ry="2.5" style="stroke:#181818;stroke-width:0.5;" width="160" x="2489" y="42.4883"/><text fill="#000000" font-family="sans-serif" font-size="14" font-style="italic" lengthAdjust="spacing" textLength="146" x="2496" y="63.0234">&#171;_errors/generic.njk&#187;</text><text fill="#000000" font-family="sans-serif" font-size="14" lengthAdjust="spacing" textLength="99" x="2519.5" y="79.5117">ErrorTemplate</text><rect fill="#E2E2F0" height="30.4883" rx="2.5" ry="2.5" style="stroke:#181818;stroke-width:0.5;" width="141" x="2659" y="58.9766"/><text fill="#000000" font-family="sans-serif" font-size="14" lengthAdjust="spacing" textLength="127" x="2666" y="79.5117">BackendController</text><polygon fill="#181818" points="219,117.7754,229,121.7754,219,125.7754" style="stroke:#181818;stroke-width:1.0;"/><line style="stroke:#181818;stroke-width:1.0;" x1="45.5" x2="225" y1="121.7754" y2="121.7754"/><text fill="#000000" font-family="sans-serif" font-size="13" lengthAdjust="spacing" textLength="123" x="76.75" y="117.0332">click edit room link</text><polygon fill="#181818" points="1009.5,147.0859,1019.5,151.0859,1009.5,155.0859" style="stroke:#181818;stroke-width:1.0;"/><line style="stroke:#181818;stroke-width:1.0;" x1="231" x2="1015.5" y1="151.0859" y2="151.0859"/><text fill="#000000" font-family="sans-serif" font-size="13" lengthAdjust="spacing" textLength="131" x="560.75" y="146.3438">call rooms controller</text><polygon fill="#181818" points="1427,176.3965,1437,180.3965,1427,184.3965" style="stroke:#181818;stroke-width:1.0;"/><line style="stroke:#181818;stroke-width:1.0;" x1="1021.5" x2="1433" y1="180.3965" y2="180.3965"/><text fill="#000000" font-family="sans-serif" font-size="13" lengthAdjust="spacing" textLength="126" x="1167.25" y="175.6543">build request object</text><polygon fill="#181818" points="2717.5,205.707,2727.5,209.707,2717.5,213.707" style="stroke:#181818;stroke-width:1.0;"/><line style="stroke:#181818;stroke-width:1.0;" x1="1439" x2="2723.5" y1="209.707" y2="209.707"/><text fill="#000000" font-family="sans-serif" font-size="13" lengthAdjust="spacing" textLength="138" x="2015.25" y="204.9648">send backend request</text><path d="M10,224.707 L72,224.707 L72,232.0176 L62,242.0176 L10,242.0176 L10,224.707 " fill="#EEEEEE" style="stroke:#000000;stroke-width:1.5;"/><rect fill="none" height="193.1738" style="stroke:#000000;stroke-width:1.5;" width="2800" x="10" y="224.707"/><text fill="#000000" font-family="sans-serif" font-size="13" font-weight="bold" lengthAdjust="spacing" textLength="17" x="25" y="238.2754">alt</text><text fill="#000000" font-family="sans-serif" font-size="11" font-weight="bold" lengthAdjust="spacing" textLength="192" x="87" y="237.3418">[Failed to fetch courtroom details]</text><polygon fill="#181818" points="1450,259.3281,1440,263.3281,1450,267.3281" style="stroke:#181818;stroke-width:1.0;"/><line style="stroke:#181818;stroke-width:1.0;stroke-dasharray:2.0,2.0;" x1="1444" x2="2728.5" y1="263.3281" y2="263.3281"/><text fill="#000000" font-family="sans-serif" font-size="13" lengthAdjust="spacing" textLength="91" x="2038.75" y="258.5859">error response</text><polygon fill="#181818" points="1032.5,288.6387,1022.5,292.6387,1032.5,296.6387" style="stroke:#181818;stroke-width:1.0;"/><line style="stroke:#181818;stroke-width:1.0;stroke-dasharray:2.0,2.0;" x1="1026.5" x2="1438" y1="292.6387" y2="292.6387"/><text fill="#000000" font-family="sans-serif" font-size="13" lengthAdjust="spacing" textLength="127" x="1166.75" y="287.8965">reject requestObject</text><polygon fill="#181818" points="2557,317.9492,2567,321.9492,2557,325.9492" style="stroke:#181818;stroke-width:1.0;"/><line style="stroke:#181818;stroke-width:1.0;" x1="1021.5" x2="2563" y1="321.9492" y2="321.9492"/><text fill="#000000" font-family="sans-serif" font-size="13" lengthAdjust="spacing" textLength="169" x="1710.75" y="317.207">request and build template</text><polygon fill="#181818" points="1032.5,347.2598,1022.5,351.2598,1032.5,355.2598" style="stroke:#181818;stroke-width:1.0;"/><line style="stroke:#181818;stroke-width:1.0;" x1="1026.5" x2="2568" y1="351.2598" y2="351.2598"/><text fill="#000000" font-family="sans-serif" font-size="13" lengthAdjust="spacing" textLength="78" x="1756.25" y="346.5176">return HTML</text><polygon fill="#181818" points="840,376.5703,830,380.5703,840,384.5703" style="stroke:#181818;stroke-width:1.0;"/><line style="stroke:#181818;stroke-width:1.0;" x1="834" x2="1020.5" y1="380.5703" y2="380.5703"/><text fill="#000000" font-family="sans-serif" font-size="13" lengthAdjust="spacing" textLength="78" x="886.25" y="375.8281">return HTML</text><polygon fill="#181818" points="56.5,405.8809,46.5,409.8809,56.5,413.8809" style="stroke:#181818;stroke-width:1.0;"/><line style="stroke:#181818;stroke-width:1.0;" x1="50.5" x2="828" y1="409.8809" y2="409.8809"/><text fill="#000000" font-family="sans-serif" font-size="13" lengthAdjust="spacing" textLength="108" x="383.25" y="405.1387">render error page</text><polygon fill="#181818" points="1450,442.1914,1440,446.1914,1450,450.1914" style="stroke:#181818;stroke-width:1.0;"/><line style="stroke:#181818;stroke-width:1.0;" x1="1444" x2="2728.5" y1="446.1914" y2="446.1914"/><text fill="#000000" font-family="sans-serif" font-size="13" lengthAdjust="spacing" textLength="77" x="2045.75" y="441.4492">ok response</text><polygon fill="#181818" points="1032.5,471.502,1022.5,475.502,1032.5,479.502" style="stroke:#181818;stroke-width:1.0;"/><line style="stroke:#181818;stroke-width:1.0;" x1="1026.5" x2="1438" y1="475.502" y2="475.502"/><text fill="#000000" font-family="sans-serif" font-size="13" lengthAdjust="spacing" textLength="96" x="1182.25" y="470.7598">resolve request</text><polygon fill="#181818" points="2331,500.8125,2341,504.8125,2331,508.8125" style="stroke:#181818;stroke-width:1.0;"/><line style="stroke:#181818;stroke-width:1.0;" x1="1021.5" x2="2337" y1="504.8125" y2="504.8125"/><text fill="#000000" font-family="sans-serif" font-size="13" lengthAdjust="spacing" textLength="169" x="1597.75" y="500.0703">request and build template</text><polygon fill="#181818" points="2331,530.123,2341,534.123,2331,538.123" style="stroke:#181818;stroke-width:1.0;"/><line style="stroke:#181818;stroke-width:1.0;" x1="1021.5" x2="2337" y1="534.123" y2="534.123"/><text fill="#000000" font-family="sans-serif" font-size="13" lengthAdjust="spacing" textLength="169" x="1597.75" y="529.3809">request and build template</text><polygon fill="#181818" points="1032.5,559.4336,1022.5,563.4336,1032.5,567.4336" style="stroke:#181818;stroke-width:1.0;"/><line style="stroke:#181818;stroke-width:1.0;" x1="1026.5" x2="2342" y1="563.4336" y2="563.4336"/><text fill="#000000" font-family="sans-serif" font-size="13" lengthAdjust="spacing" textLength="78" x="1643.25" y="558.6914">return HTML</text><polygon fill="#181818" points="582.5,588.7441,572.5,592.7441,582.5,596.7441" style="stroke:#181818;stroke-width:1.0;"/><line style="stroke:#181818;stroke-width:1.0;" x1="576.5" x2="1020.5" y1="592.7441" y2="592.7441"/><text fill="#000000" font-family="sans-serif" font-size="13" lengthAdjust="spacing" textLength="78" x="757.5" y="588.002">return HTML</text><polygon fill="#181818" points="56.5,618.0547,46.5,622.0547,56.5,626.0547" style="stroke:#181818;stroke-width:1.0;"/><line style="stroke:#181818;stroke-width:1.0;" x1="50.5" x2="570.5" y1="622.0547" y2="622.0547"/><text fill="#000000" font-family="sans-serif" font-size="13" lengthAdjust="spacing" textLength="80" x="268.5" y="617.3125">render HTML</text><polygon fill="#181818" points="559.5,647.3652,569.5,651.3652,559.5,655.3652" style="stroke:#181818;stroke-width:1.0;"/><line style="stroke:#181818;stroke-width:1.0;" x1="45.5" x2="565.5" y1="651.3652" y2="651.3652"/><text fill="#000000" font-family="sans-serif" font-size="13" lengthAdjust="spacing" textLength="163" x="227" y="646.623">edit details and click save</text><polygon fill="#181818" points="1009.5,676.6758,1019.5,680.6758,1009.5,684.6758" style="stroke:#181818;stroke-width:1.0;"/><line style="stroke:#181818;stroke-width:1.0;" x1="571.5" x2="1015.5" y1="680.6758" y2="680.6758"/><text fill="#000000" font-family="sans-serif" font-size="13" lengthAdjust="spacing" textLength="148" x="722.5" y="675.9336">POST courtroom details</text><polygon fill="#181818" points="1865,705.9863,1875,709.9863,1865,713.9863" style="stroke:#181818;stroke-width:1.0;"/><line style="stroke:#181818;stroke-width:1.0;" x1="1021.5" x2="1871" y1="709.9863" y2="709.9863"/><text fill="#000000" font-family="sans-serif" font-size="13" lengthAdjust="spacing" textLength="95" x="1401.75" y="705.2441">validate details</text><path d="M10,724.9863 L72,724.9863 L72,732.2969 L62,742.2969 L10,742.2969 L10,724.9863 " fill="#EEEEEE" style="stroke:#000000;stroke-width:1.5;"/><rect fill="none" height="163.8633" style="stroke:#000000;stroke-width:1.5;" width="2479" x="10" y="724.9863"/><text fill="#000000" font-family="sans-serif" font-size="13" font-weight="bold" lengthAdjust="spacing" textLength="17" x="25" y="738.5547">alt</text><text fill="#000000" font-family="sans-serif" font-size="11" font-weight="bold" lengthAdjust="spacing" textLength="133" x="87" y="737.6211">[invalid details entered]</text><polygon fill="#181818" points="1032.5,759.6074,1022.5,763.6074,1032.5,767.6074" style="stroke:#181818;stroke-width:1.0;"/><line style="stroke:#181818;stroke-width:1.0;" x1="1026.5" x2="1876" y1="763.6074" y2="763.6074"/><text fill="#000000" font-family="sans-serif" font-size="13" lengthAdjust="spacing" textLength="88" x="1405.25" y="758.8652">invalid details</text><polygon fill="#181818" points="2331,788.918,2341,792.918,2331,796.918" style="stroke:#181818;stroke-width:1.0;"/><line style="stroke:#181818;stroke-width:1.0;" x1="1021.5" x2="2337" y1="792.918" y2="792.918"/><text fill="#000000" font-family="sans-serif" font-size="13" lengthAdjust="spacing" textLength="169" x="1597.75" y="788.1758">request and build template</text><polygon fill="#181818" points="1032.5,818.2285,1022.5,822.2285,1032.5,826.2285" style="stroke:#181818;stroke-width:1.0;"/><line style="stroke:#181818;stroke-width:1.0;" x1="1026.5" x2="2342" y1="822.2285" y2="822.2285"/><text fill="#000000" font-family="sans-serif" font-size="13" lengthAdjust="spacing" textLength="78" x="1643.25" y="817.4863">return HTML</text><polygon fill="#181818" points="582.5,847.5391,572.5,851.5391,582.5,855.5391" style="stroke:#181818;stroke-width:1.0;"/><line style="stroke:#181818;stroke-width:1.0;" x1="576.5" x2="1020.5" y1="851.5391" y2="851.5391"/><text fill="#000000" font-family="sans-serif" font-size="13" lengthAdjust="spacing" textLength="112" x="740.5" y="846.7969">return error HTML</text><polygon fill="#181818" points="56.5,876.8496,46.5,880.8496,56.5,884.8496" style="stroke:#181818;stroke-width:1.0;"/><line style="stroke:#181818;stroke-width:1.0;" x1="50.5" x2="570.5" y1="880.8496" y2="880.8496"/><text fill="#000000" font-family="sans-serif" font-size="13" lengthAdjust="spacing" textLength="133" x="242" y="876.1074">render error message</text><polygon fill="#181818" points="1032.5,913.1602,1022.5,917.1602,1032.5,921.1602" style="stroke:#181818;stroke-width:1.0;"/><line style="stroke:#181818;stroke-width:1.0;" x1="1026.5" x2="1876" y1="917.1602" y2="917.1602"/><text fill="#000000" font-family="sans-serif" font-size="13" lengthAdjust="spacing" textLength="127" x="1385.75" y="912.418">valid details entered</text><polygon fill="#181818" points="1427,942.4707,1437,946.4707,1427,950.4707" style="stroke:#181818;stroke-width:1.0;"/><line style="stroke:#181818;stroke-width:1.0;" x1="1021.5" x2="1433" y1="946.4707" y2="946.4707"/><text fill="#000000" font-family="sans-serif" font-size="13" lengthAdjust="spacing" textLength="126" x="1167.25" y="941.7285">build request object</text><polygon fill="#181818" points="2717.5,971.7813,2727.5,975.7813,2717.5,979.7813" style="stroke:#181818;stroke-width:1.0;"/><line style="stroke:#181818;stroke-width:1.0;" x1="1439" x2="2723.5" y1="975.7813" y2="975.7813"/><text fill="#000000" font-family="sans-serif" font-size="13" lengthAdjust="spacing" textLength="138" x="2015.25" y="971.0391">send backend request</text><path d="M10,990.7813 L72,990.7813 L72,998.0918 L62,1008.0918 L10,1008.0918 L10,990.7813 " fill="#EEEEEE" style="stroke:#000000;stroke-width:1.5;"/><rect fill="none" height="193.1738" style="stroke:#000000;stroke-width:1.5;" width="2800" x="10" y="990.7813"/><text fill="#000000" font-family="sans-serif" font-size="13" font-weight="bold" lengthAdjust="spacing" textLength="17" x="25" y="1004.3496">alt</text><text fill="#000000" font-family="sans-serif" font-size="11" font-weight="bold" lengthAdjust="spacing" textLength="372" x="87" y="1003.416">[Failed to compare etags for when updating room location details]</text><polygon fill="#181818" points="1450,1025.4023,1440,1029.4023,1450,1033.4023" style="stroke:#181818;stroke-width:1.0;"/><line style="stroke:#181818;stroke-width:1.0;stroke-dasharray:2.0,2.0;" x1="1444" x2="2728.5" y1="1029.4023" y2="1029.4023"/><text fill="#000000" font-family="sans-serif" font-size="13" lengthAdjust="spacing" textLength="91" x="2038.75" y="1024.6602">error response</text><polygon fill="#181818" points="1032.5,1054.7129,1022.5,1058.7129,1032.5,1062.7129" style="stroke:#181818;stroke-width:1.0;"/><line style="stroke:#181818;stroke-width:1.0;stroke-dasharray:2.0,2.0;" x1="1026.5" x2="1438" y1="1058.7129" y2="1058.7129"/><text fill="#000000" font-family="sans-serif" font-size="13" lengthAdjust="spacing" textLength="127" x="1166.75" y="1053.9707">reject requestObject</text><polygon fill="#181818" points="2331,1084.0234,2341,1088.0234,2331,1092.0234" style="stroke:#181818;stroke-width:1.0;"/><line style="stroke:#181818;stroke-width:1.0;" x1="1021.5" x2="2337" y1="1088.0234" y2="1088.0234"/><text fill="#000000" font-family="sans-serif" font-size="13" lengthAdjust="spacing" textLength="169" x="1597.75" y="1083.2813">request and build template</text><polygon fill="#181818" points="1032.5,1113.334,1022.5,1117.334,1032.5,1121.334" style="stroke:#181818;stroke-width:1.0;"/><line style="stroke:#181818;stroke-width:1.0;" x1="1026.5" x2="2342" y1="1117.334" y2="1117.334"/><text fill="#000000" font-family="sans-serif" font-size="13" lengthAdjust="spacing" textLength="78" x="1643.25" y="1112.5918">return HTML</text><polygon fill="#181818" points="582.5,1142.6445,572.5,1146.6445,582.5,1150.6445" style="stroke:#181818;stroke-width:1.0;"/><line style="stroke:#181818;stroke-width:1.0;" x1="576.5" x2="1020.5" y1="1146.6445" y2="1146.6445"/><text fill="#000000" font-family="sans-serif" font-size="13" lengthAdjust="spacing" textLength="112" x="740.5" y="1141.9023">return error HTML</text><polygon fill="#181818" points="56.5,1171.9551,46.5,1175.9551,56.5,1179.9551" style="stroke:#181818;stroke-width:1.0;"/><line style="stroke:#181818;stroke-width:1.0;" x1="50.5" x2="570.5" y1="1175.9551" y2="1175.9551"/><text fill="#000000" font-family="sans-serif" font-size="13" lengthAdjust="spacing" textLength="133" x="242" y="1171.2129">render error message</text><polygon fill="#181818" points="1450,1208.2656,1440,1212.2656,1450,1216.2656" style="stroke:#181818;stroke-width:1.0;"/><line style="stroke:#181818;stroke-width:1.0;" x1="1444" x2="2728.5" y1="1212.2656" y2="1212.2656"/><text fill="#000000" font-family="sans-serif" font-size="13" lengthAdjust="spacing" textLength="77" x="2045.75" y="1207.5234">ok response</text><polygon fill="#181818" points="1032.5,1237.5762,1022.5,1241.5762,1032.5,1245.5762" style="stroke:#181818;stroke-width:1.0;"/><line style="stroke:#181818;stroke-width:1.0;" x1="1026.5" x2="1438" y1="1241.5762" y2="1241.5762"/><text fill="#000000" font-family="sans-serif" font-size="13" lengthAdjust="spacing" textLength="96" x="1182.25" y="1236.834">resolve request</text><path d="M10,1256.5762 L72,1256.5762 L72,1263.8867 L62,1273.8867 L10,1273.8867 L10,1256.5762 " fill="#EEEEEE" style="stroke:#000000;stroke-width:1.5;"/><rect fill="none" height="134.5527" style="stroke:#000000;stroke-width:1.5;" width="2479" x="10" y="1256.5762"/><text fill="#000000" font-family="sans-serif" font-size="13" font-weight="bold" lengthAdjust="spacing" textLength="17" x="25" y="1270.1445">alt</text><text fill="#000000" font-family="sans-serif" font-size="11" font-weight="bold" lengthAdjust="spacing" textLength="334" x="87" y="1269.2109">[Room location details have been updated by another usert]</text><polygon fill="#181818" points="2331,1291.1973,2341,1295.1973,2331,1299.1973" style="stroke:#181818;stroke-width:1.0;"/><line style="stroke:#181818;stroke-width:1.0;" x1="1021.5" x2="2337" y1="1295.1973" y2="1295.1973"/><text fill="#000000" font-family="sans-serif" font-size="13" lengthAdjust="spacing" textLength="169" x="1597.75" y="1290.4551">request and build template</text><polygon fill="#181818" points="1032.5,1320.5078,1022.5,1324.5078,1032.5,1328.5078" style="stroke:#181818;stroke-width:1.0;"/><line style="stroke:#181818;stroke-width:1.0;" x1="1026.5" x2="2342" y1="1324.5078" y2="1324.5078"/><text fill="#000000" font-family="sans-serif" font-size="13" lengthAdjust="spacing" textLength="78" x="1643.25" y="1319.7656">return HTML</text><polygon fill="#181818" points="582.5,1349.8184,572.5,1353.8184,582.5,1357.8184" style="stroke:#181818;stroke-width:1.0;"/><line style="stroke:#181818;stroke-width:1.0;" x1="576.5" x2="1020.5" y1="1353.8184" y2="1353.8184"/><text fill="#000000" font-family="sans-serif" font-size="13" lengthAdjust="spacing" textLength="112" x="740.5" y="1349.0762">return error HTML</text><polygon fill="#181818" points="56.5,1379.1289,46.5,1383.1289,56.5,1387.1289" style="stroke:#181818;stroke-width:1.0;"/><line style="stroke:#181818;stroke-width:1.0;" x1="50.5" x2="570.5" y1="1383.1289" y2="1383.1289"/><text fill="#000000" font-family="sans-serif" font-size="13" lengthAdjust="spacing" textLength="133" x="242" y="1378.3867">render error message</text><polygon fill="#181818" points="1650,1415.4395,1660,1419.4395,1650,1423.4395" style="stroke:#181818;stroke-width:1.0;"/><line style="stroke:#181818;stroke-width:1.0;" x1="1021.5" x2="1656" y1="1419.4395" y2="1419.4395"/><text fill="#000000" font-family="sans-serif" font-size="13" lengthAdjust="spacing" textLength="126" x="1278.75" y="1414.6973">build request object</text><polygon fill="#181818" points="2717.5,1444.75,2727.5,1448.75,2717.5,1452.75" style="stroke:#181818;stroke-width:1.0;"/><line style="stroke:#181818;stroke-width:1.0;" x1="1662" x2="2723.5" y1="1448.75" y2="1448.75"/><text fill="#000000" font-family="sans-serif" font-size="13" lengthAdjust="spacing" textLength="138" x="2126.75" y="1444.0078">send backend request</text><path d="M10,1463.75 L72,1463.75 L72,1471.0605 L62,1481.0605 L10,1481.0605 L10,1463.75 " fill="#EEEEEE" style="stroke:#000000;stroke-width:1.5;"/><rect fill="none" height="193.1738" style="stroke:#000000;stroke-width:1.5;" width="2800" x="10" y="1463.75"/><text fill="#000000" font-family="sans-serif" font-size="13" font-weight="bold" lengthAdjust="spacing" textLength="17" x="25" y="1477.3184">alt</text><text fill="#000000" font-family="sans-serif" font-size="11" font-weight="bold" lengthAdjust="spacing" textLength="201" x="87" y="1476.3848">[Failed to update courtroom details]</text><polygon fill="#181818" points="1673,1498.3711,1663,1502.3711,1673,1506.3711" style="stroke:#181818;stroke-width:1.0;"/><line style="stroke:#181818;stroke-width:1.0;stroke-dasharray:2.0,2.0;" x1="1667" x2="2728.5" y1="1502.3711" y2="1502.3711"/><text fill="#000000" font-family="sans-serif" font-size="13" lengthAdjust="spacing" textLength="91" x="2150.25" y="1497.6289">error response</text><polygon fill="#181818" points="1032.5,1527.6816,1022.5,1531.6816,1032.5,1535.6816" style="stroke:#181818;stroke-width:1.0;"/><line style="stroke:#181818;stroke-width:1.0;stroke-dasharray:2.0,2.0;" x1="1026.5" x2="1661" y1="1531.6816" y2="1531.6816"/><text fill="#000000" font-family="sans-serif" font-size="13" lengthAdjust="spacing" textLength="127" x="1278.25" y="1526.9395">reject requestObject</text><polygon fill="#181818" points="2331,1556.9922,2341,1560.9922,2331,1564.9922" style="stroke:#181818;stroke-width:1.0;"/><line style="stroke:#181818;stroke-width:1.0;" x1="1021.5" x2="2337" y1="1560.9922" y2="1560.9922"/><text fill="#000000" font-family="sans-serif" font-size="13" lengthAdjust="spacing" textLength="169" x="1597.75" y="1556.25">request and build template</text><polygon fill="#181818" points="1032.5,1586.3027,1022.5,1590.3027,1032.5,1594.3027" style="stroke:#181818;stroke-width:1.0;"/><line style="stroke:#181818;stroke-width:1.0;" x1="1026.5" x2="2342" y1="1590.3027" y2="1590.3027"/><text fill="#000000" font-family="sans-serif" font-size="13" lengthAdjust="spacing" textLength="78" x="1643.25" y="1585.5605">return HTML</text><polygon fill="#181818" points="582.5,1615.6133,572.5,1619.6133,582.5,1623.6133" style="stroke:#181818;stroke-width:1.0;"/><line style="stroke:#181818;stroke-width:1.0;" x1="576.5" x2="1020.5" y1="1619.6133" y2="1619.6133"/><text fill="#000000" font-family="sans-serif" font-size="13" lengthAdjust="spacing" textLength="112" x="740.5" y="1614.8711">return error HTML</text><polygon fill="#181818" points="56.5,1644.9238,46.5,1648.9238,56.5,1652.9238" style="stroke:#181818;stroke-width:1.0;"/><line style="stroke:#181818;stroke-width:1.0;" x1="50.5" x2="570.5" y1="1648.9238" y2="1648.9238"/><text fill="#000000" font-family="sans-serif" font-size="13" lengthAdjust="spacing" textLength="133" x="242" y="1644.1816">render error message</text><polygon fill="#181818" points="1673,1681.2344,1663,1685.2344,1673,1689.2344" style="stroke:#181818;stroke-width:1.0;"/><line style="stroke:#181818;stroke-width:1.0;" x1="1667" x2="2728.5" y1="1685.2344" y2="1685.2344"/><text fill="#000000" font-family="sans-serif" font-size="13" lengthAdjust="spacing" textLength="77" x="2157.25" y="1680.4922">ok response</text><polygon fill="#181818" points="1032.5,1710.5449,1022.5,1714.5449,1032.5,1718.5449" style="stroke:#181818;stroke-width:1.0;"/><line style="stroke:#181818;stroke-width:1.0;" x1="1026.5" x2="1661" y1="1714.5449" y2="1714.5449"/><text fill="#000000" font-family="sans-serif" font-size="13" lengthAdjust="spacing" textLength="96" x="1293.75" y="1709.8027">resolve request</text><polygon fill="#181818" points="1009.5,1739.8555,1019.5,1743.8555,1009.5,1747.8555" style="stroke:#181818;stroke-width:1.0;"/><line style="stroke:#181818;stroke-width:1.0;" x1="231" x2="1015.5" y1="1743.8555" y2="1743.8555"/><text fill="#000000" font-family="sans-serif" font-size="13" lengthAdjust="spacing" textLength="131" x="560.75" y="1739.1133">call rooms controller</text><polygon fill="#181818" points="1222.5,1769.166,1232.5,1773.166,1222.5,1777.166" style="stroke:#181818;stroke-width:1.0;"/><line style="stroke:#181818;stroke-width:1.0;" x1="1021.5" x2="1228.5" y1="1773.166" y2="1773.166"/><text fill="#000000" font-family="sans-serif" font-size="13" lengthAdjust="spacing" textLength="126" x="1065" y="1768.4238">build request object</text><polygon fill="#181818" points="2717.5,1798.4766,2727.5,1802.4766,2717.5,1806.4766" style="stroke:#181818;stroke-width:1.0;"/><line style="stroke:#181818;stroke-width:1.0;" x1="1234.5" x2="2723.5" y1="1802.4766" y2="1802.4766"/><text fill="#000000" font-family="sans-serif" font-size="13" lengthAdjust="spacing" textLength="138" x="1913" y="1797.7344">send backend request</text><path d="M10,1817.4766 L72,1817.4766 L72,1824.7871 L62,1834.7871 L10,1834.7871 L10,1817.4766 " fill="#EEEEEE" style="stroke:#000000;stroke-width:1.5;"/><rect fill="none" height="193.1738" style="stroke:#000000;stroke-width:1.5;" width="2800" x="10" y="1817.4766"/><text fill="#000000" font-family="sans-serif" font-size="13" font-weight="bold" lengthAdjust="spacing" textLength="17" x="25" y="1831.0449">alt</text><text fill="#000000" font-family="sans-serif" font-size="11" font-weight="bold" lengthAdjust="spacing" textLength="152" x="87" y="1830.1113">[Failed to fetch courtooms]</text><polygon fill="#181818" points="1245.5,1852.0977,1235.5,1856.0977,1245.5,1860.0977" style="stroke:#181818;stroke-width:1.0;"/><line style="stroke:#181818;stroke-width:1.0;stroke-dasharray:2.0,2.0;" x1="1239.5" x2="2728.5" y1="1856.0977" y2="1856.0977"/><text fill="#000000" font-family="sans-serif" font-size="13" lengthAdjust="spacing" textLength="91" x="1936.5" y="1851.3555">error response</text><polygon fill="#181818" points="1032.5,1881.4082,1022.5,1885.4082,1032.5,1889.4082" style="stroke:#181818;stroke-width:1.0;"/><line style="stroke:#181818;stroke-width:1.0;stroke-dasharray:2.0,2.0;" x1="1026.5" x2="1233.5" y1="1885.4082" y2="1885.4082"/><text fill="#000000" font-family="sans-serif" font-size="13" lengthAdjust="spacing" textLength="127" x="1064.5" y="1880.666">reject requestObject</text><polygon fill="#181818" points="2557,1910.7188,2567,1914.7188,2557,1918.7188" style="stroke:#181818;stroke-width:1.0;"/><line style="stroke:#181818;stroke-width:1.0;" x1="1021.5" x2="2563" y1="1914.7188" y2="1914.7188"/><text fill="#000000" font-family="sans-serif" font-size="13" lengthAdjust="spacing" textLength="169" x="1710.75" y="1909.9766">request and build template</text><polygon fill="#181818" points="1032.5,1940.0293,1022.5,1944.0293,1032.5,1948.0293" style="stroke:#181818;stroke-width:1.0;"/><line style="stroke:#181818;stroke-width:1.0;" x1="1026.5" x2="2568" y1="1944.0293" y2="1944.0293"/><text fill="#000000" font-family="sans-serif" font-size="13" lengthAdjust="spacing" textLength="78" x="1756.25" y="1939.2871">return HTML</text><polygon fill="#181818" points="840,1969.3398,830,1973.3398,840,1977.3398" style="stroke:#181818;stroke-width:1.0;"/><line style="stroke:#181818;stroke-width:1.0;" x1="834" x2="1020.5" y1="1973.3398" y2="1973.3398"/><text fill="#000000" font-family="sans-serif" font-size="13" lengthAdjust="spacing" textLength="78" x="886.25" y="1968.5977">return HTML</text><polygon fill="#181818" points="56.5,1998.6504,46.5,2002.6504,56.5,2006.6504" style="stroke:#181818;stroke-width:1.0;"/><line style="stroke:#181818;stroke-width:1.0;" x1="50.5" x2="828" y1="2002.6504" y2="2002.6504"/><text fill="#000000" font-family="sans-serif" font-size="13" lengthAdjust="spacing" textLength="108" x="383.25" y="1997.9082">render error page</text><polygon fill="#181818" points="1245.5,2034.9609,1235.5,2038.9609,1245.5,2042.9609" style="stroke:#181818;stroke-width:1.0;"/><line style="stroke:#181818;stroke-width:1.0;" x1="1239.5" x2="2728.5" y1="2038.9609" y2="2038.9609"/><text fill="#000000" font-family="sans-serif" font-size="13" lengthAdjust="spacing" textLength="77" x="1943.5" y="2034.2188">ok response</text><polygon fill="#181818" points="1032.5,2064.2715,1022.5,2068.2715,1032.5,2072.2715" style="stroke:#181818;stroke-width:1.0;"/><line style="stroke:#181818;stroke-width:1.0;" x1="1026.5" x2="1233.5" y1="2068.2715" y2="2068.2715"/><text fill="#000000" font-family="sans-serif" font-size="13" lengthAdjust="spacing" textLength="96" x="1080" y="2063.5293">resolve request</text><polygon fill="#181818" points="2079.5,2093.582,2089.5,2097.582,2079.5,2101.582" style="stroke:#181818;stroke-width:1.0;"/><line style="stroke:#181818;stroke-width:1.0;" x1="1021.5" x2="2085.5" y1="2097.582" y2="2097.582"/><text fill="#000000" font-family="sans-serif" font-size="13" lengthAdjust="spacing" textLength="169" x="1472" y="2092.8398">request and build template</text><polygon fill="#181818" points="1032.5,2122.8926,1022.5,2126.8926,1032.5,2130.8926" style="stroke:#181818;stroke-width:1.0;"/><line style="stroke:#181818;stroke-width:1.0;" x1="1026.5" x2="2090.5" y1="2126.8926" y2="2126.8926"/><text fill="#000000" font-family="sans-serif" font-size="13" lengthAdjust="spacing" textLength="78" x="1517.5" y="2122.1504">return HTML</text><polygon fill="#181818" points="242,2152.2031,232,2156.2031,242,2160.2031" style="stroke:#181818;stroke-width:1.0;"/><line style="stroke:#181818;stroke-width:1.0;" x1="236" x2="1020.5" y1="2156.2031" y2="2156.2031"/><text fill="#000000" font-family="sans-serif" font-size="13" lengthAdjust="spacing" textLength="78" x="587.25" y="2151.4609">return HTML</text><polygon fill="#181818" points="56.5,2181.5137,46.5,2185.5137,56.5,2189.5137" style="stroke:#181818;stroke-width:1.0;"/><line style="stroke:#181818;stroke-width:1.0;" x1="50.5" x2="230" y1="2185.5137" y2="2185.5137"/><text fill="#000000" font-family="sans-serif" font-size="13" lengthAdjust="spacing" textLength="80" x="98.25" y="2180.7715">render HTML</text><!--SRC=[rLTHJzim47xthxXfanWIAUzeGWebCBP0M1lsEgNEhJLrxSvscFZtkpXfIsWTc63JreUgjU- -ytVttJcPYHAXKbAeEPQCiJT2SLdHsXGL6i6ZYTHyRWTBMIXNBIHZTYxKiZ350iRkNY9OHsRr5ZpSmXyLAewNQ6qnnLYAgLgWSi3f2mrZJZZolLcMXKCOQRs0LFF22QtW55qXf6MCe9pWOacH8UPEazlUtXwasJ1EOPJTv1TNvnsZ6iTUKppuyE6mA1T22JgTHpqqj1V9DeRrV-tnSJT6MVu6Gb6M4PR2HVNw8wJp9dc9CTgiqB3-GtQUmp2xoaTPcYOZYAzEOPHykKd6EMGddv9XFjuYjSgD7MhbZ9OI3K4ghI8hd1Dg6fN5lHtmzUxWbiZ1MqhxpDsZbFfd63ERt29tXCTrPPnFp6cS3QRetk_tWGnNvct1jd7QZMUXDL9upi6MrHDGRHsVnD5s1v0lpzb5cYUZiQ_DrpYzE8tpR3JkPV-ra88OQ0DlpxKi6vmykRnEuppPhgZDSK4zvK92imDrEz_MPqA2Uygz8ymTC5wL3_o_UMNQmxRZ6mzAId67giIswKxYuUU4ih4HRWVpfE1pijx8ap7ViH0TRxho2BWKV0xruQ0-7DHZXsrwhZNUfNRoBQJqNXRuWp0X1y8A2FG89fMG9PXwHba7sY-pW3NXR94Z24iBC6asLaYC5TB16JbZ2Kx3TtHy1clHGTaEDg1Fg7cYQ6SuNoAAOvV44Zr2S2uGH92vGV-ZFN2pxD7U6L_inuFhVI3AGLT5-uoy6GkIsib9ppU4mcJwk5Wjxt2J_Hufx6oTexK4YhgONXIktNnbj1v-GJ1N6GKVyykKTI-cgAT9Ebw-0Pi86_VQfgvqOxFfqeT6HqsBjdhrV9hEjJGJkgVfRTdhZEwqRVspTtVDiCGBLG_peCQ2C_PWPzOEEYJs_-dPmFM2vYS2uKqjVASQ_9oXWgg-1Ua-RyVZwf7eFvWSVXvawaoRHRYWpwdQlp19wbgDTbK0PjG1CC5LgQYOatjg4Erc5AEoQFvWKdha77vw2YWwxF02KJSf2TnuFGzuhoFTlXpyNVNsKNs9WFiPFjBmwatELXFelhgiN-RUDEJNVU4vi5y0]--></g></svg>