<?xml version="1.0" encoding="us-ascii" standalone="no"?><svg xmlns="http://www.w3.org/2000/svg" xmlns:xlink="http://www.w3.org/1999/xlink" contentStyleType="text/css" height="2026px" preserveAspectRatio="none" style="width:2388px;height:2026px;background:#FFFFFF;" version="1.1" viewBox="0 0 2388 2026" width="2388px" zoomAndPan="magnify"><defs/><g><rect fill="none" height="46.6211" style="stroke:#000000;stroke-width:1.5;" width="346" x="475" y="157.9082"/><rect fill="none" height="193.1738" style="stroke:#000000;stroke-width:1.5;" width="2372.5" x="10" y="365.082"/><rect fill="none" height="163.8633" style="stroke:#000000;stroke-width:1.5;" width="2221.5" x="10" y="777.4297"/><rect fill="none" height="193.1738" style="stroke:#000000;stroke-width:1.5;" width="2372.5" x="10" y="1101.8457"/><rect fill="none" height="134.5527" style="stroke:#000000;stroke-width:1.5;" width="1867.5" x="10" y="1309.0195"/><rect fill="none" height="193.1738" style="stroke:#000000;stroke-width:1.5;" width="2372.5" x="10" y="1574.8145"/><line style="stroke:#181818;stroke-width:0.5;stroke-dasharray:5.0,5.0;" x1="45" x2="45" y1="52.9766" y2="2019.4727"/><line style="stroke:#181818;stroke-width:0.5;stroke-dasharray:5.0,5.0;" x1="352" x2="352" y1="52.9766" y2="2019.4727"/><line style="stroke:#181818;stroke-width:0.5;stroke-dasharray:5.0,5.0;" x1="552" x2="552" y1="52.9766" y2="2019.4727"/><line style="stroke:#181818;stroke-width:0.5;stroke-dasharray:5.0,5.0;" x1="720" x2="720" y1="52.9766" y2="2019.4727"/><line style="stroke:#181818;stroke-width:0.5;stroke-dasharray:5.0,5.0;" x1="929" x2="929" y1="52.9766" y2="2019.4727"/><line style="stroke:#181818;stroke-width:0.5;stroke-dasharray:5.0,5.0;" x1="1189.5" x2="1189.5" y1="52.9766" y2="2019.4727"/><line style="stroke:#181818;stroke-width:0.5;stroke-dasharray:5.0,5.0;" x1="1461.5" x2="1461.5" y1="52.9766" y2="2019.4727"/><line style="stroke:#181818;stroke-width:0.5;stroke-dasharray:5.0,5.0;" x1="1735.5" x2="1735.5" y1="52.9766" y2="2019.4727"/><line style="stroke:#181818;stroke-width:0.5;stroke-dasharray:5.0,5.0;" x1="1957.5" x2="1957.5" y1="52.9766" y2="2019.4727"/><line style="stroke:#181818;stroke-width:0.5;stroke-dasharray:5.0,5.0;" x1="2134.5" x2="2134.5" y1="52.9766" y2="2019.4727"/><line style="stroke:#181818;stroke-width:0.5;stroke-dasharray:5.0,5.0;" x1="2301.5" x2="2301.5" y1="52.9766" y2="2019.4727"/><rect fill="#E2E2F0" height="30.4883" rx="2.5" ry="2.5" style="stroke:#181818;stroke-width:0.5;" width="51" x="20" y="21.4883"/><text fill="#000000" font-family="sans-serif" font-size="14" lengthAdjust="spacing" textLength="37" x="27" y="42.0234">Actor</text><rect fill="#ADD8E6" height="46.9766" rx="2.5" ry="2.5" style="stroke:#181818;stroke-width:0.5;" width="245" x="230" y="5"/><text fill="#000000" font-family="sans-serif" font-size="14" font-style="italic" lengthAdjust="spacing" textLength="231" x="237" y="25.5352">&#171;/administration/expense-limits&#187;</text><text fill="#000000" font-family="sans-serif" font-size="14" lengthAdjust="spacing" textLength="131" x="287" y="42.0234">ExpenseLimitsPage</text><rect fill="#ADD8E6" height="46.9766" rx="2.5" ry="2.5" style="stroke:#181818;stroke-width:0.5;" width="134" x="485" y="5"/><text fill="#000000" font-family="sans-serif" font-size="14" font-style="italic" lengthAdjust="spacing" textLength="56" x="524" y="25.5352">&#171;/error&#187;</text><text fill="#000000" font-family="sans-serif" font-size="14" lengthAdjust="spacing" textLength="120" x="492" y="42.0234">GenericErrorPage</text><rect fill="#FFA07A" height="46.9766" rx="2.5" ry="2.5" style="stroke:#181818;stroke-width:0.5;" width="182" x="629" y="5"/><text fill="#000000" font-family="sans-serif" font-size="14" font-style="italic" lengthAdjust="spacing" textLength="168" x="636" y="25.5352">&#171;isSystemAdministrator&#187;</text><text fill="#000000" font-family="sans-serif" font-size="14" lengthAdjust="spacing" textLength="154" x="643" y="42.0234">IsSystemAdministrator</text><rect fill="#FFFFE0" height="46.9766" rx="2.5" ry="2.5" style="stroke:#181818;stroke-width:0.5;" width="217" x="821" y="5"/><text fill="#000000" font-family="sans-serif" font-size="14" font-style="italic" lengthAdjust="spacing" textLength="203" x="828" y="25.5352">&#171;expense-limits.controller.js&#187;</text><text fill="#000000" font-family="sans-serif" font-size="14" lengthAdjust="spacing" textLength="168" x="845.5" y="42.0234">ExpenseLimitsController</text><rect fill="#98FB98" height="46.9766" rx="2.5" ry="2.5" style="stroke:#181818;stroke-width:0.5;" width="258" x="1060.5" y="5"/><text fill="#000000" font-family="sans-serif" font-size="14" font-style="italic" lengthAdjust="spacing" textLength="244" x="1067.5" y="25.5352">&#171;expenseRatesAndLimitsDAO.get()&#187;</text><text fill="#000000" font-family="sans-serif" font-size="14" lengthAdjust="spacing" textLength="179" x="1100" y="42.0234">FetchExpenseLimitsObject</text><rect fill="#98FB98" height="46.9766" rx="2.5" ry="2.5" style="stroke:#181818;stroke-width:0.5;" width="266" x="1328.5" y="5"/><text fill="#000000" font-family="sans-serif" font-size="14" font-style="italic" lengthAdjust="spacing" textLength="252" x="1335.5" y="25.5352">&#171;expenseRatesAndLimitsDAO.post()&#187;</text><text fill="#000000" font-family="sans-serif" font-size="14" lengthAdjust="spacing" textLength="163" x="1380" y="42.0234">SetExpenseLimitsObject</text><rect fill="#D8BFD8" height="46.9766" rx="2.5" ry="2.5" style="stroke:#181818;stroke-width:0.5;" width="263" x="1604.5" y="5"/><text fill="#000000" font-family="sans-serif" font-size="14" font-style="italic" lengthAdjust="spacing" textLength="249" x="1611.5" y="25.5352">&#171;administration/expense-limits.njk&#187;</text><text fill="#000000" font-family="sans-serif" font-size="14" lengthAdjust="spacing" textLength="162" x="1655" y="42.0234">ExpenseLimitsTemplate</text><rect fill="#D8BFD8" height="46.9766" rx="2.5" ry="2.5" style="stroke:#181818;stroke-width:0.5;" width="160" x="1877.5" y="5"/><text fill="#000000" font-family="sans-serif" font-size="14" font-style="italic" lengthAdjust="spacing" textLength="146" x="1884.5" y="25.5352">&#171;_errors/generic.njk&#187;</text><text fill="#000000" font-family="sans-serif" font-size="14" lengthAdjust="spacing" textLength="99" x="1908" y="42.0234">ErrorTemplate</text><rect fill="#FFD700" height="30.4883" rx="2.5" ry="2.5" style="stroke:#181818;stroke-width:0.5;" width="174" x="2047.5" y="21.4883"/><text fill="#000000" font-family="sans-serif" font-size="14" lengthAdjust="spacing" textLength="160" x="2054.5" y="42.0234">ExpenseLimitsValidator</text><rect fill="#F08080" height="30.4883" rx="2.5" ry="2.5" style="stroke:#181818;stroke-width:0.5;" width="141" x="2231.5" y="21.4883"/><text fill="#000000" font-family="sans-serif" font-size="14" lengthAdjust="spacing" textLength="127" x="2238.5" y="42.0234">BackendController</text><polygon fill="#181818" points="340.5,80.2871,350.5,84.2871,340.5,88.2871" style="stroke:#181818;stroke-width:1.0;"/><line style="stroke:#181818;stroke-width:1.0;" x1="45.5" x2="346.5" y1="84.2871" y2="84.2871"/><text fill="#000000" font-family="sans-serif" font-size="13" lengthAdjust="spacing" textLength="212" x="93" y="79.5449">click expense rates and limits tab</text><polygon fill="#181818" points="708,109.5977,718,113.5977,708,117.5977" style="stroke:#181818;stroke-width:1.0;"/><line style="stroke:#181818;stroke-width:1.0;" x1="352.5" x2="714" y1="113.5977" y2="113.5977"/><text fill="#000000" font-family="sans-serif" font-size="13" lengthAdjust="spacing" textLength="234" x="419.25" y="108.8555">check if user is system administrator</text><polygon fill="#181818" points="363.5,138.9082,353.5,142.9082,363.5,146.9082" style="stroke:#181818;stroke-width:1.0;"/><line style="stroke:#181818;stroke-width:1.0;" x1="357.5" x2="719" y1="142.9082" y2="142.9082"/><text fill="#000000" font-family="sans-serif" font-size="13" lengthAdjust="spacing" textLength="67" x="502.75" y="138.166">return true</text><path d="M475,157.9082 L537,157.9082 L537,165.2188 L527,175.2188 L475,175.2188 L475,157.9082 " fill="#EEEEEE" style="stroke:#000000;stroke-width:1.5;"/><rect fill="none" height="46.6211" style="stroke:#000000;stroke-width:1.5;" width="346" x="475" y="157.9082"/><text fill="#000000" font-family="sans-serif" font-size="13" font-weight="bold" lengthAdjust="spacing" textLength="17" x="490" y="171.4766">alt</text><text fill="#000000" font-family="sans-serif" font-size="11" font-weight="bold" lengthAdjust="spacing" textLength="160" x="552" y="170.543">[Not a System administrator]</text><polygon fill="#181818" points="563,192.5293,553,196.5293,563,200.5293" style="stroke:#181818;stroke-width:1.0;"/><line style="stroke:#181818;stroke-width:1.0;" x1="557" x2="719" y1="196.5293" y2="196.5293"/><text fill="#000000" font-family="sans-serif" font-size="13" lengthAdjust="spacing" textLength="133" x="569.5" y="191.7871">redirect to error page</text><polygon fill="#181818" points="917.5,228.8398,927.5,232.8398,917.5,236.8398" style="stroke:#181818;stroke-width:1.0;"/><line style="stroke:#181818;stroke-width:1.0;" x1="352.5" x2="923.5" y1="232.8398" y2="232.8398"/><text fill="#000000" font-family="sans-serif" font-size="13" lengthAdjust="spacing" textLength="183" x="549.5" y="228.0977">call expense limits controller</text><polygon fill="#181818" points="1177.5,258.1504,1187.5,262.1504,1177.5,266.1504" style="stroke:#181818;stroke-width:1.0;"/><line style="stroke:#181818;stroke-width:1.0;" x1="929.5" x2="1183.5" y1="262.1504" y2="262.1504"/><text fill="#000000" font-family="sans-serif" font-size="13" lengthAdjust="spacing" textLength="126" x="996.5" y="257.4082">build request object</text><polygon fill="#181818" points="2290,287.4609,2300,291.4609,2290,295.4609" style="stroke:#181818;stroke-width:1.0;"/><line style="stroke:#181818;stroke-width:1.0;" x1="1189.5" x2="2296" y1="291.4609" y2="291.4609"/><text fill="#000000" font-family="sans-serif" font-size="13" lengthAdjust="spacing" textLength="138" x="1676.75" y="286.7188">send backend request</text><polygon fill="#181818" points="1200.5,316.7715,1190.5,320.7715,1200.5,324.7715" style="stroke:#181818;stroke-width:1.0;"/><line style="stroke:#181818;stroke-width:1.0;" x1="1194.5" x2="2301" y1="320.7715" y2="320.7715"/><text fill="#000000" font-family="sans-serif" font-size="13" lengthAdjust="spacing" textLength="77" x="1707.25" y="316.0293">ok response</text><polygon fill="#181818" points="940.5,346.082,930.5,350.082,940.5,354.082" style="stroke:#181818;stroke-width:1.0;"/><line style="stroke:#181818;stroke-width:1.0;" x1="934.5" x2="1188.5" y1="350.082" y2="350.082"/><text fill="#000000" font-family="sans-serif" font-size="13" lengthAdjust="spacing" textLength="96" x="1011.5" y="345.3398">resolve request</text><path d="M10,365.082 L72,365.082 L72,372.3926 L62,382.3926 L10,382.3926 L10,365.082 " fill="#EEEEEE" style="stroke:#000000;stroke-width:1.5;"/><rect fill="none" height="193.1738" style="stroke:#000000;stroke-width:1.5;" width="2372.5" x="10" y="365.082"/><text fill="#000000" font-family="sans-serif" font-size="13" font-weight="bold" lengthAdjust="spacing" textLength="17" x="25" y="378.6504">alt</text><text fill="#000000" font-family="sans-serif" font-size="11" font-weight="bold" lengthAdjust="spacing" textLength="228" x="87" y="377.7168">[Failed to fetch expense rates and limits]</text><polygon fill="#181818" points="1200.5,399.7031,1190.5,403.7031,1200.5,407.7031" style="stroke:#181818;stroke-width:1.0;"/><line style="stroke:#181818;stroke-width:1.0;stroke-dasharray:2.0,2.0;" x1="1194.5" x2="2301" y1="403.7031" y2="403.7031"/><text fill="#000000" font-family="sans-serif" font-size="13" lengthAdjust="spacing" textLength="91" x="1700.25" y="398.9609">error response</text><polygon fill="#181818" points="940.5,429.0137,930.5,433.0137,940.5,437.0137" style="stroke:#181818;stroke-width:1.0;"/><line style="stroke:#181818;stroke-width:1.0;stroke-dasharray:2.0,2.0;" x1="934.5" x2="1188.5" y1="433.0137" y2="433.0137"/><text fill="#000000" font-family="sans-serif" font-size="13" lengthAdjust="spacing" textLength="127" x="996" y="428.2715">reject requestObject</text><polygon fill="#181818" points="1945.5,458.3242,1955.5,462.3242,1945.5,466.3242" style="stroke:#181818;stroke-width:1.0;"/><line style="stroke:#181818;stroke-width:1.0;" x1="929.5" x2="1951.5" y1="462.3242" y2="462.3242"/><text fill="#000000" font-family="sans-serif" font-size="13" lengthAdjust="spacing" textLength="169" x="1359" y="457.582">request and build template</text><polygon fill="#181818" points="940.5,487.6348,930.5,491.6348,940.5,495.6348" style="stroke:#181818;stroke-width:1.0;"/><line style="stroke:#181818;stroke-width:1.0;" x1="934.5" x2="1956.5" y1="491.6348" y2="491.6348"/><text fill="#000000" font-family="sans-serif" font-size="13" lengthAdjust="spacing" textLength="78" x="1404.5" y="486.8926">return HTML</text><polygon fill="#181818" points="563,516.9453,553,520.9453,563,524.9453" style="stroke:#181818;stroke-width:1.0;"/><line style="stroke:#181818;stroke-width:1.0;" x1="557" x2="928.5" y1="520.9453" y2="520.9453"/><text fill="#000000" font-family="sans-serif" font-size="13" lengthAdjust="spacing" textLength="78" x="701.75" y="516.2031">return HTML</text><polygon fill="#181818" points="56.5,546.2559,46.5,550.2559,56.5,554.2559" style="stroke:#181818;stroke-width:1.0;"/><line style="stroke:#181818;stroke-width:1.0;" x1="50.5" x2="551" y1="550.2559" y2="550.2559"/><text fill="#000000" font-family="sans-serif" font-size="13" lengthAdjust="spacing" textLength="108" x="244.75" y="545.5137">render error page</text><polygon fill="#181818" points="1724,582.5664,1734,586.5664,1724,590.5664" style="stroke:#181818;stroke-width:1.0;"/><line style="stroke:#181818;stroke-width:1.0;" x1="929.5" x2="1730" y1="586.5664" y2="586.5664"/><text fill="#000000" font-family="sans-serif" font-size="13" lengthAdjust="spacing" textLength="169" x="1248.25" y="581.8242">request and build template</text><polygon fill="#181818" points="940.5,611.877,930.5,615.877,940.5,619.877" style="stroke:#181818;stroke-width:1.0;"/><line style="stroke:#181818;stroke-width:1.0;" x1="934.5" x2="1735" y1="615.877" y2="615.877"/><text fill="#000000" font-family="sans-serif" font-size="13" lengthAdjust="spacing" textLength="78" x="1293.75" y="611.1348">return HTML</text><polygon fill="#181818" points="363.5,641.1875,353.5,645.1875,363.5,649.1875" style="stroke:#181818;stroke-width:1.0;"/><line style="stroke:#181818;stroke-width:1.0;" x1="357.5" x2="928.5" y1="645.1875" y2="645.1875"/><text fill="#000000" font-family="sans-serif" font-size="13" lengthAdjust="spacing" textLength="78" x="602" y="640.4453">return HTML</text><polygon fill="#181818" points="56.5,670.498,46.5,674.498,56.5,678.498" style="stroke:#181818;stroke-width:1.0;"/><line style="stroke:#181818;stroke-width:1.0;" x1="50.5" x2="351.5" y1="674.498" y2="674.498"/><text fill="#000000" font-family="sans-serif" font-size="13" lengthAdjust="spacing" textLength="80" x="159" y="669.7559">render HTML</text><polygon fill="#181818" points="340.5,699.8086,350.5,703.8086,340.5,707.8086" style="stroke:#181818;stroke-width:1.0;"/><line style="stroke:#181818;stroke-width:1.0;" x1="45.5" x2="346.5" y1="703.8086" y2="703.8086"/><text fill="#000000" font-family="sans-serif" font-size="13" lengthAdjust="spacing" textLength="283" x="57.5" y="699.0664">enter expense rates and limits and click save</text><polygon fill="#181818" points="917.5,729.1191,927.5,733.1191,917.5,737.1191" style="stroke:#181818;stroke-width:1.0;"/><line style="stroke:#181818;stroke-width:1.0;" x1="352.5" x2="923.5" y1="733.1191" y2="733.1191"/><text fill="#000000" font-family="sans-serif" font-size="13" lengthAdjust="spacing" textLength="128" x="577" y="728.377">POST expense limits</text><polygon fill="#181818" points="2122.5,758.4297,2132.5,762.4297,2122.5,766.4297" style="stroke:#181818;stroke-width:1.0;"/><line style="stroke:#181818;stroke-width:1.0;" x1="929.5" x2="2128.5" y1="762.4297" y2="762.4297"/><text fill="#000000" font-family="sans-serif" font-size="13" lengthAdjust="spacing" textLength="145" x="1459.5" y="757.6875">validate expense limits</text><path d="M10,777.4297 L72,777.4297 L72,784.7402 L62,794.7402 L10,794.7402 L10,777.4297 " fill="#EEEEEE" style="stroke:#000000;stroke-width:1.5;"/><rect fill="none" height="163.8633" style="stroke:#000000;stroke-width:1.5;" width="2221.5" x="10" y="777.4297"/><text fill="#000000" font-family="sans-serif" font-size="13" font-weight="bold" lengthAdjust="spacing" textLength="17" x="25" y="790.998">alt</text><text fill="#000000" font-family="sans-serif" font-size="11" font-weight="bold" lengthAdjust="spacing" textLength="177" x="87" y="790.0645">[invalid expense limits entered]</text><polygon fill="#181818" points="940.5,812.0508,930.5,816.0508,940.5,820.0508" style="stroke:#181818;stroke-width:1.0;"/><line style="stroke:#181818;stroke-width:1.0;" x1="934.5" x2="2133.5" y1="816.0508" y2="816.0508"/><text fill="#000000" font-family="sans-serif" font-size="13" lengthAdjust="spacing" textLength="88" x="1488" y="811.3086">invalid details</text><polygon fill="#181818" points="1724,841.3613,1734,845.3613,1724,849.3613" style="stroke:#181818;stroke-width:1.0;"/><line style="stroke:#181818;stroke-width:1.0;" x1="929.5" x2="1730" y1="845.3613" y2="845.3613"/><text fill="#000000" font-family="sans-serif" font-size="13" lengthAdjust="spacing" textLength="169" x="1248.25" y="840.6191">request and build template</text><polygon fill="#181818" points="940.5,870.6719,930.5,874.6719,940.5,878.6719" style="stroke:#181818;stroke-width:1.0;"/><line style="stroke:#181818;stroke-width:1.0;" x1="934.5" x2="1735" y1="874.6719" y2="874.6719"/><text fill="#000000" font-family="sans-serif" font-size="13" lengthAdjust="spacing" textLength="78" x="1293.75" y="869.9297">return HTML</text><polygon fill="#181818" points="363.5,899.9824,353.5,903.9824,363.5,907.9824" style="stroke:#181818;stroke-width:1.0;"/><line style="stroke:#181818;stroke-width:1.0;" x1="357.5" x2="928.5" y1="903.9824" y2="903.9824"/><text fill="#000000" font-family="sans-serif" font-size="13" lengthAdjust="spacing" textLength="112" x="585" y="899.2402">return error HTML</text><polygon fill="#181818" points="56.5,929.293,46.5,933.293,56.5,937.293" style="stroke:#181818;stroke-width:1.0;"/><line style="stroke:#181818;stroke-width:1.0;" x1="50.5" x2="351.5" y1="933.293" y2="933.293"/><text fill="#000000" font-family="sans-serif" font-size="13" lengthAdjust="spacing" textLength="133" x="132.5" y="928.5508">render error message</text><polygon fill="#181818" points="940.5,965.6035,930.5,969.6035,940.5,973.6035" style="stroke:#181818;stroke-width:1.0;"/><line style="stroke:#181818;stroke-width:1.0;" x1="934.5" x2="2133.5" y1="969.6035" y2="969.6035"/><text fill="#000000" font-family="sans-serif" font-size="13" lengthAdjust="spacing" textLength="127" x="1468.5" y="964.8613">valid details entered</text><polygon fill="#181818" points="1177.5,994.9141,1187.5,998.9141,1177.5,1002.9141" style="stroke:#181818;stroke-width:1.0;"/><line style="stroke:#181818;stroke-width:1.0;" x1="929.5" x2="1183.5" y1="998.9141" y2="998.9141"/><text fill="#000000" font-family="sans-serif" font-size="13" lengthAdjust="spacing" textLength="126" x="996.5" y="994.1719">build request object</text><polygon fill="#181818" points="2290,1024.2246,2300,1028.2246,2290,1032.2246" style="stroke:#181818;stroke-width:1.0;"/><line style="stroke:#181818;stroke-width:1.0;" x1="1189.5" x2="2296" y1="1028.2246" y2="1028.2246"/><text fill="#000000" font-family="sans-serif" font-size="13" lengthAdjust="spacing" textLength="138" x="1676.75" y="1023.4824">send backend request</text><polygon fill="#181818" points="1200.5,1053.5352,1190.5,1057.5352,1200.5,1061.5352" style="stroke:#181818;stroke-width:1.0;"/><line style="stroke:#181818;stroke-width:1.0;" x1="1194.5" x2="2301" y1="1057.5352" y2="1057.5352"/><text fill="#000000" font-family="sans-serif" font-size="13" lengthAdjust="spacing" textLength="77" x="1707.25" y="1052.793">ok response</text><polygon fill="#181818" points="940.5,1082.8457,930.5,1086.8457,940.5,1090.8457" style="stroke:#181818;stroke-width:1.0;"/><line style="stroke:#181818;stroke-width:1.0;" x1="934.5" x2="1188.5" y1="1086.8457" y2="1086.8457"/><text fill="#000000" font-family="sans-serif" font-size="13" lengthAdjust="spacing" textLength="236" x="941.5" y="1082.1035">resolve request - no update to values</text><path d="M10,1101.8457 L72,1101.8457 L72,1109.1563 L62,1119.1563 L10,1119.1563 L10,1101.8457 " fill="#EEEEEE" style="stroke:#000000;stroke-width:1.5;"/><rect fill="none" height="193.1738" style="stroke:#000000;stroke-width:1.5;" width="2372.5" x="10" y="1101.8457"/><text fill="#000000" font-family="sans-serif" font-size="13" font-weight="bold" lengthAdjust="spacing" textLength="17" x="25" y="1115.4141">alt</text><text fill="#000000" font-family="sans-serif" font-size="11" font-weight="bold" lengthAdjust="spacing" textLength="388" x="87" y="1114.4805">[Failed to compare etags for when updating expense limits and rates]</text><polygon fill="#181818" points="1200.5,1136.4668,1190.5,1140.4668,1200.5,1144.4668" style="stroke:#181818;stroke-width:1.0;"/><line style="stroke:#181818;stroke-width:1.0;stroke-dasharray:2.0,2.0;" x1="1194.5" x2="2301" y1="1140.4668" y2="1140.4668"/><text fill="#000000" font-family="sans-serif" font-size="13" lengthAdjust="spacing" textLength="91" x="1700.25" y="1135.7246">error response</text><polygon fill="#181818" points="940.5,1165.7773,930.5,1169.7773,940.5,1173.7773" style="stroke:#181818;stroke-width:1.0;"/><line style="stroke:#181818;stroke-width:1.0;stroke-dasharray:2.0,2.0;" x1="934.5" x2="1188.5" y1="1169.7773" y2="1169.7773"/><text fill="#000000" font-family="sans-serif" font-size="13" lengthAdjust="spacing" textLength="127" x="996" y="1165.0352">reject requestObject</text><polygon fill="#181818" points="1945.5,1195.0879,1955.5,1199.0879,1945.5,1203.0879" style="stroke:#181818;stroke-width:1.0;"/><line style="stroke:#181818;stroke-width:1.0;" x1="929.5" x2="1951.5" y1="1199.0879" y2="1199.0879"/><text fill="#000000" font-family="sans-serif" font-size="13" lengthAdjust="spacing" textLength="169" x="1359" y="1194.3457">request and build template</text><polygon fill="#181818" points="940.5,1224.3984,930.5,1228.3984,940.5,1232.3984" style="stroke:#181818;stroke-width:1.0;"/><line style="stroke:#181818;stroke-width:1.0;" x1="934.5" x2="1956.5" y1="1228.3984" y2="1228.3984"/><text fill="#000000" font-family="sans-serif" font-size="13" lengthAdjust="spacing" textLength="78" x="1404.5" y="1223.6563">return HTML</text><polygon fill="#181818" points="563,1253.709,553,1257.709,563,1261.709" style="stroke:#181818;stroke-width:1.0;"/><line style="stroke:#181818;stroke-width:1.0;" x1="557" x2="928.5" y1="1257.709" y2="1257.709"/><text fill="#000000" font-family="sans-serif" font-size="13" lengthAdjust="spacing" textLength="78" x="701.75" y="1252.9668">return HTML</text><polygon fill="#181818" points="56.5,1283.0195,46.5,1287.0195,56.5,1291.0195" style="stroke:#181818;stroke-width:1.0;"/><line style="stroke:#181818;stroke-width:1.0;" x1="50.5" x2="551" y1="1287.0195" y2="1287.0195"/><text fill="#000000" font-family="sans-serif" font-size="13" lengthAdjust="spacing" textLength="108" x="244.75" y="1282.2773">render error page</text><path d="M10,1309.0195 L72,1309.0195 L72,1316.3301 L62,1326.3301 L10,1326.3301 L10,1309.0195 " fill="#EEEEEE" style="stroke:#000000;stroke-width:1.5;"/><rect fill="none" height="134.5527" style="stroke:#000000;stroke-width:1.5;" width="1867.5" x="10" y="1309.0195"/><text fill="#000000" font-family="sans-serif" font-size="13" font-weight="bold" lengthAdjust="spacing" textLength="17" x="25" y="1322.5879">alt</text><text fill="#000000" font-family="sans-serif" font-size="11" font-weight="bold" lengthAdjust="spacing" textLength="278" x="87" y="1321.6543">[Expense rates or limits changed by another user]</text><polygon fill="#181818" points="1724,1343.6406,1734,1347.6406,1724,1351.6406" style="stroke:#181818;stroke-width:1.0;"/><line style="stroke:#181818;stroke-width:1.0;" x1="929.5" x2="1730" y1="1347.6406" y2="1347.6406"/><text fill="#000000" font-family="sans-serif" font-size="13" lengthAdjust="spacing" textLength="169" x="1248.25" y="1342.8984">request and build template</text><polygon fill="#181818" points="940.5,1372.9512,930.5,1376.9512,940.5,1380.9512" style="stroke:#181818;stroke-width:1.0;"/><line style="stroke:#181818;stroke-width:1.0;" x1="934.5" x2="1735" y1="1376.9512" y2="1376.9512"/><text fill="#000000" font-family="sans-serif" font-size="13" lengthAdjust="spacing" textLength="78" x="1293.75" y="1372.209">return HTML</text><polygon fill="#181818" points="363.5,1402.2617,353.5,1406.2617,363.5,1410.2617" style="stroke:#181818;stroke-width:1.0;"/><line style="stroke:#181818;stroke-width:1.0;" x1="357.5" x2="928.5" y1="1406.2617" y2="1406.2617"/><text fill="#000000" font-family="sans-serif" font-size="13" lengthAdjust="spacing" textLength="112" x="585" y="1401.5195">return error HTML</text><polygon fill="#181818" points="56.5,1431.5723,46.5,1435.5723,56.5,1439.5723" style="stroke:#181818;stroke-width:1.0;"/><line style="stroke:#181818;stroke-width:1.0;" x1="50.5" x2="351.5" y1="1435.5723" y2="1435.5723"/><text fill="#000000" font-family="sans-serif" font-size="13" lengthAdjust="spacing" textLength="133" x="132.5" y="1430.8301">render error message</text><polygon fill="#181818" points="1449.5,1467.8828,1459.5,1471.8828,1449.5,1475.8828" style="stroke:#181818;stroke-width:1.0;"/><line style="stroke:#181818;stroke-width:1.0;" x1="929.5" x2="1455.5" y1="1471.8828" y2="1471.8828"/><text fill="#000000" font-family="sans-serif" font-size="13" lengthAdjust="spacing" textLength="126" x="1132.5" y="1467.1406">build request object</text><polygon fill="#181818" points="2290,1497.1934,2300,1501.1934,2290,1505.1934" style="stroke:#181818;stroke-width:1.0;"/><line style="stroke:#181818;stroke-width:1.0;" x1="1461.5" x2="2296" y1="1501.1934" y2="1501.1934"/><text fill="#000000" font-family="sans-serif" font-size="13" lengthAdjust="spacing" textLength="138" x="1812.75" y="1496.4512">send backend request</text><polygon fill="#181818" points="1472.5,1526.5039,1462.5,1530.5039,1472.5,1534.5039" style="stroke:#181818;stroke-width:1.0;"/><line style="stroke:#181818;stroke-width:1.0;" x1="1466.5" x2="2301" y1="1530.5039" y2="1530.5039"/><text fill="#000000" font-family="sans-serif" font-size="13" lengthAdjust="spacing" textLength="77" x="1843.25" y="1525.7617">ok response</text><polygon fill="#181818" points="940.5,1555.8145,930.5,1559.8145,940.5,1563.8145" style="stroke:#181818;stroke-width:1.0;"/><line style="stroke:#181818;stroke-width:1.0;" x1="934.5" x2="1460.5" y1="1559.8145" y2="1559.8145"/><text fill="#000000" font-family="sans-serif" font-size="13" lengthAdjust="spacing" textLength="96" x="1147.5" y="1555.0723">resolve request</text><path d="M10,1574.8145 L72,1574.8145 L72,1582.125 L62,1592.125 L10,1592.125 L10,1574.8145 " fill="#EEEEEE" style="stroke:#000000;stroke-width:1.5;"/><rect fill="none" height="193.1738" style="stroke:#000000;stroke-width:1.5;" width="2372.5" x="10" y="1574.8145"/><text fill="#000000" font-family="sans-serif" font-size="13" font-weight="bold" lengthAdjust="spacing" textLength="17" x="25" y="1588.3828">alt</text><text fill="#000000" font-family="sans-serif" font-size="11" font-weight="bold" lengthAdjust="spacing" textLength="237" x="87" y="1587.4492">[Failed to update expense rates and limits]</text><polygon fill="#181818" points="1472.5,1609.4355,1462.5,1613.4355,1472.5,1617.4355" style="stroke:#181818;stroke-width:1.0;"/><line style="stroke:#181818;stroke-width:1.0;stroke-dasharray:2.0,2.0;" x1="1466.5" x2="2301" y1="1613.4355" y2="1613.4355"/><text fill="#000000" font-family="sans-serif" font-size="13" lengthAdjust="spacing" textLength="91" x="1836.25" y="1608.6934">error response</text><polygon fill="#181818" points="940.5,1638.7461,930.5,1642.7461,940.5,1646.7461" style="stroke:#181818;stroke-width:1.0;"/><line style="stroke:#181818;stroke-width:1.0;stroke-dasharray:2.0,2.0;" x1="934.5" x2="1460.5" y1="1642.7461" y2="1642.7461"/><text fill="#000000" font-family="sans-serif" font-size="13" lengthAdjust="spacing" textLength="127" x="1132" y="1638.0039">reject requestObject</text><polygon fill="#181818" points="1945.5,1668.0566,1955.5,1672.0566,1945.5,1676.0566" style="stroke:#181818;stroke-width:1.0;"/><line style="stroke:#181818;stroke-width:1.0;" x1="929.5" x2="1951.5" y1="1672.0566" y2="1672.0566"/><text fill="#000000" font-family="sans-serif" font-size="13" lengthAdjust="spacing" textLength="169" x="1359" y="1667.3145">request and build template</text><polygon fill="#181818" points="940.5,1697.3672,930.5,1701.3672,940.5,1705.3672" style="stroke:#181818;stroke-width:1.0;"/><line style="stroke:#181818;stroke-width:1.0;" x1="934.5" x2="1956.5" y1="1701.3672" y2="1701.3672"/><text fill="#000000" font-family="sans-serif" font-size="13" lengthAdjust="spacing" textLength="78" x="1404.5" y="1696.625">return HTML</text><polygon fill="#181818" points="563,1726.6777,553,1730.6777,563,1734.6777" style="stroke:#181818;stroke-width:1.0;"/><line style="stroke:#181818;stroke-width:1.0;" x1="557" x2="928.5" y1="1730.6777" y2="1730.6777"/><text fill="#000000" font-family="sans-serif" font-size="13" lengthAdjust="spacing" textLength="78" x="701.75" y="1725.9355">return HTML</text><polygon fill="#181818" points="56.5,1755.9883,46.5,1759.9883,56.5,1763.9883" style="stroke:#181818;stroke-width:1.0;"/><line style="stroke:#181818;stroke-width:1.0;" x1="50.5" x2="551" y1="1759.9883" y2="1759.9883"/><text fill="#000000" font-family="sans-serif" font-size="13" lengthAdjust="spacing" textLength="108" x="244.75" y="1755.2461">render error page</text><polygon fill="#181818" points="1177.5,1792.2988,1187.5,1796.2988,1177.5,1800.2988" style="stroke:#181818;stroke-width:1.0;"/><line style="stroke:#181818;stroke-width:1.0;" x1="929.5" x2="1183.5" y1="1796.2988" y2="1796.2988"/><text fill="#000000" font-family="sans-serif" font-size="13" lengthAdjust="spacing" textLength="126" x="996.5" y="1791.5566">build request object</text><polygon fill="#181818" points="2290,1821.6094,2300,1825.6094,2290,1829.6094" style="stroke:#181818;stroke-width:1.0;"/><line style="stroke:#181818;stroke-width:1.0;" x1="1189.5" x2="2296" y1="1825.6094" y2="1825.6094"/><text fill="#000000" font-family="sans-serif" font-size="13" lengthAdjust="spacing" textLength="138" x="1676.75" y="1820.8672">send backend request</text><polygon fill="#181818" points="1200.5,1850.9199,1190.5,1854.9199,1200.5,1858.9199" style="stroke:#181818;stroke-width:1.0;"/><line style="stroke:#181818;stroke-width:1.0;" x1="1194.5" x2="2301" y1="1854.9199" y2="1854.9199"/><text fill="#000000" font-family="sans-serif" font-size="13" lengthAdjust="spacing" textLength="77" x="1707.25" y="1850.1777">ok response</text><polygon fill="#181818" points="940.5,1880.2305,930.5,1884.2305,940.5,1888.2305" style="stroke:#181818;stroke-width:1.0;"/><line style="stroke:#181818;stroke-width:1.0;" x1="934.5" x2="1188.5" y1="1884.2305" y2="1884.2305"/><text fill="#000000" font-family="sans-serif" font-size="13" lengthAdjust="spacing" textLength="96" x="1011.5" y="1879.4883">resolve request</text><polygon fill="#181818" points="1724,1909.541,1734,1913.541,1724,1917.541" style="stroke:#181818;stroke-width:1.0;"/><line style="stroke:#181818;stroke-width:1.0;" x1="929.5" x2="1730" y1="1913.541" y2="1913.541"/><text fill="#000000" font-family="sans-serif" font-size="13" lengthAdjust="spacing" textLength="169" x="1248.25" y="1908.7988">request and build template</text><polygon fill="#181818" points="940.5,1938.8516,930.5,1942.8516,940.5,1946.8516" style="stroke:#181818;stroke-width:1.0;"/><line style="stroke:#181818;stroke-width:1.0;" x1="934.5" x2="1735" y1="1942.8516" y2="1942.8516"/><text fill="#000000" font-family="sans-serif" font-size="13" lengthAdjust="spacing" textLength="78" x="1293.75" y="1938.1094">return HTML</text><polygon fill="#181818" points="363.5,1968.1621,353.5,1972.1621,363.5,1976.1621" style="stroke:#181818;stroke-width:1.0;"/><line style="stroke:#181818;stroke-width:1.0;" x1="357.5" x2="928.5" y1="1972.1621" y2="1972.1621"/><text fill="#000000" font-family="sans-serif" font-size="13" lengthAdjust="spacing" textLength="78" x="602" y="1967.4199">return HTML</text><polygon fill="#181818" points="56.5,1997.4727,46.5,2001.4727,56.5,2005.4727" style="stroke:#181818;stroke-width:1.0;"/><line style="stroke:#181818;stroke-width:1.0;" x1="50.5" x2="351.5" y1="2001.4727" y2="2001.4727"/><text fill="#000000" font-family="sans-serif" font-size="13" lengthAdjust="spacing" textLength="80" x="159" y="1996.7305">render HTML</text><!--SRC=[xLTDKzim4BtxL-nC3xI7m3t3C6E2WRGcfh5XfgUEOY-9Y2obbaBBl-zQ2WbEB1FQ7Ze35oP8kqzllvvaFUTomIfMGceU1O8s5S_DiXGGwCqM_bYYpF4AjMPJ30MVoXAbWPp-O1K4P6PupXUCriBSA5ewE3Y0E1c4COoJcsmukcWOHRyMA3N6lEH6NnCc71yViQBaaXC3PhYIH-XiUi8QdPp0XvXFP-PKBB61TO4IYNHKLQfwWiBwdwQBPHJUP9VHA1iEmcoOZ1emGvq-QeDbk66XAiBYRUjhw9I9Kaa7FaX6sJY9usZiZtMWfAcK45X3DoCypDTxX_URUB-X4EgdEs4SVRs9qWoIqy_H84iRnvoZoMUDivB9FUPcSywO6TIXBDpkMPWSJj5y_5IVTCq4NbI8iW6Pedabu4Bf7KJBF8kkhkCmYr9_QZ8i5u8G2R-p4mxb_Rm-8PkHXMZsWcs2Pq3VRIFeewdhaMrNI-ry66VHE8LmT0QtOJmy2xDatC7pbWbUsERuSA54uK1Emy6NY00yFN3AyZdAubdrNN47gc8Y2EpCGE-aPIxwa0kUps6L0wZgd0EJ1RXiW66JODUDiDeRcl1cI7Zy3fQQU70Dsfe1UsuNj7jxA5PebfK4KzLpneI1aJB086q31l12xqnoZLpmgcuwey3M4XQq4L0kW_QeVTD6SJCXrcbS9MypSW44FbT2zGvN7oPBBWhYIHAf3IYx77Zj2Mkt5_gWQG4cRkC9omzot6i5KNDorGj5vjvOoBKZ5d9NuW7N36mjpnaNMDG5kAizlPr8bOKE5UgratP5NVEkCVpSNo1lVwouk-LElBfR6dhHNvUnZieLrgmsNs3MWcH7uZAxYgthxYtLw-ZLRMyd4EJIEYAo8AVEwTYAkbLsEwFlYjoBjecXvRxVD_nrwEt2OsEtXjqgQbygVXMjVpgXrUm1NwqjrmdToarjsRi0c_ka3m_kDsvZsK7aqcvlQvYD38kWkprz9pw15cXepdNGFIwlRvpzMNc7vy-Qnyt32cAV9d8EfNlZTizGLq8RwLmNv_rosRvSe0TImN9Xsvqk5yeRBMzVERagwHr5ys3OLCCTPVZd3ALputAwFGjr0zhPVh-C_glBg2vgrD1UsdvwWysOd5Ar9uyKgJ8pShSlqtSfsaUAA1MUppIFUdYiNwCTlk_2lr8ERnGlF4fN2jBvAlKI_YSoqC7yNGJsUv6-qU-hD_T6_mq0]--></g></svg>