<?xml version="1.0" encoding="us-ascii" standalone="no"?><svg xmlns="http://www.w3.org/2000/svg" xmlns:xlink="http://www.w3.org/1999/xlink" contentStyleType="text/css" height="2173px" preserveAspectRatio="none" style="width:2816px;height:2173px;background:#FFFFFF;" version="1.1" viewBox="0 0 2816 2173" width="2816px" zoomAndPan="magnify"><defs/><g><rect fill="none" height="193.1738" style="stroke:#000000;stroke-width:1.5;" width="2800" x="10" y="187.2188"/><rect fill="none" height="163.8633" style="stroke:#000000;stroke-width:1.5;" width="2479" x="10" y="687.498"/><rect fill="none" height="193.1738" style="stroke:#000000;stroke-width:1.5;" width="2800" x="10" y="953.293"/><rect fill="none" height="134.5527" style="stroke:#000000;stroke-width:1.5;" width="2479" x="10" y="1219.0879"/><rect fill="none" height="193.1738" style="stroke:#000000;stroke-width:1.5;" width="2800" x="10" y="1426.2617"/><rect fill="none" height="193.1738" style="stroke:#000000;stroke-width:1.5;" width="2800" x="10" y="1779.9883"/><line style="stroke:#181818;stroke-width:0.5;stroke-dasharray:5.0,5.0;" x1="45" x2="45" y1="52.9766" y2="2166.0254"/><line style="stroke:#181818;stroke-width:0.5;stroke-dasharray:5.0,5.0;" x1="231" x2="231" y1="52.9766" y2="2166.0254"/><line style="stroke:#181818;stroke-width:0.5;stroke-dasharray:5.0,5.0;" x1="571" x2="571" y1="52.9766" y2="2166.0254"/><line style="stroke:#181818;stroke-width:0.5;stroke-dasharray:5.0,5.0;" x1="829" x2="829" y1="52.9766" y2="2166.0254"/><line style="stroke:#181818;stroke-width:0.5;stroke-dasharray:5.0,5.0;" x1="1021" x2="1021" y1="52.9766" y2="2166.0254"/><line style="stroke:#181818;stroke-width:0.5;stroke-dasharray:5.0,5.0;" x1="1234" x2="1234" y1="52.9766" y2="2166.0254"/><line style="stroke:#181818;stroke-width:0.5;stroke-dasharray:5.0,5.0;" x1="1439" x2="1439" y1="52.9766" y2="2166.0254"/><line style="stroke:#181818;stroke-width:0.5;stroke-dasharray:5.0,5.0;" x1="1662" x2="1662" y1="52.9766" y2="2166.0254"/><line style="stroke:#181818;stroke-width:0.5;stroke-dasharray:5.0,5.0;" x1="1877" x2="1877" y1="52.9766" y2="2166.0254"/><line style="stroke:#181818;stroke-width:0.5;stroke-dasharray:5.0,5.0;" x1="2091" x2="2091" y1="52.9766" y2="2166.0254"/><line style="stroke:#181818;stroke-width:0.5;stroke-dasharray:5.0,5.0;" x1="2343" x2="2343" y1="52.9766" y2="2166.0254"/><line style="stroke:#181818;stroke-width:0.5;stroke-dasharray:5.0,5.0;" x1="2569" x2="2569" y1="52.9766" y2="2166.0254"/><line style="stroke:#181818;stroke-width:0.5;stroke-dasharray:5.0,5.0;" x1="2729" x2="2729" y1="52.9766" y2="2166.0254"/><rect fill="#E2E2F0" height="30.4883" rx="2.5" ry="2.5" style="stroke:#181818;stroke-width:0.5;" width="51" x="20" y="21.4883"/><text fill="#000000" font-family="sans-serif" font-size="14" lengthAdjust="spacing" textLength="37" x="27" y="42.0234">Actor</text><rect fill="#E2E2F0" height="46.9766" rx="2.5" ry="2.5" style="stroke:#181818;stroke-width:0.5;" width="300" x="81" y="5"/><text fill="#000000" font-family="sans-serif" font-size="14" font-style="italic" lengthAdjust="spacing" textLength="286" x="88" y="25.5352">&#171;/administration/room-locations/rooms&#187;</text><text fill="#000000" font-family="sans-serif" font-size="14" lengthAdjust="spacing" textLength="80" x="191" y="42.0234">RoomsPage</text><rect fill="#E2E2F0" height="46.9766" rx="2.5" ry="2.5" style="stroke:#181818;stroke-width:0.5;" width="361" x="391" y="5"/><text fill="#000000" font-family="sans-serif" font-size="14" font-style="italic" lengthAdjust="spacing" textLength="347" x="398" y="25.5352">&#171;/administration/room-locations/add-edit-room&#187;</text><text fill="#000000" font-family="sans-serif" font-size="14" lengthAdjust="spacing" textLength="108" x="517.5" y="42.0234">AddRoomsPage</text><rect fill="#E2E2F0" height="46.9766" rx="2.5" ry="2.5" style="stroke:#181818;stroke-width:0.5;" width="134" x="762" y="5"/><text fill="#000000" font-family="sans-serif" font-size="14" font-style="italic" lengthAdjust="spacing" textLength="56" x="801" y="25.5352">&#171;/error&#187;</text><text fill="#000000" font-family="sans-serif" font-size="14" lengthAdjust="spacing" textLength="120" x="769" y="42.0234">GenericErrorPage</text><rect fill="#FFFFE0" height="46.9766" rx="2.5" ry="2.5" style="stroke:#181818;stroke-width:0.5;" width="231" x="906" y="5"/><text fill="#000000" font-family="sans-serif" font-size="14" font-style="italic" lengthAdjust="spacing" textLength="217" x="913" y="25.5352">&#171;non-sitting-days.controller.js&#187;</text><text fill="#000000" font-family="sans-serif" font-size="14" lengthAdjust="spacing" textLength="175" x="934" y="42.0234">RoomLocationsController</text><rect fill="#FFFFE0" height="46.9766" rx="2.5" ry="2.5" style="stroke:#181818;stroke-width:0.5;" width="175" x="1147" y="5"/><text fill="#000000" font-family="sans-serif" font-size="14" font-style="italic" lengthAdjust="spacing" textLength="161" x="1154" y="25.5352">&#171;courtroomsDAO.get()&#187;</text><text fill="#000000" font-family="sans-serif" font-size="14" lengthAdjust="spacing" textLength="149" x="1160" y="42.0234">RoomLocationsObject</text><rect fill="#FFFFE0" height="46.9766" rx="2.5" ry="2.5" style="stroke:#181818;stroke-width:0.5;" width="214" x="1332" y="5"/><text fill="#000000" font-family="sans-serif" font-size="14" font-style="italic" lengthAdjust="spacing" textLength="200" x="1339" y="25.5352">&#171;courtroomDetailsDAO.get()&#187;</text><text fill="#000000" font-family="sans-serif" font-size="14" lengthAdjust="spacing" textLength="166" x="1356" y="42.0234">CourtroomDetailsObject</text><rect fill="#FFFFE0" height="46.9766" rx="2.5" ry="2.5" style="stroke:#181818;stroke-width:0.5;" width="212" x="1556" y="5"/><text fill="#000000" font-family="sans-serif" font-size="14" font-style="italic" lengthAdjust="spacing" textLength="162" x="1581" y="25.5352">&#171;courtroomsDAO.put()&#187;</text><text fill="#000000" font-family="sans-serif" font-size="14" lengthAdjust="spacing" textLength="198" x="1563" y="42.0234">UpdateRoomLocationsObject</text><rect fill="#FFD700" height="30.4883" rx="2.5" ry="2.5" style="stroke:#181818;stroke-width:0.5;" width="198" x="1778" y="21.4883"/><text fill="#000000" font-family="sans-serif" font-size="14" lengthAdjust="spacing" textLength="184" x="1785" y="42.0234">CourtroomDetailsValidator</text><rect fill="#E2E2F0" height="46.9766" rx="2.5" ry="2.5" style="stroke:#181818;stroke-width:0.5;" width="211" x="1986" y="5"/><text fill="#000000" font-family="sans-serif" font-size="14" font-style="italic" lengthAdjust="spacing" textLength="197" x="1993" y="25.5352">&#171;/administration/rooms.njk&#187;</text><text fill="#000000" font-family="sans-serif" font-size="14" lengthAdjust="spacing" textLength="111" x="2036" y="42.0234">RoomsTemplate</text><rect fill="#E2E2F0" height="46.9766" rx="2.5" ry="2.5" style="stroke:#181818;stroke-width:0.5;" width="272" x="2207" y="5"/><text fill="#000000" font-family="sans-serif" font-size="14" font-style="italic" lengthAdjust="spacing" textLength="258" x="2214" y="25.5352">&#171;/administration/add-edit-room.njk&#187;</text><text fill="#000000" font-family="sans-serif" font-size="14" lengthAdjust="spacing" textLength="165" x="2260.5" y="42.0234">AddEditRoomsTemplate</text><rect fill="#E6E6FA" height="46.9766" rx="2.5" ry="2.5" style="stroke:#181818;stroke-width:0.5;" width="160" x="2489" y="5"/><text fill="#000000" font-family="sans-serif" font-size="14" font-style="italic" lengthAdjust="spacing" textLength="146" x="2496" y="25.5352">&#171;_errors/generic.njk&#187;</text><text fill="#000000" font-family="sans-serif" font-size="14" lengthAdjust="spacing" textLength="99" x="2519.5" y="42.0234">ErrorTemplate</text><rect fill="#E2E2F0" height="30.4883" rx="2.5" ry="2.5" style="stroke:#181818;stroke-width:0.5;" width="141" x="2659" y="21.4883"/><text fill="#000000" font-family="sans-serif" font-size="14" lengthAdjust="spacing" textLength="127" x="2666" y="42.0234">BackendController</text><polygon fill="#181818" points="219,80.2871,229,84.2871,219,88.2871" style="stroke:#181818;stroke-width:1.0;"/><line style="stroke:#181818;stroke-width:1.0;" x1="45.5" x2="225" y1="84.2871" y2="84.2871"/><text fill="#000000" font-family="sans-serif" font-size="13" lengthAdjust="spacing" textLength="123" x="76.75" y="79.5449">click edit room link</text><polygon fill="#181818" points="1009.5,109.5977,1019.5,113.5977,1009.5,117.5977" style="stroke:#181818;stroke-width:1.0;"/><line style="stroke:#181818;stroke-width:1.0;" x1="231" x2="1015.5" y1="113.5977" y2="113.5977"/><text fill="#000000" font-family="sans-serif" font-size="13" lengthAdjust="spacing" textLength="131" x="560.75" y="108.8555">call rooms controller</text><polygon fill="#181818" points="1427,138.9082,1437,142.9082,1427,146.9082" style="stroke:#181818;stroke-width:1.0;"/><line style="stroke:#181818;stroke-width:1.0;" x1="1021.5" x2="1433" y1="142.9082" y2="142.9082"/><text fill="#000000" font-family="sans-serif" font-size="13" lengthAdjust="spacing" textLength="126" x="1167.25" y="138.166">build request object</text><polygon fill="#181818" points="2717.5,168.2188,2727.5,172.2188,2717.5,176.2188" style="stroke:#181818;stroke-width:1.0;"/><line style="stroke:#181818;stroke-width:1.0;" x1="1439" x2="2723.5" y1="172.2188" y2="172.2188"/><text fill="#000000" font-family="sans-serif" font-size="13" lengthAdjust="spacing" textLength="138" x="2015.25" y="167.4766">send backend request</text><path d="M10,187.2188 L72,187.2188 L72,194.5293 L62,204.5293 L10,204.5293 L10,187.2188 " fill="#EEEEEE" style="stroke:#000000;stroke-width:1.5;"/><rect fill="none" height="193.1738" style="stroke:#000000;stroke-width:1.5;" width="2800" x="10" y="187.2188"/><text fill="#000000" font-family="sans-serif" font-size="13" font-weight="bold" lengthAdjust="spacing" textLength="17" x="25" y="200.7871">alt</text><text fill="#000000" font-family="sans-serif" font-size="11" font-weight="bold" lengthAdjust="spacing" textLength="192" x="87" y="199.8535">[Failed to fetch courtroom details]</text><polygon fill="#181818" points="1450,221.8398,1440,225.8398,1450,229.8398" style="stroke:#181818;stroke-width:1.0;"/><line style="stroke:#181818;stroke-width:1.0;stroke-dasharray:2.0,2.0;" x1="1444" x2="2728.5" y1="225.8398" y2="225.8398"/><text fill="#000000" font-family="sans-serif" font-size="13" lengthAdjust="spacing" textLength="91" x="2038.75" y="221.0977">error response</text><polygon fill="#181818" points="1032.5,251.1504,1022.5,255.1504,1032.5,259.1504" style="stroke:#181818;stroke-width:1.0;"/><line style="stroke:#181818;stroke-width:1.0;stroke-dasharray:2.0,2.0;" x1="1026.5" x2="1438" y1="255.1504" y2="255.1504"/><text fill="#000000" font-family="sans-serif" font-size="13" lengthAdjust="spacing" textLength="127" x="1166.75" y="250.4082">reject requestObject</text><polygon fill="#181818" points="2557,280.4609,2567,284.4609,2557,288.4609" style="stroke:#181818;stroke-width:1.0;"/><line style="stroke:#181818;stroke-width:1.0;" x1="1021.5" x2="2563" y1="284.4609" y2="284.4609"/><text fill="#000000" font-family="sans-serif" font-size="13" lengthAdjust="spacing" textLength="169" x="1710.75" y="279.7188">request and build template</text><polygon fill="#181818" points="1032.5,309.7715,1022.5,313.7715,1032.5,317.7715" style="stroke:#181818;stroke-width:1.0;"/><line style="stroke:#181818;stroke-width:1.0;" x1="1026.5" x2="2568" y1="313.7715" y2="313.7715"/><text fill="#000000" font-family="sans-serif" font-size="13" lengthAdjust="spacing" textLength="78" x="1756.25" y="309.0293">return HTML</text><polygon fill="#181818" points="840,339.082,830,343.082,840,347.082" style="stroke:#181818;stroke-width:1.0;"/><line style="stroke:#181818;stroke-width:1.0;" x1="834" x2="1020.5" y1="343.082" y2="343.082"/><text fill="#000000" font-family="sans-serif" font-size="13" lengthAdjust="spacing" textLength="78" x="886.25" y="338.3398">return HTML</text><polygon fill="#181818" points="56.5,368.3926,46.5,372.3926,56.5,376.3926" style="stroke:#181818;stroke-width:1.0;"/><line style="stroke:#181818;stroke-width:1.0;" x1="50.5" x2="828" y1="372.3926" y2="372.3926"/><text fill="#000000" font-family="sans-serif" font-size="13" lengthAdjust="spacing" textLength="108" x="383.25" y="367.6504">render error page</text><polygon fill="#181818" points="1450,404.7031,1440,408.7031,1450,412.7031" style="stroke:#181818;stroke-width:1.0;"/><line style="stroke:#181818;stroke-width:1.0;" x1="1444" x2="2728.5" y1="408.7031" y2="408.7031"/><text fill="#000000" font-family="sans-serif" font-size="13" lengthAdjust="spacing" textLength="77" x="2045.75" y="403.9609">ok response</text><polygon fill="#181818" points="1032.5,434.0137,1022.5,438.0137,1032.5,442.0137" style="stroke:#181818;stroke-width:1.0;"/><line style="stroke:#181818;stroke-width:1.0;" x1="1026.5" x2="1438" y1="438.0137" y2="438.0137"/><text fill="#000000" font-family="sans-serif" font-size="13" lengthAdjust="spacing" textLength="96" x="1182.25" y="433.2715">resolve request</text><polygon fill="#181818" points="2331,463.3242,2341,467.3242,2331,471.3242" style="stroke:#181818;stroke-width:1.0;"/><line style="stroke:#181818;stroke-width:1.0;" x1="1021.5" x2="2337" y1="467.3242" y2="467.3242"/><text fill="#000000" font-family="sans-serif" font-size="13" lengthAdjust="spacing" textLength="169" x="1597.75" y="462.582">request and build template</text><polygon fill="#181818" points="2331,492.6348,2341,496.6348,2331,500.6348" style="stroke:#181818;stroke-width:1.0;"/><line style="stroke:#181818;stroke-width:1.0;" x1="1021.5" x2="2337" y1="496.6348" y2="496.6348"/><text fill="#000000" font-family="sans-serif" font-size="13" lengthAdjust="spacing" textLength="169" x="1597.75" y="491.8926">request and build template</text><polygon fill="#181818" points="1032.5,521.9453,1022.5,525.9453,1032.5,529.9453" style="stroke:#181818;stroke-width:1.0;"/><line style="stroke:#181818;stroke-width:1.0;" x1="1026.5" x2="2342" y1="525.9453" y2="525.9453"/><text fill="#000000" font-family="sans-serif" font-size="13" lengthAdjust="spacing" textLength="78" x="1643.25" y="521.2031">return HTML</text><polygon fill="#181818" points="582.5,551.2559,572.5,555.2559,582.5,559.2559" style="stroke:#181818;stroke-width:1.0;"/><line style="stroke:#181818;stroke-width:1.0;" x1="576.5" x2="1020.5" y1="555.2559" y2="555.2559"/><text fill="#000000" font-family="sans-serif" font-size="13" lengthAdjust="spacing" textLength="78" x="757.5" y="550.5137">return HTML</text><polygon fill="#181818" points="56.5,580.5664,46.5,584.5664,56.5,588.5664" style="stroke:#181818;stroke-width:1.0;"/><line style="stroke:#181818;stroke-width:1.0;" x1="50.5" x2="570.5" y1="584.5664" y2="584.5664"/><text fill="#000000" font-family="sans-serif" font-size="13" lengthAdjust="spacing" textLength="80" x="268.5" y="579.8242">render HTML</text><polygon fill="#181818" points="559.5,609.877,569.5,613.877,559.5,617.877" style="stroke:#181818;stroke-width:1.0;"/><line style="stroke:#181818;stroke-width:1.0;" x1="45.5" x2="565.5" y1="613.877" y2="613.877"/><text fill="#000000" font-family="sans-serif" font-size="13" lengthAdjust="spacing" textLength="163" x="227" y="609.1348">edit details and click save</text><polygon fill="#181818" points="1009.5,639.1875,1019.5,643.1875,1009.5,647.1875" style="stroke:#181818;stroke-width:1.0;"/><line style="stroke:#181818;stroke-width:1.0;" x1="571.5" x2="1015.5" y1="643.1875" y2="643.1875"/><text fill="#000000" font-family="sans-serif" font-size="13" lengthAdjust="spacing" textLength="148" x="722.5" y="638.4453">POST courtroom details</text><polygon fill="#181818" points="1865,668.498,1875,672.498,1865,676.498" style="stroke:#181818;stroke-width:1.0;"/><line style="stroke:#181818;stroke-width:1.0;" x1="1021.5" x2="1871" y1="672.498" y2="672.498"/><text fill="#000000" font-family="sans-serif" font-size="13" lengthAdjust="spacing" textLength="95" x="1401.75" y="667.7559">validate details</text><path d="M10,687.498 L72,687.498 L72,694.8086 L62,704.8086 L10,704.8086 L10,687.498 " fill="#EEEEEE" style="stroke:#000000;stroke-width:1.5;"/><rect fill="none" height="163.8633" style="stroke:#000000;stroke-width:1.5;" width="2479" x="10" y="687.498"/><text fill="#000000" font-family="sans-serif" font-size="13" font-weight="bold" lengthAdjust="spacing" textLength="17" x="25" y="701.0664">alt</text><text fill="#000000" font-family="sans-serif" font-size="11" font-weight="bold" lengthAdjust="spacing" textLength="133" x="87" y="700.1328">[invalid details entered]</text><polygon fill="#181818" points="1032.5,722.1191,1022.5,726.1191,1032.5,730.1191" style="stroke:#181818;stroke-width:1.0;"/><line style="stroke:#181818;stroke-width:1.0;" x1="1026.5" x2="1876" y1="726.1191" y2="726.1191"/><text fill="#000000" font-family="sans-serif" font-size="13" lengthAdjust="spacing" textLength="88" x="1405.25" y="721.377">invalid details</text><polygon fill="#181818" points="2331,751.4297,2341,755.4297,2331,759.4297" style="stroke:#181818;stroke-width:1.0;"/><line style="stroke:#181818;stroke-width:1.0;" x1="1021.5" x2="2337" y1="755.4297" y2="755.4297"/><text fill="#000000" font-family="sans-serif" font-size="13" lengthAdjust="spacing" textLength="169" x="1597.75" y="750.6875">request and build template</text><polygon fill="#181818" points="1032.5,780.7402,1022.5,784.7402,1032.5,788.7402" style="stroke:#181818;stroke-width:1.0;"/><line style="stroke:#181818;stroke-width:1.0;" x1="1026.5" x2="2342" y1="784.7402" y2="784.7402"/><text fill="#000000" font-family="sans-serif" font-size="13" lengthAdjust="spacing" textLength="78" x="1643.25" y="779.998">return HTML</text><polygon fill="#181818" points="582.5,810.0508,572.5,814.0508,582.5,818.0508" style="stroke:#181818;stroke-width:1.0;"/><line style="stroke:#181818;stroke-width:1.0;" x1="576.5" x2="1020.5" y1="814.0508" y2="814.0508"/><text fill="#000000" font-family="sans-serif" font-size="13" lengthAdjust="spacing" textLength="112" x="740.5" y="809.3086">return error HTML</text><polygon fill="#181818" points="56.5,839.3613,46.5,843.3613,56.5,847.3613" style="stroke:#181818;stroke-width:1.0;"/><line style="stroke:#181818;stroke-width:1.0;" x1="50.5" x2="570.5" y1="843.3613" y2="843.3613"/><text fill="#000000" font-family="sans-serif" font-size="13" lengthAdjust="spacing" textLength="133" x="242" y="838.6191">render error message</text><polygon fill="#181818" points="1032.5,875.6719,1022.5,879.6719,1032.5,883.6719" style="stroke:#181818;stroke-width:1.0;"/><line style="stroke:#181818;stroke-width:1.0;" x1="1026.5" x2="1876" y1="879.6719" y2="879.6719"/><text fill="#000000" font-family="sans-serif" font-size="13" lengthAdjust="spacing" textLength="127" x="1385.75" y="874.9297">valid details entered</text><polygon fill="#181818" points="1427,904.9824,1437,908.9824,1427,912.9824" style="stroke:#181818;stroke-width:1.0;"/><line style="stroke:#181818;stroke-width:1.0;" x1="1021.5" x2="1433" y1="908.9824" y2="908.9824"/><text fill="#000000" font-family="sans-serif" font-size="13" lengthAdjust="spacing" textLength="126" x="1167.25" y="904.2402">build request object</text><polygon fill="#181818" points="2717.5,934.293,2727.5,938.293,2717.5,942.293" style="stroke:#181818;stroke-width:1.0;"/><line style="stroke:#181818;stroke-width:1.0;" x1="1439" x2="2723.5" y1="938.293" y2="938.293"/><text fill="#000000" font-family="sans-serif" font-size="13" lengthAdjust="spacing" textLength="138" x="2015.25" y="933.5508">send backend request</text><path d="M10,953.293 L72,953.293 L72,960.6035 L62,970.6035 L10,970.6035 L10,953.293 " fill="#EEEEEE" style="stroke:#000000;stroke-width:1.5;"/><rect fill="none" height="193.1738" style="stroke:#000000;stroke-width:1.5;" width="2800" x="10" y="953.293"/><text fill="#000000" font-family="sans-serif" font-size="13" font-weight="bold" lengthAdjust="spacing" textLength="17" x="25" y="966.8613">alt</text><text fill="#000000" font-family="sans-serif" font-size="11" font-weight="bold" lengthAdjust="spacing" textLength="372" x="87" y="965.9277">[Failed to compare etags for when updating room location details]</text><polygon fill="#181818" points="1450,987.9141,1440,991.9141,1450,995.9141" style="stroke:#181818;stroke-width:1.0;"/><line style="stroke:#181818;stroke-width:1.0;stroke-dasharray:2.0,2.0;" x1="1444" x2="2728.5" y1="991.9141" y2="991.9141"/><text fill="#000000" font-family="sans-serif" font-size="13" lengthAdjust="spacing" textLength="91" x="2038.75" y="987.1719">error response</text><polygon fill="#181818" points="1032.5,1017.2246,1022.5,1021.2246,1032.5,1025.2246" style="stroke:#181818;stroke-width:1.0;"/><line style="stroke:#181818;stroke-width:1.0;stroke-dasharray:2.0,2.0;" x1="1026.5" x2="1438" y1="1021.2246" y2="1021.2246"/><text fill="#000000" font-family="sans-serif" font-size="13" lengthAdjust="spacing" textLength="127" x="1166.75" y="1016.4824">reject requestObject</text><polygon fill="#181818" points="2331,1046.5352,2341,1050.5352,2331,1054.5352" style="stroke:#181818;stroke-width:1.0;"/><line style="stroke:#181818;stroke-width:1.0;" x1="1021.5" x2="2337" y1="1050.5352" y2="1050.5352"/><text fill="#000000" font-family="sans-serif" font-size="13" lengthAdjust="spacing" textLength="169" x="1597.75" y="1045.793">request and build template</text><polygon fill="#181818" points="1032.5,1075.8457,1022.5,1079.8457,1032.5,1083.8457" style="stroke:#181818;stroke-width:1.0;"/><line style="stroke:#181818;stroke-width:1.0;" x1="1026.5" x2="2342" y1="1079.8457" y2="1079.8457"/><text fill="#000000" font-family="sans-serif" font-size="13" lengthAdjust="spacing" textLength="78" x="1643.25" y="1075.1035">return HTML</text><polygon fill="#181818" points="582.5,1105.1563,572.5,1109.1563,582.5,1113.1563" style="stroke:#181818;stroke-width:1.0;"/><line style="stroke:#181818;stroke-width:1.0;" x1="576.5" x2="1020.5" y1="1109.1563" y2="1109.1563"/><text fill="#000000" font-family="sans-serif" font-size="13" lengthAdjust="spacing" textLength="112" x="740.5" y="1104.4141">return error HTML</text><polygon fill="#181818" points="56.5,1134.4668,46.5,1138.4668,56.5,1142.4668" style="stroke:#181818;stroke-width:1.0;"/><line style="stroke:#181818;stroke-width:1.0;" x1="50.5" x2="570.5" y1="1138.4668" y2="1138.4668"/><text fill="#000000" font-family="sans-serif" font-size="13" lengthAdjust="spacing" textLength="133" x="242" y="1133.7246">render error message</text><polygon fill="#181818" points="1450,1170.7773,1440,1174.7773,1450,1178.7773" style="stroke:#181818;stroke-width:1.0;"/><line style="stroke:#181818;stroke-width:1.0;" x1="1444" x2="2728.5" y1="1174.7773" y2="1174.7773"/><text fill="#000000" font-family="sans-serif" font-size="13" lengthAdjust="spacing" textLength="77" x="2045.75" y="1170.0352">ok response</text><polygon fill="#181818" points="1032.5,1200.0879,1022.5,1204.0879,1032.5,1208.0879" style="stroke:#181818;stroke-width:1.0;"/><line style="stroke:#181818;stroke-width:1.0;" x1="1026.5" x2="1438" y1="1204.0879" y2="1204.0879"/><text fill="#000000" font-family="sans-serif" font-size="13" lengthAdjust="spacing" textLength="96" x="1182.25" y="1199.3457">resolve request</text><path d="M10,1219.0879 L72,1219.0879 L72,1226.3984 L62,1236.3984 L10,1236.3984 L10,1219.0879 " fill="#EEEEEE" style="stroke:#000000;stroke-width:1.5;"/><rect fill="none" height="134.5527" style="stroke:#000000;stroke-width:1.5;" width="2479" x="10" y="1219.0879"/><text fill="#000000" font-family="sans-serif" font-size="13" font-weight="bold" lengthAdjust="spacing" textLength="17" x="25" y="1232.6563">alt</text><text fill="#000000" font-family="sans-serif" font-size="11" font-weight="bold" lengthAdjust="spacing" textLength="334" x="87" y="1231.7227">[Room location details have been updated by another usert]</text><polygon fill="#181818" points="2331,1253.709,2341,1257.709,2331,1261.709" style="stroke:#181818;stroke-width:1.0;"/><line style="stroke:#181818;stroke-width:1.0;" x1="1021.5" x2="2337" y1="1257.709" y2="1257.709"/><text fill="#000000" font-family="sans-serif" font-size="13" lengthAdjust="spacing" textLength="169" x="1597.75" y="1252.9668">request and build template</text><polygon fill="#181818" points="1032.5,1283.0195,1022.5,1287.0195,1032.5,1291.0195" style="stroke:#181818;stroke-width:1.0;"/><line style="stroke:#181818;stroke-width:1.0;" x1="1026.5" x2="2342" y1="1287.0195" y2="1287.0195"/><text fill="#000000" font-family="sans-serif" font-size="13" lengthAdjust="spacing" textLength="78" x="1643.25" y="1282.2773">return HTML</text><polygon fill="#181818" points="582.5,1312.3301,572.5,1316.3301,582.5,1320.3301" style="stroke:#181818;stroke-width:1.0;"/><line style="stroke:#181818;stroke-width:1.0;" x1="576.5" x2="1020.5" y1="1316.3301" y2="1316.3301"/><text fill="#000000" font-family="sans-serif" font-size="13" lengthAdjust="spacing" textLength="112" x="740.5" y="1311.5879">return error HTML</text><polygon fill="#181818" points="56.5,1341.6406,46.5,1345.6406,56.5,1349.6406" style="stroke:#181818;stroke-width:1.0;"/><line style="stroke:#181818;stroke-width:1.0;" x1="50.5" x2="570.5" y1="1345.6406" y2="1345.6406"/><text fill="#000000" font-family="sans-serif" font-size="13" lengthAdjust="spacing" textLength="133" x="242" y="1340.8984">render error message</text><polygon fill="#181818" points="1650,1377.9512,1660,1381.9512,1650,1385.9512" style="stroke:#181818;stroke-width:1.0;"/><line style="stroke:#181818;stroke-width:1.0;" x1="1021.5" x2="1656" y1="1381.9512" y2="1381.9512"/><text fill="#000000" font-family="sans-serif" font-size="13" lengthAdjust="spacing" textLength="126" x="1278.75" y="1377.209">build request object</text><polygon fill="#181818" points="2717.5,1407.2617,2727.5,1411.2617,2717.5,1415.2617" style="stroke:#181818;stroke-width:1.0;"/><line style="stroke:#181818;stroke-width:1.0;" x1="1662" x2="2723.5" y1="1411.2617" y2="1411.2617"/><text fill="#000000" font-family="sans-serif" font-size="13" lengthAdjust="spacing" textLength="138" x="2126.75" y="1406.5195">send backend request</text><path d="M10,1426.2617 L72,1426.2617 L72,1433.5723 L62,1443.5723 L10,1443.5723 L10,1426.2617 " fill="#EEEEEE" style="stroke:#000000;stroke-width:1.5;"/><rect fill="none" height="193.1738" style="stroke:#000000;stroke-width:1.5;" width="2800" x="10" y="1426.2617"/><text fill="#000000" font-family="sans-serif" font-size="13" font-weight="bold" lengthAdjust="spacing" textLength="17" x="25" y="1439.8301">alt</text><text fill="#000000" font-family="sans-serif" font-size="11" font-weight="bold" lengthAdjust="spacing" textLength="201" x="87" y="1438.8965">[Failed to update courtroom details]</text><polygon fill="#181818" points="1673,1460.8828,1663,1464.8828,1673,1468.8828" style="stroke:#181818;stroke-width:1.0;"/><line style="stroke:#181818;stroke-width:1.0;stroke-dasharray:2.0,2.0;" x1="1667" x2="2728.5" y1="1464.8828" y2="1464.8828"/><text fill="#000000" font-family="sans-serif" font-size="13" lengthAdjust="spacing" textLength="91" x="2150.25" y="1460.1406">error response</text><polygon fill="#181818" points="1032.5,1490.1934,1022.5,1494.1934,1032.5,1498.1934" style="stroke:#181818;stroke-width:1.0;"/><line style="stroke:#181818;stroke-width:1.0;stroke-dasharray:2.0,2.0;" x1="1026.5" x2="1661" y1="1494.1934" y2="1494.1934"/><text fill="#000000" font-family="sans-serif" font-size="13" lengthAdjust="spacing" textLength="127" x="1278.25" y="1489.4512">reject requestObject</text><polygon fill="#181818" points="2331,1519.5039,2341,1523.5039,2331,1527.5039" style="stroke:#181818;stroke-width:1.0;"/><line style="stroke:#181818;stroke-width:1.0;" x1="1021.5" x2="2337" y1="1523.5039" y2="1523.5039"/><text fill="#000000" font-family="sans-serif" font-size="13" lengthAdjust="spacing" textLength="169" x="1597.75" y="1518.7617">request and build template</text><polygon fill="#181818" points="1032.5,1548.8145,1022.5,1552.8145,1032.5,1556.8145" style="stroke:#181818;stroke-width:1.0;"/><line style="stroke:#181818;stroke-width:1.0;" x1="1026.5" x2="2342" y1="1552.8145" y2="1552.8145"/><text fill="#000000" font-family="sans-serif" font-size="13" lengthAdjust="spacing" textLength="78" x="1643.25" y="1548.0723">return HTML</text><polygon fill="#181818" points="582.5,1578.125,572.5,1582.125,582.5,1586.125" style="stroke:#181818;stroke-width:1.0;"/><line style="stroke:#181818;stroke-width:1.0;" x1="576.5" x2="1020.5" y1="1582.125" y2="1582.125"/><text fill="#000000" font-family="sans-serif" font-size="13" lengthAdjust="spacing" textLength="112" x="740.5" y="1577.3828">return error HTML</text><polygon fill="#181818" points="56.5,1607.4355,46.5,1611.4355,56.5,1615.4355" style="stroke:#181818;stroke-width:1.0;"/><line style="stroke:#181818;stroke-width:1.0;" x1="50.5" x2="570.5" y1="1611.4355" y2="1611.4355"/><text fill="#000000" font-family="sans-serif" font-size="13" lengthAdjust="spacing" textLength="133" x="242" y="1606.6934">render error message</text><polygon fill="#181818" points="1673,1643.7461,1663,1647.7461,1673,1651.7461" style="stroke:#181818;stroke-width:1.0;"/><line style="stroke:#181818;stroke-width:1.0;" x1="1667" x2="2728.5" y1="1647.7461" y2="1647.7461"/><text fill="#000000" font-family="sans-serif" font-size="13" lengthAdjust="spacing" textLength="77" x="2157.25" y="1643.0039">ok response</text><polygon fill="#181818" points="1032.5,1673.0566,1022.5,1677.0566,1032.5,1681.0566" style="stroke:#181818;stroke-width:1.0;"/><line style="stroke:#181818;stroke-width:1.0;" x1="1026.5" x2="1661" y1="1677.0566" y2="1677.0566"/><text fill="#000000" font-family="sans-serif" font-size="13" lengthAdjust="spacing" textLength="96" x="1293.75" y="1672.3145">resolve request</text><polygon fill="#181818" points="1009.5,1702.3672,1019.5,1706.3672,1009.5,1710.3672" style="stroke:#181818;stroke-width:1.0;"/><line style="stroke:#181818;stroke-width:1.0;" x1="231" x2="1015.5" y1="1706.3672" y2="1706.3672"/><text fill="#000000" font-family="sans-serif" font-size="13" lengthAdjust="spacing" textLength="131" x="560.75" y="1701.625">call rooms controller</text><polygon fill="#181818" points="1222.5,1731.6777,1232.5,1735.6777,1222.5,1739.6777" style="stroke:#181818;stroke-width:1.0;"/><line style="stroke:#181818;stroke-width:1.0;" x1="1021.5" x2="1228.5" y1="1735.6777" y2="1735.6777"/><text fill="#000000" font-family="sans-serif" font-size="13" lengthAdjust="spacing" textLength="126" x="1065" y="1730.9355">build request object</text><polygon fill="#181818" points="2717.5,1760.9883,2727.5,1764.9883,2717.5,1768.9883" style="stroke:#181818;stroke-width:1.0;"/><line style="stroke:#181818;stroke-width:1.0;" x1="1234.5" x2="2723.5" y1="1764.9883" y2="1764.9883"/><text fill="#000000" font-family="sans-serif" font-size="13" lengthAdjust="spacing" textLength="138" x="1913" y="1760.2461">send backend request</text><path d="M10,1779.9883 L72,1779.9883 L72,1787.2988 L62,1797.2988 L10,1797.2988 L10,1779.9883 " fill="#EEEEEE" style="stroke:#000000;stroke-width:1.5;"/><rect fill="none" height="193.1738" style="stroke:#000000;stroke-width:1.5;" width="2800" x="10" y="1779.9883"/><text fill="#000000" font-family="sans-serif" font-size="13" font-weight="bold" lengthAdjust="spacing" textLength="17" x="25" y="1793.5566">alt</text><text fill="#000000" font-family="sans-serif" font-size="11" font-weight="bold" lengthAdjust="spacing" textLength="152" x="87" y="1792.623">[Failed to fetch courtooms]</text><polygon fill="#181818" points="1245.5,1814.6094,1235.5,1818.6094,1245.5,1822.6094" style="stroke:#181818;stroke-width:1.0;"/><line style="stroke:#181818;stroke-width:1.0;stroke-dasharray:2.0,2.0;" x1="1239.5" x2="2728.5" y1="1818.6094" y2="1818.6094"/><text fill="#000000" font-family="sans-serif" font-size="13" lengthAdjust="spacing" textLength="91" x="1936.5" y="1813.8672">error response</text><polygon fill="#181818" points="1032.5,1843.9199,1022.5,1847.9199,1032.5,1851.9199" style="stroke:#181818;stroke-width:1.0;"/><line style="stroke:#181818;stroke-width:1.0;stroke-dasharray:2.0,2.0;" x1="1026.5" x2="1233.5" y1="1847.9199" y2="1847.9199"/><text fill="#000000" font-family="sans-serif" font-size="13" lengthAdjust="spacing" textLength="127" x="1064.5" y="1843.1777">reject requestObject</text><polygon fill="#181818" points="2557,1873.2305,2567,1877.2305,2557,1881.2305" style="stroke:#181818;stroke-width:1.0;"/><line style="stroke:#181818;stroke-width:1.0;" x1="1021.5" x2="2563" y1="1877.2305" y2="1877.2305"/><text fill="#000000" font-family="sans-serif" font-size="13" lengthAdjust="spacing" textLength="169" x="1710.75" y="1872.4883">request and build template</text><polygon fill="#181818" points="1032.5,1902.541,1022.5,1906.541,1032.5,1910.541" style="stroke:#181818;stroke-width:1.0;"/><line style="stroke:#181818;stroke-width:1.0;" x1="1026.5" x2="2568" y1="1906.541" y2="1906.541"/><text fill="#000000" font-family="sans-serif" font-size="13" lengthAdjust="spacing" textLength="78" x="1756.25" y="1901.7988">return HTML</text><polygon fill="#181818" points="840,1931.8516,830,1935.8516,840,1939.8516" style="stroke:#181818;stroke-width:1.0;"/><line style="stroke:#181818;stroke-width:1.0;" x1="834" x2="1020.5" y1="1935.8516" y2="1935.8516"/><text fill="#000000" font-family="sans-serif" font-size="13" lengthAdjust="spacing" textLength="78" x="886.25" y="1931.1094">return HTML</text><polygon fill="#181818" points="56.5,1961.1621,46.5,1965.1621,56.5,1969.1621" style="stroke:#181818;stroke-width:1.0;"/><line style="stroke:#181818;stroke-width:1.0;" x1="50.5" x2="828" y1="1965.1621" y2="1965.1621"/><text fill="#000000" font-family="sans-serif" font-size="13" lengthAdjust="spacing" textLength="108" x="383.25" y="1960.4199">render error page</text><polygon fill="#181818" points="1245.5,1997.4727,1235.5,2001.4727,1245.5,2005.4727" style="stroke:#181818;stroke-width:1.0;"/><line style="stroke:#181818;stroke-width:1.0;" x1="1239.5" x2="2728.5" y1="2001.4727" y2="2001.4727"/><text fill="#000000" font-family="sans-serif" font-size="13" lengthAdjust="spacing" textLength="77" x="1943.5" y="1996.7305">ok response</text><polygon fill="#181818" points="1032.5,2026.7832,1022.5,2030.7832,1032.5,2034.7832" style="stroke:#181818;stroke-width:1.0;"/><line style="stroke:#181818;stroke-width:1.0;" x1="1026.5" x2="1233.5" y1="2030.7832" y2="2030.7832"/><text fill="#000000" font-family="sans-serif" font-size="13" lengthAdjust="spacing" textLength="96" x="1080" y="2026.041">resolve request</text><polygon fill="#181818" points="2079.5,2056.0938,2089.5,2060.0938,2079.5,2064.0938" style="stroke:#181818;stroke-width:1.0;"/><line style="stroke:#181818;stroke-width:1.0;" x1="1021.5" x2="2085.5" y1="2060.0938" y2="2060.0938"/><text fill="#000000" font-family="sans-serif" font-size="13" lengthAdjust="spacing" textLength="169" x="1472" y="2055.3516">request and build template</text><polygon fill="#181818" points="1032.5,2085.4043,1022.5,2089.4043,1032.5,2093.4043" style="stroke:#181818;stroke-width:1.0;"/><line style="stroke:#181818;stroke-width:1.0;" x1="1026.5" x2="2090.5" y1="2089.4043" y2="2089.4043"/><text fill="#000000" font-family="sans-serif" font-size="13" lengthAdjust="spacing" textLength="78" x="1517.5" y="2084.6621">return HTML</text><polygon fill="#181818" points="242,2114.7148,232,2118.7148,242,2122.7148" style="stroke:#181818;stroke-width:1.0;"/><line style="stroke:#181818;stroke-width:1.0;" x1="236" x2="1020.5" y1="2118.7148" y2="2118.7148"/><text fill="#000000" font-family="sans-serif" font-size="13" lengthAdjust="spacing" textLength="78" x="587.25" y="2113.9727">return HTML</text><polygon fill="#181818" points="56.5,2144.0254,46.5,2148.0254,56.5,2152.0254" style="stroke:#181818;stroke-width:1.0;"/><line style="stroke:#181818;stroke-width:1.0;" x1="50.5" x2="230" y1="2148.0254" y2="2148.0254"/><text fill="#000000" font-family="sans-serif" font-size="13" lengthAdjust="spacing" textLength="80" x="98.25" y="2143.2832">render HTML</text><!--SRC=[rLTHJzim47xthxXfI0o9b7U4a489Z2qGreQzJcbojAQktTaE4_z-5oTj2Oq34snYVQWQ- -uxVtVVdPiPBn1AARYSOy4O-y1bBafQcw94pVDW8bG-DuEboAGj5u8nC-TocUbi0MFx812C9RDg2nvluSyIPOwNQ4msnL3mgLoWj93J5sh6oCpod2y95SBSAbhQtTs5E1c6COoIc_JYwhnbD59gOQu92uwE3h9YmIMdo9dbIXvesWledEx9k4TpVDoEKHH_W90LHO05jq6r_WJfl4vCfBNIApIi7iZESHWcL-aeYUDe1E7LAOoYRpVHE8Nav4iqJCTRfE9LrA6ILYiXK1EaL38mt5ekfq6HFPX1ljuTt14v-4WfdTa754BzycCcaplCBU7bgjJM9UOqJ0PJj9_s-a26A_DJj1aN7JZDnelGRfP5Pl4b1rkMpq0rTNmMHvaE85UUiuiuZKPZLvllONnn6gR9QDpB_dicE35G6ZwUAr7KE6bqUHs7QRHTKPFYWlh5-eHc1l9klgtFY0Jtd7jBc1qmJfMF_7yuPPg3ffjh3qfATe-omARfJiBXruYoiH5k2_Cao-TalP4dOwvZ8JZUTEKXv8BdSwWE1zNXe1efRDDpZN6Nsiat4y9v6SWVXV4v49P7e8SmARaeG5VpnrXGRfbvh0bdYnn165g0IRsnGc8i4nREo1aBi0fkqUOpM8iEYXgO0NrypHC4dU5SYIYEMH9BT0ZUkK0GNkOQtO_cmFMoGzlHhjXF1zSdJvJzjehs67apvYNLoKdDDuJyPFgu62NkSPFz7YbqjixXMW9PLKmd2jjilZ5Q3pylc2srXC_fPSpQ5rFGqoGjBzU0TOIDUsLJLRgssNJfOwF3kaKRlJe-TUSQcWdjq_Isx7L2Tzgs_jdEVJqiyK9MmzohCU-CtU_CsdwBnDwxdWsvMj3yH22ygO5Rgi6l6KeegrkGxlDcF3Pd_nycXvi7YJnJUk4lw4kgzXucILMhKLS5O4OT01DSbOgAENcW1b5sHZ5AW_el9gL7plv_Jnv5-nrU8Uew9PuRh-SFtjj8joy7_rQzVLHV8-1-Xayql7fBC-K4sgykwnUr3pNvTLyu3kmt]--></g></svg>