<?xml version="1.0" encoding="us-ascii" standalone="no"?><svg xmlns="http://www.w3.org/2000/svg" xmlns:xlink="http://www.w3.org/1999/xlink" contentStyleType="text/css" height="1967px" preserveAspectRatio="none" style="width:2568px;height:1967px;background:#FFFFFF;" version="1.1" viewBox="0 0 2568 1967" width="2568px" zoomAndPan="magnify"><defs/><g><rect fill="none" height="193.1738" style="stroke:#000000;stroke-width:1.5;" width="2532" x="20" y="187.2188"/><rect fill="none" height="193.1738" style="stroke:#000000;stroke-width:1.5;" width="2532" x="20" y="511.6348"/><rect fill="none" height="517.5898" style="stroke:#000000;stroke-width:1.5;" width="2552" x="10" y="894.6719"/><rect fill="none" height="193.1738" style="stroke:#000000;stroke-width:1.5;" width="2532" x="20" y="1036.2246"/><rect fill="none" height="517.5898" style="stroke:#000000;stroke-width:1.5;" width="2552" x="10" y="1426.2617"/><rect fill="none" height="193.1738" style="stroke:#000000;stroke-width:1.5;" width="2532" x="20" y="1567.8145"/><line style="stroke:#181818;stroke-width:0.5;stroke-dasharray:5.0,5.0;" x1="55" x2="55" y1="52.9766" y2="1960.8516"/><line style="stroke:#181818;stroke-width:0.5;stroke-dasharray:5.0,5.0;" x1="484" x2="484" y1="52.9766" y2="1960.8516"/><line style="stroke:#181818;stroke-width:0.5;stroke-dasharray:5.0,5.0;" x1="740" x2="740" y1="52.9766" y2="1960.8516"/><line style="stroke:#181818;stroke-width:0.5;stroke-dasharray:5.0,5.0;" x1="952" x2="952" y1="52.9766" y2="1960.8516"/><line style="stroke:#181818;stroke-width:0.5;stroke-dasharray:5.0,5.0;" x1="1104" x2="1104" y1="52.9766" y2="1960.8516"/><line style="stroke:#181818;stroke-width:0.5;stroke-dasharray:5.0,5.0;" x1="1259" x2="1259" y1="52.9766" y2="1960.8516"/><line style="stroke:#181818;stroke-width:0.5;stroke-dasharray:5.0,5.0;" x1="1408" x2="1408" y1="52.9766" y2="1960.8516"/><line style="stroke:#181818;stroke-width:0.5;stroke-dasharray:5.0,5.0;" x1="1573" x2="1573" y1="52.9766" y2="1960.8516"/><line style="stroke:#181818;stroke-width:0.5;stroke-dasharray:5.0,5.0;" x1="1793" x2="1793" y1="52.9766" y2="1960.8516"/><line style="stroke:#181818;stroke-width:0.5;stroke-dasharray:5.0,5.0;" x1="2074" x2="2074" y1="52.9766" y2="1960.8516"/><line style="stroke:#181818;stroke-width:0.5;stroke-dasharray:5.0,5.0;" x1="2311" x2="2311" y1="52.9766" y2="1960.8516"/><line style="stroke:#181818;stroke-width:0.5;stroke-dasharray:5.0,5.0;" x1="2471" x2="2471" y1="52.9766" y2="1960.8516"/><rect fill="#E2E2F0" height="30.4883" rx="2.5" ry="2.5" style="stroke:#181818;stroke-width:0.5;" width="51" x="30" y="21.4883"/><text fill="#000000" font-family="sans-serif" font-size="14" lengthAdjust="spacing" textLength="37" x="37" y="42.0234">Actor</text><rect fill="#E2E2F0" height="46.9766" rx="2.5" ry="2.5" style="stroke:#181818;stroke-width:0.5;" width="223" x="373" y="5"/><text fill="#000000" font-family="sans-serif" font-size="14" font-style="italic" lengthAdjust="spacing" textLength="209" x="380" y="25.5352">&#171;/administration/users/users&#187;</text><text fill="#000000" font-family="sans-serif" font-size="14" lengthAdjust="spacing" textLength="71" x="449" y="42.0234">UsersPage</text><rect fill="#E2E2F0" height="46.9766" rx="2.5" ry="2.5" style="stroke:#181818;stroke-width:0.5;" width="269" x="606" y="5"/><text fill="#000000" font-family="sans-serif" font-size="14" font-style="italic" lengthAdjust="spacing" textLength="255" x="613" y="25.5352">&#171;/administration/users/user-record&#187;</text><text fill="#000000" font-family="sans-serif" font-size="14" lengthAdjust="spacing" textLength="112" x="684.5" y="42.0234">UserRecordPage</text><rect fill="#E2E2F0" height="46.9766" rx="2.5" ry="2.5" style="stroke:#181818;stroke-width:0.5;" width="134" x="885" y="5"/><text fill="#000000" font-family="sans-serif" font-size="14" font-style="italic" lengthAdjust="spacing" textLength="56" x="924" y="25.5352">&#171;/error&#187;</text><text fill="#000000" font-family="sans-serif" font-size="14" lengthAdjust="spacing" textLength="120" x="892" y="42.0234">GenericErrorPage</text><rect fill="#FFFFE0" height="46.9766" rx="2.5" ry="2.5" style="stroke:#181818;stroke-width:0.5;" width="151" x="1029" y="5"/><text fill="#000000" font-family="sans-serif" font-size="14" font-style="italic" lengthAdjust="spacing" textLength="137" x="1036" y="25.5352">&#171;users.controller.js&#187;</text><text fill="#000000" font-family="sans-serif" font-size="14" lengthAdjust="spacing" textLength="108" x="1050.5" y="42.0234">UsersController</text><rect fill="#FFFFE0" height="46.9766" rx="2.5" ry="2.5" style="stroke:#181818;stroke-width:0.5;" width="138" x="1190" y="5"/><text fill="#000000" font-family="sans-serif" font-size="14" font-style="italic" lengthAdjust="spacing" textLength="124" x="1197" y="25.5352">&#171;courtsDAO.get()&#187;</text><text fill="#000000" font-family="sans-serif" font-size="14" lengthAdjust="spacing" textLength="90" x="1214" y="42.0234">CourtsObject</text><rect fill="#FFFFE0" height="46.9766" rx="2.5" ry="2.5" style="stroke:#181818;stroke-width:0.5;" width="140" x="1338" y="5"/><text fill="#000000" font-family="sans-serif" font-size="14" font-style="italic" lengthAdjust="spacing" textLength="126" x="1345" y="25.5352">&#171;usersDAO.post()&#187;</text><text fill="#000000" font-family="sans-serif" font-size="14" lengthAdjust="spacing" textLength="82" x="1367" y="42.0234">UsersObject</text><rect fill="#FFFFE0" height="46.9766" rx="2.5" ry="2.5" style="stroke:#181818;stroke-width:0.5;" width="171" x="1488" y="5"/><text fill="#000000" font-family="sans-serif" font-size="14" font-style="italic" lengthAdjust="spacing" textLength="157" x="1495" y="25.5352">&#171;userRecordDAo.get()&#187;</text><text fill="#000000" font-family="sans-serif" font-size="14" lengthAdjust="spacing" textLength="123" x="1512" y="42.0234">UserRecordObject</text><rect fill="#E2E2F0" height="46.9766" rx="2.5" ry="2.5" style="stroke:#181818;stroke-width:0.5;" width="248" x="1669" y="5"/><text fill="#000000" font-family="sans-serif" font-size="14" font-style="italic" lengthAdjust="spacing" textLength="234" x="1676" y="25.5352">&#171;/administration/users/users.njk&#187;</text><text fill="#000000" font-family="sans-serif" font-size="14" lengthAdjust="spacing" textLength="102" x="1742" y="42.0234">UsersTemplate</text><rect fill="#E2E2F0" height="46.9766" rx="2.5" ry="2.5" style="stroke:#181818;stroke-width:0.5;" width="294" x="1927" y="5"/><text fill="#000000" font-family="sans-serif" font-size="14" font-style="italic" lengthAdjust="spacing" textLength="280" x="1934" y="25.5352">&#171;/administration/users/user-record.njk&#187;</text><text fill="#000000" font-family="sans-serif" font-size="14" lengthAdjust="spacing" textLength="143" x="2002.5" y="42.0234">UserRecordTemplate</text><rect fill="#E6E6FA" height="46.9766" rx="2.5" ry="2.5" style="stroke:#181818;stroke-width:0.5;" width="160" x="2231" y="5"/><text fill="#000000" font-family="sans-serif" font-size="14" font-style="italic" lengthAdjust="spacing" textLength="146" x="2238" y="25.5352">&#171;_errors/generic.njk&#187;</text><text fill="#000000" font-family="sans-serif" font-size="14" lengthAdjust="spacing" textLength="99" x="2261.5" y="42.0234">ErrorTemplate</text><rect fill="#E2E2F0" height="30.4883" rx="2.5" ry="2.5" style="stroke:#181818;stroke-width:0.5;" width="141" x="2401" y="21.4883"/><text fill="#000000" font-family="sans-serif" font-size="14" lengthAdjust="spacing" textLength="127" x="2408" y="42.0234">BackendController</text><polygon fill="#181818" points="472.5,80.2871,482.5,84.2871,472.5,88.2871" style="stroke:#181818;stroke-width:1.0;"/><line style="stroke:#181818;stroke-width:1.0;" x1="55.5" x2="478.5" y1="84.2871" y2="84.2871"/><text fill="#000000" font-family="sans-serif" font-size="13" lengthAdjust="spacing" textLength="92" x="224" y="79.5449">click users tab</text><polygon fill="#181818" points="1092.5,109.5977,1102.5,113.5977,1092.5,117.5977" style="stroke:#181818;stroke-width:1.0;"/><line style="stroke:#181818;stroke-width:1.0;" x1="484.5" x2="1098.5" y1="113.5977" y2="113.5977"/><text fill="#000000" font-family="sans-serif" font-size="13" lengthAdjust="spacing" textLength="125" x="732" y="108.8555">call users controller</text><polygon fill="#181818" points="1247,138.9082,1257,142.9082,1247,146.9082" style="stroke:#181818;stroke-width:1.0;"/><line style="stroke:#181818;stroke-width:1.0;" x1="1104.5" x2="1253" y1="142.9082" y2="142.9082"/><text fill="#000000" font-family="sans-serif" font-size="13" lengthAdjust="spacing" textLength="126" x="1118.75" y="138.166">build request object</text><polygon fill="#181818" points="2459.5,168.2188,2469.5,172.2188,2459.5,176.2188" style="stroke:#181818;stroke-width:1.0;"/><line style="stroke:#181818;stroke-width:1.0;" x1="1259" x2="2465.5" y1="172.2188" y2="172.2188"/><text fill="#000000" font-family="sans-serif" font-size="13" lengthAdjust="spacing" textLength="138" x="1796.25" y="167.4766">send backend request</text><path d="M20,187.2188 L82,187.2188 L82,194.5293 L72,204.5293 L20,204.5293 L20,187.2188 " fill="#EEEEEE" style="stroke:#000000;stroke-width:1.5;"/><rect fill="none" height="193.1738" style="stroke:#000000;stroke-width:1.5;" width="2532" x="20" y="187.2188"/><text fill="#000000" font-family="sans-serif" font-size="13" font-weight="bold" lengthAdjust="spacing" textLength="17" x="35" y="200.7871">alt</text><text fill="#000000" font-family="sans-serif" font-size="11" font-weight="bold" lengthAdjust="spacing" textLength="165" x="97" y="199.8535">[Failed to fetch list of courts]</text><polygon fill="#181818" points="1270,221.8398,1260,225.8398,1270,229.8398" style="stroke:#181818;stroke-width:1.0;"/><line style="stroke:#181818;stroke-width:1.0;stroke-dasharray:2.0,2.0;" x1="1264" x2="2470.5" y1="225.8398" y2="225.8398"/><text fill="#000000" font-family="sans-serif" font-size="13" lengthAdjust="spacing" textLength="91" x="1819.75" y="221.0977">Error response</text><polygon fill="#181818" points="1115.5,251.1504,1105.5,255.1504,1115.5,259.1504" style="stroke:#181818;stroke-width:1.0;"/><line style="stroke:#181818;stroke-width:1.0;stroke-dasharray:2.0,2.0;" x1="1109.5" x2="1258" y1="255.1504" y2="255.1504"/><text fill="#000000" font-family="sans-serif" font-size="13" lengthAdjust="spacing" textLength="127" x="1118.25" y="250.4082">reject requestObject</text><polygon fill="#181818" points="2299,280.4609,2309,284.4609,2299,288.4609" style="stroke:#181818;stroke-width:1.0;"/><line style="stroke:#181818;stroke-width:1.0;" x1="1104.5" x2="2305" y1="284.4609" y2="284.4609"/><text fill="#000000" font-family="sans-serif" font-size="13" lengthAdjust="spacing" textLength="169" x="1623.25" y="279.7188">request and build template</text><polygon fill="#181818" points="1115.5,309.7715,1105.5,313.7715,1115.5,317.7715" style="stroke:#181818;stroke-width:1.0;"/><line style="stroke:#181818;stroke-width:1.0;" x1="1109.5" x2="2310" y1="313.7715" y2="313.7715"/><text fill="#000000" font-family="sans-serif" font-size="13" lengthAdjust="spacing" textLength="78" x="1668.75" y="309.0293">return HTML</text><polygon fill="#181818" points="963,339.082,953,343.082,963,347.082" style="stroke:#181818;stroke-width:1.0;"/><line style="stroke:#181818;stroke-width:1.0;" x1="957" x2="1103.5" y1="343.082" y2="343.082"/><text fill="#000000" font-family="sans-serif" font-size="13" lengthAdjust="spacing" textLength="78" x="989.25" y="338.3398">return HTML</text><polygon fill="#181818" points="66.5,368.3926,56.5,372.3926,66.5,376.3926" style="stroke:#181818;stroke-width:1.0;"/><line style="stroke:#181818;stroke-width:1.0;" x1="60.5" x2="951" y1="372.3926" y2="372.3926"/><text fill="#000000" font-family="sans-serif" font-size="13" lengthAdjust="spacing" textLength="108" x="449.75" y="367.6504">render error page</text><polygon fill="#181818" points="1270,404.7031,1260,408.7031,1270,412.7031" style="stroke:#181818;stroke-width:1.0;"/><line style="stroke:#181818;stroke-width:1.0;" x1="1264" x2="2470.5" y1="408.7031" y2="408.7031"/><text fill="#000000" font-family="sans-serif" font-size="13" lengthAdjust="spacing" textLength="77" x="1826.75" y="403.9609">ok response</text><polygon fill="#181818" points="1115.5,434.0137,1105.5,438.0137,1115.5,442.0137" style="stroke:#181818;stroke-width:1.0;"/><line style="stroke:#181818;stroke-width:1.0;" x1="1109.5" x2="1258" y1="438.0137" y2="438.0137"/><text fill="#000000" font-family="sans-serif" font-size="13" lengthAdjust="spacing" textLength="96" x="1133.75" y="433.2715">resolve request</text><polygon fill="#181818" points="1396,463.3242,1406,467.3242,1396,471.3242" style="stroke:#181818;stroke-width:1.0;"/><line style="stroke:#181818;stroke-width:1.0;" x1="1104.5" x2="1402" y1="467.3242" y2="467.3242"/><text fill="#000000" font-family="sans-serif" font-size="13" lengthAdjust="spacing" textLength="126" x="1193.25" y="462.582">build request object</text><polygon fill="#181818" points="2459.5,492.6348,2469.5,496.6348,2459.5,500.6348" style="stroke:#181818;stroke-width:1.0;"/><line style="stroke:#181818;stroke-width:1.0;" x1="1408" x2="2465.5" y1="496.6348" y2="496.6348"/><text fill="#000000" font-family="sans-serif" font-size="13" lengthAdjust="spacing" textLength="138" x="1870.75" y="491.8926">send backend request</text><path d="M20,511.6348 L82,511.6348 L82,518.9453 L72,528.9453 L20,528.9453 L20,511.6348 " fill="#EEEEEE" style="stroke:#000000;stroke-width:1.5;"/><rect fill="none" height="193.1738" style="stroke:#000000;stroke-width:1.5;" width="2532" x="20" y="511.6348"/><text fill="#000000" font-family="sans-serif" font-size="13" font-weight="bold" lengthAdjust="spacing" textLength="17" x="35" y="525.2031">alt</text><text fill="#000000" font-family="sans-serif" font-size="11" font-weight="bold" lengthAdjust="spacing" textLength="160" x="97" y="524.2695">[Failed to fetch list of users]</text><polygon fill="#181818" points="1419,546.2559,1409,550.2559,1419,554.2559" style="stroke:#181818;stroke-width:1.0;"/><line style="stroke:#181818;stroke-width:1.0;stroke-dasharray:2.0,2.0;" x1="1413" x2="2470.5" y1="550.2559" y2="550.2559"/><text fill="#000000" font-family="sans-serif" font-size="13" lengthAdjust="spacing" textLength="91" x="1894.25" y="545.5137">Error response</text><polygon fill="#181818" points="1115.5,575.5664,1105.5,579.5664,1115.5,583.5664" style="stroke:#181818;stroke-width:1.0;"/><line style="stroke:#181818;stroke-width:1.0;stroke-dasharray:2.0,2.0;" x1="1109.5" x2="1407" y1="579.5664" y2="579.5664"/><text fill="#000000" font-family="sans-serif" font-size="13" lengthAdjust="spacing" textLength="127" x="1192.75" y="574.8242">reject requestObject</text><polygon fill="#181818" points="2299,604.877,2309,608.877,2299,612.877" style="stroke:#181818;stroke-width:1.0;"/><line style="stroke:#181818;stroke-width:1.0;" x1="1104.5" x2="2305" y1="608.877" y2="608.877"/><text fill="#000000" font-family="sans-serif" font-size="13" lengthAdjust="spacing" textLength="169" x="1623.25" y="604.1348">request and build template</text><polygon fill="#181818" points="1115.5,634.1875,1105.5,638.1875,1115.5,642.1875" style="stroke:#181818;stroke-width:1.0;"/><line style="stroke:#181818;stroke-width:1.0;" x1="1109.5" x2="2310" y1="638.1875" y2="638.1875"/><text fill="#000000" font-family="sans-serif" font-size="13" lengthAdjust="spacing" textLength="78" x="1668.75" y="633.4453">return HTML</text><polygon fill="#181818" points="963,663.498,953,667.498,963,671.498" style="stroke:#181818;stroke-width:1.0;"/><line style="stroke:#181818;stroke-width:1.0;" x1="957" x2="1103.5" y1="667.498" y2="667.498"/><text fill="#000000" font-family="sans-serif" font-size="13" lengthAdjust="spacing" textLength="78" x="989.25" y="662.7559">return HTML</text><polygon fill="#181818" points="66.5,692.8086,56.5,696.8086,66.5,700.8086" style="stroke:#181818;stroke-width:1.0;"/><line style="stroke:#181818;stroke-width:1.0;" x1="60.5" x2="951" y1="696.8086" y2="696.8086"/><text fill="#000000" font-family="sans-serif" font-size="13" lengthAdjust="spacing" textLength="108" x="449.75" y="692.0664">render error page</text><polygon fill="#181818" points="1419,729.1191,1409,733.1191,1419,737.1191" style="stroke:#181818;stroke-width:1.0;"/><line style="stroke:#181818;stroke-width:1.0;" x1="1413" x2="2470.5" y1="733.1191" y2="733.1191"/><text fill="#000000" font-family="sans-serif" font-size="13" lengthAdjust="spacing" textLength="77" x="1901.25" y="728.377">ok response</text><polygon fill="#181818" points="1115.5,758.4297,1105.5,762.4297,1115.5,766.4297" style="stroke:#181818;stroke-width:1.0;"/><line style="stroke:#181818;stroke-width:1.0;" x1="1109.5" x2="1407" y1="762.4297" y2="762.4297"/><text fill="#000000" font-family="sans-serif" font-size="13" lengthAdjust="spacing" textLength="96" x="1208.25" y="757.6875">resolve request</text><polygon fill="#181818" points="1781,787.7402,1791,791.7402,1781,795.7402" style="stroke:#181818;stroke-width:1.0;"/><line style="stroke:#181818;stroke-width:1.0;" x1="1104.5" x2="1787" y1="791.7402" y2="791.7402"/><text fill="#000000" font-family="sans-serif" font-size="13" lengthAdjust="spacing" textLength="169" x="1364.25" y="786.998">request and build template</text><polygon fill="#181818" points="1115.5,817.0508,1105.5,821.0508,1115.5,825.0508" style="stroke:#181818;stroke-width:1.0;"/><line style="stroke:#181818;stroke-width:1.0;" x1="1109.5" x2="1792" y1="821.0508" y2="821.0508"/><text fill="#000000" font-family="sans-serif" font-size="13" lengthAdjust="spacing" textLength="78" x="1409.75" y="816.3086">return HTML</text><polygon fill="#181818" points="495.5,846.3613,485.5,850.3613,495.5,854.3613" style="stroke:#181818;stroke-width:1.0;"/><line style="stroke:#181818;stroke-width:1.0;" x1="489.5" x2="1103.5" y1="850.3613" y2="850.3613"/><text fill="#000000" font-family="sans-serif" font-size="13" lengthAdjust="spacing" textLength="78" x="755.5" y="845.6191">return HTML</text><polygon fill="#181818" points="66.5,875.6719,56.5,879.6719,66.5,883.6719" style="stroke:#181818;stroke-width:1.0;"/><line style="stroke:#181818;stroke-width:1.0;" x1="60.5" x2="483.5" y1="879.6719" y2="879.6719"/><text fill="#000000" font-family="sans-serif" font-size="13" lengthAdjust="spacing" textLength="80" x="230" y="874.9297">render HTML</text><path d="M10,894.6719 L72,894.6719 L72,901.9824 L62,911.9824 L10,911.9824 L10,894.6719 " fill="#EEEEEE" style="stroke:#000000;stroke-width:1.5;"/><rect fill="none" height="517.5898" style="stroke:#000000;stroke-width:1.5;" width="2552" x="10" y="894.6719"/><text fill="#000000" font-family="sans-serif" font-size="13" font-weight="bold" lengthAdjust="spacing" textLength="17" x="25" y="908.2402">alt</text><text fill="#000000" font-family="sans-serif" font-size="11" font-weight="bold" lengthAdjust="spacing" textLength="248" x="87" y="907.3066">[Search users by username/court/user-type]</text><polygon fill="#181818" points="472.5,929.293,482.5,933.293,472.5,937.293" style="stroke:#181818;stroke-width:1.0;"/><line style="stroke:#181818;stroke-width:1.0;" x1="55.5" x2="478.5" y1="933.293" y2="933.293"/><text fill="#000000" font-family="sans-serif" font-size="13" lengthAdjust="spacing" textLength="405" x="67.5" y="928.5508">enter username/court/user-type in search field and click search</text><polygon fill="#181818" points="1092.5,958.6035,1102.5,962.6035,1092.5,966.6035" style="stroke:#181818;stroke-width:1.0;"/><line style="stroke:#181818;stroke-width:1.0;" x1="484.5" x2="1098.5" y1="962.6035" y2="962.6035"/><text fill="#000000" font-family="sans-serif" font-size="13" lengthAdjust="spacing" textLength="125" x="732" y="957.8613">call users controller</text><polygon fill="#181818" points="1247,987.9141,1257,991.9141,1247,995.9141" style="stroke:#181818;stroke-width:1.0;"/><line style="stroke:#181818;stroke-width:1.0;" x1="1104.5" x2="1253" y1="991.9141" y2="991.9141"/><text fill="#000000" font-family="sans-serif" font-size="13" lengthAdjust="spacing" textLength="126" x="1118.75" y="987.1719">build request object</text><polygon fill="#181818" points="2459.5,1017.2246,2469.5,1021.2246,2459.5,1025.2246" style="stroke:#181818;stroke-width:1.0;"/><line style="stroke:#181818;stroke-width:1.0;" x1="1259" x2="2465.5" y1="1021.2246" y2="1021.2246"/><text fill="#000000" font-family="sans-serif" font-size="13" lengthAdjust="spacing" textLength="138" x="1796.25" y="1016.4824">send backend request</text><path d="M20,1036.2246 L82,1036.2246 L82,1043.5352 L72,1053.5352 L20,1053.5352 L20,1036.2246 " fill="#EEEEEE" style="stroke:#000000;stroke-width:1.5;"/><rect fill="none" height="193.1738" style="stroke:#000000;stroke-width:1.5;" width="2532" x="20" y="1036.2246"/><text fill="#000000" font-family="sans-serif" font-size="13" font-weight="bold" lengthAdjust="spacing" textLength="17" x="35" y="1049.793">alt</text><text fill="#000000" font-family="sans-serif" font-size="11" font-weight="bold" lengthAdjust="spacing" textLength="165" x="97" y="1048.8594">[Failed to fetch list of courts]</text><polygon fill="#181818" points="1270,1070.8457,1260,1074.8457,1270,1078.8457" style="stroke:#181818;stroke-width:1.0;"/><line style="stroke:#181818;stroke-width:1.0;stroke-dasharray:2.0,2.0;" x1="1264" x2="2470.5" y1="1074.8457" y2="1074.8457"/><text fill="#000000" font-family="sans-serif" font-size="13" lengthAdjust="spacing" textLength="91" x="1819.75" y="1070.1035">Error response</text><polygon fill="#181818" points="1115.5,1100.1563,1105.5,1104.1563,1115.5,1108.1563" style="stroke:#181818;stroke-width:1.0;"/><line style="stroke:#181818;stroke-width:1.0;stroke-dasharray:2.0,2.0;" x1="1109.5" x2="1258" y1="1104.1563" y2="1104.1563"/><text fill="#000000" font-family="sans-serif" font-size="13" lengthAdjust="spacing" textLength="127" x="1118.25" y="1099.4141">reject requestObject</text><polygon fill="#181818" points="2299,1129.4668,2309,1133.4668,2299,1137.4668" style="stroke:#181818;stroke-width:1.0;"/><line style="stroke:#181818;stroke-width:1.0;" x1="1104.5" x2="2305" y1="1133.4668" y2="1133.4668"/><text fill="#000000" font-family="sans-serif" font-size="13" lengthAdjust="spacing" textLength="169" x="1623.25" y="1128.7246">request and build template</text><polygon fill="#181818" points="1115.5,1158.7773,1105.5,1162.7773,1115.5,1166.7773" style="stroke:#181818;stroke-width:1.0;"/><line style="stroke:#181818;stroke-width:1.0;" x1="1109.5" x2="2310" y1="1162.7773" y2="1162.7773"/><text fill="#000000" font-family="sans-serif" font-size="13" lengthAdjust="spacing" textLength="78" x="1668.75" y="1158.0352">return HTML</text><polygon fill="#181818" points="963,1188.0879,953,1192.0879,963,1196.0879" style="stroke:#181818;stroke-width:1.0;"/><line style="stroke:#181818;stroke-width:1.0;" x1="957" x2="1103.5" y1="1192.0879" y2="1192.0879"/><text fill="#000000" font-family="sans-serif" font-size="13" lengthAdjust="spacing" textLength="78" x="989.25" y="1187.3457">return HTML</text><polygon fill="#181818" points="66.5,1217.3984,56.5,1221.3984,66.5,1225.3984" style="stroke:#181818;stroke-width:1.0;"/><line style="stroke:#181818;stroke-width:1.0;" x1="60.5" x2="951" y1="1221.3984" y2="1221.3984"/><text fill="#000000" font-family="sans-serif" font-size="13" lengthAdjust="spacing" textLength="108" x="449.75" y="1216.6563">render error page</text><polygon fill="#181818" points="1270,1253.709,1260,1257.709,1270,1261.709" style="stroke:#181818;stroke-width:1.0;"/><line style="stroke:#181818;stroke-width:1.0;" x1="1264" x2="2470.5" y1="1257.709" y2="1257.709"/><text fill="#000000" font-family="sans-serif" font-size="13" lengthAdjust="spacing" textLength="77" x="1826.75" y="1252.9668">ok response</text><polygon fill="#181818" points="1115.5,1283.0195,1105.5,1287.0195,1115.5,1291.0195" style="stroke:#181818;stroke-width:1.0;"/><line style="stroke:#181818;stroke-width:1.0;" x1="1109.5" x2="1258" y1="1287.0195" y2="1287.0195"/><text fill="#000000" font-family="sans-serif" font-size="13" lengthAdjust="spacing" textLength="96" x="1133.75" y="1282.2773">resolve request</text><polygon fill="#181818" points="1781,1312.3301,1791,1316.3301,1781,1320.3301" style="stroke:#181818;stroke-width:1.0;"/><line style="stroke:#181818;stroke-width:1.0;" x1="1104.5" x2="1787" y1="1316.3301" y2="1316.3301"/><text fill="#000000" font-family="sans-serif" font-size="13" lengthAdjust="spacing" textLength="169" x="1364.25" y="1311.5879">request and build template</text><polygon fill="#181818" points="1115.5,1341.6406,1105.5,1345.6406,1115.5,1349.6406" style="stroke:#181818;stroke-width:1.0;"/><line style="stroke:#181818;stroke-width:1.0;" x1="1109.5" x2="1792" y1="1345.6406" y2="1345.6406"/><text fill="#000000" font-family="sans-serif" font-size="13" lengthAdjust="spacing" textLength="78" x="1409.75" y="1340.8984">return HTML</text><polygon fill="#181818" points="495.5,1370.9512,485.5,1374.9512,495.5,1378.9512" style="stroke:#181818;stroke-width:1.0;"/><line style="stroke:#181818;stroke-width:1.0;" x1="489.5" x2="1103.5" y1="1374.9512" y2="1374.9512"/><text fill="#000000" font-family="sans-serif" font-size="13" lengthAdjust="spacing" textLength="78" x="755.5" y="1370.209">return HTML</text><polygon fill="#181818" points="66.5,1400.2617,56.5,1404.2617,66.5,1408.2617" style="stroke:#181818;stroke-width:1.0;"/><line style="stroke:#181818;stroke-width:1.0;" x1="60.5" x2="483.5" y1="1404.2617" y2="1404.2617"/><text fill="#000000" font-family="sans-serif" font-size="13" lengthAdjust="spacing" textLength="80" x="230" y="1399.5195">render HTML</text><path d="M10,1426.2617 L72,1426.2617 L72,1433.5723 L62,1443.5723 L10,1443.5723 L10,1426.2617 " fill="#EEEEEE" style="stroke:#000000;stroke-width:1.5;"/><rect fill="none" height="517.5898" style="stroke:#000000;stroke-width:1.5;" width="2552" x="10" y="1426.2617"/><text fill="#000000" font-family="sans-serif" font-size="13" font-weight="bold" lengthAdjust="spacing" textLength="17" x="25" y="1439.8301">alt</text><text fill="#000000" font-family="sans-serif" font-size="11" font-weight="bold" lengthAdjust="spacing" textLength="118" x="87" y="1438.8965">[Select a user record]</text><polygon fill="#181818" points="472.5,1460.8828,482.5,1464.8828,472.5,1468.8828" style="stroke:#181818;stroke-width:1.0;"/><line style="stroke:#181818;stroke-width:1.0;" x1="55.5" x2="478.5" y1="1464.8828" y2="1464.8828"/><text fill="#000000" font-family="sans-serif" font-size="13" lengthAdjust="spacing" textLength="92" x="224" y="1460.1406">click on a user</text><polygon fill="#181818" points="1092.5,1490.1934,1102.5,1494.1934,1092.5,1498.1934" style="stroke:#181818;stroke-width:1.0;"/><line style="stroke:#181818;stroke-width:1.0;" x1="484.5" x2="1098.5" y1="1494.1934" y2="1494.1934"/><text fill="#000000" font-family="sans-serif" font-size="13" lengthAdjust="spacing" textLength="125" x="732" y="1489.4512">call users controller</text><polygon fill="#181818" points="1561.5,1519.5039,1571.5,1523.5039,1561.5,1527.5039" style="stroke:#181818;stroke-width:1.0;"/><line style="stroke:#181818;stroke-width:1.0;" x1="1104.5" x2="1567.5" y1="1523.5039" y2="1523.5039"/><text fill="#000000" font-family="sans-serif" font-size="13" lengthAdjust="spacing" textLength="126" x="1276" y="1518.7617">build request object</text><polygon fill="#181818" points="2459.5,1548.8145,2469.5,1552.8145,2459.5,1556.8145" style="stroke:#181818;stroke-width:1.0;"/><line style="stroke:#181818;stroke-width:1.0;" x1="1573.5" x2="2465.5" y1="1552.8145" y2="1552.8145"/><text fill="#000000" font-family="sans-serif" font-size="13" lengthAdjust="spacing" textLength="138" x="1953.5" y="1548.0723">send backend request</text><path d="M20,1567.8145 L82,1567.8145 L82,1575.125 L72,1585.125 L20,1585.125 L20,1567.8145 " fill="#EEEEEE" style="stroke:#000000;stroke-width:1.5;"/><rect fill="none" height="193.1738" style="stroke:#000000;stroke-width:1.5;" width="2532" x="20" y="1567.8145"/><text fill="#000000" font-family="sans-serif" font-size="13" font-weight="bold" lengthAdjust="spacing" textLength="17" x="35" y="1581.3828">alt</text><text fill="#000000" font-family="sans-serif" font-size="11" font-weight="bold" lengthAdjust="spacing" textLength="156" x="97" y="1580.4492">[Failed to fetch user record]</text><polygon fill="#181818" points="1584.5,1602.4355,1574.5,1606.4355,1584.5,1610.4355" style="stroke:#181818;stroke-width:1.0;"/><line style="stroke:#181818;stroke-width:1.0;stroke-dasharray:2.0,2.0;" x1="1578.5" x2="2470.5" y1="1606.4355" y2="1606.4355"/><text fill="#000000" font-family="sans-serif" font-size="13" lengthAdjust="spacing" textLength="91" x="1977" y="1601.6934">Error response</text><polygon fill="#181818" points="1115.5,1631.7461,1105.5,1635.7461,1115.5,1639.7461" style="stroke:#181818;stroke-width:1.0;"/><line style="stroke:#181818;stroke-width:1.0;stroke-dasharray:2.0,2.0;" x1="1109.5" x2="1572.5" y1="1635.7461" y2="1635.7461"/><text fill="#000000" font-family="sans-serif" font-size="13" lengthAdjust="spacing" textLength="127" x="1275.5" y="1631.0039">reject requestObject</text><polygon fill="#181818" points="2299,1661.0566,2309,1665.0566,2299,1669.0566" style="stroke:#181818;stroke-width:1.0;"/><line style="stroke:#181818;stroke-width:1.0;" x1="1104.5" x2="2305" y1="1665.0566" y2="1665.0566"/><text fill="#000000" font-family="sans-serif" font-size="13" lengthAdjust="spacing" textLength="169" x="1623.25" y="1660.3145">request and build template</text><polygon fill="#181818" points="1115.5,1690.3672,1105.5,1694.3672,1115.5,1698.3672" style="stroke:#181818;stroke-width:1.0;"/><line style="stroke:#181818;stroke-width:1.0;" x1="1109.5" x2="2310" y1="1694.3672" y2="1694.3672"/><text fill="#000000" font-family="sans-serif" font-size="13" lengthAdjust="spacing" textLength="78" x="1668.75" y="1689.625">return HTML</text><polygon fill="#181818" points="963,1719.6777,953,1723.6777,963,1727.6777" style="stroke:#181818;stroke-width:1.0;"/><line style="stroke:#181818;stroke-width:1.0;" x1="957" x2="1103.5" y1="1723.6777" y2="1723.6777"/><text fill="#000000" font-family="sans-serif" font-size="13" lengthAdjust="spacing" textLength="78" x="989.25" y="1718.9355">return HTML</text><polygon fill="#181818" points="66.5,1748.9883,56.5,1752.9883,66.5,1756.9883" style="stroke:#181818;stroke-width:1.0;"/><line style="stroke:#181818;stroke-width:1.0;" x1="60.5" x2="951" y1="1752.9883" y2="1752.9883"/><text fill="#000000" font-family="sans-serif" font-size="13" lengthAdjust="spacing" textLength="108" x="449.75" y="1748.2461">render error page</text><polygon fill="#181818" points="1584.5,1785.2988,1574.5,1789.2988,1584.5,1793.2988" style="stroke:#181818;stroke-width:1.0;"/><line style="stroke:#181818;stroke-width:1.0;" x1="1578.5" x2="2470.5" y1="1789.2988" y2="1789.2988"/><text fill="#000000" font-family="sans-serif" font-size="13" lengthAdjust="spacing" textLength="77" x="1984" y="1784.5566">ok response</text><polygon fill="#181818" points="1115.5,1814.6094,1105.5,1818.6094,1115.5,1822.6094" style="stroke:#181818;stroke-width:1.0;"/><line style="stroke:#181818;stroke-width:1.0;" x1="1109.5" x2="1572.5" y1="1818.6094" y2="1818.6094"/><text fill="#000000" font-family="sans-serif" font-size="13" lengthAdjust="spacing" textLength="96" x="1291" y="1813.8672">resolve request</text><polygon fill="#181818" points="2062,1843.9199,2072,1847.9199,2062,1851.9199" style="stroke:#181818;stroke-width:1.0;"/><line style="stroke:#181818;stroke-width:1.0;" x1="1104.5" x2="2068" y1="1847.9199" y2="1847.9199"/><text fill="#000000" font-family="sans-serif" font-size="13" lengthAdjust="spacing" textLength="169" x="1504.75" y="1843.1777">request and build template</text><polygon fill="#181818" points="1115.5,1873.2305,1105.5,1877.2305,1115.5,1881.2305" style="stroke:#181818;stroke-width:1.0;"/><line style="stroke:#181818;stroke-width:1.0;" x1="1109.5" x2="2073" y1="1877.2305" y2="1877.2305"/><text fill="#000000" font-family="sans-serif" font-size="13" lengthAdjust="spacing" textLength="78" x="1550.25" y="1872.4883">return HTML</text><polygon fill="#181818" points="751.5,1902.541,741.5,1906.541,751.5,1910.541" style="stroke:#181818;stroke-width:1.0;"/><line style="stroke:#181818;stroke-width:1.0;" x1="745.5" x2="1103.5" y1="1906.541" y2="1906.541"/><text fill="#000000" font-family="sans-serif" font-size="13" lengthAdjust="spacing" textLength="78" x="883.5" y="1901.7988">return HTML</text><polygon fill="#181818" points="66.5,1931.8516,56.5,1935.8516,66.5,1939.8516" style="stroke:#181818;stroke-width:1.0;"/><line style="stroke:#181818;stroke-width:1.0;" x1="60.5" x2="739.5" y1="1935.8516" y2="1935.8516"/><text fill="#000000" font-family="sans-serif" font-size="13" lengthAdjust="spacing" textLength="80" x="358" y="1931.1094">render HTML</text><!--SRC=[xLXjS-8s4FxkNx6zTYOm4yXBSpSjSvCf8GvtEGWKp7tj25i11I5HMwR3l-zACi5l98Gaq-lb-C1WQP-Lzjb7knPJ5b281MTYHWFd9oPy7kF8X0eQChysvjAVHVK59qB5S-uuqOo91Gd978PgnIb42itq5AIdwDyn5JxjqYWY4zhaR2BcL2ZmyOk6ZeDcYlbiWLwXwIk9GmS71z3fjPeT6FH6tkURTiPe5D4mwgCl-FZnY0Hp9XYkJ1IJuYZMS_Rx_Bo06b1VXi6Zq5fex78EsfO6Dmnbk7P1zGFQcHstUZVUeDVfk0Detbp2mFrpv0uzw5rSkorlM0oX9OKA9USqH5TczRf_FrI_mm3WPsHhgbQKS_bFna5Bng6AUkCxwYj4- -RnijchJwYgL1z2cgNlWMPPZLl8Q0UW9J23jaENJLc-j676SxlzJjDpIqZmw1m5fHx9PLtSpRRcSoSNIKvB79c4fdpyPP8Q7IMojmWCYYof26YYpejcwukBITxaFEFpWlWpjDvas76CjA5slf5l0tpE_1cOJO8YOsUZxBLTIYDeJZXFhFsKvr-IdJRxdrjeKSa13pDYESp6UmZlhWZZD00buPOgVmeSwGDv2rPJxwexB93IrEx-JI36VMY8NKCygHdOiiZ6xprNw85mXNM6XEZTqZDUcH-2pEcHYSDgGAqMr07y59E1z9fwj1K7J41arxXbb0T0H90aq0uRntjbK0DVEubcZUSIZV0rsLnN069Y0NkqjX2xLhaKYVd-FEr6LBvEFKvMAeYdCvMjGOUvFcCv-yCGDysqr-JpQZtqM- -ORxGTVWyDy3_hT50mHNGczmqOnmoBSwXFZ2w1PXY16Ij45VQDq0W7O6mdrXviqT4rx-4IQyooCgpLIbSnTAFxQ255H3VLCAr_XER22gdvaUpA3jkzbJd00BDPRTmpejkMvKWbaqxP1ahmAWu5VFAw7GGKZtQj98rPZDK56XR0sb9B2upoO85ZQ6-APe7KKaxbB4reIJG5DYF9bpITv18AqxLXgx3IHY-gAoF_ZJnUHbNPaDwkgBAKxgUfF9SxI-eP11RnQJ9IVVu9pANVWHFAZCdty5hzesFyw1YlqZ6silX_Ek7VmdrkAucPb-i7ss_6yaLEQfw6uil-yzjmBhwttOjpvExVa0kiFk7OvcvJ-vtT4YVv0vo-L3_n5AUWnQDi_sRew__dHzqEBD4ltW7Xf7vwV7fM_xNYJMEuecCuUGydlpVEZXl7xw7TzK1FLvrAkzzPdaA4TS-d4EWx91l7-XPPTQx9ai0W5ehDiG3efuhNhSBGNG-2AvOibEPV2UVwQzSQmIUfXWkfZF67ize5qwKcn8t1rwvpIMz9Z8VF5RuCc9WqOEHTrNvpEaHCObDfg72m32CpgmQqB_u5]--></g></svg>